<?xml version="1.0" encoding="utf-8"?>
<!-- Generator: Adobe Illustrator 16.0.0, SVG Export Plug-In . SVG Version: 6.00 Build 0)  -->
<!DOCTYPE svg PUBLIC "-//W3C//DTD SVG 1.1//EN" "http://www.w3.org/Graphics/SVG/1.1/DTD/svg11.dtd">
<svg version="1.1" id="Layer_1" xmlns="http://www.w3.org/2000/svg" xmlns:xlink="http://www.w3.org/1999/xlink" x="0px" y="0px"
	 width="500px" height="500px" viewBox="0 0 500 500" enable-background="new 0 0 500 500" xml:space="preserve">
<g>
	<path fill-rule="evenodd" clip-rule="evenodd" d="M332.37,360.337c-4.806,6.118-10.536,10.005-18.287,8.697
		c-8.579-1.448-9.991-8.439-10.782-16.426c-1.227,1.694-1.939,2.679-2.651,3.665c-5.203,7.209-11.84,11.998-21.036,12.477
		c-8.42,0.438-15.205-4.766-16.361-13.176c-2.573-18.714,4.127-33.884,18.984-45.13c7.933-6.004,17.205-6.129,26.551-2.986
		c1.259,0.424,2.747,0.38,4.104,0.257c2.782-0.254,5.553-1.052,8.317-0.999c4.11,0.078,5.961,3.08,5.045,7.079
		c-2.391,10.437-4.818,20.867-6.91,31.364c-0.552,2.769-0.276,5.83,0.23,8.646c0.559,3.103,3.271,4.202,5.758,2.252
		c1.979-1.553,4.054-3.725,4.752-6.026c2.128-7.014,3.668-14.209,5.313-21.361c0.692-3.006,1.02-6.094,1.642-9.118
		c0.134-0.652,0.809-1.689,1.257-1.701c3.782-0.104,7.616-0.359,11.337,0.148c2.536,0.346,3.954,2.382,3.396,5.301
		c-1.449,7.577-2.897,15.156-4.208,22.759c-0.476,2.766-0.672,5.596-0.748,8.402c-0.021,0.833,0.613,2.121,1.287,2.411
		c0.664,0.287,2.137-0.141,2.597-0.752c1.563-2.077,3.492-4.21,4.095-6.618c1.805-7.203,3.579-14.486,4.408-21.847
		c2.447-21.745,11.482-40.079,27.652-54.722c8.703-7.882,18.034-15.067,26.88-22.8c11.877-10.381,21.05-22.677,25.093-38.204
		c3.217-12.35,1.743-23.744-8.202-32.798c-7.035-6.407-15.438-7.76-24.465-5.514c-11.076,2.756-19.095,9.784-25.693,18.756
		c-1.883,2.561-4.018,4.935-6.097,7.467c5.379,8.224,9.564,17.016,12.011,26.622c2.432,9.55,3.014,19.27,2.395,29.008
		c-0.53,8.343-5.971,14.027-11.989,19.128c-11.073,9.384-24.271,13.963-38.216,16.905c-20.965,4.423-42.191,4.058-63.424,3.589
		c-12.763-0.281-25.523-0.67-38.284-1.034c-1.432-0.042-2.859-0.239-4.772-0.405c0.55-5.395,0.954-10.548,1.728-15.646
		c0.113-0.745,1.991-1.752,3.042-1.74c8.205,0.093,16.409,0.375,24.611,0.656c18.404,0.631,36.804,1.52,55.213,1.849
		c8.809,0.156,17.624-0.753,26.21-3.132c7.699-2.136,14.061-6.279,19.178-12.371c2.837-3.377,4.256-7.322,4.633-12.415
		c-0.962,1.188-1.557,1.903-2.129,2.637c-6.657,8.539-15.482,12.734-26.227,12.871c-7.24,0.093-11.94-3.803-13.489-10.958
		c-0.418-1.932-0.639-3.907-1.067-6.608c-1.195,1.717-2.038,2.907-2.86,4.11c-5.475,8.014-12.964,12.157-22.745,11.294
		c-7.761-0.687-14.06-7.096-15.423-15.135c-3.142-18.519,11.746-41.806,29.865-46.484c5.998-1.549,12.011-1.574,17.991,0.639
		c1.516,0.56,3.486,0.051,5.22-0.176c3.717-0.486,7.28-0.444,10.324,2.167c1.353,1.16,1.837,2.424,1.346,4.335
		c-2.262,8.779-4.49,17.572-6.413,26.428c-0.744,3.429-0.929,7.044-0.874,10.566c0.08,5.183,3.48,7.504,8.448,6.161
		c7.57-2.048,13.322-10.029,14.003-18.647c0.727-9.196-1.903-17.409-6.293-25.27c-8.942-16.011-21.564-28.027-38.385-35.519
		c-0.974-0.433-1.895-0.983-2.805-1.46c1.384-3.802,7.835-6.398,13.1-5.459c8.467,1.511,15.548,5.937,22.555,10.521
		c3.339,2.186,6.56,4.554,9.569,6.655c4.257-4.675,8.144-9.508,12.605-13.734c11.995-11.362,26.113-17.675,42.952-16.756
		c22.456,1.225,41.636,14.186,46.469,37.633c2.594,12.578,0.246,24.577-4.991,36.12c-6.857,15.111-16.982,27.793-29.419,38.603
		c-7.694,6.687-15.697,13.04-23.801,19.23c-13.747,10.502-22.665,24.334-29.117,40.138c-3.904,9.563-8.197,18.997-12.877,28.203
		c-2.057,4.049-5.309,7.57-8.392,10.993c-2.563,2.845-6.201,4.092-9.97,4.613C339.046,369.404,335.386,367.052,332.37,360.337z
		 M280.381,344.031c0.453,1.861,0.746,4.329,1.661,6.539c1.479,3.567,4.515,4.943,8.005,3.278c2.777-1.326,5.644-3.151,7.545-5.503
		c6.954-8.604,8.579-19.155,9.966-29.719c0.251-1.907-1.041-2.314-2.477-2.506c-4.416-0.589-8.59,0.26-12.179,2.857
		C284.615,324.976,281.728,333.775,280.381,344.031z M303.125,238.35c0,0.729-0.068,1.467,0.012,2.188
		c0.38,3.423,1.016,7.091,4.351,8.615c3.538,1.618,6.717-0.525,9.367-2.87c4.371-3.868,7.783-8.504,9.283-14.192
		c1.339-5.079,2.266-10.274,3.196-15.45c0.52-2.89-0.508-4.083-3.544-4.525c-6.414-0.933-11.819,1.244-15.709,6.228
		C305.557,224.14,303.381,230.963,303.125,238.35z"/>
	<path fill-rule="evenodd" clip-rule="evenodd" d="M262.735,117.874c4.585,0.96,9.136,1.695,13.566,2.88
		c13.4,3.583,25.61,9.364,35.033,19.948c3.145,3.532,5.33,7.505,5.508,12.435c0.182,5.018-1.97,8.729-5.807,11.704
		c-7.523,5.832-16.397,8.393-25.428,10.614c-12.963,3.189-26.186,4.261-39.461,4.949c-17.475,0.904-34.975,1.488-52.417,2.82
		c-17.412,1.33-33.761,6.178-47.66,17.391c-4.67,3.767-8.469,8.248-10.641,13.943c-0.149,0.39-0.221,0.809,0.106,1.577
		c2.22-1.792,4.405-3.628,6.666-5.368c4.117-3.167,8.25-6.382,13.679-6.908c7.775-0.754,12.977,3.611,13.696,11.375
		c0.032,0.351,0.083,0.7,0.213,1.783c1.419-1.502,2.503-2.631,3.567-3.779c3.257-3.518,5.99-7.899,11.122-8.788
		c3.436-0.595,7.092-0.762,10.53-0.273c4.334,0.615,6.59,3.881,7.406,8.073c1.11,5.702-0.375,11.211-1.314,16.761
		c-1.225,7.244-2.6,14.47-3.561,21.748c-0.667,5.063-0.167,10.05,3.749,13.874c-0.176,0.343-0.213,0.558-0.337,0.638
		c-4.804,3.074-9.717,1.495-14.373-0.117c-3.932-1.361-5.735-5.017-5.462-8.945c0.496-7.142,1.577-14.242,2.45-21.355
		c0.596-4.866,1.433-9.711,1.815-14.593c0.24-3.074-1.155-4.008-4.082-2.944c-7.306,2.655-11.74,8.274-13.218,15.525
		c-2.01,9.858-3.135,19.905-4.388,29.903c-0.527,4.202-0.796,4.804-4.961,5.222c-2.717,0.271-5.417,0.723-8.138,0.945
		c-3.631,0.296-4.896-0.702-4.48-4.263c0.759-6.495,1.841-12.956,2.939-19.405c1.051-6.175,2.366-12.304,3.415-18.479
		c0.412-2.427,0.615-5.053-1.767-6.738c-1.642-1.162-5.373-0.037-7.762,2.034c-5.62,4.872-9.391,11.018-11.015,18.149
		c-1.747,7.676-2.931,15.508-3.884,23.331c-0.745,6.119-1.04,6.706-7.18,6.649c-14.023-0.129-24.05-7.323-31.854-18.212
		c-7.378-10.292-11.246-22.086-14.125-34.275c-2.273-9.621-4.403-19.288-7.098-28.793c-3.992-14.084-12.483-24.902-25.024-32.516
		c-1.382-0.84-2.657-1.857-4.814-3.38c1.969-0.926,3.284-2.062,4.628-2.096c11.849-0.303,23.707-0.625,35.556-0.479
		c5.605,0.068,9.438,3.869,12.671,8.124c5.118,6.735,9.95,13.71,15.397,20.168c5.985,7.096,13.391,12.543,21.946,16.338
		c1.528,0.678,2.567,0.592,3.797-0.678c15.039-15.517,33.509-24.509,54.709-27.632c11.499-1.694,23.153-2.381,34.754-3.321
		c14.88-1.207,29.808-1.896,44.652-3.426c8.31-0.857,16.288-3.575,23.632-7.782c0.937-0.537,1.888-1.152,2.614-1.935
		c1.717-1.848,1.137-3.586-1.337-4.178c-0.695-0.167-1.445-0.151-2.171-0.151c-32.648,0.036-65.297,0.078-97.947,0.118
		c-0.638,0.001-1.303,0.088-1.909-0.058c-1.155-0.278-2.276-0.696-3.412-1.056c0.639-1.037,1.084-2.287,1.948-3.081
		c11.974-10.985,25.959-18.241,41.669-22.244c1.934-0.493,3.882-0.93,5.819-1.413c0.433-0.108,0.845-0.303,1.491-0.541
		c-1.474-1.038-2.945-1.868-4.168-2.973c-5.413-4.889-5.919-11.842-1.421-18.186c8.229-11.604,29.098-11.744,37.476-0.252
		C274.24,104.37,272.19,112.399,262.735,117.874z"/>
	<path fill-rule="evenodd" clip-rule="evenodd" d="M239.121,397.228c-2.558-0.224-5.112-0.521-7.674-0.658
		c-24.883-1.34-49.073-5.818-71.817-16.394c-17.82-8.286-32.253-20.424-41.19-38.284c-5.817-11.624-7.494-23.691-2.456-36.079
		c3.892-9.565,11.247-15.693,20.476-19.775c10.917-4.827,22.46-7.237,34.276-8.196c10.164-0.825,20.372-1.101,30.554-1.721
		c2.607-0.159,3.692,0.661,3.341,3.371c-0.503,3.881-0.829,7.784-1.225,11.679c-0.19,1.869-1.078,2.529-3.072,2.481
		c-12.86-0.307-25.73-0.122-38.213,3.392c-5.198,1.463-10.465,3.323-15.092,6.04c-9.824,5.767-12.808,15.2-11.732,26.018
		c0.652,6.568,2.875,12.746,6.582,18.291c0.729,1.09,1.684,2.029,2.795,3.348c0.296-4.824,0.215-9.189,0.89-13.435
		c1.936-12.188,7.949-21.985,18.317-28.811c7.682-5.057,20.401-4.847,27.155,0.184c4.724,3.518,6.857,8.318,5.792,14.081
		c-0.354,1.917-1.813,4.372-3.447,5.15c-3.196,1.523-6.837,2.222-10.364,2.893c-1.725,0.329-2.532-0.742-2.072-2.755
		c1.288-5.631,0.208-8.814-3.261-10.401c-2.775-1.271-7.066,0.598-9.815,4.703c-5.208,7.776-6.375,16.363-3.928,25.285
		c1.691,6.167,9.874,9.827,16.255,7.312c3.157-1.245,5.923-3.459,8.942-5.093c0.948-0.514,2.446-1.116,3.167-0.72
		c1.623,0.891,1.924,2.654,0.854,4.257c-5.685,8.507-11.772,16.456-23.594,15.854c-0.237-0.012-0.484,0.147-1.439,0.463
		c1.552,0.737,2.584,1.286,3.661,1.73c11.143,4.603,22.849,7.173,34.659,9.176c23.511,3.986,47.258,5.133,71.059,4.869
		c21.407-0.237,42.734-1.536,63.538-7.284c0.926-0.256,2.863,0.18,3.021,0.694c0.402,1.312,0.623,3.249-0.074,4.233
		c-3.937,5.556-7.967,11.072-12.347,16.28c-4.659,5.54-10.846,8.771-17.982,10.024c-2.5,0.439-5.056,0.78-7.587,0.783
		c-42.499,0.046-85,0.025-127.5,0.045c-2.834,0.001-5.669-0.072-7.007-3.069c-1.358-3.044-0.805-6.209,1.017-8.823
		c1.803-2.587,4.73-2.84,7.667-2.216c12.519,2.658,25.179,3.955,37.969,3.649c6.098-0.146,12.187-0.704,18.275-1.133
		c0.913-0.064,1.803-0.451,2.704-0.688C239.171,397.728,239.146,397.479,239.121,397.228z"/>
	<path fill-rule="evenodd" clip-rule="evenodd" d="M212.915,271.364c3.568,0,7.035-0.308,10.42,0.086
		c3.36,0.391,5.694,3.372,5.272,6.882c-0.693,5.758-1.873,11.459-2.901,17.174c-1.334,7.413-2.726,14.815-4.076,22.226
		c-0.06,0.328,0.048,0.688,0.131,1.647c1.858-1.627,3.398-2.965,4.929-4.314c4.588-4.049,9.247-7.761,15.596-8.982
		c7.706-1.481,14.708,3.367,14.665,12.604c-0.034,7.645-1.693,15.294-2.808,22.916c-0.982,6.726-2.973,13.378-1.362,20.252
		c0.431,1.835,1.103,3.652,1.937,5.343c0.711,1.438,0.41,2.361-0.971,2.747c-4.991,1.395-10.1,2.121-14.727-0.843
		c-4.235-2.712-5.189-7.2-4.549-11.818c1.085-7.818,2.583-15.581,3.856-23.375c0.512-3.133,1.1-6.275,1.279-9.434
		c0.215-3.807-1.079-4.703-4.833-3.729c-5.391,1.396-9.22,4.848-12.363,9.301c-3.854,5.46-4.461,11.809-5.183,18.12
		c-0.663,5.785-1.152,11.591-1.703,17.389c-0.21,2.212-1.25,3.491-3.612,3.529c-3.736,0.059-7.472,0.266-11.206,0.254
		c-3.39-0.011-4.217-1.029-3.657-4.411c1.485-8.961,2.971-17.922,4.577-26.861c3.29-18.316,6.702-36.61,9.956-54.933
		C212.261,279.305,212.471,275.395,212.915,271.364z"/>
	<path fill-rule="evenodd" clip-rule="evenodd" d="M258.944,212.631c2.74-2.566,5.149-5.034,7.778-7.239
		c4.254-3.565,9.326-4.446,14.644-3.559c3.42,0.571,5.644,2.888,6.503,6.253c2.227,8.719-5.026,16.938-13.972,15.911
		c-2.032-0.233-3.1-1.042-1.927-3.219c0.256-0.474,0.411-1.011,0.555-1.536c0.644-2.35,0.056-3.099-2.302-2.814
		c-4.828,0.583-8.095,3.292-10.388,7.49c-3.126,5.725-4.094,12.001-4.846,18.319c-0.711,5.963-1.15,11.958-1.768,17.934
		c-0.344,3.344-1.623,4.461-4.901,4.473c-3.466,0.013-6.933,0.017-10.398,0.017c-3.421,0-3.71-0.239-3.144-3.546
		c1.287-7.519,2.707-15.014,4.016-22.529c1.777-10.202,4.375-20.303,4.135-30.764c-0.046-2.034-0.504-4.106-1.093-6.064
		c-0.421-1.401-0.238-2.051,1.197-2.319c4.55-0.849,9.11-0.895,13.411,0.87c1.126,0.462,2.218,2.246,2.388,3.544
		C259.195,206.622,258.944,209.47,258.944,212.631z"/>
	<path fill-rule="evenodd" clip-rule="evenodd" d="M227.632,262.008c-2.728,2.737-10.019,3.975-13.888,2.302
		c-4.644-2.007-5.912-6.286-5.716-10.587c0.309-6.783,1.36-13.541,2.291-20.283c0.905-6.558,2.111-13.074,3.062-19.627
		c0.271-1.871,0.868-3.11,2.944-3.065c2.977,0.064,6.012-0.18,8.916,0.324c3.587,0.624,4.497,2.265,3.894,5.854
		c-1.292,7.696-2.762,15.364-3.961,23.075c-0.831,5.347-2.381,10.744-0.241,16.135C225.73,258.145,226.736,260.071,227.632,262.008z
		"/>
	<path fill-rule="evenodd" clip-rule="evenodd" d="M348.745,294.218c0.092,0,0.183,0,0.272,0c5.164,0.063,8.652,1.798,9.546,4.744
		c1.062,3.507-1.26,9.323-4.936,11.563c-1.735,1.059-3.779,1.835-5.78,2.188c-4.175,0.738-7.388-1.494-8.693-5.623
		c-1.469-4.644,0.359-9.812,4.356-11.716c1.59-0.758,3.417-1.017,5.136-1.503C348.68,293.987,348.713,294.103,348.745,294.218z"/>
	<path fill-rule="evenodd" clip-rule="evenodd" d="M214.305,196.167c-0.021-4.428,3.99-8.36,8.753-8.983
		c4.845-0.634,9.893,1.839,11.114,5.493c1.303,3.897,0.042,7.158-2.753,9.883c-2.975,2.899-8.316,3.873-11.926,2.116
		C215.843,202.9,214.503,199.632,214.305,196.167z"/>
</g>
</svg>
