<?xml version="1.0" encoding="utf-8"?>
<!-- Generator: Adobe Illustrator 16.0.0, SVG Export Plug-In . SVG Version: 6.00 Build 0)  -->
<!DOCTYPE svg PUBLIC "-//W3C//DTD SVG 1.1//EN" "http://www.w3.org/Graphics/SVG/1.1/DTD/svg11.dtd">
<svg version="1.1" id="Layer_1" xmlns="http://www.w3.org/2000/svg" xmlns:xlink="http://www.w3.org/1999/xlink" x="0px" y="0px"
	 width="1024px" height="1024px" viewBox="0 0 1024 1024" enable-background="new 0 0 1024 1024" xml:space="preserve">
<path fill-rule="evenodd" clip-rule="evenodd" d="M370.986,574.838c-23.627,5.763-46.114,7.162-68.968,3.637
	c-42.491-6.554-80.19-23.904-114.195-49.778c-3.706-2.82-7.204-6.001-10.391-9.397c-5.478-5.841-5.675-9.113,0.408-14.169
	c9.683-8.05,19.494-16.115,30.078-22.878c24.985-15.965,52.37-26.511,81.34-32.612c27.314-5.752,54.695-5.834,82.207,0.744
	c-1.918-1.519-3.855-3.017-5.752-4.562c-2.027-1.65-4.018-3.345-6.023-5.021c-36.709-30.681-59.463-70.267-72.57-115.624
	c-4.495-15.554-6.79-31.747-10.005-47.664c-0.349-1.728-0.168-3.571-0.167-5.359c0.006-5.833,2.267-8.643,7.859-7.833
	c10.787,1.564,21.716,3.043,32.132,6.104c33.683,9.893,64.831,25.029,92.164,47.38c15.318,12.526,28.35,27.243,40.377,42.888
	c0.653,0.85,1.365,1.654,2.734,2.276c-0.355-2.409-0.643-4.829-1.076-7.223c-2.738-15.113-3.2-30.293-1.616-45.567
	c4.687-45.21,23.363-84.758,49.087-121.452c2.205-3.145,4.652-6.136,7.163-9.047c4.349-5.042,8.751-5.814,13.396-1.147
	c5.587,5.615,10.883,11.721,15.253,18.311c19.535,29.456,33.357,61.492,40.664,96.082c4.987,23.608,4.762,47.419-0.085,71.39
	c2.277-2.901,4.636-5.743,6.821-8.712c23.979-32.597,55.647-55.338,92.116-71.939c19.11-8.699,39.003-14.879,59.684-18.509
	c2.162-0.379,4.351-0.613,6.533-0.855c7.335-0.814,10.344,1.924,9.788,9.286c-0.476,6.284-0.944,12.606-2.041,18.8
	c-4.93,27.848-13.201,54.606-26.108,79.893c-14.599,28.6-34.456,52.805-59.56,72.764c-1.909,1.517-3.738,3.135-6.355,5.336
	c6.478-1.015,12.033-1.936,17.604-2.75c14.882-2.18,29.74-2.593,44.768-0.912c34.089,3.811,65.74,14.73,95.328,31.776
	c12.978,7.477,25.506,15.703,36.045,26.559c5.444,5.607,5.798,8.376,0.558,14.02c-9.898,10.66-21.884,18.717-34.26,26.169
	c-25.626,15.432-53.054,26.412-82.485,31.886c-17.73,3.296-35.664,4.824-53.688,2.079c-7.674-1.167-15.335-2.418-23.159-3.656
	c4.199,3.634,8.492,7.274,12.704,11.008c38.055,33.728,62.157,75.799,73.628,125.061c3.338,14.33,4.582,29.146,6.793,43.738
	c0.821,5.419-2.901,8.877-9.432,7.985c-18.642-2.545-36.654-7.457-54.137-14.354c-27.079-10.686-52.325-24.524-74.238-43.904
	c-12.827-11.345-24.107-24.111-33.653-38.368c-0.98-1.465-2.083-2.85-3.563-4.86c0.854,6.397,1.589,12.082,2.375,17.759
	c1.821,13.156,1.515,26.261,0.064,39.472c-2.589,23.59-9.068,46.06-18.314,67.792c-8.512,20.009-18.962,38.914-32.908,55.724
	c-1.93,2.326-3.977,4.586-6.187,6.643c-4.562,4.246-8.497,4.229-12.988-0.082c-9.509-9.126-16.558-20.104-23.089-31.414
	c-14.438-25.004-25.372-51.44-31.176-79.785c-3.817-18.642-5.267-37.51-2.901-56.52c0.792-6.367,1.595-12.734,2.491-19.89
	c-4.052,5.483-7.671,10.495-11.408,15.417c-21.363,28.129-48.459,49.062-80.269,64.163c-21.355,10.138-43.621,17.305-66.912,21.29
	c-2.702,0.463-5.444,0.753-8.18,0.95c-5.444,0.394-8.797-2.285-8.231-7.668c1.242-11.829,2.509-23.713,4.837-35.36
	c7.268-36.361,22.254-69.416,44.126-99.337c11.763-16.093,25.777-30.054,41.042-42.803
	C368.1,577.336,369.115,576.443,370.986,574.838z M569.793,516.374c1.868-29.326-18.495-56.19-49.095-60.228
	c-34.392-4.539-61.631,21.158-63.211,53.983c-1.422,29.533,21.683,57.646,53.559,59.409
	C540.011,571.139,568.399,547.753,569.793,516.374z M696.525,487.133c-25.813-0.066-45.447,6.038-63.767,16.729
	c-2.711,1.582-5.31,3.401-7.779,5.341c-2.524,1.982-2.72,4.319-0.207,6.581c1.018,0.917,2.008,1.899,3.147,2.643
	c22.961,14.985,47.811,22.574,75.471,19.432c19.057-2.165,36.706-8.392,53.109-18.162c9.783-5.829,9.767-8.19-0.147-14.065
	C736.558,493.903,715.233,487.273,696.525,487.133z M336.781,486.606c-7.072,0.807-14.207,1.254-21.202,2.494
	c-16.544,2.931-32.145,8.572-46.306,17.754c-7.51,4.869-7.52,7.319,0.099,11.874c26.027,15.562,53.763,23.657,84.305,18.191
	c16.61-2.973,31.933-9.357,45.847-18.909c5.63-3.864,5.526-6.766-0.104-10.657C380.596,494.347,359.851,487.185,336.781,486.606z
	 M684.033,699.741c5.353,0.169,6.919-1.525,5.876-5.385c-1.953-7.234-3.82-14.538-6.46-21.534
	c-15.017-39.804-41.765-67.566-83.135-80.053c-9.331-2.817-10.898-1.424-9.298,7.975c0.069,0.404,0.06,0.826,0.157,1.223
	c10.93,45.016,37.814,76.301,80.772,93.679C676.344,697.424,680.943,698.703,684.033,699.741z M436.78,598.276
	c-0.373-0.117-0.746-0.234-1.118-0.353c0.092-5.015-1.729-6.698-6.461-5.325c-19.833,5.759-38.046,14.599-53.048,29.121
	c-20.649,19.987-31.872,45.081-38.654,72.48c-1.187,4.795,1.357,6.923,6.518,5.174c6.965-2.36,13.987-4.771,20.569-8.005
	c27.719-13.619,50.687-32.247,62.119-62.106C430.582,619.133,433.449,608.616,436.78,598.276z M595.082,433.625
	c0.551,0,1.114,0.075,1.647-0.019c0.669-0.118,1.315-0.362,1.965-0.57c18.479-5.902,35.26-15.047,49.869-27.717
	c22.343-19.378,34.876-44.559,41.384-73.025c1.127-4.93-1.308-7.297-6.161-5.591c-7.451,2.619-14.923,5.318-22.055,8.685
	c-39.424,18.609-62.146,50.259-71.34,92.289C589.443,432.013,590.878,433.73,595.082,433.625z M436.456,429.087
	c-0.018-0.25,0.02-0.953-0.123-1.618c-3.928-18.34-10.354-35.647-21.219-51.106c-15.025-21.376-35.756-35.287-59.451-45.26
	c-4.017-1.691-8.164-3.112-12.334-4.386c-5.213-1.591-6.648-0.336-6.129,4.931c0.068,0.685,0.02,1.396,0.189,2.053
	c5.725,22.126,15.222,42.361,29.83,60.103c13.931,16.92,32.187,27.471,52.021,35.733c3.646,1.519,7.375,2.919,11.18,3.948
	C434.786,434.666,436.477,433.373,436.456,429.087z M538.308,688.012c-0.225-2.475-0.519-6.582-0.983-10.669
	c-2.176-19.133-9.479-36.368-19.671-52.491c-2.519-3.984-5.32-3.946-7.887,0.09c-2.791,4.392-5.513,8.854-7.888,13.477
	c-10.52,20.474-15.469,42.085-12.449,65.133c2.545,19.426,10.454,36.941,19.894,53.836c2.967,5.309,5.969,5.346,8.956,0.046
	C530.137,736.398,537.886,714.119,538.308,688.012z M538.453,335.363c-0.371-4.096-0.678-8.2-1.125-12.289
	c-2.157-19.745-9.043-37.928-18.525-55.202c-3.051-5.56-5.459-5.631-9.531-0.807c-0.439,0.521-0.837,1.092-1.171,1.686
	c-10.327,18.337-16.957,37.963-18.621,58.917c-2.051,25.821,5.895,49.184,19.553,70.813c3.42,5.417,6.504,5.553,9.749,0.045
	C530.255,379.048,538.234,358.446,538.453,335.363z"/>
</svg>
