<?xml version="1.0" encoding="utf-8"?>
<!-- Generator: Adobe Illustrator 16.0.0, SVG Export Plug-In . SVG Version: 6.00 Build 0)  -->
<!DOCTYPE svg PUBLIC "-//W3C//DTD SVG 1.1//EN" "http://www.w3.org/Graphics/SVG/1.1/DTD/svg11.dtd">
<svg version="1.1" id="Layer_1" xmlns="http://www.w3.org/2000/svg" xmlns:xlink="http://www.w3.org/1999/xlink" x="0px" y="0px"
	 width="1024px" height="1024px" viewBox="0 0 1024 1024" enable-background="new 0 0 1024 1024" xml:space="preserve">
<path fill-rule="evenodd" clip-rule="evenodd" d="M518.526,387.835c-36.046,44.101-78.549,77.798-134.494,90.865
	c-39.165,9.147-78.789,10.421-118.29,0.851c-11.735-2.842-13.927-4.923-10.813-16.938c6.847-26.414,12.316-53.584,22.799-78.579
	c22.92-54.652,56.905-101.242,109.771-131.317c28.881-16.433,60.03-25.868,93.271-27.701c6.621-0.366,9.723-2.147,9.609-9.39
	c-0.384-24.289,0.115-48.597-0.542-72.876c-0.245-9.056,3.097-14.666,11.59-15.166c11.863-0.698,23.886-0.423,35.717,0.712
	c7.243,0.696,8.506,6.602,8.228,13.564c-0.935,23.384-1.291,46.794-1.627,70.199c-0.057,3.986,1.075,7.99,1.683,12.16
	c32.115,2.06,62.354,8.746,90.884,22.27c43.438,20.59,75.226,53.744,100.831,93.536c22.444,34.881,36.667,72.954,43.845,113.728
	c3.836,21.79,2.722,24.151-19.803,27.718c-98.502,15.601-179.925-13.626-241.814-93.247
	C519.2,388.004,518.809,387.96,518.526,387.835z"/>
<path fill-rule="evenodd" clip-rule="evenodd" d="M446.667,631.346c14.616,11.956,27.95,24.773,43.103,34.86
	c31.27,20.817,24.773,18.883,53.633,0.942c8.277-5.147,15.883-11.453,23.454-17.645c7.557-6.179,14.685-12.881,21.54-18.946
	c16.925,13.643,33.213,27.592,50.396,40.334c11.1,8.23,23.025,15.719,35.494,21.607c9.041,4.271,9.129,9.475,6.912,17.274
	c-7.452,26.245-21.197,49.169-37.946,70.229c-30.969,38.94-69.026,69.127-114.184,90.338c-8.153,3.83-15.222,3.955-23.271-0.179
	c-59.136-30.352-106.798-72.799-138.531-131.765c-5.603-10.412-8.896-22.127-12.576-33.46c-0.737-2.275,0.754-7.058,2.664-8.144
	C389.865,678.283,420.914,657.841,446.667,631.346z"/>
<path fill-rule="evenodd" clip-rule="evenodd" d="M515.747,432.586c25.028,17.15,48.327,33.867,72.456,49.287
	c9.957,6.364,21.476,10.548,32.705,14.543c5.874,2.09,7.962,5.086,6.279,10.353c-4.48,14.02-8.051,28.558-14.436,41.697
	c-19.782,40.71-49.902,72.684-86.732,98.678c-5.856,4.134-10.503,4.288-16.117,0.17c-47.582-34.911-85.491-76.781-98.777-136.488
	c-1.202-5.406-2.146-10.143,5.144-12.892c37.851-14.274,70.011-37.376,99.113-65.066
	C516.061,432.222,516.906,431.752,515.747,432.586z"/>
<path fill-rule="evenodd" clip-rule="evenodd" d="M764.719,578.692c-1.785,35.039-7.21,68.781-19.602,101.259
	c-4.749,12.442-6.668,13.219-18.952,8.38c-41.626-16.392-78.763-39.614-110.063-71.941c-6.383-6.593-7.263-11.209-1.355-18.974
	c18.481-24.283,32.256-51.09,39.068-81.104c1.108-4.893,2.127-9.19,8.905-7.787c27.144,5.613,54.57,6.212,82.041,3.453
	c6.903-0.693,10.048,1.53,11.023,8.007C758.735,539.558,761.737,559.124,764.719,578.692z"/>
<path fill-rule="evenodd" clip-rule="evenodd" d="M308.944,514.105c20.421-1.809,40.872-3.349,61.25-5.569
	c7.661-0.836,11.837,0.112,13.836,8.958c7.096,31.411,20.241,60.239,40.237,85.66c3.528,4.486,3.028,7.226-0.764,11.168
	c-32.568,33.878-71.815,57.418-114.884,75.261c-7.713,3.195-12.432,1.077-14.358-6.517c-6.479-25.543-14.293-50.901-18.461-76.836
	c-4.637-28.854-1.663-57.961,5.161-86.537c1.605-6.723,4.23-9.697,11.735-8.059c5.136,1.12,10.717,0.214,16.1,0.214
	C308.844,512.601,308.894,513.354,308.944,514.105z"/>
</svg>
