<?xml version="1.0" encoding="utf-8"?>
<!-- Generator: Adobe Illustrator 16.0.0, SVG Export Plug-In . SVG Version: 6.00 Build 0)  -->
<!DOCTYPE svg PUBLIC "-//W3C//DTD SVG 1.1//EN" "http://www.w3.org/Graphics/SVG/1.1/DTD/svg11.dtd">
<svg version="1.1" id="Layer_1" xmlns="http://www.w3.org/2000/svg" xmlns:xlink="http://www.w3.org/1999/xlink" x="0px" y="0px"
	 width="1024px" height="1024px" viewBox="0 0 1024 1024" enable-background="new 0 0 1024 1024" xml:space="preserve">
<path fill-rule="evenodd" clip-rule="evenodd" d="M670.816,587.61c16.413,10.986,30.143,23.36,41.117,38.675
	c19.302,26.935,28.16,56.855,25.642,89.938c-2.031,26.691-8.827,52.206-20.075,76.5c-1.594,3.443-3.75,6.63-5.688,9.911
	c-5.055,8.558-13.326,12.166-22.516,12.681c-36.459,2.042-71.495-3.849-104.128-20.906c-37.397-19.548-59.253-51.114-69.656-91.332
	c-0.455-1.758-0.855-3.529-1.46-6.041c-1.53,5.218-2.768,9.826-4.243,14.357c-1.483,4.56-3.028,9.115-4.848,13.549
	c-17.719,43.182-50.342,69.359-94.325,82.581c-23.348,7.019-47.251,9.072-71.47,7.897c-11.707-0.567-20.134-6.484-25.805-16.836
	c-8.613-15.722-14.012-32.61-17.652-49.965c-2.886-13.757-5.694-27.827-5.889-41.796c-0.59-42.25,16.754-76.852,48.157-104.629
	c5.68-5.024,11.861-9.479,18.172-14.483c-5.138,0.273-9.976,0.663-14.819,0.768c-46.402,0.998-83.4-18.005-111.884-53.847
	c-19.52-24.563-33.106-52.313-40.271-82.987c-2.601-11.134,0.552-21.502,8.756-28.733c30.623-26.99,64.033-48.901,105.836-54.531
	c44.037-5.931,81.977,6.822,114.634,36.444c0.226,0.205,0.536,0.317,1.377,0.801c-2.309-7.053-4.742-13.562-6.575-20.235
	c-14.288-52.04-3.058-98.43,31.381-139.493c13.333-15.899,28.628-29.766,45.752-41.475c5.143-3.516,10.879-6.497,16.757-8.526
	c8.539-2.948,16.763-0.52,24.169,4.203c20.101,12.815,37.29,28.916,52.817,46.928c19.287,22.373,30.655,48.397,35.143,77.334
	c4.14,26.695,0.142,52.587-10.085,77.544c-0.478,1.165-0.921,2.344-1.445,3.682c7.574-5.71,14.565-11.809,22.321-16.692
	c45.751-28.804,93.088-28.426,140.836-5.861c20.448,9.663,39.311,22.296,56.205,37.507c10.774,9.701,14.682,21.493,10.493,35.961
	c-10.239,35.362-26.404,67.322-52.94,93.325c-22.047,21.604-48.277,35.013-79.287,37.635
	C694.287,588.394,683.108,587.61,670.816,587.61z M564.611,543.847c4.14-3.215,8.08-6.005,11.713-9.15
	c8.335-7.215,16.239-14.852,20.316-25.459c2.972-7.731,1.62-12.861-5.349-17.082c-4.613-2.795-9.713-5.479-14.924-6.451
	c-10.025-1.869-20.284-2.489-31.097-3.7c-0.032-0.103-0.406-1.361-0.809-2.612c-4.121-12.828-10.23-24.442-20.28-33.728
	c-8.17-7.549-13.684-7.854-21.266,0.118c-4.647,4.885-8.943,10.343-12.268,16.186c-3.799,6.677-6.344,14.065-9.533,21.375
	c-1.382-0.106-3.031-0.297-4.686-0.351c-14.17-0.458-27.87,1.212-39.941,9.477c-6.082,4.163-8.118,9.259-5.017,15.906
	c2.897,6.209,6.562,12.372,11.15,17.403c6.102,6.688,13.427,12.259,20.426,18.488c-4.557,12.105-7.423,24.921-6.588,38.428
	c0.622,10.063,5.865,19.498,18.89,15.847c6.657-1.866,13.484-3.514,19.724-6.375c6.848-3.14,13.108-7.562,19.312-11.239
	c4.963,3.183,9.652,6.674,14.772,9.336c5.104,2.653,10.53,4.833,16.024,6.549c4.382,1.367,9.089,2.432,13.634,2.368
	c7.441-0.104,12.089-6.488,12.709-15.749C572.441,569.751,569.908,556.694,564.611,543.847z"/>
</svg>
