<?xml version="1.0" encoding="utf-8"?>
<!-- Generator: Adobe Illustrator 16.0.0, SVG Export Plug-In . SVG Version: 6.00 Build 0)  -->
<!DOCTYPE svg PUBLIC "-//W3C//DTD SVG 1.1//EN" "http://www.w3.org/Graphics/SVG/1.1/DTD/svg11.dtd">
<svg version="1.1" id="Layer_1" xmlns="http://www.w3.org/2000/svg" xmlns:xlink="http://www.w3.org/1999/xlink" x="0px" y="0px"
	 width="1024px" height="1024px" viewBox="0 0 1024 1024" enable-background="new 0 0 1024 1024" xml:space="preserve">
<path fill-rule="evenodd" clip-rule="evenodd" d="M493.306,588.029c-30.684,0-60.907,0-90.534,0
	c-3.592,14.261-6.629,28.472-10.783,42.319c-7.089,23.628-19.601,43.85-37.648,60.132c-8.784,7.925-11.018,18.106-12.104,29.725
	c-2.826,30.255-5.082,60.786-16.227,89.376c-3.483,8.934-7.828,17.781-13.268,25.535c-5.502,7.845-14.268,10.08-23.234,7.003
	c-8.925-3.063-14.435-9.954-14.641-19.94c-0.086-4.198,1.212-8.932,3.257-12.589c9.737-17.425,14.244-36.345,16.1-56.155
	c0.863-9.221,1.792-18.434,2.691-27.651c-0.575-0.5-1.149-0.998-1.726-1.498c-9.444,6.711-19.216,12.981-28.27,20.222
	c-20.21,16.165-33.638,37.84-44.537,61.421c-6.838,14.796-22.065,18.837-32.677,8.33c-7.458-7.386-8.341-17.102-5.45-26.66
	c6.142-20.309,17.517-37.598,30.35-53.953c24.371-31.062,56.273-50.688,91.267-65.802c19.039-8.222,32.2-22.999,39.917-42.522
	c4.627-11.708,7.407-24.205,11.26-37.162c-3.258-0.255-4.928-0.502-6.6-0.502c-65.469,0.03-130.94,0.2-196.408-0.032
	c-7.295-0.026-15.07-1.049-21.777-3.823c-16.682-6.901-22.658-21.971-22.88-39.247c-0.578-44.959,19.268-78.235,55.733-101.236
	c6.994-4.411,14.586-7.81,21.958-11.555c14.374-7.303,24.692-18.123,29.424-34.497c3.707-12.828,7.823-25.515,16.079-36.312
	c9.114-11.917,20.701-18.822,35.088-21.213c7.289-1.211,14.609-2.676,21.654-4.911c13.494-4.278,21.924-14.346,27.198-27.619
	c5.532-13.926,11.179-27.827,21.164-39.11c14.756-16.675,33.604-23.951,54.911-25.256c3.919-0.24,7.932-0.527,11.782,0.055
	c11.559,1.747,20.165-3.805,27.655-11.808c8.337-8.908,15.831-18.716,24.529-27.202c15.594-15.214,33.979-23.864,55.856-24.26
	c32.269-0.581,56.687,13.958,75.31,40.525c2.421,3.454,4.9,6.879,7.55,10.144c5.643,6.953,13.16,9.964,21.56,8.564
	c29.671-4.949,50.815,8.582,66.807,33.003c6.045,9.23,11.154,19.148,16.382,28.93c8.817,16.494,22.769,23.876,40.25,25.524
	c19.762,1.865,35.443,11.994,46.742,28.279c8.643,12.456,15.75,26.171,22.625,39.824c7.493,14.876,18.554,24.5,33.394,30.865
	c8.865,3.803,17.512,9.238,24.813,15.706c23.66,20.96,41.182,46.465,47.255,78.805c2.03,10.812,3.056,22.335,1.817,33.198
	c-2.557,22.425-17.051,34.271-39.254,34.276c-70.582,0.022-141.164,0.006-211.746,0.005c-1.924,0-3.848,0-6.418,0
	c1.672,15.903,4.612,30.756,11.662,44.722c7.137,14.137,16.74,24.69,31.741,29.77c8.893,3.011,17.47,7.122,26.011,11.149
	c45.13,21.275,77.385,56.096,98.424,102.405c3.815,8.396,6.77,17.289,9.391,26.185c3.546,12.042-2.371,25.598-12.441,28.919
	c-12.518,4.129-25.167-2.178-28.958-14.387c-9.182-29.571-25.225-54.593-47.326-75.286c-8.376-7.842-17.722-14.564-26.624-21.796
	c-0.397,0.311-0.794,0.624-1.191,0.936c1.27,9.956,2.528,19.913,3.811,29.867c1.788,13.874,3.014,27.861,5.564,41.581
	c2.278,12.252,5.131,24.563,9.372,36.198c4.668,12.813,4.67,21.891-2.763,29.206c-11.076,10.903-26.922,9.055-35.41-4.257
	c-7.343-11.516-9.432-24.845-11.421-38.085c-4.102-27.279-7.775-54.628-11.834-81.913c-2.532-17.019-9.71-31.902-21.742-43.621
	c-25.055-24.402-36.23-55.389-40.856-89.733c-0.483-3.592-1.04-7.173-1.605-11.05c-24.329,0-48.635,0-72.793,0
	c-2.299,53.722,10.719,102.556,42.506,145.546c13.335,18.031,23.504,37.764,28.716,60.157c5.145,22.112,5.322,44.498,4.266,66.929
	c-0.619,13.182-12.049,22.978-24.006,21.246c-14.187-2.052-21.694-12.687-20.268-26.521c3.607-34.981-2.978-66.726-24.179-94.782
	c-13.125-17.37-23.136-36.742-31.94-56.8c-0.453-1.03-1.083-1.977-1.039-1.899c-15.893,18.826-31.997,37.629-47.802,56.7
	c-17.38,20.973-26.332,45.376-26.378,73.177c-0.014,8.389,0.136,16.778,0.069,25.166c-0.107,13.627-8.701,23.672-21.698,23.804
	c-11.576,0.114-21.681-6.467-22.658-20.975c-3.469-51.502,6.003-98.661,43.132-136.806c16.395-16.845,32.274-34.555,42.326-56.802
	c10.177-22.524,12.534-46.406,12.116-70.844C493.634,593.148,493.453,590.917,493.306,588.029z"/>
</svg>
