<?xml version="1.0" encoding="utf-8"?>
<!-- Generator: Adobe Illustrator 16.0.0, SVG Export Plug-In . SVG Version: 6.00 Build 0)  -->
<!DOCTYPE svg PUBLIC "-//W3C//DTD SVG 1.1//EN" "http://www.w3.org/Graphics/SVG/1.1/DTD/svg11.dtd">
<svg version="1.1" id="Layer_1" xmlns="http://www.w3.org/2000/svg" xmlns:xlink="http://www.w3.org/1999/xlink" x="0px" y="0px"
	 width="1024px" height="1024px" viewBox="0 0 1024 1024" enable-background="new 0 0 1024 1024" xml:space="preserve">
<path fill-rule="evenodd" clip-rule="evenodd" d="M496.1,458.249c-13.383,0.703-37.863,1.39-62.233,3.402
	c-43.39,3.582-85.913,11.502-126.146,28.975c-10.805,4.692-21.294,10.067-29.64,18.752c-6.692,6.965-6.628,14.549,0.189,21.444
	c8.335,8.43,19.214,12.214,29.94,16.084c18.396,6.637,37.335,11.205,56.768,13.622c7.79,0.97,11.154,5.599,9.31,13.063
	c-1.823,7.375-3.788,14.716-5.758,22.054c-1.979,7.372-4.356,9.323-12.033,8.985c-20.625-0.907-40.757-5.067-60.643-10.243
	c-23.278-6.061-45.875-14.021-66.418-26.929c-26.902-16.902-44.868-40.374-50.388-71.935c-2.012-11.504-2-23.615-1.151-35.322
	c3.376-46.57,19.951-88.795,44.246-128.198c41.155-66.746,98.108-113.972,172.878-138.898c21.697-7.233,43.964-11.901,66.683-14.764
	c28.21-3.553,56.483-4.096,84.702-1.622c66.207,5.805,126.452,27.545,179.069,68.923c43.738,34.396,76.144,77.52,98.937,128.078
	c9.69,21.496,17.036,43.808,20.668,67.081c3.783,24.247,5.018,48.62-4.074,72.23c-10.362,26.908-29.909,45.54-54.539,59.252
	c-26.286,14.634-54.855,22.778-84.258,28.128c-10.411,1.894-20.966,3.234-31.515,4.06c-8.874,0.693-13.014-2.914-15.25-11.575
	c-1.61-6.24-3.179-12.492-4.688-18.757c-1.904-7.898,1.607-12.647,9.847-13.64c22.322-2.689,43.837-8.469,64.143-18.105
	c6.509-3.089,12.701-7.316,18.148-12.048c6.87-5.968,6.694-14.018,0.462-20.628c-9.823-10.419-22.556-16.164-35.548-21.23
	c-24.247-9.457-49.413-15.561-75.017-20.084C591.231,461.062,549.302,458.704,496.1,458.249z"/>
<path fill-rule="evenodd" clip-rule="evenodd" d="M512.811,854.238c-25.517-0.441-50.872-1.537-75.722-7.775
	c-16.39-4.114-31.7-10.572-44.909-21.445c-14.214-11.701-22.358-26.921-25.624-44.768c-4.588-25.063-0.242-49.575,5.451-73.916
	c11.365-48.583,23.115-97.079,34.104-145.747c4.003-17.728,6.214-35.857,9.394-53.776c1.597-9.002,6.411-13.729,15.306-14.194
	c29.4-1.54,58.817-3.814,88.227-3.784c24.218,0.025,48.433,2.923,72.648,4.559c2.151,0.146,4.322,0.22,6.439,0.587
	c5.973,1.036,9.419,4.833,10.248,10.646c9.62,67.406,28.238,132.838,43.587,198.985c4.549,19.604,8.099,39.301,7.565,59.562
	c-0.93,35.251-17.015,60.556-49.193,75.302c-16.566,7.592-34.107,11.603-52.209,12.998
	C543.036,852.634,527.916,853.334,512.811,854.238z"/>
</svg>
