<?xml version="1.0" encoding="utf-8"?>
<!-- Generator: Adobe Illustrator 16.0.0, SVG Export Plug-In . SVG Version: 6.00 Build 0)  -->
<!DOCTYPE svg PUBLIC "-//W3C//DTD SVG 1.1//EN" "http://www.w3.org/Graphics/SVG/1.1/DTD/svg11.dtd">
<svg version="1.1" id="Layer_1" xmlns="http://www.w3.org/2000/svg" xmlns:xlink="http://www.w3.org/1999/xlink" x="0px" y="0px"
	 width="1024px" height="1024px" viewBox="0 0 1024 1024" enable-background="new 0 0 1024 1024" xml:space="preserve">
<path fill-rule="evenodd" clip-rule="evenodd" d="M432.468,868.734c-70.063-2.07-130.948-25.753-179.49-77.51
	c-31.15-33.215-50.122-72.976-60.494-117.082c-5.797-24.654-7.33-49.693-5.756-74.81c2.232-35.631,11.04-69.911,23.307-103.373
	c17.72-48.331,42.215-93.238,68.794-137.115c36.678-60.546,77.165-118.556,117.514-176.659c3.316-4.774,6.594-9.588,10.145-14.187
	c11.702-15.16,32.124-14.891,43.131,0.82c20.779,29.657,41.302,59.495,61.922,89.264c36.506,52.701,70.949,106.679,100.71,163.529
	c19.787,37.796,36.568,76.851,48.637,117.836c2.888,9.808,0.854,14.7-7.995,19.963c-30.378,18.068-60.863,35.96-91.113,54.239
	c-15.417,9.315-27.045,22.079-31.484,40.061c-1.337,5.417-1.698,11.188-1.718,16.799c-0.12,35.99,0.045,71.982-0.02,107.974
	c-0.034,19.067,4.488,36.119,19.631,49.175c4.597,3.963,3.11,10.184-2.76,13.524c-15.208,8.655-31.43,14.877-48.344,19.163
	C475.932,865.705,454.451,868.854,432.468,868.734z"/>
<path fill-rule="evenodd" clip-rule="evenodd" d="M827.48,728.136c0,18.828-0.078,37.657,0.027,56.485
	c0.068,12.249-5.107,21.464-15.561,27.658c-33.545,19.879-67.221,39.54-100.655,59.603c-11.457,6.875-21.961,6.902-33.56,0.021
	c-33.954-20.145-68.187-39.823-102.434-59.467c-10.891-6.246-15.952-15.121-15.882-27.696c0.222-39.155,0.099-78.313,0.071-117.469
	c-0.007-10.91,4.6-19.287,13.917-24.808c34.829-20.637,69.693-41.214,104.636-61.658c8.807-5.153,18.068-5.226,26.969-0.097
	c35.366,20.379,70.621,40.951,106.013,61.286c11.204,6.438,16.432,15.932,16.405,28.657c-0.041,19.161-0.011,38.323-0.011,57.484
	C827.438,728.136,827.459,728.136,827.48,728.136z"/>
</svg>
