<?xml version="1.0" encoding="utf-8"?>
<!-- Generator: Adobe Illustrator 16.0.0, SVG Export Plug-In . SVG Version: 6.00 Build 0)  -->
<!DOCTYPE svg PUBLIC "-//W3C//DTD SVG 1.1//EN" "http://www.w3.org/Graphics/SVG/1.1/DTD/svg11.dtd">
<svg version="1.1" id="Layer_1" xmlns="http://www.w3.org/2000/svg" xmlns:xlink="http://www.w3.org/1999/xlink" x="0px" y="0px"
	 width="512px" height="512px" viewBox="0 0 512 512" enable-background="new 0 0 512 512" xml:space="preserve">
<g id="Glyph">
	<path d="M362.667,106.667c0-35.346,28.653-64,64-64c35.346,0,64,28.654,64,64s-28.654,64-64,64
		C391.32,170.667,362.667,142.013,362.667,106.667z M42.667,128h256c11.782,0,21.333-9.551,21.333-21.333
		c0-11.782-9.551-21.333-21.333-21.333h-256c-11.782,0-21.333,9.551-21.333,21.333C21.333,118.449,30.885,128,42.667,128z
		 M170.667,192c-27.056,0.076-51.141,17.158-60.16,42.667h-67.84c-11.782,0-21.333,9.551-21.333,21.333s9.551,21.334,21.333,21.334
		h67.84c11.782,33.324,48.349,50.787,81.673,39.006c33.325-11.783,50.788-48.35,39.006-81.674
		C222.123,209.033,197.854,191.924,170.667,192z M469.333,234.667H298.667c-11.782,0-21.333,9.551-21.333,21.333
		s9.551,21.334,21.333,21.334h170.666c11.782,0,21.334-9.552,21.334-21.334S481.115,234.667,469.333,234.667z M213.333,384H42.667
		c-11.782,0-21.333,9.551-21.333,21.334c0,11.781,9.551,21.333,21.333,21.333h170.667c11.782,0,21.333-9.552,21.333-21.333
		C234.667,393.551,225.115,384,213.333,384z M469.333,384h-67.84c-11.782-33.324-48.349-50.789-81.673-39.006
		c-33.324,11.781-50.789,48.348-39.006,81.673c11.781,33.324,48.348,50.788,81.673,39.006c18.226-6.443,32.563-20.78,39.006-39.006
		h67.84c11.782,0,21.334-9.552,21.334-21.333C490.667,393.551,481.115,384,469.333,384z"/>
</g>
</svg>
