<?xml version="1.0" encoding="utf-8"?>
<!-- Generator: Adobe Illustrator 16.0.0, SVG Export Plug-In . SVG Version: 6.00 Build 0)  -->
<!DOCTYPE svg PUBLIC "-//W3C//DTD SVG 1.1//EN" "http://www.w3.org/Graphics/SVG/1.1/DTD/svg11.dtd">
<svg version="1.1" id="Layer_1" xmlns="http://www.w3.org/2000/svg" xmlns:xlink="http://www.w3.org/1999/xlink" x="0px" y="0px"
	 width="1024px" height="1024px" viewBox="0 0 1024 1024" enable-background="new 0 0 1024 1024" xml:space="preserve">
<path fill-rule="evenodd" clip-rule="evenodd" d="M510.241,802.79c-79.083,0-153.242-30.452-208.814-85.745
	c-26.577-26.444-47.525-57.143-62.264-91.242c-15.11-34.959-22.926-71.785-23.231-109.456c-0.32-39.463,7.047-77.9,21.896-114.243
	c14.542-35.592,35.53-67.455,62.382-94.702c54.008-54.804,126.885-85.269,205.208-85.781c0.678-0.005,1.371-0.007,2.047-0.007
	c79.905,0,154.378,30.702,209.699,86.451c26.546,26.751,47.311,57.827,61.719,92.364c14.765,35.392,22.105,72.7,21.82,110.886
	c0.237,77.324-29.347,150.093-83.308,204.906c-53.758,54.607-125.617,85.338-202.342,86.531
	C513.456,802.777,511.832,802.79,510.241,802.79z M509.699,277.173c-148.556,0-233.496,116.787-237.993,226.672
	c-2.535,61.932,19.504,121.247,62.058,167.018c43.13,46.394,103.683,74.146,166.13,76.142c2.778,0.089,5.592,0.134,8.362,0.134
	c64.61,0.003,124.525-24.502,168.708-69.001c44.372-44.688,68.56-104.168,68.106-167.483v-0.164
	c0.814-125.421-101.636-230.047-228.379-233.229C514.363,277.203,512.011,277.173,509.699,277.173z"/>
<path fill-rule="evenodd" clip-rule="evenodd" d="M736.197,302.99c-2.256,0-4.559-0.295-6.846-0.876
	c-8.337-2.121-15.116-7.678-18.602-15.246c-3.384-7.349-3.231-15.806,0.42-23.204c2.402-4.868,5.939-9.707,10.512-14.382
	c24.385-24.941,43.295-44.026,61.313-61.88c3.462-3.43,7.334-5.711,10.751-7.723c1.287-0.758,2.503-1.475,3.57-2.18l3.626-2.395
	l4.318,0.482c9.747,1.087,18.423,6.665,23.21,14.918c4.48,7.727,5.047,16.784,1.554,24.849c-1.801,4.154-4.438,8.083-7.626,11.368
	c-17.81,18.325-35.986,36.864-53.564,54.792L757.71,292.86C751.029,299.676,743.992,302.99,736.197,302.99z"/>
<path fill-rule="evenodd" clip-rule="evenodd" d="M212.223,842.992c-7.058,0-13.708-2.629-18.726-7.402
	c-5.446-5.182-8.504-12.11-8.611-19.51c-0.117-8.041,3.224-15.901,9.405-22.134c20.314-20.484,44.445-44.735,69.389-69.281
	c3.443-3.389,7.417-5.137,10.61-6.54c1.021-0.449,1.986-0.874,2.722-1.264l3.117-1.653l3.516,0.298
	c10.353,0.875,18.966,5.982,23.633,14.012c4.364,7.509,4.63,16.647,0.73,25.072c-2.038,4.4-5.194,8.777-9.65,13.384
	c-14.595,15.087-29.501,30.343-43.917,45.096c-6.489,6.642-12.978,13.282-19.46,19.93
	C228.79,839.35,220.495,842.992,212.223,842.992z"/>
<path fill-rule="evenodd" clip-rule="evenodd" d="M277.414,303.229c-1.63-0.903-3.252-1.682-4.82-2.436
	c-3.835-1.843-7.801-3.75-11.278-7.162c-23.398-22.95-46.616-46.281-68.392-68.212c-11.248-11.327-11.873-28.518-1.454-39.986
	c5.104-5.618,12.495-8.84,20.278-8.84c7.647,0,14.885,3.024,20.381,8.514c23.049,23.03,45.308,45.83,69.933,71.111
	c9.059,9.298,10.566,22.329,3.749,32.424c-3.161,4.677-7.383,7.741-11.107,10.443c-1.375,0.998-2.674,1.94-3.837,2.9l-6.302,5.201
	L277.414,303.229z"/>
<path fill-rule="evenodd" clip-rule="evenodd" d="M805.116,842.582c-7.215,0-14.964-2.988-19.742-7.612
	c-22.873-22.138-45.621-45.08-67.62-67.268l-2.06-2.077c-8.804-8.882-11.195-20.47-6.563-31.794
	c6.257-15.306,21.261-16.867,26.19-17.38l3.884-0.404l3.377,1.958c0.227,0.129,0.928,0.463,1.439,0.707
	c2.76,1.313,6.93,3.299,10.488,6.814c27.748,27.43,48.792,48.562,68.237,68.521c8.152,8.369,11.169,19.885,7.875,30.054
	c-3.099,9.563-11.143,16.347-21.519,18.147C807.834,842.47,806.491,842.582,805.116,842.582z"/>
<path fill-rule="evenodd" clip-rule="evenodd" d="M131.713,537.602c-13.679,0-27.607-0.097-41.396-0.289
	c-11.63-0.163-18.467-4.735-22.155-8.543c-5-5.161-7.565-12.179-7.42-20.294c0.283-15.867,12.316-26.833,29.943-27.287
	c5.334-0.137,11.066-0.201,18.04-0.201c4.352,0,8.705,0.024,13.057,0.048c4.307,0.024,8.615,0.048,12.921,0.048
	c0,0,16.027-0.009,23.744-0.009c4.949,0,16.583,0.004,16.583,0.004c1.622,0,3.52,0.014,5.531,0.173
	c17.131,1.364,29.172,12.798,29.28,27.806c0.115,15.756-12.678,27.855-29.758,28.14C164.114,537.467,147.84,537.602,131.713,537.602
	z"/>
<path fill-rule="evenodd" clip-rule="evenodd" d="M858.066,537.709c-6.363,0-11.614-0.036-16.526-0.115
	c-13.687-0.219-21.29-5.448-25.259-9.797c-4.963-5.437-7.265-12.577-6.656-20.65c0.91-12.152,8.418-21.215,20.082-24.241
	c4.465-1.157,9.126-1.752,13.859-1.772c10.5-0.041,21.846-0.06,35.708-0.06c8.385,0,16.77,0.007,25.153,0.014l18.938,0.012
	c0.328,0,0.657,0,0.986,0.006c19.834,0.387,33.024,11.818,32.855,28.444c-0.162,16.15-13.476,27.647-32.375,27.959
	c-4.852,0.079-10.042,0.116-16.336,0.116c-4.168,0-8.337-0.016-12.506-0.032c-1.078-0.004-2.156-0.008-3.233-0.012l-9.179,0.063
	c-4.236,0-8.474,0.016-12.71,0.032C866.602,537.693,862.334,537.709,858.066,537.709z"/>
<path fill-rule="evenodd" clip-rule="evenodd" d="M508.163,213.601c-16.555-0.125-27.701-11.988-27.739-29.518
	c-0.061-28.654-0.059-57.86,0.005-89.287c0.034-17.822,11.572-30.28,28.058-30.293c16.736,0,27.547,11.943,27.572,30.426
	c0.013,10.125,0.01,20.249,0.006,30.374l-0.003,13.865c-0.001,4.732,0.003,9.462,0.007,14.193
	c0.007,10.111,0.016,20.567-0.023,30.866c-0.066,17.57-11.166,29.375-27.62,29.375L508.163,213.601z"/>
<path fill-rule="evenodd" clip-rule="evenodd" d="M508.408,956.989c-15.867,0-27.886-12.362-27.958-28.756
	c-0.127-29.482-0.128-59.843-0.001-90.24c0.065-16.109,12.668-29.217,28.094-29.217c0.356,0,0.71,0.007,1.069,0.021
	c15.232,0.608,26.346,12.786,26.426,28.954c0.054,10.598,0.042,21.356,0.03,31.761c-0.005,4.455-0.01,8.911-0.01,13.367
	c0,4.457,0.004,8.915,0.009,13.372c0.01,10.4,0.02,21.154-0.026,31.748c-0.071,16.743-11.651,28.936-27.535,28.989H508.408z"/>
<path fill-rule="evenodd" clip-rule="evenodd" d="M487.563,722.356c-42.375-2.231-73.921-18.779-107.027-42.514
	c-36.463-26.142-62.721-62.904-75.935-106.316c-17.066-56.063-9.235-117.271,21.486-167.926
	c30.578-50.42,80.889-85.469,138.032-96.162c15.769-2.951,28.862-4.325,41.207-4.325c8.904,0,17.234,0.709,25.465,2.171
	c14.455,2.568,24.383,11.662,27.239,24.949c3.194,14.845-1.877,28.086-13.919,36.324c-34.481,23.594-55.935,58.426-63.762,103.527
	c-12.936,74.509,15.42,137.525,77.799,172.892c0.77,0.436,1.547,0.857,2.325,1.278c2.729,1.479,5.82,3.156,8.899,5.479
	c10.667,8.058,16.062,20.877,14.082,33.461c-1.846,11.738-9.798,21.129-21.272,25.121c-11.938,4.155-24.128,6.46-35.916,8.689
	c-5.006,0.947-9.734,1.841-14.451,2.869l-11.978,1.265L487.563,722.356z"/>
</svg>
