<?xml version="1.0" encoding="utf-8"?>
<!-- Generator: Adobe Illustrator 16.0.0, SVG Export Plug-In . SVG Version: 6.00 Build 0)  -->
<!DOCTYPE svg PUBLIC "-//W3C//DTD SVG 1.1//EN" "http://www.w3.org/Graphics/SVG/1.1/DTD/svg11.dtd">
<svg version="1.1" id="Layer_1" xmlns="http://www.w3.org/2000/svg" xmlns:xlink="http://www.w3.org/1999/xlink" x="0px" y="0px"
	 width="1024px" height="1024px" viewBox="0 0 1024 1024" enable-background="new 0 0 1024 1024" xml:space="preserve">
<path fill-rule="evenodd" clip-rule="evenodd" d="M537.652,325.976c5.641-19.659,23.562-28.808,43.256-25.417
	c11.833,2.037,21.125,8.839,25.432,19.597c2.613,6.527,6.207,5.824,10.8,5.824c24.072,0.002,48.145,0.003,72.218-0.028
	c9.692-0.013,18.794,1.251,26.389,8.369c4.024,3.771,6.494,8.027,6.354,13.257c-0.215,8.035-1.056,16.062-1.856,24.069
	c-0.977,9.754-2.149,19.49-3.31,29.224c-1.238,10.386-2.637,20.752-3.827,31.142c-1.449,12.649-2.691,25.323-4.142,37.973
	c-1.122,9.805-2.462,19.585-3.639,29.385c-1.15,9.583-2.175,19.181-3.334,28.763c-1.203,9.948-2.549,19.879-3.743,29.828
	c-1.169,9.731-2.187,19.481-3.343,29.215c-1.218,10.248-2.604,20.475-3.769,30.728c-1.47,12.945-2.721,25.915-4.2,38.858
	c-1.12,9.808-2.5,19.584-3.674,29.385c-1.165,9.737-2.169,19.493-3.329,29.23c-1.186,9.957-2.513,19.897-3.706,29.854
	c-1.148,9.587-2.152,19.191-3.316,28.776c-1.298,10.683-2.707,21.351-4.059,32.026c-0.348,2.754-0.661,5.512-0.984,8.268
	c-1.967,16.798-18.017,29.621-32.767,32.745c-4.968,1.052-10.166,1.422-15.259,1.427c-70.75,0.079-141.501,0.034-212.251,0.039
	c-9.856,0-19.507-0.522-28.583-5.252c-13.119-6.836-20.927-17.035-22.406-31.994c-1.015-10.254-2.549-20.456-3.771-30.69
	c-1.127-9.445-2.086-18.911-3.241-28.353c-0.842-6.887-2.003-13.736-2.806-20.627c-1.49-12.789-2.759-25.604-4.237-38.394
	c-1.166-10.092-2.582-20.154-3.75-30.245c-1.466-12.651-2.738-25.324-4.198-37.976c-1.115-9.659-2.437-19.293-3.583-28.948
	c-1.173-9.881-2.206-19.778-3.371-29.659c-1.209-10.249-2.541-20.482-3.752-30.731c-1.152-9.739-2.175-19.493-3.332-29.232
	c-1.232-10.386-2.65-20.75-3.816-31.145c-1.467-13.093-2.677-26.216-4.157-39.309c-1.143-10.11-2.587-20.186-3.793-30.289
	c-1.145-9.591-2.087-19.208-3.246-28.798c-0.887-7.333-1.359-14.791-3.097-21.929c-3.802-15.615,9.61-26.884,21.895-28.342
	c4.066-0.483,8.195-0.605,12.295-0.606c65.466-0.033,130.933-0.02,196.4-0.017C534.498,325.976,535.955,325.976,537.652,325.976z
	 M587.248,345.873c-2.061,0-3.661,0-5.263,0c-27.733,0-55.466,0.001-83.2,0.001c-55.467,0-110.933-0.004-166.4,0.006
	c-7.54,0.001-8.949,1.821-7.799,9.193c1.138,7.299,2.118,14.627,2.983,21.963c1.185,10.03,2.138,20.088,3.296,30.121
	c1.217,10.541,2.597,21.063,3.835,31.602c0.948,8.07,1.786,16.153,2.657,24.085c83.607,0,166.721,0,249.89,0
	C587.248,423.83,587.248,385.134,587.248,345.873z M586.195,498.343c-7.334,0-15.246-0.005-23.159,0.002
	c-5.903,0.006-10.638,2.104-14.321,6.992c-2.755,3.656-6.55,6.536-9.248,10.226c-4.187,5.729-10.264,10.4-10.234,18.633
	c0.113,31.402-0.023,62.806,0.175,94.207c0.016,2.619,1.396,5.522,2.908,7.781c3.632,5.428,9.449,6.522,15.479,6.53
	c32.43,0.046,64.859,0.044,97.289-0.003c2.475-0.004,4.963-0.384,7.418-0.764c7.178-1.114,12.616-8.422,12.553-15.413
	c-0.265-29.639-0.278-59.284,0.014-88.923c0.067-6.931-2.601-12.43-6.493-17.473c-4.5-5.827-9.371-11.417-14.548-16.647
	c-2.242-2.265-5.568-4.568-8.549-4.779c-8.842-0.628-17.757-0.225-26.579-0.225c-0.337,4.308,0.025,8.42-1.123,12.055
	c-1.327,4.203-5.416,6.269-9.647,6.054c-2.849-0.145-7.122-1.268-8.099-3.259C587.901,509.001,587.472,503.83,586.195,498.343z
	 M608.844,345.874c0,39.439,0,78.226,0,117.069c26.489,0,52.687,0,79.095,0c0.272-2.514,0.537-4.833,0.775-7.155
	c1.073-10.48,2.056-20.969,3.229-31.438c1.182-10.531,2.639-21.031,3.814-31.563c1.429-12.792,2.53-25.621,4.086-38.396
	c0.828-6.799-0.329-8.52-7.237-8.522c-26.546-0.009-53.092,0.001-79.639,0.004C611.674,345.874,610.381,345.874,608.844,345.874z
	 M651.979,784.751c-9.168,11.195-16.71,24.26-30.594,24.189c-68.245-0.354-142.493-0.188-210.739-0.138
	c-21.136-0.302-36.285-25.269-36.965-25.945c-0.098,2.012,4.735,24.45,4.821,25.934c0.771,13.213,11.196,19.865,22.818,19.909
	c24.951,0.095,49.901,0.039,74.852,0.04c48.727,0.002,97.454,0.009,146.181-0.012c7.294-0.003,13.554-2.183,18.894-7.625
	C645.688,816.575,651.088,791.117,651.979,784.751z M561.023,325.807c8.305,0,16.337,0,24.617,0
	C577.817,317.251,570.795,317.261,561.023,325.807z"/>
</svg>
