<?xml version="1.0" encoding="utf-8"?>
<!-- Generator: Adobe Illustrator 16.0.0, SVG Export Plug-In . SVG Version: 6.00 Build 0)  -->
<!DOCTYPE svg PUBLIC "-//W3C//DTD SVG 1.1//EN" "http://www.w3.org/Graphics/SVG/1.1/DTD/svg11.dtd">
<svg version="1.1" id="Layer_1" xmlns="http://www.w3.org/2000/svg" xmlns:xlink="http://www.w3.org/1999/xlink" x="0px" y="0px"
	 width="512px" height="512px" viewBox="0 0 512 512" enable-background="new 0 0 512 512" xml:space="preserve">
<g>
	<path d="M385.949,471.667c-13.202,0-21.732-8.961-21.732-22.828V220.63c0-13.868,8.53-22.829,21.732-22.829
		s21.732,8.961,21.732,22.829v228.209C407.682,462.706,399.151,471.667,385.949,471.667z"/>
	<path d="M385.949,471.667c-6.273,0-10.561-1.964-15.288-7.005l-80.317-85.577c-4.157-4.428-6.446-10.048-6.446-15.824
		c0-5.778,2.289-11.398,6.446-15.826c4.236-4.515,9.666-7.002,15.287-7.002c5.623,0,11.052,2.487,15.288,7.003l65.03,69.287
		l65.03-69.288c4.236-4.515,9.666-7.002,15.287-7.002c5.622,0,11.051,2.487,15.287,7.003c4.156,4.426,6.446,10.047,6.446,15.825
		c0,5.777-2.29,11.397-6.448,15.825l-80.315,85.577C396.507,469.703,392.221,471.667,385.949,471.667z"/>
	<path d="M37.449,426.614c-13.203,0-21.733-8.961-21.733-22.829c0-13.867,8.531-22.827,21.733-22.827h160.635
		c13.202,0,21.732,8.96,21.732,22.827c0,13.868-8.53,22.829-21.732,22.829H37.449z"/>
	<path d="M37.449,276.985c-13.203,0-21.733-8.961-21.733-22.83c0-13.868,8.531-22.829,21.733-22.829h240.954
		c13.202,0,21.732,8.961,21.732,22.829c0,13.869-8.53,22.83-21.732,22.83H37.449z"/>
	<path d="M37.449,129.354c-13.203,0-21.733-8.96-21.733-22.828c0-13.868,8.531-22.829,21.733-22.829h321.27
		c13.203,0,21.734,8.961,21.734,22.829c0,13.868-8.531,22.828-21.734,22.828H37.449z"/>
</g>
</svg>
