<?xml version="1.0" encoding="utf-8"?>
<!-- Generator: Adobe Illustrator 16.0.0, SVG Export Plug-In . SVG Version: 6.00 Build 0)  -->
<!DOCTYPE svg PUBLIC "-//W3C//DTD SVG 1.1//EN" "http://www.w3.org/Graphics/SVG/1.1/DTD/svg11.dtd">
<svg version="1.1" id="Layer_1" xmlns="http://www.w3.org/2000/svg" xmlns:xlink="http://www.w3.org/1999/xlink" x="0px" y="0px"
	 width="1024px" height="1024px" viewBox="0 0 1024 1024" enable-background="new 0 0 1024 1024" xml:space="preserve">
<g>
	<path fill-rule="evenodd" clip-rule="evenodd" d="M904.699,512.893c2.028,178.141-127.317,337.512-300.162,375.916
		c-35.352,7.854-71.057,12.035-107.129,10.092c-104.66-5.641-194.935-44.05-267.973-120.316
		c-51.43-53.702-85.123-116.912-99.923-189.872c-7.462-36.786-8.798-73.98-5.772-111.404c4.825-59.68,22.449-115.156,54.898-165.517
		c58.55-90.868,139.938-149.694,245.891-173.65c39.891-9.019,80.297-12.292,120.928-8.819c81.416,6.96,155.136,34.107,218.552,86.75
		c58.462,48.531,100.709,108.154,123.679,180.978C899.259,433.743,904.72,470.1,904.699,512.893z M344.042,420.627
		c-2.235,23.537-4.398,46.398-6.578,69.258c-2.235,23.411-4.617,46.81-6.696,70.234c-2.149,24.204-5.143,48.404-5.742,72.655
		c-0.936,37.933,32.118,70.98,69.673,71.624c79.147,1.36,158.337,0.818,237.503,0.253c37.611-0.269,71.596-35.126,70.535-72.674
		c-0.81-28.742-4.145-57.424-6.766-86.097c-2.692-29.456-5.864-58.869-8.86-88.298c-1.248-12.264-2.582-24.519-3.896-36.956
		C569.956,420.627,457.487,420.627,344.042,420.627z M512.344,381.198c0,0.043,0,0.086,0,0.13c57.989,0,115.977,0.022,173.964-0.029
		c6.34-0.006,12.803,0.273,18.988-0.826c9.939-1.768,16.489-8.272,19.195-17.901c2.628-9.353,0.2-17.86-6.8-24.666
		c-6.761-6.572-15.414-7.428-24.338-7.427c-121.272,0.025-242.544-0.006-363.816,0.02c-3.422,0.002-6.9,0.189-10.257,0.808
		c-9.323,1.711-15.83,7.057-18.767,16.137c-2.893,8.948-1.214,17.125,4.947,24.377c6.839,8.05,15.895,9.451,25.771,9.432
		C391.601,381.143,451.972,381.198,512.344,381.198z M304.289,468.754c1.822-16.427,3.654-31.789,5.023-47.19
		c0.13-1.468-2.333-3.818-4.114-4.703c-19.783-9.816-39.552-19.682-59.623-28.88c-4.174-1.914-9.854-2.388-14.353-1.37
		c-9.858,2.23-15.996,9.275-17.466,19.247c-1.633,11.076,3.097,20.112,12.863,25.058
		C251.92,443.725,277.588,455.807,304.289,468.754z M718.104,416.117c1.553,16.89,3.012,32.792,4.561,49.661
		c3.292-1.28,5.725-2.065,8.021-3.146c19.516-9.184,39.039-18.354,58.479-27.695c4.012-1.927,8.038-4.121,11.455-6.929
		c9.187-7.549,11.565-20.339,6.024-29.921c-5.662-9.793-18.25-14.736-28.813-10.034C757.909,396.92,738.332,406.56,718.104,416.117z
		"/>
</g>
</svg>
