<?xml version="1.0" encoding="utf-8"?>
<!-- Generator: Adobe Illustrator 16.0.0, SVG Export Plug-In . SVG Version: 6.00 Build 0)  -->
<!DOCTYPE svg PUBLIC "-//W3C//DTD SVG 1.1//EN" "http://www.w3.org/Graphics/SVG/1.1/DTD/svg11.dtd">
<svg version="1.1" xmlns="http://www.w3.org/2000/svg" xmlns:xlink="http://www.w3.org/1999/xlink" x="0px" y="0px" width="1024px"
	 height="1024px" viewBox="0 0 1024 1024" enable-background="new 0 0 1024 1024" xml:space="preserve">
<g id="Layer_2">
	<path fill-rule="evenodd" clip-rule="evenodd" d="M129.685,513.827c0.811-87.117,24.289-162.725,72.995-229.581
		c52.838-72.525,123.792-119.154,210.493-142.005c36.992-9.749,74.705-14.248,112.775-12.28
		c87.12,4.506,166.429,30.993,234.488,87.167c69.155,57.08,111.719,130.067,129.921,217.603c7.438,35.771,9.3,71.915,5.911,108.173
		c-6.557,70.131-30.355,134.071-72.75,190.401c-58.959,78.339-136.589,127.883-232.875,147.78
		c-35.427,7.319-71.18,9.048-107.131,6.301c-85.629-6.544-160.805-38.416-225.287-94.959
		c-63.662-55.82-103.564-125.764-121.116-208.457C131.899,559.426,130.063,534.451,129.685,513.827z M356.072,477.3
		c-5.625,46.471-1.596,91.971,8.106,137.048c100.287,0,199.816,0,299.343,0c9.791-45.368,13.57-90.745,7.375-137.048
		C565.837,477.3,461.204,477.3,356.072,477.3z M368.376,628.099c-0.064,0.999-0.172,1.363-0.096,1.686
		c6.731,28.332,16.745,55.47,31.094,80.805c7.616,13.444,19.884,21.681,35.502,21.816c51.886,0.453,103.783,0.5,155.667-0.02
		c15.68-0.157,29.134-7.442,37.208-21.123c7.069-11.977,12.902-24.829,17.96-37.809c5.714-14.662,9.952-29.899,14.983-45.355
		C562.38,628.099,465.5,628.099,368.376,628.099z M357.816,463.094c104.308,0,208.026,0,311.941,0
		c-3.81-27.406-10.982-53.32-23.28-77.746c-1.603-3.183-3.11-4.559-6.884-4.553c-83.796,0.125-167.593,0.125-251.389-0.024
		c-3.818-0.006-5.585,1.405-7.145,4.487C368.706,409.673,362.242,435.827,357.816,463.094z M512.921,366.579
		c42.934,0,85.867,0.001,128.801-0.001c12.841-0.001,11.717,1.217,11.692-11.999c-0.025-14.882-10.943-26.009-25.688-26.015
		c-76.404-0.033-152.809-0.087-229.212,0.16c-4.614,0.015-9.685,1.761-13.741,4.097c-10.082,5.805-11.721,15.695-11.282,26.375
		c0.294,7.162,0.254,7.382,7.476,7.383C424.951,366.589,468.936,366.585,512.921,366.579z M546.354,316.669
		c0-6.828,0.441-13.468-0.115-20.023c-0.636-7.474-5.503-11.269-13.115-11.274c-13.151-0.012-26.302-0.015-39.452-0.003
		c-6.21,0.005-10.077,2.066-11.148,8.059c-1.357,7.585-1.28,15.427-1.828,23.242C503.31,316.669,524.644,316.669,546.354,316.669z"
		/>
</g>
<g id="Layer_1" display="none">
	<g id="Layer_1_1_" display="inline">
		<g>
			<path fill="#8BFF5F" d="M887.55,419.31C866.351,334.565,821.526,265,752.49,211.539c-70.21-54.37-150.435-80.086-244.938-80.859
				c-23.438-0.068-61.271,4.335-87.841,11.076c-86.53,21.95-158.069,67.259-212.848,137.984
				c-46.966,60.641-72.083,129.81-77.156,206.161c-1.656,24.921-0.63,49.891,2.613,74.761c4.335,33.237,12.892,65.298,25.619,96.246
				c26.31,63.976,67.521,116.525,122.663,158.063c60.134,45.297,128.109,70.255,203.015,76.403
				c22.271,1.828,44.559,1.408,66.858-0.704c24.854-2.354,49.326-6.567,73.198-13.739C703.12,853.063,768.835,808.896,819.52,743
				c50.854-66.114,76.562-141.221,78.91-224.399C899.378,485.045,895.705,451.913,887.55,419.31z M765.558,623.063
				c-0.012,8.704-5.635,14.412-14.251,14.428c-25.497,0.042-50.994,0.047-76.491,0.001c-8.712-0.018-14.3-5.688-14.306-14.371
				c-0.02-26.664,0.04-53.329-0.058-79.993c-0.02-4.811,1.495-8.712,4.969-11.985c5.083-4.791,9.373-11.103,15.341-14.083
				c5.854-2.923,13.383-2.489,20.708-3.61c0.873-15.265-2.984-29.855-12.863-42.186c-15.576-19.438-27.932-40.461-33.393-64.884
				c-2.265-10.126-3.214-20.657-3.682-31.054c-1.02-22.625-7.114-43.303-22.529-60.27c-20.348-22.395-45.795-32.098-76.062-28.809
				c-34.149,3.713-64.507,28.767-73.052,67.209c-1.034,4.662-1.246,9.507-1.938,15.046c22.144,0,43.274-0.036,64.407,0.043
				c2.798,0.011,5.651,0.344,8.377,0.978c6.767,1.577,12.095,5.326,15.721,11.332c12.7,21.038,25.358,42.102,38.104,63.111
				c4.699,7.747,6.863,16.218,6.875,25.123c0.092,76.494,0.078,152.987,0.041,229.481c-0.009,15.316-10.593,25.753-26.263,25.896
				c-14.997,0.138-29.997,0.031-44.996,0.031c-63.493,0-126.987,0.005-190.482-0.002c-15.345-0.002-25.057-8.729-25.313-23.96
				c-0.445-26.49-0.302-52.991-0.313-79.487c-0.024-49.496,0.119-98.992-0.05-148.487c-0.039-11.821,2.692-22.396,9.114-32.482
				c11.859-18.623,23.073-37.66,34.424-56.604c6.105-10.189,14.831-15.141,26.776-15.025c19.986,0.193,39.977,0.053,59.903,0.053
				c1.413-8.22,2.077-16.377,4.265-24.102c12.41-43.815,41.024-70.884,85.674-79.852c58.403-11.731,116.658,27.634,128.001,89.406
				c1.582,8.616,1.557,17.548,2.008,26.347c1.327,25.91,10.644,48.816,26.617,68.929c14.721,18.53,24.236,38.75,23.704,62.901
				c-0.014,0.626,0.161,1.256,0.291,2.187c1.285,0.065,2.409,0.168,3.533,0.178c3,0.022,6.001-0.055,8.999,0.021
				c10.286,0.264,28.18,18.343,28.192,28.557C765.597,569.734,765.592,596.399,765.558,623.063z"/>
			<path fill="#8BFF5F" d="M515.754,555.635c12.992,12.995,25.628,25.342,37.865,38.066c3.063,3.188,6.521,7.463,6.822,11.463
				c0.356,4.745-1.191,10.841-4.213,14.401c-7.834,9.229-16.863,17.455-25.54,25.959c-7.015,6.876-16.267,7.035-23.275,0.155
				c-13.494-13.238-26.773-26.698-40.791-40.715c-8.429,8.429-16.441,16.449-24.464,24.461c-5.328,5.322-10.55,10.763-16.036,15.916
				c-7.822,7.35-16.841,7.28-24.499-0.17c-8.185-7.963-16.261-16.04-24.242-24.205c-7.449-7.621-7.463-16.826,0.002-24.422
				c12.938-13.164,26.015-26.199,39.022-39.296c0.156-0.156,0.205-0.417,0.794-1.678c-4.945-4.943-10.201-10.19-15.446-15.445
				c-7.896-7.911-15.879-15.734-23.655-23.76c-7.609-7.854-7.466-17.938,0.242-25.768c7.499-7.615,15.074-15.16,22.671-22.682
				c8.503-8.418,18.291-8.516,26.827-0.083c12.927,12.77,25.72,25.677,39.156,39.113c13.726-13.729,27.117-27.016,40.377-40.432
				c4.871-4.928,12.033-8.728,16.849-4.658c13.108,11.069,25.365,23.354,36.583,36.347c3.837,4.444,0.78,11.641-3.989,16.388
				C543.384,527.961,530.008,541.381,515.754,555.635z"/>
		</g>
	</g>
</g>
</svg>
