<?xml version="1.0" encoding="utf-8"?>
<!-- Generator: Adobe Illustrator 16.0.0, SVG Export Plug-In . SVG Version: 6.00 Build 0)  -->
<!DOCTYPE svg PUBLIC "-//W3C//DTD SVG 1.1//EN" "http://www.w3.org/Graphics/SVG/1.1/DTD/svg11.dtd">
<svg version="1.1" xmlns="http://www.w3.org/2000/svg" xmlns:xlink="http://www.w3.org/1999/xlink" x="0px" y="0px" width="1024px"
	 height="1024px" viewBox="0 0 1024 1024" enable-background="new 0 0 1024 1024" xml:space="preserve">
<g id="Layer_2">
	<g>
		<path fill-rule="evenodd" clip-rule="evenodd" d="M128.342,512.176c1.151-92.225,29.507-173.653,87.158-244.048
			c51.424-62.792,117.391-103.844,195.691-124.999c22.525-6.085,45.433-10.528,68.788-11.477
			c20.357-0.827,40.856-2.104,61.118-0.688c74.173,5.188,142.22,28.682,202.738,72.239
			c75.841,54.585,123.635,128.139,145.888,218.644c8.846,35.98,12.309,72.524,10.189,109.402
			c-4.29,74.642-27.976,142.789-72.154,203.188c-54.611,74.662-127.017,123.949-216.62,147.188
			c-37.771,9.796-76.336,13.08-115.451,10.927c-68.75-3.785-132.437-23.199-190.34-60.55
			c-83.335-53.753-138.136-128.74-164.712-224.21c-6.129-22.016-9.719-44.587-10.844-67.482
			C129.309,530.52,128.784,520.731,128.342,512.176z M346.507,606.988c0,6.695-0.827,13.421,0.138,19.878
			c5.138,34.369,35.506,57.036,65.555,56.784c60.446-0.508,120.899-0.146,181.35-0.159c2.688,0,5.422,0.148,8.056-0.267
			c35.683-5.624,59.197-37,57.289-68.001c-0.194-3.15,1.272-4.442,3.52-5.839c16.011-9.959,26.536-24.15,31.237-42.321
			c7.631-29.489,15.314-58.981,22.062-88.681c5.087-22.397,12.634-43.209,29.63-59.475c2.423-2.318,4.196-5.343,2.335-7.877
			c-1.547-2.104-5.06-3.777-7.754-3.856c-13.123-0.383-26.265-0.083-39.398-0.194c-6.857-0.06-11.73,2.968-15.064,8.767
			c-1.334,2.321-2.604,4.678-3.862,7.041c-10.137,19.034-20.371,38.016-30.325,57.145c-2.857,5.492-7.08,8.391-12.899,9.574
			c-0.435-1.476-0.894-2.66-1.126-3.888c-4.518-23.789-9.155-47.557-13.357-71.402c-0.69-3.926-2.236-4.339-5.516-4.326
			c-93.478,0.364-186.956,0.639-280.433,0.985c-4.085,0.016-8.197,0.353-12.249,0.899c-27.235,3.677-49.556,29.226-49.578,56.659
			c-0.017,21.679-0.003,43.359,0.004,65.039c0.001,1.423-0.083,2.868,0.126,4.266c4.461,29.947,21.025,50.771,48.415,62.906
			C331.603,603.721,339.357,604.967,346.507,606.988z M386.597,389.601c77.935,0,155.047,0,232.259,0
			c-6.167-18.272-27.578-33.834-46.313-33.839c-46.679-0.013-93.356-0.022-140.035,0.037c-2.964,0.003-6.031,0.226-8.875,0.995
			C406.085,361.538,393.856,372.356,386.597,389.601z M633.207,725.433c0-2.577-0.259-4.663,0.045-6.664
			c1.305-8.588-5.946-16.13-15.73-15.634c-12.786,0.647-25.632,0.155-38.451,0.155c-64.259,0.004-128.518,0.098-192.776-0.102
			c-8.291-0.025-13.95,5.023-14.984,10.983c-0.631,3.634-0.117,7.467-0.117,11.261C458.685,725.433,545.697,725.433,633.207,725.433
			z M664.692,665.37c17.502,0,34.103-0.076,50.703,0.022c14.602,0.087,24.513,14.523,19.489,28.194
			c-4.689,12.761-26.393,18.732-37.122,10.321c-1.544-1.21-3.646-2.358-5.514-2.398c-10.659-0.227-21.324-0.11-32.183-0.11
			c0,9.652,0,19.688,0,29.889c9.249,0,18.274,0.44,27.223-0.203c3.949-0.284,7.723-2.819,11.613-4.228
			c1.549-0.561,3.184-1.068,4.811-1.196c7.061-0.556,14.359-0.003,21.159-1.602c20.686-4.862,30.764-21.376,30.521-39.192
			c-0.261-19.116-14.131-35.211-33.073-37.331c-14.84-1.66-29.955-0.884-44.95-1.073c-0.842-0.012-2.021,0.832-2.496,1.609
			C671.538,653.554,668.346,659.12,664.692,665.37z M503.184,308.201c-7.262,0-14.579-0.572-21.77,0.132
			c-11.259,1.103-18.829,13.614-15.278,24.166c0.854,2.536,2.192,3.692,5.141,3.674c21.183-0.132,42.367-0.141,63.55,0.035
			c3.042,0.025,4.224-1.218,5.05-3.716c3.469-10.499-4.104-22.942-15.397-24.157C517.458,307.579,510.29,308.193,503.184,308.201z"
			/>
		<path fill-rule="evenodd" clip-rule="evenodd" d="M351.693,579.717c-25.435-3.07-43.234-16.671-48.669-41.473
			c-0.401-1.829-0.411-3.77-0.411-5.658c-0.001-21.979-0.306-43.967,0.181-65.937c0.331-14.937,13.058-27.69,27.965-28.212
			c15.143-0.53,30.318-0.117,46.132-0.117C368.473,485.565,360.112,532.479,351.693,579.717z"/>
	</g>
</g>
<g id="Layer_1" display="none">
	<g display="inline">
		<path fill="#8BFF5F" d="M887.55,419.31C866.351,334.565,821.526,265,752.49,211.539c-70.21-54.37-150.434-80.086-244.937-80.859
			c-23.438-0.068-61.271,4.335-87.841,11.076c-86.53,21.95-158.069,67.259-212.848,137.984
			c-46.966,60.641-72.083,129.81-77.156,206.161c-1.656,24.921-0.63,49.891,2.613,74.761c4.335,33.237,12.892,65.298,25.619,96.246
			c26.31,63.976,67.521,116.526,122.663,158.063c60.134,45.297,128.109,70.255,203.015,76.403
			c22.271,1.828,44.559,1.408,66.859-0.704c24.854-2.354,49.326-6.567,73.198-13.739C703.12,853.063,768.835,808.896,819.52,743
			c50.854-66.114,76.561-141.221,78.91-224.399C899.378,485.045,895.705,451.913,887.55,419.31z M765.558,623.063
			c-0.012,8.705-5.635,14.413-14.251,14.428c-25.497,0.042-50.994,0.047-76.492,0.001c-8.711-0.017-14.299-5.687-14.305-14.371
			c-0.02-26.664,0.04-53.329-0.058-79.993c-0.019-4.811,1.495-8.712,4.969-11.985c5.083-4.791,9.373-11.103,15.341-14.083
			c5.854-2.923,13.383-2.49,20.708-3.611c0.873-15.264-2.985-29.855-12.864-42.185c-15.576-19.438-27.931-40.461-33.392-64.884
			c-2.265-10.126-3.214-20.657-3.682-31.054c-1.019-22.625-7.114-43.303-22.529-60.27c-20.348-22.395-45.795-32.098-76.062-28.809
			c-34.149,3.713-64.506,28.767-73.051,67.209c-1.035,4.662-1.246,9.507-1.938,15.046c22.144,0,43.275-0.036,64.407,0.043
			c2.798,0.011,5.652,0.344,8.377,0.978c6.767,1.577,12.095,5.326,15.721,11.332c12.7,21.038,25.358,42.102,38.104,63.111
			c4.699,7.747,6.863,16.218,6.875,25.123c0.091,76.494,0.078,152.987,0.041,229.481c-0.009,15.317-10.593,25.753-26.263,25.896
			c-14.997,0.138-29.997,0.031-44.996,0.031c-63.493,0-126.988,0.005-190.483-0.002c-15.344-0.002-25.056-8.728-25.313-23.96
			c-0.446-26.49-0.302-52.991-0.314-79.487c-0.024-49.496,0.119-98.992-0.049-148.487c-0.04-11.822,2.692-22.396,9.114-32.483
			c11.859-18.623,23.073-37.66,34.424-56.604c6.105-10.189,14.831-15.141,26.776-15.025c19.986,0.193,39.977,0.053,59.903,0.053
			c1.413-8.22,2.077-16.377,4.265-24.102c12.41-43.815,41.024-70.884,85.674-79.852c58.403-11.731,116.658,27.634,128.001,89.406
			c1.582,8.616,1.556,17.548,2.007,26.347c1.328,25.91,10.644,48.816,26.618,68.929c14.72,18.53,24.236,38.75,23.704,62.901
			c-0.014,0.626,0.161,1.256,0.291,2.186c1.285,0.066,2.409,0.168,3.533,0.178c3,0.023,6.001-0.055,8.999,0.021
			c10.286,0.263,28.18,18.342,28.192,28.556C765.597,569.734,765.592,596.399,765.558,623.063z"/>
		<path fill="#8BFF5F" d="M515.754,555.635c12.992,12.995,25.628,25.342,37.865,38.066c3.063,3.188,6.521,7.463,6.822,11.463
			c0.357,4.745-1.191,10.841-4.213,14.401c-7.834,9.23-16.863,17.455-25.54,25.959c-7.014,6.876-16.266,7.036-23.275,0.156
			c-13.494-13.239-26.773-26.699-40.791-40.715c-8.429,8.429-16.441,16.449-24.464,24.461c-5.328,5.322-10.55,10.762-16.036,15.916
			c-7.822,7.349-16.841,7.28-24.499-0.17c-8.185-7.963-16.261-16.04-24.242-24.205c-7.449-7.621-7.463-16.826,0.002-24.422
			c12.938-13.164,26.014-26.199,39.022-39.296c0.156-0.156,0.205-0.417,0.794-1.678c-4.945-4.943-10.201-10.19-15.446-15.445
			c-7.896-7.911-15.879-15.734-23.655-23.76c-7.61-7.853-7.466-17.937,0.242-25.767c7.499-7.616,15.074-15.16,22.671-22.682
			c8.503-8.418,18.291-8.516,26.827-0.083c12.927,12.77,25.72,25.677,39.156,39.113c13.726-13.728,27.117-27.015,40.377-40.431
			c4.871-4.928,12.033-8.728,16.849-4.659c13.108,11.07,25.365,23.354,36.583,36.347c3.837,4.444,0.78,11.641-3.99,16.388
			C543.384,527.961,530.008,541.381,515.754,555.635z"/>
	</g>
</g>
</svg>
