<?xml version="1.0" encoding="utf-8"?>
<!-- Generator: Adobe Illustrator 16.0.0, SVG Export Plug-In . SVG Version: 6.00 Build 0)  -->
<!DOCTYPE svg PUBLIC "-//W3C//DTD SVG 1.1//EN" "http://www.w3.org/Graphics/SVG/1.1/DTD/svg11.dtd">
<svg version="1.1" xmlns="http://www.w3.org/2000/svg" xmlns:xlink="http://www.w3.org/1999/xlink" x="0px" y="0px" width="1024px"
	 height="1024px" viewBox="0 0 1024 1024" enable-background="new 0 0 1024 1024" xml:space="preserve">
<g id="Layer_2">
	<path fill-rule="evenodd" clip-rule="evenodd" d="M518.665,893.058c-92.205-0.352-171.478-25.813-240.627-79.585
		c-71.941-55.943-118.126-128.935-138.877-217.836c-7.644-32.75-11.007-65.993-9.499-99.52
		C133.348,414.193,159.354,340,210.25,275.46c56.705-71.908,130.344-117.457,219.915-137.022
		c32.357-7.067,65.153-10.093,98.178-8.609c81.063,3.642,154.401,29.423,218.882,78.993
		c57.738,44.388,99.662,100.698,124.944,169.149c10.17,27.537,16.813,55.901,20.401,85.083c3.292,26.766,3.851,53.555,1.553,80.311
		c-6.456,75.162-32.756,142.775-79.092,202.377C764.235,811.08,698.629,854.805,619.47,878.343
		c-24.414,7.261-49.407,11.674-74.854,13.285C534.394,892.275,524.161,892.759,518.665,893.058z M515.572,452.958
		c0,0.011,0,0.021,0,0.031c-42.815,0-85.631-0.029-128.445,0.095c-1.957,0.006-4.566,0.833-5.762,2.229
		c-9.972,11.631-18.117,24.487-24.75,38.304c-13.104,27.295-18.51,55.998-13.827,85.971c5.174,33.117,22.123,59.484,48.964,79.444
		c19.071,14.182,39.93,22.497,64.363,22.082c40.525-0.689,81.069-0.14,121.604-0.304c6.455-0.026,13.121-0.198,19.324-1.757
		c37.482-9.423,64.436-31.931,81.438-66.585c1.005-2.049,3.096-4.066,5.174-5.005c14.455-6.527,26.133-16.161,34.797-29.508
		c8.79-13.542,13.102-28.725,16.642-44.217c4.429-19.386,8.338-39.068,18.646-56.36c7.691-12.906,16.704-25.036,25.346-37.36
		c2.128-3.037,3.623-5.796,1.682-9.327c-1.874-3.41-4.933-4.165-8.645-4.13c-14.323,0.131-28.652,0.179-42.977-0.03
		c-4.303-0.063-7.277,1.371-10.111,4.573c-8.295,9.37-16.275,19.166-25.578,27.446c-6.999,6.23-15.806,10.451-23.901,15.413
		c-2.595,1.59-4.645,0.668-6.473-1.898c-3.765-5.288-7.957-10.269-11.789-15.511c-2-2.734-4.304-3.694-7.764-3.684
		C600.876,453.005,558.225,452.958,515.572,452.958z M485.96,393.954c-17.508,1.633-33.895,4.925-49.688,10.833
		c-15.895,5.946-30.72,13.598-43.004,26.254c79.577,0,158.326,0,237.91,0c-12.665-13.056-27.538-20.773-43.45-26.653
		c-15.74-5.816-32.081-9.182-49.256-10.417c2.965-5.729,5.698-10.846,8.274-16.041c1.861-3.755,3.992-7.473,5.169-11.454
		c3.062-10.341-4.821-20.821-15.582-20.901c-16.11-0.118-32.223-0.092-48.333-0.002c-7.479,0.042-13.476,5.046-15.767,12.2
		c-1.815,5.666,0.039,10.543,2.53,15.338C478.316,379.95,482.048,386.694,485.96,393.954z M377.105,440.282
		c-28.972-21.039-71.366-21.789-102.787,6.452c-29.19,26.234-37.33,70.494-17.2,107.675c18.221,33.652,58.542,46.302,76.591,42.843
		c-1.438-8.066-3.02-16.101-4.229-24.188c-0.429-2.869-1.681-3.495-4.346-3.945c-12.189-2.061-23.513-6.447-32.529-15.141
		c-18.514-17.848-21.51-39.655-14.147-63.143c7.29-23.258,27.584-37.102,51.971-36.939c10.89,0.073,20.944,2.927,29.746,8.348
		C365.905,454.811,371.436,447.637,377.105,440.282z"/>
</g>
<g id="Layer_1" display="none">
	<g display="inline">
		<path fill="#8BFF5F" d="M887.55,419.31C866.351,334.565,821.526,265,752.49,211.539c-70.21-54.37-150.434-80.086-244.937-80.859
			c-23.438-0.068-61.271,4.335-87.841,11.076c-86.53,21.95-158.069,67.259-212.848,137.984
			c-46.966,60.641-72.083,129.81-77.156,206.161c-1.656,24.921-0.63,49.891,2.613,74.761c4.335,33.237,12.892,65.298,25.619,96.246
			c26.31,63.976,67.521,116.526,122.663,158.063c60.134,45.297,128.109,70.255,203.015,76.403
			c22.271,1.828,44.559,1.408,66.859-0.704c24.854-2.354,49.326-6.567,73.198-13.739C703.12,853.063,768.835,808.896,819.52,743
			c50.854-66.114,76.561-141.221,78.91-224.399C899.378,485.045,895.705,451.913,887.55,419.31z M765.558,623.063
			c-0.012,8.705-5.635,14.413-14.251,14.428c-25.497,0.042-50.994,0.047-76.492,0.001c-8.711-0.017-14.299-5.687-14.305-14.371
			c-0.02-26.664,0.04-53.329-0.058-79.993c-0.019-4.811,1.495-8.712,4.969-11.985c5.083-4.791,9.373-11.103,15.341-14.083
			c5.854-2.923,13.383-2.49,20.708-3.611c0.873-15.264-2.985-29.855-12.864-42.185c-15.576-19.438-27.931-40.461-33.392-64.884
			c-2.265-10.126-3.214-20.657-3.682-31.054c-1.019-22.625-7.114-43.303-22.529-60.27c-20.348-22.395-45.795-32.098-76.062-28.809
			c-34.149,3.713-64.506,28.767-73.051,67.209c-1.035,4.662-1.246,9.507-1.938,15.046c22.144,0,43.275-0.036,64.407,0.043
			c2.798,0.011,5.652,0.344,8.377,0.978c6.767,1.577,12.095,5.326,15.721,11.332c12.7,21.038,25.358,42.102,38.104,63.111
			c4.699,7.747,6.863,16.218,6.875,25.123c0.091,76.494,0.078,152.987,0.041,229.481c-0.009,15.317-10.593,25.753-26.263,25.896
			c-14.997,0.138-29.997,0.031-44.996,0.031c-63.493,0-126.988,0.005-190.483-0.002c-15.344-0.002-25.056-8.728-25.313-23.96
			c-0.446-26.49-0.302-52.991-0.314-79.487c-0.024-49.496,0.119-98.992-0.049-148.487c-0.04-11.822,2.692-22.396,9.114-32.483
			c11.859-18.623,23.073-37.66,34.424-56.604c6.105-10.189,14.831-15.141,26.776-15.025c19.986,0.193,39.977,0.053,59.903,0.053
			c1.413-8.22,2.077-16.377,4.265-24.102c12.41-43.815,41.024-70.884,85.674-79.852c58.403-11.731,116.658,27.634,128.001,89.406
			c1.582,8.616,1.556,17.548,2.007,26.347c1.328,25.91,10.644,48.816,26.618,68.929c14.72,18.53,24.236,38.75,23.704,62.901
			c-0.014,0.626,0.161,1.256,0.291,2.186c1.285,0.066,2.409,0.168,3.533,0.178c3,0.023,6.001-0.055,8.999,0.021
			c10.286,0.263,28.18,18.342,28.192,28.556C765.597,569.734,765.592,596.399,765.558,623.063z"/>
		<path fill="#8BFF5F" d="M515.754,555.635c12.992,12.995,25.628,25.342,37.865,38.066c3.063,3.188,6.521,7.463,6.822,11.463
			c0.357,4.745-1.191,10.841-4.213,14.401c-7.834,9.23-16.863,17.455-25.54,25.959c-7.014,6.876-16.266,7.036-23.275,0.156
			c-13.494-13.239-26.773-26.699-40.791-40.715c-8.429,8.429-16.441,16.449-24.464,24.461c-5.328,5.322-10.55,10.762-16.036,15.916
			c-7.822,7.349-16.841,7.28-24.499-0.17c-8.185-7.963-16.261-16.04-24.242-24.205c-7.449-7.621-7.463-16.826,0.002-24.422
			c12.938-13.164,26.014-26.199,39.022-39.296c0.156-0.156,0.205-0.417,0.794-1.678c-4.945-4.943-10.201-10.19-15.446-15.445
			c-7.896-7.911-15.879-15.734-23.655-23.76c-7.61-7.853-7.466-17.937,0.242-25.767c7.499-7.616,15.074-15.16,22.671-22.682
			c8.503-8.418,18.291-8.516,26.827-0.083c12.927,12.77,25.72,25.677,39.156,39.113c13.726-13.728,27.117-27.015,40.377-40.431
			c4.871-4.928,12.033-8.728,16.849-4.659c13.108,11.07,25.365,23.354,36.583,36.347c3.837,4.444,0.78,11.641-3.99,16.388
			C543.384,527.961,530.008,541.381,515.754,555.635z"/>
	</g>
</g>
</svg>
