<?xml version="1.0" encoding="utf-8"?>
<!-- Generator: Adobe Illustrator 16.0.0, SVG Export Plug-In . SVG Version: 6.00 Build 0)  -->
<!DOCTYPE svg PUBLIC "-//W3C//DTD SVG 1.1//EN" "http://www.w3.org/Graphics/SVG/1.1/DTD/svg11.dtd">
<svg version="1.1" xmlns="http://www.w3.org/2000/svg" xmlns:xlink="http://www.w3.org/1999/xlink" x="0px" y="0px" width="1024px"
	 height="1024px" viewBox="0 0 1024 1024" enable-background="new 0 0 1024 1024" xml:space="preserve">
<g id="Layer_2">
	<g>
		<path fill-rule="evenodd" clip-rule="evenodd" d="M896.914,506.877c0.213,86.313-24.688,163.461-75.263,231.549
			c-57.192,76.998-133.006,126.407-227.051,147.063c-35.048,7.698-70.492,9.835-106.262,7.391
			c-84.807-5.796-159.571-36.469-224.344-91.269c-63.13-53.41-103.041-121.33-123.033-201.131
			c-9.543-38.089-12.195-76.906-9.791-116.128c4.915-80.161,33.129-151.36,83.172-213.734
			c47.003-58.585,107.302-98.375,178.479-121.787c29.664-9.758,60.116-15.635,91.335-17.766
			c95.527-6.518,182.574,17.293,259.763,74.083c76.373,56.191,124.739,131.155,145.031,223.902
			C894.643,455.07,897.142,481.511,896.914,506.877z M513.486,374.32c0-0.005,0-0.011,0-0.016c-15.079,0-30.156,0-45.233,0
			c-26.309,0.001-52.617,0.009-78.926-0.006c-2.7-0.001-5.812-0.29-5.007,3.805c1.689,8.594-2.046,14.238-9.223,18.254
			c-0.531,0.296-0.973,0.751-1.465,1.12c-18.666,13.963-27.459,32.372-27.34,55.9c0.371,73.385,0.095,146.773,0.225,220.16
			c0.012,6.406,0.659,12.906,1.856,19.202c5.819,30.591,31.164,52.168,61.904,52.257c69.079,0.199,138.157,0.104,207.234,0.044
			c9-0.007,17.698-1.933,25.731-6.091c25.412-13.153,36.712-34.877,36.783-62.711c0.192-75.231,0.058-150.465,0.048-225.698
			c-0.001-8.967-1.137-17.674-4.731-26.05c-5.422-12.629-14.766-21.848-25.65-29.532c-5.275-3.724-7.87-7.661-7.185-14.302
			c0.648-6.271,0.139-6.336-6.25-6.336C595.334,374.318,554.409,374.32,513.486,374.32z M513.479,354.847c0-0.008,0-0.015,0-0.023
			c45.99,0,91.979-0.167,137.967,0.136c9.552,0.063,14.972-4.104,14.529-14.212c-0.504-11.515-0.078-23.067-0.146-34.604
			c-0.088-15.047-12.257-27.226-27.247-27.229c-83.521-0.017-167.042-0.013-250.563,0.003
			c-13.799,0.003-25.793,10.262-26.765,24.089c-0.892,12.705-0.57,25.502-0.587,38.259c-0.013,9.563,4.285,13.587,13.92,13.585
			C420.883,354.841,467.181,354.847,513.479,354.847z"/>
		<path fill-rule="evenodd" clip-rule="evenodd" d="M513.513,491.5c41.077,0,82.153-0.001,123.23,0.002
			c8.657,0,13.357,3.898,13.361,11.354c0.028,60.891,0.07,121.781-0.031,182.673c-0.028,17.218-14.998,29.169-36.476,29.224
			c-39.999,0.103-80,0.044-120,0.043c-27.23-0.001-54.462,0.082-81.692-0.061c-17.681-0.092-30.573-8.716-34.44-22.808
			c-0.69-2.513-0.786-5.187-0.788-7.786c-0.044-59.058-0.038-118.116-0.031-177.173c0-1.833,0.021-3.669,0.159-5.497
			c0.476-6.303,5.087-9.967,12.554-9.968C430.744,491.495,472.129,491.5,513.513,491.5z"/>
	</g>
</g>
<g id="Layer_1" display="none">
	<g id="Layer_1_1_" display="inline">
		<g>
			<path fill="#8BFF5F" d="M887.55,419.31C866.351,334.565,821.526,265,752.49,211.539c-70.21-54.37-150.435-80.086-244.938-80.859
				c-23.438-0.068-61.271,4.335-87.841,11.076c-86.53,21.95-158.069,67.259-212.848,137.984
				c-46.966,60.641-72.083,129.81-77.156,206.161c-1.656,24.921-0.63,49.891,2.613,74.761c4.335,33.237,12.892,65.298,25.619,96.246
				c26.31,63.976,67.521,116.525,122.663,158.063c60.134,45.297,128.109,70.255,203.015,76.403
				c22.271,1.828,44.559,1.408,66.858-0.704c24.854-2.354,49.326-6.567,73.198-13.739C703.12,853.063,768.835,808.896,819.52,743
				c50.854-66.114,76.562-141.221,78.91-224.399C899.378,485.045,895.705,451.913,887.55,419.31z M765.558,623.063
				c-0.012,8.704-5.635,14.412-14.251,14.428c-25.497,0.042-50.994,0.047-76.491,0.001c-8.712-0.018-14.3-5.688-14.306-14.371
				c-0.02-26.664,0.04-53.329-0.058-79.993c-0.02-4.811,1.495-8.712,4.969-11.985c5.083-4.791,9.373-11.103,15.341-14.083
				c5.854-2.923,13.383-2.489,20.708-3.61c0.873-15.265-2.984-29.855-12.863-42.186c-15.576-19.438-27.932-40.461-33.393-64.884
				c-2.265-10.126-3.214-20.657-3.682-31.054c-1.02-22.625-7.114-43.303-22.529-60.27c-20.348-22.395-45.795-32.098-76.062-28.809
				c-34.149,3.713-64.507,28.767-73.052,67.209c-1.034,4.662-1.246,9.507-1.938,15.046c22.144,0,43.274-0.036,64.407,0.043
				c2.798,0.011,5.651,0.344,8.377,0.978c6.767,1.577,12.095,5.326,15.721,11.332c12.7,21.038,25.358,42.102,38.104,63.111
				c4.699,7.747,6.863,16.218,6.875,25.123c0.092,76.494,0.078,152.987,0.041,229.481c-0.009,15.316-10.593,25.753-26.263,25.896
				c-14.997,0.138-29.997,0.031-44.996,0.031c-63.493,0-126.987,0.005-190.482-0.002c-15.345-0.002-25.057-8.729-25.313-23.96
				c-0.445-26.49-0.302-52.991-0.313-79.487c-0.024-49.496,0.119-98.992-0.05-148.487c-0.039-11.821,2.692-22.396,9.114-32.482
				c11.859-18.623,23.073-37.66,34.424-56.604c6.105-10.189,14.831-15.141,26.776-15.025c19.986,0.193,39.977,0.053,59.903,0.053
				c1.413-8.22,2.077-16.377,4.265-24.102c12.41-43.815,41.024-70.884,85.674-79.852c58.403-11.731,116.658,27.634,128.001,89.406
				c1.582,8.616,1.557,17.548,2.008,26.347c1.327,25.91,10.644,48.816,26.617,68.929c14.721,18.53,24.236,38.75,23.704,62.901
				c-0.014,0.626,0.161,1.256,0.291,2.187c1.285,0.065,2.409,0.168,3.533,0.178c3,0.022,6.001-0.055,8.999,0.021
				c10.286,0.264,28.18,18.343,28.192,28.557C765.597,569.734,765.592,596.399,765.558,623.063z"/>
			<path fill="#8BFF5F" d="M515.754,555.635c12.992,12.995,25.628,25.342,37.865,38.066c3.063,3.188,6.521,7.463,6.822,11.463
				c0.356,4.745-1.191,10.841-4.213,14.401c-7.834,9.229-16.863,17.455-25.54,25.959c-7.015,6.876-16.267,7.035-23.275,0.155
				c-13.494-13.238-26.773-26.698-40.791-40.715c-8.429,8.429-16.441,16.449-24.464,24.461c-5.328,5.322-10.55,10.763-16.036,15.916
				c-7.822,7.35-16.841,7.28-24.499-0.17c-8.185-7.963-16.261-16.04-24.242-24.205c-7.449-7.621-7.463-16.826,0.002-24.422
				c12.938-13.164,26.015-26.199,39.022-39.296c0.156-0.156,0.205-0.417,0.794-1.678c-4.945-4.943-10.201-10.19-15.446-15.445
				c-7.896-7.911-15.879-15.734-23.655-23.76c-7.609-7.854-7.466-17.938,0.242-25.768c7.499-7.615,15.074-15.16,22.671-22.682
				c8.503-8.418,18.291-8.516,26.827-0.083c12.927,12.77,25.72,25.677,39.156,39.113c13.726-13.729,27.117-27.016,40.377-40.432
				c4.871-4.928,12.033-8.728,16.849-4.658c13.108,11.069,25.365,23.354,36.583,36.347c3.837,4.444,0.78,11.641-3.989,16.388
				C543.384,527.961,530.008,541.381,515.754,555.635z"/>
		</g>
	</g>
</g>
</svg>
