<?xml version="1.0" encoding="utf-8"?>
<!-- Generator: Adobe Illustrator 16.0.0, SVG Export Plug-In . SVG Version: 6.00 Build 0)  -->
<!DOCTYPE svg PUBLIC "-//W3C//DTD SVG 1.1//EN" "http://www.w3.org/Graphics/SVG/1.1/DTD/svg11.dtd">
<svg version="1.1" xmlns="http://www.w3.org/2000/svg" xmlns:xlink="http://www.w3.org/1999/xlink" x="0px" y="0px" width="1024px"
	 height="1024px" viewBox="0 0 1024 1024" enable-background="new 0 0 1024 1024" xml:space="preserve">
<g id="Layer_2">
	<path fill-rule="evenodd" clip-rule="evenodd" d="M513.547,891.674c-85.371-0.282-162.725-25.37-230.933-76.752
		c-70.879-53.393-117.735-123.376-140.493-209.313c-10.882-41.094-13.72-82.862-10.63-125.136
		c5.191-71.004,28.314-135.678,70.382-193.035c55.61-75.819,129.704-124.618,220.965-147.151c32.5-8.025,65.661-11.4,99.074-10.444
		c87.265,2.496,165.761,30.068,234.101,84.708c70.072,56.023,114.169,128.321,133.151,216.04
		c7.933,36.655,10.442,73.667,7.017,110.899c-7.376,80.145-36.368,151.609-88.432,213.234
		c-54.019,63.943-121.729,106.26-203.045,126.461C574.816,888.612,544.405,892.073,513.547,891.674z M608.698,662.205
		c0.403-0.292,0.653-0.563,0.962-0.683c50.164-19.521,87.391-53.511,112.721-100.799c14.492-27.056,22.587-56.029,25.024-86.515
		c0.852-10.649,0.706-21.45,0.081-32.126c-0.829-14.178-10.893-21.635-22.875-25.174c-17.015-5.026-34.423-9.222-51.95-11.895
		c-24.397-3.722-49.02-6.18-73.622-8.283c-18.531-1.584-37.184-1.775-55.782-2.565c-43.082-1.832-86.08,0.234-128.969,3.837
		c-24.048,2.021-48.052,5.3-71.846,9.359c-14.867,2.537-29.576,6.802-43.859,11.728c-13.329,4.598-19.214,15.21-19.377,29.477
		c-0.249,21.868,1.724,43.449,7.554,64.513c16.783,60.635,51.578,107.447,107.175,137.943c8.054,4.418,16.576,7.98,24.98,11.987
		c-0.337,1.547-0.61,2.913-0.934,4.267c-4.078,17.064-0.994,23.978,15.952,28.754c15.232,4.291,30.937,7.713,46.657,9.291
		c29.747,2.986,59.649,2.786,89.14-3.002c10.705-2.102,21.247-5.544,31.474-9.404c7.184-2.713,10.682-8.823,9.475-16.923
		C610.011,671.521,609.392,667.041,608.698,662.205z"/>
	<path fill-rule="evenodd" clip-rule="evenodd" d="M306.517,445.877c10.205-2.723,20.288-6.083,30.635-8.057
		c41.073-7.831,82.604-11.987,124.375-12.701c38.117-0.652,76.288-1.031,114.372,0.274c39.224,1.344,78.352,5.013,117.037,12.257
		c13.126,2.458,20.231,4.795,25.766,9.632c-5.659,2.507-10.62,5.777-16.028,6.911c-19.304,4.045-38.66,8.054-58.174,10.826
		c-52.7,7.489-105.786,7.408-158.838,6.292c-25.265-0.532-50.514-2.364-75.74-4.062c-27.617-1.858-55.064-5.26-82.031-11.695
		c-7.229-1.725-14.217-4.454-21.317-6.722C306.554,447.848,306.536,446.862,306.517,445.877z"/>
</g>
<g id="Layer_1" display="none">
	<g id="Layer_1_1_" display="inline">
		<g>
			<path fill="#8BFF5F" d="M887.55,419.31C866.351,334.565,821.526,265,752.49,211.539c-70.21-54.37-150.435-80.086-244.938-80.859
				c-23.438-0.068-61.271,4.335-87.841,11.076c-86.53,21.95-158.069,67.259-212.848,137.984
				c-46.966,60.641-72.083,129.81-77.156,206.161c-1.656,24.921-0.63,49.891,2.613,74.761c4.335,33.237,12.892,65.298,25.619,96.246
				c26.31,63.976,67.521,116.525,122.663,158.063c60.134,45.297,128.109,70.255,203.015,76.403
				c22.271,1.828,44.559,1.408,66.858-0.704c24.854-2.354,49.326-6.567,73.198-13.739C703.12,853.063,768.835,808.896,819.52,743
				c50.854-66.114,76.562-141.221,78.91-224.399C899.378,485.045,895.705,451.913,887.55,419.31z M765.558,623.063
				c-0.012,8.704-5.635,14.412-14.251,14.428c-25.497,0.042-50.994,0.047-76.491,0.001c-8.712-0.018-14.3-5.688-14.306-14.371
				c-0.02-26.664,0.04-53.329-0.058-79.993c-0.02-4.811,1.495-8.712,4.969-11.985c5.083-4.791,9.373-11.103,15.341-14.083
				c5.854-2.923,13.383-2.489,20.708-3.61c0.873-15.265-2.984-29.855-12.863-42.186c-15.576-19.438-27.932-40.461-33.393-64.884
				c-2.265-10.126-3.214-20.657-3.682-31.054c-1.02-22.625-7.114-43.303-22.529-60.27c-20.348-22.395-45.795-32.098-76.062-28.809
				c-34.149,3.713-64.507,28.767-73.052,67.209c-1.034,4.662-1.246,9.507-1.938,15.046c22.144,0,43.274-0.036,64.407,0.043
				c2.798,0.011,5.651,0.344,8.377,0.978c6.767,1.577,12.095,5.326,15.721,11.332c12.7,21.038,25.358,42.102,38.104,63.111
				c4.699,7.747,6.863,16.218,6.875,25.123c0.092,76.494,0.078,152.987,0.041,229.481c-0.009,15.316-10.593,25.753-26.263,25.896
				c-14.997,0.138-29.997,0.031-44.996,0.031c-63.493,0-126.987,0.005-190.482-0.002c-15.345-0.002-25.057-8.729-25.313-23.96
				c-0.445-26.49-0.302-52.991-0.313-79.487c-0.024-49.496,0.119-98.992-0.05-148.487c-0.039-11.821,2.692-22.396,9.114-32.482
				c11.859-18.623,23.073-37.66,34.424-56.604c6.105-10.189,14.831-15.141,26.776-15.025c19.986,0.193,39.977,0.053,59.903,0.053
				c1.413-8.22,2.077-16.377,4.265-24.102c12.41-43.815,41.024-70.884,85.674-79.852c58.403-11.731,116.658,27.634,128.001,89.406
				c1.582,8.616,1.557,17.548,2.008,26.347c1.327,25.91,10.644,48.816,26.617,68.929c14.721,18.53,24.236,38.75,23.704,62.901
				c-0.014,0.626,0.161,1.256,0.291,2.187c1.285,0.065,2.409,0.168,3.533,0.178c3,0.022,6.001-0.055,8.999,0.021
				c10.286,0.264,28.18,18.343,28.192,28.557C765.597,569.734,765.592,596.399,765.558,623.063z"/>
			<path fill="#8BFF5F" d="M515.754,555.635c12.992,12.995,25.628,25.342,37.865,38.066c3.063,3.188,6.521,7.463,6.822,11.463
				c0.356,4.745-1.191,10.841-4.213,14.401c-7.834,9.229-16.863,17.455-25.54,25.959c-7.015,6.876-16.267,7.035-23.275,0.155
				c-13.494-13.238-26.773-26.698-40.791-40.715c-8.429,8.429-16.441,16.449-24.464,24.461c-5.328,5.322-10.55,10.763-16.036,15.916
				c-7.822,7.35-16.841,7.28-24.499-0.17c-8.185-7.963-16.261-16.04-24.242-24.205c-7.449-7.621-7.463-16.826,0.002-24.422
				c12.938-13.164,26.015-26.199,39.022-39.296c0.156-0.156,0.205-0.417,0.794-1.678c-4.945-4.943-10.201-10.19-15.446-15.445
				c-7.896-7.911-15.879-15.734-23.655-23.76c-7.609-7.854-7.466-17.938,0.242-25.768c7.499-7.615,15.074-15.16,22.671-22.682
				c8.503-8.418,18.291-8.516,26.827-0.083c12.927,12.77,25.72,25.677,39.156,39.113c13.726-13.729,27.117-27.016,40.377-40.432
				c4.871-4.928,12.033-8.728,16.849-4.658c13.108,11.069,25.365,23.354,36.583,36.347c3.837,4.444,0.78,11.641-3.989,16.388
				C543.384,527.961,530.008,541.381,515.754,555.635z"/>
		</g>
	</g>
</g>
</svg>
