<?xml version="1.0" encoding="utf-8"?>
<!-- Generator: Adobe Illustrator 16.0.0, SVG Export Plug-In . SVG Version: 6.00 Build 0)  -->
<!DOCTYPE svg PUBLIC "-//W3C//DTD SVG 1.1//EN" "http://www.w3.org/Graphics/SVG/1.1/DTD/svg11.dtd">
<svg version="1.1" id="Layer_1" xmlns="http://www.w3.org/2000/svg" xmlns:xlink="http://www.w3.org/1999/xlink" x="0px" y="0px"
	 width="1024px" height="1024px" viewBox="0 0 1024 1024" enable-background="new 0 0 1024 1024" xml:space="preserve">
<g>
	<path fill-rule="evenodd" clip-rule="evenodd" d="M121.661,508.048c1.115-215.762,174.414-392.961,398.009-389.643
		c220.649,3.275,388.249,180.032,387.254,391.157C905.9,726.692,730.201,901.768,513.5,900.127
		C294.083,898.465,122.521,725.116,121.661,508.048z M673.924,417.263c-0.096-1.629-0.17-2.386-0.182-3.145
		c-0.203-12.743-4.467-16.841-17.275-16.834c-47.36,0.025-94.721,0.006-142.082,0.01c-74.37,0.003-148.741,0.136-223.11-0.126
		c-10.343-0.037-16.227,6.717-16.105,15.934c0.475,36.133,0.134,72.277,0.254,108.415c0.02,6.058,0.417,12.174,1.33,18.157
		c5.189,34.025,18.676,64.304,42.643,89.224c29.47,30.64,65.165,48.248,108.308,48.57c33.095,0.247,66.193,0.226,99.286-0.08
		c7.887-0.073,15.965-0.931,23.603-2.839c50.903-12.722,86.863-43.665,109.012-90.917c1.548-3.303,3.139-4.327,6.656-4.363
		c13.278-0.133,26.685,0.416,39.805-1.209c42.624-5.283,75.238-52.744,66.813-94.809c-8.549-42.673-44.997-66.561-82.13-65.999
		C685.272,417.335,679.795,417.263,673.924,417.263z"/>
	<path fill-rule="evenodd" clip-rule="evenodd" d="M674.046,539.769c0-27.721,0-54.428,0-81.498
		c14.956,0.089,29.794-2.182,42.803,7.862c12.376,9.555,19.034,26.295,14.837,41.988c-4.248,15.885-14.597,26.588-30.853,29.903
		C692.252,539.774,683.206,539.248,674.046,539.769z"/>
</g>
</svg>
