<?xml version="1.0" encoding="utf-8"?>
<!-- Generator: Adobe Illustrator 16.0.0, SVG Export Plug-In . SVG Version: 6.00 Build 0)  -->
<!DOCTYPE svg PUBLIC "-//W3C//DTD SVG 1.1//EN" "http://www.w3.org/Graphics/SVG/1.1/DTD/svg11.dtd">
<svg version="1.1" id="Layer_1" xmlns="http://www.w3.org/2000/svg" xmlns:xlink="http://www.w3.org/1999/xlink" x="0px" y="0px"
	 width="1024px" height="1024px" viewBox="0 0 1024 1024" enable-background="new 0 0 1024 1024" xml:space="preserve">
<g>
	<path fill-rule="evenodd" clip-rule="evenodd" d="M507.555,130.68c94.503,0.773,174.726,26.489,244.936,80.859
		C821.526,265,866.351,334.565,887.55,419.31c8.155,32.604,11.828,65.735,10.88,99.291c-2.351,83.179-28.058,158.285-78.91,224.399
		c-50.685,65.896-116.399,110.063-195.841,133.932c-23.872,7.172-48.346,11.386-73.198,13.739
		c-22.302,2.112-44.588,2.532-66.86,0.704c-74.905-6.148-142.881-31.106-203.015-76.403
		c-55.142-41.536-96.353-94.088-122.663-158.063c-12.727-30.948-21.283-63.009-25.619-96.246c-3.244-24.87-4.269-49.84-2.613-74.761
		c5.072-76.352,30.189-145.521,77.156-206.161c54.778-70.726,126.317-116.034,212.848-137.984
		C446.284,135.015,484.115,130.611,507.555,130.68z M477.953,368.503c0.691-5.539,0.902-10.384,1.938-15.046
		c8.544-38.442,38.9-63.496,73.05-67.209c30.267-3.289,55.714,6.414,76.062,28.809c15.415,16.967,21.512,37.645,22.529,60.27
		c0.468,10.396,1.417,20.928,3.682,31.054c5.461,24.423,17.814,45.446,33.391,64.884c9.879,12.328,13.738,26.921,12.865,42.184
		c-7.325,1.121-14.854,0.689-20.708,3.612c-5.968,2.98-10.258,9.292-15.341,14.083c-3.474,3.273-4.986,7.175-4.969,11.985
		c0.098,26.664,0.038,53.329,0.058,79.993c0.006,8.686,5.594,14.355,14.304,14.371c25.498,0.046,50.996,0.041,76.493-0.001
		c8.616-0.014,14.239-5.722,14.251-14.428c0.034-26.664,0.039-53.329,0.006-79.993c-0.013-10.213-17.906-28.293-28.192-28.555
		c-2.998-0.075-5.999,0.003-8.999-0.021c-1.124-0.01-2.248-0.11-3.533-0.177c-0.13-0.93-0.305-1.56-0.291-2.186
		c0.532-24.151-8.985-44.371-23.704-62.901c-15.976-20.112-25.29-43.019-26.619-68.929c-0.451-8.799-0.424-17.73-2.006-26.347
		c-11.343-61.772-69.598-101.138-128.001-89.406c-44.649,8.968-73.264,36.036-85.674,79.852c-2.188,7.725-2.852,15.882-4.265,24.102
		c-19.927,0-39.917,0.141-59.903-0.053c-11.945-0.115-20.671,4.836-26.776,15.025c-11.351,18.943-22.564,37.98-34.424,56.604
		c-6.422,10.087-9.155,20.661-9.115,32.484c0.168,49.495,0.024,98.991,0.049,148.487c0.014,26.496-0.132,52.997,0.315,79.487
		c0.257,15.233,9.968,23.958,25.312,23.96c63.495,0.007,126.99,0.002,190.484,0.002c14.999,0,29.999,0.106,44.996-0.031
		c15.67-0.144,26.254-10.578,26.262-25.896c0.038-76.494,0.05-152.987-0.041-229.481c-0.011-8.905-2.175-17.376-6.875-25.123
		c-12.746-21.01-25.404-42.073-38.104-63.111c-3.626-6.006-8.954-9.755-15.721-11.332c-2.724-0.634-5.579-0.967-8.377-0.978
		C521.229,368.467,500.097,368.503,477.953,368.503z"/>
	<path fill-rule="evenodd" clip-rule="evenodd" d="M439.363,581.245c-12.036-12.012-23.827-24.271-36.234-35.87
		c-3.807-3.557-9.042-6.482-14.089-7.613c-7.95-1.781-16.184,3.455-19.701,10.73c-3.602,7.453-2.579,15.244,3.583,21.497
		c15.805,16.036,31.825,31.861,47.764,47.768c13.646,13.616,25.442,13.607,39.156-0.18c32.083-32.255,64.133-64.544,96.143-96.872
		c2.237-2.26,4.42-4.737,5.965-7.488c5.035-8.959,2.687-19.663-5.352-25.829c-7.616-5.841-17.177-4.997-24.886,2.249
		c-2.342,2.203-4.591,4.506-6.873,6.772C496.464,524.57,468.089,552.732,439.363,581.245z"/>
</g>
</svg>
