<?xml version="1.0" encoding="utf-8"?>
<!-- Generator: Adobe Illustrator 16.0.0, SVG Export Plug-In . SVG Version: 6.00 Build 0)  -->
<!DOCTYPE svg PUBLIC "-//W3C//DTD SVG 1.1//EN" "http://www.w3.org/Graphics/SVG/1.1/DTD/svg11.dtd">
<svg version="1.1" id="Layer_1" xmlns="http://www.w3.org/2000/svg" xmlns:xlink="http://www.w3.org/1999/xlink" x="0px" y="0px"
	 width="1024px" height="1024px" viewBox="0 0 1024 1024" enable-background="new 0 0 1024 1024" xml:space="preserve">
<g>
	<path fill-rule="evenodd" clip-rule="evenodd" d="M513.254,905.799c-216.264,2.122-398.137-179.9-394.013-398.862
		c4.164-221.032,177.265-392.7,400.742-389.737c214.353,2.842,389.083,171.824,388.631,396.398
		C908.165,736.064,726.566,906.286,513.254,905.799z M511.478,725.41c35.668,0,71.336,0.013,107.004-0.006
		c12.157-0.007,17.838-3.954,22.305-14.949c0.759-1.866,2.209-3.714,3.823-4.927c17.699-13.287,32.727-28.78,42.244-49.146
		c1.229-2.632,3.872-5.25,6.51-6.478c31.508-14.66,54.271-37.53,64.066-71.178c5.339-18.338,8.132-37.449,11.532-56.309
		c3.504-19.427,7.178-38.747,15.026-57.017c7.275-16.937,16.932-31.979,32.27-42.893c3.112-2.214,7.252-4.745,5.952-9.613
		c-1.37-5.13-6.008-5.396-10.301-5.318c-13.76,0.247-27.514,0.861-41.271,0.922c-9.364,0.042-17.391,3.505-23.826,9.673
		c-7.904,7.576-15.826,15.455-22.068,24.374c-9.53,13.617-17.621,28.242-26.341,42.429c-3.42,5.564-7.401,10.553-13.987,12.583
		c-4.311,1.329-7.684,1.267-10.386-3.644c-10.582-19.238-21.874-38.088-32.347-57.383c-4.865-8.962-11.342-12.55-21.631-12.507
		c-73.541,0.312-147.085,0.177-220.628,0.071c-2.368-0.003-4.904-0.858-7.071-1.912c-10.965-5.335-21.391-12.176-32.831-16.046
		c-21.17-7.162-43.048-10.262-65.336-4.479c-39.584,10.269-66.841,52.885-70.1,88.721c-3.477,38.224,9.77,71.109,34.044,100.141
		c17.954,21.474,40.454,36.375,66.138,46.906c1.991,0.815,4.507,2.35,5.156,4.139c9.529,26.299,26.911,46.357,49.017,62.805
		c1.696,1.263,3.708,2.99,4.184,4.857c3.069,12.048,11.715,16.337,24.054,16.266C441.611,725.291,476.544,725.425,511.478,725.41z
		 M535.753,336.445c1.549-4.837,3.642-10.433,5.124-16.185c3.174-12.323-1.397-24.201-11.713-31.37
		c-9.361-6.506-22.153-6.47-32.028,0.092c-9.855,6.549-14.711,18.847-11.758,30.795c1.463,5.922,3.601,11.678,5.345,17.223
		c-11.185,3.396-22.192,6.586-33.103,10.081c-23.124,7.405-43.617,18.941-58.768,38.503c-1.318,1.701-2.909,5.127-2.193,6.041
		c1.286,1.639,4.229,2.744,6.481,2.748c72.795,0.134,145.591,0.132,218.387,0.004c2.303-0.004,6.092-1.063,6.548-2.479
		c0.647-2.013-0.555-5.269-2.013-7.206c-10.035-13.327-22.927-23.452-38.251-29.67C570.802,348.119,553.225,342.611,535.753,336.445
		z"/>
	<path fill-rule="evenodd" clip-rule="evenodd" d="M374.261,455.324c-29.61,42.844-50.23,88.574-50.49,143.15
		c-6.93-4.73-13.332-8.417-18.948-13.056c-20.972-17.322-36.644-38.206-42.763-65.354c-5.494-24.37-1.181-46.567,14.733-65.988
		c9.097-11.102,20.946-17.783,35.611-17.931c19.758-0.199,38.373,4.433,55.453,14.592
		C370.021,452.024,371.971,453.67,374.261,455.324z"/>
</g>
</svg>
