<?xml version="1.0" encoding="utf-8"?>
<!-- Generator: Adobe Illustrator 16.0.0, SVG Export Plug-In . SVG Version: 6.00 Build 0)  -->
<!DOCTYPE svg PUBLIC "-//W3C//DTD SVG 1.1//EN" "http://www.w3.org/Graphics/SVG/1.1/DTD/svg11.dtd">
<svg version="1.1" xmlns="http://www.w3.org/2000/svg" xmlns:xlink="http://www.w3.org/1999/xlink" x="0px" y="0px" width="1024px"
	 height="1024px" viewBox="0 0 1024 1024" enable-background="new 0 0 1024 1024" xml:space="preserve">
<g id="Layer_1" display="none">
	<g display="inline">
		<path fill="#8BFF5F" d="M887.55,419.31C866.351,334.565,821.526,265,752.49,211.539c-70.21-54.37-150.434-80.086-244.937-80.859
			c-23.438-0.068-61.271,4.335-87.841,11.076c-86.53,21.95-158.069,67.259-212.848,137.984
			c-46.966,60.641-72.083,129.81-77.156,206.161c-1.656,24.921-0.63,49.891,2.613,74.761c4.335,33.237,12.892,65.298,25.619,96.246
			c26.31,63.976,67.521,116.526,122.663,158.063c60.134,45.297,128.109,70.255,203.015,76.403
			c22.271,1.828,44.559,1.408,66.859-0.704c24.854-2.354,49.326-6.567,73.198-13.739C703.12,853.063,768.835,808.896,819.52,743
			c50.854-66.114,76.561-141.221,78.91-224.399C899.378,485.045,895.705,451.913,887.55,419.31z M765.558,623.063
			c-0.012,8.705-5.635,14.413-14.251,14.428c-25.497,0.042-50.994,0.047-76.492,0.001c-8.711-0.017-14.299-5.687-14.305-14.371
			c-0.02-26.664,0.04-53.329-0.058-79.993c-0.019-4.811,1.495-8.712,4.969-11.985c5.083-4.791,9.373-11.103,15.341-14.083
			c5.854-2.923,13.383-2.49,20.708-3.611c0.873-15.264-2.985-29.855-12.864-42.185c-15.576-19.438-27.931-40.461-33.392-64.884
			c-2.265-10.126-3.214-20.657-3.682-31.054c-1.019-22.625-7.114-43.303-22.529-60.27c-20.348-22.395-45.795-32.098-76.062-28.809
			c-34.149,3.713-64.506,28.767-73.051,67.209c-1.035,4.662-1.246,9.507-1.938,15.046c22.144,0,43.275-0.036,64.407,0.043
			c2.798,0.011,5.652,0.344,8.377,0.978c6.767,1.577,12.095,5.326,15.721,11.332c12.7,21.038,25.358,42.102,38.104,63.111
			c4.699,7.747,6.863,16.218,6.875,25.123c0.091,76.494,0.078,152.987,0.041,229.481c-0.009,15.317-10.593,25.753-26.263,25.896
			c-14.997,0.138-29.997,0.031-44.996,0.031c-63.493,0-126.988,0.005-190.483-0.002c-15.344-0.002-25.056-8.728-25.313-23.96
			c-0.446-26.49-0.302-52.991-0.314-79.487c-0.024-49.496,0.119-98.992-0.049-148.487c-0.04-11.822,2.692-22.396,9.114-32.483
			c11.859-18.623,23.073-37.66,34.424-56.604c6.105-10.189,14.831-15.141,26.776-15.025c19.986,0.193,39.977,0.053,59.903,0.053
			c1.413-8.22,2.077-16.377,4.265-24.102c12.41-43.815,41.024-70.884,85.674-79.852c58.403-11.731,116.658,27.634,128.001,89.406
			c1.582,8.616,1.556,17.548,2.007,26.347c1.328,25.91,10.644,48.816,26.618,68.929c14.72,18.53,24.236,38.75,23.704,62.901
			c-0.014,0.626,0.161,1.256,0.291,2.186c1.285,0.066,2.409,0.168,3.533,0.178c3,0.023,6.001-0.055,8.999,0.021
			c10.286,0.263,28.18,18.342,28.192,28.556C765.597,569.734,765.592,596.399,765.558,623.063z"/>
		<path fill="#8BFF5F" d="M515.754,555.635c12.992,12.995,25.628,25.342,37.865,38.066c3.063,3.188,6.521,7.463,6.822,11.463
			c0.357,4.745-1.191,10.841-4.213,14.401c-7.834,9.23-16.863,17.455-25.54,25.959c-7.014,6.876-16.266,7.036-23.275,0.156
			c-13.494-13.239-26.773-26.699-40.791-40.715c-8.429,8.429-16.441,16.449-24.464,24.461c-5.328,5.322-10.55,10.762-16.036,15.916
			c-7.822,7.349-16.841,7.28-24.499-0.17c-8.185-7.963-16.261-16.04-24.242-24.205c-7.449-7.621-7.463-16.826,0.002-24.422
			c12.938-13.164,26.014-26.199,39.022-39.296c0.156-0.156,0.205-0.417,0.794-1.678c-4.945-4.943-10.201-10.19-15.446-15.445
			c-7.896-7.911-15.879-15.734-23.655-23.76c-7.61-7.853-7.466-17.937,0.242-25.767c7.499-7.616,15.074-15.16,22.671-22.682
			c8.503-8.418,18.291-8.516,26.827-0.083c12.927,12.77,25.72,25.677,39.156,39.113c13.726-13.728,27.117-27.015,40.377-40.431
			c4.871-4.928,12.033-8.728,16.849-4.659c13.108,11.07,25.365,23.354,36.583,36.347c3.837,4.444,0.78,11.641-3.99,16.388
			C543.384,527.961,530.008,541.381,515.754,555.635z"/>
	</g>
</g>
<g id="Layer_2">
	<g>
		<path fill-rule="evenodd" clip-rule="evenodd" d="M130.475,509.695c-1.328-200.77,156.058-377.888,376.699-380.705
			c227.679-2.909,383.851,171.969,390.317,369.679c7.079,216.4-171.8,396.645-383.206,395.136
			C301.334,892.286,128.785,720.823,130.475,509.695z M514.397,300.941c-9.695,0-19.419-0.463-29.079,0.13
			c-9.622,0.592-19.246,1.854-28.75,3.504c-27.739,4.817-38.311,17.679-38.979,45.905c-0.314,13.278,1.481,26.248,5.009,38.901
			c4.101,14.707,1.719,27.069-8.678,38.794c-13.064,14.734-25.457,30.144-37.178,45.972c-29.905,40.376-43.563,85.208-33.773,135.44
			c7.693,39.473,28.786,70.203,63.235,91.27c26.416,16.154,55.55,23.717,86.205,26.165c33.054,2.64,65.724,0.849,97.085-10.638
			c57.966-21.23,92.452-61.853,98.438-124.136c3.073-31.983-3.833-62.412-18.976-90.958c-14.323-27.003-34.066-49.936-53.927-72.765
			c-9.176-10.549-12.967-21.666-9.596-35.718c4.018-16.742,7.369-33.594,4.989-51.214c-2.7-19.994-10.22-29.731-29.665-35.049
			C559.007,300.597,536.732,300.097,514.397,300.941z"/>
		<path fill-rule="evenodd" clip-rule="evenodd" d="M513.71,344.604c-19.439-0.613-38.713-1.847-57.549-6.889
			c-3.126-0.837-6.247-2.036-9.062-3.615c-4.872-2.732-4.843-6.668,0.431-8.584c6.581-2.391,13.479-4.312,20.401-5.286
			c24.766-3.484,49.696-4.188,74.602-2.057c10.954,0.937,21.79,3.287,32.665,5.081c1.504,0.248,3.118,0.716,4.342,1.569
			c2.021,1.411,3.769,3.217,5.631,4.858c-1.734,1.745-3.184,4.457-5.253,5.065c-9.205,2.708-18.473,5.641-27.933,6.933
			C539.33,343.408,526.479,343.697,513.71,344.604z"/>
	</g>
</g>
</svg>
