<?xml version="1.0" encoding="utf-8"?>
<!-- Generator: Adobe Illustrator 16.0.0, SVG Export Plug-In . SVG Version: 6.00 Build 0)  -->
<!DOCTYPE svg PUBLIC "-//W3C//DTD SVG 1.1//EN" "http://www.w3.org/Graphics/SVG/1.1/DTD/svg11.dtd">
<svg version="1.1" id="Layer_1" xmlns="http://www.w3.org/2000/svg" xmlns:xlink="http://www.w3.org/1999/xlink" x="0px" y="0px"
	 width="1024px" height="1024px" viewBox="0 0 1024 1024" enable-background="new 0 0 1024 1024" xml:space="preserve">
<path fill-rule="evenodd" clip-rule="evenodd" d="M514.154,901.109c-75.888-0.444-146.571-19.44-210.576-60.705
	c-84.418-54.425-138.562-131.157-164.99-227.691c-9.808-35.821-13.611-72.498-12.31-109.563
	c2.864-81.578,26.549-156.332,75.746-222.01c48.209-64.361,111.077-108.73,187.406-134.002c26.051-8.625,52.812-14.18,80.064-16.945
	c23.444-2.38,46.97-2.774,70.561-1.307c47.255,2.941,92.463,13.878,135.722,33.082c48.74,21.637,90.946,52.401,126.765,91.735
	c43.49,47.759,71.837,103.598,86.942,166.321c8.847,36.728,12.876,73.997,11.103,111.652
	c-3.636,77.261-27.769,147.785-73.285,210.393c-56.999,78.397-133.311,128.177-227.726,149.936
	C571.535,898.468,542.978,901.244,514.154,901.109z M662.323,564.786c6.469,0,12.443-0.056,18.417,0.01
	c25.779,0.281,47.363-9.274,64.543-28.294c11.773-13.035,19.675-28.299,20.662-46.083c0.869-15.607,0.607-31.29,0.491-46.937
	c-0.056-7.708-0.159-15.549-1.555-23.087c-3.51-18.95-11.875-35.392-27.166-47.798c-15.682-12.724-33.243-20.183-53.769-19.71
	c-7.058,0.163-14.121,0.026-21.462,0.026c0-8.326-0.005-15.905,0-23.483c0.009-14.03-7.884-21.907-21.985-21.897
	c-104.709,0.071-181.417,0.157-286.126,0.211c-16.1,0.008-23.515,7.322-23.486,23.322c0.193,102.653,0.331,205.304,0.656,307.956
	c0.026,8.152,0.652,16.431,2.167,24.43c6.998,36.94,43.19,66.508,80.881,66.512c61.687,0.005,95.373,0.023,157.06-0.038
	c5.353-0.006,10.745-0.24,16.048-0.918c22.797-2.917,41.351-13.714,55.786-31.373c13.412-16.408,18.677-35.782,18.802-56.657
	C662.438,615.835,662.323,590.689,662.323,564.786z"/>
<path fill-rule="evenodd" clip-rule="evenodd" d="M662.564,385.752c16.069-0.073,31.889-1.487,46.276,7.093
	c14.962,8.923,23.096,22.317,23.82,39.429c0.756,17.819,0.495,35.707-0.001,53.546c-0.604,21.744-20.082,42.572-41.566,44.743
	c-9.381,0.948-18.854,0.966-28.529,1.417C662.564,482.912,662.564,434.516,662.564,385.752z"/>
</svg>
