<?xml version="1.0" encoding="utf-8"?>
<!-- Generator: Adobe Illustrator 16.0.0, SVG Export Plug-In . SVG Version: 6.00 Build 0)  -->
<!DOCTYPE svg PUBLIC "-//W3C//DTD SVG 1.1//EN" "http://www.w3.org/Graphics/SVG/1.1/DTD/svg11.dtd">
<svg version="1.1" xmlns="http://www.w3.org/2000/svg" xmlns:xlink="http://www.w3.org/1999/xlink" x="0px" y="0px" width="1024px"
	 height="1024px" viewBox="0 0 1024 1024" enable-background="new 0 0 1024 1024" xml:space="preserve">
<g id="Layer_2">
	<g>
		<path fill-rule="evenodd" clip-rule="evenodd" d="M128.821,509.706c0.197-88.284,27.54-167.566,83.672-236.501
			c55.653-68.349,127.881-111.333,214.627-130.938c36.5-8.249,73.521-10.786,110.73-8.393
			c80.543,5.177,153.287,31.369,216.665,80.973c69.148,54.118,113.837,123.717,134.088,208.284
			c8.405,35.103,11.275,70.716,9.471,106.819c-3.12,62.354-19.99,120.766-52.235,174.416
			c-56.498,93.997-139.877,152.343-247.726,177.357c-35.342,8.196-71.26,10.483-107.335,8.392
			c-77.369-4.483-147.447-29.606-209.418-75.294c-77.351-57.028-124.176-133.312-144.509-225.788
			C131.104,562.897,128.674,536.443,128.821,509.706z M413.241,367.653c0,3.063-0.004,5.64,0,8.216
			c0.029,16.798,0.046,16.819-13.259,27.353c-21.801,17.26-32.468,40.038-32.571,67.578c-0.22,59.113-0.085,118.228-0.019,177.342
			c0.006,4.666,0.197,9.404,1,13.986c7.04,40.178,38.334,66.296,79.26,66.305c42.963,0.01,85.926,0.017,128.889-0.036
			c4.51-0.006,9.032-0.257,13.524-0.666c38.886-3.539,69.666-36.965,69.724-75.92c0.087-60.729,0.144-121.46-0.059-182.189
			c-0.06-17.77-5.206-34.168-15.413-48.936c-7.378-10.677-17.432-18.495-27.188-26.689c-1.215-1.02-2.651-2.643-2.701-4.032
			c-0.267-7.408-0.126-14.83-0.126-22.272c8.616-2.886,11.729-9.112,11.626-17.557c-0.117-9.528,0.061-19.06-0.069-28.588
			c-0.166-12.077-9.098-21.4-20.954-21.418c-60.729-0.099-121.459-0.1-182.188-0.006c-11.866,0.018-20.644,9.059-20.757,20.882
			c-0.095,10.014,0.064,20.029-0.054,30.042C401.809,359.165,404.646,365.185,413.241,367.653z"/>
		<path fill-rule="evenodd" clip-rule="evenodd" d="M637.562,559.418c0.002,30.366,0.05,60.73-0.014,91.096
			c-0.048,22.64-13.34,43.305-33.858,51.23c-6.896,2.663-14.637,4.314-22.01,4.379c-44.736,0.394-89.478,0.209-134.218,0.191
			c-29.512-0.013-50.911-17.435-56.631-46.404c-0.992-5.02-1.061-10.277-1.067-15.427c-0.068-57.338,0.167-114.677-0.132-172.014
			c-0.133-25.554,10.905-44.482,31.864-58.168c1.759-1.149,4.157-1.858,6.259-1.861c57.015-0.083,114.03-0.079,171.046,0.066
			c2.543,0.007,5.409,0.949,7.572,2.323c20.802,13.205,31.355,32.056,31.224,56.886
			C637.442,500.949,637.561,530.184,637.562,559.418z"/>
		<path fill-rule="evenodd" clip-rule="evenodd" d="M436.104,390.231c0-7.671,0-14.906,0-22.516c51.461,0,102.847,0,154.628,0
			c0,7.309,0,14.767,0,22.516C539.348,390.231,487.955,390.231,436.104,390.231z"/>
	</g>
</g>
<g id="Layer_1" display="none">
	<g id="Layer_1_1_" display="inline">
		<g>
			<path fill="#8BFF5F" d="M887.55,419.31C866.351,334.565,821.526,265,752.49,211.539c-70.21-54.37-150.435-80.086-244.938-80.859
				c-23.438-0.068-61.271,4.335-87.841,11.076c-86.53,21.95-158.069,67.259-212.848,137.984
				c-46.966,60.641-72.083,129.81-77.156,206.161c-1.656,24.921-0.63,49.891,2.613,74.761c4.335,33.237,12.892,65.298,25.619,96.246
				c26.31,63.976,67.521,116.525,122.663,158.063c60.134,45.297,128.109,70.255,203.015,76.403
				c22.271,1.828,44.559,1.408,66.858-0.704c24.854-2.354,49.326-6.567,73.198-13.739C703.12,853.063,768.835,808.896,819.52,743
				c50.854-66.114,76.562-141.221,78.91-224.399C899.378,485.045,895.705,451.913,887.55,419.31z M765.558,623.063
				c-0.012,8.704-5.635,14.412-14.251,14.428c-25.497,0.042-50.994,0.047-76.491,0.001c-8.712-0.018-14.3-5.688-14.306-14.371
				c-0.02-26.664,0.04-53.329-0.058-79.993c-0.02-4.811,1.495-8.712,4.969-11.985c5.083-4.791,9.373-11.103,15.341-14.083
				c5.854-2.923,13.383-2.489,20.708-3.61c0.873-15.265-2.984-29.855-12.863-42.186c-15.576-19.438-27.932-40.461-33.393-64.884
				c-2.265-10.126-3.214-20.657-3.682-31.054c-1.02-22.625-7.114-43.303-22.529-60.27c-20.348-22.395-45.795-32.098-76.062-28.809
				c-34.149,3.713-64.507,28.767-73.052,67.209c-1.034,4.662-1.246,9.507-1.938,15.046c22.144,0,43.274-0.036,64.407,0.043
				c2.798,0.011,5.651,0.344,8.377,0.978c6.767,1.577,12.095,5.326,15.721,11.332c12.7,21.038,25.358,42.102,38.104,63.111
				c4.699,7.747,6.863,16.218,6.875,25.123c0.092,76.494,0.078,152.987,0.041,229.481c-0.009,15.316-10.593,25.753-26.263,25.896
				c-14.997,0.138-29.997,0.031-44.996,0.031c-63.493,0-126.987,0.005-190.482-0.002c-15.345-0.002-25.057-8.729-25.313-23.96
				c-0.445-26.49-0.302-52.991-0.313-79.487c-0.024-49.496,0.119-98.992-0.05-148.487c-0.039-11.821,2.692-22.396,9.114-32.482
				c11.859-18.623,23.073-37.66,34.424-56.604c6.105-10.189,14.831-15.141,26.776-15.025c19.986,0.193,39.977,0.053,59.903,0.053
				c1.413-8.22,2.077-16.377,4.265-24.102c12.41-43.815,41.024-70.884,85.674-79.852c58.403-11.731,116.658,27.634,128.001,89.406
				c1.582,8.616,1.557,17.548,2.008,26.347c1.327,25.91,10.644,48.816,26.617,68.929c14.721,18.53,24.236,38.75,23.704,62.901
				c-0.014,0.626,0.161,1.256,0.291,2.187c1.285,0.065,2.409,0.168,3.533,0.178c3,0.022,6.001-0.055,8.999,0.021
				c10.286,0.264,28.18,18.343,28.192,28.557C765.597,569.734,765.592,596.399,765.558,623.063z"/>
			<path fill="#8BFF5F" d="M515.754,555.635c12.992,12.995,25.628,25.342,37.865,38.066c3.063,3.188,6.521,7.463,6.822,11.463
				c0.356,4.745-1.191,10.841-4.213,14.401c-7.834,9.229-16.863,17.455-25.54,25.959c-7.015,6.876-16.267,7.035-23.275,0.155
				c-13.494-13.238-26.773-26.698-40.791-40.715c-8.429,8.429-16.441,16.449-24.464,24.461c-5.328,5.322-10.55,10.763-16.036,15.916
				c-7.822,7.35-16.841,7.28-24.499-0.17c-8.185-7.963-16.261-16.04-24.242-24.205c-7.449-7.621-7.463-16.826,0.002-24.422
				c12.938-13.164,26.015-26.199,39.022-39.296c0.156-0.156,0.205-0.417,0.794-1.678c-4.945-4.943-10.201-10.19-15.446-15.445
				c-7.896-7.911-15.879-15.734-23.655-23.76c-7.609-7.854-7.466-17.938,0.242-25.768c7.499-7.615,15.074-15.16,22.671-22.682
				c8.503-8.418,18.291-8.516,26.827-0.083c12.927,12.77,25.72,25.677,39.156,39.113c13.726-13.729,27.117-27.016,40.377-40.432
				c4.871-4.928,12.033-8.728,16.849-4.658c13.108,11.069,25.365,23.354,36.583,36.347c3.837,4.444,0.78,11.641-3.989,16.388
				C543.384,527.961,530.008,541.381,515.754,555.635z"/>
		</g>
	</g>
</g>
</svg>
