<?xml version="1.0" encoding="utf-8"?>
<!-- Generator: Adobe Illustrator 16.0.0, SVG Export Plug-In . SVG Version: 6.00 Build 0)  -->
<!DOCTYPE svg PUBLIC "-//W3C//DTD SVG 1.1//EN" "http://www.w3.org/Graphics/SVG/1.1/DTD/svg11.dtd">
<svg version="1.1" xmlns="http://www.w3.org/2000/svg" xmlns:xlink="http://www.w3.org/1999/xlink" x="0px" y="0px" width="1024px"
	 height="1024px" viewBox="0 0 1024 1024" enable-background="new 0 0 1024 1024" xml:space="preserve">
<g id="Layer_2">
	<path fill-rule="evenodd" clip-rule="evenodd" d="M513.517,131.833c84.192,0.88,161.282,24.22,229.518,74.164
		c69.188,50.641,115.103,117.771,138.783,200.102c11.609,40.366,15.925,81.684,13.581,123.508
		c-4.213,75.145-28.526,143.472-73.351,203.922c-55.522,74.88-129.039,123.492-219.516,146
		C568.931,887.887,534.6,891.03,500,889.489c-86.968-3.877-164.202-33.752-231.131-89.194
		c-68.291-56.569-110.631-129.227-129.271-215.667c-7.128-33.056-8.583-66.629-6.376-100.418
		c3.785-57.993,19.299-112.55,48.396-162.833c52.154-90.13,129.131-148.447,229.316-176.217
		C444.445,135.871,478.708,131.734,513.517,131.833z M513.323,785.759c23.853,0,47.705,0.024,71.559-0.012
		c10.159-0.015,17.255-5.849,18.729-15.659c3.036-20.229,6.096-40.457,8.782-60.732c3.935-29.707,7.586-59.45,11.289-89.188
		c3.363-27.02,7.035-54.011,9.825-81.09c2.611-25.326-3.339-49.053-16.469-70.8c-14.293-23.673-34.581-40.451-60.376-50.396
		c-5.193-2.001-7.549-4.883-7.051-10.636c0.505-5.829-0.094-11.749,0.295-17.594c0.107-1.624,1.685-3.971,3.145-4.529
		c4.581-1.75,6.678-4.684,6.665-9.518c-0.026-9.723,0.43-19.46,0.03-29.165c-0.242-5.888,1.813-9.415,6.858-12.416
		c19.798-11.776,39.399-23.88,59.006-35.971c4.345-2.679,8.839-5.349,12.532-8.803c9.089-8.499,10.072-21.221,2.064-30.03
		c-7.899-8.69-17.202-12.027-29.01-3.367c-18.138,13.302-36.776,25.925-55.274,38.734c-7.147,4.95-8.385,4.253-10.991-4.369
		c-3.63-12.011-7.064-24.118-11.551-35.813c-1.472-3.837-5.383-7.716-9.159-9.518c-14.22-6.79-25.553-2.306-32.239,11.857
		c-0.622,1.318-1.266,2.646-1.695,4.032c-4.791,15.464-9.31,31.017-14.449,46.363c-1.438,4.291-3.908,8.826-7.21,11.801
		c-17.567,15.828-35.589,31.15-53.367,46.746c-6.587,5.779-7.178,14.183-1.797,21.049c5.141,6.562,13.33,7.976,20.52,3.381
		c8.472-5.415,16.955-10.82,25.244-16.506c3.817-2.619,5.459-1.772,7.301,2.275c1.224,2.688,4.129,4.571,6.058,6.994
		c1.334,1.678,3.112,3.599,3.252,5.517c0.427,5.84,0.151,11.732,0.155,17.604c0.005,9.45-0.003,9.426-8.867,13.03
		c-55.565,22.593-81.506,77.816-73.225,132.249c2.831,18.608,4.81,37.345,7.228,56.016c2.369,18.305,4.79,36.602,7.21,54.899
		c2.35,17.75,4.591,35.517,7.133,53.239c2.644,18.429,5.316,36.862,8.511,55.2c1.821,10.454,8.232,15.111,18.881,15.117
		C466.352,785.766,489.837,785.756,513.323,785.759z"/>
</g>
<g id="Layer_1" display="none">
	<g id="Layer_1_1_" display="inline">
		<g>
			<path fill="#8BFF5F" d="M887.55,419.31C866.351,334.565,821.526,265,752.49,211.539c-70.21-54.37-150.435-80.086-244.938-80.859
				c-23.438-0.068-61.271,4.335-87.841,11.076c-86.53,21.95-158.069,67.259-212.848,137.984
				c-46.966,60.641-72.083,129.81-77.156,206.161c-1.656,24.921-0.63,49.891,2.613,74.761c4.335,33.237,12.892,65.298,25.619,96.246
				c26.31,63.976,67.521,116.525,122.663,158.063c60.134,45.297,128.109,70.255,203.015,76.403
				c22.271,1.828,44.559,1.408,66.858-0.704c24.854-2.354,49.326-6.567,73.198-13.739C703.12,853.063,768.835,808.896,819.52,743
				c50.854-66.114,76.562-141.221,78.91-224.399C899.378,485.045,895.705,451.913,887.55,419.31z M765.558,623.063
				c-0.012,8.704-5.635,14.412-14.251,14.428c-25.497,0.042-50.994,0.047-76.491,0.001c-8.712-0.018-14.3-5.688-14.306-14.371
				c-0.02-26.664,0.04-53.329-0.058-79.993c-0.02-4.811,1.495-8.712,4.969-11.985c5.083-4.791,9.373-11.103,15.341-14.083
				c5.854-2.923,13.383-2.489,20.708-3.61c0.873-15.265-2.984-29.855-12.863-42.186c-15.576-19.438-27.932-40.461-33.393-64.884
				c-2.265-10.126-3.214-20.657-3.682-31.054c-1.02-22.625-7.114-43.303-22.529-60.27c-20.348-22.395-45.795-32.098-76.062-28.809
				c-34.149,3.713-64.507,28.767-73.052,67.209c-1.034,4.662-1.246,9.507-1.938,15.046c22.144,0,43.274-0.036,64.407,0.043
				c2.798,0.011,5.651,0.344,8.377,0.978c6.767,1.577,12.095,5.326,15.721,11.332c12.7,21.038,25.358,42.102,38.104,63.111
				c4.699,7.747,6.863,16.218,6.875,25.123c0.092,76.494,0.078,152.987,0.041,229.481c-0.009,15.316-10.593,25.753-26.263,25.896
				c-14.997,0.138-29.997,0.031-44.996,0.031c-63.493,0-126.987,0.005-190.482-0.002c-15.345-0.002-25.057-8.729-25.313-23.96
				c-0.445-26.49-0.302-52.991-0.313-79.487c-0.024-49.496,0.119-98.992-0.05-148.487c-0.039-11.821,2.692-22.396,9.114-32.482
				c11.859-18.623,23.073-37.66,34.424-56.604c6.105-10.189,14.831-15.141,26.776-15.025c19.986,0.193,39.977,0.053,59.903,0.053
				c1.413-8.22,2.077-16.377,4.265-24.102c12.41-43.815,41.024-70.884,85.674-79.852c58.403-11.731,116.658,27.634,128.001,89.406
				c1.582,8.616,1.557,17.548,2.008,26.347c1.327,25.91,10.644,48.816,26.617,68.929c14.721,18.53,24.236,38.75,23.704,62.901
				c-0.014,0.626,0.161,1.256,0.291,2.187c1.285,0.065,2.409,0.168,3.533,0.178c3,0.022,6.001-0.055,8.999,0.021
				c10.286,0.264,28.18,18.343,28.192,28.557C765.597,569.734,765.592,596.399,765.558,623.063z"/>
			<path fill="#8BFF5F" d="M515.754,555.635c12.992,12.995,25.628,25.342,37.865,38.066c3.063,3.188,6.521,7.463,6.822,11.463
				c0.356,4.745-1.191,10.841-4.213,14.401c-7.834,9.229-16.863,17.455-25.54,25.959c-7.015,6.876-16.267,7.035-23.275,0.155
				c-13.494-13.238-26.773-26.698-40.791-40.715c-8.429,8.429-16.441,16.449-24.464,24.461c-5.328,5.322-10.55,10.763-16.036,15.916
				c-7.822,7.35-16.841,7.28-24.499-0.17c-8.185-7.963-16.261-16.04-24.242-24.205c-7.449-7.621-7.463-16.826,0.002-24.422
				c12.938-13.164,26.015-26.199,39.022-39.296c0.156-0.156,0.205-0.417,0.794-1.678c-4.945-4.943-10.201-10.19-15.446-15.445
				c-7.896-7.911-15.879-15.734-23.655-23.76c-7.609-7.854-7.466-17.938,0.242-25.768c7.499-7.615,15.074-15.16,22.671-22.682
				c8.503-8.418,18.291-8.516,26.827-0.083c12.927,12.77,25.72,25.677,39.156,39.113c13.726-13.729,27.117-27.016,40.377-40.432
				c4.871-4.928,12.033-8.728,16.849-4.658c13.108,11.069,25.365,23.354,36.583,36.347c3.837,4.444,0.78,11.641-3.989,16.388
				C543.384,527.961,530.008,541.381,515.754,555.635z"/>
		</g>
	</g>
</g>
</svg>
