<?xml version="1.0" encoding="utf-8"?>
<!-- Generator: Adobe Illustrator 16.0.0, SVG Export Plug-In . SVG Version: 6.00 Build 0)  -->
<!DOCTYPE svg PUBLIC "-//W3C//DTD SVG 1.1//EN" "http://www.w3.org/Graphics/SVG/1.1/DTD/svg11.dtd">
<svg version="1.1" xmlns="http://www.w3.org/2000/svg" xmlns:xlink="http://www.w3.org/1999/xlink" x="0px" y="0px" width="1024px"
	 height="1024px" viewBox="0 0 1024 1024" enable-background="new 0 0 1024 1024" xml:space="preserve">
<g id="Layer_2">
	<g>
		<path fill-rule="evenodd" clip-rule="evenodd" d="M504.939,131.465c95.832-0.153,175.002,25.87,244.738,78.935
			c63.179,48.075,106.098,110.86,130.294,186.403c8.028,25.065,13.027,50.775,15.539,77.018c2.6,27.17,2.162,54.206-0.951,81.313
			c-7.678,66.856-31.35,127.498-70.937,181.751c-54.387,74.535-126.665,122.93-215.967,146.084
			c-35.604,9.23-71.805,12.904-108.425,11.2c-79.174-3.687-150.911-28.91-214.475-76.441
			c-72.094-53.909-118.965-124.957-142.143-211.733c-6.18-23.137-9.524-46.769-11.106-70.713c-1.62-24.525-1.069-48.963,2.27-73.233
			c9.533-69.303,34.903-132.179,78.512-187.153c55.993-70.586,128.552-114.924,216.287-134.663
			C456.374,133.978,484.555,131.14,504.939,131.465z M565.835,623.11c-0.639-1.869-1.187-3.506-1.753-5.134
			c-6.111-17.543-14.678-33.692-27.481-47.311c-1.491-1.586-4.256-2.784-6.436-2.793c-39.127-0.163-78.257-0.024-117.385-0.232
			c-4.699-0.025-7.531,1.518-10.224,5.172c-23.144,31.401-34.998,66.49-34.037,105.535c0.747,30.363,13.154,51.537,43.317,63.348
			c21.785,8.53,44.455,10.995,67.619,10.411c17.225-0.435,33.994-3.347,50.034-9.733c21.048-8.382,36.276-22.314,41.771-45.117
			c3.589-14.893,3.058-29.943,0.831-44.923c-0.674-4.533-0.156-6.558,4.785-7.879c22.859-6.109,39.652-19.842,49.772-41.396
			c5.859-12.479,7.465-25.745,7.156-39.372c-0.179-7.938,1.524-15.505,5.946-22.164c7.086-10.671,17.634-14.964,30.02-15.424
			c11.737-0.435,23.613,0.254,35.193-1.301c35.51-4.77,55.363-39.261,42.387-72.548c-7.748-19.874-28.386-33.731-51.215-33.916
			c-25.448-0.205-50.901-0.272-76.347,0.077c-6.977,0.096-12.779-0.302-15.441-7.919c-0.343-0.981-1.357-1.74-2.1-2.569
			c-8.738-9.757-20.067-13.656-32.738-13.702c-41.515-0.148-83.03-0.056-124.545-0.054c-11.552,0.001-16.091,3.209-20.176,14.601
			c-14.764,0-29.713,0.358-44.632-0.155c-7.227-0.248-12.011,2.67-16.329,7.845c-1.182,1.417-3.502,2.494-5.373,2.617
			c-5.545,0.363-11.133,0.01-16.691,0.238c-7.543,0.31-12.063,4.73-12.025,11.391c0.036,6.712,4.961,11.38,12.422,11.573
			c5.405,0.139,10.832-0.166,16.214,0.21c1.857,0.13,4.088,1.303,5.327,2.719c4.186,4.788,8.741,7.626,15.579,7.422
			c15.072-0.447,30.167-0.139,45.145-0.139c5.051,12.057,8.321,14.213,21.286,14.212c36.106-0.001,72.214,0.062,108.32-0.047
			c9.521-0.029,19.1-0.023,28.544-1.042c12.773-1.376,22.925-7.18,27.337-20.189c0.906-2.673,2.269-3.529,5.101-3.521
			c26.403,0.086,52.813-0.282,79.207,0.204c5.9,0.108,12.254,2.088,17.519,4.872c11.784,6.229,17.597,20.454,14.548,32.814
			c-3.199,12.965-14.549,21.837-28.521,22.255c-10.811,0.323-21.622,0.564-32.432,0.913c-20.923,0.676-43.104,16.706-50.642,36.273
			c-4.389,11.394-4.068,23.358-4.659,35.188C608.814,598.766,590.809,618.994,565.835,623.11z M470.81,549.747
			c20.813,0,41.625,0.044,62.436-0.022c8.63-0.027,14.183-5.391,13.674-12.917c-0.451-6.669-5.685-10.684-14.326-10.692
			c-40.988-0.041-81.976-0.033-122.964,0.007c-2.042,0.002-4.141,0.239-6.111,0.757c-6.602,1.733-9.975,8.578-7.508,14.948
			c2.035,5.255,6.369,7.891,13.319,7.901C429.822,549.762,450.316,549.741,470.81,549.747z M296.728,365.472
			c-0.188,11.837,3.864,22.411,9.651,32.374c3.356,5.779,10.163,7.558,15.691,4.654c5.777-3.034,7.582-8.889,4.774-15.381
			c-1.506-3.482-3.151-6.919-4.403-10.493c-4.333-12.372-1.962-23.428,7.192-32.803c3.315-3.396,7.105-6.344,10.777-9.377
			c12.818-10.585,22.607-23.198,25.578-39.953c0.864-4.873,0.916-10.19-0.092-15.005c-0.956-4.575-7.002-7.166-12.014-6.522
			c-5.521,0.708-9.37,4.912-9.981,12.121c-0.929,10.945-6.054,19.5-13.964,26.662c-2.944,2.665-6.07,5.129-9.083,7.719
			C306.727,331.617,297.081,346.114,296.728,365.472z"/>
	</g>
</g>
<g id="Layer_1" display="none">
	<g id="Layer_1_1_" display="inline">
		<g>
			<path fill="#8BFF5F" d="M887.55,419.31C866.351,334.565,821.526,265,752.49,211.539c-70.21-54.37-150.435-80.086-244.938-80.859
				c-23.438-0.068-61.271,4.335-87.841,11.076c-86.53,21.95-158.069,67.259-212.848,137.984
				c-46.966,60.641-72.083,129.81-77.156,206.161c-1.656,24.921-0.63,49.891,2.613,74.761c4.335,33.237,12.892,65.298,25.619,96.246
				c26.31,63.976,67.521,116.525,122.663,158.063c60.134,45.297,128.109,70.255,203.015,76.403
				c22.271,1.828,44.559,1.408,66.858-0.704c24.854-2.354,49.326-6.567,73.198-13.739C703.12,853.063,768.835,808.896,819.52,743
				c50.854-66.114,76.562-141.221,78.91-224.399C899.378,485.045,895.705,451.913,887.55,419.31z M765.558,623.063
				c-0.012,8.704-5.635,14.412-14.251,14.428c-25.497,0.042-50.994,0.047-76.491,0.001c-8.712-0.018-14.3-5.688-14.306-14.371
				c-0.02-26.664,0.04-53.329-0.058-79.993c-0.02-4.811,1.495-8.712,4.969-11.985c5.083-4.791,9.373-11.103,15.341-14.083
				c5.854-2.923,13.383-2.489,20.708-3.61c0.873-15.265-2.984-29.855-12.863-42.186c-15.576-19.438-27.932-40.461-33.393-64.884
				c-2.265-10.126-3.214-20.657-3.682-31.054c-1.02-22.625-7.114-43.303-22.529-60.27c-20.348-22.395-45.795-32.098-76.062-28.809
				c-34.149,3.713-64.507,28.767-73.052,67.209c-1.034,4.662-1.246,9.507-1.938,15.046c22.144,0,43.274-0.036,64.407,0.043
				c2.798,0.011,5.651,0.344,8.377,0.978c6.767,1.577,12.095,5.326,15.721,11.332c12.7,21.038,25.358,42.102,38.104,63.111
				c4.699,7.747,6.863,16.218,6.875,25.123c0.092,76.494,0.078,152.987,0.041,229.481c-0.009,15.316-10.593,25.753-26.263,25.896
				c-14.997,0.138-29.997,0.031-44.996,0.031c-63.493,0-126.987,0.005-190.482-0.002c-15.345-0.002-25.057-8.729-25.313-23.96
				c-0.445-26.49-0.302-52.991-0.313-79.487c-0.024-49.496,0.119-98.992-0.05-148.487c-0.039-11.821,2.692-22.396,9.114-32.482
				c11.859-18.623,23.073-37.66,34.424-56.604c6.105-10.189,14.831-15.141,26.776-15.025c19.986,0.193,39.977,0.053,59.903,0.053
				c1.413-8.22,2.077-16.377,4.265-24.102c12.41-43.815,41.024-70.884,85.674-79.852c58.403-11.731,116.658,27.634,128.001,89.406
				c1.582,8.616,1.557,17.548,2.008,26.347c1.327,25.91,10.644,48.816,26.617,68.929c14.721,18.53,24.236,38.75,23.704,62.901
				c-0.014,0.626,0.161,1.256,0.291,2.187c1.285,0.065,2.409,0.168,3.533,0.178c3,0.022,6.001-0.055,8.999,0.021
				c10.286,0.264,28.18,18.343,28.192,28.557C765.597,569.734,765.592,596.399,765.558,623.063z"/>
			<path fill="#8BFF5F" d="M515.754,555.635c12.992,12.995,25.628,25.342,37.865,38.066c3.063,3.188,6.521,7.463,6.822,11.463
				c0.356,4.745-1.191,10.841-4.213,14.401c-7.834,9.229-16.863,17.455-25.54,25.959c-7.015,6.876-16.267,7.035-23.275,0.155
				c-13.494-13.238-26.773-26.698-40.791-40.715c-8.429,8.429-16.441,16.449-24.464,24.461c-5.328,5.322-10.55,10.763-16.036,15.916
				c-7.822,7.35-16.841,7.28-24.499-0.17c-8.185-7.963-16.261-16.04-24.242-24.205c-7.449-7.621-7.463-16.826,0.002-24.422
				c12.938-13.164,26.015-26.199,39.022-39.296c0.156-0.156,0.205-0.417,0.794-1.678c-4.945-4.943-10.201-10.19-15.446-15.445
				c-7.896-7.911-15.879-15.734-23.655-23.76c-7.609-7.854-7.466-17.938,0.242-25.768c7.499-7.615,15.074-15.16,22.671-22.682
				c8.503-8.418,18.291-8.516,26.827-0.083c12.927,12.77,25.72,25.677,39.156,39.113c13.726-13.729,27.117-27.016,40.377-40.432
				c4.871-4.928,12.033-8.728,16.849-4.658c13.108,11.069,25.365,23.354,36.583,36.347c3.837,4.444,0.78,11.641-3.989,16.388
				C543.384,527.961,530.008,541.381,515.754,555.635z"/>
		</g>
	</g>
</g>
</svg>
