<?xml version="1.0" encoding="utf-8"?>
<!-- Generator: Adobe Illustrator 16.0.0, SVG Export Plug-In . SVG Version: 6.00 Build 0)  -->
<!DOCTYPE svg PUBLIC "-//W3C//DTD SVG 1.1//EN" "http://www.w3.org/Graphics/SVG/1.1/DTD/svg11.dtd">
<svg version="1.1" xmlns="http://www.w3.org/2000/svg" xmlns:xlink="http://www.w3.org/1999/xlink" x="0px" y="0px" width="1024px"
	 height="1024px" viewBox="0 0 1024 1024" enable-background="new 0 0 1024 1024" xml:space="preserve">
<g id="Layer_2">
	<g>
		<path fill-rule="evenodd" clip-rule="evenodd" d="M514.872,892.916c-93.796-0.97-177.324-30.849-248.836-91.49
			c-63.042-53.456-103.512-121.614-124.104-201.538c-9.557-37.092-12.487-74.953-10.186-113.034
			c4.935-81.628,33.667-154.269,85.391-217.57c52.479-64.225,119.759-105.654,199.714-126.632
			c36.984-9.704,74.824-13.112,112.996-11.426c83.604,3.693,158.955,30.613,224.826,82.368
			c59.326,46.613,100.437,106.346,124.161,177.917c9.708,29.284,16.382,59.311,17.542,90.209c0.786,21.019,1.436,42.204-0.269,63.12
			c-3.689,45.289-15.821,88.552-35.681,129.53c-25.623,52.879-60.964,98.129-106.878,134.934
			c-45.935,36.821-97.58,61.943-155.12,74.759C570.931,890.187,543.054,892.82,514.872,892.916z M515.157,407.504
			c-46.114,0-92.227,0.06-138.341-0.09c-4.692-0.015-7.962,1.095-10.159,5.409c-3.766,7.396-8.656,14.33-11.59,22.017
			c-12.243,32.082-11.888,65.297-5.927,98.336c9.916,54.954,38.183,99.56,80.918,135.322c2.027,1.694,5.104,3.032,7.697,3.041
			c51.772,0.173,103.544,0.178,155.318-0.014c2.816-0.012,6.214-1.354,8.353-3.207c50.031-43.304,79.895-96.986,83.657-163.6
			c1.866-33.031-3.356-64.571-22.972-92.526c-2.479-3.532-5.036-4.78-9.244-4.768C606.965,407.553,561.062,407.505,515.157,407.504z
			 M515.226,745.181c0,0.08,0,0.161,0,0.242c-24.51,0-49.03-0.416-73.526,0.169c-12.984,0.311-23.759,6.264-30.733,17.578
			c-7.578,12.295-9.54,26.401-11.994,40.228c-0.904,5.097,2.435,8.29,7.744,8.456c6.069,0.189,12.152,0.136,18.223-0.057
			c5.64-0.181,9.361-3.176,11.102-8.499c0.709-2.165,1.236-4.389,1.82-6.593c3.537-13.332,14.636-21.612,28.456-21.375
			c32.676,0.56,65.365,0.179,98.051,0.181c14.156,0.002,22.047,5.572,26.732,18.919c0.89,2.537,1.719,5.104,2.403,7.703
			c1.73,6.557,6.033,9.69,12.755,9.727c4.821,0.024,9.642,0.146,14.456,0.042c7.7-0.166,10.886-3.887,9.382-11.143
			c-1.557-7.507-3.172-15.016-5.158-22.417c-5.959-22.199-19.812-32.916-43.086-33.121
			C559.645,745.026,537.434,745.181,515.226,745.181z M389.354,382.397c84.693,0,167.92,0,251.977,0
			c-14.068-13.233-28.424-24.696-45.067-32.692c-6.169-2.962-13.612-4.517-20.497-4.587c-40.656-0.413-81.32-0.234-121.982-0.139
			c-3.714,0.008-7.724,0.078-11.093,1.396C422.596,354.239,405.753,366.957,389.354,382.397z M457.803,271.723
			c0,9.435-0.398,18.204,0.094,26.921c0.726,12.862,10.594,21.937,23.373,21.97c22.423,0.058,44.845,0.025,67.269-0.053
			c12.021-0.041,20.297-5.503,22.53-17.389c1.921-10.207,1.312-20.882,1.825-31.45C533.727,271.723,495.861,271.723,457.803,271.723
			z M513.934,220.994c0,0.015,0,0.03,0,0.043c-23.258,0-46.517-0.002-69.776,0.001c-9.277,0.001-14.878,4.512-15.072,12.116
			c-0.189,7.391,6.896,14.438,15.033,14.452c46.727,0.079,93.456,0.204,140.179-0.198c4.45-0.039,9.553-2.799,13.113-5.767
			c3.675-3.063,3.871-8.211,1.417-12.675c-3.091-5.614-8.011-8.043-14.49-8.014C560.87,221.059,537.401,220.994,513.934,220.994z
			 M513.97,722.835c21.793,0,43.586,0.025,65.377-0.013c8.409-0.013,11.861-3.428,11.973-11.61c0.02-1.457,0.015-2.915,0.004-4.376
			c-0.066-8.438-3.679-12.169-12.27-12.182c-42.956-0.057-85.911-0.086-128.867-0.008c-9.512,0.018-12.408,4.164-12.29,16.622
			c0.081,8.384,3.536,11.572,12.583,11.576C471.643,722.852,492.808,722.848,513.97,722.835z M325.049,515.941
			c-0.888-23.969-1.237-46.954,4.477-69.546c0.398-1.572-0.161-3.756-1.027-5.213c-7.559-12.704-25.08-20.786-39.756-18.537
			c-10.891,1.67-16.171,8.469-14.411,18.558c1.512,8.671,9.563,13.17,19.806,11.075c9.346-1.916,15.365,2.946,15.453,12.542
			c0.056,6.033-0.34,12.096,0.106,18.098C310.616,495.327,313.013,507.239,325.049,515.941z M705.065,515.863
			c7.556-5.185,11.92-11.84,13.107-19.714c1.566-10.406,1.965-21.01,2.475-31.547c0.454-9.397,6.596-14.815,15.754-12.332
			c8.576,2.325,17.055-2.103,19.404-12.576c1.617-7.22-4.556-15.387-13.29-16.795c-16.1-2.595-28.929,3.603-39.269,15.666
			c-2.733,3.188-3.691,6.469-2.484,10.792C706.771,470.86,706.492,492.822,705.065,515.863z"/>
		<path fill-rule="evenodd" clip-rule="evenodd" d="M505.9,542.454c-2.261-3.423-3.583-5.431-4.912-7.433
			c-8.996-13.553-2.236-29.022,13.739-32.361c2.68-0.56,6.125-3.343,6.957-5.841c4.96-14.905,15.286-21.522,30.675-21.72
			c3.849-0.048,7.682-1.315,12.183-2.143c-11.67-16.116-12.238-22.796-3.429-30.025c7.077-5.806,17.802-4.961,23.744,1.87
			c6.801,7.817,5.061,15.651-6.643,27.188c2.268,0.956,4.101,2.125,6.078,2.474c3.077,0.539,6.258,0.477,9.387,0.747
			c7.568,0.654,11.713,4.679,11.619,11.225c-0.089,6.173-4.833,11.176-11.761,11.414c-10.255,0.354-20.575,0.779-30.78,0.021
			c-12.791-0.951-23.34,0.193-25.589,15.803c-0.719,4.984-2.275,9.874-3.712,14.728c-1.358,4.586-3.065,9.07-5.024,14.781
			c2.689,0.247,6.516,0.765,10.356,0.921c12.719,0.52,21.586,10.519,19.663,22.854c-0.595,3.813-2.161,7.6-3.913,11.086
			c-6.953,13.847-12.538,27.927-12.151,43.863c0.126,5.147-3.886,8.461-9.041,8.591c-12.349,0.307-24.723,0.392-37.064-0.034
			c-5.407-0.187-9.13-3.928-8.871-9.448c0.764-16.208-5.246-30.401-12.158-44.489c-5.476-11.161-4.728-20.648,3.189-26.673
			c4.153-3.162,10.109-4.139,15.387-5.627C497.255,543.259,500.924,543.145,505.9,542.454z M515.39,565.782c0-0.046,0-0.091,0-0.135
			c-4.398,0-8.799,0.102-13.192-0.028c-4.576-0.137-5.729,1.125-4.296,5.953c3.102,10.461,5.3,21.185,7.994,31.77
			c0.304,1.195,1.382,3.102,2.156,3.129c4.99,0.178,10.169,0.594,14.879-0.621c1.316-0.341,1.243-5.928,1.848-9.098
			c0.192-1.017,0.47-2.021,0.776-3.011c2.32-7.511,4.405-15.109,7.086-22.492c1.628-4.491,0.231-5.663-4.06-5.502
			C524.19,565.91,519.786,565.782,515.39,565.782z"/>
	</g>
</g>
<g id="Layer_1" display="none">
	<g display="inline">
		<path fill="#8BFF5F" d="M887.55,419.31C866.351,334.565,821.526,265,752.49,211.539c-70.21-54.37-150.434-80.086-244.937-80.859
			c-23.438-0.068-61.271,4.335-87.841,11.076c-86.53,21.95-158.069,67.259-212.848,137.984
			c-46.966,60.641-72.083,129.81-77.156,206.161c-1.656,24.921-0.63,49.891,2.613,74.761c4.335,33.237,12.892,65.298,25.619,96.246
			c26.31,63.976,67.521,116.526,122.663,158.063c60.134,45.297,128.109,70.255,203.015,76.403
			c22.271,1.828,44.559,1.408,66.859-0.704c24.854-2.354,49.326-6.567,73.198-13.739C703.12,853.063,768.835,808.896,819.52,743
			c50.854-66.114,76.561-141.221,78.91-224.399C899.378,485.045,895.705,451.913,887.55,419.31z M765.558,623.063
			c-0.012,8.705-5.635,14.413-14.251,14.428c-25.497,0.042-50.994,0.047-76.492,0.001c-8.711-0.017-14.299-5.687-14.305-14.371
			c-0.02-26.664,0.04-53.329-0.058-79.993c-0.019-4.811,1.495-8.712,4.969-11.985c5.083-4.791,9.373-11.103,15.341-14.083
			c5.854-2.923,13.383-2.49,20.708-3.611c0.873-15.264-2.985-29.855-12.864-42.185c-15.576-19.438-27.931-40.461-33.392-64.884
			c-2.265-10.126-3.214-20.657-3.682-31.054c-1.019-22.625-7.114-43.303-22.529-60.27c-20.348-22.395-45.795-32.098-76.062-28.809
			c-34.149,3.713-64.506,28.767-73.051,67.209c-1.035,4.662-1.246,9.507-1.938,15.046c22.144,0,43.275-0.036,64.407,0.043
			c2.798,0.011,5.652,0.344,8.377,0.978c6.767,1.577,12.095,5.326,15.721,11.332c12.7,21.038,25.358,42.102,38.104,63.111
			c4.699,7.747,6.863,16.218,6.875,25.123c0.091,76.494,0.078,152.987,0.041,229.481c-0.009,15.317-10.593,25.753-26.263,25.896
			c-14.997,0.138-29.997,0.031-44.996,0.031c-63.493,0-126.988,0.005-190.483-0.002c-15.344-0.002-25.056-8.728-25.313-23.96
			c-0.446-26.49-0.302-52.991-0.314-79.487c-0.024-49.496,0.119-98.992-0.049-148.487c-0.04-11.822,2.692-22.396,9.114-32.483
			c11.859-18.623,23.073-37.66,34.424-56.604c6.105-10.189,14.831-15.141,26.776-15.025c19.986,0.193,39.977,0.053,59.903,0.053
			c1.413-8.22,2.077-16.377,4.265-24.102c12.41-43.815,41.024-70.884,85.674-79.852c58.403-11.731,116.658,27.634,128.001,89.406
			c1.582,8.616,1.556,17.548,2.007,26.347c1.328,25.91,10.644,48.816,26.618,68.929c14.72,18.53,24.236,38.75,23.704,62.901
			c-0.014,0.626,0.161,1.256,0.291,2.186c1.285,0.066,2.409,0.168,3.533,0.178c3,0.023,6.001-0.055,8.999,0.021
			c10.286,0.263,28.18,18.342,28.192,28.556C765.597,569.734,765.592,596.399,765.558,623.063z"/>
		<path fill="#8BFF5F" d="M515.754,555.635c12.992,12.995,25.628,25.342,37.865,38.066c3.063,3.188,6.521,7.463,6.822,11.463
			c0.357,4.745-1.191,10.841-4.213,14.401c-7.834,9.23-16.863,17.455-25.54,25.959c-7.014,6.876-16.266,7.036-23.275,0.156
			c-13.494-13.239-26.773-26.699-40.791-40.715c-8.429,8.429-16.441,16.449-24.464,24.461c-5.328,5.322-10.55,10.762-16.036,15.916
			c-7.822,7.349-16.841,7.28-24.499-0.17c-8.185-7.963-16.261-16.04-24.242-24.205c-7.449-7.621-7.463-16.826,0.002-24.422
			c12.938-13.164,26.014-26.199,39.022-39.296c0.156-0.156,0.205-0.417,0.794-1.678c-4.945-4.943-10.201-10.19-15.446-15.445
			c-7.896-7.911-15.879-15.734-23.655-23.76c-7.61-7.853-7.466-17.937,0.242-25.767c7.499-7.616,15.074-15.16,22.671-22.682
			c8.503-8.418,18.291-8.516,26.827-0.083c12.927,12.77,25.72,25.677,39.156,39.113c13.726-13.728,27.117-27.015,40.377-40.431
			c4.871-4.928,12.033-8.728,16.849-4.659c13.108,11.07,25.365,23.354,36.583,36.347c3.837,4.444,0.78,11.641-3.99,16.388
			C543.384,527.961,530.008,541.381,515.754,555.635z"/>
	</g>
</g>
</svg>
