<?xml version="1.0" encoding="utf-8"?>
<!-- Generator: Adobe Illustrator 16.0.0, SVG Export Plug-In . SVG Version: 6.00 Build 0)  -->
<!DOCTYPE svg PUBLIC "-//W3C//DTD SVG 1.1//EN" "http://www.w3.org/Graphics/SVG/1.1/DTD/svg11.dtd">
<svg version="1.1" xmlns="http://www.w3.org/2000/svg" xmlns:xlink="http://www.w3.org/1999/xlink" x="0px" y="0px" width="1024px"
	 height="1024px" viewBox="0 0 1024 1024" enable-background="new 0 0 1024 1024" xml:space="preserve">
<g id="Layer_1" display="none">
	<g id="Layer_1_1_" display="inline">
		<g>
			<path fill="#8BFF5F" d="M887.55,419.31C866.351,334.565,821.526,265,752.49,211.539c-70.21-54.37-150.435-80.086-244.938-80.859
				c-23.438-0.068-61.271,4.335-87.841,11.076c-86.53,21.95-158.069,67.259-212.848,137.984
				c-46.966,60.641-72.083,129.81-77.156,206.161c-1.656,24.921-0.63,49.891,2.613,74.761c4.335,33.237,12.892,65.298,25.619,96.246
				c26.31,63.976,67.521,116.525,122.663,158.063c60.134,45.297,128.109,70.255,203.015,76.403
				c22.271,1.828,44.559,1.408,66.858-0.704c24.854-2.354,49.326-6.567,73.198-13.739C703.12,853.063,768.835,808.896,819.52,743
				c50.854-66.114,76.562-141.221,78.91-224.399C899.378,485.045,895.705,451.913,887.55,419.31z M765.558,623.063
				c-0.012,8.704-5.635,14.412-14.251,14.428c-25.497,0.042-50.994,0.047-76.491,0.001c-8.712-0.018-14.3-5.688-14.306-14.371
				c-0.02-26.664,0.04-53.329-0.058-79.993c-0.02-4.811,1.495-8.712,4.969-11.985c5.083-4.791,9.373-11.103,15.341-14.083
				c5.854-2.923,13.383-2.489,20.708-3.61c0.873-15.265-2.984-29.855-12.863-42.186c-15.576-19.438-27.932-40.461-33.393-64.884
				c-2.265-10.126-3.214-20.657-3.682-31.054c-1.02-22.625-7.114-43.303-22.529-60.27c-20.348-22.395-45.795-32.098-76.062-28.809
				c-34.149,3.713-64.507,28.767-73.052,67.209c-1.034,4.662-1.246,9.507-1.938,15.046c22.144,0,43.274-0.036,64.407,0.043
				c2.798,0.011,5.651,0.344,8.377,0.978c6.767,1.577,12.095,5.326,15.721,11.332c12.7,21.038,25.358,42.102,38.104,63.111
				c4.699,7.747,6.863,16.218,6.875,25.123c0.092,76.494,0.078,152.987,0.041,229.481c-0.009,15.316-10.593,25.753-26.263,25.896
				c-14.997,0.138-29.997,0.031-44.996,0.031c-63.493,0-126.987,0.005-190.482-0.002c-15.345-0.002-25.057-8.729-25.313-23.96
				c-0.445-26.49-0.302-52.991-0.313-79.487c-0.024-49.496,0.119-98.992-0.05-148.487c-0.039-11.821,2.692-22.396,9.114-32.482
				c11.859-18.623,23.073-37.66,34.424-56.604c6.105-10.189,14.831-15.141,26.776-15.025c19.986,0.193,39.977,0.053,59.903,0.053
				c1.413-8.22,2.077-16.377,4.265-24.102c12.41-43.815,41.024-70.884,85.674-79.852c58.403-11.731,116.658,27.634,128.001,89.406
				c1.582,8.616,1.557,17.548,2.008,26.347c1.327,25.91,10.644,48.816,26.617,68.929c14.721,18.53,24.236,38.75,23.704,62.901
				c-0.014,0.626,0.161,1.256,0.291,2.187c1.285,0.065,2.409,0.168,3.533,0.178c3,0.022,6.001-0.055,8.999,0.021
				c10.286,0.264,28.18,18.343,28.192,28.557C765.597,569.734,765.592,596.399,765.558,623.063z"/>
			<path fill="#8BFF5F" d="M515.754,555.635c12.992,12.995,25.628,25.342,37.865,38.066c3.063,3.188,6.521,7.463,6.822,11.463
				c0.356,4.745-1.191,10.841-4.213,14.401c-7.834,9.229-16.863,17.455-25.54,25.959c-7.015,6.876-16.267,7.035-23.275,0.155
				c-13.494-13.238-26.773-26.698-40.791-40.715c-8.429,8.429-16.441,16.449-24.464,24.461c-5.328,5.322-10.55,10.763-16.036,15.916
				c-7.822,7.35-16.841,7.28-24.499-0.17c-8.185-7.963-16.261-16.04-24.242-24.205c-7.449-7.621-7.463-16.826,0.002-24.422
				c12.938-13.164,26.015-26.199,39.022-39.296c0.156-0.156,0.205-0.417,0.794-1.678c-4.945-4.943-10.201-10.19-15.446-15.445
				c-7.896-7.911-15.879-15.734-23.655-23.76c-7.609-7.854-7.466-17.938,0.242-25.768c7.499-7.615,15.074-15.16,22.671-22.682
				c8.503-8.418,18.291-8.516,26.827-0.083c12.927,12.77,25.72,25.677,39.156,39.113c13.726-13.729,27.117-27.016,40.377-40.432
				c4.871-4.928,12.033-8.728,16.849-4.658c13.108,11.069,25.365,23.354,36.583,36.347c3.837,4.444,0.78,11.641-3.989,16.388
				C543.384,527.961,530.008,541.381,515.754,555.635z"/>
		</g>
	</g>
</g>
<g id="Layer_2">
	<g>
		<path fill-rule="evenodd" clip-rule="evenodd" d="M513.588,130.825c90.21,1.074,171.729,27.597,242.242,84.638
			c68.424,55.351,112.363,126.33,132.229,212.177c6.51,28.133,10.145,56.651,9.653,85.433
			c-1.517,89.001-28.625,169.151-85.37,238.382c-56.505,68.938-128.607,112.808-215.53,132.478
			c-32.52,7.359-65.479,10.584-98.676,8.797c-79.766-4.296-152.334-29.717-216.5-77.492
			c-74.462-55.443-120.368-129.819-142.228-219.446c-8.052-33.014-10.986-66.738-9.176-100.63
			c4.412-82.649,31.488-157.069,83.566-221.724c56.993-70.755,130.256-115.409,219.153-134.335
			C459.518,133.445,486.365,130.583,513.588,130.825z M455.79,406.587c5.226,1.885,9.784,3.484,14.308,5.171
			c7.452,2.778,8.254,3.865,6.87,11.717c-3.748,21.262-12.524,40.22-26.664,56.6c-15.15,17.552-23.35,37.87-23.753,61.049
			c-0.37,21.237-0.223,42.483-0.217,63.726c0.013,44.338-0.138,88.679,0.224,133.014c0.174,21.285,18.595,38.688,39.898,38.703
			c31.02,0.021,62.041,0.071,93.059-0.073c4.14-0.02,8.414-0.618,12.387-1.773c17.846-5.188,28.944-20.931,28.978-41.363
			c0.1-62.377-0.066-124.757,0.091-187.135c0.064-25.881-8.725-48.083-25.564-67.592c-15.2-17.609-23.989-38.227-26.218-61.465
			c-0.106-1.113,1.286-3.021,2.425-3.494c6.278-2.609,12.695-4.889,19.593-7.479c0,2.175-0.663,4.404,0.151,5.72
			c1.322,2.139,3.634,5.102,5.487,5.074c1.845-0.029,4.548-3.04,5.215-5.245c0.764-2.522-0.485-5.597-0.512-8.436
			c-0.021-2.222-0.332-5.173,0.892-6.559c10.379-11.744,11.883-25.188,8.007-39.625c-4.854-18.081-10.484-35.965-14.928-54.142
			c-3.584-14.661-10.14-26.179-25.411-30.533c0-4.954,0.12-9.501-0.034-14.038c-0.156-4.614-3.007-7.854-7.473-7.89
			c-19.554-0.156-39.111-0.179-58.666-0.05c-4.976,0.033-7.771,3.383-7.858,8.538c-0.058,3.37,0.301,6.779-0.102,10.1
			c-0.19,1.568-1.404,3.792-2.718,4.321c-11.25,4.536-17.489,12.987-20.561,24.432c-5.157,19.215-10.706,38.325-15.869,57.54
			c-2.822,10.506-4.874,21.571,1.019,31.341c4.826,8,9.208,15.327,7.084,25.167c-0.298,1.375,3.264,5.129,4.758,4.979
			c2.167-0.217,4.426-2.727,5.959-4.773C456.451,411.042,455.79,408.873,455.79,406.587z"/>
		<path fill-rule="evenodd" clip-rule="evenodd" d="M578.109,384.356c-5.356-20.489-11.005-18.851-28.028-19.789
			c-0.392-7.124-0.695-14.219-1.193-21.3c-0.837-11.905-1.54-23.83-2.81-35.691c-0.699-6.527-3.61-8.539-10.147-8.545
			c-14.995-0.017-29.992-0.023-44.988,0.002c-6.423,0.011-9.364,3.054-9.859,9.431c-1.17,15.08-2.574,30.14-3.756,45.218
			c-0.274,3.487-0.041,7.014-0.041,10.42c-5.978,0.963-12.724,0.983-18.582,3.274c-6.625,2.593-8.531,9.425-9.3,17.156
			c-4.708-6.964-4.87-14.155-3.243-20.725c5.307-21.415,11.369-42.644,17.24-63.917c4.114-14.91,13.713-18.283,26.869-18.907
			c15.131-0.718,30.352-0.753,45.478,0.018c14.326,0.73,24.23,3.933,28.673,22.554c4.846,20.313,10.801,40.359,16.162,60.551
			C582.365,370.813,580.806,377.174,578.109,384.356z"/>
		<path fill-rule="evenodd" clip-rule="evenodd" d="M478.848,376.928c0,8.857,0,16.833,0,25.584
			c-6.063-2.126-11.688-4.039-17.254-6.106c-0.997-0.371-2.602-1.555-2.496-2.071c1.124-5.492,2.426-10.956,4.014-16.329
			c0.195-0.656,2.339-0.991,3.594-1.032C470.671,376.846,474.646,376.928,478.848,376.928z"/>
		<path fill-rule="evenodd" clip-rule="evenodd" d="M548.205,402.544c0-8.955,0-16.949,0-25.607c4.301,0,8.701-0.518,12.926,0.119
			c6.576,0.992,4.364,7.361,5.797,11.349c0.885,2.467,3.139,6.151-1.883,7.831C559.572,398.064,554.226,400.27,548.205,402.544z"/>
	</g>
</g>
</svg>
