<?xml version="1.0" encoding="utf-8"?>
<!-- Generator: Adobe Illustrator 16.0.0, SVG Export Plug-In . SVG Version: 6.00 Build 0)  -->
<!DOCTYPE svg PUBLIC "-//W3C//DTD SVG 1.1//EN" "http://www.w3.org/Graphics/SVG/1.1/DTD/svg11.dtd">
<svg version="1.1" id="Layer_1" xmlns="http://www.w3.org/2000/svg" xmlns:xlink="http://www.w3.org/1999/xlink" x="0px" y="0px"
	 width="1024px" height="320.419px" viewBox="0 355.598 1024 320.419" enable-background="new 0 355.598 1024 320.419"
	 xml:space="preserve">
<path d="M358.735,441.856c-29.528,0.17-50.202,4.615-69.878,13.34c-15.629,6.932-30.377,15.401-40.761,29.515
	c-10.448,14.201-13.919,29.721-6.443,46.458c4.068,9.104,10.292,16.765,18.169,22.815c31.17,23.946,66.536,33.255,105.47,29.484
	c21.997-2.129,39.73-12.301,53.929-29.039c3.828-4.514,7.795-8.93,11.945-13.146c7.796-7.921,17.18-12.149,28.49-11.312
	c12.109,0.898,24.216,1.834,36.322,2.801c27.165,2.166,54.326,4.359,81.489,6.549c23.127,1.864,46.254,3.721,69.38,5.613
	c30.26,2.478,60.507,5.127,90.786,7.374c6.438,0.479,13.18,0.453,19.438-0.917c19.344-4.237,33.465-25.377,30.034-43.501
	c-4.887-25.807-28.346-35.244-45.211-33.722c-17.062,1.54-34.134,2.962-51.206,4.365c-13.189,1.083-26.393,2.003-39.582,3.096
	c-13.189,1.092-26.362,2.376-39.554,3.451c-17.071,1.391-34.162,2.593-51.234,3.996c-17.068,1.404-34.124,2.982-51.189,4.434
	c-14.428,1.226-28.885,2.157-43.288,3.624c-14.055,1.433-26.199-2.091-36.045-12.455c-3.434-3.614-6.847-7.272-9.978-11.146
	C402.032,451.526,378.81,441.531,358.735,441.856z"/>
</svg>
