<?xml version="1.0" encoding="utf-8"?>
<!-- Generator: Adobe Illustrator 16.0.0, SVG Export Plug-In . SVG Version: 6.00 Build 0)  -->
<!DOCTYPE svg PUBLIC "-//W3C//DTD SVG 1.1//EN" "http://www.w3.org/Graphics/SVG/1.1/DTD/svg11.dtd">
<svg version="1.1" id="Layer_1" xmlns="http://www.w3.org/2000/svg" xmlns:xlink="http://www.w3.org/1999/xlink" x="0px" y="0px"
	 width="1024px" height="1024px" viewBox="0 0 1024 1024" enable-background="new 0 0 1024 1024" xml:space="preserve">
<g>
	<path fill-rule="evenodd" clip-rule="evenodd" d="M887.55,419.31C866.351,334.565,821.526,265,752.49,211.539
		c-70.21-54.37-150.433-80.086-244.936-80.859c-23.439-0.068-61.271,4.335-87.841,11.076
		c-86.53,21.95-158.069,67.259-212.848,137.984c-46.966,60.641-72.083,129.81-77.156,206.161
		c-1.656,24.921-0.63,49.891,2.613,74.761c4.335,33.237,12.892,65.298,25.619,96.246c26.31,63.976,67.521,116.527,122.663,158.063
		c60.134,45.297,128.109,70.255,203.015,76.403c22.272,1.828,44.559,1.408,66.86-0.704c24.853-2.354,49.326-6.567,73.198-13.739
		C703.12,853.063,768.835,808.896,819.52,743c50.853-66.114,76.56-141.221,78.91-224.399
		C899.378,485.045,895.705,451.913,887.55,419.31z M765.558,623.063c-0.012,8.706-5.635,14.414-14.251,14.428
		c-25.497,0.042-50.995,0.047-76.493,0.001c-8.71-0.016-14.298-5.686-14.304-14.371c-0.02-26.664,0.04-53.329-0.058-79.993
		c-0.018-4.811,1.495-8.712,4.969-11.985c5.083-4.791,9.373-11.103,15.341-14.083c5.854-2.923,13.383-2.491,20.708-3.612
		c0.873-15.263-2.986-29.855-12.865-42.184c-15.576-19.438-27.93-40.461-33.391-64.884c-2.265-10.126-3.214-20.657-3.682-31.054
		c-1.018-22.625-7.114-43.303-22.529-60.27c-20.348-22.395-45.795-32.098-76.062-28.809c-34.149,3.713-64.506,28.767-73.05,67.209
		c-1.036,4.662-1.247,9.507-1.938,15.046c22.144,0,43.275-0.036,64.407,0.043c2.798,0.011,5.653,0.344,8.377,0.978
		c6.767,1.577,12.095,5.326,15.721,11.332c12.7,21.038,25.358,42.102,38.104,63.111c4.7,7.747,6.864,16.218,6.875,25.123
		c0.091,76.494,0.079,152.987,0.041,229.481c-0.008,15.318-10.592,25.753-26.262,25.896c-14.997,0.138-29.997,0.031-44.996,0.031
		c-63.494,0-126.989,0.005-190.484-0.002c-15.344-0.002-25.055-8.727-25.312-23.96c-0.447-26.49-0.302-52.991-0.315-79.487
		c-0.024-49.496,0.119-98.992-0.049-148.487c-0.04-11.823,2.693-22.397,9.115-32.484c11.859-18.623,23.073-37.66,34.424-56.604
		c6.105-10.189,14.831-15.141,26.776-15.025c19.986,0.193,39.977,0.053,59.903,0.053c1.413-8.22,2.077-16.377,4.265-24.102
		c12.41-43.815,41.024-70.884,85.674-79.852c58.403-11.731,116.658,27.634,128.001,89.406c1.582,8.616,1.555,17.548,2.006,26.347
		c1.329,25.91,10.644,48.816,26.619,68.929c14.719,18.53,24.236,38.75,23.704,62.901c-0.014,0.626,0.161,1.256,0.291,2.186
		c1.285,0.066,2.409,0.167,3.533,0.177c3,0.024,6.001-0.054,8.999,0.021c10.286,0.262,28.18,18.342,28.192,28.555
		C765.597,569.734,765.592,596.399,765.558,623.063z"/>
	<path fill-rule="evenodd" clip-rule="evenodd" d="M515.754,555.635c12.992,12.995,25.628,25.342,37.865,38.066
		c3.064,3.188,6.522,7.463,6.822,11.463c0.358,4.745-1.191,10.841-4.213,14.401c-7.834,9.231-16.863,17.456-25.54,25.959
		c-7.013,6.876-16.265,7.037-23.275,0.157c-13.494-13.24-26.773-26.7-40.791-40.715c-8.429,8.429-16.441,16.449-24.464,24.461
		c-5.328,5.322-10.55,10.762-16.036,15.916c-7.822,7.348-16.841,7.28-24.499-0.17c-8.185-7.963-16.261-16.04-24.242-24.205
		c-7.449-7.621-7.463-16.826,0.002-24.422c12.938-13.164,26.013-26.199,39.022-39.296c0.156-0.156,0.205-0.417,0.794-1.678
		c-4.945-4.943-10.201-10.19-15.446-15.445c-7.896-7.911-15.879-15.734-23.655-23.76c-7.611-7.852-7.466-17.936,0.242-25.766
		c7.499-7.617,15.074-15.161,22.671-22.682c8.503-8.418,18.291-8.516,26.827-0.083c12.927,12.77,25.72,25.677,39.156,39.113
		c13.726-13.727,27.117-27.014,40.377-40.43c4.871-4.928,12.033-8.728,16.849-4.66c13.108,11.071,25.365,23.354,36.583,36.347
		c3.837,4.444,0.78,11.641-3.991,16.388C543.384,527.961,530.008,541.381,515.754,555.635z"/>
</g>
</svg>
