<?xml version="1.0" encoding="utf-8"?>
<!-- Generator: Adobe Illustrator 16.0.0, SVG Export Plug-In . SVG Version: 6.00 Build 0)  -->
<!DOCTYPE svg PUBLIC "-//W3C//DTD SVG 1.1//EN" "http://www.w3.org/Graphics/SVG/1.1/DTD/svg11.dtd">
<svg version="1.1" id="Layer_1" xmlns="http://www.w3.org/2000/svg" xmlns:xlink="http://www.w3.org/1999/xlink" x="0px" y="0px"
	 width="1024px" height="1024px" viewBox="0 0 1024 1024" enable-background="new 0 0 1024 1024" xml:space="preserve">
<path fill-rule="evenodd" clip-rule="evenodd" d="M517.689,901.612c-92.949-0.274-172.214-26.354-241.968-79.769
	c-72.228-55.307-120.323-127.041-143.181-215.324c-5.16-19.93-8.375-40.199-10.296-60.736c-1.992-21.295-2.344-42.563-0.696-63.826
	c5.327-68.728,25.717-132.532,64.858-189.553c56.519-82.334,133.636-135.257,230.747-159.001
	c38.71-9.465,78.055-12.342,117.62-10.204c81.155,4.384,154.836,30.374,219.35,80.215c69.224,53.478,114.842,122.87,136.866,207.624
	c9.96,38.312,14.372,77.326,12.325,116.808c-4.057,78.278-28.568,149.731-74.953,213.064
	c-53.903,73.594-125.268,122.513-213.064,147.251c-23.055,6.494-46.613,10.636-70.577,12.059
	C534.01,900.854,523.29,901.327,517.689,901.612z M512.361,451.919c-2.725,0-5.45,0-8.175,0c-62.998,0-125.996-0.053-188.994,0.166
	c-2.912,0.011-6.284,1.96-8.464,4.034c-0.738,0.703,1.169,4.815,2.512,6.968c5.486,8.801,11.587,17.233,16.805,26.185
	c22.144,37.994,29.568,80.354,35.825,123.001c0.987,6.733,1.877,7.983,8.524,7.983c94.578,0.003,189.153,0.003,283.731,0.002
	c5.747,0,6.906-1.096,7.805-6.591c2.233-13.677,4.265-27.396,6.929-40.99c7.904-40.324,22.05-78.073,46.83-111.334
	c3.806-5.106,2.142-8.649-4.237-9.367c-1.584-0.177-3.204-0.054-4.807-0.054C641.884,451.92,577.122,451.92,512.361,451.919z
	 M512.114,634.274c0,0.01,0,0.019,0,0.03c-55.6,0-111.201-0.013-166.801,0.011c-8.26,0.003-9.11,1.457-5.085,8.823
	c8.623,15.78,20.214,29.054,34.076,40.469c13.441,11.069,28.731,18.896,44.494,25.897c4.643,2.062,7.486,5.118,8.5,10.082
	c2.299,11.247,7.181,15.211,18.829,15.223c44.064,0.044,88.128,0.056,132.192,0.05c11.686-0.001,16.201-3.608,18.25-14.979
	c0.872-4.849,3.172-8.146,7.689-10.098c5.113-2.205,10.181-4.531,15.196-6.95c27.051-13.036,48.837-31.874,63.793-58.175
	c5.02-8.827,4.156-10.375-5.774-10.378C622.354,634.266,567.233,634.274,512.114,634.274z M513.872,295.826
	c-0.067,0.396-0.134,0.792-0.202,1.188c-13-0.052-25.869,0.864-38.032,6.006c-8.842,3.737-11.253,7.42-10.722,17.009
	c0.169,3.082,1.034,6.396,2.521,9.083c4.013,7.248,8.469,14.256,12.876,21.28c2.896,4.618,2.124,6.484-3.188,7.244
	c-31.437,4.501-60.991,14.432-88.249,30.854c-18.791,11.323-35.704,24.862-48.869,42.635c-1.031,1.393-1.249,3.387-1.845,5.102
	c1.844,0.626,3.666,1.696,5.534,1.788c3.831,0.187,7.685-0.262,11.529-0.256c108.995,0.143,217.987,0.316,326.982,0.394
	c1.391,0,3.388-0.852,3.988-1.929c0.509-0.914-0.192-3.053-1.044-4.088c-4.669-5.677-9.144-11.608-14.427-16.678
	c-34.52-33.122-76.684-50.15-123.194-57.764c-6.782-1.11-7.373-2.277-3.81-8.073c4.753-7.731,10.046-15.279,13.622-23.547
	c5.111-11.81,0.389-21.683-12.014-24.947C535.089,298.43,524.376,297.525,513.872,295.826z"/>
</svg>
