<?xml version="1.0" encoding="utf-8"?>
<!-- Generator: Adobe Illustrator 16.0.0, SVG Export Plug-In . SVG Version: 6.00 Build 0)  -->
<!DOCTYPE svg PUBLIC "-//W3C//DTD SVG 1.1//EN" "http://www.w3.org/Graphics/SVG/1.1/DTD/svg11.dtd">
<svg version="1.1" id="Layer_1" xmlns="http://www.w3.org/2000/svg" xmlns:xlink="http://www.w3.org/1999/xlink" x="0px" y="0px"
	 width="1024px" height="1024px" viewBox="0 0 1024 1024" enable-background="new 0 0 1024 1024" xml:space="preserve">
<g>
	<path fill-rule="evenodd" clip-rule="evenodd" d="M119.435,508.404c0.897-66.668,17.644-129.772,50.103-188.668
		c23.602-42.823,53.768-80.404,91.667-111.387c43.412-35.489,92.244-60.712,146.642-74.822
		c24.836-6.442,49.996-11.371,75.665-12.253c21.096-0.726,42.379-1.685,63.333,0.205c78.558,7.083,149.831,33.748,211.743,83.281
		c70.334,56.271,114.67,129.236,136.429,216.21c8.021,32.058,11.776,64.729,10.606,97.804
		c-2.95,83.357-28.242,159.272-77.902,226.413c-47.235,63.863-108.668,109.246-183.451,136.242
		c-25.903,9.352-52.57,15.915-80.028,18.559c-17.396,1.675-34.887,3.583-52.32,3.453c-90.089-0.671-171.201-28.282-242.238-83.834
		c-75.094-58.725-121.065-135.892-141.609-228.542C122.09,564.082,120.023,536.601,119.435,508.404z M512.205,723.018
		c29.307,0,58.612,0.015,87.919-0.006c13.354-0.009,23.836-8.138,24.156-20.103c0.321-12.003,5.668-21.182,13.261-29.613
		c11.39-12.645,21.643-26.137,28.991-41.533c13.399-28.074,18.815-58.018,19.358-88.896c0.101-5.727,1.588-10.296,5.346-14.341
		c8.289-8.921,16.554-17.864,24.877-26.753c14.464-15.448,19.525-33.625,15.843-54.342c-3.745-21.058-22.131-46.255-54.311-46.155
		c-6.966,0.022-13.963,2.047-20.873,3.495c-3.06,0.641-4.778,0.418-6.386-2.738c-3.393-6.661-7.295-13.072-11.191-19.462
		c-2.059-3.375-5.018-4.909-9.34-4.902c-78.192,0.131-156.387,0.14-234.58-0.012c-4.826-0.01-7.91,1.802-10.189,5.583
		c-3.463,5.741-6.927,11.491-10.126,17.38c-2.817,5.185-2.669,5.31-8.348,3.725c-10.185-2.842-20.393-4.311-30.973-2.059
		c-30.02,6.39-49.009,38.071-43.005,68.578c2.701,13.724,9.862,24.745,19.51,34.541c7.542,7.656,14.773,15.625,22.021,23.566
		c3.078,3.374,4.742,7.159,5.028,12.104c0.855,14.815,1.607,29.731,4.016,44.341c5.61,34.052,20.938,63.456,44.789,88.453
		c6.038,6.328,10.678,13.635,12.142,22.489c0.482,2.916,0.098,5.985,0.665,8.877c2.197,11.22,11.092,17.773,23.871,17.78
		C453.852,723.031,483.029,723.021,512.205,723.018z M512.938,355.295c41.863,0,83.728,0.001,125.59-0.004
		c1.685,0,3.377,0.031,5.051-0.104c3.735-0.302,6.392-1.959,6.948-5.975c0.355-2.557,0.936-5.125,0.916-7.684
		c-0.061-8.022,0.328-16.135-0.735-24.04c-1.373-10.206-10.229-16.735-21.082-16.739c-56.638-0.017-113.276-0.005-169.916-0.005
		c-21.645,0-43.29-0.033-64.935,0.012c-10.391,0.022-18.796,5.59-19.887,15.821c-1.179,11.051,0.019,22.383,0.55,33.574
		c0.166,3.496,3.377,4.609,6.471,5.035c1.529,0.21,3.105,0.103,4.66,0.103C428.691,355.292,470.815,355.292,512.938,355.295z"/>
	<path fill-rule="evenodd" clip-rule="evenodd" d="M495.529,511.589c0-12.54-0.042-24.45,0.027-36.36
		c0.018-3.235,0.264-6.479,0.588-9.701c0.782-7.767,7.209-13.688,15.68-14.578c7.022-0.738,14.925,4.624,16.877,11.668
		c0.614,2.212,0.844,4.577,0.915,6.881c0.386,12.695,0.663,25.395,0.998,38.092c0.031,1.148,0.199,2.293,0.324,3.691
		c1.115,0.111,2.096,0.286,3.076,0.293c13.744,0.124,27.487,0.235,41.232,0.325c10.316,0.068,17.37,6.602,17.445,16.201
		c0.075,9.708-7.079,16.643-17.279,16.987c-14.862,0.502-29.719,1.146-44.764,1.737c-0.334,11.643-0.681,23.138-0.981,34.636
		c-0.089,3.369,0.039,6.746-0.089,10.112c-0.342,8.932-7.739,15.752-16.93,15.696c-9.004-0.054-16.194-6.781-16.522-15.582
		c-0.537-14.378-1-28.759-1.501-43.138c-0.026-0.756-0.104-1.51-0.191-2.718c-1.804,0-3.446,0.026-5.087-0.004
		c-13.864-0.253-27.728-0.469-41.591-0.794c-9.111-0.214-16.263-7.802-16.151-16.948c0.112-9.138,7.06-16.054,16.349-16.154
		c14.002-0.151,28.005-0.233,42.007-0.342C491.36,511.58,492.757,511.589,495.529,511.589z"/>
	<path fill-rule="evenodd" clip-rule="evenodd" d="M683.027,497.892c-2.574-23.229-9.805-45.139-18.681-66.881
		c6.192-5.059,13.144-4.734,20.429-3.158c20.638,4.465,30.604,31.908,18.574,48.704c-5.641,7.879-12.763,14.698-19.214,21.998
		C683.766,498.333,683.396,498.113,683.027,497.892z"/>
	<path fill-rule="evenodd" clip-rule="evenodd" d="M360.138,430.689c-8.612,21.966-16.265,43.64-18.306,67.459
		c-10.547-9.649-22.403-17.955-24.856-32.775c-3.606-21.776,13.058-42.316,36.217-37.758
		C355.5,428.07,357.607,429.541,360.138,430.689z"/>
</g>
</svg>
