<?xml version="1.0" encoding="utf-8"?>
<!-- Generator: Adobe Illustrator 16.0.0, SVG Export Plug-In . SVG Version: 6.00 Build 0)  -->
<!DOCTYPE svg PUBLIC "-//W3C//DTD SVG 1.1//EN" "http://www.w3.org/Graphics/SVG/1.1/DTD/svg11.dtd">
<svg version="1.1" id="Layer_1" xmlns="http://www.w3.org/2000/svg" xmlns:xlink="http://www.w3.org/1999/xlink" x="0px" y="0px"
	 width="1024px" height="1024px" viewBox="0 0 1024 1024" enable-background="new 0 0 1024 1024" xml:space="preserve">
<path fill-rule="evenodd" clip-rule="evenodd" d="M899.133,505.987c-0.639,90.225-24.218,168.662-77.054,236.965
	c-50.349,65.087-114.693,110.854-193.558,135.564c-24.386,7.641-49.27,12.571-74.724,15.183c-23.798,2.44-47.593,2.61-71.31,0.604
	c-79.037-6.688-149.369-35.688-210.964-85.319c-59.598-48.022-101.63-108.421-124.349-181.843
	c-7.996-25.842-13.295-52.185-15.842-79.156c-2.561-27.127-2.683-54.22,0.319-81.242c7.872-70.858,33.765-134.585,77.9-190.545
	c48.755-61.818,110.988-104.576,185.972-128.661c25.751-8.271,52.078-13.609,79.053-16.232c24.801-2.412,49.609-2.782,74.321-0.589
	c76.148,6.757,144.913,32.885,205.004,80.59c70.501,55.969,116.012,127.91,136.392,215.587
	C896.669,454.316,898.88,482.283,899.133,505.987z M665.835,399.504c-1.158-13.141-4.277-16-16.859-16
	c-121.332,0-242.664-0.001-363.996-0.002c-10.563,0-14.301,3.719-14.33,14.431c-0.063,23-0.386,46.004-0.023,68.998
	c0.325,20.611,2.508,41.058,8.427,60.944c14.407,48.408,42.777,86.468,84.871,114.288c8.202,5.421,13.597,12.175,14.569,22.437
	c0.825,8.711,7.591,13.864,16.508,13.864c48.166,0.002,96.334-0.222,144.496,0.197c10.416,0.091,17.648-6.485,18.642-16.07
	c0.947-9.139,5.669-14.754,12.741-19.526c27.132-18.31,49.64-41.111,66.212-69.463c1.982-3.391,4.026-4.369,7.78-4.436
	c21.291-0.377,42.646-0.216,63.845-1.906c19.368-1.545,36.397-9.922,50.056-24.001c21.349-22.008,27.056-48.983,22.442-78.258
	c-6.396-40.58-42.064-65.366-78.094-65.49C690.808,399.469,678.494,399.504,665.835,399.504z"/>
<path fill-rule="evenodd" clip-rule="evenodd" d="M457.412,533.085c18.136-17.462,36.45-34.9,54.533-52.575
	c12.388-12.108,24.394-24.604,36.679-36.817c10.814-10.752,24.9-7.148,29.249,7.399c1.762,5.893-0.329,10.818-4.376,14.974
	c-18.479,18.97-37.008,37.891-55.554,56.796c-15.513,15.814-31.044,31.611-46.627,47.356c-8.026,8.111-17.979,8.419-25.988,0.48
	c-15.852-15.712-31.496-31.632-47.212-47.481c-4.829-4.87-7.486-10.43-5.899-17.548c1.364-6.123,4.516-10.692,10.537-12.772
	c6.675-2.307,12.719-1.186,17.88,3.922C433.181,509.236,445.771,521.61,457.412,533.085z"/>
<path fill-rule="evenodd" clip-rule="evenodd" d="M653.146,536.505c12.369-34.222,13.308-69.149,12.129-104.53
	c1.512-0.194,2.61-0.478,3.703-0.455c14.123,0.296,28.343-0.292,42.345,1.182c21.209,2.231,36.477,19.945,38.352,41.313
	c1.392,15.854-1,30.464-10.934,43.191c-9.541,12.226-22.45,18.636-37.789,19.178C685.327,536.935,669.667,536.505,653.146,536.505z"
	/>
</svg>
