<?xml version="1.0" encoding="utf-8"?>
<!-- Generator: Adobe Illustrator 16.0.0, SVG Export Plug-In . SVG Version: 6.00 Build 0)  -->
<!DOCTYPE svg PUBLIC "-//W3C//DTD SVG 1.1//EN" "http://www.w3.org/Graphics/SVG/1.1/DTD/svg11.dtd">
<svg version="1.1" xmlns="http://www.w3.org/2000/svg" xmlns:xlink="http://www.w3.org/1999/xlink" x="0px" y="0px" width="1024px"
	 height="1024px" viewBox="0 0 1024 1024" enable-background="new 0 0 1024 1024" xml:space="preserve">
<g id="Layer_2">
	<g>
		<path fill-rule="evenodd" clip-rule="evenodd" d="M894.229,502.046c-0.812,215.27-160.532,380.717-362.371,389.267
			c-229.455,9.718-394.387-171.111-398.213-371.603c-4.014-210.308,155.861-373.839,355.248-385.138
			c108.899-6.171,205.003,25.732,285.172,100.437C854.09,309.581,892.757,402.852,894.229,502.046z M509.968,414.836
			c0-0.005,0-0.01,0-0.016c-22.187,0-44.375-0.044-66.562,0.013c-22.355,0.057-44.72-0.168-67.063,0.439
			c-20.681,0.563-38.861,8.411-53.836,22.543c-26.612,25.115-35.169,56.223-28.144,91.696c8.102,40.908,46.048,71.946,87.63,71.979
			c83.458,0.066,166.916,0.039,250.373-0.031c5.44-0.004,10.947-0.277,16.308-1.143c26.937-4.351,48.12-17.962,63.478-40.476
			c1.821-2.672,3.765-3.386,6.727-3.355c10.581,0.108,21.166,0.167,31.743-0.036c13.071-0.25,22.013-9.462,22.018-22.362
			c0.007-17.579,0.016-35.159-0.004-52.737c-0.015-11.856-9.027-20.987-20.924-21.099c-10.41-0.096-20.825-0.172-31.231,0.018
			c-3.805,0.07-6.147-1.169-8.401-4.37c-19.017-27.005-44.537-41.477-78.205-41.157
			C592.576,415.136,551.271,414.836,509.968,414.836z"/>
		<path fill-rule="evenodd" clip-rule="evenodd" d="M423.272,498.508c0,20.768,0.001,41.536-0.001,62.303
			c0,7.43-1.168,8.655-8.473,8.726c-4.606,0.044-9.214,0.017-13.821-0.01c-4.303-0.025-6.457-1.809-6.442-6.521
			c0.114-34.808,0.107-69.616,0.004-104.424c-0.014-4.835,1.883-6.823,6.694-6.643c5.452,0.204,10.936,0.309,16.373-0.042
			c4.747-0.307,7.519,1.71,9.856,5.632c12.791,21.463,25.751,42.824,38.653,64.22c0.34,0.563,0.683,1.123,1.614,2.654
			c0.192-2.001,0.369-2.996,0.371-3.99c0.029-20.476,0.013-40.95,0.066-61.426c0.015-5.958,1.007-6.917,6.806-6.963
			c5.459-0.045,10.92,0.043,16.379-0.049c3.762-0.063,5.762,1.472,5.76,5.402c-0.019,35.49-0.035,70.98,0.026,106.472
			c0.006,3.735-2,5.435-5.242,5.55c-6.646,0.236-13.367,0.642-19.927-0.128c-2.622-0.307-5.667-3.05-7.218-5.505
			c-12.793-20.256-25.279-40.705-37.859-61.095c-0.887-1.438-1.776-2.877-2.665-4.314
			C423.911,498.406,423.591,498.457,423.272,498.508z"/>
		<path fill-rule="evenodd" clip-rule="evenodd" d="M553.099,548.287c8.442,0,16.717-0.012,24.992,0.004
			c6.813,0.014,6.977,0.183,7.182,6.747c0.042,1.365,0.101,2.729,0.154,4.095c0.367,9.46-0.41,10.54-10.058,10.644
			c-18.264,0.196-36.53,0.037-54.797,0.11c-4.165,0.018-5.858-2.027-5.842-5.962c0.013-2.73-0.583-5.602,0.077-8.155
			c0.741-2.868,1.943-6.208,4.07-8.023c9.193-7.848,18.943-15.039,28.173-22.846c3.322-2.809,5.86-6.59,8.532-10.099
			c0.986-1.296,1.542-3.031,1.927-4.654c1.704-7.213-1.443-13.032-7.399-13.925c-4.729-0.708-10.161,4.533-11.019,10.723
			c-0.209,1.514,0.365,3.381-0.338,4.523c-1.004,1.634-2.747,3.738-4.356,3.905c-4.898,0.511-9.883,0.214-14.833,0.183
			c-3.367-0.021-5.036-1.881-5.004-5.142c0.201-20.013,12.785-35.224,32.041-35.953c16.435-0.621,28.863,6.065,33.571,18.846
			c5.167,14.029,1.381,26.509-8.463,37.143C565.993,536.628,559.562,542.142,553.099,548.287z"/>
	</g>
</g>
<g id="Layer_1" display="none">
	<g id="Layer_1_1_" display="inline">
		<g>
			<path fill="#8BFF5F" d="M887.55,419.31C866.351,334.565,821.526,265,752.49,211.539c-70.21-54.37-150.435-80.086-244.938-80.859
				c-23.438-0.068-61.271,4.335-87.841,11.076c-86.53,21.95-158.069,67.259-212.848,137.984
				c-46.966,60.641-72.083,129.81-77.156,206.161c-1.656,24.921-0.63,49.891,2.613,74.761c4.335,33.237,12.892,65.298,25.619,96.246
				c26.31,63.976,67.521,116.525,122.663,158.063c60.134,45.297,128.109,70.255,203.015,76.403
				c22.271,1.828,44.559,1.408,66.858-0.704c24.854-2.354,49.326-6.567,73.198-13.739C703.12,853.063,768.835,808.896,819.52,743
				c50.854-66.114,76.562-141.221,78.91-224.399C899.378,485.045,895.705,451.913,887.55,419.31z M765.558,623.063
				c-0.012,8.704-5.635,14.412-14.251,14.428c-25.497,0.042-50.994,0.047-76.491,0.001c-8.712-0.018-14.3-5.688-14.306-14.371
				c-0.02-26.664,0.04-53.329-0.058-79.993c-0.02-4.811,1.495-8.712,4.969-11.985c5.083-4.791,9.373-11.103,15.341-14.083
				c5.854-2.923,13.383-2.489,20.708-3.61c0.873-15.265-2.984-29.855-12.863-42.186c-15.576-19.438-27.932-40.461-33.393-64.884
				c-2.265-10.126-3.214-20.657-3.682-31.054c-1.02-22.625-7.114-43.303-22.529-60.27c-20.348-22.395-45.795-32.098-76.062-28.809
				c-34.149,3.713-64.507,28.767-73.052,67.209c-1.034,4.662-1.246,9.507-1.938,15.046c22.144,0,43.274-0.036,64.407,0.043
				c2.798,0.011,5.651,0.344,8.377,0.978c6.767,1.577,12.095,5.326,15.721,11.332c12.7,21.038,25.358,42.102,38.104,63.111
				c4.699,7.747,6.863,16.218,6.875,25.123c0.092,76.494,0.078,152.987,0.041,229.481c-0.009,15.316-10.593,25.753-26.263,25.896
				c-14.997,0.138-29.997,0.031-44.996,0.031c-63.493,0-126.987,0.005-190.482-0.002c-15.345-0.002-25.057-8.729-25.313-23.96
				c-0.445-26.49-0.302-52.991-0.313-79.487c-0.024-49.496,0.119-98.992-0.05-148.487c-0.039-11.821,2.692-22.396,9.114-32.482
				c11.859-18.623,23.073-37.66,34.424-56.604c6.105-10.189,14.831-15.141,26.776-15.025c19.986,0.193,39.977,0.053,59.903,0.053
				c1.413-8.22,2.077-16.377,4.265-24.102c12.41-43.815,41.024-70.884,85.674-79.852c58.403-11.731,116.658,27.634,128.001,89.406
				c1.582,8.616,1.557,17.548,2.008,26.347c1.327,25.91,10.644,48.816,26.617,68.929c14.721,18.53,24.236,38.75,23.704,62.901
				c-0.014,0.626,0.161,1.256,0.291,2.187c1.285,0.065,2.409,0.168,3.533,0.178c3,0.022,6.001-0.055,8.999,0.021
				c10.286,0.264,28.18,18.343,28.192,28.557C765.597,569.734,765.592,596.399,765.558,623.063z"/>
			<path fill="#8BFF5F" d="M515.754,555.635c12.992,12.995,25.628,25.342,37.865,38.066c3.063,3.188,6.521,7.463,6.822,11.463
				c0.356,4.745-1.191,10.841-4.213,14.401c-7.834,9.229-16.863,17.455-25.54,25.959c-7.015,6.876-16.267,7.035-23.275,0.155
				c-13.494-13.238-26.773-26.698-40.791-40.715c-8.429,8.429-16.441,16.449-24.464,24.461c-5.328,5.322-10.55,10.763-16.036,15.916
				c-7.822,7.35-16.841,7.28-24.499-0.17c-8.185-7.963-16.261-16.04-24.242-24.205c-7.449-7.621-7.463-16.826,0.002-24.422
				c12.938-13.164,26.015-26.199,39.022-39.296c0.156-0.156,0.205-0.417,0.794-1.678c-4.945-4.943-10.201-10.19-15.446-15.445
				c-7.896-7.911-15.879-15.734-23.655-23.76c-7.609-7.854-7.466-17.938,0.242-25.768c7.499-7.615,15.074-15.16,22.671-22.682
				c8.503-8.418,18.291-8.516,26.827-0.083c12.927,12.77,25.72,25.677,39.156,39.113c13.726-13.729,27.117-27.016,40.377-40.432
				c4.871-4.928,12.033-8.728,16.849-4.658c13.108,11.069,25.365,23.354,36.583,36.347c3.837,4.444,0.78,11.641-3.989,16.388
				C543.384,527.961,530.008,541.381,515.754,555.635z"/>
		</g>
	</g>
</g>
</svg>
