<?xml version="1.0" encoding="utf-8"?>
<!-- Generator: Adobe Illustrator 16.0.0, SVG Export Plug-In . SVG Version: 6.00 Build 0)  -->
<!DOCTYPE svg PUBLIC "-//W3C//DTD SVG 1.1//EN" "http://www.w3.org/Graphics/SVG/1.1/DTD/svg11.dtd">
<svg version="1.1" xmlns="http://www.w3.org/2000/svg" xmlns:xlink="http://www.w3.org/1999/xlink" x="0px" y="0px" width="1024px"
	 height="1024px" viewBox="0 0 1024 1024" enable-background="new 0 0 1024 1024" xml:space="preserve">
<g id="Layer_2">
	<path fill-rule="evenodd" clip-rule="evenodd" d="M513.826,893.31c-214.3-1.288-383.842-167.762-384.209-383.524
		c-0.368-216.386,178.094-381.9,388.694-379.364c209.368,2.521,378.82,167.18,379.317,379.607
		C898.137,727.107,726.438,893.271,513.826,893.31z M513.878,307.098c-71.721,0-143.443-0.001-215.166,0.002
		c-6.606,0-11.235,3.554-10.642,9.384c0.345,3.386,2.384,7.131,4.771,9.697c19.906,21.387,40.069,42.538,60.155,63.761
		c36.238,38.29,72.395,76.656,108.761,114.826c10.998,11.542,16.762,24.655,16.698,40.749c-0.246,61.69-0.104,123.383-0.08,185.074
		c0.001,1.937,0.073,3.924,0.502,5.801c1.392,6.087,7.17,9.396,12.755,6.618c4.224-2.101,8.168-5.137,11.555-8.444
		c12.616-12.315,24.782-25.088,37.466-37.332c5.845-5.641,8.272-11.907,8.239-19.971c-0.189-45.33-0.152-90.66,0.059-135.988
		c0.06-12.948,5.293-24.062,14.207-33.497c10.24-10.84,20.424-21.733,30.658-32.578c47.037-49.844,94.083-99.681,141.128-149.517
		c3.309-3.505,6.096-7.198,4.017-12.38c-2.13-5.314-6.447-6.275-11.732-6.268C656.113,307.128,584.996,307.098,513.878,307.098z"/>
</g>
<g id="Layer_1" display="none">
	<g id="Layer_1_1_" display="inline">
		<g>
			<path fill="#8BFF5F" d="M887.55,419.31C866.351,334.565,821.526,265,752.49,211.539c-70.21-54.37-150.435-80.086-244.938-80.859
				c-23.438-0.068-61.271,4.335-87.841,11.076c-86.53,21.95-158.069,67.259-212.848,137.984
				c-46.966,60.641-72.083,129.81-77.156,206.161c-1.656,24.921-0.63,49.891,2.613,74.761c4.335,33.237,12.892,65.298,25.619,96.246
				c26.31,63.976,67.521,116.525,122.663,158.063c60.134,45.297,128.109,70.255,203.015,76.403
				c22.271,1.828,44.559,1.408,66.858-0.704c24.854-2.354,49.326-6.567,73.198-13.739C703.12,853.063,768.835,808.896,819.52,743
				c50.854-66.114,76.562-141.221,78.91-224.399C899.378,485.045,895.705,451.913,887.55,419.31z M765.558,623.063
				c-0.012,8.704-5.635,14.412-14.251,14.428c-25.497,0.042-50.994,0.047-76.491,0.001c-8.712-0.018-14.3-5.688-14.306-14.371
				c-0.02-26.664,0.04-53.329-0.058-79.993c-0.02-4.811,1.495-8.712,4.969-11.985c5.083-4.791,9.373-11.103,15.341-14.083
				c5.854-2.923,13.383-2.489,20.708-3.61c0.873-15.265-2.984-29.855-12.863-42.186c-15.576-19.438-27.932-40.461-33.393-64.884
				c-2.265-10.126-3.214-20.657-3.682-31.054c-1.02-22.625-7.114-43.303-22.529-60.27c-20.348-22.395-45.795-32.098-76.062-28.809
				c-34.149,3.713-64.507,28.767-73.052,67.209c-1.034,4.662-1.246,9.507-1.938,15.046c22.144,0,43.274-0.036,64.407,0.043
				c2.798,0.011,5.651,0.344,8.377,0.978c6.767,1.577,12.095,5.326,15.721,11.332c12.7,21.038,25.358,42.102,38.104,63.111
				c4.699,7.747,6.863,16.218,6.875,25.123c0.092,76.494,0.078,152.987,0.041,229.481c-0.009,15.316-10.593,25.753-26.263,25.896
				c-14.997,0.138-29.997,0.031-44.996,0.031c-63.493,0-126.987,0.005-190.482-0.002c-15.345-0.002-25.057-8.729-25.313-23.96
				c-0.445-26.49-0.302-52.991-0.313-79.487c-0.024-49.496,0.119-98.992-0.05-148.487c-0.039-11.821,2.692-22.396,9.114-32.482
				c11.859-18.623,23.073-37.66,34.424-56.604c6.105-10.189,14.831-15.141,26.776-15.025c19.986,0.193,39.977,0.053,59.903,0.053
				c1.413-8.22,2.077-16.377,4.265-24.102c12.41-43.815,41.024-70.884,85.674-79.852c58.403-11.731,116.658,27.634,128.001,89.406
				c1.582,8.616,1.557,17.548,2.008,26.347c1.327,25.91,10.644,48.816,26.617,68.929c14.721,18.53,24.236,38.75,23.704,62.901
				c-0.014,0.626,0.161,1.256,0.291,2.187c1.285,0.065,2.409,0.168,3.533,0.178c3,0.022,6.001-0.055,8.999,0.021
				c10.286,0.264,28.18,18.343,28.192,28.557C765.597,569.734,765.592,596.399,765.558,623.063z"/>
			<path fill="#8BFF5F" d="M515.754,555.635c12.992,12.995,25.628,25.342,37.865,38.066c3.063,3.188,6.521,7.463,6.822,11.463
				c0.356,4.745-1.191,10.841-4.213,14.401c-7.834,9.229-16.863,17.455-25.54,25.959c-7.015,6.876-16.267,7.035-23.275,0.155
				c-13.494-13.238-26.773-26.698-40.791-40.715c-8.429,8.429-16.441,16.449-24.464,24.461c-5.328,5.322-10.55,10.763-16.036,15.916
				c-7.822,7.35-16.841,7.28-24.499-0.17c-8.185-7.963-16.261-16.04-24.242-24.205c-7.449-7.621-7.463-16.826,0.002-24.422
				c12.938-13.164,26.015-26.199,39.022-39.296c0.156-0.156,0.205-0.417,0.794-1.678c-4.945-4.943-10.201-10.19-15.446-15.445
				c-7.896-7.911-15.879-15.734-23.655-23.76c-7.609-7.854-7.466-17.938,0.242-25.768c7.499-7.615,15.074-15.16,22.671-22.682
				c8.503-8.418,18.291-8.516,26.827-0.083c12.927,12.77,25.72,25.677,39.156,39.113c13.726-13.729,27.117-27.016,40.377-40.432
				c4.871-4.928,12.033-8.728,16.849-4.658c13.108,11.069,25.365,23.354,36.583,36.347c3.837,4.444,0.78,11.641-3.989,16.388
				C543.384,527.961,530.008,541.381,515.754,555.635z"/>
		</g>
	</g>
</g>
</svg>
