<?xml version="1.0" encoding="utf-8"?>
<!-- Generator: Adobe Illustrator 16.0.0, SVG Export Plug-In . SVG Version: 6.00 Build 0)  -->
<!DOCTYPE svg PUBLIC "-//W3C//DTD SVG 1.1//EN" "http://www.w3.org/Graphics/SVG/1.1/DTD/svg11.dtd">
<svg version="1.1" xmlns="http://www.w3.org/2000/svg" xmlns:xlink="http://www.w3.org/1999/xlink" x="0px" y="0px" width="1024px"
	 height="1024px" viewBox="0 0 1024 1024" enable-background="new 0 0 1024 1024" xml:space="preserve">
<g id="Layer_2">
	<g>
		<path fill-rule="evenodd" clip-rule="evenodd" d="M552.063,305.915c-25.46,17.044-50.92,34.088-76.749,51.378
			c-16.571-15.633-33.094-31.22-50.652-47.784c43.212-1.56,85.173-3.073,127.134-4.587
			C551.885,305.253,551.975,305.584,552.063,305.915z"/>
		<g>
			<path fill-rule="evenodd" clip-rule="evenodd" d="M900.977,510.714c-0.779,206.451-162.605,377.441-378.491,382.125
				c-207.432,4.499-384.917-150.486-394.718-364.246c-10.353-225.784,167.109-391.872,369.65-398.601
				C724.302,122.454,900.459,295.364,900.977,510.714z M544.997,418.522c19.558,6.601,38.738,13.307,58.093,19.47
				c6.056,1.929,12.535,2.897,18.894,3.431c14.593,1.224,29.227,1.983,43.851,2.792c15.294,0.847,30.591,1.739,45.899,2.084
				c2.594,0.059,6.495-1.934,7.546-4.078c1.194-2.438,0.023-6.137-0.457-9.235c-0.153-0.991-1.36-1.832-2.117-2.714
				c-9.222-10.731-18.51-21.407-27.663-32.196c-26.923-31.73-53.672-63.609-80.788-95.174c-5.3-6.169-9.76-11.603-3.621-19.488
				c0.097-0.124,0.118-0.308,0.172-0.465c1.553-4.51-0.515-9.389-4.743-11.19c-4.443-1.895-9.258-0.254-11.446,4.058
				c-1.196,2.357-2.274,4.799-3.135,7.296c-1.046,3.035-2.729,4.186-6.162,4.276c-48.285,1.274-96.564,2.732-144.845,4.171
				c-9.656,0.287-19.312,0.63-28.963,1.044c-4.021,0.173-7.368,1.469-9.199,5.592c-1.866,4.202-0.274,7.382,2.372,10.421
				c0.653,0.751,1.402,1.422,2.129,2.105c13.596,12.779,26.973,25.802,40.858,38.258c12.601,11.304,23.488,24.593,38.459,33.202
				c9.642,5.546,19.064,11.475,28.565,17.263c6.751,4.113,13.47,8.279,20.358,12.518c-8.945,21.252-17.766,41.977-26.331,62.807
				c-1.287,3.131-2.787,4.084-6.131,4.074c-43.991-0.131-87.982-0.093-131.974-0.097c-2.165,0-4.353-0.19-6.491,0.052
				c-6.2,0.701-10.123,5.554-9.115,11.363c3.566,20.578,7.207,41.144,10.844,61.71c5.193,29.365,10.42,58.726,15.611,88.092
				c5.713,32.312,11.234,64.659,17.174,96.929c2.979,16.189,14.903,25.497,31.402,25.493c38.826-0.009,77.651,0.011,116.477-0.014
				c16.396-0.01,27.998-9.708,30.956-25.953c4.154-22.822,8.28-45.649,12.284-68.499c4.976-28.404,9.829-56.83,14.707-85.252
				c5.103-29.727,10.099-59.473,15.292-89.184c1.767-10.105-1.892-14.741-12.218-14.738c-25.662,0.007-51.323,0.013-76.984,0.003
				c-1.405-0.001-2.811-0.143-4.725-0.246C528.36,458.175,536.669,438.372,544.997,418.522z"/>
			<path fill-rule="evenodd" clip-rule="evenodd" d="M595.382,496.761c-2.642,16.029-5.226,31.707-7.867,47.741
				c-1.908,0-3.551,0-5.193,0c-66.976,0-133.951-0.038-200.927,0.089c-4.178,0.008-5.508-0.997-6.099-5.361
				c-1.776-13.134-4.322-26.164-6.544-39.239c-0.164-0.969-0.131-1.972-0.205-3.229
				C444.096,496.761,519.511,496.761,595.382,496.761z"/>
			<path fill-rule="evenodd" clip-rule="evenodd" d="M402.762,694.729c53.075,16.215,105.565,16.666,158.65,0.586
				c-2.408,13.342-4.569,26.189-7.097,38.964c-1.315,6.65-6.343,10.225-13.371,10.226c-39.291,0.009-78.582,0.007-117.874-0.006
				c-6.812-0.002-11.276-2.867-12.694-9.496C407.544,721.773,405.313,708.417,402.762,694.729z"/>
			<path fill-rule="evenodd" clip-rule="evenodd" d="M691.398,427.856c-23.149-1.287-45.126-2.509-67.663-3.763
				c-5.537-31.593-11.073-63.183-16.862-96.216C635.378,361.594,663.01,394.276,691.398,427.856z"/>
			<path fill-rule="evenodd" clip-rule="evenodd" d="M587.549,318.346c6.056,34.66,11.878,67.983,17.831,102.057
				c-17.835-5.984-35.241-11.826-53.238-17.865C563.868,374.652,575.427,347.168,587.549,318.346z"/>
			<path fill-rule="evenodd" clip-rule="evenodd" d="M570.62,314.419c-11.578,27.41-22.873,54.15-34.377,81.386
				c-15.323-9.292-30.295-18.372-45.639-27.677C517.234,350.253,543.584,332.566,570.62,314.419z"/>
		</g>
	</g>
</g>
<g id="Layer_1" display="none">
	<g display="inline">
		<path fill="#8BFF5F" d="M887.55,419.31C866.351,334.565,821.526,265,752.49,211.539c-70.21-54.37-150.434-80.086-244.937-80.859
			c-23.438-0.068-61.271,4.335-87.841,11.076c-86.53,21.95-158.069,67.259-212.848,137.984
			c-46.966,60.641-72.083,129.81-77.156,206.161c-1.656,24.921-0.63,49.891,2.613,74.761c4.335,33.237,12.892,65.298,25.619,96.246
			c26.31,63.976,67.521,116.526,122.663,158.063c60.134,45.297,128.109,70.255,203.015,76.403
			c22.271,1.828,44.559,1.408,66.859-0.704c24.854-2.354,49.326-6.567,73.198-13.739C703.12,853.063,768.835,808.896,819.52,743
			c50.854-66.114,76.561-141.221,78.91-224.399C899.378,485.045,895.705,451.913,887.55,419.31z M765.558,623.063
			c-0.012,8.705-5.635,14.413-14.251,14.428c-25.497,0.042-50.994,0.047-76.492,0.001c-8.711-0.017-14.299-5.687-14.305-14.371
			c-0.02-26.664,0.04-53.329-0.058-79.993c-0.019-4.811,1.495-8.712,4.969-11.985c5.083-4.791,9.373-11.103,15.341-14.083
			c5.854-2.923,13.383-2.49,20.708-3.611c0.873-15.264-2.985-29.855-12.864-42.185c-15.576-19.438-27.931-40.461-33.392-64.884
			c-2.265-10.126-3.214-20.657-3.682-31.054c-1.019-22.625-7.114-43.303-22.529-60.27c-20.348-22.395-45.795-32.098-76.062-28.809
			c-34.149,3.713-64.506,28.767-73.051,67.209c-1.035,4.662-1.246,9.507-1.938,15.046c22.144,0,43.275-0.036,64.407,0.043
			c2.798,0.011,5.652,0.344,8.377,0.978c6.767,1.577,12.095,5.326,15.721,11.332c12.7,21.038,25.358,42.102,38.104,63.111
			c4.699,7.747,6.863,16.218,6.875,25.123c0.091,76.494,0.078,152.987,0.041,229.481c-0.009,15.317-10.593,25.753-26.263,25.896
			c-14.997,0.138-29.997,0.031-44.996,0.031c-63.493,0-126.988,0.005-190.483-0.002c-15.344-0.002-25.056-8.728-25.313-23.96
			c-0.446-26.49-0.302-52.991-0.314-79.487c-0.024-49.496,0.119-98.992-0.049-148.487c-0.04-11.822,2.692-22.396,9.114-32.483
			c11.859-18.623,23.073-37.66,34.424-56.604c6.105-10.189,14.831-15.141,26.776-15.025c19.986,0.193,39.977,0.053,59.903,0.053
			c1.413-8.22,2.077-16.377,4.265-24.102c12.41-43.815,41.024-70.884,85.674-79.852c58.403-11.731,116.658,27.634,128.001,89.406
			c1.582,8.616,1.556,17.548,2.007,26.347c1.328,25.91,10.644,48.816,26.618,68.929c14.72,18.53,24.236,38.75,23.704,62.901
			c-0.014,0.626,0.161,1.256,0.291,2.186c1.285,0.066,2.409,0.168,3.533,0.178c3,0.023,6.001-0.055,8.999,0.021
			c10.286,0.263,28.18,18.342,28.192,28.556C765.597,569.734,765.592,596.399,765.558,623.063z"/>
		<path fill="#8BFF5F" d="M515.754,555.635c12.992,12.995,25.628,25.342,37.865,38.066c3.063,3.188,6.521,7.463,6.822,11.463
			c0.357,4.745-1.191,10.841-4.213,14.401c-7.834,9.23-16.863,17.455-25.54,25.959c-7.014,6.876-16.266,7.036-23.275,0.156
			c-13.494-13.239-26.773-26.699-40.791-40.715c-8.429,8.429-16.441,16.449-24.464,24.461c-5.328,5.322-10.55,10.762-16.036,15.916
			c-7.822,7.349-16.841,7.28-24.499-0.17c-8.185-7.963-16.261-16.04-24.242-24.205c-7.449-7.621-7.463-16.826,0.002-24.422
			c12.938-13.164,26.014-26.199,39.022-39.296c0.156-0.156,0.205-0.417,0.794-1.678c-4.945-4.943-10.201-10.19-15.446-15.445
			c-7.896-7.911-15.879-15.734-23.655-23.76c-7.61-7.853-7.466-17.937,0.242-25.767c7.499-7.616,15.074-15.16,22.671-22.682
			c8.503-8.418,18.291-8.516,26.827-0.083c12.927,12.77,25.72,25.677,39.156,39.113c13.726-13.728,27.117-27.015,40.377-40.431
			c4.871-4.928,12.033-8.728,16.849-4.659c13.108,11.07,25.365,23.354,36.583,36.347c3.837,4.444,0.78,11.641-3.99,16.388
			C543.384,527.961,530.008,541.381,515.754,555.635z"/>
	</g>
</g>
</svg>
