<?xml version="1.0" encoding="utf-8"?>
<!-- Generator: Adobe Illustrator 16.0.0, SVG Export Plug-In . SVG Version: 6.00 Build 0)  -->
<!DOCTYPE svg PUBLIC "-//W3C//DTD SVG 1.1//EN" "http://www.w3.org/Graphics/SVG/1.1/DTD/svg11.dtd">
<svg version="1.1" xmlns="http://www.w3.org/2000/svg" xmlns:xlink="http://www.w3.org/1999/xlink" x="0px" y="0px" width="1024px"
	 height="1024px" viewBox="0 0 1024 1024" enable-background="new 0 0 1024 1024" xml:space="preserve">
<g id="Layer_1" display="none">
	<g display="inline">
		<path fill="#8BFF5F" d="M887.55,419.31C866.351,334.565,821.526,265,752.49,211.539c-70.21-54.37-150.434-80.086-244.937-80.859
			c-23.438-0.068-61.271,4.335-87.841,11.076c-86.53,21.95-158.069,67.259-212.848,137.984
			c-46.966,60.641-72.083,129.81-77.156,206.161c-1.656,24.921-0.63,49.891,2.613,74.761c4.335,33.237,12.892,65.298,25.619,96.246
			c26.31,63.976,67.521,116.526,122.663,158.063c60.134,45.297,128.109,70.255,203.015,76.403
			c22.271,1.828,44.559,1.408,66.859-0.704c24.854-2.354,49.326-6.567,73.198-13.739C703.12,853.063,768.835,808.896,819.52,743
			c50.854-66.114,76.561-141.221,78.91-224.399C899.378,485.045,895.705,451.913,887.55,419.31z M765.558,623.063
			c-0.012,8.705-5.635,14.413-14.251,14.428c-25.497,0.042-50.994,0.047-76.492,0.001c-8.711-0.017-14.299-5.687-14.305-14.371
			c-0.02-26.664,0.04-53.329-0.058-79.993c-0.019-4.811,1.495-8.712,4.969-11.985c5.083-4.791,9.373-11.103,15.341-14.083
			c5.854-2.923,13.383-2.49,20.708-3.611c0.873-15.264-2.985-29.855-12.864-42.185c-15.576-19.438-27.931-40.461-33.392-64.884
			c-2.265-10.126-3.214-20.657-3.682-31.054c-1.019-22.625-7.114-43.303-22.529-60.27c-20.348-22.395-45.795-32.098-76.062-28.809
			c-34.149,3.713-64.506,28.767-73.051,67.209c-1.035,4.662-1.246,9.507-1.938,15.046c22.144,0,43.275-0.036,64.407,0.043
			c2.798,0.011,5.652,0.344,8.377,0.978c6.767,1.577,12.095,5.326,15.721,11.332c12.7,21.038,25.358,42.102,38.104,63.111
			c4.699,7.747,6.863,16.218,6.875,25.123c0.091,76.494,0.078,152.987,0.041,229.481c-0.009,15.317-10.593,25.753-26.263,25.896
			c-14.997,0.138-29.997,0.031-44.996,0.031c-63.493,0-126.988,0.005-190.483-0.002c-15.344-0.002-25.056-8.728-25.313-23.96
			c-0.446-26.49-0.302-52.991-0.314-79.487c-0.024-49.496,0.119-98.992-0.049-148.487c-0.04-11.822,2.692-22.396,9.114-32.483
			c11.859-18.623,23.073-37.66,34.424-56.604c6.105-10.189,14.831-15.141,26.776-15.025c19.986,0.193,39.977,0.053,59.903,0.053
			c1.413-8.22,2.077-16.377,4.265-24.102c12.41-43.815,41.024-70.884,85.674-79.852c58.403-11.731,116.658,27.634,128.001,89.406
			c1.582,8.616,1.556,17.548,2.007,26.347c1.328,25.91,10.644,48.816,26.618,68.929c14.72,18.53,24.236,38.75,23.704,62.901
			c-0.014,0.626,0.161,1.256,0.291,2.186c1.285,0.066,2.409,0.168,3.533,0.178c3,0.023,6.001-0.055,8.999,0.021
			c10.286,0.263,28.18,18.342,28.192,28.556C765.597,569.734,765.592,596.399,765.558,623.063z"/>
		<path fill="#8BFF5F" d="M515.754,555.635c12.992,12.995,25.628,25.342,37.865,38.066c3.063,3.188,6.521,7.463,6.822,11.463
			c0.357,4.745-1.191,10.841-4.213,14.401c-7.834,9.23-16.863,17.455-25.54,25.959c-7.014,6.876-16.266,7.036-23.275,0.156
			c-13.494-13.239-26.773-26.699-40.791-40.715c-8.429,8.429-16.441,16.449-24.464,24.461c-5.328,5.322-10.55,10.762-16.036,15.916
			c-7.822,7.349-16.841,7.28-24.499-0.17c-8.185-7.963-16.261-16.04-24.242-24.205c-7.449-7.621-7.463-16.826,0.002-24.422
			c12.938-13.164,26.014-26.199,39.022-39.296c0.156-0.156,0.205-0.417,0.794-1.678c-4.945-4.943-10.201-10.19-15.446-15.445
			c-7.896-7.911-15.879-15.734-23.655-23.76c-7.61-7.853-7.466-17.937,0.242-25.767c7.499-7.616,15.074-15.16,22.671-22.682
			c8.503-8.418,18.291-8.516,26.827-0.083c12.927,12.77,25.72,25.677,39.156,39.113c13.726-13.728,27.117-27.015,40.377-40.431
			c4.871-4.928,12.033-8.728,16.849-4.659c13.108,11.07,25.365,23.354,36.583,36.347c3.837,4.444,0.78,11.641-3.99,16.388
			C543.384,527.961,530.008,541.381,515.754,555.635z"/>
	</g>
</g>
<g id="Layer_2">
	<g>
		<path fill-rule="evenodd" clip-rule="evenodd" d="M513.446,130.659c211.99,1.888,375.639,162.556,382.944,365.321
			c8.027,222.807-168.218,398.091-381.849,397.719C302.658,893.33,130.963,723.41,131.381,510.595
			C131.789,303.032,293.264,133.616,513.446,130.659z M460.821,598.313c14.062,5.238,27.837,10.37,41.946,15.625
			c-0.155,0.357,0.189-0.38,0.488-1.133c31.889-80.42,63.731-160.859,95.689-241.251c8.501-21.386,16.091-43.411,29.975-62.007
			c13.706-18.357,28.748-35.733,43.536-53.259c6.616-7.841,6.551-13.463-2.212-18.878c-9.131-5.642-18.649-10.658-28.04-15.875
			c-4.907-2.726-9.381-1.839-12.733,2.562c-3.092,4.057-5.781,8.429-8.532,12.735c-24.191,37.863-46.303,76.733-62.439,118.92
			c-20.982,54.86-42.848,109.385-64.692,163.911C483.237,546.041,471.849,572.091,460.821,598.313z M451.806,614.506
			c-0.516,0.88-0.869,1.447-1.188,2.031c-14.014,25.574-31.023,48.648-53.437,67.74c-11.569,9.854-22.574,20.65-32.338,32.278
			c-17.288,20.587-15.58,47.372,2.951,66.935c15.605,16.475,35.106,24.042,57.445,23.971c27.6-0.088,45.789-14.168,51.03-41.487
			c3.656-19.057,4.096-38.714,6.377-58.055c1.876-15.916,3.907-31.839,6.716-47.608c1.779-9.983,5.11-19.69,7.736-29.487
			C481.958,625.368,467.099,620.015,451.806,614.506z"/>
		<path fill-rule="evenodd" clip-rule="evenodd" d="M377.671,742.622c0.023-4.498,3.823-8.757,7.685-8.613
			c3.972,0.146,7.469,3.776,7.414,7.693c-0.059,4.285-3.929,8.559-7.856,8.674C381.158,750.487,377.65,746.729,377.671,742.622z"/>
		<path fill-rule="evenodd" clip-rule="evenodd" d="M443.339,738.035c-3.905-0.111-6.952-3.762-6.789-8.132
			c0.157-4.195,3.575-7.421,7.738-7.303c4.156,0.117,7.551,3.874,7.404,8.191C451.552,734.901,447.79,738.163,443.339,738.035z"/>
		<path fill-rule="evenodd" clip-rule="evenodd" d="M418.621,713.315c-0.154,4.215-4.612,8.382-8.823,8.249
			c-4.226-0.135-6.702-2.92-6.555-7.377c0.153-4.633,4.201-8.38,8.711-8.062C415.47,706.372,418.744,709.905,418.621,713.315z"/>
		<path fill-rule="evenodd" clip-rule="evenodd" d="M415.586,756.649c-4.582-0.077-7.206-2.58-7.14-6.813
			c0.065-4.315,3.91-7.788,8.5-7.679c3.507,0.084,6.749,3.494,6.706,7.056C423.6,753.464,420.062,756.725,415.586,756.649z"/>
		<path fill-rule="evenodd" clip-rule="evenodd" d="M411.575,777.502c-0.028,4.42-2.654,7.336-6.623,7.352
			c-4.292,0.018-7.28-3.056-7.238-7.447c0.049-5.144,2.872-8.572,6.885-8.36C408.622,769.258,411.604,772.873,411.575,777.502z"/>
		<path fill-rule="evenodd" clip-rule="evenodd" d="M444.218,758.579c4.27-0.01,6.753,2.432,6.725,6.614
			c-0.027,4.133-3.038,7.052-7.226,6.941c-4.148-0.109-6.305-2.356-6.406-6.426C437.201,761.265,439.886,758.59,444.218,758.579z"/>
	</g>
</g>
</svg>
