<?xml version="1.0" encoding="utf-8"?>
<!-- Generator: Adobe Illustrator 16.0.0, SVG Export Plug-In . SVG Version: 6.00 Build 0)  -->
<!DOCTYPE svg PUBLIC "-//W3C//DTD SVG 1.1//EN" "http://www.w3.org/Graphics/SVG/1.1/DTD/svg11.dtd">
<svg version="1.1" id="Layer_1" xmlns="http://www.w3.org/2000/svg" xmlns:xlink="http://www.w3.org/1999/xlink" x="0px" y="0px"
	 width="1024px" height="1024px" viewBox="0 0 1024 1024" enable-background="new 0 0 1024 1024" xml:space="preserve">
<path fill-rule="evenodd" clip-rule="evenodd" d="M515.882,898.95c-89.173-0.755-168.823-26.129-238.692-79.545
	c-66.487-50.83-110.691-117.342-134.615-197.375c-7.665-25.645-12.817-51.868-14.015-78.647c-0.864-19.325-1.97-38.792-0.645-58.035
	c4.89-70.963,27.389-136.156,68.093-194.567c53.223-76.377,125.671-125.732,215.282-150.054
	c35.721-9.696,72.248-13.939,109.224-12.977c82.167,2.139,157.407,25.698,223.999,74.56
	C812.647,252.304,858.3,318.41,883.331,398.896c7.064,22.717,11.538,46.005,14.193,69.686c2.795,24.896,2.841,49.734,0.966,74.69
	c-5.292,70.315-27.726,134.659-68.377,192.14c-56.739,80.229-133.53,131.225-229.237,153.703
	C572.436,895.794,543.581,898.665,515.882,898.95z M568.033,288.974c-30.105,0-60.211,0-90.317,0
	c-30.107,0-60.213-0.042-90.319,0.047c-4.192,0.012-8.425,0.394-12.563,1.069c-10.086,1.646-14.378,8.512-11.347,18.225
	c2.115,6.78,4.821,13.375,6.943,20.151c2.217,7.08,0.292,9.48-6.944,9.54c-16.879,0.138-33.802-0.352-50.626,0.694
	c-16.717,1.037-32.938,5.233-46.785,15.259c-22.555,16.331-31.588,39.808-32.358,66.583c-0.36,12.535,1.43,25.2,3.013,37.708
	c4.357,34.465,16.405,66.108,36.085,94.777c15.115,22.021,33.141,41.56,52.083,60.27c3.801,3.756,5.248,7.771,5.603,13.067
	c0.719,10.747,1.377,21.661,3.817,32.096c9.284,39.702,33.756,66.875,70.78,83.167c22.442,9.874,46.286,11.736,70.333,11.858
	c39.284,0.197,78.569,0.182,117.852-0.018c20.142-0.105,40.259-0.844,59.883-6.303c47.763-13.289,84.913-50.801,90.184-106.144
	c2.843-29.875-0.272-59.354-7.308-88.261c-11.028-45.308-22.524-90.523-35.092-135.423c-7.824-27.953-2.242-51.177,18.69-70.922
	c5.473-5.159,11.132-10.121,16.716-15.161c8.438-7.617,17.046-15.054,25.26-22.908c3.745-3.581,5.587-8.487,3.095-13.515
	c-2.382-4.801-7.169-5.863-12.183-5.859c-0.735,0.001-1.468,0.002-2.203,0.002C689.561,288.974,628.795,288.974,568.033,288.974z"/>
<path fill-rule="evenodd" clip-rule="evenodd" d="M341.991,376.05c8.071,0,16.146-0.131,24.215,0.036
	c8.544,0.176,11.647,4.126,9.616,12.359c-9.036,36.597-18.337,73.129-27.196,109.767c-3.939,16.284-6.902,32.803-10.722,49.119
	c-0.604,2.584-3.025,5.947-5.285,6.6c-2.278,0.66-6.174-0.836-8.044-2.704c-28.491-28.462-45.969-62.573-50.292-102.737
	c-1.318-12.246-1.509-25.032,0.49-37.123c3.468-20.972,21.664-34.797,43.555-35.313c7.883-0.185,15.776-0.029,23.664-0.029
	C341.991,376.032,341.991,376.041,341.991,376.05z"/>
</svg>
