<?xml version="1.0" encoding="utf-8"?>
<!-- Generator: Adobe Illustrator 16.0.0, SVG Export Plug-In . SVG Version: 6.00 Build 0)  -->
<!DOCTYPE svg PUBLIC "-//W3C//DTD SVG 1.1//EN" "http://www.w3.org/Graphics/SVG/1.1/DTD/svg11.dtd">
<svg version="1.1" id="Layer_1" xmlns="http://www.w3.org/2000/svg" xmlns:xlink="http://www.w3.org/1999/xlink" x="0px" y="0px"
	 width="1024px" height="1024px" viewBox="0 0 1024 1024" enable-background="new 0 0 1024 1024" xml:space="preserve">
<path fill-rule="evenodd" clip-rule="evenodd" d="M519.608,933.875c-0.95,0-1.944-0.073-2.956-0.217
	c-6.212-0.882-15.154-9.123-15.261-15.646c-0.915-57.38-29.179-105.761-56.513-152.549l-3.071-5.26
	c-1.812-3.105-6.73-6.36-11.44-7.571c-65.212-16.752-119.091-32.032-169.347-63.063c-37.688-23.272-69.198-53.312-93.656-89.284
	c-22.857-33.617-40.202-73.38-51.554-118.182c-7.455-29.423-11.027-60.219-14.482-90.001c-0.62-5.344-1.239-10.684-1.88-16.013
	c-1.266-10.521-1.26-17.934,2.673-22.369c3.282-3.7,8.231-4.128,11.668-4.128c3.187,0,7.196,0.425,12.999,1.38
	c60.553,9.968,105.728,22.988,146.478,42.216c49.923,23.558,90.799,56.563,121.493,98.098
	c29.015,39.265,49.782,87.324,61.725,142.841c4.297,19.983,6.125,40.715,7.893,60.764c0.917,10.406,1.867,21.166,3.148,31.646
	c0.72,5.869,2.302,11.293,4.576,15.685c8.063,15.564,16.582,31.247,24.819,46.414c1.293,2.38,2.586,4.761,3.878,7.142
	c-0.044-11.928-0.146-23.903-0.246-35.577c-0.316-37.122-0.644-75.509,0.891-113.237c1.126-27.712-6.106-48.79-24.186-70.479
	c-36.954-44.325-60.454-86.987-71.845-130.424c-18.905-72.092-8.74-142.966,30.214-210.656
	c14.558-25.296,32.382-49.137,49.62-72.192c5.157-6.897,10.49-14.03,15.641-21.077c5.705-7.802,11.721-9.439,15.763-9.439
	c5.04,0,10.035,2.51,14.446,7.259c35.83,38.581,75.003,86.053,93.871,145.625c14.758,46.599,18.778,91.721,11.952,134.114
	c-6.954,43.184-25.344,84.655-54.657,123.264c-3.261,4.296-6.481,8.789-9.596,13.134c-6.84,9.544-13.913,19.412-22.087,28.16
	c-10.745,11.5-15.002,23.831-14.693,42.561c0.738,44.874,0.618,88.789,0.49,135.282c-0.035,12.512-0.07,25.332-0.087,38.196
	c7.003-12.132,12.325-23.793,11.947-39.576c-1.813-75.521,22.74-150.729,69.134-211.769
	c46.388-61.032,112.644-105.306,186.561-124.667c27.209-7.127,55.809-10.229,83.467-13.23c8.264-0.896,16.808-1.823,25.156-2.842
	c1.624-0.198,3.17-0.298,4.596-0.298c5.895,0,10.328,1.717,13.179,5.103c3.294,3.912,4.23,9.653,2.865,17.553
	c-13.719,79.431-34.115,162.72-89.975,233.708c-41.24,52.405-96.449,89.478-168.781,113.334
	c-19.479,6.424-39.744,11.285-59.343,15.987c-11.195,2.686-22.771,5.462-34.035,8.492c-3.271,0.88-7.002,3.54-7.985,5.694
	c-12.732,27.881-24.08,53.054-34.009,78.777c-1.786,4.629-1.799,10.186-1.813,16.068c-0.008,3.623-0.018,7.369-0.457,11.049
	C534.795,930.37,526.345,933.875,519.608,933.875z M786.47,527.231c4.853,0,9.077,2.427,12.555,7.212
	c3.161,4.349,4.354,8.843,3.541,13.355c-1.031,5.735-5.271,11.111-12.602,15.98c-0.588,0.392-1.196,0.885-1.842,1.408
	c-0.324,0.263-0.649,0.526-0.979,0.783c-57.261,44.724-108.751,94.772-153.043,148.755c-9.73,11.857-18.643,24.337-28.078,37.548
	c-2.519,3.527-5.086,7.122-7.71,10.762c172.571-35.058,269.537-139.53,296.205-318.999
	c-141.615,4.193-294.677,103.39-310.355,281.962c49.888-70.838,112.006-134.89,184.633-190.379
	C773.431,532.08,779.778,527.231,786.47,527.231z M134.662,387.513c25.675,236.066,147.683,290.086,272.983,321.358
	c-42.876-60.599-95.597-120.384-160.988-182.57c-10.402-9.893-11.746-19.274-3.995-27.886c3.788-4.208,8.071-6.341,12.731-6.341
	c5.089,0,10.276,2.588,15.416,7.693c49.76,49.419,106.981,108.683,158.037,176.721c-10.26-84.607-41.978-150.878-96.709-202.257
	C271.48,417.288,195.425,397.75,134.662,387.513z M516.663,180.093c-28.867,34.958-49.806,68.619-63.952,102.787
	c-21.661,52.315-27.028,99.275-16.407,143.563c7.942,33.118,23.797,65.259,51.406,104.215c3.894,5.498,8.061,10.98,12.091,16.282
	c0.342,0.45,0.684,0.899,1.026,1.35l0.002-214.689c0-0.97,0.01-1.94,0.02-2.911c0.021-2.074,0.041-4.034-0.032-5.999
	c-0.196-5.284,0.106-12.894,4.967-17.937c3.085-3.201,7.496-4.824,13.112-4.824h0.025c6.968,0.004,11.856,2.64,14.53,7.833
	c2.162,4.199,2.452,9.395,2.444,14.385l-0.414,223.523c46.369-49.826,70.329-109.09,69.407-171.982
	C603.854,304.962,571.755,233.911,516.663,180.093z"/>
</svg>
