<?xml version="1.0" encoding="utf-8"?>
<!-- Generator: Adobe Illustrator 16.0.0, SVG Export Plug-In . SVG Version: 6.00 Build 0)  -->
<!DOCTYPE svg PUBLIC "-//W3C//DTD SVG 1.1//EN" "http://www.w3.org/Graphics/SVG/1.1/DTD/svg11.dtd">
<svg version="1.1" id="Layer_1" xmlns="http://www.w3.org/2000/svg" xmlns:xlink="http://www.w3.org/1999/xlink" x="0px" y="0px"
	 width="1024px" height="1024px" viewBox="0 0 1024 1024" enable-background="new 0 0 1024 1024" xml:space="preserve">
<g>
	<path d="M120.108,508.043c1.119-216.616,175.104-394.516,399.583-391.184c221.522,3.288,389.784,180.744,388.785,392.703
		c-1.026,217.99-177.421,393.758-394.979,392.11C293.211,900.004,120.971,725.97,120.108,508.043z M623.917,446.08
		c-0.065-1.119-0.117-1.639-0.125-2.16c-0.14-8.751-3.067-11.565-11.863-11.561c-32.523,0.017-65.048,0.004-97.572,0.007
		c-51.072,0.002-102.145,0.093-153.216-0.087c-7.103-0.025-11.144,4.613-11.06,10.942c0.326,24.814,0.092,49.635,0.174,74.452
		c0.014,4.16,0.286,8.36,0.913,12.469c3.563,23.366,12.826,44.159,29.285,61.272c20.238,21.042,44.751,33.134,74.378,33.354
		c22.727,0.17,45.457,0.156,68.183-0.055c5.416-0.05,10.964-0.639,16.209-1.949c34.957-8.736,59.651-29.986,74.862-62.436
		c1.063-2.269,2.155-2.972,4.57-2.996c9.118-0.092,18.325,0.285,27.336-0.831c29.271-3.627,51.667-36.22,45.882-65.107
		c-5.871-29.305-30.9-45.71-56.401-45.324C631.71,446.129,627.949,446.08,623.917,446.08z"/>
	<path d="M624.001,530.208c0-19.037,0-37.377,0-55.968c10.271,0.062,20.46-1.498,29.394,5.399
		c8.499,6.563,13.071,18.058,10.189,28.835c-2.918,10.908-10.024,18.259-21.188,20.535
		C636.504,530.212,630.291,529.851,624.001,530.208z"/>
</g>
</svg>
