<?xml version="1.0" encoding="utf-8"?>
<!-- Generator: Adobe Illustrator 16.0.0, SVG Export Plug-In . SVG Version: 6.00 Build 0)  -->
<!DOCTYPE svg PUBLIC "-//W3C//DTD SVG 1.1//EN" "http://www.w3.org/Graphics/SVG/1.1/DTD/svg11.dtd">
<svg version="1.1" id="Layer_1" xmlns="http://www.w3.org/2000/svg" xmlns:xlink="http://www.w3.org/1999/xlink" x="0px" y="0px"
	 width="1024px" height="1024px" viewBox="0 0 1024 1024" enable-background="new 0 0 1024 1024" xml:space="preserve">
<path fill-rule="evenodd" clip-rule="evenodd" d="M515.882,898.95c-89.173-0.755-168.823-26.129-238.692-79.545
	c-66.487-50.83-110.691-117.342-134.615-197.375c-7.665-25.645-12.817-51.868-14.015-78.647c-0.864-19.325-1.97-38.792-0.645-58.035
	c4.89-70.963,27.389-136.156,68.093-194.567c53.223-76.377,125.671-125.732,215.282-150.054
	c35.721-9.696,72.248-13.939,109.224-12.977c82.167,2.139,157.407,25.698,223.999,74.56
	C812.647,252.304,858.3,318.41,883.331,398.896c7.064,22.717,11.538,46.005,14.193,69.686c2.795,24.896,2.841,49.734,0.966,74.69
	c-5.292,70.315-27.726,134.659-68.377,192.14c-56.739,80.229-133.53,131.225-229.237,153.703
	C572.436,895.794,543.581,898.665,515.882,898.95z M550.586,348.344c-22.412,0-44.824,0-67.236,0
	c-22.414,0-44.825-0.031-67.238,0.035c-3.121,0.009-6.271,0.293-9.353,0.796c-7.508,1.225-10.704,6.337-8.447,13.567
	c1.575,5.047,3.589,9.957,5.169,15.001c1.65,5.271,0.218,7.058-5.169,7.102c-12.566,0.103-25.164-0.262-37.689,0.517
	c-12.445,0.772-24.52,3.896-34.829,11.359c-16.791,12.157-23.516,29.635-24.089,49.567c-0.269,9.332,1.064,18.76,2.243,28.072
	c3.244,25.657,12.212,49.213,26.863,70.556c11.252,16.394,24.672,30.939,38.772,44.868c2.83,2.796,3.907,5.784,4.171,9.728
	c0.536,8.001,1.025,16.126,2.841,23.894c6.912,29.557,25.13,49.785,52.692,61.913c16.707,7.351,34.458,8.737,52.359,8.828
	c29.245,0.147,58.491,0.136,87.735-0.013c14.994-0.079,29.971-0.628,44.579-4.692c35.557-9.893,63.214-37.818,67.138-79.019
	c2.116-22.24-0.203-44.186-5.44-65.705c-8.21-33.729-16.769-67.39-26.124-100.815c-5.825-20.81-1.669-38.099,13.914-52.798
	c4.074-3.84,8.287-7.535,12.444-11.286c6.281-5.67,12.689-11.207,18.804-17.054c2.788-2.666,4.159-6.318,2.305-10.061
	c-1.773-3.574-5.337-4.365-9.069-4.362c-0.548,0.001-1.093,0.002-1.641,0.002C641.057,348.344,595.819,348.344,550.586,348.344z"/>
<path fill-rule="evenodd" clip-rule="evenodd" d="M382.309,413.167c6.009,0,12.02-0.098,18.026,0.026
	c6.361,0.131,8.671,3.072,7.159,9.201c-6.727,27.244-13.651,54.44-20.246,81.716c-2.933,12.123-5.139,24.419-7.982,36.567
	c-0.45,1.923-2.252,4.427-3.935,4.913c-1.696,0.491-4.596-0.623-5.988-2.014c-21.21-21.188-34.222-46.582-37.44-76.482
	c-0.981-9.117-1.124-18.635,0.365-27.636c2.582-15.613,16.127-25.905,32.425-26.289c5.869-0.138,11.744-0.021,17.617-0.021
	C382.309,413.154,382.309,413.161,382.309,413.167z"/>
</svg>
