<?xml version="1.0" encoding="utf-8"?>
<!-- Generator: Adobe Illustrator 16.0.0, SVG Export Plug-In . SVG Version: 6.00 Build 0)  -->
<!DOCTYPE svg PUBLIC "-//W3C//DTD SVG 1.1//EN" "http://www.w3.org/Graphics/SVG/1.1/DTD/svg11.dtd">
<svg version="1.1" id="Layer_1" xmlns="http://www.w3.org/2000/svg" xmlns:xlink="http://www.w3.org/1999/xlink" x="0px" y="0px"
	 width="1024px" height="1024px" viewBox="0 0 1024 1024" enable-background="new 0 0 1024 1024" xml:space="preserve">
<path fill-rule="evenodd" clip-rule="evenodd" d="M903.408,512.902c0.385,210.271-169.4,384.511-379.933,388.873
	c-221.164,4.581-393.037-172.506-397.514-380.039C121.078,295.4,299.279,125.002,514.832,125.352
	C727.946,125.695,903.178,291.86,903.408,512.902z M303.589,484.978c0.028,16.741,4.059,26.438,11.995,34.387
	c56.896,56.972,113.812,113.924,170.79,170.813c16.238,16.212,39.514,16.482,55.782,0.265
	c57.186-57.005,114.248-114.132,171.2-171.366c16.554-16.636,16.719-39.855,0.898-57.238c-4.627-5.084-9.606-9.85-14.456-14.73
	c-51.586-51.9-103.454-103.525-154.616-155.837c-17.675-18.073-42.888-16.745-56.947-2.693
	c-57.599,57.566-115.172,115.159-172.666,172.832C307.682,469.322,303.548,479.06,303.589,484.978z"/>
</svg>
