<?xml version="1.0" encoding="utf-8"?>
<!-- Generator: Adobe Illustrator 16.0.0, SVG Export Plug-In . SVG Version: 6.00 Build 0)  -->
<!DOCTYPE svg PUBLIC "-//W3C//DTD SVG 1.1//EN" "http://www.w3.org/Graphics/SVG/1.1/DTD/svg11.dtd">
<svg version="1.1" id="Layer_1" xmlns="http://www.w3.org/2000/svg" xmlns:xlink="http://www.w3.org/1999/xlink" x="0px" y="0px"
	 width="1024px" height="1024px" viewBox="0 0 1024 1024" enable-background="new 0 0 1024 1024" xml:space="preserve">
<path fill-rule="evenodd" clip-rule="evenodd" d="M246.894,641.998c-24.459-32.664-42.611-67.689-53.179-106.234
	c-4.92-17.949-7.587-36.523-11.13-54.841c-1.199-6.199,1.031-9.803,7.993-9.856c3.319-0.026,6.63-1.096,10.041-1.711
	c-3.691-19.02-8.556-37.411-10.59-56.11c-3.105-28.522-4.522-57.243-6.109-85.91c-0.7-12.654-0.176-25.385,0.015-38.078
	c0.166-10.974,4.466-15.314,15.381-14.32c73.759,6.724,141.299,30.178,199.632,76.715c53.06,42.332,92.726,94.71,115.193,159.312
	c10.733,30.86,17.359,62.647,19.914,95.196c2.287,29.15,3.482,58.391,5.973,87.521c2.26,26.426,7.236,52.328,20.181,76.893
	c39.97-116.914,84.966-231.155,130.828-345.855c-9.179,9.976-55.374,94.797-71.367,129.029
	c-20.829,44.578-38.494,90.373-53.657,137.176c-0.885-0.063-1.771-0.123-2.659-0.184c0-16.654,0.767-33.35-0.134-49.955
	c-3.793-70.072-18.336-137.484-51.779-199.888c-2.954-5.512-3.164-9.945-0.527-15.535c11.064-23.469,21.684-47.148,32.637-70.67
	c1.816-3.904,4.482-7.414,7.432-12.203c4.244,5.268,7.787,9.665,11.533,14.314c23.255-53.339,57.094-97.45,106.359-131.52
	c0.668,7.415,1.196,13.272,1.794,19.91c7.055-6.344,13.722-12.536,20.595-18.488c35.286-30.561,74.728-53.101,120.946-62.577
	c10.858-2.226,15.562,0.13,18.287,10.919c11.169,44.206,16.14,88.969,11.608,134.561c-0.913,9.187-1.163,18.438-1.76,28.355
	c2.661-0.61,4.685-1.062,6.703-1.537c8.927-2.101,10.767-1.369,10.483,7.781c-0.649,20.908-1.145,41.921-3.688,62.647
	c-4.473,36.457-15.234,71.449-28.966,106.883c3.758,0,6.554-0.002,9.35,0c5.764,0.006,8.279,1.77,6.849,8.467
	c-6.94,32.512-20.333,62.422-38.571,89.777c-16.847,25.266-36.063,48.951-54.228,73.336c-0.682,0.914-1.297,1.877-2.248,3.266
	c4.436,1.078,8.294,2.014,13.374,3.248c-1.972,2.438-3.228,4.373-4.843,5.938c-43.255,41.859-94.682,67.525-154.142,76.504
	c-11.152,1.686-17.661,5.443-19.916,17.143c-4.715,24.473-10.357,48.768-15.743,73.109c-1.092,4.936-2.262,9.949-4.216,14.58
	c-3.855,9.133-8.861,12.314-15.804,10.988c-7.571-1.445-13.58-8.93-13.745-17.549c-0.127-6.586-0.215-13.203,0.252-19.766
	c5.389-75.789-17.186-143.215-59.988-205.023c-26.715-38.58-58.819-72.117-92.978-103.922c-5.511-5.131-11.103-10.175-17.439-14.593
	c7.636,9.408,15.287,18.804,22.907,28.224c51.635,63.836,95.33,132.539,127.595,208.244c3.823,8.971,3.116,10.707-6.452,13.328
	c-49.079,13.434-97.227,9.895-144.262-8.895c-53.492-21.369-96.977-55.295-127.944-104.314c-9.734-15.41-6.916-12.43,5.417-19.154
	C240.873,645.162,243.677,643.707,246.894,641.998z"/>
</svg>
