<?xml version="1.0" encoding="utf-8"?>
<!-- Generator: Adobe Illustrator 16.0.0, SVG Export Plug-In . SVG Version: 6.00 Build 0)  -->
<!DOCTYPE svg PUBLIC "-//W3C//DTD SVG 1.1//EN" "http://www.w3.org/Graphics/SVG/1.1/DTD/svg11.dtd">
<svg version="1.1" id="Layer_1" xmlns="http://www.w3.org/2000/svg" xmlns:xlink="http://www.w3.org/1999/xlink" x="0px" y="0px"
	 width="1024px" height="1024px" viewBox="0 0 1024 1024" enable-background="new 0 0 1024 1024" xml:space="preserve">
<path fill-rule="evenodd" clip-rule="evenodd" d="M457.018,865.38c-83.561-2.973-158.397-30.501-225.18-80.414
	c-21.667-16.194-41.455-34.521-59.277-54.906c-11.681-13.361-10.487-25.398,2.204-37.816c28.82-28.201,57.268-56.785,85.788-85.291
	c78.139-78.097,156.235-156.235,234.351-234.355c53.723-53.727,107.466-107.433,161.15-161.197
	c5.646-5.656,10.917-11.687,16.43-17.479c9.101-9.562,21.118-10.445,31.105-1.846c25.278,21.767,46.089,47.478,64.8,74.917
	c28.652,42.017,49.271,87.688,60.511,137.346c5.122,22.633,8.655,45.532,9.821,68.834c4.676,93.41-22.09,176.913-79.283,250.495
	c-37.431,48.157-85.188,83.563-140.594,108.773c-29.352,13.355-60.056,22.401-91.789,27.783
	C503.918,864.146,480.568,866.137,457.018,865.38z M638.174,276.59c7.775,6.07,15.328,11.526,22.384,17.563
	c16.844,14.409,28.224,33.07,38.892,52.073c6.131,10.92,11.802,22.261,16.139,33.981c5.159,13.945-0.246,26.079-13.408,33.008
	c-4.481,2.359-9.45,4.046-14.389,5.241c-48.651,11.773-97.332,23.423-146.028,35.006c-16.058,3.819-32.231,7.155-48.261,11.082
	c-8.025,1.966-12.5,9.391-10.806,16.569c1.746,7.401,8.09,11.043,16.656,9.297c11.344-2.313,22.687-4.651,33.967-7.252
	c51.046-11.771,102.037-23.78,153.136-35.314c7.467-1.686,15.693-2.854,23.069-1.515c16.31,2.965,27.534,18.194,27.876,36.028
	c0.543,28.338-2.005,56.319-9.874,83.722c-7.743,26.964-18.082,52.623-35.479,74.973c-14.114,18.132-39.873,20.751-55.235,5.526
	c-35.154-34.839-70.247-69.738-105.348-104.631c-9.336-9.28-18.544-18.69-27.94-27.908c-4.447-4.362-9.805-5.352-15.608-2.922
	c-9.442,3.953-10.582,14.699-2.35,22.924c36.901,36.862,73.848,73.68,110.761,110.531c7.075,7.064,13.787,14.521,21.166,21.249
	c14.419,13.147,14.87,35.26,0.041,51.214c-10.19,10.962-23.151,17.6-36.307,24.016c-42.217,20.591-86.604,29.822-133.563,25.436
	c-23.196-2.167-36.55-20.481-32.809-42.864c2.26-13.515,6.077-26.766,9.116-40.152c11.454-50.45,22.892-100.903,34.292-151.364
	c1.539-6.815-1.835-12.515-8.516-14.849c-8.513-2.974-16.596,2.514-19.018,13.093c-12.098,52.854-24.084,105.733-36.27,158.566
	c-2.67,11.574-5.087,23.339-9.242,34.407c-5.397,14.382-19.84,21.719-34.354,17.075c-11.395-3.646-22.29-9.265-32.846-15.034
	c-26.786-14.644-51.384-31.931-66.364-60.166c-2.194,1.873-4.377,3.62-6.426,5.512c-3.794,3.503-7.623,6.98-11.234,10.667
	c-8.845,9.029-8.856,17.344,0.484,25.733c8.781,7.887,17.821,15.523,27.127,22.782c54.982,42.892,117.772,65.574,186.976,70.284
	c36.919,2.514,73.194-2.737,108.402-14.378c57.786-19.104,105.93-52.382,144.899-99.044
	c41.122-49.238,63.875-106.033,69.527-169.771c2.436-27.462,1.637-54.905-3.087-82.068c-8.058-46.335-23.875-89.872-50.204-129.026
	c-11.661-17.342-24.877-33.67-37.921-50.033c-5.535-6.942-14.231-7.335-20.301-1.575
	C652.424,261.373,645.486,269.029,638.174,276.59z"/>
</svg>
