<?xml version="1.0" encoding="utf-8"?>
<!-- Generator: Adobe Illustrator 16.0.0, SVG Export Plug-In . SVG Version: 6.00 Build 0)  -->
<!DOCTYPE svg PUBLIC "-//W3C//DTD SVG 1.1//EN" "http://www.w3.org/Graphics/SVG/1.1/DTD/svg11.dtd">
<svg version="1.1" id="Layer_1" xmlns="http://www.w3.org/2000/svg" xmlns:xlink="http://www.w3.org/1999/xlink" x="0px" y="0px"
	 width="1024px" height="1024px" viewBox="0 0 1024 1024" enable-background="new 0 0 1024 1024" xml:space="preserve">
<path fill-rule="evenodd" clip-rule="evenodd" d="M512.665,966.869c-61.356,0-120.901-12.103-176.98-35.971
	c-54.086-23.02-102.628-55.932-144.275-97.821c-41.515-41.757-74.036-90.279-96.66-144.22
	c-23.427-55.854-35.125-115.019-34.772-175.847c0.718-123.565,48.491-238.585,134.519-323.873
	c41.614-41.256,90.112-73.614,144.147-96.174c55.561-23.198,114.604-34.996,175.49-35.065l1.223-0.001
	c120.811,0,234.439,47.302,319.955,133.193c42.159,42.345,75.253,91.64,98.361,146.518c23.652,56.169,35.513,115.14,35.249,175.273
	c-0.263,60.041-11.967,118.491-34.786,173.725c-22.37,54.144-54.378,102.762-95.136,144.503
	c-85.245,87.301-200.819,135.516-325.434,135.761L512.665,966.869z M514.213,115.656c-219.455,0-393.579,172.601-396.411,392.943
	c-1.375,106.956,38.809,207.34,113.15,282.661c74.886,75.873,175.197,117.672,282.457,117.697
	c218.189,0.008,396.574-177.749,397.748-396.25c-0.366-215.922-175.931-394.059-391.361-397.012
	C517.936,115.669,516.068,115.656,514.213,115.656z"/>
<path fill-rule="evenodd" clip-rule="evenodd" d="M552.536,755.597c-28.774,0-58.933-0.081-89.638-0.241
	c-5.005-0.025-9.929-0.831-14.238-2.33c-14.951-5.207-23.692-18.61-21.753-33.354c1.984-15.072,15.052-26.311,31.073-26.724
	c4.376-0.112,9.076-0.165,14.791-0.165c3.689,0,7.414,0.021,11.201,0.043c0.005,0,0.01,0,0.015,0l3.802-241.206l-28.003,0
	c-13.631-0.002-24.17-7.076-28.917-19.406c-3.396-8.829-2.25-18.949,3.063-27.076c5.291-8.093,13.795-12.983,23.332-13.418
	c11.246-0.513,23.069-0.762,36.145-0.762c10.497,0,21.768,0.159,35.471,0.499c15.592,0.388,26.265,13.352,25.955,31.525
	c-0.363,21.403-0.79,43.156-1.203,64.192c-0.3,15.246-0.6,30.491-0.878,45.737c-0.729,39.787-1.436,79.573-2.15,119.774
	l-0.715,40.159c2.296-0.006,4.557-0.01,6.795-0.01c3.839,0,7.612,0.013,11.387,0.053c19.218,0.204,33.913,13.851,34.184,31.74
	c0.117,7.743-2.875,15.114-8.426,20.756c-6.467,6.571-15.628,10.196-25.796,10.206C562.868,755.594,557.7,755.597,552.536,755.597z"
	/>
<path fill-rule="evenodd" clip-rule="evenodd" d="M514.457,346.985c-16.292-0.029-31.575-6.471-43.034-18.139
	c-11.198-11.402-17.225-26.315-16.969-41.991c0.257-15.752,6.669-30.478,18.055-41.463c11.321-10.922,26.318-16.938,42.229-16.938
	h0.177c16.25,0.046,31.312,6.235,42.411,17.426c11.093,11.184,17.174,26.303,17.123,42.572
	c-0.104,32.822-26.404,58.533-59.876,58.533H514.457z"/>
</svg>
