<?xml version="1.0" encoding="utf-8"?>
<!-- Generator: Adobe Illustrator 16.0.0, SVG Export Plug-In . SVG Version: 6.00 Build 0)  -->
<!DOCTYPE svg PUBLIC "-//W3C//DTD SVG 1.1//EN" "http://www.w3.org/Graphics/SVG/1.1/DTD/svg11.dtd">
<svg version="1.1" id="Layer_1" xmlns="http://www.w3.org/2000/svg" xmlns:xlink="http://www.w3.org/1999/xlink" x="0px" y="0px"
	 width="1024px" height="1024px" viewBox="0 0 1024 1024" enable-background="new 0 0 1024 1024" xml:space="preserve">
<path fill-rule="evenodd" clip-rule="evenodd" d="M550.536,236.03c9.579-10.932,18.46-22.632,28.927-32.683
	c21.725-20.861,47.983-33.307,77.615-38.926c41.575-7.884,80.7,1.277,119.076,16.342c3.14,1.232,3.985,2.82,2.415,6.063
	c-13.581,28.058-29.968,54.116-53.731,74.806c-22.349,19.458-47.775,32.542-77.408,36.979c-28.1,4.207-54.376-1.123-80.012-13.904
	c27.385,65.555,49.665,132.777,67.06,201.839c16.807-3.314,33.191-4.003,49.607-1.956c30.55,3.81,58.504,14.4,83.08,33.127
	c34.672,26.42,54.87,61.46,61.456,104.472c12.567,82.085-33.752,159.732-111.813,184.53c-65.663,20.86-123.139,4.377-171.828-43.301
	c-25.231-24.708-39.683-55.38-44.496-90.317c-8.15-59.165,11.196-108.454,54.524-148.841c11.396-10.621,24.383-18.919,38.447-25.526
	c2.275-1.069,3.439-1.945,2.704-4.782c-15.743-60.742-33.461-120.831-58.66-178.463c-0.989-2.264-2.155-4.45-3.548-7.304
	c-26.447,67.845-70.476,122.997-119.427,175.167c4.227,2.629,8.479,5.16,12.618,7.867c28.522,18.653,50.729,42.701,63.849,74.576
	c1.764,4.283,1.791,8.131,0.083,12.452c-9.882,25.008-15.148,51.009-13.314,77.863c0.999,14.627,4.64,29.066,6.878,43.623
	c0.401,2.606,0.658,5.857-0.513,7.992c-25.16,45.893-62.796,75.632-114.74,84.669c-60.474,10.521-111.534-8.76-152.674-53.562
	c-20.976-22.843-33.378-50.492-38.229-81.251c-7.315-46.389,2.828-88.647,30.7-126.497c23.922-32.485,56.357-51.748,95.335-60.567
	c21.342-4.829,42.789-5.206,64.35-1.264c2.105,0.386,5.248-0.271,6.714-1.684c39.094-37.669,74.474-78.364,100.981-126.103
	c12.515-22.536,22.782-46.017,27.331-71.592c3.452-19.411,2.224-38.632-2.829-57.712c-4.204-15.876,5.534-28.269,21.533-27.623
	c8.643,0.349,14.312,5.589,16.939,13.301c3.779,11.09,6.654,22.488,9.893,33.763C549.932,233.351,550.313,235.131,550.536,236.03z"
	/>
</svg>
