<?xml version="1.0" encoding="utf-8"?>
<!-- Generator: Adobe Illustrator 16.0.0, SVG Export Plug-In . SVG Version: 6.00 Build 0)  -->
<!DOCTYPE svg PUBLIC "-//W3C//DTD SVG 1.1//EN" "http://www.w3.org/Graphics/SVG/1.1/DTD/svg11.dtd">
<svg version="1.1" id="Layer_1" xmlns="http://www.w3.org/2000/svg" xmlns:xlink="http://www.w3.org/1999/xlink" x="0px" y="0px"
	 width="1024px" height="1024px" viewBox="0 0 1024 1024" enable-background="new 0 0 1024 1024" xml:space="preserve">
<path d="M627.14,945.794c-90.377-0.138-182.438-0.345-273.623-0.616l-5.85,0.01c-5.25,0-11.352-0.096-17.325-1.241
	c-17.609-3.384-31.161-14.16-37.183-29.565c-5.86-14.993-3.58-31.615,6.226-45.917c-1.937-1.349-3.871-2.688-5.773-4.004
	c-8.419-5.827-17.125-11.852-25.388-18.316c-30.632-23.969-52.869-50.25-67.982-80.345c-7.22-14.376-17.588-26.044-30.934-39.14
	c-3.965-3.891-7.949-7.768-11.934-11.645c-16.788-16.337-34.148-33.229-49.953-51.141c-26.296-29.804-38.447-64.95-36.114-104.462
	c1.814-30.723,14.121-59.877,34.653-82.093c20.286-21.949,47.617-36.176,76.961-40.062c5.917-0.784,11.868-1.181,17.686-1.181
	c28.346,0,55.586,9.188,83.277,28.091c0.72,0.492,1.416,0.986,2.135,1.509l9.591-14.079l4.475-27.865l0.2-0.577
	c8.009-23.146,22.41-42.736,41.644-56.652c18.264-13.213,40.055-20.646,63.316-21.647c-3.478-29.733,5.735-54.433,27.45-73.511
	c15.041-13.216,33.21-20.202,52.543-20.202c3.705,0,7.504,0.254,11.291,0.756c24.724,3.275,46.73,16.345,60.377,35.858
	c11.549,16.513,16.229,36.455,13.476,56.83c1.961,0.284,3.926,0.551,5.86,0.815c9.773,1.33,19.88,2.705,29.498,6.085
	c43.514,15.294,68.897,46.617,73.409,90.581c1.649,16.085,7.46,28.412,18.839,39.969c19.997,20.312,37.624,43.027,52.412,67.541
	c11.909-10.559,18.711-25.099,21.751-46.102c3.669-25.359,8.698-52.013,25.986-74.656c7.574-9.921,17.001-22.27,33.271-26.433
	c2.963-0.757,6.885-1.63,10.961-1.652c6.446-0.03,12.89-0.039,19.331-0.039l22.774,0.011c8.69,0,19-0.013,29.565-0.108l0.324-0.001
	c13.314,0,18.833,7.604,21.118,13.984c3.276,9.144,1.218,17.9-5.796,24.658c-19.151,18.447-28.7,35.688-30.052,54.262
	c-1.23,16.909-0.711,35.779,1.588,57.688c4.736,45.113,7.595,89.119-9.233,131.52c-20.235,50.979-59.044,86.739-115.348,106.288
	c-1.06,0.368-2.215,0.743-3.619,0.901c-18.509,2.117-30.461,13.949-40.619,26.421c-17.937,22.016-40.687,38.37-61.097,51.507
	c7.928,11.192,11.097,22.765,9.668,35.178c-2.377,20.661-19.454,38.507-39.723,41.51c-4.165,0.618-9.028,1.278-14.025,1.278H627.14z
	 M623.229,902.957c0.508,0,1.018,0.005,1.528,0.011c0.462,0.005,0.925,0.01,1.388,0.01c1.033,0,2.228-0.022,3.25-0.19
	c4.156-0.682,7.212-4.194,7.104-8.17c-0.036-1.318-0.11-4.063-7.155-4.805c-1.644-0.174-3.341-0.262-5.045-0.262l-21.051,0.027
	c-83.462,0.105-169.765,0.216-254.646,0.454c-3.484,0.01-7.139,0.676-10.29,1.876c-1.999,0.76-4.331,2.289-4.102,5.261
	c0.076,0.987,0.276,3.603,4.607,4.43c3.629,0.694,6.63,1.158,9.492,1.163c28.964,0.055,57.75,0.063,82.087,0.063l62.364-0.005v0.147
	h36.062c31.469,0,62.935-0.001,94.403-0.01H623.229z M486.486,846.827c40.21,0,71.262,0.319,100.685,1.034
	c1.038,0.025,2.071,0.038,3.096,0.038c24.281,0,45.36-7.039,66.336-22.152c8.296-5.979,17.7-12.754,26.063-20.061
	c54.947-47.998,73.5-107.912,55.144-178.078c-10.24-39.143-31.699-74.577-69.578-114.896
	c-13.658-14.538-27.716-29.501-30.529-51.298H337.416c-4.791,18.414-16.335,31.046-27.25,41.073
	c-36.37,33.411-61.058,68.756-75.476,108.058c-18.094,49.329-17.393,92.38,2.144,131.612
	c21.471,43.114,57.569,76.813,110.355,103.018c2.452,1.217,5.896,1.919,9.447,1.927c4.668,0.01,9.34,0.014,14.009,0.014
	c19.293,0,38.917-0.073,57.896-0.145C447.531,846.9,467.168,846.827,486.486,846.827z M770.116,589.582
	c20.585,55.276,22.709,105.777,6.412,153.749c41.651-17.477,68.095-48.248,80.682-93.745c9.832-35.535,4.913-72.914,0.572-105.893
	c-3.284-24.963-3.178-44.253,0.344-62.545c2.631-13.663,7.307-26.248,14.201-38.157c-2.856-0.023-5.675-0.043-8.467-0.043
	c-6.256,0-11.082,0.101-15.648,0.327c-2.418,0.12-5.536,1.356-7.251,2.876c-13.466,11.928-20.912,28.582-24.146,53.998
	C813.409,526.891,804.825,564.695,770.116,589.582z M201.429,479.272c-5.899,0-11.972,0.656-18.051,1.951
	c-23.518,5.007-43.237,19.345-55.527,40.372c-13.46,23.028-16.745,51.966-8.787,77.408c4.537,14.507,12.349,27.942,23.219,39.934
	c10.701,11.804,22.032,23.479,32.991,34.769c1.338,1.378,2.675,2.757,4.013,4.136c1.305-65.576,26.029-124.758,75.279-180.316
	C236.853,485.254,219.407,479.272,201.429,479.272z M626.396,418.127c-9.129-15.866-30.589-29.479-48.862-29.53
	c-28.698-0.081-58.722-0.122-89.236-0.122c-28.013,0-57.506,0.034-87.662,0.103c-18.25,0.041-38.914,12.833-49.663,29.549H626.396z
	 M508.689,345.107c5.669,0,10.328,0.115,14.66,0.36c0.268,0.015,0.526,0.023,0.773,0.023c0.874,0,1.315-0.101,1.484-0.152
	c0.147-0.225,0.547-0.984,1.006-3.112c2.293-10.619-0.377-21.827-7.325-30.75c-7.463-9.585-18.747-15.328-30.958-15.756
	c-0.416-0.015-0.834-0.022-1.248-0.022c-11.924,0-23.684,6.163-31.459,16.485c-7.403,9.828-9.906,21.532-6.868,32.11
	c0.142,0.493,0.263,0.846,0.359,1.094c0.094,0.004,0.202,0.006,0.324,0.006l0.287-0.004c4.824-0.129,10.052-0.189,16.453-0.189
	c3.675,0,7.349,0.019,11.024,0.038c3.566,0.019,7.132,0.037,10.699,0.038c3.433,0,6.87-0.042,10.308-0.084
	C501.702,345.149,505.197,345.107,508.689,345.107z"/>
<path d="M809.477,356.266c-0.836,0-1.667-0.065-2.468-0.195c-9.825-1.583-16.768-8.75-18.118-18.702
	c-0.635-4.671,0.479-10.155,3.307-16.298c12.945-28.102,10.597-52.55-7.18-74.745c-4.222-5.269-8.841-10.154-13.731-15.326
	c-1.701-1.799-3.401-3.597-5.082-5.41c-11.354-12.244-23.868-27.352-30.586-46.573c-10.334-29.571-7.686-60.08,7.873-90.679
	c2.003-3.939,5.211-6.984,8.378-9.688c4.536-3.87,9.232-5.832,13.96-5.832c2.903,0,5.773,0.733,8.532,2.18
	c7.944,4.168,11.879,11.498,12.028,22.408l0.017,1.179l-0.371,1.12c-0.11,0.334-0.266,0.782-0.45,1.315
	c-0.485,1.404-1.22,3.526-1.825,5.595c-1.17,3.995-2.499,7.972-3.785,11.818c-2.92,8.733-5.677,16.981-6.688,25.329
	c-2.332,19.258,9.377,34.445,21.569,48.35c1.838,2.096,3.694,4.185,5.553,6.277c9.528,10.726,19.38,21.816,27.176,34.253
	c21.419,34.165,22.777,70.546,4.036,108.132C827.142,349.75,817.83,356.266,809.477,356.266z"/>
<path d="M898.52,362.04c-1.701,0-3.451-0.174-5.202-0.519c-9.797-1.925-15.97-10.656-16.11-22.785l-0.015-1.292l0.447-1.212
	c0.145-0.392,0.345-0.903,0.58-1.505c0.606-1.552,1.438-3.679,2.092-5.798c1.096-3.561,2.304-7.117,3.473-10.557
	c2.783-8.192,5.412-15.93,6.688-23.823c2.646-16.357-3.068-31.455-17.982-47.516c-3.516-3.786-7.256-7.565-10.874-11.219
	c-5.881-5.94-11.962-12.083-17.514-18.673c-22.843-27.111-24.125-63.903-3.432-98.417c3.91-6.521,11.455-10.734,19.222-10.734
	c3.38,0,6.604,0.816,9.325,2.36c10.025,5.687,13.764,18.596,8.695,30.028c-0.588,1.325-1.19,2.65-1.795,3.978
	c-2.658,5.844-5.17,11.363-6.432,16.959c-2.486,11.029,0.605,20.942,9.453,30.305c2.794,2.956,5.707,5.956,8.524,8.858
	c10.803,11.125,21.973,22.628,30.668,35.844c23.092,35.098,22.7,73.85-1.162,115.18C913.304,358.199,906.506,362.04,898.52,362.04z"
	/>
</svg>
