<?xml version="1.0" encoding="utf-8"?>
<!-- Generator: Adobe Illustrator 16.0.0, SVG Export Plug-In . SVG Version: 6.00 Build 0)  -->
<!DOCTYPE svg PUBLIC "-//W3C//DTD SVG 1.1//EN" "http://www.w3.org/Graphics/SVG/1.1/DTD/svg11.dtd">
<svg version="1.1" id="Layer_1" xmlns="http://www.w3.org/2000/svg" xmlns:xlink="http://www.w3.org/1999/xlink" x="0px" y="0px"
	 width="1024px" height="1024px" viewBox="0 0 1024 1024" enable-background="new 0 0 1024 1024" xml:space="preserve">
<g>
	<path fill-rule="evenodd" clip-rule="evenodd" d="M222.276,390.597c21.663,0.509,41.465-5.619,60.698-13.894
		c4.029-1.733,6.795-1.618,10.307,1.164c7.135,5.655,14.784,10.657,22.105,16.083c10.098,7.486,22.912,3.492,28.242-6.393
		c4.308-7.986,9.714-15.376,14.51-23.107c1.445-2.327,2.967-3.146,5.915-2.931c21.383,1.553,42.277-0.779,63.667-9.176
		c3.425,9.521,7.883,18.855,10.086,28.694c4.272,19.067,7.687,38.354,10.733,57.665c12.843,81.421,46.074,151.807,110.149,205.797
		c44.557,37.544,95.748,61.925,151.612,77.27c26.338,7.233,53.096,12.177,80.145,15.688c6.771,0.879,13.623,1.219,20.354,2.318
		c14.601,2.386,21.342,17.462,12.714,29.438c-3.907,5.423-9.203,10.214-14.742,14.027c-24.001,16.527-51.276,25.223-79.415,31.256
		c-34.199,7.333-68.975,8.893-103.673,6.153c-82.694-6.531-157.84-33.959-224.155-84.317
		c-59.483-45.169-107.083-100.365-139.813-167.796c-17.826-36.728-32.025-74.823-38.454-115.324
		c-3.187-20.078-5.284-40.392-1.554-60.744C221.797,391.973,221.998,391.498,222.276,390.597z"/>
	<path fill-rule="evenodd" clip-rule="evenodd" d="M373.111,342.406c-4.893-0.387-9.799-0.66-14.677-1.191
		c-5.343-0.585-9.572,0.718-12.531,5.624c-4.972,8.24-10.435,16.19-15.227,24.531c-2.521,4.387-4.657,5.204-8.791,1.933
		c-7.966-6.304-16.376-12.049-24.336-18.362c-4.571-3.625-8.751-4.139-13.879-1.199c-15.68,8.988-32.616,14.007-50.636,15.548
		c-10.309,0.881-13.11-2.083-10.528-12.114c5.462-21.22,18.652-37.339,34.597-51.505c4.708-4.184,9.835-7.927,14.972-11.59
		c5.111-3.646,7.282-7.974,5.753-14.404c-4.777-20.089-13.724-37.677-29.493-51.426c-5.876-5.122-7.773-11.061-3.882-16.672
		c9.537-13.755,21.989-23.403,39.514-24.608c7.302-0.502,12.454,2.65,15.699,9.139c9.326,18.649,15.929,38.291,21.338,58.371
		c1.36,5.047,2.653,10.114,4.05,15.15c1.592,5.745,5.146,9.259,11.228,10.297c24.285,4.148,46.118,13.861,65.03,29.688
		c4.798,4.015,9.273,8.67,12.932,13.727c4.709,6.511,3.442,9.634-4.082,12.701C398.301,340.882,385.83,342.222,373.111,342.406z"/>
</g>
</svg>
