<?xml version="1.0" encoding="utf-8"?>
<!-- Generator: Adobe Illustrator 16.0.0, SVG Export Plug-In . SVG Version: 6.00 Build 0)  -->
<!DOCTYPE svg PUBLIC "-//W3C//DTD SVG 1.1//EN" "http://www.w3.org/Graphics/SVG/1.1/DTD/svg11.dtd">
<svg version="1.1" id="Layer_1" xmlns="http://www.w3.org/2000/svg" xmlns:xlink="http://www.w3.org/1999/xlink" x="0px" y="0px"
	 width="1024px" height="1024px" viewBox="0 0 1024 1024" enable-background="new 0 0 1024 1024" xml:space="preserve">
<g>
	<path fill-rule="evenodd" clip-rule="evenodd" d="M395.61,838.908c-18.281-6.094-36.231-10.786-53.146-17.926
		c-106.494-44.949-174.538-123.719-204.621-235.222c-8.69-32.209-11.622-65.145-10.808-98.466
		c0.293-12.004,0.022-24.022,0.051-36.033c0.031-12.557,4.776-17.678,17.551-17.814c22.999-0.246,46.002-0.088,69.003-0.088
		c188.099,0.006,376.198,0.014,564.297,0.034c3.317,0,6.659-0.02,9.951,0.333c8.607,0.918,13.64,6.518,13.876,15.286
		c0.104,3.809,0.017,7.621,0.017,11.539c13.013,0.888,25.707,1.282,38.288,2.696c44.75,5.032,81.945,36.246,88.922,75.333
		c7.288,40.84-1.788,77.899-28.259,110.245c-31.446,38.426-72.927,59.672-120.906,68.621c-17.188,3.207-35,2.967-52.415,5.17
		c-4.084,0.517-8.563,3.828-11.434,7.105c-41.181,46.987-92.006,79.206-150.903,99.108c-10.274,3.472-20.83,6.108-31.299,10.079
		c2.505,0,5.011,0,7.518,0c68.748,0,137.496-0.008,206.244,0.008c12.722,0.003,19.734,7.837,17.285,20.128
		c-7.49,37.6-28.798,62.799-66.678,72.37c-6.592,1.666-13.58,2.472-20.386,2.478c-140.563,0.14-281.126,0.127-421.691,0.093
		c-42.784-0.012-79.719-32.107-85.875-74.44c-1.983-13.646,4.188-20.628,18.273-20.63c67.469-0.006,134.939-0.004,202.408-0.006
		C392.145,838.908,393.413,838.908,395.61,838.908z M158.622,464.861c-0.349,34.2-0.617,67.504,6.656,100.452
		c15.922,72.131,51.136,132.866,108.619,179.312c71.301,57.614,153.403,78.537,243.504,63.123
		c80.717-13.808,145.234-55.577,193.367-121.797c47.64-65.542,63.393-139.936,58.742-219.622c-0.024-0.415-0.535-0.8-1.01-1.468
		C565.606,464.861,362.535,464.861,158.622,464.861z M747.252,689.983c2.16,0,4.153,0.183,6.105-0.027
		c24.957-2.676,49.213-8.206,71.578-19.898c38.005-19.868,67.126-47.629,74.251-92.028c4.345-27.086-1.214-52.31-24.671-69.749
		c-21.358-15.877-46.474-17.45-71.962-16.292C793.901,596.824,789.982,609.474,747.252,689.983z M727.673,870.117
		c-174.073,0-347.105,0-520.528,0c3.596,10.016,9.248,17.549,17.781,22.938c12.284,7.76,25.907,10.24,40.112,10.245
		c134.141,0.035,268.282,0.043,402.425-0.044c6.599-0.004,13.319-0.337,19.775-1.591
		C705.734,898.075,720.095,888.835,727.673,870.117z"/>
	<path fill-rule="evenodd" clip-rule="evenodd" d="M418.612,302.874c-0.713,23.474-7.234,45.146-21.697,63.864
		c-3.123,4.042-8.393,7.435-13.324,8.824c-6.629,1.869-12.604-1.376-15.808-7.806c-2.954-5.932-1.616-11.466,1.608-17.303
		c5.598-10.132,12.193-20.281,14.992-31.281c7.34-28.835-1.925-54.255-20.303-76.633c-32.604-39.705-34.3-93.606-3.896-134.95
		c2.106-2.863,4.475-5.589,7.036-8.05c5.976-5.742,13.653-6.096,20.076-1.186c6.542,5,8.57,12.534,4.939,19.658
		c-1.489,2.92-3.69,5.476-5.545,8.215c-18.308,27.041-22.298,55.255-6.368,84.769c3.115,5.771,7.511,10.875,11.51,16.139
		C408.831,249.514,417.913,274.653,418.612,302.874z"/>
	<path fill-rule="evenodd" clip-rule="evenodd" d="M505.074,375.862c-6.562,0.485-11.456-2.289-14.453-7.974
		c-3.32-6.301-2.031-12.338,2.115-17.827c11.617-15.386,17.179-32.56,16.524-51.947c-0.722-21.341-9.437-39.307-22.467-55.487
		c-33.137-41.146-34.029-95.807-1.671-137.32c3.264-4.187,8.07-8.203,12.977-9.814c6.457-2.12,12.557,1.093,16.295,7.088
		c3.735,5.988,3.479,12.138-0.82,17.792c-8.714,11.458-15.538,23.752-18.433,38.052c-5.238,25.876,2.296,47.861,18.603,68.118
		c18.817,23.373,28.25,50.564,27.25,80.706c-0.729,21.874-7.827,41.978-21.2,59.413c-3.41,4.448-8.817,7.366-13.308,10.986
		C506.014,377.051,505.544,376.457,505.074,375.862z"/>
	<path fill-rule="evenodd" clip-rule="evenodd" d="M625.575,377.637c-4.128-3.232-9.278-5.755-12.13-9.873
		c-3.732-5.387-2.514-11.73,1.586-17.077c12.096-15.777,17.61-33.532,16.737-53.426c-0.85-19.343-8.191-36.152-20.016-50.983
		c-13.909-17.447-24.444-36.35-26.897-58.82c-3.586-32.857,5.321-62.052,27.42-86.815c6.357-7.126,14.892-7.195,21.814-1.224
		c6.556,5.652,7.722,14.458,2.092,21.947c-8.819,11.732-15.953,24.028-18.646,38.773c-4.346,23.8,0.984,44.961,16.277,63.538
		c19.66,23.878,30.346,51.112,29.88,82.081c-0.334,22.163-7.515,42.472-20.678,60.417c-3.903,5.32-8.066,10.914-16.16,9.64
		C626.428,376.422,626.002,377.03,625.575,377.637z"/>
</g>
</svg>
