<?xml version="1.0" encoding="utf-8"?>
<!-- Generator: Adobe Illustrator 16.0.0, SVG Export Plug-In . SVG Version: 6.00 Build 0)  -->
<!DOCTYPE svg PUBLIC "-//W3C//DTD SVG 1.1//EN" "http://www.w3.org/Graphics/SVG/1.1/DTD/svg11.dtd">
<svg version="1.1" id="Layer_1" xmlns="http://www.w3.org/2000/svg" xmlns:xlink="http://www.w3.org/1999/xlink" x="0px" y="0px"
	 width="1024px" height="1024px" viewBox="0 0 1024 1024" enable-background="new 0 0 1024 1024" xml:space="preserve">
<path fill-rule="evenodd" clip-rule="evenodd" d="M507.65,899.44c-223.745-4.024-390.265-187.759-382.008-404.1
	c7.94-208.046,182.394-373.398,392.91-369.854c220.187,3.709,388.991,185.821,380.789,401.394
	C891.118,743.003,713.059,902.483,507.65,899.44z M588.687,348.695c-0.181-31.538-4.928-53.618-14.248-74.633
	c-7.403-16.693-16.449-32.444-31.522-43.534c-15.167-11.16-31.743-14.867-49.619-6.882c-9.724,4.345-17.905,10.993-24.368,19.406
	c-25.576,33.291-35.518,71.062-31.491,112.646c2.274,23.493,13.138,42.434,31.015,57.598c4.821,4.089,9.537,8.325,14.04,12.758
	c8.46,8.327,12.977,18.348,12.081,30.428c-0.959,12.934-1.959,25.864-2.991,38.793c-2.314,29.013-4.656,58.023-6.994,87.034
	c-1.991,24.7-3.974,49.401-5.996,74.1c-2.646,32.319-5.476,64.624-7.875,96.962c-0.511,6.876-0.485,14.078,0.979,20.762
	c4.526,20.66,27.104,35.742,46.461,32.077c27.563-5.219,37.642-30.274,36.017-48.286c-1.645-18.223-3.164-36.456-4.663-54.691
	c-1.157-14.087-2.14-28.188-3.306-42.274c-1.166-14.087-2.538-28.157-3.686-42.245c-1.485-18.234-2.769-36.486-4.268-54.72
	c-1.499-18.23-3.186-36.446-4.735-54.673c-1.31-15.41-2.305-30.85-3.872-46.232c-1.53-15.012,2.234-27.982,13.303-38.498
	c3.86-3.668,7.767-7.313,11.905-10.657C578.36,394.938,589.035,370.136,588.687,348.695z"/>
</svg>
