<svg xmlns="http://www.w3.org/2000/svg" xml:space="preserve" width="100%" height="100%" viewBox="0 0 1200 1200"><path d="M440.9 66.7c-12.1 8.1-12.2 8.2-13.9 9-.8.4-6.8 4.6-13.2 9.5-10.7 8.1-25.9 22.2-34.8 32.3-4.8 5.5-12.3 16.3-13.6 19.5-.3.8-1.2 2.7-2 4.2-.8 1.4-1.4 3.3-1.4 4.1 0 .8-.7 2.8-1.5 4.3-.8 1.6-1.5 4.2-1.5 5.9-.1 1.6-.7 4.1-1.5 5.5-.8 1.4-1.4 5.1-1.5 8.2 0 3.6-.4 5.8-1.1 5.8-.7 0-4.4-3.1-8.4-6.9-11.1-10.5-16.9-14.7-26.3-19.2-4.8-2.2-10-4.7-11.5-5.5-1.6-.8-3.8-1.4-5-1.4-1.2 0-3.1-.7-4.1-1.5-1.1-.8-3.7-1.5-5.7-1.5-2.1 0-5-.5-6.6-1.1-2.8-1.2-18.2-2.9-28.3-3.1-10.2-.3-30.9 1.4-32.5 2.6-.9.6-2 2.7-2.5 4.6-1 4-2.7 9.1-4.6 13.8-.8 1.8-1.4 4.5-1.4 6 0 1.6-.5 3.3-1.1 3.9-.6.6-1.4 3.5-1.9 6.4-.5 3-1.3 7.2-1.9 9.4-1.6 6.1-1.3 33.2.4 38 .8 2.2 1.5 5.1 1.5 6.5 0 1.4.6 3.4 1.4 4.5.7 1.1 1.5 3.1 1.8 4.5.3 1.4.9 3.3 1.3 4.2.6 1.6.1 1.8-3.6 1.8-2.4-.1-5.5-.7-6.9-1.5-1.4-.8-3.9-1.4-5.6-1.5-1.7 0-5.1-.7-7.4-1.5-5.1-1.8-31.2-2.1-37.5-.4-2.2.6-6.5 1.4-9.6 1.9-3 .4-6.5 1.2-7.7 1.9-1.1.6-3.3 1.1-4.9 1.1-1.6 0-3.7.6-4.8 1.4-1.1.7-3.1 1.6-4.5 1.9-4.8 1.1-11.5 3.8-13.8 5.6-2.3 1.7-2.4 2.2-2.3 16.6 0 8.7.5 15.3 1.1 15.9.5.5 1 4.3 1 8.3 0 4.3.6 8.9 1.5 11 .8 1.9 1.5 5 1.5 6.7 0 1.8.7 4.1 1.5 5.2.8 1 1.5 3 1.5 4.2 0 1.3.6 3.6 1.4 5 .7 1.5 3.1 6.3 5.2 10.7 5.2 11.1 10.6 18.7 19.1 27.1 4 4 7.3 7.7 7.3 8.3 0 .6-1.7 1.1-3.7 1.1-2.1 0-4.7.7-5.7 1.5-1.1.8-3.2 1.5-4.8 1.5-2.5 0-5.5 1.3-19.6 8.3-2.3 1.2-5.3 3.2-6.7 4.4-1.3 1.3-2.7 2.3-3.1 2.3-.3 0-4.9 3.9-10.1 8.7-9.6 8.8-21.2 21.9-26.9 30.3-1.7 2.5-5.2 7.5-7.7 11.3-2.6 3.7-4.7 7.1-4.7 7.6s-.7 1.4-1.5 2.1c-2.2 1.8-1.8 3.8 1.5 8 1.7 2.1 3 4.1 3 4.4 0 .3 1.9 3.4 4.3 6.8 7.8 11.4 10.1 14.5 15.2 20.3 12.1 13.6 16.7 18.3 21.9 22.3 3.4 2.5 6.6 5 7.1 5.5 2.9 2.4 11.9 7.7 13 7.7.7 0 1.8.7 2.5 1.5s2 1.5 2.9 1.5c.9 0 2.5.7 3.5 1.5 1.1.8 3.1 1.5 4.5 1.5 1.4.1 3.7.7 5.1 1.5 1.4.8 3.7 1.4 5.2 1.5 1.5 0 2.9.3 3.2.8.2.4-1.9 3.2-4.7 6.2-4.9 5.1-12.6 15-15.4 19.5-4 6.6-11.3 23.2-11.3 25.8 0 1.3-.7 3.2-1.5 4.3-.8 1-1.5 3.4-1.5 5.2 0 1.8-.5 4.3-1.1 5.4-1.3 2.4-2.8 18.2-3.5 36.3-.4 10.1-.2 12.5 1.3 15.5 1.4 2.6 2.5 3.6 4.8 3.8 1.6.2 3.8 1 4.9 1.8 1.1.8 3.2 1.4 4.6 1.4 1.4.1 3.6.7 5 1.5s3.9 1.4 5.6 1.5c1.6 0 3.5.5 4.1 1.1.6.6 4.4 1.5 8.5 2 4 .5 9.3 1.3 11.8 1.8 6.9 1.6 27.8 1.3 33-.3 8.1-2.5 13.4-3.8 18.3-4.3 4.4-.5 4.7-.4 4.7 1.9 0 1.2-.7 3.2-1.5 4.2-.8 1.1-1.5 3.4-1.5 5.1 0 1.7-.7 5.2-1.5 7.7-1.3 3.6-1.5 8.3-1.3 23.4.4 18.3 1.5 27.6 4.3 33.9.8 1.6 1.6 4.3 1.8 6 .6 3.4 3.2 11.1 4.7 13.7.6 1 1 2.9 1 4.2 0 1.4.6 2.8 1.3 3.3 1.3.9 17.8 2.3 27.2 2.3 10.6 0 29.9-1.7 32.8-2.9 1.6-.6 4.3-1.1 6.1-1.1 1.9 0 3.9-.7 4.6-1.5.7-.8 2.7-1.5 4.4-1.5 1.8 0 4.1-.7 5.2-1.5 1-.8 2.9-1.5 4-1.5 1.2 0 2.7-.7 3.4-1.5.7-.8 2.3-1.5 3.6-1.5 1.2 0 2.6-.5 2.9-1.1.4-.5 1.7-1.5 2.8-2 3.8-1.7 10.8-6.2 14.6-9.4 3.4-2.9 15.5-15.4 15.9-16.6.2-.5 1-.9 1.7-.9 1 0 1.5 2.3 1.7 9.2.4 8.9 1.3 12.8 4.4 19.1.8 1.6 1.4 3.5 1.4 4.3 0 2.3 5.2 11.3 11.5 19.9 7.9 10.7 29.7 32.4 42 41.6 5.5 4.2 10.7 7.8 11.5 8.2.8.4 2.9 1.6 4.5 2.7 1.7 1.1 3.7 2.3 4.5 2.7.8.3 2.9 1.6 4.5 2.9 1.7 1.2 4.4 2.9 6.2 3.8 3 1.5 3.4 1.5 6.5-.4 1.8-1.1 4-2.3 4.8-2.7.8-.3 2.3-1.3 3.2-2.2.9-.9 4.7-3.6 8.3-6.1 23.8-16.1 46.2-37.1 57.3-53.8 3.4-5.1 6.2-9.9 6.2-10.6 0-.6.5-1.7 1.2-2.4 1.4-1.4 3.7-7.3 4.7-12.2.4-1.9 1.3-4.5 1.9-5.7.7-1.2 1.2-5.3 1.2-9.2 0-3.8.4-7.2.9-7.6.6-.3 4 2.7 7.8 6.6 7.7 8.1 18.6 16.7 23.3 18.5.8.3 2.2 1 3 1.5.8.5 2.2 1.2 3 1.5.8.3 2.2 1 3 1.5.8.5 2.2 1.2 3 1.5.8.3 2.7 1.2 4.2 2 1.4.8 3.7 1.4 5 1.4 1.2.1 3.4.7 4.8 1.5s4.2 1.4 6.3 1.5c2.1 0 4.8.5 6 1.2 4 2.2 31.5 3.4 50.4 2.1 5.4-.3 7.6-.9 8.9-2.4 1.8-2 4.1-7.3 5.1-11.9.3-1.4 1.2-3.4 1.9-4.5.8-1.1 1.4-3.3 1.4-5 .1-1.6.7-4.1 1.5-5.5.8-1.4 1.4-3.8 1.5-5.3 0-1.6.7-5.3 1.5-8.2 3.1-10.5.6-48.8-3.4-54-1.4-1.7-1.8-7.5-.6-8.5 1.2-1 3.8-.4 15 3.1 9.5 3 35.5 3.9 43.6 1.5 2.9-.9 7-1.6 9.1-1.6 2.2 0 4.9-.5 6.1-1.2 1.2-.6 4-1.5 6.2-1.9 2.2-.4 5.6-1.2 7.5-1.9 9.5-3.4 11.7-4.3 13.9-5.3 3.8-1.9 5.3-7.7 4.7-18.7-.9-16.4-2.3-30.4-3.5-34-.6-1.9-1.1-4.9-1.1-6.6 0-1.6-.7-3.9-1.5-5-.8-1-1.5-3.1-1.5-4.5s-.7-3.4-1.5-4.5c-.8-1-1.5-2.7-1.5-3.7 0-1.1-.6-3.1-1.4-4.5-.8-1.5-1.7-3.4-2-4.2-.4-.8-1.5-2.9-2.6-4.5-1.1-1.7-2.3-3.7-2.7-4.5-1.5-3.5-10-13.9-15.5-19-6-5.8-7.1-8-3.9-8 1 0 3.5-.7 5.4-1.5 2-.8 4.9-1.5 6.4-1.5s3.7-.7 4.7-1.5c1.1-.8 3-1.5 4.2-1.5 1.2 0 2.7-.7 3.4-1.5.7-.8 2-1.5 3-1.5s2.3-.7 3-1.5c.7-.8 1.6-1.5 2.1-1.5.4 0 3.6-1.9 7.1-4.2 7.9-5.2 18.5-15.8 34.8-34.8 2.1-2.4 8.4-11.3 10.5-14.8.6-.9 2.2-3.3 3.8-5.3 1.5-2 2.7-4.1 2.7-4.7 0-.5.7-1.5 1.5-2.2 1.9-1.6 1.9-5.4 0-7-.8-.7-1.5-1.6-1.5-2.1 0-.9-12.7-20-13.9-20.9-.4-.3-2.9-3.4-5.6-6.9-8.9-11.8-30.8-31.3-39.2-35-1.1-.5-2.4-1.5-2.8-2-.3-.6-1.4-1.1-2.4-1.1s-2.4-.7-3.1-1.5c-.7-.8-2-1.5-3-1.5s-2.3-.7-3-1.5c-.7-.8-2.3-1.5-3.5-1.5-1.2 0-3.9-.7-5.8-1.5-2-.8-5.2-1.5-7.1-1.5-1.9 0-3.7-.4-4-.8-.2-.4 1.8-3 4.5-5.6 5.6-5.4 15.8-18.4 18.9-24.2 1.2-2.2 2.5-4.6 2.9-5.4 1.5-2.6 6.3-14 8.1-19 .7-1.9 1.6-5.8 2-8.7.5-2.8 1.2-5.8 1.6-6.5.8-1.2 1.5-9.8 3-36.6.6-10.7-.3-13.1-5.8-15.1-1.8-.7-4.5-1.9-6-2.7-1.4-.8-3.7-1.4-5-1.4-1.3 0-3.3-.7-4.4-1.5-1-.8-3.1-1.5-4.5-1.5-1.5 0-4.3-.7-6.2-1.5-2-.8-5.2-1.5-7-1.5-1.9 0-5.1-.7-7-1.5-2.7-1.1-7.6-1.5-19-1.5-11.2 0-16.6.4-19.7 1.5-2.3.8-5.7 1.5-7.4 1.5-1.8 0-4.1.7-5.2 1.5-1.7 1.3-11.4 2.2-11.4 1 0-.3.4-1.3.9-2.3 1.5-3 4.1-11.9 4.1-14 0-1.1.7-3.6 1.5-5.5 2.1-5 2.1-35.8.1-43.1-1.9-6.9-3.5-13.3-4.5-17.9-.5-2.1-1.4-4.4-2-5-.6-.6-1.1-2.3-1.1-3.8s-.4-3.1-1-3.4c-.5-.3-1.4-2.4-2-4.5-.8-2.9-1.7-4.1-3.3-4.4-7.5-1.5-37.2-2.5-38.4-1.2-.4.3-4.1.6-8.3.6-4.6 0-9.2.6-11.3 1.5-2 .8-5.6 1.5-7.9 1.5-2.4 0-5.2.6-6.3 1.4-1.1.7-3.3 1.6-5 1.8-3.4.6-9.2 2.6-11.5 3.9-.8.5-2.2 1.2-3 1.5-.8.3-2.2 1-3 1.5-.8.5-2.7 1.4-4.2 2-1.6.6-2.8 1.5-2.8 1.9 0 .4-1.2 1.1-2.6 1.4-1.4.4-7.1 5.1-12.7 10.6-5.5 5.4-10.5 9.6-10.9 9.4-.4-.3-.8-3.3-.8-6.7-.1-3.5-.7-7.3-1.5-8.7-.8-1.4-1.4-3.8-1.5-5.3 0-1.6-.6-4.1-1.4-5.5-.8-1.5-2.9-5.8-4.7-9.5-1.9-3.8-4-7.3-4.6-7.9-.7-.6-1.3-1.5-1.3-2 0-1.9-12.9-16.4-24.1-27.2-11.7-11.2-27.4-23.5-43.7-34.4-5.1-3.4-9.4-6.2-9.5-6.2-.1 0-4.1 2.6-8.8 5.7zm15.7 10.9c3.7 2.5 7.2 5 7.8 5.5.6.5 5.2 4 10.2 7.7 20.4 15.1 42 38.3 49.6 53 1.5 3.1 2.8 6.1 2.8 6.8 0 .7.6 2.5 1.4 4.1 2.8 5.5 5.7 36.3 3.6 38.8-.6.7-1.3 3.7-1.6 6.6-.3 3-1.3 7.3-2.2 9.6-1.6 4.1-1.9 4.3-5.7 4.3-2.2-.1-4.9-.7-5.9-1.5-1.1-.8-3.6-1.5-5.5-1.5-2.1-.1-4.6-.9-6-2.1-2.4-1.9-2.4-2.1-1.1-7.7 1.8-7.7 1.7-24.3-.2-31.7-1.4-5.4-5.9-15.9-9.1-21-6.4-10.4-28.3-33.7-36.2-38.7-2.2-1.4-4.9-3.5-5.9-4.7-3.3-3.7-5.8-2.7-17.1 6.9-6.7 5.7-21.4 21.2-24 25.5-1.1 1.6-3.7 5.5-6 8.5-2.2 3-4.8 7.3-5.9 9.5-1 2.2-2.5 5.2-3.2 6.7-.8 1.4-1.4 3.5-1.4 4.6 0 1.1-.7 3.6-1.5 5.5-2 4.8-2 20.8 0 26.2 2.4 6.7 2 8.9-2 10.8-2 .9-5 1.7-6.8 1.7-1.8 0-4.2.7-5.3 1.5-1 .8-3.3 1.5-5 1.5-2.8 0-3.4-.5-4.8-4-.9-2.2-1.6-5.5-1.6-7.3-.1-1.7-.7-4.3-1.5-5.7-1.1-1.8-1.4-6.2-1.4-16.5s.3-14.7 1.4-16.5c.8-1.4 1.4-4 1.5-5.9 0-4.9 6.3-17.2 13.6-27.1 5.8-7.7 36.2-38 38.2-38 .4 0 1.8-1 3.2-2.3 2.6-2.3 16.6-13 21-15.9 3.8-2.5 5.3-2.2 12.6 2.8zm-2.9 40.6c2.1 1.7 9.3 8.8 16 15.7 11.6 11.8 12.6 13.1 18.2 24.5 7.2 14.8 8.2 20.5 6.5 36.9-1 10-1.4 10.3-13.1 9.9-7.9-.3-10.2-.7-11.7-2.2-1.7-1.6-1.8-2.3-.8-4.5 1.8-3.8 1.5-19.5-.3-21.9-.8-1.1-1.5-2.6-1.5-3.4 0-3.8-15.8-24.2-18.8-24.2-.5 0-2.2 1.9-3.9 4.2-1.7 2.4-4.7 6.1-6.7 8.3-2 2.2-3.6 4.5-3.6 5.1 0 .6-.7 1.7-1.5 2.4s-1.5 2-1.5 3-.7 2.3-1.5 3c-1.2 1-1.5 3.6-1.5 11.7 0 5.7.5 11.4 1.1 12.5 2 3.6-.8 4.9-12.6 5.8-6 .5-11.1.7-11.5.5-.4-.2-1-3.5-1.3-7.1-.4-3.7-1.1-7.2-1.7-7.8-1.3-1.3-1.3-8.9 0-10.2.5-.5 1.3-3.2 1.6-5.9.8-5.4 6.4-18.1 10.7-23.9 7.6-10.6 12.2-15.9 21.6-24.9 6.2-5.9 11.9-10.7 12.6-10.7.8 0 3.1 1.4 5.2 3.2zm-176.2 27.9c2.2.6 6.3 1.4 9 1.8 2.8.4 6 1.2 7.2 1.9 1.2.7 3.1 1.2 4.2 1.2 1.2 0 5 1.3 8.4 3 3.5 1.6 7.1 3 8 3 .9 0 1.9.5 2.2 1.1.4.5 1.7 1.4 2.8 2 4.9 2.1 16 10.4 21.5 16 3.8 3.9 12.2 15.4 12.2 16.8 0 .5.7 1.4 1.5 2.1.8.7 1.5 2.3 1.5 3.5 0 1.2.7 2.8 1.5 3.5.8.7 1.5 2.1 1.5 3.2 0 1 .7 3.3 1.6 4.9 2.4 4.7 1.5 8.2-2.4 9.5-1.7.5-3.7 1.5-4.4 2.2-.7.7-2.1 1.2-3.3 1.2-1.2 0-3 .7-4.1 1.5-4.1 3.1-8.4 1.2-8.4-3.6 0-1.5-.4-3-.9-3.3-.5-.4-1.9-2.7-3.1-5.4-1.2-2.6-2.6-5.4-3.1-6.2-.5-.8-1.3-2.5-1.9-3.7-1.2-2.8-11.4-13.3-15.5-15.9-5-3.2-6.2-3.8-10.7-6-10.8-5.4-16.5-7.2-26.8-8.4-4.1-.5-8.6-1.1-10-1.4-13.2-2.4-13.6-2.2-15 7.1-.4 3.2-1.3 7.1-1.9 8.6-1.6 4.1-1.3 19.3.4 26 .8 3.2 1.5 6.7 1.5 7.8 0 1.2.6 3.5 1.4 5.2.8 1.8 1.7 3.9 2 4.7.3.8 1 2.2 1.5 3 .5.8 1.2 2.2 1.5 3 1.6 4.1 7.9 12.2 16.8 21.2 3.7 3.9 6.8 7.6 6.8 8.3 0 .7-3.2 4.2-7.2 7.8-5.9 5.4-7.4 6.4-9 5.6-1-.5-1.8-1.3-1.8-1.7 0-.4-4.5-5.4-10-11.2-5.5-5.8-11.2-12.3-12.8-14.5-1.5-2.2-3.5-4.9-4.5-6-2.7-2.9-8.7-13.4-8.7-15.1 0-.9-.5-2.5-1.2-3.7-.6-1.2-1.5-4-1.9-6.2-.5-2.2-1.3-6.5-2-9.5-1.2-6.1-.7-21.3.9-23.3.6-.6 1.2-4.1 1.5-7.7.5-7.1 2.1-13.9 4.3-18.3.8-1.6 1.4-3.9 1.4-5.2 0-1.3.4-2.6.9-3 .5-.3 1.2-1.9 1.6-3.6.4-1.8 1.6-3.4 2.8-3.9 3.1-1.3 37.4-1.2 42.2.1zm387 2.3c1.9 1.8 3.5 4 3.5 4.9 0 .8.6 2.8 1.4 4.4 2.5 4.9 3.9 11.6 4.3 20.3.3 4.7.8 8.9 1.3 9.5.4.5 1.1 4.9 1.5 9.6.5 6.4.3 10.1-.9 14.8-.9 3.4-1.6 7.5-1.6 8.9-.1 3.3-3.3 12.9-4.9 14.5-.6.6-1.1 1.6-1.1 2.3 0 3.1-9.6 15.1-26.5 33.2-3.3 3.5-6.4 7-6.8 7.8-1.1 1.9-3.9 1.8-5.8-.4-.9-.9-3.9-3.8-6.7-6.4-2.9-2.6-5.2-5.5-5.2-6.4 0-.9 2.8-4.5 6.3-7.9 8-8 13.9-14.5 15.2-16.6 3.8-6.5 8.5-17.5 8.5-20 0-1.1.7-4.2 1.6-6.9 1.8-5.4 1.5-21.3-.5-28.5-.6-2.2-1.3-6.1-1.6-8.6-.3-2.6-1.2-5.5-1.9-6.5-1.3-1.7-1.8-1.8-7.3-.5-3.2.7-9.6 1.6-14.3 2-4.7.4-9.5 1.2-10.7 1.9-1.2.6-3.2 1.2-4.5 1.2-1.3 0-3.3.7-4.4 1.5-1 .8-2.9 1.5-4 1.5-1.2 0-2.7.7-3.4 1.5-.7.8-2 1.5-3 1.5s-2.3.7-3 1.5c-.7.8-1.8 1.5-2.6 1.5-.7 0-5.5 4.2-10.7 9.2-7.2 7.2-10.2 11-13 16.6-2.1 4.1-3.7 8.3-3.7 9.5-.1 2.9-3.3 6.7-5.7 6.7-1 0-2.7-.7-3.7-1.5-1.1-.8-3-1.5-4.2-1.5-1.2 0-2.7-.6-3.4-1.4-.6-.8-2.4-1.6-3.8-1.8-2.4-.3-2.7-.8-3-4.2-.2-2.2.3-5.3 1.2-7 .8-1.7 3.1-6.5 5.1-10.6 2-4.1 4.5-8.9 5.6-10.5 1-1.7 2.2-3.7 2.6-4.5 1-2.2 18.4-19.1 20.8-20.1 1.1-.5 5.4-2.7 9.5-4.9s8.2-4 9-4c.9 0 2.5-.7 3.6-1.5 1-.8 2.8-1.4 3.9-1.5 1.9 0 5.5-1 15.5-4.3 3.4-1.1 10-1.5 26.3-1.6l21.8-.1 3.4 3.4zm-214.7 14.5c1.4.8 3.5 4.1 4.7 7.1.4.8 1.2 2.8 2 4.5 2.8 6.2 3.6 13.5 2.3 20.7l-1.2 6.8h-17.4l-1.7-5c-3-9-.3-21.4 6.9-32.3 2-2.9 2.4-3.1 4.4-1.8zM281 183c5.1 1.2 10.5 3.1 14 5.2.8.4 2 1 2.5 1.2.6.2 1.7.7 2.5 1 .8.3 2.9 1.5 4.5 2.6 1.7 1.1 3.7 2.3 4.5 2.7 3.1 1.4 12.6 12.3 15.3 17.4 1.5 3 3.1 6.1 3.6 6.9 5.5 10.5 5.4 11.7-1.4 15-1.1.6-3.8 2.1-6 3.5-5.9 3.5-7 3.2-10-2.8-1.5-2.8-3.3-5.9-4.1-6.8-.8-.8-1.4-2.1-1.4-2.7 0-1.6-13.8-15.2-15.4-15.2-.8 0-1.9-.7-2.6-1.5-4.6-5.5 0 6.6 6 16 1.1 1.6 2.4 3.9 3 5 .6 1.1 2.8 5.1 4.9 9 4.7 8.2 4.8 9.3 1.9 10.4-1.3.5-3.5 1.9-4.9 3.2-3.1 2.8-6.5 4.9-7.9 4.9-2.4 0-20.6-19.7-23.7-25.8-1.8-3.4-3.3-6.7-3.3-7.3 0-.6-.6-2.5-1.4-4.2-2.6-5.8-3.5-19.8-2.1-33.5l.7-6.3 7.6.4c4.3.3 10.2 1 13.2 1.7zm356.7 16.7c-.4 18.5-1.6 26.6-4.5 29.5-.7.7-1.2 1.8-1.2 2.4 0 4.3-20.3 26.4-24.2 26.4-1.5 0-9.4-5.6-14.2-10-.9-.9 2.8-9.5 4.5-10.6.5-.3.9-1.3.9-2.3 0-1 1.2-2.8 2.6-4.2 1.4-1.3 3-3.3 3.5-4.4.5-1.1 1.8-3.4 2.9-5 1.1-1.7 2.2-3.7 2.6-4.5.3-.8 1.2-2.7 2-4.2 3.3-6.1.1-6.5-7.7-.9-5.2 3.7-11.9 11-11.9 12.9 0 .5-.7 1.5-1.5 2.2-.8.7-1.5 2-1.5 2.9 0 .9-.5 2.2-1.2 2.9-.7.7-1.7 2.7-2.2 4.4-1.8 5.6-4.7 4.9-17.8-3.9-3.2-2.1-3.7-3-3.1-5 .8-3.5 8.9-19.1 11.9-23 2.3-3.1 12.2-11.2 15.4-12.6.8-.4 3.5-1.8 5.9-3.2 2.4-1.4 5.2-2.5 6.1-2.5.9 0 2.5-.7 3.6-1.5 1-.8 3-1.5 4.4-1.5 1.4 0 3.6-.7 5-1.5 1.6-.9 5.6-1.4 11.3-1.5h8.8l-.4 18.7zm-165.2 14.1c6.1.5 12.3 1.4 13.8 2 1.6.7 4.6 1.2 6.8 1.2s5.6.7 7.6 1.5c1.9.8 4.7 1.5 6.2 1.5 1.4.1 3.7.7 5.1 1.5 1.4.8 3.9 1.5 5.5 1.5 1.7 0 3.9.7 4.9 1.5 1.1.8 3.2 1.5 4.7 1.5s3 .4 3.3.9c.3.5 1.8 1.2 3.3 1.5 1.6.4 4.2 1.3 5.8 2.1 12.7 5.8 23.6 11.3 27 13.4 2.2 1.4 6.1 3.7 8.7 5.1 10.8 5.8 25.2 16.4 37.1 27.3 4.8 4.3 10.2 9.1 12.1 10.6 1.9 1.6 5.4 5.2 7.7 8.2 2.4 3 4.6 5.6 4.9 5.9.4.3 2.9 3.5 5.7 7.2 2.9 3.7 6.3 8 7.7 9.5 1.4 1.5 2.6 3.2 2.6 3.6 0 .5 1.4 2.6 3 4.7 1.7 2.1 3 4.2 3 4.6 0 .5 2 4 4.5 7.7 2.5 3.8 4.5 7.3 4.5 7.8s1.4 3.5 3 6.6c1.7 3.1 3 6.4 3 7.3 0 1 .7 2.3 1.5 3 .8.7 1.5 1.9 1.5 2.7 0 .8.6 2.7 1.4 4.1 1.7 3.5 3.6 8.8 4.6 13.2.4 1.9 1.3 4.8 1.8 6.5 1.9 5.5 4.1 14 4.5 17 .2 1.6.9 5 1.5 7.5 2.8 11.1 4.2 38.5 2.7 50-.3 2.5-.9 9-1.3 14.6s-1.2 10.7-1.8 11.5c-.7.8-1.4 3.6-1.7 6.4-.6 6-2.4 12.9-4.3 16.8-.8 1.6-1.4 4.3-1.4 6.1 0 1.8-.7 4.1-1.5 5.2-.8 1-1.5 2.8-1.5 3.9s-.7 2.9-1.5 3.9c-.8 1.1-1.5 2.7-1.5 3.7 0 .9-.7 2.2-1.5 2.9-.8.7-1.5 2.1-1.5 3 0 1-.7 3.1-1.4 4.7-.8 1.5-1.7 3.5-2.1 4.3-.3.8-1.5 3.1-2.6 5-1.2 1.9-3.5 6-5.1 9-1.7 3-4.5 7.8-6.4 10.7-1.9 2.8-3.4 5.6-3.4 6.1 0 .6-.3 1.2-.7 1.4-.5.1-2 2.1-3.6 4.4-1.5 2.2-3.5 4.9-4.5 6-.9 1.1-3.5 4.2-5.7 6.9-8.7 11-28.2 30.6-34 34.2-2.2 1.4-4.4 3.1-5 3.7-.5.7-3.5 3-6.5 5.1-3 2.1-6.3 4.7-7.5 5.7-1.1 1.1-2.9 2.4-4 2.9s-3.3 1.8-5 2.9c-1.6 1.1-4 2.4-5.2 2.9-1.1.5-2.4 1.5-2.8 2-.3.6-1.4 1.1-2.4 1.1s-2.4.7-3.1 1.5c-.7.8-2 1.5-3 1.5s-2.3.7-3 1.5c-.7.8-2 1.5-3 1.5s-2.3.7-3 1.5c-.7.8-1.9 1.5-2.8 1.5-1.4 0-7.9 2.6-12.4 5.1-1 .5-2.6.9-3.5.9-1 0-3.1.7-4.7 1.5-1.5.8-3.8 1.5-5 1.5-1.2 0-3.1.7-4.2 1.5-1 .8-3.2 1.5-4.9 1.5-1.6 0-4.1.7-5.5 1.5-1.4.8-4.1 1.4-6.1 1.5-2 0-5.6.7-7.9 1.5-2.3.8-6.1 1.5-8.4 1.5-2.2 0-7.3.7-11.1 1.5-9.5 2-39.7 2-48 0-3.3-.8-8.8-1.4-12.1-1.5-3.5 0-7.4-.7-9-1.5-1.6-.8-4.9-1.5-7.4-1.5-2.5-.1-5.6-.7-7-1.5-1.4-.8-3.9-1.4-5.6-1.5-1.8 0-4.5-.7-6-1.5-1.6-.8-3.8-1.5-5-1.5-1.1 0-2.9-.7-4-1.5-1-.8-2.9-1.5-4.1-1.5-1.2 0-3.6-.7-5.5-1.6-7.7-3.8-9-4.4-10.8-4.4-.9 0-2.3-.7-3-1.5-.7-.8-2.3-1.5-3.6-1.5-1.3 0-2.4-.4-2.4-.9s-1.2-1.4-2.7-2c-1.6-.6-5.5-2.7-8.8-4.6-3.3-1.9-6.9-3.9-8-4.5-3.4-1.7-5.6-3.3-15.8-11-5.5-4.1-11.5-8.5-13.4-9.8-4.8-3.3-33.2-32-36.8-37.3-1.6-2.4-3.2-4.6-3.5-4.9-1.6-1.5-6.8-8.8-7.3-10.3-.4-.9-1-1.7-1.6-1.7-.5 0-1.1-.8-1.5-1.8-.3-.9-1.5-3.1-2.6-4.7-1.1-1.7-2.2-3.6-2.5-4.3-.3-.6-.7-1.8-1-2.5-.3-.6-1.4-2.6-2.5-4.2-1.1-1.7-2.2-3.6-2.5-4.3-.3-.6-.7-1.8-1-2.5-.3-.6-1.6-3.2-3-5.6-1.4-2.4-2.5-5-2.5-5.6 0-.7-.7-1.8-1.5-2.5s-1.5-2.2-1.5-3.4c0-1.1-.7-3-1.5-4-.8-1.1-1.5-3.1-1.5-4.5s-.7-3.5-1.5-4.5c-.8-1.1-1.5-3-1.5-4.3 0-1.2-.7-3.7-1.4-5.5-.8-1.8-1.8-5.4-2.1-8-.3-2.6-1-5-1.6-5.3-.5-.4-.9-2.4-.9-4.6 0-2.2-.6-5.5-1.4-7.3-3.1-7.5-2.8-66.3.4-78.6 2.2-8.5 3.3-13.5 3.8-17 .2-1.9 1.1-4.4 1.8-5.5.8-1.1 1.4-3.3 1.4-5 0-1.6.7-3.9 1.5-4.9.8-1.1 1.5-3.1 1.5-4.5s.7-3.5 1.5-4.5c.8-1.1 1.5-2.7 1.5-3.7 0-.9.7-2.2 1.5-2.9.8-.7 1.5-2.1 1.5-3 0-1 .7-3.1 1.4-4.7.8-1.5 1.7-3.5 2-4.3.3-.8 1-2.2 1.5-3 .5-.8 1.9-3.5 3.1-6 1.2-2.5 3-5.9 4.1-7.5 1-1.7 2.2-3.7 2.6-4.5.3-.8 1.9-3.1 3.5-5.1 1.5-2 2.8-4.1 2.8-4.6 0-.4 1-1.9 2.3-3.3 1.2-1.4 3.4-4.3 4.9-6.5 1.5-2.2 4-5.4 5.5-7.1 1.5-1.7 5.3-5.9 8.3-9.3 8.2-9.3 13-14.2 18.5-18.6 2.8-2.2 6.7-5.5 8.8-7.4 2-1.9 5.2-4.3 7-5.4 1.7-1 4.4-3 5.9-4.4 2.5-2.4 4.5-3.7 9.3-6.3 1.1-.6 3.2-1.8 4.7-2.8 8.3-5.3 15.1-9.2 16.3-9.2.8 0 1.6-.4 1.9-.9.6-.9 5.1-3.1 13.4-6.7 1.7-.8 4.9-2.1 7-3 2-.9 4.9-2.3 6.4-3 1.4-.8 3.5-1.4 4.5-1.4 1.1 0 2.8-.7 3.9-1.5 1-.8 3.1-1.5 4.6-1.5 1.5 0 3.9-.5 5.5-1.1 1.5-.7 4.8-1.5 7.3-1.9 2.5-.4 6.5-1.2 9-1.8 10.3-2.5 16.1-3.4 26.3-4.2 5.9-.4 11.1-1.1 11.5-1.5.7-.7 11.4-.3 34.7 1.3zM190.9 246c1.1.5 3.9 1 6.3 1 2.4.1 5.4.7 6.8 1.5 1.4.8 3.7 1.4 5.1 1.5 1.5 0 3.2.7 3.9 1.5.7.8 1.9 1.5 2.6 1.5.8 0 3.3 1.2 5.7 2.7 2.3 1.6 4.7 3 5.4 3.3 3.1 1.3 23.6 18.6 27.3 23 4.8 5.7 4.7 6.7-.8 12.5-2 2.2-4.5 5.2-5.5 6.7-1 1.6-2.4 2.8-3.3 2.8-.8 0-5-3.4-9.2-7.6-7.4-7.4-16.9-14.2-24.2-17.6-8.1-3.7-11.2-4.8-13.4-4.8-1.3 0-4-.7-5.9-1.5-2.6-1.1-7.3-1.5-16.5-1.5-9.3 0-14 .4-16.5 1.5-2 .8-4.7 1.5-6.1 1.5-3.4 0-5.7 3.5-4.5 6.7.5 1.3.9 5.2.9 8.6.1 3.5.7 7.3 1.5 8.7.8 1.4 1.4 4.1 1.5 6.1 0 2 .7 4.2 1.5 4.9.8.7 1.5 1.9 1.5 2.8 0 1.9 3.8 10 5.1 10.8.5.3.9 1.2.9 2 0 2.2 10 15.2 16 20.8 2.8 2.6 6.5 5.4 8.3 6.2 1.7.8 4.6 2.3 6.2 3.4 1.7 1.1 3.9 2.4 5 3 1.1.5 2.8 1.4 3.8 2 .9.5 2.5 1.5 3.5 2 .9.6 2.7 1.4 4 2 2.6 1.1 2.4 3.5-1 10.7-2.1 4.6-3 5-6.8 2.8-1.4-.8-3.6-1.5-5-1.5s-3.4-.7-4.4-1.5c-1.1-.8-2.8-1.5-3.7-1.5-1 0-3-.7-4.6-1.5-1.5-.7-4.8-2.3-7.3-3.5-2.5-1.2-5.2-2.5-6-3-.8-.5-2.2-1.1-3-1.4-7.6-2.9-23.2-17.4-26.3-24.6-.4-.8-1.1-2.2-1.6-3-.5-.8-1.2-2.2-1.5-3-.3-.8-1-2.2-1.4-3-2.7-4.7-4.2-8.4-4.2-9.9 0-.9-.7-2.6-1.5-3.7-.8-1-1.5-3.3-1.5-5.1 0-1.7-.6-4.4-1.4-6-2.4-4.7-3.9-16-4.3-31.5l-.4-14.6 3.6-2.8c1.9-1.5 5.2-3 7.3-3.4 2-.5 5.1-1.3 6.7-1.8 6.9-2.4 12.4-3.5 19-3.9 3.9-.2 7.9-.8 9-1.3 4.4-2.1 19.6-2.1 23.4 0zm538.1-.2c.8.3 5.1.9 9.5 1.3 10.1.9 25.8 4.8 33.3 8.2l4.2 1.9v14.1c0 9.7-.5 15.8-1.5 19.1-.8 2.7-1.5 6.8-1.5 9-.1 2.3-.7 5.2-1.5 6.6-.8 1.4-1.5 3.6-1.5 5s-.7 3.4-1.5 4.4c-.8 1.1-1.5 2.9-1.5 4.1 0 1.2-.7 3-1.5 4.1-.8 1-1.5 2.9-1.5 4.1 0 1.2-.4 2.4-.9 2.7-.5.4-1.9 2.7-3.2 5.4-1.2 2.6-3.8 6.6-5.6 9-4.1 5-16.8 14.8-23.5 18-2.6 1.3-5 2.7-5.3 3.3-.4.5-1.6.9-2.8.9-1.2 0-3.1.7-4.1 1.5-1.1.8-3 1.5-4.2 1.5-1.2 0-2.7.7-3.4 1.5-.7.8-2.1 1.5-3.1 1.5s-2.1.4-2.4 1c-.8 1.3-9.3 5-11.6 5-1.1 0-1.9-.6-1.9-1.3 0-.6-.6-2.3-1.3-3.7-.8-1.4-1.6-4-2-5.7-.5-2.6-.2-3.4 2.1-4.9 4-2.7 9.5-5.4 10.8-5.4.6 0 1.7-.7 2.4-1.5s2.1-1.5 3.2-1.5c1 0 2.1-.7 2.4-1.5.4-.8 1-1.5 1.5-1.5 2.9 0 15.3-11.1 21.3-19 4.4-5.7 10.6-17.4 10.6-20 0-.8.7-2.4 1.5-3.4.8-1.1 1.5-3.1 1.5-4.4 0-1.3.7-4.8 1.5-7.7 1.1-3.5 1.5-8.3 1.3-14.1l-.3-8.9-4-.7c-2.2-.3-5.8-1.1-8-1.7-6.2-1.6-26.9-1.4-31.2.4-1.9.8-4.8 1.5-6.2 1.5-1.5 0-3.6.7-4.7 1.5-1 .8-2.9 1.5-4 1.5-1.2 0-2.7.7-3.4 1.5-.7.8-2 1.5-3 1.5-.9 0-3.6 1.3-5.8 3-2.3 1.6-4.6 3-5 3-.5 0-2.2 1.3-3.8 3-1.6 1.6-3.4 3-3.9 3-1.4 0-9 8-9.8 10.2-1.1 3-3.4 2-7-3-2-2.6-4.5-5.6-5.6-6.6-4-3.7-2.8-6.7 6.3-16 4.5-4.7 8.6-8.6 9-8.6.4 0 2.8-1.8 5.4-4 2.6-2.3 5.7-4.6 6.9-5.3 3.1-1.7 10.5-5.4 12.3-6.1.8-.3 2.2-1 3-1.5 7.7-4.5 36.3-8 43-5.3zm-548.3 35.3c1.8 0 3.5.4 3.8.9.3.6 2.7 1 5.3 1 3.9 0 9.2 1.2 15.7 3.7.6.2 2.4 1.2 4 2.3 1.7 1.1 3.7 2.3 4.5 2.7 5.2 2.3 21.3 17.4 22.4 21.1.6 1.6-.3 3.8-3.5 8.7-2.4 3.6-4.7 6.5-5.2 6.5s-3.5-2-6.7-4.5-6.1-4.5-6.3-4.5c-.3 0-2.9-1.6-5.8-3.6-3-2-6.7-4.3-8.4-5-1.6-.8-3.7-1.8-4.5-2.3-2.9-1.6-9.2-3.3-9.8-2.6-.4.4-.1 1 .6 1.2.6.3 1.2.9 1.2 1.4 0 2.4 12.1 15.7 15.5 17 .6.2 5 3 9.8 6.2l8.9 5.9-.7 3.6c-.4 2.1-1.3 4.4-2.1 5.3-.8.8-1.4 2.2-1.4 3-.1 1.7-3.5 5.9-4.8 5.9-.6 0-2.3-.7-3.9-1.4-1.5-.8-3.5-1.8-4.3-2.1-.8-.3-3.7-1.9-6.5-3.5-2.7-1.7-6.1-3.6-7.5-4.3-4-1.9-8.9-6.7-14.1-13.7-2.7-3.6-5.2-7-5.6-7.5-1.7-2.2-7.3-14.6-7.3-16.2-.1-1-.7-2.9-1.5-4.3s-1.4-3.7-1.5-5.1c0-1.5-.7-4.3-1.5-6.2-2.6-6.2-2.1-7.1 4.3-9 3.4-.9 7.3-1.4 9.7-1.1 2.2.3 5.4.6 7.2.5zm554.1.2c1.8.4 3.7.9 4.2 1.2 2.1 1.3 1.1 7.6-3.2 20-.6 1.6-1.3 4.4-1.5 6.2-.3 1.8-1.1 3.8-1.9 4.4-.8.6-1.4 1.9-1.4 2.9s-.7 2.3-1.5 3c-.8.7-1.5 1.9-1.5 2.7 0 3.9-14.2 18.5-21 21.6-.8.4-2.8 1.6-4.5 2.6-4.3 2.8-10.9 6.1-12.2 6.1-.6 0-1.6.7-2.3 1.5-2.7 3.3-4.8 1.7-8.9-6.8l-4.1-8.2 2.4-2c1.3-1.1 5-3.8 8.2-6 7.8-5.4 21.4-19 21.4-21.5 0-2.4-2.1-2.6-5.8-.6-1.5.7-4.5 2.2-6.7 3.2-3.4 1.6-10.3 6.1-14 9.2-3.1 2.5-9.9 7.2-10.5 7.2-.4 0-2-1.9-3.6-4.3-1.6-2.3-3.9-5.3-5.1-6.7-1.3-1.4-2.3-2.9-2.3-3.4 0-1.1 8-9 16.4-16.3 9-7.8 18.9-12.3 31.6-14.3 3-.5 7.8-1.4 10.5-1.9 5-.9 11.1-.8 17.3.2zM173 380.5c1.4.8 4.2 1.4 6.3 1.5 2.1 0 4.8.5 6 1.2 1.2.6 3.8 1.5 5.7 1.9 10.5 2.3 13.3 4.7 10.9 9.1-.7 1.3-1.6 4.3-1.9 6.8l-.5 4.5-4.4.3c-2.4.2-6.1-.4-8.2-1.2-5.4-2.2-26.2-2.2-30.3-.1-1.5.8-3.6 1.5-4.5 1.5-2.9 0-12.3 5.3-20.7 11.7C123.2 424 98 449.1 98 451c0 .9 21.1 25 24.2 27.5 6.9 5.7 12.8 10 15.3 11.2 1.7.7 3.7 1.7 4.5 2.2 5 2.8 8 4.1 9.4 4.1.9 0 2.9.8 4.3 1.7 3.9 2.6 33.2 2.6 38 0 4.2-2.2 6.3-1.3 6.3 2.8 0 1.7.5 4.6 1.1 6.3 1.3 3.8-.2 7.2-3.2 7.2-1.1 0-3 .5-4.2 1.2-1.2.6-3.8 1.5-5.7 1.9-1.9.4-4.8 1.2-6.5 1.7-6.8 2.4-19.3 4.4-24 3.9-8.3-.9-19.6-3.4-20.8-4.6-.6-.6-2-1.1-3.1-1.1-1.2-.1-3.9-1.2-6.1-2.5-2.2-1.4-4.9-2.9-6-3.4-2.3-1-13.8-11.3-24-21.6-11.1-11-16.7-18.1-26.7-33.3-2.7-4.1-3.1-5.1-2.4-6.5 1.7-3.4 13.4-20.4 15.4-22.4 1-1 4.2-4.7 7.2-8.3 6.1-7.5 16.1-17.2 24-23.4 6.2-4.8 16.2-10.6 18.3-10.6.8 0 2-.7 2.7-1.5.7-.8 2.4-1.5 3.9-1.5 1.4 0 4.9-.7 7.6-1.4 6.8-1.9 22.2-2 25.5-.1zm577 0c2.3.8 5.4 1.5 6.9 1.5 1.4 0 5.3 1.3 8.6 2.9 3.3 1.6 6.7 3.2 7.5 3.5 2.4.9 5 2.8 8.9 6.4 2 1.8 4.7 3.9 6.1 4.7 2.7 1.5 19.6 18.4 22 22 .8 1.3 4.9 6.7 9 12.1 9.4 12.3 11 14.8 11 17.3 0 6.5-28.5 39.9-47.4 55.6-5.4 4.5-16 10.5-18.6 10.5-.9 0-2.5.7-3.6 1.5-1 .8-3.4 1.5-5.2 1.5-1.8 0-4.9.7-6.9 1.5-1.9.8-6.4 1.5-9.8 1.5-3.4 0-8.2-.7-10.5-1.5-2.3-.8-5.7-1.5-7.4-1.5-1.7 0-4-.7-5-1.5-1.1-.8-3.2-1.5-4.8-1.5-1.5 0-4.2-.6-6-1.4-1.8-.8-4.6-1.8-6.2-2.1-2.6-.5-2.8-.9-2.2-3.8.3-1.8.9-5.1 1.2-7.4.9-5.9 2.7-7.2 6.7-4.7 2.8 1.6 5.2 1.9 19.7 1.8 16.2 0 16.6-.1 23-3.1 3.6-1.7 7.2-3.3 8-3.7 6.2-2.5 20.5-14.3 30-24.7 5.2-5.7 10.8-11.6 12.4-13.1l2.9-2.7-2.5-3.8c-4.3-6.5-31.7-33.3-34-33.3-.5 0-2.4-1.1-4.1-2.4-3.1-2.2-8.5-4.9-15.7-7.7-5.6-2.1-28.1-2.4-34.4-.4-2.9.9-6.6 1.5-8.2 1.3-2.7-.3-2.9-.7-3.4-5.3-.3-2.8-1.2-6-1.9-7.3-1.5-2.9-.8-5.2 1.7-5.2 1 0 2.7-.7 3.8-1.5 1-.8 3-1.5 4.4-1.5 1.4 0 3.6-.7 5-1.5s4.1-1.5 6-1.5c1.9-.1 5.5-.7 8-1.4 6.4-1.9 19.9-1.9 25-.1zM727.5 413c12.9 2.3 15.2 2.9 18.5 4 1.9.7 4.2 1.7 5 2.1.8.5 2.2 1.2 3 1.6 2.2.9 9.4 6.5 10.3 8 .4.7 1.3 1.3 2 1.3 1.3 0 10.8 9.2 15.7 15.1 3.9 4.7 3.8 7.2-.4 12.3-12.9 15.7-31.8 29.6-40.3 29.6-1.3 0-3.4.7-4.8 1.6-1.9 1.2-4.6 1.5-13.7 1.2-10-.4-14.7-1.2-19.8-3.8-1.2-.6-1.4-2.4-1.2-8.6.3-9.4 1.7-11.6 5.8-9.4 1.8 1 6.1 1.4 13.7 1.5 10.7 0 11.4-.2 17.2-3.3 5.8-3.1 17.5-13.3 17.5-15.2 0-1.6-11.9-12-13.8-12-.5 0-1.5-.7-2.2-1.5-.7-.8-2-1.5-3-1.5s-3.1-.7-4.6-1.5c-3.9-2-18.2-2-23.1 0-5.2 2.2-7.3 1.2-7.3-3.4 0-2.1-.3-5.9-.6-8.4-.6-4.3-.5-4.6 2.4-6.1 1.7-.9 4.1-1.6 5.4-1.6 1.3 0 4.1-.7 6.3-1.5 4.6-1.6 5.3-1.7 12-.5zm-541 1.8c9.5 1.8 10.5 2.5 10.4 7.9-.1 8.8-1.2 12.8-3.6 13.1-1.3.2-3.3-.4-4.5-1.2-3.1-2.2-18.6-2.2-21.4-.1-1 .8-2.7 1.5-3.7 1.5-2.4 0-12.1 5.5-15.6 8.8-.8.7-2.4 2-3.7 2.9-1.3.8-2.4 2-2.4 2.5 0 2.5 12.1 12.3 21 17.1 4.9 2.6 22.7 2.8 26.6.2 1.4-.9 2.8-1.4 3.2-1.1 1.2 1.3 3 8 3.7 13.7.6 5.2.5 6-1.2 6.4-1 .4-3.1 1.3-4.6 2.1-4 2-27.1 1.9-30.7-.1-1.4-.8-3.6-1.5-5-1.5s-3.4-.7-4.4-1.5c-1.1-.8-2.6-1.5-3.4-1.5-.8 0-3.1-1.4-5.2-3-2.1-1.7-4.2-3-4.6-3-.8 0-2.3-1.2-10.6-8.6-6-5.4-13.8-15.6-13.8-18.1 0-4.8 31.4-33.3 36.8-33.3.9 0 3-.7 4.6-1.5 1.5-.8 4-1.5 5.5-1.5 1.4 0 3.3-.5 4.1-1 1.7-1.2 14.8-.7 22.5.8zm1.1 28.7c1 .8 2.9 1.5 4.2 1.5 2 0 2.2.5 2.2 6.1 0 5.9-.1 6-3.5 7.5-2.1.8-6.8 1.4-12 1.4-7.6 0-9.3-.4-15-3.2-3.6-1.7-6.5-3.6-6.5-4.3 0-1.3 8.4-7.5 10.3-7.5.7-.1 2.3-.7 3.7-1.5 3.4-1.9 14-1.9 16.6 0zm541.1-.1c1.5.8 3.5 1.8 4.3 2.1 4.1 1.6 9 5.5 9 7.2-.1.4-3.1 2.3-6.9 4-6 2.9-7.7 3.3-15.4 3.3-4.7 0-8.8-.4-9.2-.9-.3-.5-1.9-1.2-3.5-1.6-2.9-.6-3-.9-3-6.1 0-4.3.4-5.6 1.8-6 .9-.3 3.1-1.2 4.7-1.9 4-1.8 14.6-1.9 18.2-.1zm-522.6 83.4c.4 1.9 1.2 3.9 1.8 4.5 2.6 2.6 0 9.7-3.5 9.7-1.4 0-6.6 2.7-11.9 6.1-1.6 1-3.7 2.2-4.5 2.6-9 4.2-27 22-27 26.7 0 .8-.4 1.7-.9 2-1.2.8-5.1 8.8-5.1 10.7 0 .8-.7 2.3-1.5 3.3-.8 1.1-1.5 3.2-1.5 4.7 0 1.4-.7 4.3-1.5 6.2-1.9 4.7-2.1 23.6-.2 24.1.6.2 3.5 1.1 6.2 2 5.8 1.9 29.3 2.3 32.6.5 1.1-.6 4.1-1.4 6.7-1.9 2.6-.4 6.3-1.4 8.2-2 1.9-.7 4-1.5 4.5-1.6.6-.2 1.7-.8 2.5-1.3s2.2-1.2 3-1.6c5-2 13.7-8.3 20.2-14.7 9.9-9.7 9-9.4 12.6-4.5 1.6 2.3 4.6 5.8 6.6 7.7 1.9 1.9 3.6 3.9 3.6 4.3 0 1.4-20.3 20.7-25.2 23.9-1.4.9-3.2 2.3-4 3.2-1.4 1.3-3.5 2.6-10.8 6.5-.8.4-3.3 1.6-5.5 2.6-2.2.9-5.3 2.3-7 3-8.1 3.7-48.5 3.4-57.8-.4-1.6-.6-3.9-1.1-5.2-1.1-1.2 0-3.6-.7-5.1-1.5-1.6-.8-4.4-1.5-6.2-1.5-1.8 0-4.4-.7-5.7-1.6-2.5-1.6-2.5-1.7-2.5-17.9 0-11.9.4-17.4 1.5-20.5.8-2.3 1.5-5.7 1.5-7.4 0-1.8.7-4.1 1.5-5.2.8-1 1.5-3.5 1.5-5.4 0-1.9.7-4.4 1.5-5.4.8-1.1 1.5-2.9 1.5-4 0-1.2.7-3 1.5-4 .8-1.1 1.5-2.7 1.5-3.5 0-.9 1.5-4.5 3.2-8.1 4.3-8.3 20.8-25.3 27.8-28.3l3-1.5c1.8-1.1 10.3-4.8 19.3-8.5 7.1-3 12.3-4.5 15.2-4.4 2.5.2 3 .7 3.6 3.5zM703 525c1.9.7 4.8 1.8 6.3 2.6 1.6.8 3.4 1.4 4.1 1.4 1.6 0 12.4 5.7 14.7 7.6.8.8 2.1 1.4 2.7 1.4 1.6 0 13.4 8.3 17.3 12.2 5.2 5.1 9.3 10.8 11.8 16 1.3 2.7 2.7 5 3.2 5.4.5.3.9 1.4.9 2.4s.7 3.2 1.5 4.9c.8 1.7 2.2 4.5 3 6.2.8 1.7 1.5 4.5 1.5 6.2 0 1.8.7 4.1 1.5 5.1.8 1.1 1.5 3.6 1.5 5.5 0 2 .7 6.1 1.5 9.1 1 3.6 1.5 10.3 1.5 19.4 0 13-.2 14.1-2.2 16.3-1.3 1.4-3.3 2.3-5.2 2.3-1.7 0-4.4.7-6 1.5-1.5.8-4.1 1.5-5.6 1.5-1.6 0-4.1.5-5.7 1.2-6.2 2.6-36.2 3.9-48.8 2.1-7.1-1.1-11.2-2.3-17.5-5.2-4.8-2.2-13.3-7.3-14.5-8.7-.5-.7-2.8-2.3-5-3.7-4-2.4-24.5-21.9-24.5-23.2 0-.3 2.1-3.4 4.7-6.8 6.5-8.5 7.6-9.7 8.6-9.7.5 0 4.2 3.3 8.1 7.3 6.4 6.6 13.2 11.9 21.7 17 4 2.3 13.8 5.7 16.5 5.7 1.2 0 3.5.7 5 1.5 3.7 1.9 33.3 2.2 35.1.4.7-.7 2.9-1.5 5-1.8l3.8-.6-.4-10.9c-.2-6.2-.9-12.3-1.7-14.2-.8-1.8-1.4-4.4-1.4-5.8 0-1.3-.6-3.7-1.4-5.3-1.2-2.5-3.2-7-5-11.3-.7-1.6-2-3.8-5.1-8.5-2.4-3.7-13.7-15.5-14.9-15.5-.4 0-2.5-1.3-4.5-2.8-2-1.6-4.3-3.2-5.1-3.5-.8-.4-2.8-1.6-4.5-2.7-1.6-1.1-3.7-2.2-4.5-2.6-.8-.3-2.7-1.2-4.2-2-1.4-.8-3.5-1.4-4.6-1.4-3.3 0-4.6-2.5-3.4-6.7 3.2-11.2 3.4-11.5 7.2-11 1.9.2 5.1 1 7 1.7zm-9.8 27.4c4.7 2.5 10.1 5.4 11.9 6.5 1.9 1.2 4.1 2.4 4.9 2.8.8.3 4.4 3.2 8 6.4 4.9 4.2 7.3 7.4 9.8 12.5 1.8 3.8 4 8.2 4.8 9.7.8 1.6 1.4 3.9 1.4 5.1 0 1.2.7 3.1 1.5 4.2.8 1 1.5 3.2 1.5 4.7s.7 4.4 1.5 6.4c1.7 4 2 7.9.6 8.8-1.1.6-5.4 1.3-13.7 2.1-4.5.5-7.5.2-11-1-2.6-.9-7.5-1.6-10.8-1.6-4.6-.1-7.1-.7-10.1-2.5-2.2-1.3-5.9-3.4-8.3-4.5-4.1-2.1-25.2-21.7-25.2-23.5 0-.4 1.7-3.1 3.8-5.9 2.1-2.8 4.1-5.9 4.5-6.9.7-1.9 4.1-2.3 6-.7 4.1 3.5 17.2 12.5 19.7 13.7.8.4 3.7 1.9 6.3 3.5 5.2 3.1 9.7 3.7 9.7 1.3 0-.7-.6-1.8-1.2-2.2-.7-.4-3.1-3-5.2-5.7-4.4-5.4-13.6-13-18.1-15-1.6-.7-4.5-2.5-6.2-4-2.7-2.3-3.2-3.3-2.7-5.4.4-1.5 1.3-3.4 2-4.3.8-.8 1.4-2.1 1.4-2.8 0-1.4 3.2-6 4.1-6.1.4 0 4.5 2 9.1 4.4zM216.7 554c1.3 2.5 2.8 4.9 3.3 5.4 1.7 1.7 1.2 7.6-.7 8.3-1 .4-3.6 1.9-5.8 3.3-7.2 4.5-8 5-10.1 5.9-3.5 1.5-15.4 14-15.4 16.1 0 2.4 1.9 2.6 4.6.5 1-.8 2.6-1.5 3.5-1.5.9 0 3.6-1.1 6-2.4 2.4-1.4 6.8-3.7 9.8-5.2 2.9-1.6 7.4-4.6 9.8-6.8l4.6-4 3.3 3.9c1.9 2.2 3.4 4.5 3.4 5.1 0 .6.7 1.7 1.5 2.4 3 2.5 1.6 5.4-6.2 13.2-7.3 7.2-17.3 14.8-19.5 14.8-.5 0-1.9.6-3.1 1.2-3.3 1.9-10.5 3.9-17.2 4.8-3.3.5-7.3 1.1-9 1.5-1.6.3-6.4.9-10.6 1.2-6.2.4-7.8.2-9.2-1.2-2.1-2-2.2-7.1-.2-11.8.8-2 1.5-4.9 1.5-6.4s.7-3.7 1.5-4.7c.8-1.1 1.5-3.2 1.5-4.7 0-1.4.7-3.2 1.5-3.9.8-.7 1.5-1.7 1.5-2.3 0-5.4 14-21.8 23-27 5.9-3.4 16.9-9 19.5-9.8 3.5-1.2 4.8-.5 7.2 4.1zm429.1 80c16.9 17.3 26.1 32.4 28.3 46 3.6 23.1 3.6 19.4 0 42.5-1.1 6.6-3.1 14.5-4.4 17-.6 1.1-1.4 3.3-1.8 5-1.5 5.7-3.6 10.7-5 11.6-2.4 1.5-37.9 1.1-42.4-.6-2.2-.8-6.1-1.4-8.6-1.5-2.5 0-5.4-.7-6.5-1.5-1-.8-3.1-1.5-4.6-1.5-1.5 0-4.4-.7-6.5-1.6-7-3.1-9.8-4.3-11.3-4.8-.8-.4-2.8-1.5-4.5-2.6-1.6-1.1-3.7-2.3-4.5-2.7-.8-.3-3.5-2.5-6-4.7-2.5-2.3-6.5-5.7-8.8-7.6-5.3-4.5-14.4-16.8-16.8-23-1-2.7-3.5-8.4-5-11.3-2.4-4.8-1.8-7 2.5-9 2-.9 4.2-1.7 4.7-1.7s3.2-1.2 6.1-2.6c5.4-2.8 8-2.7 8.9.3.3 1 1.2 3.1 2 4.6.7 1.6 1.4 3.4 1.4 4.2 0 .7.7 1.8 1.5 2.5s1.5 1.8 1.5 2.6c0 4 11 16.3 19.7 22.1 2.9 1.9 5.6 3.9 5.9 4.4.3.5 1.3.9 2.3.9 1 0 2.4.7 3.1 1.5.7.8 2.3 1.5 3.5 1.5 1.2 0 2.8.7 3.5 1.5.7.8 2.3 1.5 3.7 1.5 1.3 0 3.4.5 4.6 1.2 2.7 1.4 24.4 3.5 30.4 2.9 1.8-.2 4.3-5.5 4.3-9 0-1.7.7-5.6 1.5-8.8.8-3.1 1.5-9.2 1.5-13.4 0-4.5-.6-9.1-1.5-11.2-.8-2-1.5-4.7-1.5-5.9 0-1.3-.7-3.6-1.5-5.2-.8-1.5-1.5-3.6-1.5-4.6 0-1-.7-2.3-1.5-3-.8-.7-1.5-2-1.5-3s-.7-2.3-1.5-3c-.8-.7-1.5-1.6-1.5-2.1 0-1.5-9.1-14.1-12.6-17.5-1.8-1.8-4-4.4-4.9-5.8l-1.8-2.7 7.3-6.9c8.5-8.1 6.5-8.7 19.8 5zm-373.9-4.8c3.4 3 5.9 6.2 6 7.3 0 1.1-1.6 3.6-3.5 5.5-4.2 4.2-14.4 17.5-14.4 18.8 0 .5-.7 1.5-1.5 2.2-.8.7-1.5 2-1.5 3s-.7 2.3-1.5 3c-.8.7-1.5 2.4-1.5 3.9 0 1.4-.7 3.5-1.5 4.5-.8 1.1-1.5 3.3-1.5 4.8 0 1.6-.7 4.5-1.5 6.5-1.8 4.3-2 20.2-.4 25.3.7 1.9 1.4 5.9 1.8 8.9.8 7 3.8 9.6 9.1 8.1 1.9-.5 7.3-1 12-1 5.6 0 9.5-.5 11.4-1.5 1.5-.8 3.9-1.5 5.3-1.5s3.7-.6 5.1-1.4c1.5-.7 5.7-2.8 9.4-4.6 10.8-5.4 28.8-22.5 28.8-27.3 0-.9.4-1.8.9-2.1 1.1-.7 5.1-8.8 5.1-10.3 0-.5.9-1.8 2-2.8 2.1-1.9 2.5-1.9 10.2 2.1 1.4.8 3.3 1.4 4.1 1.4.9 0 2.9.8 4.7 1.7 2.5 1.4 3 2.3 2.6 4.3-.6 3.7-3.1 9.9-4.4 11.2-.7.7-1.2 2.2-1.2 3.4 0 1.2-.7 2.7-1.5 3.4-.8.7-1.5 1.7-1.5 2.2 0 1.6-9 13-13.9 17.7-5 4.7-14.7 12.4-17.1 13.4-.8.4-2.2 1.1-3 1.6-.8.5-2.2 1.2-3 1.5-.8.3-2.2 1-3 1.5-.8.5-3.3 1.7-5.5 2.6-2.2 1-5.2 2.4-6.7 3.2-1.4.7-3.7 1.3-5 1.3-1.2.1-3.4.7-4.8 1.5s-4.1 1.4-6.1 1.5c-2 0-5.6.7-7.9 1.5-3.2 1.1-9 1.5-23.5 1.5h-19.3l-2.1-4.3c-1.2-2.4-2.1-5-2.1-5.8 0-.8-.7-2.4-1.5-3.5-.8-1-1.5-3.1-1.5-4.6 0-1.5-.5-3.9-1.1-5.5-.7-1.5-1.5-6.2-1.9-10.3-.4-4.1-1.3-9.4-1.9-11.7-1.4-5.3-.9-23.9.7-25.5.7-.7 1.2-3.1 1.2-5.5 0-6.5 5.9-19.3 14.1-30.2 6.5-8.6 24-26.1 26.2-26.1 1 0 4.4 2.4 7.6 5.2zm19.7 16.8c1.6 1.6 3.3 3 3.8 3s2.9 1.6 5.3 3.6c3.8 3.2 4.2 3.8 3.1 5.3-.8.9-2.4 3.6-3.8 6.1-1.3 2.5-5.4 9-9.2 14.5-6.4 9.4-8 13.6-5.9 14.9.5.3 1.4-.1 2.1-.9.7-.8 1.9-1.5 2.6-1.5 1.7 0 14.3-11.8 15.5-14.5.5-1.1 2-3.8 3.4-6 1.3-2.2 2.4-4.8 2.5-5.8 0-3.8 3.1-3.2 11.5 2.3 1.7 1.1 4.1 2.4 5.4 3 2 .9 2.3 1.5 1.8 4.6-.4 2-1.3 4.4-2.2 5.4-.8.9-1.5 2.3-1.5 3.1-.1.8-1.2 3.2-2.5 5.4-1.4 2.2-2.8 4.7-3.2 5.5-2.1 4.5-18.7 18-22.2 18-.5 0-1.4.7-2.1 1.5-.7.8-2.1 1.5-3.1 1.5s-3.3.6-5.1 1.4c-6.6 2.7-14.4 4.6-20.8 4.8l-6.5.3-.8-7.5c-.5-4.1-.9-9.5-.9-12 .1-8.8 3.3-24.5 6-29.6.6-1.1 1.3-2.6 1.6-3.4.7-1.7 2.3-4.3 4.9-8 2.7-3.8 15.9-18 16.7-18 .4 0 2 1.3 3.6 3zm328.8 8.2c3.1 3.4 5.6 6.6 5.6 7.1s1.4 2.6 3 4.7c1.7 2.1 3 4.5 3 5.3 0 .8.7 2 1.5 2.7.8.7 1.5 2 1.5 3s.7 3.4 1.5 5.3c1.1 2.8 1.5 7.8 1.5 21.2V721h-6.9c-6.6 0-13.9-1.6-20.9-4.6-1.8-.8-3.9-1.4-4.6-1.4-.7 0-3.3-1.1-5.7-2.5-2.4-1.4-5.1-2.8-5.9-3.2-4-1.7-14.2-10.9-16.7-14.9-3.8-6.1-8.4-16.6-8.6-19.9-.2-3.5.1-3.9 4.8-6.6 8.9-5.2 9.5-5.4 11.3-4.2.9.5 1.8 2.2 2 3.6.2 1.4 1 3.1 1.8 3.7.8.7 1.4 1.9 1.4 2.7 0 .7.7 1.6 1.5 1.9.8.4 1.5 1.2 1.5 1.9 0 2 13.2 13.5 15.6 13.5.6 0 1.7.7 2.4 1.5 1.4 1.6 3 1.1 3-1 0-.7-3.3-6.2-7.2-12.2-8.3-12.2-9.5-14.2-10.3-16.3-.3-.8-1.2-2.7-2-4.2-1.3-2.6-1.2-2.9 3.3-6.6 2.6-2.2 6.2-4.9 8.1-6 3.4-2.1 3.5-2.1 6.2-.1 1.5 1.1 5.3 4.7 8.3 8.1zm-245.6 35c.6.6 3 1.5 5.4 1.9 7.3 1.3 14.2 3.5 14.6 4.7.1.5-.4 2.7-1.2 4.7-1.9 4.5-2.2 24.8-.5 29.2.6 1.5 1.5 4.4 1.9 6.3 1.7 7.3 3.4 10.6 12.6 24.5 1.8 2.7 8.2 9.9 14.1 16 17.1 17.4 23.1 22.5 26.6 22.5 6 0 40.5-33.7 46-44.9.4-.9 1.6-3 2.7-4.6 1.1-1.7 2.3-3.7 2.6-4.5.3-.8 1.2-2.9 2-4.7.8-1.7 1.4-4.2 1.4-5.5.1-1.2.7-3.4 1.5-4.8 2-3.6 2-21.5-.1-27.5-2.6-7.7-2.5-7.8 13.6-11.4 1.9-.4 4.5-1.3 5.7-1.9 1.9-1.1 2.3-.8 4.2 2.4 1.4 2.2 2.1 5.2 2.1 8.3 0 2.7.7 6.5 1.5 8.4 1 2.5 1.5 7.1 1.5 14 0 6.7-.5 12-1.5 14.7-.8 2.3-1.5 5.3-1.5 6.6 0 2.1-5.2 14-8.3 18.9-9.1 14.5-29.7 35.8-47.1 48.7-5 3.7-9.6 7.2-10.3 7.8-.7.5-1.5 1-1.8 1-.6 0-6.5 4-7.5 5-1 1.1-6 4-6.7 4-.5 0-2-1.1-3.5-2.5s-3.6-2.9-4.6-3.3c-1.1-.4-3.2-1.7-4.8-3-1.6-1.2-5.4-4.1-8.5-6.5-12.9-9.7-21.1-16.8-32.5-28.3-10.5-10.5-20.4-22.9-20.4-25.4 0-.5-.7-2.3-1.6-4.2-4-7.9-4.4-9.1-4.4-12.1-.1-1.8-.7-4.3-1.5-5.7-2-3.5-2-26.9 0-32.5.8-2.2 1.5-5.3 1.5-6.8 0-2.9 3.5-10.7 4.8-10.7.4 0 1.3.5 2 1.2zm48.4 10.1c3.6.6 6.9 1.5 7.3 1.9.4.4 0 1.7-.9 3-2.2 3.1-2.3 22.5-.1 25.4.8 1 1.5 2.5 1.5 3.3 0 2.7 16.1 21.1 18.4 21.1.6 0 2.1-1.2 3.3-2.8 4.8-5.6 11-13.8 11.6-15.2.4-.8 1.1-2.2 1.6-3 3.7-6.4 4.1-8.2 4.1-16.5 0-5.8-.5-9.6-1.5-11.6-2.1-3.9-1.3-4.9 3.8-4.9 2.3 0 6-.5 8.2-1.1 7.8-2 8.5-2.1 11-1.5 2.2.6 2.5 1.2 2.6 4.9.1 2.3.4 5.3.8 6.6.3 1.3.3 7.1-.1 13-1 12.8-3.4 18.4-14.7 33.5-8.5 11.3-28.5 31.6-31.3 31.6-1.9 0-10.7-6.8-17.2-13.2-4-4.1-16.6-19.6-16.6-20.6 0-.4-1.1-1.9-2.3-3.2-1.3-1.4-2.7-3.8-3.1-5.3-.3-1.5-1.1-2.7-1.6-2.7-.6 0-1-.8-1-1.8s-.6-2.6-1.4-3.7c-.7-1.1-1.6-3.8-1.9-6-.3-2.2-1.1-5.9-1.8-8.3-1.1-3.5-1.1-5 .1-9 .7-2.6 1.5-6.7 1.7-9.2.7-7.4.6-7.4 7.1-6.6 3.1.3 8.7 1.2 12.4 1.9zm33.6 1.9c.5.7 1.3 3.8 1.7 6.8.4 3 1.1 6.3 1.6 7.2.6 1.2.4 3-.6 5.4-.8 2-1.5 4.7-1.5 6 0 1.2-.5 2.6-1.1 2.9-.5.4-1.4 1.7-2 2.8-1.3 3-3.2 6.1-4.4 6.9-1.4 1.1-4.5 1-4.5-.1 0-.6-1.3-3-3-5.4-1.6-2.5-3-5.2-3-6.1 0-.9-.7-2.8-1.6-4.1-2-3.1-1.5-14.2 1-19.8l1.6-3.7h7.4c4.7 0 7.7.5 8.4 1.2z"/><path d="M416.5 236.5c-2.7.8-6.7 1.5-8.8 1.5-2.1 0-5.4.7-7.4 1.5-1.9.8-4.8 1.5-6.4 1.5-1.6 0-4.3.6-6.1 1.4-5.1 2.1-10 3.8-12.8 4.3-1.4.2-3.8 1-5.5 1.7-7.8 3.4-11.1 4.9-12.5 5.7-.8.5-2.1 1.1-2.7 1.4-.7.3-1.9.7-2.5 1-.7.3-2 .9-2.8 1.4-.8.5-3.3 1.8-5.5 2.8-2.2 1-6.7 3.6-10 5.8-3.3 2.2-6.8 4.4-7.7 5-9.3 5.7-14.6 9.8-24.3 19-2.9 2.7-7.3 6.7-9.8 8.7-5.9 4.9-28.7 32.2-28.7 34.4 0 .3-1.2 2.3-2.7 4.3-3.5 4.6-4.6 6.4-7.8 12.6-2.7 5.2-3.8 7.3-5.5 10.2-.6 1-1.3 2.5-1.6 3.3-.3.8-1.3 3.3-2.1 5.5s-2.1 5.2-2.9 6.7c-.8 1.4-1.4 3.6-1.4 4.7 0 1.2-.4 2.9-1 3.9-1.8 3-4.2 10.6-4.9 15.2-.4 2.5-1.1 5.1-1.6 5.9-.4.8-1.2 4.4-1.6 8-.4 3.6-1.2 8.6-1.8 11.1-1.7 7.3-1.4 47.5.4 54.3.8 3.2 1.5 7.6 1.5 9.8 0 2.2.7 5.6 1.5 7.6.8 1.9 1.5 5.2 1.5 7.2s.7 4.5 1.5 5.5c.8 1.1 1.5 2.9 1.5 4 0 1.2.7 3.4 1.5 5 .8 1.5 1.5 3.8 1.5 5 0 1.2.7 3.1 1.5 4.2.8 1 1.5 2.9 1.5 4 0 1.2.7 2.7 1.5 3.4.8.7 1.5 1.9 1.5 2.7 0 1.4 6.5 14.1 8.1 15.7.5.6.9 1.5.9 2.2 0 1.4 18.2 28.7 21.7 32.3 1.3 1.4 4.7 5.3 7.5 8.6 2.9 3.3 8 8.4 11.3 11.3 3.3 2.8 7.1 6.2 8.5 7.4 6.1 5.7 21.6 17 26 19.1.8.4 2.9 1.6 4.5 2.7 1.7 1.1 3.7 2.2 4.5 2.6.8.3 2.2 1 3 1.5.8.5 2.5 1.3 3.7 1.8 1.1.6 2.4 1.5 2.8 2 .3.6 1.4 1.1 2.4 1.1s4.3 1.3 7.4 3c3.1 1.6 6.5 3 7.6 3 1 0 2.4.7 3.1 1.5.7.8 2.2 1.5 3.4 1.5 1.1.1 3.2.7 4.6 1.5 1.4.8 3.6 1.5 5 1.5s3.4.7 4.4 1.5c1.1.8 3 1.5 4.2 1.5 1.2 0 3.8.7 5.7 1.5 2 .8 5.3 1.5 7.2 1.5 2 0 4.6.5 5.8 1.2 1.2.6 7 1.5 12.9 1.9 6 .5 11.7 1.3 12.7 1.9 2.5 1.3 27.6 1.3 30.1 0 1.1-.6 7.2-1.4 13.7-1.9 6.5-.6 13.7-1.5 16.1-2 2.3-.6 6.1-1.6 8.5-2.2 2.3-.6 6.1-1.4 8.5-1.8 2.4-.4 4.8-1.3 5.4-1.9.7-.7 2.2-1.2 3.5-1.2 2 0 3.6-.6 12.8-4.5 3.7-1.6 11.5-5.3 13.5-6.4.8-.5 3.6-1.8 6.2-3s5-2.6 5.3-3.2c.4-.5 1.2-.9 2-.9 1.8 0 23.5-14.6 30.5-20.5 12.9-11 27.6-26.4 36.9-38.7 2.8-3.7 5.1-6.9 5.1-7.2 0-.3 1.9-3.3 4.3-6.8s5.3-8.3 6.6-10.8c3.5-6.9 4.8-9.1 6-10.3.6-.6 1.1-2.1 1.1-3.3 0-1.2.7-2.7 1.5-3.4.8-.7 1.5-2 1.5-2.9 0-1 .7-2.6 1.5-3.7.8-1 1.5-2.7 1.5-3.6 0-.9.6-2.9 1.4-4.5 2.7-5.4 4.6-10.4 4.6-12.1 0-.9.7-2.6 1.5-3.6.8-1.1 1.5-3.5 1.5-5.4 0-1.8.5-4.3 1.2-5.5.7-1.2 1.5-4.9 1.9-8.2.4-3.3 1.2-7.8 1.8-10 .7-2.4 1.1-14.2 1.1-30.1 0-20.8-.3-26.9-1.5-30.3-.8-2.4-1.5-6.2-1.5-8.5-.1-2.2-.7-5.2-1.5-6.6-.8-1.4-1.4-4.1-1.5-6.1 0-1.9-.7-4.4-1.5-5.5-.8-1-1.5-2.9-1.5-4.1 0-2.2-1.7-6.7-4.6-12.6-.8-1.6-1.4-3.5-1.4-4.4 0-1.3-1.5-4.8-4.1-9.3-.5-.8-1.2-2.2-1.5-3-.3-.8-1-2.2-1.5-3-.5-.8-1.4-2.6-1.9-3.9-.6-1.3-2.1-3.8-3.3-5.5-2.4-3.4-4.2-6.3-5.3-8.6-.4-.8-2.7-4.1-5.1-7.2-2.4-3.1-4.3-6.1-4.3-6.7 0-.5-.6-1.4-1.3-1.8-.7-.4-3.4-3.5-5.9-6.8-6.4-8.4-23.8-25.6-33-32.6-4.2-3.3-8-5.9-8.3-5.9-.4 0-2.4-1.4-4.5-3-2.1-1.7-4-3-4.3-3-.4 0-2.3-1.2-4.4-2.6-2.1-1.4-4.7-3-5.8-3.5-1.1-.5-3.3-1.8-5-2.9-1.6-1.1-3.7-2.2-4.5-2.6-.8-.3-2.2-.9-3-1.4-.8-.5-3.5-1.9-6-3-2.5-1.2-5.7-2.8-7.2-3.6-1.4-.8-3.5-1.4-4.5-1.4-1.1 0-2.8-.7-3.9-1.5-1-.8-2.8-1.5-3.9-1.5s-2.9-.7-3.9-1.5c-1.1-.8-3.1-1.5-4.5-1.5s-3.5-.7-4.5-1.5c-1.1-.8-3.6-1.5-5.7-1.5-2 0-5.3-.7-7.2-1.5-2-.8-5.6-1.5-8-1.5-2.4 0-4.9-.6-5.5-1.3-2-1.9-61-2.1-67.7-.2zm64.5 9c2.3.8 5.8 1.5 7.8 1.5 3.2 0 10.3 1.7 17.7 4.2 1.7.5 4.4 1.4 6 1.8 5.3 1.5 12 4.1 13 5.1.5.5 1.9.9 3.1.9 1.2 0 2.7.7 3.4 1.5.7.8 2 1.5 2.9 1.6.9 0 4.8 1.8 8.6 4 3.9 2.2 7.8 4.2 8.8 4.5.9.4 1.7 1 1.7 1.4 0 .5 1.2 1.3 2.8 1.9 3.2 1.3 5.4 2.6 10.3 6.3 2 1.6 4 2.8 4.3 2.8.4 0 5.1 3.3 10.4 7.4 10.9 8.2 24.2 21.1 31 30.1 2.6 3.3 5.7 7.1 7 8.6 3.9 4.2 15.1 20.1 17.3 24.6 1.1 2.4 2.5 4.5 3 4.9.5.3.9 1.3.9 2.2 0 .9 1.4 4.6 3.1 8.2 1.7 3.6 3.7 8.1 4.6 10 .8 1.9 2.1 4.8 2.9 6.3.8 1.6 1.4 4.1 1.4 5.6s.7 3.6 1.5 4.7c.8 1 1.5 3.3 1.5 5 0 1.7.7 4.8 1.5 6.7.8 2 1.5 5.6 1.5 7.9.1 2.4.7 5.4 1.5 6.8 1.1 2 1.4 7.7 1.4 27.5s-.3 25.5-1.4 27.5c-.8 1.4-1.4 4.9-1.5 7.8 0 2.9-.7 6.9-1.5 8.9-.8 1.9-1.5 5-1.5 6.7 0 1.7-.7 4-1.5 5-.8 1.1-1.5 3.1-1.5 4.5s-.7 3.5-1.5 4.5c-.8 1.1-1.5 2.8-1.5 3.7 0 1-.6 3-1.4 4.6-.8 1.5-2.3 4.8-3.5 7.3-1.1 2.5-2.5 5.3-3.1 6.2-1.7 3-2.8 5.1-5.5 10.3-1.4 2.7-2.9 5.7-3.4 6.5-.5.8-1.2 2.2-1.5 3-.8 2-2.5 4.7-5.8 9.1-1.6 2-2.8 4.2-2.8 4.8 0 .6-.4 1.1-.9 1.1s-2.2 2.1-3.7 4.7c-3.5 6-34.5 37-41.5 41.5-3 1.9-6.3 4.5-7.3 5.7-1.1 1.1-2.5 2.1-3.2 2.1-.7 0-1.9.6-2.6 1.3-1.8 1.6-4.3 3.1-10.3 6.2-2.7 1.4-6.3 3.5-8 4.5-1.6 1.1-3.7 2.2-4.5 2.5-.8.3-2.8 1.3-4.3 2.1-1.6.7-3.4 1.4-4.2 1.4-.7 0-1.8.7-2.5 1.5s-2.2 1.5-3.4 1.5c-1.2 0-3.1.7-4.2 1.5-1 .8-3.1 1.5-4.6 1.5-1.5 0-4.5.6-6.5 1.4-5 1.8-11.7 3.6-17.3 4.6-2.5.4-7 1.3-10 1.9-13.9 2.7-41.1 4.6-45.3 3.1-1.8-.6-7.5-1.3-12.7-1.7-5.2-.3-10.4-1.1-11.6-1.8-1.1-.7-4.5-1.5-7.5-1.7-3-.3-6.9-1-8.6-1.6-8.2-3-10-3.5-13.3-3.9-1.9-.3-3.9-.9-4.5-1.3-.5-.4-2.6-1.3-4.5-1.8-6.4-1.9-11-3.8-12.2-5-.7-.7-1.6-1.2-2.2-1.2-1.1 0-13.8-6.3-18.1-9.1-1.6-1-3.9-2.3-5-2.9-1.1-.6-3.3-1.9-5-3-1.6-1.1-3.9-2.4-5-3-4.1-2-12-7.7-15.6-11-.8-.8-3.8-3.4-6.5-5.6-8.3-7-19-17.7-22.9-22.9-2.1-2.8-4.1-5.2-4.5-5.5-1.1-.8-10-14-10-15 0-.5-.6-1.5-1.2-2.2-.7-.7-2.3-3.3-3.6-5.8-1.3-2.5-3.2-5.9-4.2-7.5-1.1-1.7-2.3-3.7-2.6-4.5-.3-.8-1.9-4.2-3.5-7.5s-2.9-6.8-2.9-7.6c0-.9-.7-2.2-1.5-2.9-.8-.7-1.5-2.2-1.5-3.4 0-1.1-.7-3.4-1.5-5-.8-1.5-1.5-4.3-1.5-6 0-1.8-.7-4.1-1.5-5.2-.8-1-1.5-3.2-1.5-4.7s-.7-4.4-1.5-6.4c-.8-1.9-1.5-6.1-1.5-9.2 0-3.1-.5-6.2-1.1-6.8-.6-.6-1.3-4.9-1.6-9.5-.4-6.7-.3-8.6.9-9.6 1.2-.9 7.5-1.2 25.4-1l23.8.3 1.8 8c.9 4.4 1.8 10.2 1.8 13 0 2.7.7 6.1 1.5 7.5.8 1.4 1.4 3.6 1.5 5 0 2.8 2.6 11.2 4.6 15.2.8 1.4 1.4 3.3 1.4 4.1 0 .8.7 2 1.5 2.7.8.7 1.5 2 1.5 2.9 0 .9 2 4.8 4.5 8.5 2.5 3.8 4.5 7.5 4.5 8.3 0 .7.7 1.6 1.5 1.9.8.4 1.5 1 1.5 1.6 0 1.9 5.3 7.8 7 7.8.9 0 2.9-.9 4.3-2l2.6-2.1-5.3-7.8c-2.9-4.2-5.7-8.7-6-9.9-.4-1.2-1.2-2.2-1.7-2.2s-.9-.6-.9-1.4c0-.7-.7-1.9-1.5-2.6-.8-.7-1.5-2-1.5-2.9 0-.9-.5-2.2-1.2-2.9-1.7-1.7-4.3-9-6.8-19.2-.7-2.5-1.6-5.9-2.2-7.5-3.7-10.3-3.8-50.1-.2-59.8.8-2 1.4-5.2 1.4-7 0-1.7.7-4.1 1.5-5.1.8-1.1 1.5-2.9 1.5-4 0-1.2.7-3 1.5-4 .8-1.1 1.5-3.2 1.5-4.7s.4-3 .9-3.4c.6-.3 2.1-2.9 3.6-5.8 1.4-2.8 3.5-6.6 4.5-8.2 1.1-1.7 2.3-3.7 2.7-4.5 1.4-3 12.8-17.7 18.2-23.3 3.1-3.2 8.1-7.7 11.1-10s6.8-5.4 8.4-6.9c1.7-1.6 3.4-2.8 3.9-2.8s2.6-1.4 4.7-3c2.1-1.7 4.5-3 5.3-3 .9 0 2-.6 2.4-1.3 1-1.5 13.3-7.7 15.4-7.7.9 0 2.2-.7 2.9-1.5.7-.8 2.2-1.5 3.4-1.5 1.2 0 3.1-.7 4.2-1.5 1-.8 3.1-1.5 4.5-1.5s3.4-.7 4.5-1.5c1-.8 3.5-1.5 5.5-1.5 1.9 0 5.8-.6 8.5-1.4 2.7-.8 8.3-1.6 12.4-1.8l7.5-.3v21l-10.5.5c-5.8.3-11.5 1.1-12.7 1.7-1.2.7-3.7 1.3-5.5 1.3-1.9 0-4.3.7-5.4 1.5-1 .8-2.7 1.5-3.7 1.5-1.1 0-3.3.7-5 1.6-1.8.9-3.9 2-4.8 2.4-1.7.9-11 5.9-13.7 7.5-16.4 9.5-37.7 29.7-42.8 40.5-.4.8-1.3 1.9-2.1 2.3-.7.4-1.3 1.3-1.3 2 0 1.1-4.3 10.7-7.6 16.9-.8 1.4-1.4 3.3-1.4 4.1 0 .8-.7 2.8-1.5 4.3-.8 1.6-1.5 4.2-1.5 5.7s-.7 4.4-1.5 6.4c-2.1 5-2.1 45.6 0 49.3.8 1.4 1.5 4.1 1.5 6 0 1.9.7 4.6 1.5 6 .8 1.4 1.4 3.5 1.5 4.7 0 1.2.7 3.4 1.4 5 .8 1.5 1.7 3.5 2 4.3.3.8 1 2.2 1.5 3 .5.8 1.2 2.2 1.5 3 .8 2 2.5 4.7 5.9 9.1 1.5 2 2.7 4 2.7 4.4 0 .9 4.9 7 9.9 12.3 1.7 1.8 3.1 3.9 3.1 4.5 0 .7-7.9 9.1-17.5 18.7L319 575.5l-7.1-7.5c-7.3-7.8-15.4-18.7-18.9-25.5-.6-1.1-1.9-3.4-3-5-1.1-1.7-2.3-3.7-2.6-4.5-.3-.8-1.9-4.1-3.5-7.3-1.6-3.1-2.9-6.4-2.9-7.3 0-.9-.6-2.8-1.3-4.2-.8-1.5-2.1-4.2-3-6-.9-1.9-1.7-4.4-1.7-5.6 0-1.2-.6-3-1.4-4.1-.7-1.1-1.6-5-1.9-8.6-.3-3.6-1.1-7.8-1.8-9.2-1.1-2.3-1.8-2.7-5.6-2.7H260v5.2c.1 3.1.7 6.1 1.5 7.2.8 1.1 1.5 3.6 1.5 5.6 0 2.1 1.2 6.8 2.6 10.6 1.4 3.8 2.9 8.3 3.3 9.9.4 1.7 1.3 3.9 1.9 5 .6 1.1 2.7 5.4 4.7 9.5s4.5 8.8 5.5 10.5c1.1 1.6 2.4 3.9 3 5 1.7 3.4 3.2 5.6 10.8 15.7 7.7 10.2 29.5 32.8 31.6 32.8.7 0 2.1 1 3.2 2.1 2 2.3 15.3 11.4 18.8 13 1.1.5 3.5 1.8 5.1 2.9 1.7 1.1 3.7 2.3 4.5 2.6 2 .8 13.8 6.3 17.3 8 1.6.8 3.4 1.4 4.2 1.4.7 0 2.6.7 4.1 1.5 1.6.8 3.9 1.5 5 1.5 1.2 0 2.7.7 3.4 1.5.7.8 2.9 1.5 4.9 1.5 2 .1 4.7.7 6.1 1.5 1.4.8 3.9 1.5 5.5 1.5 1.7 0 5 .8 7.5 1.7 3.8 1.4 9 1.7 34.5 1.7 22.2 0 30.8-.3 33-1.3 1.7-.7 5.7-1.7 8.9-2.1 6.9-1 8.6-2.3 6.8-4.8-.7-.9-1.6-2.7-2.2-4-1-2.3-2.5-2.9-3.5-1.2-.3.5-3 1-5.9 1-2.8 0-5.7.5-6.3 1.1-1.7 1.7-28.8 2.8-46.8 1.9-15.3-.8-19.4-1.4-29.5-4.6-2.5-.8-5.5-1.4-6.6-1.4-1.2 0-2.7-.7-3.4-1.5-.7-.8-2.3-1.5-3.6-1.5-1.3 0-5.4-1.4-9.1-3.1-6.8-3-9.2-4.3-16.8-8.6-2.2-1.2-4.7-2.5-5.5-2.9-.8-.3-2.2-.9-3-1.4-.8-.5-3.3-1.9-5.5-3.1-2.2-1.1-5.9-3.4-8.3-5-2.4-1.6-4.6-2.9-4.9-2.9-1.7 0-11.2-8.6-11.3-10.3 0-1.5 33.9-34.7 35.5-34.7.9 0 4.2 1.9 7.3 4.2 3.2 2.4 6.6 4.8 7.7 5.5 4.7 2.9 22.2 11.3 23.5 11.3.8 0 2.4.7 3.4 1.5 1.1.8 3 1.5 4.2 1.5 1.2 0 2.7.7 3.4 1.5.7.8 2.7 1.5 4.6 1.5 1.8 0 4.5.5 6.1 1.2 2.5 1 22.9 3 29.3 2.9 9.7-.3 24.9-1.9 26.7-2.9 1.2-.7 3.5-1.2 5-1.2 1.6 0 3.8-.7 4.9-1.5 1-.8 2.7-1.5 3.7-1.5 1.5 0 12.6-4.7 16.7-7.1.8-.5 3.8-2 6.7-3.4 2.8-1.4 5.3-2.9 5.5-3.3.2-.4 2.8-2.4 5.8-4.4 5.2-3.5 13.7-11.3 22.6-20.9 3.6-3.9 7.1-8.7 11-15.4 2.8-4.6 8.4-16.2 8.4-17.3 0-.6.6-2.6 1.4-4.4 2.9-7 3.8-10.6 4.7-17.8.4-4.1 1.4-10.2 2.1-13.5l1.4-6 25.1-.3c29.3-.3 28.8-.4 27.7 8.1-.4 2.9-1.1 6-1.5 6.9-.5.9-.9 3.7-.9 6.1 0 2.5-.7 6.4-1.5 8.7-.8 2.3-1.5 5.5-1.5 6.9 0 1.5-.7 3.6-1.5 4.7-.8 1-1.5 2.9-1.5 4.1 0 1.2-.6 3.4-1.4 5-.8 1.5-2.1 4.4-2.9 6.3-.9 1.9-3 6.6-4.9 10.5-2.9 6.2-4.4 8.8-9.5 17-.7 1.1-1.6 2.8-1.9 3.7-.3 1-1 1.8-1.4 1.8-.5 0-2.4 2.4-4.3 5.2-1.9 2.9-4.8 6.6-6.4 8.3-1.6 1.6-5 5.7-7.5 9-5.1 6.7-12.9 14.3-19.9 19.7-2.6 1.9-6 4.7-7.5 6.2-1.6 1.4-3.3 2.6-3.7 2.6-.5 0-2.6 1.3-4.7 3-2.1 1.6-4.5 3-5.3 3-.9 0-2 .6-2.4 1.4-1 1.7-12.1 7.8-13.4 7.4-1.4-.5-4.5-10-5.2-15.8l-.6-4.5 9.4-5.5c5.2-3 9.5-5.8 9.5-6.3 0-.4.4-.7 1-.7 1.8 0 9.5-6.3 23.8-19.5 7.7-7 26.2-31.8 26.2-34.9 0-.8.7-1.9 1.5-2.6.8-.7 1.5-1.8 1.5-2.5 0-.8.7-2.6 1.4-4.2.8-1.5 1.7-3.5 2-4.3.3-.8 1-2.2 1.4-3 2.8-4.9 4.2-8.4 4.2-10.3.1-1.2.7-3.3 1.5-4.7.8-1.4 1.4-4 1.5-5.8 0-1.8.4-4.2 1-5.2 1.9-3.5.2-5.1-4.9-4.8-4.3.3-4.6.5-4.9 3.3-.2 1.6-1 4.4-1.8 6.2-.7 1.7-1.4 4.3-1.4 5.7 0 1.4-.8 4.2-1.7 6.3-2.9 6.7-8.4 17.7-10.3 20.8-1 1.6-2.8 4.8-4 7-1.2 2.2-2.5 4.2-2.9 4.5-.3.3-2 2.5-3.6 4.9-1.7 2.5-8.5 10-15.2 16.7-14.5 14.5-28.3 24.5-41.3 29.8-.8.3-2.2 1-3 1.5-.8.5-3.3 1.7-5.5 2.6-2.2 1-5.3 2.4-6.8 3.1-1.6.8-4.1 1.4-5.5 1.4-1.5.1-3.8.7-5.2 1.5-1.4.8-4.4 1.4-6.8 1.5-2.3 0-5.9.7-7.9 1.5-4.4 1.9-41.7 2.2-47.3.4-1.9-.6-5.5-1.5-8-1.9-6.8-1.3-13.2-3.1-16.2-4.6-1.4-.8-3.2-1.4-4-1.4-.8 0-4.1-1.4-7.3-3-3.2-1.7-6.6-3-7.6-3-.9 0-2.2-.7-2.9-1.5-.7-.8-2-1.5-3-1.5s-2.3-.7-3-1.5c-.7-.8-1.9-1.5-2.7-1.5-.8 0-2.6-.9-4-2-3.5-2.8-5-2.5-7.3 1.2-2.9 4.8-2.8 4.9 12.5 12.8 4.4 2.3 8.7 4.5 9.5 4.9 4.8 2.6 14.1 6 19 7 1.9.4 4.5 1.3 5.7 1.9 1.2.7 3.4 1.2 4.8 1.2 1.5 0 5.5.7 8.9 1.6 4.8 1.3 11 1.6 28.9 1.6 22.6 0 29.6-.8 40.2-4.4 1.7-.5 4.6-1.4 6.5-1.8 1.9-.5 5.6-1.6 8.1-2.6 5.6-2.1 7.9-1 7.9 3.8 0 1.6.7 4.5 1.5 6.5.8 1.9 1.5 4.8 1.5 6.3 0 1.6.7 4.1 1.4 5.7.8 1.5 1.7 3.5 2 4.5.4 1.4.9 1.5 4.1.4 1.9-.7 4.1-1.8 4.7-2.4.7-.7 2-1.2 2.9-1.2.9 0 2.2-.7 2.9-1.5.7-.8 2-1.5 3-1.5s2.3-.7 3-1.5c.7-.8 1.8-1.5 2.6-1.5 1.4 0 18.6-11.2 22.4-14.7 4.8-4.3 7.8-6.8 11.1-9.3 8.6-6.3 33-35.1 38-44.7.8-1.6 2-3.2 2.6-3.6.7-.4 1.3-1.6 1.3-2.6s.7-2.4 1.5-3.1c.8-.7 1.5-2.1 1.5-3.1s.4-2 .9-2.4c.6-.3 2-2.7 3.2-5.3 1.2-2.6 2.6-5.6 3.2-6.7.6-1.1 1.4-3.6 1.8-5.5.8-3.7 2.3-8.5 4.5-13.8.8-1.8 1.4-4.5 1.4-6 0-1.6.5-3.3 1.2-4 .7-.7 1.5-3.8 1.9-7 .4-3.1 1.3-8.1 1.9-10.9 2.4-11.2.3-51.8-3.2-61.8-.5-1.7-1.4-4.8-1.8-7-.8-4.1-2.3-8.6-4.6-14.3-.8-1.8-1.4-4.1-1.4-5.1s-.7-2.4-1.5-3.1c-.8-.7-1.5-2-1.5-3s-.7-2.3-1.5-3c-.8-.7-1.5-2.1-1.5-3.1s-.4-2-.9-2.3c-.5-.4-2-2.7-3.2-5.4-2.1-4.2-8.7-14.3-12.1-18.2-3.8-4.5-7.8-9.9-7.8-10.6 0-.5-5.8-6.5-12.8-13.5-13.5-13.3-26.4-23.6-39.4-31.4-5.1-3.1-16.1-8.5-17.3-8.5-.7 0-1.8-.7-2.5-1.5s-2.1-1.5-3-1.5c-1 0-3.1-.6-4.7-1.4-4.3-2.1-9.4-3.8-13.3-4.4-1.9-.2-4.4-1.1-5.5-1.8-1.1-.8-3.5-1.4-5.3-1.4-1.9 0-4.8-.6-6.5-1.4-1.8-.8-5.4-1.7-8.2-2-2.7-.3-7-1-9.5-1.5-7.3-1.6-38.6-1.4-45.3.4-3.2.8-7.7 1.5-10 1.5-2.3.1-6 .7-8.2 1.5-2.2.8-5.2 1.5-6.6 1.5-1.4 0-3.4.7-4.5 1.5-1 .8-3.1 1.5-4.5 1.5s-3.4.7-4.5 1.5c-1 .8-2.9 1.5-4 1.5-1.2 0-2.7.7-3.4 1.5-.7.8-2.2 1.5-3.4 1.5-1.2 0-3.1.7-4.2 1.5-1 .8-2.9 1.5-4 1.5-1.2 0-2.7.7-3.4 1.5-.7.8-2 1.5-3 1.5s-2.3.7-3 1.5c-.7.8-2 1.5-3 1.5s-2.3.7-3 1.5c-.7.8-1.6 1.5-2.1 1.5-.4 0-2.8 1.3-5.2 3-2.5 1.6-5 3-5.5 3-.6 0-1.5.6-1.9 1.4-.4.7-3 2.9-5.8 4.7-9.4 6.2-31.1 27.5-34.4 33.7-.7 1.3-2.7 4-4.4 6-3.7 4.3-5.5 7-6.3 9.4-.4 1-1 1.8-1.4 1.8-.5 0-1.2 1-1.6 2.2-.4 1.3-1.7 3.7-3 5.3-1.2 1.7-2.7 4.1-3.3 5.5-.6 1.4-1.5 3.2-2 4-.8 1.5-2.7 5.8-5.5 12.3-2.1 5-3.7 9.9-4.5 13.7-.4 1.9-1.3 4.5-1.9 5.7-.7 1.2-1.2 4.1-1.2 6.5 0 2.4-.7 5.4-1.6 6.6-.9 1.4-1.4 3.8-1.2 6.5.3 4 .4 4.2 3.9 4.5 5.1.4 7.9-3.2 7.9-10.1 0-4.7 1.7-11.3 4.6-18.5.8-1.8 1.4-4.1 1.4-5.1s.7-2.4 1.5-3.1c.8-.7 1.5-2.2 1.5-3.4 0-1.1.7-3 1.5-4 .8-1.1 1.5-2.7 1.5-3.7 0-.9.7-2.2 1.5-2.9.8-.7 1.5-2.3 1.5-3.6 0-1.2.5-2.6 1.1-2.9.5-.4 1.5-1.7 2-2.8.5-1.2 1.8-3.6 2.9-5.2 1.1-1.7 2.3-3.7 2.7-4.5.3-.8 1.8-3.1 3.3-5 1.5-1.9 2.9-4 3.1-4.6 1.6-4.6 35.5-38.4 38.5-38.4.3 0 2.3-1.3 4.3-2.8 2-1.6 4.3-3.2 5.1-3.5.8-.4 2.9-1.6 4.5-2.7 1.7-1.1 3.9-2.4 5-3 1.1-.5 2.7-1.4 3.5-1.9 4.5-2.6 14.7-7.1 16.1-7.1.9 0 2.2-.7 2.9-1.5.7-.8 2-1.5 2.9-1.5 1 0 2.6-.7 3.7-1.5 1-.8 3.3-1.5 5-1.5 1.6 0 3.9-.7 5-1.5 1-.8 3.3-1.5 5.1-1.5 1.7 0 4.4-.5 6-1.2 1.5-.6 6-1.5 9.8-1.9 3.9-.4 10-1.3 13.6-2 9.9-1.9 9.9-1.9 9.9 10.9v10.9l-6.7.6c-3.8.4-8.9.7-11.4.7-2.6 0-6 .7-7.5 1.5-1.6.8-4.6 1.5-6.7 1.5-2.1 0-4.8.5-6 1.2-1.2.6-3.8 1.5-5.7 1.9-5.7 1.2-13 4.1-13 5 0 .5-.7.9-1.6.9-1.4 0-3.5.9-9.4 4.1-.8.4-3.5 1.8-6 3.1-10.7 5.3-24.7 15.9-37.4 28.3-8.1 7.9-26.6 33.6-26.6 37 0 .7-.7 1.8-1.5 2.5s-1.5 1.8-1.5 2.5c0 .8-.7 2.7-1.5 4.4-.8 1.7-2.2 4.5-3 6.2-.8 1.7-1.5 4-1.5 5.2-.1 1.2-.7 3.3-1.5 4.7-.8 1.4-1.5 3.8-1.5 5.5 0 1.6-.7 4.1-1.5 5.5-.8 1.4-1.4 4.8-1.5 7.5 0 2.8-.7 7.7-1.5 11-.9 3.2-1.3 6.4-1.1 7.2 1.4 3.5-1.4 3.8-26.5 3.3l-24.4-.5v-10.7c0-7.2.4-11.1 1.3-12 .6-.6 1.2-3.7 1.2-6.8.1-3 .7-6.6 1.5-8 .8-1.4 1.4-4.1 1.5-6 0-2 .6-4.4 1.4-5.5.7-1.1 1.6-3.6 1.8-5.5.6-3.9 2.3-9.1 4.4-13.2.8-1.4 1.4-3.2 1.4-3.9 0-1.1 5.5-12.7 8-16.9.5-.8 3-5.1 5.6-9.5 10.5-17.8 38.5-50.8 46.7-55.1 1.5-.8 3.6-2.3 4.5-3.2 2.7-2.7 9.9-8.2 10.7-8.2.4 0 2.4-1.3 4.4-2.8 2-1.6 4.3-3.2 5.1-3.5.8-.4 2.9-1.6 4.5-2.7 1.7-1.1 3.9-2.4 5-3 1.1-.6 3.4-1.9 5-3 1.7-1.1 3.7-2.3 4.5-2.6 3.2-1.3 8.6-3.7 10-4.6.8-.4 2-1 2.5-1.2.6-.1 2.6-.9 4.5-1.5 1.9-.7 4.9-1.6 6.5-2.1 1.7-.5 4.6-1.4 6.5-2 12.6-4.3 19-5.9 27-7.1 3.6-.5 8.1-1.3 10-1.8 1.9-.5 15-.9 29.1-1 20.4-.1 26.5.2 29.9 1.4zm-12 29.6c1.9.7 6.9 1.5 11 1.9 8.3.9 15 2.4 19.3 4.6 1.6.8 3.7 1.4 4.7 1.4s3.1.6 4.7 1.4c1.5.8 4.4 2.1 6.3 3 6.5 2.8 24.5 11.8 27.5 13.7 1.7 1 3.9 2.3 5 2.9 13.3 6.7 49.5 41.6 54.9 53 .7 1.6 1.6 3.1 5.7 9.5 2.3 3.7 8 15 9.3 18.5.3.8 1 2.2 1.4 3 2.7 4.9 4.2 8.4 4.2 10.1 0 1.1.6 3 1.2 4.2 1.5 2.7 3.6 11.3 4.7 19.2.5 3.3 1.4 7.8 2 10 .7 2.2 1.1 6.7.9 10l-.3 6-25.6.5c-14.1.3-26.3.4-27.2.2-1.1-.2-1.7-1.4-1.7-3.3 0-1.7-.5-5-1.1-7.4-.6-2.5-.8-5.6-.5-7l.6-2.4 15.8-.3c17.5-.3 18-.6 14.8-7-.9-1.7-1.6-4.7-1.6-6.7s-.7-4.9-1.5-6.5c-.8-1.5-1.5-3.8-1.5-5 0-1.2-.7-3.1-1.5-4.2-.8-1-1.5-2.6-1.5-3.5 0-.9-.7-2.2-1.5-2.9-.8-.7-1.5-2.3-1.5-3.5 0-1.2-.7-2.8-1.5-3.5-.8-.7-1.5-2.1-1.5-3.1s-.4-2-.9-2.3c-.5-.4-1.9-2.6-3.1-5.1-3.4-7-16.2-23.6-25-32.5-3.8-3.8-15.8-14-16.5-14-.4 0-2.4-1.4-4.5-3-2.1-1.7-4.1-3-4.6-3-.4 0-1.5-.6-2.3-1.4-2.5-2.2-19.2-10.6-21.1-10.6-1 0-2.3-.7-3-1.5-.7-.8-2-1.5-2.9-1.5-1 0-2.6-.7-3.7-1.5-1-.8-3-1.5-4.4-1.5-1.4 0-3.4-.7-4.4-1.5-1.1-.8-3.5-1.5-5.3-1.5-1.9 0-4.8-.7-6.4-1.6-1.7-.8-4.8-1.4-7.2-1.2-4.1.3-4.2.4-4.5 4.4-.4 5.2 1 6.4 8.5 7.1 3.2.3 6.7 1.2 7.8 1.9 1.1.8 3.1 1.4 4.5 1.4s3.4.7 4.4 1.5c1.1.8 2.9 1.5 4 1.5 1.2 0 3 .7 4 1.5 1.1.8 2.7 1.5 3.6 1.5.9 0 3.7 1.1 6.1 2.4 2.4 1.4 6.7 3.6 9.4 5.1 19.6 10.1 41.8 30.9 53 49.7 3.2 5.6 8.5 16.2 8.5 17.3 0 .7.7 1.8 1.5 2.5s1.5 2.1 1.5 3.1.6 3.3 1.4 5.1c1.3 3.3 3.3 8.8 4.3 12.1.5 1.6-.3 1.7-11.3 1.5l-11.8-.3-.7-3.3c-.4-1.9-1.2-3.9-1.8-4.5-.6-.6-1.1-2-1.1-3s-.6-3.1-1.4-4.5c-.8-1.5-1.7-3.4-2-4.2-.3-.8-1-2.2-1.5-3-.5-.8-1.2-2.2-1.5-3-.6-1.7-1.6-3.2-6.4-10.2-4.7-7-6.8-9.5-14.7-17.3-8-7.9-13.4-12.5-14.8-12.5-.5 0-2.6-1.2-4.6-2.8-6-4.5-20.2-12.2-22.6-12.2-.7 0-1.8-.7-2.5-1.5s-2.4-1.5-3.9-1.5c-1.4-.1-3.7-.7-5.1-1.5-1.4-.8-4-1.4-5.8-1.5-1.8 0-4.9-.7-6.9-1.5-2.2-.9-6.7-1.5-11.9-1.5-6.2 0-8.7-.4-9.8-1.6-1.4-1.3-1.6-5.1-1.6-25.8 0-17.5.3-24.5 1.2-25.4 1.5-1.5 11.2-1.6 15.8-.1zm-1.3 63.4c1.9.8 5 1.5 6.7 1.5 1.7.1 4.2.7 5.6 1.5 1.4.8 3.6 1.5 5 1.5s3.4.7 4.4 1.5c1.1.8 2.8 1.5 3.7 1.5 1.5 0 5.1 1.5 9.9 4.2.8.4 2.5 1.2 3.7 1.7 1.1.6 2.4 1.5 2.8 2 .3.6 1.3 1.1 2.1 1.1 3.9 0 24 17.8 32.1 28.5 2.6 3.3 5.1 6.4 5.7 7 1.5 1.3 10.6 19.7 10.6 21.4 0 .7.6 2.5 1.4 3.9 4.8 9.4 7.1 35 4.8 54.7-.9 7.9-2.1 12.2-4.8 17.8-.8 1.6-1.4 3.7-1.4 4.7 0 .9-.7 2.3-1.5 3-.8.7-1.5 2-1.5 3s-.7 2.3-1.5 3c-.8.7-1.5 1.8-1.5 2.5s-2.4 4.7-5.2 8.9c-2.9 4.2-5.8 8.5-6.3 9.5-1.8 3.2-16.8 17.7-20.7 20-2.1 1.3-3.8 2.6-3.8 3 0 .4-1.9 1.7-4.2 3-2.4 1.2-5.6 3.1-7.3 4.1-5.1 3.2-11.1 6-12.7 6-.9 0-2.1.7-2.8 1.5-.7.8-2.1 1.5-3.2 1.5s-2.9.5-4.1 1.2c-1.2.6-4 1.5-6.2 1.9-2.2.4-5.8 1.2-8 1.8-5.7 1.5-38 1.4-40.8-.1-1.2-.6-4-1.5-6.2-1.9-4.5-.8-9.7-2.5-13.8-4.5-1.6-.8-3.7-1.4-4.7-1.4-.9 0-2.3-.7-3-1.5-.7-.8-2-1.5-3-1.5s-2.3-.7-3-1.5c-.7-.8-2-1.5-3-1.5s-2.3-.7-3-1.5c-.7-.8-1.7-1.5-2.2-1.5-1.6 0-17.1-12.1-24.1-18.9-7.8-7.5-18.7-21.2-18.7-23.5 0-.8-.4-1.7-.9-2-.5-.4-1.9-2.7-3.1-5.4-1.1-2.6-2.8-6-3.5-7.5-.8-1.6-1.5-3.6-1.5-4.6 0-.9-.7-2.6-1.5-3.7-.8-1-1.5-3.5-1.5-5.4 0-1.9-.7-4.4-1.5-5.4-2.2-2.9-2.1-31.8 0-36.9.8-2 1.5-5 1.5-6.7 0-3.3 3.6-14.9 5.1-16.4.5-.6.9-1.7.9-2.6 0-.9 1.4-4.3 3-7.5 1.7-3.2 3-6.3 3-6.7 0-3.2 29.4-35.8 32.2-35.8.6 0 2.7-1.2 4.7-2.8 4.7-3.5 6.5-4.6 12.8-7.7 2.9-1.5 5.5-3 5.8-3.6.4-.5 1.4-.9 2.3-.9.9 0 3-.7 4.6-1.5 1.5-.8 4-1.5 5.5-1.5 1.4 0 3.5-.7 4.5-1.5 1.1-.8 3.8-1.5 6-1.5 2.3-.1 5.2-.7 6.6-1.5 3.7-2.1 33.6-2.1 38.7 0z"/><path d="M438.5 359.9c-1.1.5-4.7 1-8 1-15.5.2-41.8 13.8-56.8 29.4-4.4 4.6-11.7 15.6-11.7 17.6 0 .5-.7 1.4-1.5 2.1-.8.7-1.5 2-1.5 3s-.7 2.3-1.5 3c-.8.7-1.5 2.4-1.5 3.9-.1 1.4-.7 3.7-1.5 5.1-.8 1.4-1.4 3.9-1.5 5.6 0 1.7-.7 4.8-1.5 6.7-1 2.6-1.5 7.2-1.5 15.5 0 8.4.5 13 1.5 15.5.8 2 1.5 4.9 1.5 6.5 0 1.5.7 3.7 1.5 4.8.8 1 1.5 2.8 1.5 3.8 0 1.8 5.2 13 8.3 18.1 2.2 3.6 10 14 12.1 16.1 3.4 3.3 16.1 12.5 19.6 14.1.8.4 2.1 1.3 2.8 2 .7.7 1.9 1.3 2.6 1.3.7 0 3.9 1.3 7.1 3 3.2 1.6 6.6 3 7.4 3 .9 0 2.5.7 3.5 1.5 1.1.8 3.7 1.5 5.8 1.5 2.1 0 5.5.7 7.5 1.5 2.6 1.1 7.4 1.5 17.8 1.5s15.2-.4 17.8-1.5c2-.8 5.1-1.5 7-1.5 1.8 0 4.2-.7 5.3-1.5 1-.8 2.7-1.5 3.7-1.5 1.1 0 3.1-.6 4.5-1.4 1.5-.7 4.7-2.4 7.2-3.6 7.6-4 8.3-4.4 14.2-8.8 6.9-5.1 16.8-14.9 16.8-16.5 0-.7 1.4-2.7 3-4.6 1.7-1.8 3-3.9 3-4.7 0-.7.4-1.4.8-1.6 1.1-.4 5.2-8.5 5.2-10.2 0-.7.7-1.9 1.5-2.6.8-.7 1.5-2.4 1.5-3.9s.6-3.5 1.4-4.6c3.8-5.6 3.7-47.8-.2-51.7-.6-.6-1.2-2.4-1.2-3.9s-.7-4-1.5-5.6c-.7-1.5-2.4-4.8-3.5-7.3-3.8-7.9-4.8-9.3-12.1-18-4.1-4.9-10.3-10.6-14.3-13.5-8-5.6-18.9-11.5-21.4-11.5-.9 0-2.6-.7-3.6-1.5-1.1-.8-3.3-1.5-4.9-1.5-1.5 0-3.8-.5-5-1.2-4.3-2.3-33.5-4.5-37.2-2.9zm24 9.6c3.3.3 8.5 1.3 11.5 2.2 13.8 4 31.5 13.5 29.3 15.6-.3.4-24.9.7-54.5.7-42.7 0-53.8-.3-53.8-1.3 0-1.3 7.1-6.1 13-8.8 14.7-6.6 16.6-7.1 28.2-7.9 5.9-.3 11-.8 11.2-1.1.5-.5 6.3-.2 15.1.6zm43.3 84.7.2 56.8H392l-.2-56.3c-.2-30.9-.2-56.5 0-57 .2-.4 25.8-.6 57-.5l56.7.3.3 56.7zm-123-30-.3 23.3-11.9.3-11.8.3.7-3.8c.3-2.1 1.1-4.2 1.6-4.7.5-.6.9-2.9.9-5.3 0-2.3.6-5.7 1.4-7.5.8-1.8 1.7-4 2-4.8.3-.8 1-2.2 1.5-3 .5-.8 1.7-3.3 2.7-5.5 1.1-2.2 2.2-4.2 2.5-4.5.3-.3 1.6-2.4 2.9-4.7 2.5-4.6 6-6.9 7.3-4.7.4.7.6 11.8.5 24.6zm139.8-20.4c1 1.9 2.4 4 2.9 4.6.9 1.1 2.3 3.9 5.9 11.9 3.9 8.7 6.1 27 3.4 27.8-.7.3-5.3.2-10.3-.1l-9-.5-.3-22.5c-.1-12.4 0-23.5.3-24.7.4-1.9.8-2.1 2.8-1.2 1.3.6 3.2 2.7 4.3 4.7zM381 458c1.2.8 1.6 4.7 1.8 22.7.2 11.9.1 22.7-.3 24-.5 2-.8 2.1-2.9 1.2-1.3-.7-2.7-1.9-3-2.8-.3-.9-1.4-3-2.5-4.6-1.9-3-7.3-13.6-10.4-20.8-.9-2.1-1.7-5.3-1.7-7.3 0-1.9-.7-4.8-1.5-6.5-1.2-2.2-1.3-3.4-.5-4.9 1-1.8 2.1-2 10.3-2 5.1 0 9.9.5 10.7 1zm154.5 7.5c-.1 4.4-.7 9.6-1.5 11.5-1.8 4.7-4.1 10.2-5.1 12-3.5 6.5-5.1 9.3-5.9 10.3-.6.7-1.8 2.3-2.8 3.6-1.3 1.6-2.5 2.2-3.6 1.8-1.6-.6-1.7-2.7-1.4-23.2.2-18.7.6-22.7 1.8-23.5.8-.6 5.3-.9 10-.8l8.5.3v8zm-36.2 55.2c1 1-3.4 5.3-5.4 5.3-1 0-2 .4-2.3.9-.8 1.2-8.8 5.1-10.5 5.1-.7 0-2.2.6-3.4 1.2-6.5 3.7-35.4 6.2-42.1 3.7-1.7-.6-5.1-1.5-7.6-1.9-4.9-.8-10-2.5-14.2-4.6-1.4-.8-3.3-1.4-4.1-1.4-.8 0-2-.7-2.7-1.5-.7-.8-1.9-1.5-2.7-1.5-1.7 0-5.3-4.1-4.6-5.2.5-1 98.7-1.1 99.6-.1z"/><path d="M413.2 418.9c-1.1.6-1.3 7.9-1.3 35.1 0 18.9.4 34.7.9 35.2.4.4 17 .7 36.8.6l35.9-.3.3-34.4c.2-24.5-.1-34.8-.9-35.7-.9-1.1-7.7-1.4-35.8-1.4-19 0-35.2.4-35.9.9zm62.8 33.3c.3 13.1.3 24.8 0 26l-.6 2.3-26.4.3c-24 .2-26.6.1-27.7-1.5-1.7-2.2-1.8-46.4-.3-49.4 1-1.9 2.2-1.9 27.8-1.7l26.7.3.5 23.7z"/><path d="M440.7 445.6c-.4.4-.7 4.5-.7 9.1v8.4l8.8-.3 8.7-.3v-17l-8-.3c-4.5-.1-8.4 0-8.8.4zM331.8 90.7c-1.6.3-3.9 2-5.8 4.3-2.4 3.1-3 4.7-3 8.8 0 3.2.5 5.4 1.5 6.2.8.7 1.5 1.9 1.5 2.6 0 .8 1.1 1.6 2.5 2 1.3.3 2.9 1.2 3.6 2 1.6 2 4.5 1.7 9.4-.7 4.6-2.3 8.5-8.4 8.5-13.1 0-2.2-4.6-9.8-6.7-11.1-1.4-.8-8.7-1.5-11.5-1zM558 90.8c-8.9 2.4-12.8 12.8-7.5 19.7 2.6 3.4 9.3 7.5 12.4 7.5 1 0 2.4-.7 3.1-1.5.7-.8 1.8-1.5 2.5-1.5s2.5-1.4 3.9-3.1c3.2-3.8 3.6-12.1.8-15.4-4.7-5.3-9.6-7.1-15.2-5.7zM166.7 180.7c-3.3 1.7-8.7 8.8-8.7 11.4 0 2.5 3.6 9.2 6.1 11.5 1.6 1.5 3.6 1.9 8.6 1.9 6.1 0 6.7-.3 9.4-3.3 2.5-2.8 2.9-4 2.9-9.5 0-5.6-.3-6.6-2.7-8.8-5.4-4.9-10.4-5.9-15.6-3.2zM720.7 180.4c-5.2 2.3-7.6 6.4-7.7 12.8 0 5 .4 6.2 2.9 9 2.7 3 3.3 3.3 9.4 3.3 7.3 0 9.3-1.2 12.7-7.7 2.7-5.1 2.5-6.8-.9-11.5-4.7-6.6-10.4-8.6-16.4-5.9zM84 336.7c-3.1.6-6.2 3.8-8 8.1-1 2.7-1.1 4.1 0 7.5.6 2.3 1.7 4.8 2.3 5.6 2.1 2.5 8.6 6.1 11.1 6.1 3.5 0 10.8-5.9 11.8-9.5 1.4-4.8 0-12.6-2.7-15.2-2.4-2.5-9.3-3.7-14.5-2.6zM803.4 337.4c-4.9 2.2-6.4 5.1-6.4 12.6 0 7.1.9 8.5 7.7 12.2 4.7 2.5 8 2.2 12.2-1.1 8-6.3 9-13.5 2.8-20.5-2.7-3.1-4-3.8-8.2-4.2-3.1-.3-6.2.1-8.1 1zM83.5 539.8c-3.7 2.2-5.9 4.7-8 9.3-1.6 3.5-1.6 3.9.1 7.5 2.3 5.1 4.7 7.4 9.1 8.6 5.2 1.4 10.6.1 13.9-3.3 2.5-2.6 2.8-3.6 2.8-9.4 0-7.1-1.3-9.1-8.1-12.7-4.1-2.2-6-2.2-9.8 0zM804 540.3c-5.9 3.6-6.9 5.5-7 12.8 0 5.8.3 6.8 2.8 9.1 3.2 3.1 8.2 4.2 13.7 3.1 3-.7 4.8-1.9 7.2-5.2 1.9-2.4 3.3-5.4 3.3-6.9 0-4.2-4.1-10.4-8.5-12.9-4.9-2.8-7-2.8-11.5 0zM169.5 694.9c-6.9 2.3-11.5 7.8-11.5 13.5 0 4.4 5 11.1 9.7 13.1 3.2 1.4 4.4 1.4 8.1.3 6.3-1.9 9.2-6.1 9.2-13.3 0-6.6-2.1-10-7.8-12.7-4-1.9-4.7-2-7.7-.9zM720.5 695.6c-5.7 2.9-7.5 6.1-7.5 12.9 0 7.1 1.9 10 8.2 13 3.2 1.4 4.3 1.5 7.5.5 2.1-.7 4.6-2 5.7-2.9 2.1-1.9 5.6-8.4 5.6-10.5 0-3.1-4.3-9.8-7.9-12.2-4.1-2.8-7.4-3-11.6-.8zM330.2 786c-5.8 3.1-7.2 5.6-7.2 12.4.1 5 .5 6.6 2.5 8.9 5.3 6 15.5 5.9 20.5-.1 4.2-5.1 4.6-8.3 1.8-13.9-1.5-3.1-3.6-5.4-6.3-6.9-4.7-2.7-6.8-2.8-11.3-.4zM556 786.2c-5 3-7.3 6.4-7.8 11.8-.4 4.3-.1 5.1 3.2 8.8 4.2 4.6 8.5 5.8 14.6 4.2 11.1-3 12.1-20.7 1.3-24.7-6.2-2.4-7.6-2.4-11.3-.1z"/></svg>