<?xml version="1.0" encoding="utf-8"?>
<!-- Generator: Adobe Illustrator 16.0.0, SVG Export Plug-In . SVG Version: 6.00 Build 0)  -->
<!DOCTYPE svg PUBLIC "-//W3C//DTD SVG 1.1//EN" "http://www.w3.org/Graphics/SVG/1.1/DTD/svg11.dtd">
<svg version="1.1" id="Layer_1" xmlns="http://www.w3.org/2000/svg" xmlns:xlink="http://www.w3.org/1999/xlink" x="0px" y="0px"
	 width="500px" height="500px" viewBox="0 0 500 500" enable-background="new 0 0 500 500" xml:space="preserve">
<g>
	<path fill-rule="evenodd" clip-rule="evenodd" d="M466.967,372.479c-7.03-0.846-13.243-1.361-19.37-2.396
		c-6.151-1.04-12.246-2.476-18.304-3.987c-2.222-0.556-3.549-0.008-4.896,1.692c-5.411,6.81-10.771,13.67-16.416,20.282
		c-9.529,11.158-20.789,20.439-32.455,29.25c-1.953,1.475-3.694,3.329-5.83,4.44c-3.082,1.604-3.229,3.948-2.698,6.822
		c1.349,7.299,2.677,14.604,3.938,21.92c0.737,4.277,1.342,8.579,1.969,12.877c0.073,0.503-0.099,1.04-0.243,2.341
		c-1.916-1.139-3.644-1.851-4.979-3.013c-8.543-7.425-17.063-14.876-25.435-22.491c-2.149-1.955-3.923-2.27-6.488-0.949
		c-19.374,9.968-40.362,14.206-61.689,17.213c-0.896,0.127-1.824,0.55-2.669,0.413c-4.192-0.682-4.823,2.053-5.827,5.206
		c-3.101,9.739-6.562,19.365-9.908,29.026c-0.619,1.787-1.275,3.574-2.084,5.28c-0.309,0.648-1.096,1.069-1.665,1.594
		c-0.475-0.594-1.155-1.115-1.393-1.794c-2.539-7.259-4.988-14.55-7.502-21.818c-1.833-5.3-3.756-10.568-5.576-15.873
		c-0.626-1.824-1.819-2.538-3.686-2.517c-17.07,0.19-33.376-4.236-49.617-8.66c-6.234-1.7-12.141-4.701-18.055-7.419
		c-2.038-0.936-3.388-0.604-4.815,0.695c-8.779,7.986-17.538,15.997-26.322,23.978c-1.032,0.939-2.168,1.76-3.256,2.636
		c-0.301-0.117-0.603-0.231-0.904-0.347c0-1.633-0.204-3.297,0.034-4.895c1.528-10.292,2.618-20.69,4.965-30.796
		c1.261-5.429-0.27-8.09-4.399-11.029c-15.917-11.325-29.171-25.506-41.932-40.156c-3.619-4.153-6.91-8.592-10.471-12.799
		c-0.494-0.583-1.734-0.929-2.533-0.798c-11.879,1.938-23.741,3.991-35.614,5.97c-0.807,0.135-1.674-0.087-3.185-0.189
		c1.167-2.044,1.81-3.771,2.945-5.063c6.523-7.417,13.118-14.774,19.779-22.069c4.393-4.813,4.282-4.755,1.634-10.701
		c-8.887-19.957-15.326-40.631-17.617-62.456c-0.84-7.996-1.326-8.592-8.99-11.308c-10.231-3.626-20.432-7.337-30.634-11.042
		c-0.728-0.265-1.367-0.773-2.771-1.587c1.794-0.977,2.986-1.841,4.317-2.313c7.587-2.685,15.227-5.218,22.808-7.919
		c4.261-1.518,8.431-3.29,12.667-4.884c1.539-0.578,2.271-1.473,2.326-3.203c0.655-21.057,7.097-40.729,14.591-60.126
		c1.365-3.533,2.994-6.989,4.816-10.307c0.835-1.524,0.664-2.437-0.391-3.554c-4.042-4.281-8.105-8.544-12.076-12.893
		c-4.09-4.479-8.089-9.043-12.109-13.586c-0.477-0.539-0.967-1.135-1.211-1.793c-0.267-0.719-0.582-1.741-0.266-2.256
		c0.264-0.431,1.447-0.538,2.159-0.415c6.327,1.095,12.631,2.323,18.96,3.411c5.259,0.904,10.537,1.7,15.814,2.486
		c2.159,0.322,3.863-0.092,5.346-2.158c10.237-14.261,21.976-27.227,34.945-39.028c6.294-5.728,13.042-10.967,19.72-16.257
		c1.981-1.568,2.51-3.12,2.083-5.559c-1.941-11.133-3.724-22.293-5.526-33.451c-0.212-1.317-0.192-2.673-0.288-4.129
		c2.949-0.563,4.607,1.225,6.261,2.792c6.444,6.109,12.778,12.335,19.256,18.407c2.506,2.348,5.231,4.478,7.992,6.523
		c0.563,0.417,1.857,0.278,2.613-0.057c14.931-6.63,30.21-12.191,46.377-14.949c6.872-1.172,13.788-2.093,20.697-3.035
		c2.441-0.333,3.86-1.208,4.793-3.827c3.797-10.653,7.944-21.181,12.028-31.73c0.294-0.757,1.117-1.309,1.693-1.956
		c0.64,0.665,1.575,1.218,1.872,2.011c3.864,10.336,7.78,20.658,11.358,31.094c1.24,3.613,2.885,4.8,6.934,5.154
		c15.807,1.383,31.472,3.953,46.403,9.644c6.164,2.349,12.112,5.261,18.219,7.769c0.839,0.344,2.262,0.167,3.009-0.353
		c1.773-1.233,3.319-2.797,4.925-4.261c7.355-6.701,14.687-13.431,22.068-20.103c1.062-0.958,2.267-1.87,3.567-2.421
		c1.817-0.771,2.765,0.139,2.464,2.089c-1.823,11.808-3.588,23.625-5.52,35.414c-0.396,2.416,0.257,3.83,2.262,5.204
		c14.212,9.75,26.688,21.514,38.122,34.301c6.188,6.919,11.404,14.711,16.966,22.181c0.935,1.259,1.694,1.788,3.335,1.422
		c8.301-1.85,16.626-3.585,24.954-5.313c3.275-0.68,6.565-1.326,9.877-1.789c1.048-0.147,2.185,0.352,3.281,0.555
		c-0.369,0.976-0.5,2.163-1.146,2.895c-6.953,7.883-13.854,15.816-21.036,23.488c-6.16,6.581-5.403,5.114-2.236,11.904
		c6.27,13.442,10.786,27.485,13.872,41.942c1.675,7.846,2.517,15.883,3.434,23.868c0.258,2.234,0.928,3.382,3.014,4.147
		c12.049,4.424,24.063,8.944,36.068,13.481c0.792,0.3,1.423,1.023,2.631,1.924c-5.205,2.028-9.711,3.844-14.262,5.545
		c-8.384,3.133-16.779,6.232-25.199,9.27c-1.714,0.618-2.324,1.521-2.266,3.391c0.073,2.237-0.328,4.495-0.567,6.738
		c-2.131,19.892-7.965,38.743-16.011,56.977c-0.984,2.233-1.694,4.594-2.754,6.788c-0.967,2.003-0.581,3.379,0.922,5.006
		c7.984,8.649,15.866,17.395,23.713,26.166C465.545,369.304,465.986,370.67,466.967,372.479z M193.533,191.337
		c3.853-0.823,5.475,2.224,7.272,4.3c4.254-3.202,8.333-6.271,12.51-9.415c-1.099-1.911-2.504-3.847-3.372-6
		c-0.983-2.439-2.263-2.22-3.851-0.906c-3.682,3.049-7.35,6.118-10.919,9.297c-0.75,0.668-1.054,1.838-1.547,2.79
		c-3.931,4.846-7.862,9.691-11.703,14.425c2.949,2.009,5.294,3.606,7.455,5.08c3.088-4.17,6.132-8.191,9.027-12.316
		c0.312-0.444-0.009-1.682-0.442-2.234C196.59,194.603,195.024,193,193.533,191.337z M254.344,302.266
		c1.548-0.145,3.68-0.095,5.682-0.575c7.752-1.862,14.627-5.547,21.146-10.106c10.056-7.035,17.563-16.088,22.465-27.293
		c3.437-7.846,3.159-15.975,1.928-24.274c-1.285-8.652-4.755-16.553-9.702-23.335c-6.063-8.304-14.532-14.442-24.116-18.413
		c-21.424-8.874-38.179-4.731-55.62,10.454c-5.916,5.151-9.517,12.162-13.307,19.038c-7.184,13.032-7.018,26.076-1.648,39.473
		c4.408,10.995,11.519,19.571,21.648,25.994C232.396,299.302,242.473,302.692,254.344,302.266z M488.495,248.08
		c-20.33-8.413-41.479-17.165-62.184-25.732c-9.358,8.426-18.962,17.071-28.662,25.804c1.112,0.587,1.996,0.884,2.666,1.438
		c3.35,2.763,6.741,5.486,9.927,8.43c2.977,2.754,5.732,5.749,8.552,8.671c1.683,1.741,3.157,3.719,5.01,5.245
		c0.842,0.693,2.577,1.081,3.556,0.701c5.641-2.192,11.132-4.762,16.753-7.008C459.132,259.63,474.19,253.729,488.495,248.08z
		 M252.926,13.884c-0.367-0.086-0.735-0.172-1.102-0.259c-1.025,2.237-2.221,4.414-3.042,6.725
		c-2.204,6.205-3.916,12.604-6.428,18.676c-4.353,10.524-9.114,20.882-13.799,31.266c-1.813,4.015-1.857,3.89,1.07,6.944
		c7.386,7.705,14.698,15.48,22.17,23.366c0.028-0.022,0.476-0.312,0.854-0.673c8.055-7.695,16.122-15.376,24.104-23.147
		c0.502-0.49,0.671-1.818,0.399-2.529c-2-5.237-4.111-10.435-6.269-15.61c-3.273-7.847-6.72-15.625-9.893-23.511
		C258.163,28.104,255.605,20.97,252.926,13.884z M137.859,40.295c-0.279,0.075-0.558,0.15-0.837,0.225
		c0,1.378-0.174,2.783,0.031,4.129c0.883,5.808,1.999,11.581,2.807,17.399c2.054,14.781,3.96,29.583,6.046,44.36
		c0.118,0.836,1.19,1.934,2.043,2.208c6.454,2.07,13.005,3.843,19.443,5.958c4.492,1.475,8.855,3.344,13.333,5.058
		c1.482-7.277,2.734-14.313,4.39-21.252c1.081-4.526,2.8-8.897,4.1-13.376c0.195-0.67-0.097-1.815-0.594-2.29
		c-1.827-1.747-3.803-3.346-5.782-4.926c-10.395-8.299-20.892-16.473-31.176-24.907C146.854,48.938,142.448,44.506,137.859,40.295z
		 M456.007,366.556c0.095-0.328,0.189-0.654,0.284-0.982c-1.197-1.042-2.565-1.943-3.57-3.148
		c-12.576-15.092-25.134-30.201-37.598-45.388c-1.395-1.7-2.594-2.295-4.794-1.77c-7.906,1.886-15.857,3.588-23.806,5.296
		c-2.938,0.631-5.913,1.086-9.082,1.659c0.689,2.311,1.191,4.229,1.834,6.101c2.756,8.038,5.597,16.046,8.323,24.094
		c2.27,6.702,0.502,5.672,7.814,6.166c17.28,1.169,34.412,3.28,51.373,6.803C449.812,366.015,452.931,366.179,456.007,366.556z
		 M48.165,365.764c1.013,0.14,1.623,0.359,2.192,0.282c5.288-0.71,10.562-1.522,15.852-2.208c8.161-1.056,16.323-2.113,24.501-3.024
		c7.191-0.801,14.412-1.347,21.601-2.163c0.886-0.101,2.129-1.002,2.416-1.813c2.98-8.416,5.774-16.895,8.675-25.338
		c1.039-3.022,2.225-5.992,3.426-9.206c-1.199-0.22-1.804-0.401-2.417-0.434c-10.906-0.546-20.787-5.327-31.269-7.646
		c-2.152-0.477-3.375-0.433-4.447,1.457c-0.578,1.019-1.295,1.963-1.991,2.91c-5.021,6.857-9.754,13.953-15.154,20.496
		C64.14,348.059,56.222,356.618,48.165,365.764z M251.689,485.998c0.266-0.002,0.53-0.004,0.795-0.004
		c2.801-7.914,5.825-15.754,8.35-23.755c4.147-13.142,9.63-25.729,15.379-38.211c0.798-1.735,0.735-2.495-0.669-3.813
		c-5.406-5.077-10.687-10.294-15.896-15.576c-2.839-2.878-5.442-5.99-8.24-9.094c-0.933,1.129-1.633,2.076-2.434,2.928
		c-7.053,7.511-14.144,14.983-21.144,22.543c-0.488,0.525-0.698,1.793-0.424,2.469c4.125,10.203,8.438,20.33,12.525,30.549
		c2.551,6.376,4.809,12.87,7.177,19.318C248.655,477.561,250.165,481.783,251.689,485.998z M367.29,40.427
		c-0.22-0.054-0.441-0.107-0.66-0.162c-2.078,1.945-4.079,3.979-6.243,5.822c-14.76,12.569-29.537,25.119-44.369,37.603
		c-1.273,1.072-1.406,1.782-0.864,3.36c2.196,6.401,4.327,12.837,6.091,19.367c1.098,4.066,1.488,8.324,2.25,12.792
		c1.907-0.677,3.584-1.301,5.282-1.868c9.001-3.005,17.946-6.207,27.052-8.854c2.569-0.747,3.271-1.785,3.428-4.096
		c0.382-5.692,0.656-11.408,1.409-17.056C362.755,71.683,365.065,56.061,367.29,40.427z M365.584,453.804
		c0.253-0.269,0.508-0.537,0.761-0.809c0-0.622,0.067-1.253-0.01-1.865c-0.982-7.804-1.957-15.606-2.989-23.403
		c-1.639-12.381-3.372-24.752-4.922-37.146c-0.222-1.764-0.955-2.455-2.47-2.953c-9.26-3.047-18.508-6.137-27.747-9.244
		c-3.149-1.058-5.158,0.158-5.988,3.368c-2.198,8.491-4.418,16.979-6.87,25.399c-0.82,2.823-1.097,4.618,1.806,6.755
		c5.232,3.854,9.829,8.559,14.801,12.779c8.771,7.442,17.594,14.826,26.473,22.143C360.661,450.669,363.189,452.155,365.584,453.804
		z M126.297,174.832c-3.941-11.498-7.772-22.783-11.74-34.02c-0.257-0.73-1.523-1.501-2.372-1.565
		c-17.245-1.286-34.396-3.298-51.438-6.246c-4.405-0.762-8.83-1.413-13.366-2.133c14.834,17.847,29.421,35.398,43.51,52.348
		C102.585,180.447,114.071,177.728,126.297,174.832z M105.679,248.309c-1.494-1.263-2.672-2.215-3.803-3.222
		c-6.149-5.48-12.322-10.936-18.41-16.484c-2.001-1.823-3.549-5.122-5.712-5.519c-2.269-0.415-5.001,1.911-7.577,2.924
		c-16.575,6.52-33.165,13.001-49.741,19.519c-1.37,0.539-2.669,1.253-4.002,1.887c-0.017,0.338-0.033,0.677-0.051,1.016
		c21.192,8.338,42.383,16.677,62.819,24.719c2.42-3.17,4.067-6.172,6.48-8.312c5.342-4.734,11.077-9.026,16.632-13.521
		C103.4,250.439,104.4,249.457,105.679,248.309z M377.447,174.304c12.043,2.34,23.503,5.255,34.65,9.356
		c0.586,0.215,1.92-0.374,2.284-0.97c8.435-13.772,19.63-25.343,29.914-37.635c2.902-3.469,6.097-6.694,9.135-10.05
		c1.121-1.237,2.183-2.527,3.734-4.333c-3.312,0.298-5.852,0.327-8.311,0.785c-7.654,1.426-15.23,3.355-22.926,4.458
		c-11.201,1.604-22.474,2.715-33.728,3.899c-2.483,0.261-3.651,1.059-4.334,3.688c-1.498,5.765-3.526,11.396-5.45,17.043
		C380.852,165.141,379.123,169.683,377.447,174.304z M145.448,387.213c-2.75,22.188-5.607,45.251-8.464,68.312
		c0.268,0.112,0.535,0.227,0.803,0.34c0.826-0.629,1.69-1.212,2.472-1.892c5.656-4.927,11.328-9.836,16.932-14.819
		c10.08-8.965,20.133-17.96,30.125-27.021c0.489-0.444,0.579-1.726,0.371-2.482c-2.368-8.615-4.857-17.197-7.247-25.807
		c-0.542-1.955-0.824-3.983-1.277-6.239C167.918,380.81,156.936,383.938,145.448,387.213z M131.682,317.628
		c1.674,0.313,2.9,0.457,4.077,0.779c2.431,0.664,4.799,1.848,7.258,2.054c5.313,0.446,10.67,0.633,16.001,0.529
		c12.246-0.232,24.294-1.769,35.709-6.574c0.523-0.222,1.176-1.046,1.132-1.532c-0.158-1.748-5.344-4.992-7.074-4.46
		c-14.01,4.308-28.291,5.863-42.901,4.487c-1.968-0.186-2.744-0.816-1.979-2.692c0.92-2.258,1.999-4.452,2.928-6.708
		c5.163-12.525,11.681-24.107,22.508-32.747c0.486-0.388,1.038-1.216,0.938-1.716c-0.306-1.538-0.915-3.017-1.568-5.016
		c-2.099,1.026-4.416,1.629-6.009,3.047c-3.775,3.358-7.415,6.923-10.736,10.73c-7.362,8.436-11.553,18.759-16.348,28.685
		C133.917,310.019,132.972,313.907,131.682,317.628z M373.221,317.682c-1.811-3.727-3.697-7.228-5.253-10.871
		c-5.983-14.028-13.791-26.84-24.563-37.755c-1.803-1.826-3.964-2.156-6.241-1.874c-2.198,0.274-3.015,2.04-1.748,3.806
		c1.837,2.552,3.767,5.068,5.911,7.36c7.924,8.465,13.283,18.485,17.838,29.001c1.184,2.729,0.239,4.476-2.74,4.792
		c-12.873,1.369-25.672,1.616-38.116-2.933c-6.334-2.316-6.363-2.237-10.67,2.981c-0.047,0.058-0.02,0.178-0.025,0.267
		C321.262,322.4,351.43,323.808,373.221,317.682z M229.77,166.561c2.206-9.777,6.046-18.87,10.546-27.641
		c2.165-4.22,5.025-8.206,8.174-11.764c3.101-3.506,3.475-3.252,6.81-0.089c1.169,1.11,2.252,2.383,3.1,3.752
		c6.461,10.419,11.565,21.446,14.752,33.324c0.214,0.799,0.621,1.947,1.222,2.168c1.896,0.701,3.928,1.039,6.261,1.602
		c0.085-1.445,0.386-2.629,0.178-3.716c-0.672-3.545-1.148-7.195-2.384-10.552c-4.518-12.283-10.616-23.779-18.288-34.392
		c-2.679-3.706-5.731-7.142-8.666-10.767c-0.514,0.379-0.879,0.526-1.055,0.797c-3.344,5.144-6.486,10.429-10.031,15.43
		c-6.22,8.777-11.14,18.227-15.041,28.201c-1.17,2.992-1.902,6.269-2.178,9.472c-0.426,4.949,0.271,5.375,5.014,4.502
		C228.705,166.791,229.224,166.673,229.77,166.561z M422.313,132.451c0.131-0.403,0.261-0.806,0.392-1.209
		c-8.463-9.879-16.468-20.203-25.514-29.513c-9.074-9.336-18.85-18.067-30.581-25.903c-0.733,5.079-1.438,9.495-1.938,13.934
		c-0.071,0.627,0.731,1.535,1.355,2.025c2.416,1.901,5.12,3.474,7.366,5.547c11.649,10.75,23.147,21.655,32.656,34.442
		c0.529,0.712,1.571,1.515,2.351,1.491C413.041,133.121,417.675,132.747,422.313,132.451z M335.352,231.48
		c2.562-1.067,5.412-1.46,7.016-3.083c3.57-3.609,6.396-7.939,9.744-11.784c5.407-6.21,9.511-13.223,13.06-20.577
		c2.652-5.494,5.049-11.111,7.72-17.032c-2.088-0.68-3.406-1.288-4.786-1.529c-16.478-2.883-32.953-3.201-49.352,0.487
		c-3.989,0.897-7.927,2.198-11.491,5.414c1.593,1.42,2.965,2.738,4.452,3.912c0.49,0.387,1.316,0.65,1.913,0.547
		c3.893-0.679,7.908-1.057,11.606-2.331c5.44-1.872,10.96-2.327,16.58-2.216c5.251,0.103,10.497,0.397,15.74,0.714
		c1.409,0.085,3.227,0.301,2.598,2.469c-0.595,2.052-1.447,4.044-2.347,5.988c-5.379,11.612-12.794,21.828-21.562,31.086
		c-1.441,1.52-2.983,2.727-0.955,4.942C335.717,228.955,335.352,230.153,335.352,231.48z M82.563,131.708
		c4.59,0.425,8.741,0.674,12.847,1.25c1.956,0.274,3.058-0.469,4.109-1.875c10.304-13.788,21.9-26.343,35.879-36.484
		c2.998-2.174,4.837-4.124,3.137-7.883c-0.248-0.546-0.138-1.252-0.209-1.881c-0.328-2.935-0.663-5.869-1.038-9.191
		C115.617,91.219,97.685,109.772,82.563,131.708z M142.987,185.101c2.353-0.444,3.667-0.761,5-0.933
		c10.125-1.306,20.246-1.561,30.258,0.784c3.424,0.801,6.708,2.185,10.103,3.141c0.918,0.259,2.25,0.281,2.964-0.21
		c1.846-1.267,3.454-2.882,5.403-4.572c-1.06-0.67-1.41-0.921-1.785-1.124c-6.9-3.756-14.49-4.935-22.128-6.027
		c-13.188-1.885-26.199-0.505-39.17,1.881c-1.898,0.349-2.395,1.485-1.607,3.175c2.556,5.491,4.932,11.079,7.762,16.425
		c5.564,10.509,11.603,20.753,20.568,28.82c2.301,2.071,5.164,3.519,7.768,5.252c0.187-0.267,0.372-0.535,0.558-0.802
		c-0.773-0.689-1.547-1.378-2.321-2.067c0.068-0.125,0.135-0.251,0.203-0.376c0.795,0.192,1.589,0.386,2.294,0.556
		c1.394-1.641,1.352-3.052-0.006-4.488c-0.932-0.986-1.783-2.053-2.615-3.127c-4.598-5.93-9.583-11.612-13.646-17.89
		C148.939,197.876,146.307,191.575,142.987,185.101z M280.666,327.463c-2.585,0.834-5.181,1.156-7.071,2.487
		c-1.01,0.71-0.755,3.165-1.156,4.812c-0.276,1.141-0.597,2.291-1.075,3.356c-3.438,7.669-6.781,15.385-10.442,22.946
		c-2.083,4.306-5.07,8.056-9,11.597c-11.979-12.224-18.849-26.729-22.595-43.213c-1.797-0.399-3.86-0.858-6.328-1.406
		c0,2.084-0.317,3.767,0.052,5.28c2.242,9.192,3.982,18.571,9.499,26.617c5.682,8.287,11.231,16.663,16.92,24.946
		c1.896,2.762,2.806,2.64,4.715-0.237c1.649-2.489,3.24-5.02,4.975-7.447c6.049-8.482,11.887-17.055,15.928-26.767
		C278.093,343.205,280.604,335.942,280.666,327.463z M366.142,418.636c13.336-5.82,52.431-44.876,53.83-53.524
		c-3.872-0.368-7.735-0.841-11.612-1.03c-0.948-0.048-2.247,0.571-2.864,1.314c-3.111,3.758-5.786,7.905-9.104,11.46
		c-9.105,9.752-19,18.645-30.128,26.095c-0.533,0.358-1.046,1.25-1.016,1.868C365.459,409.324,365.812,413.825,366.142,418.636z
		 M83.766,365.548c15.009,20.811,31.771,39.018,53.213,53.105c0.617-4.62,1.241-8.644,1.624-12.688
		c0.083-0.87-0.454-2.124-1.132-2.689c-2.851-2.366-5.964-4.422-8.8-6.806c-10.923-9.188-21.09-19.099-29.041-31.079
		c-0.382-0.575-1.268-1.224-1.871-1.18C93.357,364.536,88.967,365.028,83.766,365.548z M435.401,335.294
		c7.837-8.501,22.369-59.436,19.76-69.569c-2.972,1.364-5.85,2.906-8.885,4.021c-3.017,1.106-4.163,2.816-4.769,6.159
		c-2.932,16.203-6.512,32.27-13.682,47.275c-0.352,0.735-0.193,2.111,0.293,2.778C430.439,329.149,432.954,332.195,435.401,335.294z
		 M48.051,265.81c1.806,25.282,8.43,48.142,18.944,70.118c2.865-3.287,5.508-6.381,8.222-9.407c0.981-1.096,0.917-1.989,0.392-3.377
		c-3.675-9.709-7.614-19.352-10.601-29.275c-2.045-6.799-2.667-14.024-3.991-21.044c-0.173-0.92-0.509-2.288-1.147-2.559
		C56.172,268.698,52.36,267.397,48.051,265.81z M455.062,230.089c2.09-11.035-10.995-59.243-18.559-68.802
		c-1.849,2.042-3.644,4.048-5.462,6.03c-2.746,2.99-4.935,6.028-1.119,9.769c0.116,0.114,0.137,0.332,0.191,0.503
		c2.313,7.039,4.921,13.996,6.856,21.136c2.03,7.491,3.362,15.171,5.144,22.735c0.282,1.202,1.058,2.69,2.054,3.252
		C447.599,226.649,451.229,228.234,455.062,230.089z M67.345,161.905c-8.789,11.085-22.225,60.269-18.532,67.848
		c2.251-0.853,4.485-1.832,6.8-2.546c3.732-1.151,6.795-2.666,5.559-7.465c-0.042-0.162,0.026-0.36,0.068-0.535
		c3.604-15.03,7.074-30.1,13.932-44.108c0.388-0.792,0.653-2.169,0.239-2.745C72.887,168.846,70.15,165.489,67.345,161.905z
		 M166.65,436.253c21.868,10.091,44.293,14.607,68.04,15.653c-1.841-4.703-3.358-8.752-5.055-12.724
		c-0.25-0.585-1.327-1.071-2.066-1.146c-1.976-0.199-3.996,0.012-5.962-0.227c-14.051-1.719-27.733-5.02-41.081-9.73
		c-0.783-0.275-1.972-0.544-2.52-0.164C174.25,430.526,170.614,433.31,166.65,436.253z M269.383,452.956
		c23.015-2.127,44.827-7.461,65.961-17.313c-3.693-3.021-6.938-5.741-10.278-8.337c-0.492-0.383-1.605-0.488-2.152-0.197
		c-9.242,4.891-19.473,6.551-29.448,8.971c-5.072,1.229-10.333,1.657-15.459,2.692c-1.643,0.33-3.956,1.063-4.525,2.281
		C271.78,444.696,270.794,448.67,269.383,452.956z M235.949,43.356c-23.378,2.851-45.891,7.851-67.3,17.93
		c3.474,2.899,6.99,5.409,10.631,7.721c0.778,0.494,2.193,0.686,3.004,0.323c13.48-6.022,27.551-9.88,42.219-11.362
		c3.747-0.379,5.968-1.243,6.888-5.377C232.087,49.463,234.253,46.663,235.949,43.356z M335.346,61.785
		c-20.932-10.89-42.651-15.91-65.887-17.227c0.716,2.081,1.521,3.796,1.889,5.602c1.216,5.946,4.956,7.761,10.77,8.264
		c14.234,1.232,27.858,5.356,41.3,10.086c1.104,0.389,2.816,0.379,3.718-0.229C329.875,66.433,332.354,64.199,335.346,61.785z
		 M186.454,320.336c-2.886,0.783-5.413,1.426-7.91,2.165c-1.286,0.382-1.615,1.073-1.331,2.623c0.565,3.088,0.821,6.277,0.807,9.422
		c-0.052,11.486,1.704,22.711,4.415,33.833c0.601,2.465,1.793,2.567,3.688,1.524c5.149-2.839,10.39-5.52,15.446-8.513
		c5.909-3.499,11.625-7.32,17.497-10.887c2.941-1.785,3.781-3.46,2.764-6.72c-0.442-1.415-1.015-2.791-1.629-4.464
		c-9.333,7.27-18.433,14.396-29.809,18.075C185.702,345.37,186.607,333.006,186.454,320.336z M391.696,247.841
		c-1.828-1.291-3.647-2.319-5.161-3.686c-9.671-8.736-21.03-15.031-31.838-22.121c-0.506-0.333-1.72-0.391-2.057-0.044
		c-2.093,2.149-4.028,4.451-6.114,6.813c2.779,1.311,5.267,2.225,7.486,3.579c6.932,4.232,13.854,8.492,20.588,13.028
		c2.897,1.953,2.779,3.62,0.025,5.832c-2.245,1.804-4.636,3.507-7.174,4.854c-6.38,3.388-12.855,6.597-19.35,9.764
		c-1.636,0.799-1.461,1.567-0.482,2.654c1.206,1.345,2.609,2.559,3.576,4.055c0.876,1.354,1.648,1.374,2.882,0.7
		c4.359-2.384,8.768-4.68,13.115-7.087C376.189,261.199,383.926,254.541,391.696,247.841z M279.799,346.997
		c6.49,6.238,34.249,22.426,39.897,23.378c0.419-2.208,0.66-4.459,1.283-6.601c3.706-12.713,4.688-25.788,5.23-38.919
		c0.032-0.771-0.658-2.086-1.283-2.279c-2.426-0.753-4.96-1.156-7.599-1.72c0,4.63,0,8.787,0,12.942
		c-0.002,7.19-0.609,14.279-3.147,21.102c-0.688,1.851-1.6,2.459-3.412,1.459c-4.271-2.353-8.646-4.521-12.82-7.034
		c-5.082-3.062-9.999-6.403-15.102-9.694C281.77,342.234,280.775,344.635,279.799,346.997z M317.369,174.72
		c2.719-0.654,5.158-1.301,7.627-1.813c1.548-0.321,1.718-1.163,1.532-2.557c-0.324-2.417-0.554-4.862-0.599-7.299
		c-0.222-11.634-1.388-23.129-4.705-34.336c-0.532-1.799-2.584-2.791-4.168-1.918c-7.921,4.362-15.886,8.653-23.719,13.169
		c-3.6,2.075-6.97,4.554-10.354,6.977c-0.769,0.549-1.694,1.673-1.623,2.45c0.204,2.265,0.874,4.487,1.43,7.038
		c5.529-3.443,10.815-6.888,16.252-10.072c4.208-2.464,8.575-4.671,12.966-6.8c0.536-0.26,2.323,0.576,2.398,1.076
		c1.101,7.221,2.187,14.454,2.894,21.722C317.689,166.367,317.369,170.445,317.369,174.72z M220.631,157.496
		c3.13-7.643,2.749-8.986-3.701-13.487c-0.445-0.311-0.893-0.621-1.358-0.899c-3.33-1.987-6.604-4.078-10.01-5.924
		c-5.942-3.221-11.905-6.413-17.982-9.365c-2.737-1.33-5.319,0.351-5.792,3.331c-0.481,3.035-1.047,6.064-1.341,9.118
		c-0.847,8.822-1.793,17.643-2.277,26.487c-0.34,6.218-0.029,6.232,5.916,7.521c0.775,0.168,1.541,0.375,2.577,0.63
		c0-1.793,0.096-3.319-0.016-4.831c-0.686-9.269-0.201-18.437,2.386-27.409c0.4-1.387,1.212-2.654,1.848-4.008
		C201.985,143.621,212.022,149.385,220.631,157.496z M150.336,273.344c2.33-2.165,4.459-4.142,6.771-6.291
		c-12.32-4.524-24.733-12.049-31.4-19.017c8.605-9.452,20.252-13.949,31.292-19.015c-1.615-2.029-3.013-3.907-4.557-5.656
		c-0.487-0.55-1.568-1.24-2.028-1.045c-3.154,1.337-6.456,2.54-9.259,4.448c-7.099,4.831-13.972,9.992-20.91,15.056
		c-2.742,2-5.417,4.093-8.294,6.273C123.838,258.171,135.791,267.593,150.336,273.344z M166.784,119.147
		c-5.673-4.027-12.333-5.562-19.109-6.709c-0.791-0.134-1.894,0.18-2.516,0.693c-3.761,3.103-7.473,6.271-11.059,9.572
		c-0.466,0.428-0.513,2.09-0.077,2.594c2.896,3.345,6.003,6.505,8.982,9.781c1.065,1.171,1.794,1.199,3.112,0.147
		C152.871,129.841,159.74,124.604,166.784,119.147z M370.992,124.941c-4.24-4.389-8.025-8.369-11.908-12.252
		c-0.471-0.47-1.542-0.743-2.188-0.569c-5.652,1.526-11.282,3.132-16.885,4.824c-0.971,0.293-1.787,1.101-2.366,1.474
		c7.299,5.763,14.492,11.443,21.805,17.217C363.291,132.077,366.995,128.645,370.992,124.941z M378.721,159.312
		c2.494-4.436,4.281-9.255,4.979-14.481c0.228-1.698,0.255-3.517,0.927-5.035c0.741-1.675,0.305-2.802-0.763-3.885
		c-2.853-2.896-5.713-5.792-8.708-8.539c-0.436-0.398-1.928-0.308-2.422,0.13c-3.843,3.403-7.56,6.946-11.149,10.292
		C367.284,144.951,372.945,152.062,378.721,159.312z M398.068,288.683c-3.94-0.773-7.022-1.098-9.9-2.04
		c-1.975-0.645-2.7-0.275-3.416,1.538c-1.993,5.047-3.468,10.481-6.421,14.915c-3.248,4.873-3.861,9.159-1.062,14.107
		c0.174,0.307,0.328,0.625,0.551,1.054c1.8-0.259,3.568-0.619,5.352-0.739c2.232-0.152,3.624-1.173,4.462-3.256
		C390.993,305.909,394.427,297.588,398.068,288.683z M126.866,318.091c2.106-5.518,1.797-5.384-0.229-10.11
		c-2.944-6.869-5.366-13.961-8.088-20.929c-0.224-0.571-1.154-1.386-1.559-1.287c-3.648,0.894-7.251,1.967-10.548,2.897
		c1.275,9.83,5.563,17.984,9.674,26.202c0.176,0.354,0.587,0.729,0.958,0.826C120.299,316.517,123.539,317.284,126.866,318.091z
		 M212.871,97.733c0.329-5.626-2.52-10.245-4.053-15.194c-0.123-0.399-1.373-0.801-1.956-0.649
		c-3.841,0.996-7.662,2.081-11.443,3.282c-0.956,0.303-2.232,0.952-2.53,1.752c-2.251,6.027-4.295,12.131-6.404,18.211
		c0.25,0.231,0.499,0.463,0.749,0.694C195.702,103.155,204.17,100.48,212.871,97.733z M212.28,397.115
		c-2.122,0.188-3.664,0.771-4.854,0.354c-5.262-1.841-10.396-4.047-15.637-5.952c-1.625-0.592-3.443-0.65-5.443-1.001
		c0.767,3.497,1.238,6.524,2.107,9.432c1.821,6.089,3.351,12.556,11.554,13.071c0.522,0.032,1.024,0.343,1.542,0.503
		c2.029,0.632,4.062,1.259,6.096,1.888C209.196,409.284,210.671,403.463,212.28,397.115z M130.37,125.408
		c-0.867,1.217-1.271,2.042-1.9,2.623c-2.26,2.083-4.597,4.081-6.901,6.114c-1.719,1.518-3.674,3.154-2.895,5.683
		c1.868,6.055,4.034,12.019,6.121,18.144c5.889-7.137,11.324-13.724,16.86-20.434C138.035,133.647,134.242,129.569,130.37,125.408z
		 M124.804,337.334c-0.193,0.282-0.761,0.809-0.95,1.444c-1.465,4.933-3.021,9.85-4.182,14.854c-0.391,1.688-0.377,4.134,0.578,5.35
		c3.142,3.997,6.8,7.588,10.224,11.296c0.914-0.652,1.243-0.824,1.492-1.075c2.171-2.185,4.353-4.361,6.484-6.583
		c3.508-3.659,3.319-3.533,0.236-7.328C133.968,349.483,129.518,343.46,124.804,337.334z M356.666,357.848
		c-2.878-3.117-5.486-5.94-8.071-8.739c-0.602,0.425-0.854,0.545-1.03,0.735c-6.075,6.551-12.95,12.02-21.04,15.936
		c-1.816,0.878-3.098,2.434-2.912,4.776c0.218,2.712,6.269,5.59,9.447,4.393C342.381,371.435,349.294,364.631,356.666,357.848z
		 M362.385,358.052c3.802,4.019,7.426,7.85,11.373,12.027c3.476-3.689,6.645-7.017,9.755-10.398
		c0.365-0.399,0.628-1.127,0.561-1.651c-0.401-3.032-0.759-6.086-1.429-9.065c-0.915-4.08-1.677-8.266-4.244-11.82
		C372.976,344.228,367.746,351.054,362.385,358.052z M265.385,96.966c-0.014,0.237-0.027,0.474-0.039,0.71
		c-3.217-0.875-5.877,0.208-7.739,2.629c-1.291,1.678-2.946,4.023-2.62,5.719c0.295,1.536,2.922,3.434,4.751,3.726
		c8.012,1.277,16.104,2.071,24.179,2.896c0.734,0.075,2.1-0.737,2.268-1.375c0.714-2.699,1.216-5.475,1.491-8.252
		c0.071-0.708-0.864-2.079-1.524-2.211C279.251,99.418,272.313,98.218,265.385,96.966z M338.297,377.471
		c5.387,2.984,11.753,4.507,18.232,5.647c0.558,0.099,1.351-0.023,1.758-0.369c4.039-3.45,8.021-6.967,12.12-10.553
		c-3.424-4.334-6.587-8.333-9.522-12.05C353.092,366.123,345.736,371.766,338.297,377.471z M288.951,395.423
		c-1.008-4.144-1.809-7.565-2.681-10.968c-0.332-1.293-1.104-1.55-2.467-1.152c-7.324,2.135-14.814,3.133-22.453,3.113
		c-4.603-0.012-6.787,3.321-5.049,7.518c1.152,2.782,2.88,4.573,6.242,4.241c3.514-0.347,7.063-0.305,10.573-0.683
		C278.3,396.933,283.46,396.152,288.951,395.423z M117.275,210.486c0.414-1.537,0.583-2.623,0.991-3.61
		c2.447-5.911,4.474-12.068,7.603-17.599c2.002-3.54,2.257-6.608,1.318-10.412c-4.853,0.738-9.995,0.262-12.293,6.044
		c-0.927,2.331-2.479,4.414-3.4,6.746c-2.104,5.326-3.994,10.736-6.074,16.393C109.709,208.93,113.386,209.687,117.275,210.486z
		 M86.338,293.067c1.755,5.584,3.235,10.412,4.824,15.204c0.19,0.575,0.893,1.216,1.485,1.386c6.31,1.814,12.645,3.541,19.45,5.423
		c-1.47-3.213-2.748-5.67-3.738-8.238c-2.012-5.221-3.811-10.522-5.857-15.728c-0.281-0.718-1.596-1.646-2.224-1.509
		C95.726,290.588,91.227,291.819,86.338,293.067z M152.121,348.181c-6.256-8.259-12.245-16.177-18.247-24.086
		c-1.39-1.831-3.857-1.513-4.688,0.618c-0.492,1.262-0.796,2.6-1.311,3.852c-1.083,2.635-0.969,5.078,0.76,7.437
		c3.956,5.399,7.87,10.828,11.787,16.254c1.069,1.481,2.092,2.997,3.406,4.888C147.014,353.7,149.811,350.678,152.121,348.181z
		 M291.824,394.308c8.888-0.957,16.53-5.02,24.51-8.038c0.561-0.212,0.964-1.2,1.18-1.905c0.575-1.898,0.652-4.039,1.588-5.716
		c1.15-2.06,0.399-3.228-1.264-3.808c-1.396-0.484-3.177-0.662-4.561-0.237c-6.203,1.902-12.316,4.091-18.479,6.123
		c-2.109,0.695-4.27,1.233-6.684,1.921C289.412,386.725,290.63,390.558,291.824,394.308z M144.115,140.962
		c-4.41,5.693-8.694,10.929-12.617,16.422c-1.746,2.445-3.497,5.305-3.904,8.168c-0.39,2.746,0.956,5.738,1.547,8.664
		c2.848-0.426,5.099-1.361,6.667-3.838c1.495-2.361,3.274-4.558,5.072-6.707c3.939-4.708,7.97-9.339,12.173-14.246
		C150.23,146.751,147.314,143.991,144.115,140.962z M183.648,121.117c1.533,1.083,3.105,1.667,5.333,0.901
		c8.358-2.873,16.805-5.482,25.189-8.285c0.602-0.202,1.428-1.237,1.342-1.749c-0.565-3.354-1.353-6.671-2.153-10.396
		c-8.335,2.367-16.731,4.358-24.375,8.62c-2.536,1.414-4.161,3.217-4.161,6.358C184.823,118.023,184.095,119.48,183.648,121.117z
		 M214.929,395.116c9.028,2.738,17.985,3.005,26.941,3.086c1.136,0.01,2.412-0.961,3.381-1.768c0.877-0.728,1.522-1.799,2.085-2.818
		c0.523-0.949,1.423-2.501,1.072-2.966c-0.994-1.314-2.421-2.87-3.898-3.144c-4.511-0.834-9.143-0.996-13.699-1.635
		c-4.36-0.608-8.682-1.486-13.155-2.271C216.74,387.468,215.853,391.216,214.929,395.116z M319.353,118.464
		c-0.233-1.357-0.575-2.863-0.737-4.388c-0.218-2.034-0.961-3.516-3.066-4.231c-4.604-1.565-9.14-3.336-13.755-4.863
		c-2.912-0.962-5.923-1.62-8.879-2.447c-1.263-0.353-2.046-0.188-2.322,1.329c-0.419,2.311-1.094,4.575-1.528,6.883
		c-0.212,1.12-0.06,1.943,0.848,3.157c1.1,1.471,2.121,0.664,3.055,0.998c6.957,2.487,13.99,4.758,20.965,7.194
		C316.966,123.153,319.318,121.735,319.353,118.464z M147.416,358.334c1.541,1.422,2.883,2.896,4.453,4.064
		c5.469,4.07,11.047,7.995,16.52,12.062c1.911,1.421,9.194,0.85,10.566-1.011c0.104-0.143,0.274-0.357,0.232-0.469
		c-0.979-2.577-1.289-6.593-3.103-7.462c-7.445-3.568-13.437-8.79-19.126-14.503c-1.237-1.241-2.06-1.117-3.092,0.06
		C151.79,353.439,149.688,355.782,147.416,358.334z M389.789,316.503c1.573-0.207,2.378-0.211,3.117-0.433
		c2.21-0.662,4.396-1.411,6.591-2.125c3.005-0.977,6.056-1.837,8.989-2.991c0.961-0.38,1.973-1.386,2.354-2.347
		c1.6-4.029,2.991-8.141,4.414-12.239c0.739-2.127-0.142-3.104-2.314-3.534c-2.107-0.419-4.124-1.281-6.191-1.916
		c-1.696-0.518-3.41-0.988-5.299-1.534C398.229,298.636,396.299,308.105,389.789,316.503z M133.295,372.995
		c1.473,1.303,3.023,2.239,3.978,3.596c3.152,4.483,7.092,6.257,12.567,4.873c5.347-1.353,10.793-2.312,16.417-3.489
		c-7.367-5.689-14.176-10.995-21.078-16.175c-0.461-0.348-1.952-0.046-2.42,0.458C139.683,365.573,136.757,369.027,133.295,372.995z
		 M154.724,147.609c5.228-4.446,10.173-8.797,15.289-12.938c2.309-1.869,5.189-3.067,7.362-5.059
		c1.236-1.134,1.839-3.209,2.134-4.96c0.084-0.502-1.838-1.48-2.95-2.011c-1.298-0.62-2.755-0.903-4.071-1.493
		c-1.248-0.559-2.063-0.516-3.003,0.683c-1.094,1.396-2.337,3.019-3.882,3.658c-6.619,2.74-11.46,7.791-16.783,12.237
		c-1.403,1.172-1.256,2.248-0.183,3.412C150.656,143.328,152.717,145.48,154.724,147.609z M373.057,322.353
		c-1.6,0.907-3.529,1.404-4.472,2.649c-2.943,3.881-5.33,8.183-8.281,12.055c-2.711,3.559-5.873,6.773-9.011,10.335
		c2.41,2.659,5.101,5.625,8.337,9.195c5.505-7.556,10.821-14.712,15.919-22.019c0.694-0.995,0.677-2.835,0.353-4.122
		C375.241,327.847,374.144,325.355,373.057,322.353z M218.578,112.129c8.293-0.916,16.349-1.867,24.419-2.671
		c4.506-0.449,6.679-4.564,4.05-8.228c-0.984-1.371-2.578-3.433-3.763-3.349c-8.274,0.585-16.515,1.646-24.765,2.567
		c-1.573,0.175-2.206,1.058-1.868,2.628C217.314,106.152,217.962,109.231,218.578,112.129z M214.972,383.197
		c-4.524-1.309-9.009-2.374-13.324-3.92c-3.725-1.334-7.22-3.294-10.882-4.819c-2.821-1.179-7.027,0.826-7.101,3.335
		c-0.097,3.303,0.591,6.278,4.118,7.749c1.331,0.554,2.551,1.368,3.853,1.995c6.599,3.185,13.437,5.62,20.754,6.759
		C213.303,390.37,214.178,386.611,214.972,383.197z M356.662,138.143c-3.136-2.632-5.725-5.026-8.538-7.116
		c-4.018-2.982-8.048-6-12.361-8.51c-3.126-1.819-6.567-1.357-9.543,0.953c-2.048,1.59-1.577,4.778,0.577,6.29
		c5.239,3.675,10.41,7.455,15.474,11.366c2.183,1.685,4.03,3.8,6.207,5.89C351.2,144.064,353.744,141.305,356.662,138.143z
		 M85.243,290.406c5.183-1.119,9.562-2.238,14.006-2.947c2.068-0.33,2.309-1.074,1.904-2.851
		c-1.201-5.278-2.377-10.566-3.374-15.887c-0.504-2.69-0.599-5.46-0.97-9.078c-3.806,3.929-7.23,7.088-10.172,10.646
		c-1.656,2.003-3.506,4.662-3.515,7.03C83.106,281.552,84.418,285.788,85.243,290.406z M316.561,390.316
		c-2.714,1.071-4.491,1.896-6.344,2.482c-5.29,1.679-10.609,3.257-15.914,4.884c-1.085,0.334-2.419,0.411-2.026,2.198
		c1.06,4.825,2.068,9.665,3.161,14.811c2.373-0.573,4.597-1.295,6.878-1.625c5.357-0.771,8.997-2.995,10.061-8.902
		C313.177,399.706,314.974,395.427,316.561,390.316z M210.209,415.174c2.641,0.706,5.152,1.386,7.667,2.048
		c3.122,0.822,5.989,1.019,8.718-1.473c4.836-4.416,10.047-8.436,13.703-13.463c-8.44-0.909-16.895-1.818-25.254-2.72
		C213.562,404.353,211.941,409.585,210.209,415.174z M262.644,402.549c1.218,1.441,2.194,2.804,3.378,3.95
		c2.061,1.997,4.14,4.003,6.411,5.745c2.382,1.824,4.898,4.501,7.538,4.732c4.173,0.368,8.496-0.992,12.842-1.635
		c-1.297-5.697-2.493-10.944-3.6-15.804C280.546,400.521,271.871,401.504,262.644,402.549z M316.112,105.134
		c-0.971-5.583-1.779-10.507-4.423-14.958c-1.35-2.272-2.611-4.594-5.327-5.408c-3.44-1.03-6.927-1.906-10.952-3
		c-1.063,5.1-2.157,9.908-2.97,14.764c-0.101,0.601,1.151,1.844,1.993,2.117c3.777,1.229,7.645,2.176,11.46,3.299
		C309.142,102.903,312.362,103.959,316.112,105.134z M116.276,213.455c-2.516-0.564-4.892-1.064-7.249-1.634
		c-3.716-0.897-4.104-0.962-4.854,2.755c-1.339,6.639-2.338,13.356-3.238,20.073c-0.549,4.093,1.383,7.135,5.04,8.86
		c2.525,1.192,4.953-0.105,5.277-2.807c0.505-4.218,0.813-8.474,1.592-12.64C113.741,223.269,115.059,218.555,116.276,213.455z
		 M387.593,283.129c3.036,0.86,5.776,1.762,8.583,2.337c0.645,0.133,1.96-0.691,2.221-1.364c3.074-7.905,3.932-16.287,5.035-24.61
		c0.085-0.638,0.031-1.575-0.362-1.953c-1.613-1.552-3.244-3.161-5.124-4.34c-3.068-1.922-5.398-0.361-5.561,3.288
		c-0.135,3.059-0.362,6.145-0.941,9.142C390.334,271.375,388.944,277.068,387.593,283.129z M96.664,234.174
		c1.573-8.446,3.051-16.382,4.563-24.505c-4.833-1.375-10.096-2.873-15.604-4.439c-1.047,4.564-1.954,8.987-3.116,13.34
		c-0.446,1.672-0.064,2.761,1.12,3.838c2.545,2.315,5.026,4.701,7.573,7.015C92.948,231.011,94.763,232.526,96.664,234.174z
		 M373.675,173.004c0.445-1.508,0.813-2.986,1.315-4.417c1.116-3.179,1.081-6.137-1.09-8.951
		c-3.467-4.491-6.737-9.137-10.275-13.569c-1.434-1.795-3.352-3.204-4.367-4.153c-3.007,2.461-5.769,4.722-7.864,6.437
		c5.731,7.503,11.215,14.397,16.333,21.551C369.311,172.113,370.99,173.011,373.675,173.004z M116.555,282.766
		c-0.088-0.672-0.096-1.21-0.233-1.71c-1.049-3.817-2.386-7.577-3.123-11.452c-0.892-4.691-1.159-9.499-1.983-14.206
		c-0.201-1.145-1.334-2.42-2.39-3.037c-1.024-0.601-7.691,4.456-7.885,5.733c-0.052,0.344,0.081,0.714,0.103,1.073
		c0.071,1.175,0.034,2.362,0.211,3.52c1.179,7.7,2.403,15.39,3.625,23.159C109.172,284.713,112.816,283.752,116.555,282.766z
		 M400.157,206.828c5.604-1.438,10.597-2.719,15.655-4.019c-1.156-4.55-2.094-8.498-3.204-12.396
		c-0.233-0.819-0.961-1.745-1.712-2.125c-2.491-1.259-5.054-2.406-7.667-3.38c-3.657-1.363-7.388-2.532-11.084-3.784
		c-0.174,0.287-0.348,0.574-0.521,0.861C394.998,189.92,399.921,197.297,400.157,206.828z M402.581,287.229
		c4.454,1.093,8.962,2.202,13.569,3.335c0.899-2.862,1.319-5.334,2.414-7.457c2.563-4.976,2.159-9.141-2.086-13.063
		c-3.321-3.069-6.259-6.549-9.279-9.754C405.647,269.351,404.149,278.09,402.581,287.229z M102.126,206.885
		c2.99-8.108,5.899-15.996,8.965-24.309c-6.817,1.44-13.164,3.017-18.841,6.573c-0.43,0.27-0.82,0.755-1.011,1.229
		c-1.245,3.097-2.378,6.24-3.651,9.326c-0.917,2.223,0.124,3.182,2.094,3.723C93.758,204.547,97.828,205.689,102.126,206.885z
		 M397.519,208.14c-0.204-0.855-0.253-1.3-0.413-1.701c-3.167-7.976-6.276-15.977-9.611-23.882
		c-0.428-1.012-1.951-1.816-3.136-2.194c-1.7-0.544-3.545-0.677-5.342-0.861c-2.864-0.292-3.465,0.486-2.436,3.211
		c3.292,8.701,6.603,17.394,10.003,26.052c0.228,0.584,1.319,1.288,1.895,1.199C391.41,209.51,394.302,208.814,397.519,208.14z
		 M402.435,209.45c1.831,8.306,3.62,16.422,5.477,24.845c4.086-4.324,8.192-8.634,12.232-13.006c0.43-0.465,0.775-1.369,0.637-1.945
		c-1.143-4.798-2.409-9.567-3.671-14.47C411.853,206.513,407.126,207.988,402.435,209.45z M398.526,210.958
		c-2.129,0.416-4.064,0.771-5.989,1.179c-1.4,0.297-3.248,0.259-4.016,1.138c-0.541,0.621,0.334,2.546,0.681,3.862
		c2.245,8.56,3.657,17.238,3.768,26.097c2.851,0.418,9.463-3.788,10.113-6.419c0.085-0.345,0.071-0.718,0.083-1.078
		C403.445,227.205,401.191,219.167,398.526,210.958z M330.365,229.577c-2.914,0.531-5.614,1.022-7.988,1.455
		c0.506,4.571,0.888,8.694,1.48,12.79c0.111,0.771,1.017,1.976,1.635,2.029c2.655,0.227,5.34,0.096,8.214,0.096
		c0.206-13.477-4.675-25.543-10.41-37.361c-2.256,1.426-4.167,2.792-6.225,3.884c-1.524,0.809-1.528,1.704-0.888,3.061
		c1.039,2.201,2,4.44,2.922,6.693c0.747,1.822,0.897,4.583,2.204,5.295c1.465,0.798,3.949-0.129,5.954-0.505
		C329.354,226.62,330.355,227.319,330.365,229.577z M239.508,93.861c-0.55-0.803-0.743-1.207-1.041-1.504
		c-4.654-4.645-9.307-9.289-14.007-13.887c-0.397-0.389-1.187-0.731-1.676-0.611c-3.562,0.868-7.093,1.861-11.103,2.94
		c1.476,5.308,2.826,10.347,4.346,15.334c0.141,0.462,1.41,0.922,2.075,0.826c3.663-0.527,7.291-1.3,10.952-1.845
		C232.403,94.616,235.779,94.301,239.508,93.861z M170.15,249.289c0.032,13.562,3.742,25.786,9.77,37.553
		c2.931-1.33,5.748-2.609,8.233-3.738c-1.826-4.653-3.507-8.722-5.006-12.857c-0.668-1.845-1.714-2.408-3.487-1.777
		c-1.274,0.455-2.504,1.17-3.811,1.351c-0.774,0.106-1.661-0.602-2.497-0.941c0.431-0.856,0.651-2.046,1.345-2.483
		c0.931-0.587,2.218-0.726,3.371-0.82c3.076-0.247,3.296-0.68,2.761-3.833c-0.555-3.271-0.802-6.597-1.141-9.903
		c-0.087-0.846-0.014-1.707-0.014-2.549C176.362,249.289,173.474,249.289,170.15,249.289z M289.094,97.316
		c1.06-5.32,2.105-10.576,3.159-15.88c-3.661-0.945-7.141-1.903-10.657-2.696c-0.643-0.145-1.639,0.163-2.129,0.625
		c-4.541,4.296-9.015,8.664-13.486,13.034c-0.399,0.39-0.645,0.938-0.878,1.285C273.097,94.894,280.938,96.082,289.094,97.316z
		 M424.626,321.145c0.603-0.636,0.965-0.85,1.071-1.156c2.422-6.89,4.833-13.785,7.201-20.694c0.602-1.755-0.78-2.255-2.006-2.571
		c-3.063-0.793-6.178-1.39-9.234-2.2c-1.554-0.411-2.079,0.286-2.538,1.573c-1.024,2.889-2.378,5.676-3.181,8.619
		c-0.522,1.912-1.165,4.604-0.262,5.935C418.223,314.399,421.538,317.624,424.626,321.145z M365.078,94.385
		c-0.283,0.167-0.563,0.335-0.847,0.502c-0.324,5.49-0.682,10.978-0.921,16.472c-0.025,0.596,0.516,1.345,0.998,1.813
		c2.53,2.461,5.191,4.79,7.671,7.299c1.197,1.212,2.129,1.14,3.16-0.012c2.632-2.938,5.245-5.891,7.924-8.902
		C377.146,105.25,371.872,98.993,365.078,94.385z M386.033,382.66c5.979-5.65,11.441-12.046,16.042-19.324
		c-4.371-0.698-8.162-1.482-11.992-1.815c-1.376-0.118-3.266,0.449-4.194,1.408c-3.262,3.37-6.208,7.048-9.545,10.922
		C378.831,376.112,382.291,379.258,386.033,382.66z M120.004,110.666c3.44,3.457,6.358,6.509,9.45,9.372
		c0.48,0.444,2.018,0.382,2.622-0.058c2.042-1.486,3.914-3.214,5.796-4.912c2.739-2.471,4.834-5.134,3.155-9.213
		c-0.499-1.212-0.388-2.673-0.572-4.017c-0.277-2.023-0.569-4.043-0.982-6.977C132.751,100.318,126.628,105.289,120.004,110.666z
		 M101.458,133.774c4.864,0.596,8.784,1.204,12.727,1.469c0.963,0.064,2.152-0.825,2.979-1.564c2.695-2.413,5.261-4.97,7.897-7.449
		c0.95-0.894,1.961-1.725,2.717-2.386c-3.071-3.701-5.93-7.146-9.058-10.915C112.666,119.197,106.442,125.458,101.458,133.774z
		 M402.5,134.717c-4.026-8.522-10.853-14.4-16.685-21.03c-3.275,3.505-6.384,6.832-9.547,10.214
		c3.944,3.699,7.748,7.307,11.62,10.84c0.461,0.42,1.303,0.621,1.957,0.597C393.915,135.19,397.981,134.95,402.5,134.717z
		 M364.552,325.16c-0.255-0.342-0.51-0.685-0.765-1.026c-0.851,0-1.706-0.065-2.549,0.012c-2.779,0.249-5.549,0.664-8.334,0.803
		c-3.896,0.194-7.789,0.133-9.879,4.421c-0.454,0.931-1.461,1.585-2.162,2.411c-0.959,1.127-1.869,2.296-2.586,3.181
		c3.015,2.766,5.883,5.103,8.38,7.787c1.662,1.789,2.726,1.542,4.124-0.077c1.828-2.117,3.884-4.05,5.59-6.259
		C359.204,332.743,361.836,328.918,364.552,325.16z M166.741,336.029c-2.884-2.543-4.975-4.401-7.083-6.239
		c-2.743-2.395-5.271-4.745-9.545-4.442c-3.844,0.272-7.771-0.612-12.593-1.077c6.321,7.775,12.166,14.963,18.14,22.309
		C159.31,342.557,160.533,337.045,166.741,336.029z M373.181,374.928c-3.714,3.393-7.272,6.581-10.732,9.875
		c-0.488,0.465-0.728,1.457-0.672,2.171c0.158,1.969,0.488,3.93,0.836,5.879c0.399,2.244,0.892,4.474,1.401,7.002
		c7.687-3.675,13.073-9.25,19.024-14.405C379.697,381.883,376.565,378.54,373.181,374.928z M387.757,257.902
		c-5,2.9-9.839,5.66-14.613,8.524c-0.781,0.469-1.704,1.328-1.839,2.129c-0.442,2.657-0.543,5.371-0.797,8.062
		c-0.142,1.509,0.396,2.242,2.003,2.592c3.855,0.838,7.656,1.93,11.547,2.936C385.831,279.153,388.913,260.018,387.757,257.902z
		 M192.77,370.863c7.373,4.529,14.321,6.922,21.701,7.997c0.514,0.075,1.45-0.625,1.693-1.183c1.269-2.896,2.328-5.885,3.564-8.797
		c0.543-1.281,0.313-1.934-0.992-2.513c-3.128-1.388-6.151-3.015-9.306-4.331c-0.74-0.309-1.991-0.024-2.742,0.429
		c-3.874,2.335-7.652,4.827-11.486,7.228C194.444,370.168,193.583,370.479,192.77,370.863z M114.856,240.115
		c0.478,0.138,0.712,0.283,0.799,0.22c5.21-3.728,10.426-7.447,15.582-11.248c0.563-0.415,1.017-1.274,1.111-1.981
		c0.4-3.032,0.646-6.083,0.929-8.92c-4.112-1.168-8.015-2.214-11.874-3.403c-1.568-0.483-1.926,0.322-2.183,1.52
		c-0.887,4.134-1.881,8.248-2.648,12.404C115.873,232.5,115.414,236.339,114.856,240.115z M69.16,298.379
		c3.117,7.528,6.243,15.076,9.599,23.181c3.019-4.009,5.575-7.28,7.958-10.673c0.481-0.684,0.599-1.901,0.384-2.748
		c-0.974-3.839-2.172-7.621-3.197-11.446c-0.698-2.607-1.417-2.984-4.032-2.036C76.578,295.853,73.253,296.962,69.16,298.379z
		 M311.292,124.483c-1.087-0.092-1.456-0.049-1.769-0.162c-6.467-2.319-12.913-4.693-19.405-6.939
		c-0.764-0.264-2.402-0.097-2.557,0.295c-1.575,4-2.928,8.089-4.27,11.946c3.789,1.875,7.073,3.557,10.424,5.097
		c0.486,0.224,1.382-0.059,1.922-0.386c3.248-1.971,6.448-4.022,9.663-6.051C307.111,127.141,308.914,125.991,311.292,124.483z
		 M64.437,271.75c0.312,2.491,0.51,4.804,0.906,7.081c0.806,4.632,1.63,9.267,2.672,13.849c0.189,0.832,1.634,2.139,2.202,2.003
		c4.024-0.975,7.97-2.27,12.062-3.499c0-0.469,0.077-0.926-0.012-1.347c-0.895-4.217-1.795-8.434-2.763-12.635
		c-0.102-0.442-0.571-1.004-0.988-1.137C73.981,274.629,69.423,273.265,64.437,271.75z M83.797,201.792
		c1.383-5.097,2.653-9.678,3.839-14.28c0.137-0.529,0.005-1.355-0.34-1.744c-2.894-3.262-5.868-6.452-9.259-10.146
		c-2.856,7.417-5.619,14.587-8.668,22.502C74.341,199.388,78.731,200.505,83.797,201.792z M139.484,172.338
		c5.396-0.456,10.133-0.929,14.882-1.23c3.146-0.2,5.473-1.468,7.051-4.248c0.52-0.917,1.43-1.625,2.211-2.378
		c1.743-1.677,2.013-3.224,0.046-5.033c-2.255-2.075-4.327-4.349-6.458-6.557c-1.317-1.363-2.429-0.84-3.406,0.374
		c-2.719,3.38-5.462,6.744-8.079,10.203C143.694,166.165,141.83,168.994,139.484,172.338z M384.673,213.997
		c-4.954,1.41-9.485,2.7-13.658,3.888c0.336,3.184,0.587,6.109,0.998,9.009c0.083,0.586,0.691,1.196,1.208,1.606
		c3.871,3.077,7.773,6.117,11.686,9.146c1.104,0.856,2.271,1.634,3.812,2.736C388.994,231.071,386.885,222.744,384.673,213.997z
		 M216.266,116.199c-7.731,2.942-15.364,5.847-23.009,8.755c5.01,3.073,9.662,5.994,14.405,8.758
		c0.696,0.405,1.903,0.291,2.746,0.02c2.836-0.913,5.557-2.23,8.433-2.957c2.257-0.57,2.505-1.736,1.828-3.506
		C219.324,123.757,217.894,120.277,216.266,116.199z M425.792,175.497c-0.332,0.076-0.664,0.153-0.996,0.23
		c-1.345,2.034-2.707,4.056-4.029,6.104c-5.815,8.994-5.719,5.543-2.329,15.628c0.145,0.427,0.248,0.876,0.307,1.324
		c0.27,2.084,1.53,2.321,3.327,1.994c3.377-0.614,6.783-1.069,10.171-1.63c0.571-0.094,1.111-0.382,2.032-0.713
		C431.395,190.645,428.594,183.07,425.792,175.497z M287.851,379.692c7.77-2.611,15.351-5.157,22.932-7.704
		c-5.157-3.729-10.13-6.678-15.125-9.582c-0.508-0.294-1.285-0.622-1.735-0.438c-3.4,1.372-6.749,2.868-10.227,4.377
		C285.004,370.545,286.285,374.659,287.851,379.692z M133.861,278.163c-0.684-3.287-1.245-6.286-1.966-9.246
		c-0.194-0.798-0.705-1.735-1.361-2.17c-4.292-2.835-8.649-5.575-13.029-8.275c-0.533-0.328-1.564-0.542-1.936-0.253
		c-0.401,0.311-0.487,1.305-0.38,1.943c0.389,2.311,0.91,4.6,1.395,6.896c0.999,4.727,2.007,9.453,3.081,14.5
		C124.433,280.417,128.961,279.334,133.861,278.163z M374.408,187.323c-0.315,0.08-0.63,0.16-0.944,0.24
		c-0.35,0.727-0.789,1.425-1.036,2.186c-0.498,1.532-0.763,3.152-1.374,4.633c-0.413,1.003-1.093,2.035-1.936,2.697
		c-1.583,1.245-3.25,4.705-2.66,6.468c1.195,3.566,2.5,7.096,3.886,11c3.655-0.752,7.513-1.582,11.388-2.323
		c1.417-0.271,1.813-0.926,1.357-2.271c-0.545-1.625-0.899-3.32-1.525-4.909C379.221,199.121,376.799,193.228,374.408,187.323z
		 M103.349,363.44c0.047,0.698-0.037,1.042,0.098,1.206c4.458,5.458,8.915,10.92,13.469,16.298c0.301,0.355,1.598,0.348,2.06,0.008
		c2.756-2.04,5.406-4.223,8.085-6.366c1.375-1.099,1.365-2.024-0.053-3.246c-2.88-2.48-5.577-5.173-8.399-7.724
		c-0.571-0.516-1.384-1.139-2.057-1.104C112.163,362.727,107.782,363.108,103.349,363.44z M363.852,171.479
		c0.169-0.194,0.339-0.389,0.509-0.583c-1.602-2.007-3.195-4.021-4.804-6.022c-3.114-3.872-6.226-7.744-9.357-11.6
		c-1.189-1.464-2.285-1.366-3.552,0.08c-1.841,2.097-3.812,4.091-5.834,6.015c-0.692,0.659-1.712,0.975-2.584,1.447
		c1.983,2.427,3.043,4.113,4.298,5.635c2.032,2.463,3.952,5.239,7.922,4.085c0.652-0.189,1.433,0.079,2.156,0.131
		C356.354,170.938,360.104,171.208,363.852,171.479z M180.466,424.72c7.432,2.296,14.039,4.363,20.677,6.326
		c0.468,0.139,1.525-0.352,1.697-0.788c1.317-3.363,2.551-6.764,3.63-10.209c0.173-0.552-0.414-1.874-0.891-2.015
		c-4.376-1.273-8.8-2.386-13.227-3.474c-0.433-0.106-1.112,0.137-1.46,0.455C187.631,417.995,184.417,421.027,180.466,424.72z
		 M119.958,384.888c6.254,5.077,12.302,9.985,18.981,15.404c0.757-5.363,1.416-9.804,1.974-14.256
		c0.066-0.523-0.277-1.267-0.676-1.656c-3.042-2.966-6.146-5.869-9.262-8.821C127.445,378.55,123.929,381.527,119.958,384.888z
		 M129.585,188.748c-2.309,4.958-4.483,9.372-6.417,13.89c-0.912,2.132-1.368,4.462-2.018,6.706
		c-0.454,1.563-0.034,2.631,1.684,3.02c3.644,0.825,7.28,1.682,10.503,2.429c1.608-3.728,3.028-6.92,4.341-10.156
		c0.24-0.592,0.304-1.509,0.01-2.027C135.171,198.171,132.553,193.791,129.585,188.748z M260.838,382.604
		c0.204,0.32,0.405,0.643,0.607,0.963c7.751-0.913,15.503-1.829,23.804-2.808c-1.631-5.331-3.007-9.829-4.365-14.271
		c-10.294,1.516-10.294,1.516-15.974,9.556c-0.104,0.148-0.221,0.289-0.315,0.441C263.341,378.524,262.092,380.564,260.838,382.604z
		 M207.181,78.554c1.155-4.446-1.392-8.066-2.537-11.999c-0.501-1.725-1.303-2.037-2.974-1.409
		c-4.991,1.874-10.049,3.566-15.055,5.401c-0.883,0.324-1.639,0.99-2.454,1.499c0.565,0.867,1.001,1.865,1.719,2.577
		c2.296,2.276,4.651,4.498,7.092,6.616c0.53,0.46,1.587,0.699,2.275,0.529C199.193,80.796,203.101,79.671,207.181,78.554z
		 M322.655,71.886c-0.67-0.417-0.938-0.671-1.257-0.769c-6.129-1.896-12.251-3.817-18.419-5.571
		c-0.512-0.146-1.753,0.74-1.977,1.383c-1.013,2.896-1.605,5.943-2.69,8.805c-0.886,2.331-0.105,3.228,2.052,3.835
		c3.451,0.974,6.85,2.138,10.03,3.145C314.545,79.049,318.461,75.591,322.655,71.886z M298.726,63.934
		c-6.637-0.998-13.109-2.03-19.599-2.914c-1.938-0.263-3.064,0.772-2.268,2.775c1.465,3.682,3.104,7.295,4.725,10.913
		c0.156,0.348,0.662,0.678,1.058,0.756c3.366,0.662,6.731,1.355,10.127,1.805c0.677,0.09,1.93-0.662,2.155-1.295
		C296.219,72.329,297.282,68.603,298.726,63.934z M298.477,431.914c-1.262-4.271-2.331-7.712-3.278-11.188
		c-0.421-1.542-1.253-2.024-2.766-1.706c-3.266,0.69-6.551,1.287-9.805,2.022c-0.594,0.133-1.343,0.627-1.572,1.148
		c-1.939,4.448-3.773,8.941-5.944,14.153C283.134,434.824,290.585,433.41,298.477,431.914z M129.947,306.957
		c0.292,0.016,0.584,0.031,0.876,0.047c2.389-4.638,4.785-9.271,7.156-13.917c0.153-0.299,0.259-0.739,0.157-1.034
		c-1.237-3.532-2.517-7.052-3.894-10.873c-4.417,1.224-8.958,2.483-13.873,3.846C123.677,292.597,126.812,299.776,129.947,306.957z
		 M242.155,383.674c-0.21-1.174-0.165-1.674-0.38-2.007c-2.942-4.545-5.906-9.075-8.917-13.573
		c-0.262-0.391-0.896-0.737-1.366-0.747c-2.592-0.063-5.725-0.903-7.624,0.249c-1.815,1.102-2.424,4.284-3.426,6.609
		c-3.1,7.197-1.832,6.003,3.764,7C230.031,382.24,235.934,382.838,242.155,383.674z M177.252,134.355
		c-7.614,4.021-13.816,9.286-19.269,15.467c3.161,3.387,6.281,6.729,8.691,9.312c2.818-2.315,5.151-4.171,7.4-6.125
		c0.509-0.443,0.949-1.193,1.039-1.855C175.858,145.718,176.513,140.269,177.252,134.355z M176.089,361.406
		c0.27-1.127,0.446-1.467,0.413-1.783c-0.605-5.739-0.661-11.63-2.149-17.132c-0.584-2.16-4.375-3.472-6.753-5.099
		c-0.136-0.093-0.771,0.378-1.058,0.692c-2.948,3.236-5.872,6.496-9.332,10.333C163.771,352.932,169.764,357.055,176.089,361.406z
		 M327.815,134.48c-0.133,1.305-0.332,2.012-0.253,2.688c0.569,4.945,1.16,9.889,1.84,14.82c0.088,0.637,0.645,1.268,1.113,1.782
		c1.459,1.597,3.032,3.092,4.46,4.715c0.872,0.993,1.696,1.348,2.712,0.344c2.446-2.413,4.923-4.801,7.242-7.33
		c0.409-0.447,0.479-1.874,0.103-2.266c-3.256-3.385-6.536-6.768-10.053-9.878C332.938,137.549,330.45,136.244,327.815,134.48z
		 M321.665,424.675c-4.07-3.776-7.546-7.042-11.088-10.23c-0.376-0.338-1.2-0.438-1.727-0.301c-3.313,0.864-6.628,1.748-9.876,2.829
		c-0.646,0.214-1.542,1.443-1.405,1.967c0.909,3.485,2.01,6.926,3.198,10.327c0.189,0.546,1.259,1.289,1.702,1.163
		C308.687,428.652,314.866,426.74,321.665,424.675z M438.381,273.45c-4.736,1.724-8.87,3.207-12.98,4.757
		c-0.446,0.17-0.919,0.662-1.089,1.115c-1.449,3.837-2.829,7.697-4.348,11.875c4.786,1.023,8.898,1.986,13.054,2.694
		c0.567,0.097,1.795-0.977,1.965-1.69c1.011-4.209,1.839-8.463,2.64-12.72C437.966,277.646,438.096,275.77,438.381,273.45z
		 M232.026,128.664c1.892-5.896,8.746-8.925,10.655-15.588c-7.995,0.567-15.875-0.043-23.344,3.18
		c1.494,4.374,2.946,8.629,4.398,12.878C226.371,128.985,228.916,128.84,232.026,128.664z M69.367,201.735
		c-2.091,6.66-3.803,13.589-4.564,21.275c4.915-1.861,9.031-3.405,13.126-5.001c0.381-0.148,0.809-0.569,0.923-0.95
		c1.295-4.336,2.534-8.688,3.706-12.755C77.936,203.404,73.93,202.624,69.367,201.735z M326.094,361.687
		c7.892-3.847,13.747-9.123,19.435-14.848c-3.074-3.258-6.097-6.459-9.258-9.808c-1.934,1.633-3.447,3.513-5.411,4.393
		c-1.755,0.787-1.855,1.729-1.977,3.254c-0.224,2.86-0.633,5.711-1.097,8.544C327.351,355.863,326.744,358.477,326.094,361.687z
		 M437.59,221.957c0.056-0.255,0.231-0.599,0.188-0.914c-0.821-6.084-1.619-12.171-2.602-18.23
		c-0.081-0.507-1.499-1.239-2.181-1.133c-3.385,0.526-6.729,1.313-10.093,1.977c-1.601,0.316-2.37,0.977-1.799,2.795
		c1.05,3.345,1.906,6.75,2.91,10.11c0.127,0.428,0.585,0.926,1.002,1.073C429.158,219.102,433.326,220.502,437.59,221.957z
		 M233.621,165.838c4.174-0.481,8.19-1.041,12.227-1.386c4.78-0.41,4.82-0.33,4.898-5.108c0.056-3.392,0.011-6.787,0.011-10.256
		c-2.092,0-3.714-0.005-5.337,0c-6.175,0.018-8.966,2.347-10.094,8.355C234.808,160.194,234.213,162.929,233.621,165.838z
		 M227.717,435.471c-1.201-2.837-2.256-4.652-2.745-6.609c-1.436-5.75-4.546-9.347-10.865-9.332
		c-0.44,0.002-0.895-0.146-1.317-0.297c-1.876-0.666-2.84,0.114-3.454,1.896c-0.969,2.813-2.113,5.565-3.156,8.353
		c-0.268,0.716-0.433,1.467-0.853,2.922C212.817,433.429,219.895,434.399,227.717,435.471z M227.295,59.977
		c-6.227,1.134-12.17,2.158-18.069,3.388c-0.56,0.116-1.291,1.58-1.186,2.309c0.307,2.131,0.99,4.209,1.54,6.304
		c1.469,5.601,1.476,5.619,7.241,4.363c1.663-0.362,4.195-0.356,4.785-1.396c2.336-4.118,4.076-8.577,5.984-12.933
		C227.739,61.674,227.482,61.16,227.295,59.977z M281.339,129.403c1.16-4.347,2.258-8.46,3.463-12.986
		c-8.046-1.252-15.534-2.417-23.024-3.583c-0.135,0.301-0.267,0.604-0.401,0.905c1.619,2.359,3.489,4.587,4.8,7.107
		c2.76,5.308,6.7,8.442,12.913,8.173C279.7,128.992,280.32,129.22,281.339,129.403z M233.993,330.729
		c1.17,4.707,1.958,8.918,3.333,12.925c0.599,1.746,1.309,4.203,3.949,4.3c2.979,0.107,5.965,0.024,8.919,0.024
		c0-5.231,0-10.396,0-15.746C244.938,331.745,239.934,331.28,233.993,330.729z M147.712,258.221
		c0.353-7.651,0.679-14.716,1.026-22.216c-7.326,2.818-12.689,7.32-17.97,12.207c1.001,0.652,1.682,1.077,2.342,1.528
		c3.995,2.732,7.939,5.543,12.016,8.148C145.952,258.416,147.269,258.175,147.712,258.221z M193.051,353.513
		c6.135-3.354,12.312-6.081,17.205-11.44c-8.132-1.343-13.699-6.612-20.037-11.66C189.752,338.587,189.786,346.042,193.051,353.513z
		 M270.207,330.794c-5.793,0.429-10.638,0.71-15.458,1.235c-0.654,0.071-1.629,1.353-1.673,2.117
		c-0.165,2.881-0.003,5.781,0.032,8.675c0.061,5.215,0.065,4.907,5.344,4.998c3.891,0.065,6.13-1.082,7.261-4.937
		C266.87,338.945,268.558,335.163,270.207,330.794z M347.183,290.258c-4.605,6.257-9.021,12.251-13.965,18.969
		c7.791-0.214,15.005,2.17,22.422-0.839C352.667,302.011,349.828,295.93,347.183,290.258z M373.624,306.444
		c2.969-7.021,5.659-13.292,8.226-19.612c0.237-0.585-0.166-2.052-0.554-2.169c-3.748-1.129-7.558-2.056-11.183-2.999
		c-1.238,3.205-2.448,6.109-3.454,9.082c-0.316,0.934-0.444,2.242-0.025,3.055C368.691,297.796,370.961,301.685,373.624,306.444z
		 M332.858,222.224c2.827-2.967,5.413-5.456,7.733-8.172c3.521-4.125,2.36-11.556-1.963-14.83c-1.522,1.065-2.924,2.156-4.431,3.071
		c-2.311,1.403-4.73,2.626-7.02,4.061c-0.529,0.332-1.172,1.411-0.996,1.8C328.244,212.719,330.452,217.217,332.858,222.224z
		 M253.381,163.989c5.766,0.643,11.099,1.238,17.203,1.918c-1.361-4.021-2.409-7.612-3.815-11.058
		c-0.767-1.885-2.081-3.565-3.283-5.242c-0.318-0.441-1.164-0.789-1.718-0.73c-2.802,0.302-5.587,0.752-8.387,1.151
		C253.381,154.416,253.381,159.196,253.381,163.989z M177.215,207.271c-4.037-2.912-8.018-5.783-11.986-8.646
		c-1.808,2.479-3.699,5.005-5.494,7.597c-0.343,0.494-0.647,1.531-0.39,1.845c3.771,4.606,7.64,9.132,11.545,13.748
		C173.203,216.494,175.248,211.792,177.215,207.271z M310.956,353.374c3.221-7.858,2.414-15.574,2.804-23.313
		c-6.365,4.836-11.707,10.588-19.68,12.318c-0.022,0.247-0.044,0.492-0.065,0.739C299.546,346.467,305.077,349.815,310.956,353.374z
		 M313.633,164.725c-0.267-7.214,1.333-14.521-2.737-21.556c-5.313,3.833-11.915,5.048-16.213,9.908
		C300.961,156.935,307.15,160.741,313.633,164.725z M293.837,321.922c-1.993,0.925-3.715,1.905-5.556,2.542
		c-3.521,1.214-6.209,2.817-4.715,7.239c0.083,0.243,0.06,0.554-0.008,0.807c-0.684,2.588,0.932,3.78,2.687,5.294
		c3.254,2.808,6.245,3.14,9.618,0.396c0.964-0.784,2.15-1.342,3.309-1.83c1.53-0.645,1.795-1.491,0.98-2.934
		C298.031,329.677,295.995,325.872,293.837,321.922z M338.911,296.312c1.451-2.034,2.946-4.296,4.616-6.417
		c1.155-1.465,1.115-2.663-0.077-4.045c-2.123-2.463-4.127-5.027-6.253-7.49c-1.313-1.521-2.756-2.93-4.634-4.909
		c-1.795,4.693-3.343,8.712-4.863,12.743c-0.636,1.688-0.11,2.804,1.501,3.771C332.424,291.896,335.506,294.065,338.911,296.312z
		 M148.856,308.256c7.066,1.929,13.69,2.837,20.147,0.921c-4.063-6.301-7.995-12.397-11.969-18.559
		C152.981,295.659,151.075,301.843,148.856,308.256z M171.15,273.846c-2.384,2.301-4.415,4.053-6.203,6.023
		c-6.121,6.747-6.046,5.288-2.176,13.351c0.312,0.648,0.588,1.314,0.876,1.975c0.611,1.396,1.374,1.635,2.706,0.676
		c3.498-2.517,7.086-4.908,10.752-7.429c-1.041-2.221-2.196-4.456-3.147-6.775C172.984,279.292,172.212,276.835,171.15,273.846z
		 M356.11,258.821c4.001-2.368,8.147-4.4,11.807-7.095c4.43-3.262,4.24-3.899-0.129-7.292c-0.5-0.387-0.947-0.858-1.482-1.18
		c-4.027-2.42-8.068-4.813-12.129-7.227C354.827,243.694,355.438,250.904,356.11,258.821z M262.479,145.78
		c-3.236-5.878-6.366-11.558-9.599-17.427c-6.428,4.823-9.169,11.115-11.927,17.427C248.071,145.78,254.853,145.78,262.479,145.78z
		 M334.428,186.474c2.541,3.862,4.658,6.894,6.575,10.046c1.858,3.055,3.513,6.234,5.255,9.359c0.332-0.069,0.662-0.137,0.992-0.205
		c2.841-5.939,5.68-11.88,8.71-18.217C348.57,187.12,341.871,186.813,334.428,186.474z M336.219,263.289
		c0.843,0.087,1.862-0.073,2.596,0.313c3.464,1.814,6.384,0.484,9.232-1.386c0.884-0.579,2.135-1.164,2.406-2.007
		c0.973-3.042,1.599-6.195,2.397-9.476c-5.163-2.579-10.476-0.647-15.58-1.585c-0.154,2.49-0.271,4.721-0.437,6.947
		C336.658,258.424,336.437,260.749,336.219,263.289z M305.652,181.08c2.432-1.561,4.45-2.879,6.49-4.16
		c1.706-1.069,2.233-6.957,0.608-8.268c-2.595-2.092-5.304-4.048-7.967-6.06c-1.297-0.979-2.247-0.799-2.986,0.74
		c-1.598,3.331-3.348,6.591-4.848,9.964c-0.274,0.617,0.065,2.01,0.593,2.396C300.233,177.652,303.078,179.399,305.652,181.08z
		 M188.765,191.069c-4.864-1.12-9.219-2.171-13.603-3.081c-0.687-0.142-1.753,0.125-2.229,0.61
		c-2.618,2.675-5.242,5.387-6.126,8.703c1.379,0.603,2.609,1.026,3.725,1.653c2.435,1.367,4.75,2.964,7.25,4.189
		c0.793,0.388,2.553,0.289,2.958-0.26C183.408,199.267,185.826,195.467,188.765,191.069z M200.562,160.505
		c-3.324,2.924-6.407,5.409-9.202,8.185c-1.493,1.482-0.954,7.054,0.425,7.994c6.567,4.474,6.567,4.474,13.297-0.14
		c0.373-0.256,0.905-0.422,1.092-0.773c0.328-0.618,0.811-1.51,0.591-2.004C204.905,169.577,202.9,165.45,200.562,160.505z
		 M198.516,315.291c-2.446,1.252-4.569,2.325-6.682,3.424c-0.299,0.154-0.788,0.445-0.77,0.633c0.258,2.802-0.283,6.184,1.111,8.248
		c1.92,2.843,5.316,4.689,8.697,7.471c2.469-4.832,4.655-9.109,6.895-13.49C204.379,319.274,201.325,317.201,198.516,315.291z
		 M168.13,262.399c-0.657-4.703-1.238-8.861-1.781-12.736c-5.083,0-9.999,0-15.317,0c0.387,2.745,0.995,4.974,0.945,7.184
		c-0.079,3.476,2.009,4.626,4.766,5.589c1.393,0.486,2.587,1.54,4.191,2.534C162.295,263.175,164.566,261.518,168.13,262.399z
		 M314.966,305.029c4.343,1.194,8.484,2.388,12.664,3.426c0.737,0.184,1.967,0.006,2.403-0.496c1.884-2.171,3.647-4.466,5.241-6.859
		c0.34-0.513,0.083-1.987-0.413-2.396c-2.64-2.181-5.384-4.252-8.238-6.138c-0.565-0.374-2.188-0.109-2.615,0.425
		C321.038,296.721,318.255,300.597,314.966,305.029z M167.599,233.428c-1.48-0.335-3.152-0.32-4.329-1.076
		c-1.678-1.08-3.046-0.643-4.526,0.018c-1.568,0.701-3.118,1.45-4.633,2.257c-0.522,0.278-1.256,0.747-1.317,1.206
		c-0.393,2.937-0.633,5.895-0.909,8.847c-0.142,1.527,0.508,2.022,2.081,1.972c3.528-0.113,7.064,0.019,10.597,0.005
		c0.845-0.003,1.689-0.186,1.938-0.216C166.897,241.728,167.258,237.467,167.599,233.428z M324.498,204.166
		c4.267-2.435,8.376-4.78,12.599-7.189c-0.516-0.874-0.942-1.649-1.415-2.395c-4.664-7.365-4.899-7.475-13.465-5.214
		c-2.098,0.554-4.14,1.316-6.373,2.035C318.925,195.947,321.647,199.96,324.498,204.166z M148.897,187.187
		c-0.214,0.392-0.426,0.785-0.639,1.178c2.914,5.329,5.828,10.657,8.878,16.234c4.149-5.947,8.086-11.588,12.15-17.412
		C162.223,187.187,155.56,187.187,148.897,187.187z M305.129,314.829c0.093-0.249,0.184-0.499,0.276-0.748
		c-1.071,0.805-2.115,1.646-3.217,2.406c-5.351,3.699-5.369,3.699-2.625,9.53c1.243,2.644,2.555,5.257,4.149,8.524
		c2.976-2.706,5.359-5.142,8.021-7.224c2.576-2.016,1.771-4.64,1.773-7.145c0-0.361-0.556-0.83-0.961-1.069
		C310.091,317.649,307.605,316.248,305.129,314.829z M208.334,152.794c-5.005-3.185-9.238-8.2-16.133-8.934
		c-2.051,6.627-2.278,13.308-1.524,19.694C196.593,159.95,202.398,156.412,208.334,152.794z M210.268,172.482
		c3.458-1.117,6.692-2.093,9.857-3.262c0.438-0.161,0.758-1.284,0.724-1.941c-0.065-1.244-0.87-2.593-0.574-3.683
		c0.621-2.285-0.424-3.304-2.151-4.283c-1.168-0.663-2.121-1.708-3.297-2.35c-0.9-0.493-2.107-1.053-2.986-0.829
		c-2.428,0.618-4.806,1.521-7.085,2.568c-0.55,0.253-1.127,1.752-0.868,2.252C205.945,164.932,208.202,168.806,210.268,172.482z
		 M178.255,291.098c-3.57,2.736-7.06,5.409-10.94,8.383c1.992,2.724,3.652,5.363,5.725,7.623c0.69,0.753,2.477,0.844,3.693,0.688
		c1.948-0.247,3.854-0.901,5.75-1.477c1.837-0.558,3.639-1.233,5.456-1.858C184.608,299.863,181.499,295.572,178.255,291.098z
		 M293.378,173.312c2.335-3.976,4.636-7.84,6.861-11.747c0.245-0.433,0.26-1.511,0.058-1.605c-2.916-1.374-5.873-2.664-8.864-3.871
		c-0.344-0.139-0.98,0.284-1.415,0.551c-2.144,1.313-4.265,2.662-6.176,3.862c0,2.938,0,5.853,0,8.642
		C287.088,170.563,290.217,171.931,293.378,173.312z M336.342,234.208c0.193,3.282,0.297,6.617,0.668,9.921
		c0.075,0.651,1.135,1.599,1.841,1.698c2.411,0.34,4.867,0.448,7.309,0.492c6.074,0.107,6.375-0.303,5.142-6.477
		c-0.125-0.62-0.178-1.289-0.459-1.834c-0.801-1.558-1.338-3.627-2.641-4.465c-2.358-1.514-5.057-3.179-8.005-0.483
		C339.316,233.863,337.684,233.839,336.342,234.208z M252.689,368.1c3.202-5.756,6.188-11.122,9.19-16.515
		c-0.844-0.437-0.992-0.581-1.141-0.581c-5.579,0.039-11.156,0.058-16.732,0.164c-1.543,0.027-2.156,1.024-1.461,2.4
		C245.09,358.609,247.366,363.852,252.689,368.1z M288.671,184.901c1.121-2.645,2.329-5.491,3.73-8.792
		c-6.599-2.139-12.855-4.167-19.415-6.294c-0.16,3.066-0.37,5.491-0.354,7.914c0.006,0.607,0.601,1.554,1.145,1.762
		C278.636,181.34,283.545,183.06,288.671,184.901z M204.077,336.796c2.971,0.943,5.951,2.804,8.69,2.499
		c2.687-0.297,5.145-2.773,7.654-4.371c0.203-0.131,0.054-0.858,0.021-1.305c-0.148-2.011-0.315-4.02-0.502-6.382
		c-2.792-0.935-6.094-2.044-9.685-3.246C208.25,328.147,206.226,332.342,204.077,336.796z M201.11,199.246
		c-3.353,4.833-6.236,8.989-9.107,13.129c3.819,1.964,7.062,3.632,10.485,5.393c2.415-2.99,4.781-5.921,7.36-9.115
		C207.055,205.646,204.349,202.732,201.11,199.246z M180.771,208.383c-3.449,5.969-6.292,11.937-7.572,18.121
		c3.194,0.647,5.938,1.203,8.646,1.751c1.347-3.067,2.561-6.068,3.964-8.976c2.614-5.416,2.656-5.387-2.416-8.862
		C182.588,209.865,181.847,209.221,180.771,208.383z M322.304,264.858c2.392,0.696,4.614,1.491,6.903,1.912
		c0.686,0.127,2.161-0.686,2.264-1.249c0.947-5.28,1.674-10.603,2.505-16.169c-3.689,0-6.801,0-10.072,0
		C323.367,254.543,322.846,259.604,322.304,264.858z M314.078,284.92c-3.024,4.035-6.235,8.313-9.47,12.629
		c1.627,1.884,3.333,3.954,5.182,5.891c0.28,0.295,1.53,0.222,1.801-0.112c3.347-4.118,6.635-8.285,9.794-12.547
		c0.274-0.372-0.239-1.858-0.785-2.213C318.532,287.224,316.298,286.132,314.078,284.92z M201.449,300.724
		c-2.4,1.909-4.753,3.784-7.566,6.023c5.3,4.128,10.093,7.86,15.022,11.699c1.597-3.078,2.95-5.684,4.425-8.526
		C209.269,306.777,205.088,303.541,201.449,300.724z M302.138,277.422c-3.022,3.319-5.969,6.556-9.102,9.997
		c3.428,2.14,7.184,3.813,8.152,8.41c4.606-3.667,7.728-7.702,9.345-12.575C307.57,281.196,304.79,279.265,302.138,277.422z
		 M231.561,181.811c-5.133,2.054-9.909,3.963-14.696,5.879c1.98,3.514,3.664,6.5,5.508,9.772c3.788-1.684,8.102-3.604,12.542-5.578
		C233.812,188.576,232.765,185.429,231.561,181.811z M322.171,205.971c-3.461-4.661-6.651-8.957-10.009-13.477
		c-2.048,3.307-2.652,3.583-4.616,2.584c-3.196,3.238-3.198,3.238-0.466,6.742c0.389,0.5,0.816,0.974,1.178,1.494
		c1.884,2.71,3.752,5.431,5.641,8.167C316.765,209.571,319.307,207.877,322.171,205.971z M302.697,200.158
		c-2.738,2.79-5.062,5.175-7.406,7.539c-0.992,1.001-1.093,1.891-0.083,3.017c1.922,2.143,3.647,4.465,5.629,6.547
		c0.521,0.55,1.943,0.956,2.503,0.638c2.56-1.459,4.962-3.2,7.739-5.051C308.283,208.616,305.631,204.599,302.697,200.158z
		 M232.603,178.398c0.67-0.083,1.345-0.152,2.015-0.251c2.853-0.42,5.702-0.866,8.556-1.272c2.238-0.319,5.378,0.182,6.483-1.095
		c1.243-1.437,0.662-4.458,0.849-6.792c0.034-0.433-0.053-0.875-0.095-1.488c-5.167-1.058-10.06,0.347-14.979,1.24
		c-0.35,0.063-0.743,0.709-0.853,1.149C233.897,172.63,233.292,175.392,232.603,178.398z M308.011,188.209
		c-3.362-2.672-8.102-6.438-13.083-10.396c-1.583,3.359-2.876,6.101-4.074,8.636c4.037,3.34,7.777,6.435,11.547,9.552
		C304.144,193.578,305.876,191.174,308.011,188.209z M266.348,303.78c-1.793,0.51-3.406,1.095-5.07,1.423
		c-7.562,1.488-7.565,1.463-8.348,9.136c-0.019,0.178-0.17,0.415-0.1,0.518c0.346,0.512,0.699,1.368,1.129,1.415
		c5.337,0.613,10.479-0.156,15.139-2.314C268.181,310.555,267.291,307.27,266.348,303.78z M288.507,310.854
		c-4.624,1.773-9.146,3.495-13.658,5.244c-1.511,0.587-1.378,1.248-0.272,2.333c0.703,0.689,1.217,1.845,1.305,2.833
		c0.11,1.289-0.289,2.619-0.484,4.063c5.925-0.615,10.999-3.126,15.951-5.878c0.431-0.24,0.558-1.751,0.269-2.435
		C290.709,314.872,289.535,312.844,288.507,310.854z M215.366,307.432c1.69-3.566,3.134-6.536,4.474-9.551
		c0.16-0.359-0.083-1.172-0.412-1.434c-2.797-2.224-5.657-4.368-8.503-6.541c-2.671,2.542-5.192,4.944-8.186,7.795
		C206.979,300.969,210.809,303.92,215.366,307.432z M323.579,287.067c1.7-4.286,3.325-8.177,4.788-12.128
		c1.518-4.101,0.923-4.923-3.35-6.436c-2.194-0.776-3.486-0.521-4.422,1.752c-1.504,3.657-3.264,7.21-4.772,10.867
		c-0.188,0.45,0.318,1.536,0.811,1.856C318.731,284.349,320.945,285.541,323.579,287.067z M269.256,177.896
		c0.224-2.361,0.534-4.676,0.603-6.998c0.021-0.646-0.597-1.832-1.041-1.893c-5.129-0.699-10.278-1.23-15.435-1.808
		c-0.269,3.092-0.578,5.426-0.603,7.763c-0.007,0.615,0.818,1.732,1.343,1.784C259.061,177.224,264.018,177.523,269.256,177.896z
		 M222.719,298.893c-1.421,2.852-2.91,5.611-4.129,8.485c-0.237,0.56,0.369,2.034,0.942,2.289c3.669,1.639,7.438,3.057,11.478,4.666
		c1.283-3.041,2.517-5.639,3.419-8.345c0.21-0.633-0.49-2.078-1.141-2.4C229.904,301.922,226.401,300.498,222.719,298.893z
		 M233.942,318.541c-0.32,2.764-0.686,5.056-0.774,7.358c-0.021,0.52,0.875,1.486,1.432,1.554c5.061,0.611,10.142,1.069,15.61,1.611
		c0-3.406,0-6.145,0-8.91C244.868,319.625,239.38,319.079,233.942,318.541z M193.708,261.33c0-3.553,0.007-6.776-0.002-10.002
		c-0.006-2.17-0.817-3.455-3.276-3.054c-1.965,0.319-3.975,0.415-5.905,0.866c-0.642,0.15-1.522,1.064-1.568,1.683
		c-0.35,4.669-0.499,9.349,2.029,13.494C188.063,263.264,191.121,262.216,193.708,261.33z M269.117,181.144
		c-5.171-0.488-10.064-0.996-14.969-1.334c-0.423-0.029-1.299,1.042-1.322,1.626c-0.088,2.342,0.006,4.701,0.207,7.038
		c0.042,0.495,0.77,1.261,1.264,1.334c3.574,0.526,7.164,1.005,10.766,1.245c0.681,0.045,1.851-0.914,2.082-1.635
		C267.907,187.018,268.347,184.515,269.117,181.144z M288.756,306.438c3.236-2.482,6.382-4.879,9.507-7.305
		c1.289-1,1.637-2.079,0.255-3.356c-2.293-2.117-4.529-4.294-6.771-6.427c-3.188,2.485-6.021,4.693-8.878,6.919
		C284.794,299.597,286.722,302.924,288.756,306.438z M234.113,315.159c5.74,0.597,10.925,1.139,16.375,1.706
		c0-3.808,0-7.094,0-10.17c-3.958-0.498-7.786-1.018-11.625-1.427c-0.584-0.063-1.629,0.239-1.768,0.623
		C236.067,308.738,235.215,311.647,234.113,315.159z M229.965,317.014c-4.446-1.557-9.14-3.199-14.302-5.006
		c-1.27,2.335-2.793,5.136-4.693,8.629c6.086,2.011,11.856,3.944,17.658,5.778c0.494,0.156,1.201-0.361,1.809-0.567
		c0.086-0.271,0.172-0.541,0.258-0.811c-3.684,0.745-3.941-1.552-3.418-3.605C227.702,319.763,229.116,318.346,229.965,317.014z
		 M230.883,178.449c-0.184-2.878-0.361-5.655-0.539-8.431c-0.249-0.036-0.497-0.071-0.745-0.107
		c-0.107,0.741-0.458,1.548-0.276,2.21c0.591,2.145,1.168,4.195-0.672,5.792c-0.37-0.018-0.739-0.036-1.108-0.054
		c-0.178-2.298-0.357-4.596-0.568-7.322c-5.049,1.829-10.313,3.736-15.798,5.724c1.635,3.198,3.014,5.897,4.367,8.542
		C220.776,182.637,225.915,180.508,230.883,178.449z M290.321,309.665c1.481,2.378,3.124,5.018,5.025,8.073
		c4.142-3.311,8.048-6.437,12.103-9.679c-1.542-2.596-2.726-4.853-4.213-6.894c-0.346-0.472-2.046-0.61-2.565-0.199
		C297.178,303.727,293.833,306.676,290.321,309.665z M250.675,189.395c-0.281-3.164-0.547-6.171-0.855-9.647
		c-5.219,0.354-10.174,0.689-15.637,1.059c1.182,4.033,2.147,7.331,3.073,10.49C241.987,190.626,246.233,190.024,250.675,189.395z
		 M200.646,295.698c2.941-2.681,5.366-4.821,7.686-7.071c0.401-0.39,0.716-1.519,0.47-1.822c-2.256-2.81-4.599-5.554-7.047-8.194
		c-0.329-0.356-1.611-0.326-2.072,0.025c-2.215,1.687-4.299,3.547-6.618,5.502C195.521,287.882,197.917,291.537,200.646,295.698z
		 M253.433,320.386c0,2.256,0,5.147,0,8.744c5.132-0.625,10.103-1.202,15.059-1.876c0.5-0.069,1.336-0.742,1.314-1.09
		c-0.185-2.813-0.536-5.616-0.818-8.251C263.792,318.739,258.956,319.508,253.433,320.386z M286.934,307.878
		c-2.541-3.115-4.46-5.622-6.577-7.951c-0.469-0.516-1.783-0.778-2.443-0.51c-2.507,1.02-4.948,2.229-7.313,3.551
		c-0.576,0.322-1.192,1.455-1.048,2.024c0.601,2.356,1.409,4.673,2.328,6.929c0.208,0.51,1.314,1.148,1.748,0.994
		C278,311.361,282.315,309.653,286.934,307.878z M300.27,197.733c-3.682-2.782-7.172-5.421-10.729-8.11
		c-2.134,3.39-4.043,6.426-6.121,9.727c3.086,2.481,6.222,5.001,9.393,7.55C295.219,203.941,297.543,201.083,300.27,197.733z
		 M184.25,230.644c-0.468,5.054-0.942,9.428-1.191,13.814c-0.03,0.524,1.133,1.55,1.798,1.599c2.155,0.159,4.351,0.107,6.496-0.155
		c0.703-0.086,1.715-0.963,1.87-1.644c0.664-2.903,1.11-5.861,1.509-8.815c0.074-0.545-0.298-1.554-0.694-1.693
		C191.018,232.688,187.94,231.789,184.25,230.644z M215.012,189.405c-3.974,2.714-7.903,5.396-11.278,7.7
		c2.557,2.979,4.623,5.491,6.813,7.89c0.923,1.012,1.8,0.93,2.891-0.254c1.634-1.777,3.706-3.146,5.445-4.839
		c0.51-0.497,0.953-1.713,0.695-2.243C218.287,195.018,216.755,192.495,215.012,189.405z M287.067,187.818
		c-4.697-1.696-8.971-3.354-13.344-4.683c-0.611-0.186-2.082,1.083-2.509,1.984c-0.72,1.515-0.765,3.337-1.382,4.917
		c-0.593,1.518-0.079,2.111,1.266,2.635c2.445,0.952,4.934,1.866,7.226,3.122c2.168,1.188,3.362,0.676,4.483-1.373
		C283.933,192.367,285.34,190.467,287.067,187.818z M172.693,229.023c-0.76,5.521-3.448,11.053-2.237,17.333
		c3.131-0.192,6.143-0.378,8.849-0.545c0.562-5.028,1.097-9.823,1.61-14.422C178.449,230.68,175.811,229.92,172.693,229.023z
		 M310.614,248.545c-0.502,3.893-1.016,7.443-1.372,11.012c-0.063,0.633,0.378,1.748,0.858,1.932
		c2.724,1.044,5.529,1.872,8.505,2.839c1.656-4.998,2.459-9.865,1.65-14.946C316.929,249.092,313.797,248.82,310.614,248.545z
		 M191.548,303.812c1.966-1.505,3.488-2.779,5.125-3.885c1.29-0.872,1.68-1.789,0.817-3.155c-2.104-3.329-4.137-6.703-6.338-9.967
		c-0.313-0.463-1.561-0.766-2.102-0.524c-2.522,1.121-4.948,2.459-7.731,3.885C184.789,294.795,188.163,299.296,191.548,303.812z
		 M318.427,267.065c-2.882-1.001-5.547-1.783-8.087-2.857c-1.584-0.668-2.022-0.004-2.588,1.256
		c-1.145,2.536-2.586,4.946-3.61,7.526c-0.315,0.794-0.02,2.441,0.592,2.892c2.228,1.643,4.707,2.945,7.442,4.591
		C314.302,275.916,316.271,271.689,318.427,267.065z M185.125,227.85c3.885,1.006,7.151,1.852,10.524,2.726
		c1.403-2.967,2.894-5.929,4.172-8.979c0.256-0.611-0.038-1.993-0.52-2.281c-2.514-1.507-5.171-2.776-8.166-4.328
		C189.042,219.47,187.124,223.575,185.125,227.85z M191.098,281.928c2.846-2.4,5.021-4.138,7.061-6.022
		c0.506-0.466,0.979-1.558,0.777-2.111c-1.22-3.353-2.64-6.632-4.051-10.08c-2.986,1.21-5.849,2.373-9.192,3.729
		C187.443,272.136,189.178,276.783,191.098,281.928z M319.239,231.364c-3.687,1.061-6.776,1.948-10.225,2.939
		c0.428,3.669,0.862,7.393,1.319,11.329c2.546,0.143,4.976,0.175,7.375,0.449c1.796,0.205,2.604-0.471,2.489-2.186
		C319.924,239.788,319.575,235.686,319.239,231.364z M312.482,214.84c-3.327,2.469-5.958,4.422-8.376,6.217
		c1.196,3.143,2.117,5.775,3.221,8.33c0.302,0.701,1.286,1.75,1.722,1.646c3.019-0.716,5.974-1.694,9.208-2.666
		C316.296,223.769,314.491,219.546,312.482,214.84z M136.13,226.589c4.032-2.688,8.022-5.351,12.003-8.004
		c-2.712-4.196-5.324-8.239-7.938-12.281c-0.272,0.107-0.546,0.213-0.819,0.319C137.653,213.248,134.749,219.669,136.13,226.589z
		 M291.931,136.797c-5.907-2.824-11.985-4.233-18.786-5.328c2.03,4.606,3.717,8.593,5.591,12.489
		c0.261,0.544,1.781,1.13,2.152,0.875C284.593,142.286,288.177,139.567,291.931,136.797z M364.301,206.536
		c-2.742,3.879-5.17,7.146-7.399,10.544c-0.939,1.432-0.639,2.866,1.095,3.729c2.105,1.048,4.205,2.104,6.271,3.225
		c1.355,0.734,2.648,1.587,4.557,2.743C367.898,219.5,367.055,213.041,364.301,206.536z M290.585,360.557
		c0.061-0.309,0.12-0.617,0.18-0.926c-3.891-2.841-7.781-5.682-12.016-8.771c-2.048,4.854-3.861,9.151-5.676,13.451
		c0.204,0.294,0.407,0.589,0.61,0.884C279.318,363.648,284.952,362.103,290.585,360.557z M223.629,351.199
		c-4.348,3.256-8.271,6.194-12.928,9.682c6.91,1.45,13.088,2.747,19.727,4.142C228.02,360.125,225.885,355.786,223.629,351.199z
		 M230.755,131.79c-6.659,1.345-12.591,2.544-18.522,3.743c-0.02,0.249-0.041,0.498-0.062,0.746
		c4.176,3.033,8.354,6.066,12.611,9.157C226.791,140.846,228.603,136.708,230.755,131.79z M369.023,269.872
		c-5.072,2.6-9.36,4.8-14.06,7.208c2.661,3.624,5.431,7.399,8.202,11.173c0.352-0.016,0.702-0.033,1.054-0.051
		C365.768,282.293,367.315,276.384,369.023,269.872z M135.097,269.819c1.611,6.269,3.125,12.163,4.867,18.938
		c2.992-4.506,5.585-8.408,8.352-12.573C143.968,274.091,139.753,272.061,135.097,269.819z M343.309,171.253
		c-4.612-4.773-8.914-9.227-13.218-13.679c-0.265,0.196-0.532,0.391-0.799,0.587c0,4.719,0,9.439,0,14.174
		C333.704,171.995,338.102,171.655,343.309,171.253z M174.502,337.049c0-3.843,0.094-7.51-0.082-11.161
		c-0.033-0.696-1.164-1.943-1.726-1.908c-3.743,0.228-7.467,0.735-11.198,1.154c-0.1,0.271-0.199,0.544-0.299,0.817
		C165.109,330.174,169.456,333.897,174.502,337.049z M342.304,325.741c-0.237-0.289-0.473-0.575-0.707-0.862
		c-3.682-0.269-7.36-0.601-11.047-0.724c-0.441-0.014-1.299,1.086-1.319,1.692c-0.112,3.329-0.057,6.668,0.032,10.001
		c0.016,0.571,0.466,1.131,0.658,1.563c3.374-2.744,6.553-5.184,9.544-7.833C340.63,328.544,341.369,327.034,342.304,325.741z
		 M163.454,171.519c2.62,2.026,7.344-0.19,11.422,1.661c0-5.35,0-10.274,0-14.036C171.46,162.844,167.529,167.104,163.454,171.519z"
		/>
	<path fill-rule="evenodd" clip-rule="evenodd" d="M252.171,292.782c-26.545,0.48-46.494-20.384-45.298-48.562
		c1.028-24.225,24.301-40.904,45.05-40.898c30.97,0.01,43.644,23.542,45.151,43.366
		C299.156,274.069,271.462,294.172,252.171,292.782z M253.302,288.969c18.492,1.329,41.891-19.907,40.669-41.683
		c-1.228-21.836-17.375-39.608-40.855-40.056c-25.693-0.489-43.088,20.522-42.913,40.596
		C210.39,269.177,226.737,289.467,253.302,288.969z"/>
	<path fill-rule="evenodd" clip-rule="evenodd" d="M462.544,248.988c-1.797,0.765-3.582,1.558-5.393,2.287
		c-8.809,3.553-17.638,7.06-26.433,10.653c-1.719,0.702-2.845,0.445-4.257-0.869c-4.764-4.433-9.72-8.661-14.886-13.216
		c3.547-3.26,7.683-6.401,10.979-10.258c4.315-5.05,8.692-5.121,14.271-2.395c7.554,3.692,15.394,6.8,23.088,10.211
		c1.22,0.541,2.319,1.358,3.474,2.048C463.105,247.963,462.825,248.476,462.544,248.988z M429.216,258.329
		c9.298-3.519,18.144-6.865,26.992-10.213c-0.023-0.321-0.045-0.642-0.066-0.963c-8.671-3.301-17.338-6.612-26.021-9.88
		c-0.529-0.2-1.405-0.335-1.743-0.052c-3.906,3.271-7.739,6.626-11.796,10.135C420.977,251.172,425.193,254.834,429.216,258.329z"/>
	<path fill-rule="evenodd" clip-rule="evenodd" d="M251.591,88.397c-3.337-3.96-6.212-8.247-9.944-11.57
		c-4.269-3.803-3.706-7.695-1.808-12.029c1.813-4.14,3.848-8.183,5.669-12.319c2.001-4.542,3.87-9.143,6.127-14.501
		c1.01,1.344,1.977,2.206,2.414,3.282c2.309,5.691,4.426,11.46,6.729,17.154c1.728,4.272,3.681,8.454,5.42,12.722
		c0.275,0.678,0.279,1.912-0.147,2.363C261.394,78.425,256.626,83.245,251.591,88.397z M251.599,82.962
		c3.704-3.501,7.156-6.681,10.47-10c0.411-0.411,0.33-1.648,0.064-2.347c-3.034-8.029-6.142-16.029-9.254-24.028
		c-0.2-0.51-0.594-0.944-0.932-1.466c-2.057,5.076-4.021,9.921-5.981,14.769c-1.185,2.928-2.543,5.803-3.455,8.814
		c-0.364,1.202-0.192,3.05,0.529,4.008C245.692,76.239,248.676,79.516,251.599,82.962z"/>
	<path fill-rule="evenodd" clip-rule="evenodd" d="M173.887,107.404c-6.572-1.874-13.001-3.636-19.36-5.621
		c-0.668-0.208-1.214-1.688-1.334-2.638c-1.001-7.903-1.914-15.819-2.804-23.736c-0.433-3.858-0.763-7.728-1.235-12.564
		c2.809,1.806,5.132,3.062,7.188,4.662c7.215,5.615,14.354,11.328,21.465,17.074c0.626,0.506,1.309,1.645,1.157,2.302
		C177.434,93.485,175.735,100.048,173.887,107.404z M152.74,69.962c0.317,2.354,0.63,4.295,0.834,6.247
		c0.696,6.65,1.347,13.306,2.034,19.958c0.206,1.993,1.172,3.231,3.266,3.72c3.604,0.842,7.156,1.905,10.732,2.866
		c1.442,0.388,2.328,0.107,2.697-1.611c0.91-4.237,2.071-8.42,2.983-12.657c0.144-0.668-0.25-1.806-0.787-2.214
		C167.399,80.864,160.229,75.55,152.74,69.962z"/>
	<path fill-rule="evenodd" clip-rule="evenodd" d="M396.832,350.18c-2.305-6.016-4.474-11.765-6.719-17.481
		c-1.032-2.632-0.841-3.761,1.882-4.547c5.11-1.481,10.315-2.649,15.513-3.806c1.758-0.39,3.14,0.247,4.387,1.868
		c6.504,8.463,13.18,16.796,19.886,25.286c-0.868,1.675-2.09,2.384-4.116,1.849c-2.163-0.573-4.379-1.079-6.603-1.273
		C412.948,351.361,404.823,350.792,396.832,350.18z M392.934,330.506c1.862,5.462,3.564,10.301,5.143,15.18
		c0.454,1.408,1.156,1.974,2.657,2.107c7.016,0.621,14.018,1.398,21.027,2.066c1.356,0.128,2.734,0.018,4.103,0.018
		c0.154-0.282,0.311-0.565,0.465-0.846c-5.955-7.27-11.911-14.54-18.052-22.037C403.194,328.157,398.066,329.331,392.934,330.506z"
		/>
	<path fill-rule="evenodd" clip-rule="evenodd" d="M93.698,323.254c5.129,1.362,9.92,2.622,14.702,3.912
		c1.481,0.401,2.951,0.854,4.405,1.345c1.354,0.459,1.747,1.279,1.223,2.738c-2.111,5.875-4.176,11.771-6.122,17.703
		c-0.506,1.546-1.452,1.834-2.819,1.929c-7.775,0.538-15.552,1.06-23.318,1.715c-3.408,0.286-6.79,0.867-10.184,1.316
		c-0.229-0.268-0.458-0.534-0.688-0.799C78.574,343.059,86.251,333.006,93.698,323.254z M110.529,330.974
		c-4.773-1.365-9.418-2.814-14.14-3.938c-0.839-0.2-2.33,0.693-2.958,1.515c-3.952,5.161-7.723,10.461-11.604,15.679
		c-1.15,1.546-2.461,2.975-3.903,4.7c0.805,0.079,1.243,0.185,1.673,0.158c8.029-0.486,16.061-0.944,24.08-1.56
		c0.669-0.049,1.563-1.058,1.833-1.807C107.216,340.981,108.775,336.186,110.529,330.974z"/>
	<path fill-rule="evenodd" clip-rule="evenodd" d="M251.558,458.313c-1.422-3.066-2.639-5.46-3.66-7.936
		c-3.342-8.095-6.65-16.206-9.856-24.357c-0.354-0.901-0.393-2.457,0.147-3.096c4.14-4.891,8.458-9.631,12.729-14.413
		c0.285-0.318,0.628-0.589,1.022-0.953c4.576,4.917,9.117,9.685,13.479,14.611c0.612,0.692,0.778,2.327,0.427,3.244
		c-3.895,10.105-7.911,20.164-11.972,30.205C253.535,456.457,252.647,457.074,251.558,458.313z M251.692,451.687
		c0.648-1.035,1.106-1.565,1.347-2.18c3.167-8.086,6.318-16.178,9.412-24.29c0.21-0.552,0.172-1.524-0.178-1.912
		c-3.327-3.667-6.745-7.249-10.2-10.922c-3.472,3.771-6.724,7.407-10.104,10.916c-1.08,1.123-1.042,1.979-0.462,3.331
		c2.069,4.819,3.957,9.715,5.923,14.577C248.775,444.536,250.135,447.859,251.692,451.687z"/>
	<path fill-rule="evenodd" clip-rule="evenodd" d="M354.634,64.334c-1.162,11.858-2.246,23.167-3.434,34.466
		c-0.091,0.862-0.764,2.178-1.439,2.385c-6.222,1.906-12.5,3.62-18.769,5.363c-0.407,0.114-0.872,0.016-1.623,0.016
		c-0.123-1.077-0.257-2.104-0.35-3.136c-0.093-1.032,0.064-2.137-0.249-3.09c-1.277-3.861-2.778-7.648-3.991-11.527
		c-0.271-0.873-0.084-2.467,0.518-2.948c8.407-6.73,16.9-13.354,25.442-19.912C351.771,65.159,353.217,64.904,354.634,64.334z
		 M350.731,69.408c-7.522,6.101-14.49,11.699-21.364,17.414c-0.694,0.577-1.332,2.021-1.096,2.783
		c1.436,4.623,3.134,9.164,4.737,13.711c3.393-0.778,6.458-1.474,9.519-2.188c4.23-0.988,4.981-1.694,5.557-6.067
		c0.957-7.255,1.787-14.528,2.632-21.797C350.836,72.221,350.731,71.153,350.731,69.408z"/>
	<path fill-rule="evenodd" clip-rule="evenodd" d="M329.456,387.138c3.244,1.322,6.231,2.562,9.234,3.76
		c3.277,1.309,6.545,2.646,9.864,3.841c1.704,0.613,2.304,1.727,2.493,3.433c0.953,8.53,1.99,17.05,3.001,25.572
		c0.224,1.885,0.618,3.767,0.623,5.648c0.002,0.86-0.6,1.888-1.248,2.499c-0.267,0.251-1.51-0.218-2.084-0.654
		c-8.712-6.65-17.395-13.339-26.041-20.073c-0.467-0.362-0.882-1.279-0.766-1.821C326.078,402.104,327.719,394.889,329.456,387.138z
		 M331.936,391.947c-1.151,5.07-2.144,9.827-3.34,14.53c-0.446,1.766-0.016,2.716,1.416,3.847
		c6.375,5.043,12.612,10.263,18.917,15.4c0.512,0.417,1.139,0.695,1.704,1.033c0.209-0.33,0.307-0.411,0.298-0.479
		c-0.975-9.122-1.935-18.243-2.988-27.354c-0.073-0.637-0.724-1.519-1.312-1.738C341.908,395.417,337.137,393.782,331.936,391.947z"
		/>
	<path fill-rule="evenodd" clip-rule="evenodd" d="M70.639,142.386c3.416,0.495,6.173,0.891,8.929,1.295
		c8.952,1.315,17.908,2.596,26.845,4.005c0.879,0.139,2.08,0.893,2.375,1.654c1.958,5.053,3.735,10.178,5.511,15.302
		c0.343,0.99,0.422,2.073,0.671,3.36c-6.827,1.856-13.415,3.729-20.062,5.358c-0.93,0.229-2.569-0.416-3.178-1.2
		c-6.828-8.795-13.538-17.682-20.208-26.597C71,144.869,71.006,143.778,70.639,142.386z M93.957,169.429
		c4.418-0.936,9.254-2.048,14.13-2.952c2.021-0.375,2.915-0.97,2.071-3.171c-1.388-3.622-2.503-7.351-3.959-10.943
		c-0.305-0.753-1.53-1.437-2.429-1.595c-5.513-0.972-11.049-1.819-16.588-2.635c-3.316-0.489-6.653-0.846-9.981-1.262
		c-0.101,0.21-0.202,0.421-0.304,0.631C82.517,154.726,88.138,161.95,93.957,169.429z"/>
	<path fill-rule="evenodd" clip-rule="evenodd" d="M40.365,247.175c3.996-1.597,7.609-2.94,11.139-4.473
		c6.639-2.884,13.245-5.844,19.833-8.842c2.535-1.154,4.683-1.22,6.899,0.875c3.883,3.671,7.951,7.148,12,10.639
		c1.469,1.265,1.757,2.145,0.135,3.671c-4.423,4.161-8.697,8.483-12.933,12.837c-1.263,1.299-2.432,1.635-4.075,0.888
		c-10.624-4.832-21.267-9.622-31.894-14.447C41.184,248.192,40.996,247.842,40.365,247.175z M48.466,247.644
		c0.086,0.272,0.172,0.545,0.259,0.816c8.607,3.603,17.215,7.206,26.115,10.931c4.01-3.768,8.273-7.773,12.819-12.045
		c-4.406-3.658-8.532-7.086-12.69-10.54C66.149,240.411,57.308,244.027,48.466,247.644z"/>
	<path fill-rule="evenodd" clip-rule="evenodd" d="M432.197,144.286c-2.625,3.966-5.142,8.011-7.903,11.881
		c-4.099,5.746-8.325,11.404-12.633,16.996c-0.459,0.595-1.905,0.863-2.744,0.661c-6.144-1.482-12.263-3.085-18.354-4.774
		c-0.589-0.164-1.409-1.234-1.336-1.781c0.848-6.425,2.862-12.494,6.051-18.145c0.262-0.463,0.961-0.875,1.507-0.949
		c11.644-1.568,23.294-3.085,34.941-4.612C431.883,143.804,432.041,144.045,432.197,144.286z M426.814,147.447
		c-1.08,0-1.438-0.038-1.785,0.005c-8.519,1.077-17.039,2.139-25.548,3.29c-0.67,0.091-1.571,0.674-1.828,1.263
		c-1.864,4.271-3.593,8.602-5.415,13.038c6.199,1.792,11.889,3.435,17.391,5.023C415.243,162.678,420.846,155.303,426.814,147.447z"
		/>
	<path fill-rule="evenodd" clip-rule="evenodd" d="M148.441,432.439c0.31-3.513,0.491-6.45,0.841-9.37
		c1.026-8.538,2.19-17.061,3.137-25.608c0.244-2.198,0.972-3.118,3.238-3.752c5.214-1.465,10.325-3.352,15.369-5.344
		c2.046-0.809,2.791-0.291,3.27,1.598c1.514,5.962,3.031,11.926,4.632,17.864c0.576,2.138-0.811,3.28-2.085,4.336
		c-2.998,2.484-6.099,4.85-9.228,7.168c-5.156,3.825-10.349,7.6-15.569,11.336C151.137,431.317,150.018,431.677,148.441,432.439z
		 M152.619,426.412c0.239-0.047,0.454-0.029,0.577-0.126c7.319-5.778,14.639-11.556,21.918-17.383
		c0.373-0.301,0.653-1.098,0.543-1.56c-1.066-4.484-2.147-8.966-3.443-13.386c-0.184-0.629-1.681-1.447-2.326-1.271
		c-4.182,1.133-8.324,2.439-12.411,3.885c-0.782,0.276-1.706,1.374-1.803,2.183C154.577,407.904,153.627,417.073,152.619,426.412z"
		/>
	<path fill-rule="evenodd" clip-rule="evenodd" d="M196.018,296.179c0.872,2.815-0.73,3.547-2.152,4.383
		c-0.304-0.548-0.992-1.422-0.848-1.59C193.817,298.025,194.818,297.25,196.018,296.179z"/>
	<path fill-rule="evenodd" clip-rule="evenodd" d="M220.861,247.491c-1.413-17.379,14.993-31.829,32.775-31.526
		c16.702,0.283,30.634,13.803,30.327,34.612c-0.208,14.151-15.698,30.067-32.428,29.577
		C234.086,279.644,220.918,266.066,220.861,247.491z M224.138,248.205c0.198,15.732,13.822,29.97,32.07,27.91
		c12.445-1.403,24.778-15.617,24.13-29.484c-0.79-16.917-13.516-28.191-31.331-26.677
		C234.938,221.15,223.77,232.549,224.138,248.205z"/>
	<path fill-rule="evenodd" clip-rule="evenodd" d="M269.117,247.913c0.077,10.023-6.433,16.883-16.093,16.957
		c-9.469,0.072-17.212-7.218-17.546-16.057c-0.419-11.112,9.373-17.758,16.246-18.362
		C261.285,229.61,269.042,237.842,269.117,247.913z M265.217,247.115c0.538-7.174-6.271-11.962-13.061-12.198
		c-5.981-0.207-13.003,7.05-12.951,13.248c0.065,7.715,6.204,12.897,12.793,12.546C261.152,260.227,265.197,256.366,265.217,247.115
		z"/>
</g>
</svg>
