<?xml version="1.0" encoding="utf-8"?>
<!-- Generator: Adobe Illustrator 16.0.0, SVG Export Plug-In . SVG Version: 6.00 Build 0)  -->
<!DOCTYPE svg PUBLIC "-//W3C//DTD SVG 1.1//EN" "http://www.w3.org/Graphics/SVG/1.1/DTD/svg11.dtd">
<svg version="1.1" id="Layer_1" xmlns="http://www.w3.org/2000/svg" xmlns:xlink="http://www.w3.org/1999/xlink" x="0px" y="0px"
	 width="500px" height="500px" viewBox="0 0 500 500" enable-background="new 0 0 500 500" xml:space="preserve">
<g>
	<path fill-rule="evenodd" clip-rule="evenodd" d="M131.326,44.671c-0.196-2.163-0.526-4.325-0.527-6.487
		c0-0.951,0.424-2.206,1.11-2.758c0.56-0.45,1.804-0.128,2.728-0.01c0.405,0.052,0.81,0.399,1.141,0.695
		c7.299,6.537,16.388,9.358,25.437,12.256c1.369,0.438,2.896,0.526,4.143,1.174c6.194,3.214,11.579-0.077,17.119-1.994
		c11.575-4.006,23.408-6.886,35.567-8.418c0.772-0.097,1.705-0.257,2.235-0.745c6.063-5.58,12.186-11.104,18.039-16.899
		c4.406-4.363,7.755-9.509,9.946-15.401c0.371-0.996,1.91-2.071,2.967-2.134c0.863-0.051,2.314,1.177,2.65,2.137
		c3.359,9.606,9.723,16.818,17.563,23.01c3.041,2.403,5.629,5.373,8.588,7.891c1.152,0.981,2.703,1.868,4.168,2.053
		c14.906,1.894,29.168,6.094,43.115,11.554c1.443,0.564,3.346,0.734,4.816,0.315c7.477-2.128,15.016-4.165,22.262-6.938
		c4.139-1.583,7.727-4.573,11.639-6.794c1.156-0.657,2.732-1.394,3.816-1.075c0.734,0.216,1.459,2.276,1.313,3.397
		c-1.01,7.728,0.17,15.168,2.639,22.445c1.686,4.971,3.564,9.876,5.414,14.79c0.232,0.616,0.715,1.238,1.25,1.625
		c12.715,9.205,23.838,20.095,33.787,32.181c2.365,2.873,4.996,4.863,8.648,5.567c7.447,1.436,14.84,3.214,22.338,4.278
		c3.219,0.457,6.635-0.601,9.971-0.798c1.121-0.066,3.012,0.101,3.248,0.688c0.43,1.062,0.363,2.944-0.34,3.741
		c-3.918,4.438-5.961,9.776-7.164,15.332c-1.49,6.885-2.371,13.91-3.301,20.903c-0.16,1.205,0.643,2.602,1.189,3.824
		c6.002,13.408,11.635,26.976,13.984,41.563c0.832,5.167,2.77,9.103,6.5,12.794c4.549,4.5,8.24,9.857,12.457,14.708
		c3.818,4.392,8.719,7.24,14.119,9.339c0.916,0.356,2.145,1.576,2.1,2.329c-0.061,1.004-1.025,2.479-1.949,2.823
		c-9.082,3.375-15.176,10.341-21.242,17.347c-2.609,3.016-5.861,5.816-7.385,9.337c-1.561,3.604-1.113,8.023-1.982,11.989
		c-2.729,12.453-5.752,24.834-11.002,36.537c-0.248,0.552-0.482,1.234-0.385,1.798c1.188,6.863,2.17,13.778,3.748,20.552
		c1.461,6.27,3.842,12.232,8.121,17.288c0.695,0.821,0.705,2.478,0.516,3.666c-0.072,0.469-1.617,1.116-2.389,0.999
		c-10.549-1.608-20.377,1.129-30.348,4.149c-5.146,1.561-8.531,4.281-11.588,8.406c-7.566,10.205-15.545,20.149-25.668,27.954
		c-3.332,2.57-4.662,5.488-5.506,9.306c-1.068,4.846-2.863,9.527-4.09,14.345c-1.492,5.863-1.447,11.827-0.621,17.809
		c0.195,1.414,0.213,2.916-0.039,4.313c-0.355,1.969-2.166,2.81-3.627,1.562c-9.582-8.184-21.568-9.655-33.201-12.208
		c-2.461-0.54-4.225,0.194-6.281,1.368c-12.811,7.316-26.617,12.218-40.818,15.943c-7.408,1.944-15.027,3.08-22.545,4.61
		c-0.771,0.157-1.707,0.313-2.221,0.82c-4.887,4.832-9.842,9.608-14.49,14.666c-3.871,4.215-6.873,9.053-8.887,14.495
		c-0.387,1.044-1.76,2.111-2.857,2.354c-0.64,0.141-2.13-1.192-2.396-2.108c-2.99-10.261-10.739-16.838-17.68-24.272
		c-4.994-5.347-11.116-5.693-17.225-6.842c-19.643-3.693-38.157-10.529-55.842-19.698c-2.337-1.211-4.355-1.547-6.916-0.872
		c-6.813,1.798-13.806,2.97-20.527,5.039c-3.535,1.088-6.686,3.476-9.942,5.393c-1.553,0.915-3.239,2.029-4.624,0.457
		c-0.69-0.783-0.588-2.661-0.255-3.883c2.095-7.687,0.7-15.055-1.603-22.418c-1.641-5.248-3.024-10.575-4.616-15.839
		c-0.265-0.876-0.886-1.731-1.55-2.385c-7.348-7.235-14.895-14.277-22.053-21.694c-4.014-4.158-7.244-9.065-11.164-13.324
		c-1.339-1.456-3.625-2.215-5.618-2.861c-5.585-1.812-11.155-3.902-16.901-4.917c-4.637-0.818-9.524-0.187-14.297-0.303
		c-1.044-0.025-2.612-0.19-2.977-0.834c-0.422-0.747-0.124-2.337,0.45-3.143c4.653-6.54,7.546-13.794,9.038-21.624
		c1.049-5.506,1.969-11.038,2.871-16.569c0.105-0.645-0.169-1.413-0.445-2.047c-6.316-14.539-10.538-29.629-11.99-45.448
		c-0.229-2.486-0.96-4.601-2.824-6.487c-6.226-6.303-11.209-13.874-18.85-18.715c-2.65-1.68-5.673-2.76-8.422-4.298
		c-0.977-0.546-2.14-1.557-2.298-2.509c-0.119-0.719,1.051-2.1,1.944-2.47c9.354-3.881,16.25-10.669,22.436-18.405
		c3.217-4.024,6.705-7.833,10.034-11.769c0.383-0.453,0.683-1.08,0.771-1.664c2.351-15.567,6.786-30.593,13.377-44.803
		c2.151-4.637,1.995-8.54,1.449-13.073c-0.9-7.464-1.438-15-4.545-21.961c-1.236-2.768-3.172-5.216-4.648-7.888
		c-0.505-0.914-1.082-2.324-0.714-3.04c0.41-0.8,1.977-1.655,2.833-1.479c11.046,2.269,21.51-0.224,32.101-3.071
		c4.263-1.146,7.442-2.787,10.242-6.174c8.982-10.863,19.246-20.457,30.58-28.818c2.501-1.845,4.004-3.793,4.89-6.666
		c0.982-3.182,2.376-6.241,3.651-9.328C129.591,57.963,131.172,51.496,131.326,44.671z M249.684,90.651
		c-4.004,0.305-11.564,0.41-18.968,1.534c-24.125,3.66-46.91,11.148-67.749,24.221c-16.13,10.119-29.587,23.114-40.891,38.188
		c-6.147,8.197-11.286,17.294-15.87,26.489c-10.046,20.154-15.463,41.639-16.119,64.208c-0.489,16.833,1.011,33.424,5.996,49.647
		c6.345,20.651,15.929,39.544,29.565,56.326c16.758,20.626,37.583,36.018,61.521,47.281c21.53,10.13,44.298,14.356,68.035,13.949
		c13.148-0.226,26-2.38,38.545-6.019c12.895-3.74,25.117-9.14,36.678-16.137c19.506-11.807,36.887-25.893,50.248-44.565
		c10.777-15.061,19.324-31.269,24.389-49.129c5.994-21.134,8.094-42.655,5.393-64.539c-2.34-18.952-7.697-37.034-16.328-54.057
		c-7.428-14.654-17.451-27.539-28.758-39.358c-5.363-5.607-11.17-10.922-17.375-15.566c-12.006-8.984-25.346-15.765-39.207-21.427
		C290.995,94.431,272.413,90.96,249.684,90.651z M85.934,261.823c-13.468,7.039-25.813,2.831-34.907-8
		c-3.751-4.468-8.126-7.953-13.828-9.59c-1.272-0.364-2.494-0.909-4.405-1.619c1.665-0.643,2.623-1.205,3.647-1.376
		c5.462-0.913,9.943,1.36,13.833,4.812c3.444,3.055,6.291,6.837,9.926,9.61c6.981,5.327,14.744,6.778,22.832,2.427
		c1.218-0.655,2.473-2.39,2.59-3.723c0.344-3.914,0.123-7.878,0.123-12.128c-0.951,0.499-1.642,0.885-2.351,1.231
		c-5.618,2.746-11.351,3.783-17.19,0.772c-3.209-1.655-6.359-3.444-9.422-5.356c-6.573-4.102-7.388-2.819-2.158-10.538
		c6.601-9.742,20.923-13.104,30.664-7.364c1.021,0.602,1.968,1.328,2.907,1.968c0.619-3.425,1.287-6.607,1.714-9.823
		c0.114-0.859-0.229-2.318-0.833-2.655c-9.275-5.154-19.016-7.818-29.699-5.244c-11.323,2.729-19.674,9.455-26.398,18.741
		c-5.163,7.13-10.918,13.79-18.417,18.679c-0.77,0.502-1.396,1.221-2.202,1.939c1.296,0.932,2.359,1.505,3.183,2.319
		c6.499,6.42,12.968,12.872,19.415,19.345c3.991,4.008,8.222,7.629,13.623,9.665c12.575,4.739,24.799,4.534,36.517-2.552
		c0.763-0.461,1.597-1.599,1.583-2.407C86.626,268.005,86.228,265.06,85.934,261.823z M415.708,261.4
		c-0.48,3.733-0.838,7.225-1.418,10.678c-0.291,1.741,0.064,2.743,1.863,3.171c4.395,1.046,8.719,2.492,13.164,3.185
		c14.541,2.264,27.246-1.453,37.57-12.277c4.814-5.047,9.543-10.18,14.492-15.091c2.197-2.178,4.844-3.901,7.549-6.038
		c-9.412-5.836-15.635-14.328-22.305-22.457c-3.24-3.946-6.945-7.815-11.184-10.581c-13.846-9.037-28.264-7.948-42.633-1.029
		c-0.645,0.31-1.242,1.725-1.102,2.485c0.551,2.979,1.406,5.902,2.178,8.959c5.393-2.712,10.871-4.544,16.842-3.776
		c8.066,1.036,13.955,5.608,18.688,11.928c4.389,5.858,9.574,10.585,17.004,12.246c0.844,0.189,1.59,0.822,3.027,1.597
		c-4.676,1.769-8.469,1.531-12.211-0.235c-4.393-2.075-7.545-5.502-10.373-9.356c-7.537-10.271-19.916-15.403-32.658-7.042
		c0.527,3.992,1.066,8.076,1.619,12.261c6.631-3.841,13.26-4.862,19.836-0.672c5.01,3.191,9.766,6.779,14.563,10.142
		C443.534,263.195,427.962,268.464,415.708,261.4z M249.703,86.152c-4.93-6.843-3.897-13.486-0.717-20.109
		c1.486-3.093,3.335-6.011,4.794-9.115c1.686-3.59,2.1-3.831,5.551-2.009c5.783,3.054,10.391,7.245,12.773,13.489
		c2.406,6.301,2.414,12.518-1.346,18.79c3.85,0.652,7.383,1.25,10.824,1.833c9.234-16.839,6.334-37.002-7.748-51.126
		c-5.174-5.188-10.93-9.792-16.104-14.979c-2.693-2.701-4.695-6.089-7.231-9.46c-3.767,8.491-10.574,14.108-17.399,19.599
		c-11.343,9.125-18.038,20.603-18.617,35.291c-0.275,6.977,1.117,13.669,4.779,19.721c0.376,0.622,1.579,1.188,2.294,1.081
		c3.26-0.483,6.482-1.216,9.917-1.897c-3.782-4.725-3.929-10.104-3.192-15.735c0.887-6.78,4.228-12.262,8.73-17.125
		c5.782-6.245,11.96-12.198,13.578-21.33c0.833,0.965,1.554,1.911,1.708,2.941c0.557,3.682,0.148,7.322-2.03,10.41
		c-2.133,3.022-4.482,5.926-7.005,8.631c-3.493,3.747-6.595,7.699-8.496,12.498c-2.23,5.631-2.377,11.212,0.108,16.857
		c0.927,2.104,2.305,2.81,4.438,2.613C242.632,86.716,245.956,86.462,249.703,86.152z M356.118,123.949
		c15.262-7.953,23.006-24.749,19.09-41.92c-1.318-5.779-3.619-11.337-5.525-16.978c-2.338-6.921-4.039-13.962-3.965-21.478
		c-1.99,1.189-3.566,2.494-5.379,3.149c-6.441,2.329-12.885,4.706-19.469,6.563c-10.098,2.848-19.377,6.948-26.732,14.72
		c-6.98,7.375-9.807,16.502-11.389,26.333c3.707,1.539,7.41,3.076,11.322,4.7c0.242-8.374,3.207-15.451,9.99-19.793
		c4.838-3.098,10.564-5.027,16.123-6.727c5.707-1.744,10.861-3.949,14.533-8.846c0.375-0.5,0.934-0.861,1.406-1.287
		c0.025,2.03-0.354,3.788-1.053,5.407c-2.486,5.75-7.906,7.227-13.184,8.997c-4.426,1.484-9.01,2.788-13.064,5.011
		c-6.41,3.516-9.477,9.511-9.9,16.748c-0.063,1.066,0.568,2.714,1.4,3.196c3.246,1.884,6.701,3.408,10.246,5.148
		c0.461-2.568,0.742-4.798,1.271-6.966c2.041-8.349,8.191-12.604,15.609-15.672c5.609-2.32,6.285-2.128,8.586,3.577
		c0.406,1.005,0.813,2.015,1.145,3.046c2.365,7.364,1.768,14.307-3.137,20.539c-1.719,2.184-3.641,4.206-5.523,6.363
		C350.718,119.564,353.38,121.725,356.118,123.949z M168.024,108.129c-0.104-0.308-0.107-0.432-0.167-0.474
		c-0.368-0.255-0.751-0.487-1.125-0.733c-4.615-3.037-7.809-7.09-8.287-12.726c-0.442-5.223-0.674-10.48-0.609-15.717
		c0.011-0.954,1.834-2.584,2.932-2.684c2.478-0.226,5.086,0.037,7.531,0.586c7.614,1.712,13.796,5.485,16.735,13.134
		c1.092,2.84,1.679,5.875,2.574,9.1c2.809-0.925,5.735-1.801,8.575-2.898c0.608-0.235,1.332-1.315,1.277-1.941
		c-0.358-4.036-0.3-8.253-1.526-12.039c-3.886-11.999-12.063-20.252-23.849-24.66c-7.098-2.655-14.454-4.613-21.579-7.2
		c-4.872-1.77-9.546-4.084-14.402-6.195c-0.059,0.749-0.145,1.542-0.181,2.336c-0.354,7.862-2.226,15.323-5.409,22.541
		c-1.776,4.027-3.177,8.265-4.303,12.524c-2.401,9.09-1.394,17.864,2.673,26.42c3.446,7.25,9.101,12.205,15.651,16.47
		c2.938-2.155,5.914-4.336,9.107-6.678c-0.884-0.593-1.47-0.981-2.052-1.375c-5.195-3.521-8.417-8.367-9.727-14.495
		c-1.232-5.769-0.251-11.341,1.533-16.832c2.021-6.218,3.999-12.433,2.835-19.129c-0.235-1.356-0.282-2.746-0.416-4.12
		c1.376,0.623,2.356,1.421,2.973,2.439c3.089,5.104,2.779,10.516,1.26,16.011c-1.224,4.427-2.686,8.809-3.572,13.304
		c-1.61,8.162,2.696,16.744,10.041,20.502c0.731,0.374,1.997,0.452,2.669,0.065C162.219,111.929,165.124,109.975,168.024,108.129z
		 M401.47,181.11c-0.156,0.369-0.236,0.465-0.217,0.525c0.619,1.792,1.254,3.578,1.871,5.37c1.633,4.739,1.727,4.795,6.447,3.875
		c0.621-0.122,1.254-0.187,1.881-0.291c9.186-1.536,16.77-5.739,22.791-12.979c6.299-7.575,8.906-16.445,9.928-25.951
		c0.941-8.761,2.338-17.383,6.439-25.333c0.133-0.258,0.018-0.644,0.018-1.275c-9.893,0.981-19.213-1.135-28.361-4.171
		c-7.602-2.522-15.344-2.829-23.029-1.028c-10.785,2.528-19.732,7.966-25.473,17.858c-0.826,1.424-0.949,2.679,0.209,3.913
		c1.855,1.979,3.732,3.94,5.641,5.952c1.809-1.802,3.486-3.709,5.4-5.336c6.932-5.888,14.734-8.714,23.889-6.406
		c3.152,0.795,6.301,1.596,9.455,2.374c4.75,1.169,9.332,0.877,13.684-1.55c0.635-0.354,1.359-0.545,2.221-0.881
		c-0.678,3.913-3.844,6.512-7.977,7.403c-4.602,0.992-8.98,0.062-13.414-0.899c-5.199-1.127-10.375-2.788-15.785-1.281
		c-5.447,1.517-10.373,3.844-13.207,9.121c-0.393,0.729-0.781,1.962-0.441,2.497c2.15,3.382,4.506,6.633,6.898,10.078
		c4.752-6.807,8.842-9.89,15.398-10.292c5.375-0.331,10.816,0.315,16.219,0.676c0.443,0.03,1.184,1.207,1.152,1.818
		c-0.117,2.249-0.279,4.539-0.822,6.714c-2.35,9.399-7.355,16.447-17.346,18.845C403.737,180.742,402.511,180.916,401.47,181.11z
		 M65.675,133.946c7.215,1.979,11.062,6.506,12.925,12.853c1.422,4.84,2.366,9.823,3.887,14.627
		c2.634,8.317,10.83,14.587,18.746,14.539c1.022-0.006,2.512-0.428,2.976-1.166c2.001-3.179,3.7-6.548,5.627-10.064
		c-0.69-0.141-1.101-0.283-1.518-0.301c-4.512-0.193-8.33-1.974-11.84-4.765c-5.508-4.379-7.396-10.74-9.775-16.894
		c-0.639-1.652-0.199-2.556,1.078-3.407c5.721-3.812,11.933-5.171,18.607-3.321c6.443,1.786,12.067,4.877,15.376,11.598
		c2.543-2.842,4.783-5.344,7.089-7.92c-0.835-1.207-1.72-2.346-2.459-3.574c-10.292-17.09-29.441-20.322-42.676-17.322
		c-10.82,2.452-21.408,5.954-33.061,5.044c0.596,1.583,1.067,2.832,1.537,4.081c2.463,6.542,4.365,13.233,4.603,20.257
		c0.253,7.482,2.167,14.531,5.701,21.032c7.05,12.967,18.481,19.441,32.83,21.245c0.575,0.072,1.568-0.249,1.779-0.677
		c1.424-2.885,2.69-5.85,3.994-8.759c-0.431-0.251-0.577-0.401-0.737-0.42c-12.844-1.465-21.912-10.275-24.485-23.615
		c-1.457-7.551-3.311-14.858-8.932-20.586C66.443,135.92,66.251,135.103,65.675,133.946z M406.749,305.488
		c1.414,0.253,2.727,0.517,4.049,0.721c5.887,0.906,10.668,3.659,14.564,8.197c4.41,5.138,6.57,11.23,7.822,17.687
		c1.193,6.152,3.66,11.503,8.363,15.761c0.826,0.748,1.32,1.865,2.342,3.362c-1.201-0.17-1.549-0.183-1.875-0.271
		c-7.967-2.154-11.088-8.354-13.115-15.557c-1.293-4.593-2.322-9.352-4.332-13.631c-3.428-7.291-9.451-11.253-17.711-11.292
		c-0.682-0.003-1.76,0.318-1.988,0.802c-1.871,3.971-3.584,8.016-5.469,12.325c6.27-0.91,11.445,0.726,15.682,5.029
		c5.068,5.148,6.514,11.977,8.35,18.58c0.17,0.613-0.811,1.874-1.564,2.367c-7.484,4.898-20.799,3.479-27.016-2.987
		c-1.861-1.937-3.211-4.364-4.807-6.581c-1.148,1.608-2.393,3.267-3.549,4.983c-3.887,5.781-4.061,5.98,0.936,10.834
		c12.604,12.24,27.424,16.395,44.406,11.105c8.803-2.741,17.424-6.144,27.396-4.916c-0.684-1.592-1.301-2.776-1.709-4.028
		c-1.764-5.397-3.771-10.74-5.105-16.245c-1.293-5.345-1.504-10.952-2.834-16.284c-4.078-16.359-19.109-30.495-37.051-29.887
		c-2.105,0.071-3.045,0.597-3.49,2.687C408.54,300.625,407.591,302.904,406.749,305.488z M157.749,387.22
		c-1.028,3.45-1.327,7.133-3.094,9.868c-4.954,7.672-12.963,11.744-20.565,16.313c-5.304-11.235-5.626-28.505,6.381-39.319
		c-2.384-2.528-4.78-5.068-7.191-7.625c-9.521,4.586-14.547,12.779-18.114,21.947c-4.298,11.043-1.851,21.907,1.72,32.646
		c1.367,4.112,2.853,8.229,3.687,12.462c0.845,4.292,0.949,8.729,1.38,13.115c0.069,0,0.282,0.065,0.419-0.009
		c8.434-4.571,17.805-5.835,27.005-7.755c7.787-1.624,15.131-4.385,21.399-9.489c7.723-6.29,12.413-14.296,13.48-24.262
		c0.115-1.072-0.137-2.809-0.833-3.232c-2.965-1.812-6.161-3.245-8.829-4.593c-1.575,3.791-2.643,7.699-4.687,11.003
		c-4.372,7.065-11.618,10.083-19.265,12.15c-5.702,1.542-10.831,4.016-15.162,8.094c-0.848,0.798-1.965,1.311-2.958,1.954
		c-0.208-0.176-0.415-0.353-0.623-0.528c0.36-1.061,0.558-2.217,1.111-3.164c2.007-3.438,4.677-6.259,8.431-7.785
		c4.771-1.94,9.638-3.646,14.388-5.635c7.416-3.103,12.638-8.062,13.172-16.634c0.057-0.924-0.035-2.347-0.606-2.741
		C164.857,391.566,161.161,389.358,157.749,387.22z M102.15,323.333c-1.56,5.374-4.898,8.479-9.409,10.11
		c-7.064,2.554-14.417,2.186-21.725,1.284c-0.495-0.062-1.209-1.498-1.159-2.25c0.153-2.249,0.563-4.49,1.001-6.709
		c2.05-10.358,8.126-16.875,18.511-19.216c1.828-0.412,3.667-0.771,5.565-1.168c-0.877-2.646-1.834-5.078-2.466-7.591
		c-0.446-1.774-1.359-2.219-3.06-2.195c-13.659,0.19-24.174,6.281-31.868,17.278c-4.886,6.983-6.738,15.082-7.771,23.465
		c-0.616,4.996-1.751,9.957-3.044,14.829c-0.89,3.351-2.453,6.522-3.79,9.968c7.763-0.508,14.959,1.42,21.915,3.984
		c9.07,3.343,18.173,4.701,27.688,2.529c10.494-2.395,19.06-7.677,25.13-16.696c0.338-0.502,0.592-1.501,0.328-1.899
		c-1.969-2.963-4.079-5.832-6.248-8.875c-2.925,4.261-6.153,7.528-10.598,9.608c-7.558,3.536-15.08,2.979-22.742,0.515
		c-5.435-1.747-10.846-1.932-16.038,0.959c-0.994,0.554-1.986,1.109-2.979,1.663c-0.225-0.164-0.45-0.327-0.674-0.491
		c0.934-1.523,1.621-3.293,2.852-4.519c2.618-2.604,6.146-3.846,9.668-3.587c5.012,0.368,10.003,1.369,14.934,2.423
		c8.619,1.843,18.091-2.116,21.772-9.444c0.394-0.785,0.643-2.034,0.293-2.735C106.434,330.962,104.414,327.458,102.15,323.333z
		 M380.821,447.773c-1.117-10.25,1.855-19.55,4.805-28.889c3.338-10.57,4.445-21.171,0.359-31.919
		c-3.332-8.764-8.945-15.328-17.26-19.778c-2.533,2.174-4.967,4.262-7.467,6.407c4.166,4.172,7.199,8.604,8.914,13.893
		c2.414,7.442,2.41,14.968,0.773,22.524c-0.938,4.332-0.945,8.578,0.156,12.886c0.6,2.338,0.828,4.771,1.225,7.162
		c-0.186,0.136-0.373,0.271-0.557,0.407c-0.912-0.885-2.041-1.633-2.697-2.678c-2.963-4.719-3.637-9.911-3.047-15.389
		s1.414-10.982,1.338-16.464c-0.096-6.987-3.152-12.929-8.494-17.53c-0.592-0.508-2.027-0.877-2.51-0.529
		c-3.359,2.419-6.57,5.045-10.084,7.805c5.789,3.271,9.002,8.148,10.355,14.041c0.902,3.927,1.18,8.067,1.199,12.114
		c0.035,6.907,0.348,7.007-6.186,6.807c-0.18-0.006-0.363,0.02-0.543,0.019c-8.584-0.061-19.65-7.209-21.572-16.876
		c-0.311-1.563-0.658-3.118-1.021-4.839c-3.727,1.849-7.26,3.602-10.949,5.432c0.836,6.85,2.301,13.626,6.596,19.38
		c5.766,7.726,13.34,12.978,22.645,15.563C358.144,440.473,370.288,440.989,380.821,447.773z M270.864,415.958
		c0.816,3.369,1.904,6.374,2.223,9.457c1.031,10.035-4.121,17.633-10.162,24.884c-2.59,3.109-4.945,6.44-7.133,9.849
		c-1.506,2.345-2.537,4.994-3.779,7.507c-0.801-1.145-1.103-2.164-1.169-3.2c-0.346-5.313,1.981-9.528,5.222-13.556
		c3.785-4.701,7.68-9.433,10.629-14.658c2.998-5.313,3.111-11.318,0.396-17.002c-0.539-1.133-1.947-2.588-2.988-2.616
		c-3.814-0.1-7.643,0.34-11.707,0.59c3.207,4.961,4.285,10.15,2.4,15.298c-2.279,6.225-5.351,12.157-8.08,18.216
		c-6.401-2.746-11.547-7.01-14.812-13.453c-3.514-6.934-3.977-13.928-0.508-21.222c-3.474-0.575-6.55-1.182-9.656-1.517
		c-0.628-0.068-1.771,0.756-1.988,1.4c-1.229,3.646-3.107,7.341-3.193,11.056c-0.398,17.248,7.308,30.9,19.633,42.451
		c4.394,4.117,8.237,8.831,12.211,13.379c1.137,1.301,1.848,2.973,2.833,4.607c0.426-0.476,0.709-0.705,0.881-0.999
		c4.215-7.206,9.826-13.211,16.123-18.6c9.125-7.809,15.127-17.417,17.271-29.329c1.398-7.773,0.891-15.328-2.541-22.537
		c-0.332-0.698-1.207-1.718-1.719-1.657C277.778,414.716,274.335,415.377,270.864,415.958z M222.152,460.326
		c-4.705-7.596-8.243-14.927-9.503-23.191c-1.266-8.302-0.423-16.313,3.066-24.077c-2.277-0.537-4.22-0.931-6.125-1.459
		c-4.337-1.204-4.417-1.27-6.251,2.891c-6.4,14.51-3.091,30.518,6.277,42.328c0.625,0.789,1.686,1.475,2.661,1.7
		C215.247,459.203,218.274,459.639,222.152,460.326z M340.671,440.37c-1.756-0.982-3.248-1.659-4.564-2.586
		c-2.723-1.915-5.33-2.643-8.303-0.385c-1.264,0.96-2.891,1.477-4.4,2.071c-11.008,4.333-22.08,8.43-33.891,10.104
		c-1.182,0.167-2.682,0.883-3.279,1.823c-1.521,2.391-2.613,5.052-4.064,7.983C302.913,456.123,322.313,450.217,340.671,440.37z
		 M73.926,241.421c4.849-0.429,8.872-1.771,11.664-5.557c2.11-2.862,1.269-7.7-1.477-9.929c-7.814-6.345-21.799-2.052-26.836,6.699
		c-0.271,0.47-0.065,1.744,0.324,1.982C62.774,237.782,68.095,240.638,73.926,241.421z M444.479,250.714
		c-5.227-4.193-9.939-8.558-16.656-9.121c-3.225-0.27-6.57-0.298-9.098,2.326c-2.674,2.775-3.85,8.874-1.973,12.214
		c1.783,3.173,5.102,3.715,8.48,3.688c1.086-0.009,2.178,0.034,3.258-0.052C435.089,259.25,440.278,256.237,444.479,250.714z
		 M411.521,348.333c1.861-0.293,3.787-0.395,5.551-0.98c0.652-0.216,1.49-1.765,1.281-2.376c-1.309-3.826-2.662-7.673-4.455-11.287
		c-1.453-2.931-4.234-4.655-7.371-5.599c-4.242-1.275-9.777,0.519-11.664,3.703c-1.889,3.188-1.016,7.54,2.57,11.012
		C401.306,346.554,406.128,348.13,411.521,348.333z M91.292,142.691c2.134,3.981,3.883,8.271,6.526,11.911
		c3.087,4.252,7.474,6.379,13.055,4.966c3.195-0.809,5.505-2.777,6.415-5.656c0.89-2.814-0.079-5.542-2.272-7.93
		C110.102,140.632,97.763,137.741,91.292,142.691z M288.681,445.357c3.609-0.827,6.676-1.405,9.645-2.3
		c0.697-0.21,1.381-1.428,1.543-2.281c0.619-3.276,1.168-6.58,1.475-9.898c0.615-6.638-1.018-12.913-3.596-18.956
		c-0.268-0.627-1.516-1.347-2.148-1.221c-2.98,0.593-5.904,1.466-9.188,2.329C291.276,423.45,291.218,434.04,288.681,445.357z
		 M353.255,414.291c0.48-7.16,0.67-14.103-3.785-20.152c-4.053-5.505-8.105-6.096-13.713-2.158
		c-1.586,1.113-2.389,2.498-2.326,4.564C333.712,405.835,343.501,414.833,353.255,414.291z M269.081,77.776
		c-0.016-6.547-4.195-14.439-9.758-17.925c-0.469-0.294-1.746-0.213-1.939,0.113c-2.529,4.254-5.227,8.421-5.936,13.516
		c-1.181,8.486,1.953,12.589,10.287,13.186c3.244,0.232,5.189-0.928,6.367-4.145C268.651,81.022,268.767,79.363,269.081,77.776z
		 M162.155,79.858c0,3.276-0.213,6.352,0.049,9.386c0.424,4.922,1.392,9.693,5.587,13.079c3.277,2.645,7.725,2.727,11.802,0.081
		c2.448-1.588,2.938-4.095,1.667-8.521C178.918,85.731,172.379,80.816,162.155,79.858z M74.905,331.261
		c4.234-0.241,8.312-0.245,12.324-0.756c5.912-0.752,10.571-5.384,11.795-11.226c1.18-5.63-3.202-9.646-8.829-8.63
		C82.121,312.108,75.167,322.954,74.905,331.261z M417.366,156.064c-1.674,0-3.207-0.03-4.74,0.004
		c-5.824,0.131-11.365,1.211-15.826,5.319c-3.256,3-3.461,6.501-0.883,11.35c1.785,3.354,3.811,3.917,8.211,3.354
		C410.929,175.221,419.06,164.375,417.366,156.064z M244.692,444.958c1.558-3.5,2.808-6.782,4.445-9.857
		c1.707-3.206,2.075-6.526,1.664-10.002c-0.451-3.802-4.057-8.235-6.927-8.457c-1.892-0.146-3.821-0.135-5.7,0.09
		c-0.882,0.105-2.223,0.714-2.43,1.382c-0.866,2.789-2.064,5.729-1.892,8.539C234.324,434.368,238.794,440.019,244.692,444.958z
		 M136.599,407.108c6.303-3.824,12.242-7.623,15.273-14.324c0.967-2.137,0.775-4.942,0.612-7.408
		c-0.179-2.702-4.546-7.229-7.17-7.405c-3.252-0.219-4.967,2.317-6.349,4.745C134.659,390.278,134.38,398.305,136.599,407.108z
		 M353.729,97.865c-0.15-0.996-0.188-2.756-0.697-4.367c-2.096-6.631-2.961-6.739-8.223-3.369c-0.531,0.341-1.072,0.674-1.578,1.052
		c-4.299,3.215-7.33,7.174-7.734,12.778c-0.291,4.026,1.904,7.718,5.545,9.03c2.932,1.058,6.688-0.422,8.906-3.542
		C352.261,106.198,353.442,102.556,353.729,97.865z M160.77,440.532c13.891,7.454,27.809,12.594,42.729,16.169
		c-1.706-3.237-3.064-6.092-4.706-8.772c-0.537-0.878-1.734-1.502-2.762-1.904c-8.148-3.189-16.317-6.326-24.513-9.391
		c-0.918-0.342-2.194-0.473-3.046-0.104C166.09,437.56,163.842,438.903,160.77,440.532z M458.603,207.643
		c-2.332-14.218-7.355-27.135-13.242-40.188c-1.25,2.682-2.137,5.063-3.426,7.202c-1.113,1.848-0.91,3.416-0.309,5.354
		c2.242,7.243,4.258,14.556,6.412,21.827c0.201,0.681,0.625,1.563,1.189,1.824C452.155,205.02,455.163,206.206,458.603,207.643z
		 M462.151,276.767c-2.807,1.364-5.414,2.571-7.951,3.913c-0.545,0.288-1.053,1.002-1.213,1.614
		c-2.141,8.194-4.23,16.402-6.287,24.618c-0.16,0.638-0.238,1.502,0.064,2.014c1.631,2.76,3.396,5.442,5.129,8.173
		C456.952,305.427,462.265,284.66,462.151,276.767z M43.323,206.796c2.197-1.11,4.06-2.23,6.055-3.01
		c2.231-0.872,3.26-2.381,3.971-4.639c2.221-7.049,4.764-13.997,7.049-21.026c0.31-0.953,0.149-2.285-0.286-3.208
		c-1.28-2.719-2.809-5.32-4.23-7.951C51.244,174.141,43.192,199.346,43.323,206.796z M392.921,404.423
		c5.641-2.021,25.713-25.956,27.611-31.001c-2.523,0-5.018,0.332-7.365-0.111c-1.709-0.322-2.434,0.251-3.396,1.336
		c-5.324,6.003-10.719,11.943-16.063,17.93c-0.377,0.423-0.74,1.043-0.752,1.578C392.888,397.479,392.921,400.808,392.921,404.423z
		 M39.753,277.096c-0.637,6.197,6.598,34.215,10.058,39.279c1.683-2.759,3.431-5.482,5.002-8.305c0.373-0.669,0.381-1.73,0.17-2.506
		c-2.03-7.479-4.122-14.941-6.262-22.391c-0.257-0.896-0.695-2.049-1.406-2.448C44.905,279.373,42.334,278.306,39.753,277.096z
		 M380.36,83.913c0.232,3.882,0.357,7.174,0.686,10.445c0.068,0.687,0.795,1.384,1.359,1.935
		c5.678,5.558,11.381,11.092,17.096,16.611c0.631,0.609,1.359,1.514,2.086,1.558c2.99,0.176,5.998,0.074,9,0.074
		c0.072-0.289,0.143-0.577,0.215-0.865C401.872,102.808,392.083,92.818,380.36,83.913z M80.387,373.559
		c8.401,11.11,16.99,21.213,27.697,30.156c0.29-3.807,0.562-7.097,0.759-10.391c0.022-0.367-0.312-0.822-0.596-1.131
		c-5.57-6.037-11.147-12.068-16.76-18.066c-0.452-0.482-1.179-1.012-1.771-1.004C86.848,373.158,83.983,373.371,80.387,373.559z
		 M284.993,43.919c1.316,3.005,2.393,5.665,3.674,8.223c0.285,0.57,1.242,0.941,1.963,1.132c7.85,2.079,15.711,4.124,23.584,6.113
		c0.787,0.199,1.844,0.263,2.498-0.104c2.424-1.359,4.73-2.925,7.57-4.724C311.505,48.974,298.542,45.952,284.993,43.919z
		 M120.105,84.688c-11.333,7.804-20.442,17.878-29.852,28.543c2.765,0,5.007-0.158,7.217,0.043c2.354,0.214,4.036-0.535,5.726-2.208
		c5.151-5.099,10.497-10,15.739-15.008c0.491-0.469,1.096-1.134,1.117-1.728C120.165,91.216,120.105,88.094,120.105,84.688z
		 M306.017,424.258c-0.402,5.487-0.814,11.133-1.23,16.797c5.625-0.589,19.807-6.335,22.543-8.936
		c-2.861-3.257-5.66-6.548-8.604-9.703c-0.555-0.595-1.781-1.048-2.545-0.878C312.845,422.283,309.565,423.282,306.017,424.258z
		 M216.688,44.186c-13.331,1.576-25.71,4.745-37.949,10.013c2.43,1.681,4.438,3.221,6.603,4.492c0.86,0.506,2.153,0.77,3.107,0.544
		c7.38-1.742,14.733-3.6,22.07-5.515c0.939-0.245,2.11-0.821,2.534-1.595C214.343,49.77,215.321,47.243,216.688,44.186z
		 M196.248,441.956c-0.155-5.546-0.236-10.481-0.491-15.408c-0.038-0.742-0.735-1.843-1.39-2.095
		c-2.778-1.066-5.637-1.943-8.509-2.73c-0.717-0.196-1.951-0.098-2.347,0.372c-3.039,3.598-5.93,7.321-9.132,11.34
		C181.487,436.204,188.86,439.077,196.248,441.956z M70.77,283.806c-6.262-0.383-11.97-0.732-17.968-1.099
		c1.906,6.876,3.8,13.709,5.625,20.293c5.005-3.157,9.766-6.162,14.928-9.419C72.561,290.579,71.622,287.028,70.77,283.806z
		 M448.485,283.188c-5.949,0.146-11.324,0.248-16.697,0.467c-0.492,0.021-1.244,0.723-1.381,1.239
		c-0.803,3.02-1.455,6.077-2.008,8.467c5.195,3.402,9.918,6.496,15.211,9.964C445.245,296.573,446.884,289.801,448.485,283.188z
		 M444.019,201.49c-2.084-6.561-4.189-13.198-6.336-19.958c-3.211,2.496-6.002,4.76-8.898,6.878
		c-1.674,1.225-4.367,1.85-5.041,3.416c-0.627,1.456,0.797,3.809,1.359,5.754c0.275,0.955,0.521,1.955,1.02,2.793
		c0.305,0.511,1.057,1.06,1.615,1.069C432.935,201.523,438.132,201.49,444.019,201.49z M311.479,63.007
		c-6.824-1.751-13.73-3.524-20.654-5.301c0.371,6.068,0.697,11.446,1.023,16.774c3.484,0.868,6.955,1.732,10.096,2.514
		C305.067,72.412,308.108,67.951,311.479,63.007z M391.198,365.674c-2.264,2.565-4.631,5.249-6.633,7.52
		c2.531,5.454,4.855,10.462,7.4,15.948c4.775-5.724,9.422-11.297,14.084-16.885C400.829,369.942,396.163,367.875,391.198,365.674z
		 M380.411,100.521c-1.273,3.171-2.311,5.95-3.506,8.659c-0.99,2.244-3.303,4.605-2.961,6.552c0.389,2.22,3.148,3.978,4.729,6.051
		c1.219,1.6,2.328,1.414,3.926,0.537c3.842-2.109,7.801-4.005,11.703-6.004c0.367-0.188,0.67-0.502,1.146-0.87
		c-1.029-1.272-1.824-2.496-2.85-3.478C388.63,108.161,384.589,104.431,380.411,100.521z M63.956,179.598
		c-2.43,7.209-4.675,13.87-6.859,20.35c6.323,0,12.128,0,17.908,0c0.823-2.544,1.481-4.879,2.341-7.136
		c0.596-1.564,0.299-2.597-1.186-3.345C71.614,187.18,67.438,184.407,63.956,179.598z M190.607,62.9
		c2.983,4.754,5.557,8.939,8.25,13.046c0.359,0.549,1.418,1.108,1.991,0.973c3.129-0.74,6.208-1.695,9.022-2.496
		c0.265-5.535,0.517-10.798,0.79-16.506C204.031,59.564,197.296,61.238,190.607,62.9z M95.341,372.35
		c4.86,5.38,9.645,10.676,14.39,15.928c2.586-5.296,4.949-10.135,7.402-15.158c-2.345-2.234-4.946-4.715-7.434-7.086
		C105.123,368.046,100.447,370.104,95.341,372.35z M121.049,122.45c2.009-2.327,4.222-4.889,6.177-7.152
		c-2.111-4.844-4.242-9.73-6.517-14.953c-5.095,4.826-9.984,9.458-14.905,14.12C110.86,117.113,115.629,119.611,121.049,122.45z
		 M189.139,404.483c-0.975,4.24-1.896,8.246-2.923,12.719c3.381,1.021,6.835,2.063,10.287,3.104
		c1.491-4.037,2.789-7.547,4.183-11.32C196.799,407.471,192.977,405.979,189.139,404.483z M413.38,279.148
		c-0.771,4.141-1.475,7.92-2.207,11.846c4.285,0.521,8.451,1.027,12.912,1.569c0.705-3.366,1.381-6.588,2.059-9.814
		C421.851,281.538,417.8,280.396,413.38,279.148z M87.409,277.969c-3.635,1.35-6.789,2.406-9.83,3.724
		c-0.848,0.368-2.018,1.614-1.912,2.276c0.446,2.797,1.319,5.525,2.006,8.16c4.323-0.543,8.334-1.047,12.436-1.563
		C89.215,286.398,88.32,282.222,87.409,277.969z M95.318,195.041c-4.557-1.018-8.773-1.96-13.141-2.935
		c-0.948,3.078-1.885,6.123-2.823,9.172c4.187,1.794,8.133,3.485,12.242,5.246C92.853,202.646,94.048,198.959,95.318,195.041z
		 M301.784,408.87c0.361,1.244,0.691,2.438,1.051,3.621c2.418,7.96,3.076,8.244,11.076,5.149c1.395-0.539,1.982-1.145,1.568-2.772
		c-0.881-3.467-1.533-6.991-2.301-10.586C309.476,405.773,305.739,407.278,301.784,408.87z M210.667,78.495
		c-2.962,0.976-5.79,1.847-8.558,2.88c-0.466,0.174-1.004,1.087-0.945,1.593c0.41,3.531,0.969,7.045,1.498,10.688
		c4.171-1.175,8.207-2.313,12.405-3.495C213.611,86.297,212.251,82.694,210.667,78.495z M131.964,136.334
		c3.125-3.245,6.006-6.236,8.852-9.191c-3.327-2.514-6.8-5.139-10.365-7.832c-2.043,2.156-4.082,4.308-6.057,6.393
		C126.983,129.34,129.391,132.721,131.964,136.334z M377.384,125.958c-2.627-2.33-5.141-4.562-7.359-6.531
		c-3.441,2.797-6.541,5.317-9.275,7.538c2.885,2.934,5.771,5.869,8.59,8.733C371.757,132.771,374.419,129.548,377.384,125.958z
		 M300.884,81.148c-3.08-0.667-6.1-1.366-9.146-1.923c-0.354-0.065-1.049,0.555-1.248,1.007c-1.441,3.273-2.797,6.585-4.174,9.873
		c3.908,0.934,7.75,1.853,11.879,2.84C299.036,89.258,299.87,85.593,300.884,81.148z M419.022,193.734
		c-4.369,0.793-8.398,1.524-12.432,2.257c1.219,3.902,2.338,7.484,3.459,11.074c4.039-1.58,7.953-3.109,12.006-4.694
		C421.005,199.381,420.003,196.531,419.022,193.734z M113.437,362.564c1.697,1.928,3.356,3.948,5.184,5.803
		c0.511,0.519,1.812,1.005,2.256,0.724c2.946-1.861,5.757-3.935,8.771-6.05c-2.798-3.225-5.407-6.232-7.988-9.208
		C118.81,356.858,116.165,359.667,113.437,362.564z M380.749,369.718c2.621-2.447,5.059-4.722,7.633-7.126
		c-3.012-2.805-5.682-5.29-8.5-7.914c-2.711,3.002-5.273,5.841-8.033,8.898C375.03,365.771,377.897,367.75,380.749,369.718z"/>
	<path fill-rule="evenodd" clip-rule="evenodd" d="M478.54,279.91c0.094,2.969-1.299,3.954-2.84,3.61
		c-1.17-0.261-2.07-1.732-3.092-2.665c1.082-0.882,2.072-2.262,3.273-2.481C476.782,278.209,477.954,279.54,478.54,279.91z"/>
	<path fill-rule="evenodd" clip-rule="evenodd" d="M306.226,471.282c-1.08,0.646-2.467,2.051-3.17,1.766
		c-1.127-0.457-2.178-1.935-2.494-3.177c-0.139-0.542,1.725-2.311,2.488-2.201c1.178,0.171,2.189,1.478,3.271,2.302
		C306.29,470.409,306.257,470.846,306.226,471.282z"/>
	<path fill-rule="evenodd" clip-rule="evenodd" d="M36.213,178.769c-1.275-1.863-2.524-2.88-2.592-3.972
		c-0.107-1.713,1.36-3.025,3.037-2.585c1.049,0.275,2.417,1.782,2.451,2.777C39.142,175.96,37.664,176.985,36.213,178.769z"/>
	<path fill-rule="evenodd" clip-rule="evenodd" d="M289.263,471.044c0.393,0.577,1.541,1.55,1.709,2.669
		c0.266,1.772-1.08,3.014-2.795,2.699c-1.055-0.192-2.604-1.396-2.703-2.282C285.298,472.545,286.179,470.979,289.263,471.044z"/>
	<path fill-rule="evenodd" clip-rule="evenodd" d="M219.876,29.63c-1.812,1.357-2.909,2.808-3.844,2.71
		c-1.018-0.106-2.43-1.521-2.689-2.601c-0.401-1.675,0.856-3.17,2.631-2.942C217.086,26.94,218.049,28.243,219.876,29.63z"/>
	<path fill-rule="evenodd" clip-rule="evenodd" d="M215.541,476.617c-2.412-0.527-3.176-1.633-3.191-3.293
		c-0.018-1.885,1.357-2.519,2.891-2.565c1.767-0.054,2.856,1.248,2.576,2.789C217.612,474.671,216.338,475.601,215.541,476.617z"/>
	<path fill-rule="evenodd" clip-rule="evenodd" d="M415.874,93.766c-0.938,0.789-1.791,2.075-2.832,2.251
		c-1.711,0.29-2.854-0.875-2.863-2.746c-0.01-1.812,1.154-2.758,2.748-2.527c1.027,0.148,1.928,1.167,2.883,1.795
		C415.831,92.949,415.853,93.358,415.874,93.766z"/>
	<path fill-rule="evenodd" clip-rule="evenodd" d="M472.058,209.616c-0.568-0.979-1.461-1.904-1.635-2.949
		c-0.313-1.885,1.039-3.048,2.703-2.75c0.99,0.178,2.477,1.676,2.434,2.511c-0.059,1.11-1.393,2.154-2.178,3.225
		C472.94,209.642,472.499,209.629,472.058,209.616z"/>
	<path fill-rule="evenodd" clip-rule="evenodd" d="M472.733,299.221c-0.645-1.104-1.936-2.327-1.76-3.281
		c0.189-1.025,1.65-2.348,2.74-2.551c1.646-0.306,2.787,1.172,2.42,2.75c-0.27,1.149-1.484,2.078-2.279,3.105
		C473.481,299.236,473.106,299.229,472.733,299.221z"/>
	<path fill-rule="evenodd" clip-rule="evenodd" d="M290.663,29.419c-1.84,1.264-2.824,2.42-3.969,2.613
		c-1.691,0.285-2.939-1.087-2.48-2.666c0.316-1.089,1.721-2.333,2.832-2.559C287.821,26.649,288.925,28.095,290.663,29.419z"/>
	<path fill-rule="evenodd" clip-rule="evenodd" d="M42.615,157.55c0.719,1.049,1.976,2.091,1.989,3.148
		c0.011,0.863-1.377,2.354-2.298,2.485c-1.625,0.23-3.038-0.925-2.745-2.775c0.162-1.024,1.172-1.915,1.799-2.866
		C41.779,157.545,42.197,157.547,42.615,157.55z"/>
	<path fill-rule="evenodd" clip-rule="evenodd" d="M191.395,34.282c-0.524,2.387-1.575,3.577-3.174,3.16
		c-1.063-0.277-1.821-1.73-2.715-2.656c0.95-0.908,1.818-2.395,2.876-2.545C189.271,32.114,190.382,33.542,191.395,34.282z"/>
	<path fill-rule="evenodd" clip-rule="evenodd" d="M78.796,99.101c2.427,0.552,3.573,1.682,3.1,3.227
		c-0.324,1.056-1.786,2.194-2.905,2.403c-0.613,0.114-2.211-1.627-2.207-2.527C76.789,101.166,78.07,100.135,78.796,99.101z"/>
	<path fill-rule="evenodd" clip-rule="evenodd" d="M31.08,295.609c-1.142,0.726-2.231,1.856-3.447,2.017
		c-0.667,0.088-2.048-1.371-2.225-2.3c-0.32-1.68,0.794-3.13,2.572-2.943c1.087,0.113,2.063,1.297,3.089,2
		C31.073,294.792,31.077,295.2,31.08,295.609z"/>
	<path fill-rule="evenodd" clip-rule="evenodd" d="M390.743,70.216c0.734,0.936,2.156,1.968,2.041,2.783
		c-0.16,1.129-1.475,2.094-2.295,3.13c-0.965-0.896-2.486-1.666-2.723-2.724c-0.199-0.884,1.107-2.105,1.746-3.177
		C389.923,70.224,390.333,70.22,390.743,70.216z"/>
	<path fill-rule="evenodd" clip-rule="evenodd" d="M405.401,417.349c-0.945,0.655-1.818,1.675-2.852,1.88
		c-1.596,0.316-3.098-0.732-2.865-2.333c0.154-1.061,1.545-2.506,2.586-2.702c0.896-0.169,2.078,1.187,3.135,1.867
		C405.405,416.49,405.403,416.919,405.401,417.349z"/>
	<path fill-rule="evenodd" clip-rule="evenodd" d="M32.302,306.794c0.66,1.072,1.984,2.278,1.802,3.181
		c-0.205,1.016-1.669,2.296-2.762,2.496c-1.83,0.335-2.533-1.271-2.151-2.826c0.258-1.052,1.226-1.928,1.876-2.883
		C31.479,306.772,31.891,306.783,32.302,306.794z"/>
	<path fill-rule="evenodd" clip-rule="evenodd" d="M344.265,451.527c1.355,1.792,2.59,2.734,2.809,3.872
		c0.328,1.719-1.207,2.844-2.68,2.502c-1.047-0.243-2.303-1.637-2.523-2.709C341.706,454.392,343.05,453.282,344.265,451.527z"/>
	<path fill-rule="evenodd" clip-rule="evenodd" d="M461.909,323.03c0.996-0.574,2.16-1.779,2.947-1.57
		c1.086,0.288,1.889,1.646,2.811,2.544c-0.955,0.875-1.863,2.364-2.881,2.443c-0.924,0.073-1.969-1.389-2.959-2.174
		C461.854,323.859,461.882,323.444,461.909,323.03z"/>
	<path fill-rule="evenodd" clip-rule="evenodd" d="M425.831,102.935c-1.766,1.242-2.902,2.622-3.664,2.44
		c-1.117-0.268-1.969-1.654-2.932-2.564c0.932-0.848,1.797-2.248,2.82-2.376C422.942,100.324,424.009,101.655,425.831,102.935z"/>
	<path fill-rule="evenodd" clip-rule="evenodd" d="M27.913,208.563c-0.69-0.925-1.805-1.781-1.974-2.792
		c-0.266-1.604,0.681-2.714,2.542-2.736c1.633-0.019,2.853,0.698,2.608,2.32c-0.169,1.126-1.223,2.12-1.882,3.172
		C28.775,208.539,28.344,208.552,27.913,208.563z"/>
	<path fill-rule="evenodd" clip-rule="evenodd" d="M36.012,327.329c-0.612-0.985-1.805-2.05-1.685-2.937
		c0.138-1.013,1.316-2.443,2.271-2.653c1.435-0.315,3.058,0.579,2.709,2.443c-0.213,1.138-1.271,2.117-1.949,3.167
		C36.91,327.343,36.461,327.336,36.012,327.329z"/>
	<path fill-rule="evenodd" clip-rule="evenodd" d="M469.868,306.84c0.646,0.993,1.709,1.933,1.846,2.991
		c0.195,1.515-0.73,3.056-2.486,2.667c-1.01-0.225-2.451-1.575-2.465-2.439c-0.018-1.063,1.246-2.148,1.957-3.225
		C469.103,306.836,469.485,306.838,469.868,306.84z"/>
	<path fill-rule="evenodd" clip-rule="evenodd" d="M103.678,416.567c-1.842,1.302-2.808,2.473-3.94,2.664
		c-1.559,0.266-3.022-0.87-2.542-2.541c0.309-1.075,1.697-2.296,2.799-2.533C100.785,413.987,101.902,415.338,103.678,416.567z"/>
	<path fill-rule="evenodd" clip-rule="evenodd" d="M469.61,194.883c-2.346-0.618-3.547-1.61-2.988-3.227
		c0.363-1.048,1.789-2.266,2.83-2.355c0.721-0.063,2.211,1.659,2.23,2.605C471.702,192.884,470.358,193.89,469.61,194.883z"/>
	<path fill-rule="evenodd" clip-rule="evenodd" d="M427.489,384.699c1.75-1.296,2.645-2.466,3.676-2.603
		c1.518-0.201,2.746,0.801,2.658,2.582c-0.082,1.656-1.02,2.893-2.725,2.556C430.062,387.03,429.196,385.947,427.489,384.699z"/>
	<path fill-rule="evenodd" clip-rule="evenodd" d="M186.049,463.119c0.634,0.972,1.87,2.03,1.745,2.892
		c-0.142,0.979-1.381,2.31-2.361,2.532c-1.451,0.33-3.035-0.53-2.636-2.404c0.237-1.119,1.302-2.062,1.995-3.084
		C185.211,463.076,185.63,463.098,186.049,463.119z"/>
	<path fill-rule="evenodd" clip-rule="evenodd" d="M173.681,461.932c-1.044,0.703-2.106,1.965-3.125,1.931
		c-0.803-0.027-2.223-1.711-2.147-2.549c0.084-0.935,1.464-2.292,2.438-2.442c0.828-0.129,1.882,1.195,2.835,1.878
		C173.683,461.143,173.682,461.537,173.681,461.932z"/>
	<path fill-rule="evenodd" clip-rule="evenodd" d="M157.038,459.233c-1.284-1.676-2.475-2.545-2.603-3.551
		c-0.214-1.679,1.118-2.854,2.742-2.432c1.017,0.265,2.336,1.519,2.45,2.459C159.727,456.541,158.348,457.552,157.038,459.233z"/>
	<path fill-rule="evenodd" clip-rule="evenodd" d="M423.208,392.159c0.629,0.932,1.904,2.005,1.738,2.762
		c-0.248,1.131-1.512,2.039-2.344,3.042c-0.934-0.898-2.434-1.69-2.627-2.726c-0.162-0.874,1.193-2.03,1.877-3.062
		C422.304,392.17,422.757,392.165,423.208,392.159z"/>
	<path fill-rule="evenodd" clip-rule="evenodd" d="M34.473,191.311c-0.98,0.643-2.067,1.91-2.914,1.766
		c-1.001-0.169-2.348-1.444-2.554-2.444c-0.337-1.635,0.979-2.856,2.647-2.545c1.042,0.194,1.91,1.323,2.855,2.033
		C34.496,190.518,34.484,190.914,34.473,191.311z"/>
	<path fill-rule="evenodd" clip-rule="evenodd" d="M114.475,71.638c-0.235,2.617-1.631,3.438-3.086,3.248
		c-0.846-0.11-1.954-1.486-2.162-2.46c-0.338-1.578,0.545-3.031,2.401-2.701C112.658,69.908,113.531,70.972,114.475,71.638z"/>
	<path fill-rule="evenodd" clip-rule="evenodd" d="M320.37,466.96c-0.949,0.685-2.008,2.029-2.816,1.895
		c-1.111-0.187-2.033-1.497-3.035-2.326c0.939-0.892,1.773-2.278,2.855-2.514c0.818-0.177,1.955,1.119,2.949,1.76
		C320.339,466.17,320.354,466.564,320.37,466.96z"/>
	<path fill-rule="evenodd" clip-rule="evenodd" d="M412.409,402.453c1.307,1.781,2.691,2.852,2.572,3.715
		c-0.145,1.05-1.557,1.926-2.418,2.877c-0.867-0.809-2.414-1.604-2.432-2.432C410.108,405.511,411.274,404.383,412.409,402.453z"/>
	<path fill-rule="evenodd" clip-rule="evenodd" d="M401.946,79.542c0.525,1.007,1.402,1.982,1.498,3.029
		c0.154,1.674-1.051,2.913-2.668,2.483c-0.951-0.253-2.199-1.714-2.195-2.627c0.006-1.001,1.297-1.996,2.029-2.993
		C401.056,79.47,401.501,79.506,401.946,79.542z"/>
	<path fill-rule="evenodd" clip-rule="evenodd" d="M90.12,409.598c-1.658-0.002-3.036-0.724-2.682-2.461
		c0.199-0.977,1.55-2.36,2.417-2.385c0.925-0.027,2.468,1.182,2.706,2.115C92.934,408.334,92.025,409.637,90.12,409.598z"/>
	<path fill-rule="evenodd" clip-rule="evenodd" d="M69.388,387.565c-0.676-1.095-1.919-2.223-1.856-3.273
		c0.054-0.908,1.488-2.194,2.51-2.421c0.668-0.148,2.437,1.345,2.392,2.015c-0.084,1.245-1.132,2.426-1.779,3.633
		C70.232,387.534,69.81,387.55,69.388,387.565z"/>
	<path fill-rule="evenodd" clip-rule="evenodd" d="M312.769,38.116c-1.217-1.771-2.357-2.701-2.455-3.731
		c-0.172-1.805,1.371-2.644,2.91-2.226c0.914,0.249,2.188,1.568,2.146,2.345C315.317,35.481,314.087,36.395,312.769,38.116z"/>
	<path fill-rule="evenodd" clip-rule="evenodd" d="M324.538,39.062c0.984-0.666,2.072-1.965,2.926-1.827
		c0.941,0.152,2.285,1.61,2.309,2.528c0.021,0.852-1.436,2.399-2.299,2.442c-0.977,0.048-2.018-1.242-3.031-1.951
		C324.476,39.856,324.507,39.459,324.538,39.062z"/>
	<path fill-rule="evenodd" clip-rule="evenodd" d="M331.856,458.638c0.596,1.009,1.785,2.125,1.627,3
		c-0.176,0.988-1.568,2.442-2.424,2.437c-0.902-0.007-2.48-1.472-2.512-2.345c-0.035-1.024,1.277-2.097,2.004-3.148
		C330.985,458.6,331.421,458.618,331.856,458.638z"/>
	<path fill-rule="evenodd" clip-rule="evenodd" d="M204.461,31.545c0.059,1.91-1.393,2.756-2.778,2.42
		c-0.917-0.222-1.933-1.815-2.054-2.89c-0.075-0.667,1.383-2.065,2.254-2.155C203.33,28.771,204.759,29.505,204.461,31.545z"/>
	<path fill-rule="evenodd" clip-rule="evenodd" d="M456.208,161.765c1.012-0.732,1.982-1.936,3.053-2.03
		c0.711-0.063,2.258,1.528,2.184,2.251c-0.102,1.004-1.238,2.423-2.186,2.663c-0.803,0.203-1.967-1.014-2.971-1.602
		C456.261,162.621,456.233,162.193,456.208,161.765z"/>
	<path fill-rule="evenodd" clip-rule="evenodd" d="M465.661,179.244c-2.801,0.226-4.012-0.704-3.568-2.556
		c0.238-0.997,1.529-1.743,2.344-2.602c0.855,0.864,2.193,1.62,2.42,2.626C467.046,177.559,465.946,178.697,465.661,179.244z"/>
	<path fill-rule="evenodd" clip-rule="evenodd" d="M200.643,467.151c0.61,1.011,1.789,2.093,1.673,3.012
		c-0.121,0.954-1.459,2.384-2.329,2.432c-0.823,0.044-2.424-1.436-2.424-2.246c-0.001-1.068,1.226-2.138,1.925-3.206
		C199.873,467.146,200.257,467.148,200.643,467.151z"/>
	<path fill-rule="evenodd" clip-rule="evenodd" d="M178.365,40.013c-1.626,1.277-2.682,2.71-3.489,2.582
		c-0.926-0.147-2.285-1.708-2.247-2.603c0.037-0.874,1.49-2.102,2.528-2.368C175.797,37.459,176.823,38.806,178.365,40.013z"/>
	<path fill-rule="evenodd" clip-rule="evenodd" d="M24.729,283.307c-0.639-0.967-1.9-2.041-1.756-2.872
		c0.172-0.993,1.546-1.778,2.399-2.654c0.867,0.856,2.318,1.644,2.43,2.589c0.104,0.886-1.212,1.938-1.904,2.916
		C25.508,283.292,25.119,283.3,24.729,283.307z"/>
	<path fill-rule="evenodd" clip-rule="evenodd" d="M303.454,31.675c-1.645,1.087-2.801,2.422-3.619,2.24
		c-0.885-0.197-2.104-1.91-1.975-2.784c0.131-0.888,1.662-2.008,2.707-2.162C301.226,28.871,302.12,30.36,303.454,31.675z"/>
	<path fill-rule="evenodd" clip-rule="evenodd" d="M99.979,78.298c1.21,1.666,2.296,2.542,2.509,3.596
		c0.328,1.62-0.936,2.763-2.436,2.341c-1.027-0.29-2.172-1.553-2.452-2.599C97.425,80.983,98.759,79.926,99.979,78.298z"/>
	<path fill-rule="evenodd" clip-rule="evenodd" d="M90.146,88.044c1.019,1.685,2.238,2.891,1.99,3.469
		c-0.453,1.057-1.772,1.744-2.73,2.585c-0.752-0.93-2.102-1.871-2.085-2.787C87.337,90.422,88.756,89.559,90.146,88.044z"/>
	<path fill-rule="evenodd" clip-rule="evenodd" d="M78.641,398.144c-0.542-0.938-1.706-2.079-1.48-2.762
		c0.329-0.996,1.657-1.661,2.56-2.468c0.734,0.844,2.064,1.699,2.047,2.527c-0.02,0.951-1.232,1.878-1.927,2.815
		C79.441,398.219,79.042,398.181,78.641,398.144z"/>
	<path fill-rule="evenodd" clip-rule="evenodd" d="M99.511,254.545c-0.924-81.056,58.525-148.393,141.707-153.694
		c88.16-5.619,155.525,62.489,160.542,140.013c5.887,90.938-66.881,158.454-143.916,162.05
		C174.153,406.82,101.424,338.015,99.511,254.545z M103.839,250.566c0.163,83.886,70.551,148.235,146.956,147.874
		c81.501-0.386,148.44-67.809,146.993-149.487c-1.473-83.275-71.162-146.079-150.018-143.736
		C164.074,107.703,104.684,172.922,103.839,250.566z"/>
	<path fill-rule="evenodd" clip-rule="evenodd" d="M251.088,380.295c-68.514,1.098-128.751-58.072-128.164-128.284
		c0.616-73.587,56.879-126.195,123.361-128.376c75.818-2.488,130.912,59.122,132.699,123.455
		C381.136,324.631,317.694,380.3,251.088,380.295z M374.739,251.862c0.416-67.416-56.375-126.428-128.91-123.721
		c-65.193,2.433-119.471,55.221-118.438,125.97c1.006,68.886,60.089,124.838,128.873,121.583
		C318.2,372.763,374.798,321.459,374.739,251.862z"/>
	<path fill-rule="evenodd" clip-rule="evenodd" d="M379.565,307.387c-0.609,0.403-1.662,1.629-2.832,1.755
		c-1.732,0.187-2.979-1.247-2.619-2.951c0.223-1.054,1.49-2.58,2.381-2.646C378.036,303.428,379.726,304.203,379.565,307.387z"/>
	<path fill-rule="evenodd" clip-rule="evenodd" d="M384.536,225.705c-0.824-0.937-2.162-1.774-2.367-2.831
		c-0.412-2.13,1.285-3.09,3.121-3.228c1.883-0.142,2.322,1.279,2.389,2.896C387.753,224.388,386.823,225.165,384.536,225.705z"/>
	<path fill-rule="evenodd" clip-rule="evenodd" d="M352.646,348.316c-1.514,1.232-2.492,2.598-3.65,2.775
		c-0.809,0.124-2.313-1.206-2.703-2.201c-0.551-1.401,1.588-3.839,2.908-3.412C350.298,345.832,351.128,347.013,352.646,348.316z"/>
	<path fill-rule="evenodd" clip-rule="evenodd" d="M243.232,385.685c0.816,0.983,2.324,2.012,2.265,2.939
		c-0.067,1.046-1.376,2.541-2.446,2.876c-1.781,0.558-3.045-0.95-2.988-2.578c0.038-1.087,1.233-2.134,1.91-3.198
		C242.392,385.711,242.812,385.697,243.232,385.685z"/>
	<path fill-rule="evenodd" clip-rule="evenodd" d="M356.222,159.706c0.836,1.21,2.205,2.373,2.316,3.645
		c0.07,0.82-1.707,1.802-2.654,2.711c-0.91-1.09-2.244-2.066-2.576-3.31c-0.211-0.794,1.059-1.983,1.666-2.995
		C355.39,159.74,355.806,159.723,356.222,159.706z"/>
	<path fill-rule="evenodd" clip-rule="evenodd" d="M113.516,221.044c1.146-0.7,2.356-2.021,3.419-1.911
		c0.905,0.094,2.147,1.747,2.336,2.863c0.311,1.832-1.336,2.921-2.896,2.688c-1.065-0.159-1.945-1.56-2.908-2.405
		C113.485,221.867,113.5,221.455,113.516,221.044z"/>
	<path fill-rule="evenodd" clip-rule="evenodd" d="M132.26,324.9c-0.637-1.01-1.968-2.218-1.75-2.983
		c0.34-1.19,1.735-2.08,2.682-3.098c0.866,0.941,2.438,1.899,2.417,2.819c-0.027,1.132-1.385,2.231-2.167,3.345
		C133.048,324.956,132.655,324.929,132.26,324.9z"/>
	<path fill-rule="evenodd" clip-rule="evenodd" d="M304.96,123.58c-1.699,1.461-2.541,2.727-3.625,2.989
		c-1.563,0.378-3.053-0.763-2.74-2.394c0.229-1.201,1.422-2.643,2.541-3.087C301.786,120.83,303.134,122.329,304.96,123.58z"/>
	<path fill-rule="evenodd" clip-rule="evenodd" d="M145.321,165.522c-0.702-1.173-1.935-2.351-1.925-3.517
		c0.007-0.805,1.882-2.356,2.656-2.206c1.057,0.206,2.455,1.634,2.593,2.685c0.121,0.924-1.289,2.049-2.023,3.085
		C146.188,165.554,145.754,165.538,145.321,165.522z"/>
	<path fill-rule="evenodd" clip-rule="evenodd" d="M165.805,355.358c0.778,1.112,2.162,2.231,2.152,3.338
		c-0.008,0.971-1.444,2.521-2.49,2.759c-1.804,0.41-2.861-1.235-2.713-2.828c0.104-1.125,1.226-2.156,1.893-3.229
		C165.032,355.385,165.418,355.371,165.805,355.358z"/>
	<path fill-rule="evenodd" clip-rule="evenodd" d="M375.069,187.315c0.701,1.145,1.91,2.28,1.932,3.438
		c0.016,0.835-1.42,2.18-2.434,2.447c-1.768,0.465-2.766-1.031-2.619-2.561c0.109-1.142,1.131-2.196,1.746-3.29
		C374.153,187.338,374.61,187.326,375.069,187.315z"/>
	<path fill-rule="evenodd" clip-rule="evenodd" d="M135.645,171.615c1.396,1.741,2.88,2.813,2.744,3.606
		c-0.207,1.204-1.539,2.216-2.392,3.309c-0.971-0.871-2.632-1.672-2.728-2.63C133.16,174.822,134.463,173.602,135.645,171.615z"/>
	<path fill-rule="evenodd" clip-rule="evenodd" d="M347.245,150.332c0.182,2.965-1.156,3.864-2.801,3.576
		c-0.998-0.175-1.797-1.488-2.688-2.29c1.002-0.959,1.869-2.331,3.059-2.722C345.513,148.667,346.724,149.998,347.245,150.332z"/>
	<path fill-rule="evenodd" clip-rule="evenodd" d="M204.518,123.878c-1.815,1.386-2.888,2.839-3.871,2.782
		c-1.026-0.06-2.636-1.5-2.746-2.477c-0.101-0.887,1.422-2.707,2.319-2.766C201.332,121.343,202.536,122.659,204.518,123.878z"/>
	<path fill-rule="evenodd" clip-rule="evenodd" d="M172.94,140.742c-1.197,0.805-2.324,2-3.625,2.236
		c-0.577,0.104-2.08-1.691-2.147-2.692c-0.118-1.752,1.315-2.835,3.086-2.517c0.954,0.171,1.768,1.116,2.644,1.712
		C172.913,139.902,172.927,140.322,172.94,140.742z"/>
	<path fill-rule="evenodd" clip-rule="evenodd" d="M113.822,252.196c1.125,1.85,2.484,3.214,2.205,3.816
		c-0.516,1.114-1.906,2.196-3.111,2.455c-0.58,0.124-2.336-1.8-2.195-2.536C110.937,254.797,112.326,253.885,113.822,252.196z"/>
	<path fill-rule="evenodd" clip-rule="evenodd" d="M368.333,176.116c-0.02,2.16-1.141,3.205-2.727,2.807
		c-0.988-0.249-2.193-1.526-2.404-2.531c-0.326-1.551,0.629-2.701,2.521-2.66C367.56,173.771,368.267,174.769,368.333,176.116z"/>
	<path fill-rule="evenodd" clip-rule="evenodd" d="M261.282,389.646c-1.021,0.755-1.979,1.999-3.082,2.146
		c-1.518,0.202-2.973-0.938-2.484-2.655c0.318-1.115,1.537-2.567,2.527-2.719c0.891-0.137,2.021,1.294,3.047,2.033
		C261.288,388.851,261.284,389.248,261.282,389.646z"/>
	<path fill-rule="evenodd" clip-rule="evenodd" d="M115.619,276.007c-2.654,0.222-3.605-0.685-3.729-2.404
		c-0.109-1.516,0.461-3.024,2.135-2.773c1.16,0.175,2.783,1.265,3.045,2.252C117.311,273.986,116.006,275.303,115.619,276.007z"/>
	<path fill-rule="evenodd" clip-rule="evenodd" d="M123.787,206.26c-1.056,0.636-2.055,1.651-3.181,1.819
		c-1.697,0.254-2.913-1.094-2.523-2.633c0.269-1.063,1.676-2.402,2.715-2.538c0.91-0.119,2.017,1.269,3.036,1.991
		C123.819,205.353,123.803,205.806,123.787,206.26z"/>
	<path fill-rule="evenodd" clip-rule="evenodd" d="M379.726,209.023c-0.588-1.007-1.607-1.991-1.664-3.028
		c-0.094-1.692,1.111-3.1,2.861-2.667c0.914,0.226,2.084,1.803,2.066,2.748c-0.021,1.023-1.289,2.021-2.014,3.03
		C380.558,209.079,380.142,209.052,379.726,209.023z"/>
	<path fill-rule="evenodd" clip-rule="evenodd" d="M365.214,321.627c1.645-1.367,2.756-2.913,3.48-2.748
		c1.09,0.247,2.629,1.68,2.645,2.628c0.014,0.976-1.459,2.578-2.494,2.774C368.013,324.438,366.86,322.904,365.214,321.627z"/>
	<path fill-rule="evenodd" clip-rule="evenodd" d="M156.34,347.288c-1.848,1.392-2.856,2.649-4.029,2.83
		c-0.605,0.093-1.989-1.649-2.163-2.705c-0.3-1.819,0.976-2.976,2.834-2.581C153.921,345.031,154.689,346.036,156.34,347.288z"/>
	<path fill-rule="evenodd" clip-rule="evenodd" d="M272.587,386.701c1.1-0.769,2.17-2.056,3.307-2.12
		c0.756-0.042,2.387,1.825,2.236,2.555c-0.219,1.067-1.553,2.341-2.654,2.642c-0.736,0.201-1.895-1.13-2.863-1.775
		C272.604,387.567,272.595,387.135,272.587,386.701z"/>
	<path fill-rule="evenodd" clip-rule="evenodd" d="M363.163,335.537c-1.766,1.367-2.863,2.861-3.859,2.796
		c-0.908-0.061-2.189-1.702-2.439-2.838c-0.367-1.673,1.088-2.769,2.641-2.546C360.534,333.097,361.419,334.248,363.163,335.537z"/>
	<path fill-rule="evenodd" clip-rule="evenodd" d="M226.178,382.857c1.274,1.654,2.733,2.762,2.572,3.526
		c-0.23,1.097-1.635,2.681-2.556,2.693c-0.958,0.013-2.588-1.515-2.715-2.521C223.363,385.646,224.879,384.529,226.178,382.857z"/>
	<path fill-rule="evenodd" clip-rule="evenodd" d="M157.473,154.901c-1.255-1.829-2.379-2.809-2.616-3.97
		c-0.337-1.656,0.928-3.033,2.512-2.521c1.133,0.365,2.186,1.877,2.617,3.107C160.184,152.079,158.794,153.196,157.473,154.901z"/>
	<path fill-rule="evenodd" clip-rule="evenodd" d="M303.405,376.632c1.883-1.214,3.107-2.599,3.961-2.399
		c1.021,0.239,1.729,1.83,2.572,2.836c-1.008,0.838-1.938,2.167-3.051,2.345C306.124,379.535,305.103,378.06,303.405,376.632z"/>
	<path fill-rule="evenodd" clip-rule="evenodd" d="M187.98,131.448c-0.948,0.75-1.798,1.9-2.864,2.157
		c-1.699,0.408-2.95-0.857-2.721-2.461c0.143-0.998,1.413-2.475,2.292-2.562c1.022-0.101,2.171,1.083,3.266,1.71
		C187.963,130.678,187.971,131.063,187.98,131.448z"/>
	<path fill-rule="evenodd" clip-rule="evenodd" d="M217.732,115.257c0.715,1.097,1.958,2.188,1.97,3.292
		c0.009,0.817-1.721,2.423-2.433,2.297c-1.08-0.19-2.515-1.46-2.732-2.495c-0.181-0.863,1.171-2.047,1.844-3.09
		C216.832,115.261,217.282,115.259,217.732,115.257z"/>
	<path fill-rule="evenodd" clip-rule="evenodd" d="M387.634,242.244c-0.695-0.984-2.064-2.088-1.918-2.925
		c0.191-1.089,1.422-2.468,2.502-2.82c1.654-0.54,2.57,1.047,2.408,2.424c-0.139,1.162-1.164,2.22-1.797,3.323
		C388.431,242.245,388.032,242.245,387.634,242.244z"/>
	<path fill-rule="evenodd" clip-rule="evenodd" d="M110.099,239.226c1.758-1.452,2.702-2.713,3.879-2.992
		c0.563-0.134,2.02,1.479,2.273,2.5c0.435,1.753-0.814,3.063-2.534,2.952C112.729,241.622,111.811,240.444,110.099,239.226z"/>
	<path fill-rule="evenodd" clip-rule="evenodd" d="M385.36,276.555c-0.621-0.936-1.639-1.816-1.777-2.819
		c-0.254-1.837,1.053-3.051,2.779-2.65c0.992,0.229,2.33,1.635,2.371,2.563c0.043,0.95-1.305,1.964-2.043,2.95
		C386.247,276.583,385.804,276.568,385.36,276.555z"/>
	<path fill-rule="evenodd" clip-rule="evenodd" d="M124.118,190.72c1.867-1.318,2.833-2.454,3.991-2.707
		c1.601-0.35,2.478,0.86,2.456,2.477c-0.024,1.812-1.023,3.114-2.807,2.895C126.746,193.26,125.868,192.057,124.118,190.72z"/>
	<path fill-rule="evenodd" clip-rule="evenodd" d="M385.782,290.341c-1.051,0.801-2.031,2.041-3.18,2.222
		c-0.598,0.094-1.936-1.593-2.143-2.633c-0.295-1.49,0.549-3.029,2.379-2.732c1.035,0.167,1.924,1.248,2.879,1.917
		C385.739,289.523,385.763,289.932,385.782,290.341z"/>
	<path fill-rule="evenodd" clip-rule="evenodd" d="M125.741,303.453c0.604,0.993,1.618,1.945,1.723,2.989
		c0.186,1.844-1.272,2.977-2.907,2.636c-0.909-0.189-2.14-1.761-2.12-2.687c0.021-1.016,1.314-2.004,2.053-3.005
		C124.907,303.409,125.324,303.431,125.741,303.453z"/>
	<path fill-rule="evenodd" clip-rule="evenodd" d="M176.659,369.784c0.078-2.792,1.157-3.942,2.91-3.615
		c0.944,0.177,1.677,1.485,2.505,2.282c-0.977,1.005-1.804,2.38-2.993,2.857C178.481,371.55,177.228,370.169,176.659,369.784z"/>
	<path fill-rule="evenodd" clip-rule="evenodd" d="M264.37,115.48c1.68-1.3,2.77-2.751,3.547-2.601
		c1.125,0.219,2.021,1.599,3.018,2.483c-0.973,0.907-1.836,2.3-2.957,2.554C267.202,118.092,266.071,116.695,264.37,115.48z"/>
	<path fill-rule="evenodd" clip-rule="evenodd" d="M321.378,371.729c-0.637-1.02-1.957-2.226-1.742-3.015
		c0.291-1.072,1.639-2.192,2.768-2.553c0.52-0.166,2.355,1.534,2.262,2.196c-0.176,1.227-1.334,2.313-2.082,3.457
		C322.183,371.786,321.78,371.758,321.378,371.729z"/>
	<path fill-rule="evenodd" clip-rule="evenodd" d="M197.482,377.366c-1.034,0.738-2.006,1.95-3.116,2.094
		c-1.333,0.172-2.623-0.688-2.397-2.537c0.197-1.621,0.917-2.999,2.654-2.743c1.033,0.152,1.921,1.28,2.875,1.97
		C197.492,376.556,197.487,376.961,197.482,377.366z"/>
	<path fill-rule="evenodd" clip-rule="evenodd" d="M331.368,143.737c-0.684-1.043-1.773-2.021-1.957-3.145
		c-0.299-1.839,1.479-2.348,2.703-2.04c0.998,0.251,2.301,1.49,2.412,2.416c0.1,0.84-1.23,1.849-1.93,2.784
		C332.187,143.747,331.778,143.742,331.368,143.737z"/>
	<path fill-rule="evenodd" clip-rule="evenodd" d="M206.705,381.888c0.919-0.705,1.994-2.109,2.719-1.948
		c1.072,0.239,2.417,1.45,2.705,2.504c0.441,1.62-0.806,2.85-2.509,2.539c-1.042-0.19-1.928-1.232-2.883-1.892
		C206.726,382.689,206.715,382.288,206.705,381.888z"/>
	<path fill-rule="evenodd" clip-rule="evenodd" d="M141.393,338.174c-0.624-0.983-1.96-2.228-1.716-2.892
		c0.437-1.188,1.825-2.026,2.815-3.011c0.771,0.949,2.14,1.893,2.148,2.849c0.01,1.027-1.258,2.066-1.969,3.101
		C142.247,338.205,141.82,338.189,141.393,338.174z"/>
	<path fill-rule="evenodd" clip-rule="evenodd" d="M388.333,253.352c0.65,0.95,1.68,1.834,1.863,2.867
		c0.27,1.534-0.541,2.955-2.346,2.896c-1.594-0.051-2.59-1.006-2.539-2.814C385.356,254.678,385.974,253.731,388.333,253.352z"/>
	<path fill-rule="evenodd" clip-rule="evenodd" d="M122.405,289.746c-1.877,1.231-2.876,2.354-4.017,2.523
		c-1.652,0.245-2.146-1.119-2.161-2.667c-0.018-1.884,1.207-2.762,2.675-2.58C119.886,287.144,120.731,288.383,122.405,289.746z"/>
	<path fill-rule="evenodd" clip-rule="evenodd" d="M230.625,114.458c0.948-0.624,1.943-1.802,2.831-1.728
		c1.03,0.087,1.965,1.277,2.942,1.988c-0.831,1.012-1.52,2.605-2.539,2.857c-0.866,0.214-2.115-1.119-3.194-1.768
		C230.652,115.357,230.639,114.907,230.625,114.458z"/>
	<path fill-rule="evenodd" clip-rule="evenodd" d="M317.19,133.871c-0.689-0.892-2.039-1.901-1.906-2.646
		c0.18-1.007,1.65-2.636,2.293-2.517c1.076,0.199,2.318,1.423,2.73,2.505c0.219,0.569-1.176,1.752-1.842,2.657
		C318.04,133.871,317.614,133.871,317.19,133.871z"/>
	<path fill-rule="evenodd" clip-rule="evenodd" d="M255.065,114.23c-1.75,1.257-2.77,2.562-3.672,2.484
		c-0.987-0.085-1.866-1.446-2.792-2.25c0.885-0.943,1.648-2.414,2.696-2.656C252.097,111.624,253.255,112.997,255.065,114.23z"/>
	<path fill-rule="evenodd" clip-rule="evenodd" d="M285.226,121.96c-1.342-1.643-2.705-2.582-2.676-3.476
		c0.031-0.913,1.428-1.78,2.227-2.668c0.852,0.835,2.152,1.554,2.41,2.543C287.38,119.108,286.243,120.204,285.226,121.96z"/>
	<path fill-rule="evenodd" clip-rule="evenodd" d="M292.302,379.798c0.699,0.979,2.01,2.017,1.924,2.921
		c-0.084,0.885-1.508,2.069-2.514,2.272c-0.578,0.116-2.025-1.4-2.115-2.281c-0.09-0.88,1.021-1.885,1.605-2.835
		C291.569,379.85,291.935,379.823,292.302,379.798z"/>
	<path fill-rule="evenodd" clip-rule="evenodd" d="M332.464,359.419c1.609-1.17,2.611-2.454,3.537-2.403
		c0.807,0.045,2.23,1.708,2.115,2.459c-0.154,0.983-1.436,2.216-2.457,2.483C335.03,362.123,333.981,360.687,332.464,359.419z"/>
	<path fill-rule="evenodd" clip-rule="evenodd" d="M137.264,256.38c-3.346-66.34,51.022-116.354,108.609-118.661
		c62.074-2.486,118.242,46.888,119.134,112.218c0.896,65.551-50.805,113.823-109.365,116.278
		C191.786,368.892,138.645,316.889,137.264,256.38z M255.106,237.316c2.539-5.705,5.086-11.394,7.605-17.095
		c5.582-12.638,7.066-25.626,3.908-39.202c-2.719-11.689-8.74-21.575-15.755-31.331c-5.619,8.201-9.951,16.689-13.21,25.744
		c-3.768,10.471-4.714,21.094-2.146,32.001c2.404,10.212,7.433,19.363,11.499,28.904c0.159,0.374,0.766,0.557,1.163,0.829
		c0.343-0.549,0.882-1.059,1-1.652c1.041-5.201-0.639-10.052-2.262-14.825c-2.538-7.465-5.138-14.871-5.059-22.913
		c0.098-9.988,3.276-22.691,9.053-35.337c1.632,4.322,3.048,8.413,4.708,12.402c5.658,13.604,6.078,27.298,1.557,41.344
		c-1.953,6.07-2.984,12.437-4.434,18.669C252.36,236.456,253.048,237.231,255.106,237.316z M250.957,340.981
		c-0.4-0.736-0.771-1.254-0.979-1.832c-1.746-4.855-3.541-9.697-5.167-14.594c-2.904-8.745-3.761-17.765-2.23-26.811
		c1.051-6.209,3.067-12.251,4.562-18.391c0.896-3.687,1.671-7.404,2.359-11.134c0.109-0.591-0.533-1.32-0.828-1.985
		c-0.536,0.317-1.359,0.508-1.561,0.97c-4.416,10.095-9.51,19.92-11.899,30.812c-1.617,7.372-1.71,14.678-0.306,22.103
		c1.676,8.869,5.649,16.746,9.959,24.508c1.899,3.421,3.938,6.767,6.094,10.457c7.149-10.682,12.87-21.323,15.696-33.27
		c2.311-9.77,2.662-19.584-1.057-29.146c-3.176-8.168-6.527-16.268-9.908-24.354c-0.338-0.81-1.408-1.313-2.141-1.958
		c-0.369,0.9-1.197,1.893-1.039,2.687c1.074,5.383,1.807,10.924,3.67,16.043C263.247,304.508,259.899,322.832,250.957,340.981z
		 M186.913,189.885c1.282,0.133,1.669,0.092,1.987,0.22c2.093,0.842,4.195,1.668,6.25,2.596
		c13.973,6.307,25.342,15.591,33.394,28.817c3.429,5.633,7.252,11.028,10.979,16.475c0.786,1.148,1.801,2.41,3.566,1.347
		c-6.385-17.288-13.044-34.361-29.403-45.072c-11.064-7.245-23.042-12.147-36.622-14.19c0.689,3.304,1.246,6.118,1.865,8.918
		c5.219,23.6,18.206,40.906,41.016,50.008c5.177,2.066,10.663,3.373,16.051,4.87c0.732,0.204,1.723-0.521,2.594-0.815
		c-0.529-0.762-0.888-1.832-1.616-2.23c-2.934-1.605-5.922-3.145-8.998-4.457c-16.294-6.947-28.841-17.841-36.167-34.223
		C190.095,198.311,188.682,194.339,186.913,189.885z M314.952,190.36c-1.207,3.025-2.242,5.475-3.166,7.968
		c-2.174,5.875-4.543,11.647-8.656,16.495c-9.004,10.613-19.846,18.659-32.92,23.626c-1.758,0.667-3.418,1.679-4.98,2.742
		c-0.715,0.487-1.082,1.485-1.609,2.253c0.219,0.217,0.438,0.433,0.654,0.65c14.635-2.578,27.941-7.959,38.996-18.371
		c13.09-12.328,18.934-27.994,21.682-45.941c-22.697,5.351-42.486,14.005-54.598,34.942c-5.406,9.346-11.479,23.655-10.096,25.667
		c1.311-1.454,2.723-2.725,3.779-4.244c3.926-5.646,7.598-11.475,11.617-17.052c7.682-10.663,16.75-19.756,29.324-24.63
		c0.33-0.128,0.781-0.159,0.971-0.398C308.126,191.335,311.192,190.934,314.952,190.36z M259.905,263.604
		c-0.381,0.266-0.762,0.531-1.145,0.797c0.563,1.463,1.072,2.948,1.695,4.386c2.371,5.473,4.816,10.913,7.16,16.397
		c3.365,7.875,8.285,14.684,14.656,20.31c9.607,8.482,21.047,13.667,33.215,17.301c2.988,0.893,6.111,1.327,9.826,2.11
		c-3.326-14.859-7.656-28.542-17.096-40.021c-11.514-14.004-27.197-20.984-43.951-26.093c-0.967,2.209-0.303,3.275,1.469,4.221
		c6.865,3.663,13.861,7.143,20.42,11.305c13.98,8.876,21.809,22.643,28.42,37.237c0.293,0.649,0.387,1.976,0.049,2.2
		c-0.621,0.414-1.738,0.53-2.461,0.263c-2.203-0.813-4.291-1.932-6.469-2.821c-13.662-5.576-24.033-14.912-31.609-27.493
		c-3.082-5.117-6.158-10.246-9.467-15.217C263.386,266.634,261.495,265.219,259.905,263.604z M243.559,264.113
		c-0.453-0.245-0.906-0.489-1.358-0.734c-2.134,2.658-4.454,5.189-6.354,8.004c-2.631,3.896-4.753,8.142-7.446,11.99
		c-3.625,5.18-7.157,10.534-11.5,15.077c-6.996,7.316-16.23,11.29-25.472,15.03c-1.104,0.446-2.377,0.474-3.971,0.771
		c3.249-8.35,6.274-16.163,11.258-23.055c7.693-10.64,17.797-18.115,29.742-23.38c3.527-1.554,6.743-3.835,10.017-5.915
		c0.447-0.283,0.408-1.334,0.594-2.03c-0.711-0.159-1.524-0.628-2.114-0.432c-5.127,1.713-10.3,3.334-15.294,5.386
		c-9.207,3.781-17.635,8.806-24.416,16.297c-11.111,12.274-16.771,27.034-19.906,43.021c12.888-1.054,37.692-10.435,49.323-25.815
		C234.529,287.921,239.192,276.109,243.559,264.113z M267.171,252.555c-0.283,0.38-0.566,0.76-0.85,1.139
		c0.43,0.571,0.738,1.418,1.309,1.668c5.291,2.324,10.676,4.438,15.941,6.817c11.619,5.249,23.693,7.105,36.313,5.197
		c8.521-1.289,16.293-4.729,23.92-8.53c3.568-1.777,7.053-3.724,11.227-5.938c-4.576-2.735-8.42-5.104-12.33-7.36
		c-16.486-9.516-33.887-11.473-52.035-5.87c-6.375,1.968-12.559,4.551-18.838,6.827c-1.605,0.583-3.273,1.004-4.857,1.642
		c-0.406,0.163-0.908,0.95-0.813,1.3c0.145,0.533,0.703,1.192,1.213,1.331c0.74,0.2,1.629,0.122,2.395-0.074
		c6.047-1.552,12.141-2.962,18.102-4.797c8.385-2.581,16.943-3.188,25.539-2.26c9.324,1.008,18.004,4.549,26.656,7.998
		c0.412,0.165,0.725,0.576,1.256,1.015c-1.486,0.562-2.654,0.995-3.816,1.442c-8.563,3.29-17.295,5.84-26.48,6.754
		c-10.18,1.013-19.725-1.616-29.285-4.514C276.938,254.887,272.028,253.805,267.171,252.555z M235.667,250.926
		c0.287-0.43,0.573-0.861,0.859-1.291c-0.643-0.652-1.17-1.627-1.947-1.904c-7.486-2.677-15.02-5.223-22.531-7.83
		c-11.509-3.995-23.149-4.409-35.013-1.68c-10.903,2.509-20.523,7.848-30.618,13.301c4.921,2.766,9.614,5.424,14.325,8.048
		c13.463,7.497,27.925,10.664,42.921,7.063c10.547-2.532,20.619-7.063,30.866-10.802c0.804-0.293,1.326-1.359,1.979-2.066
		c-0.167-0.309-0.333-0.616-0.5-0.923c-3.85,0.818-7.71,1.594-11.548,2.468c-7.756,1.766-15.434,3.984-23.267,5.278
		c-8.855,1.462-17.447-0.849-25.914-3.351c-3.694-1.092-7.443-2.012-11.096-3.224c-0.886-0.294-2.173-1.55-2.07-2.157
		c0.163-0.949,1.208-1.988,2.146-2.504c1.319-0.725,2.868-1.06,4.345-1.465c2.506-0.688,5.057-1.219,7.545-1.963
		c7.623-2.28,15.427-3.844,23.314-2.627c8.286,1.278,16.434,3.44,24.646,5.202C227.959,249.326,231.815,250.118,235.667,250.926z
		 M173.4,174.149c3.968,0.976,7.424,1.924,10.931,2.61c0.77,0.151,1.891-0.436,2.566-1.014
		c15.954-13.661,34.184-21.861,55.291-23.287c0.784-0.053,1.844-0.445,2.239-1.038c1.398-2.096,2.656-4.3,3.789-6.554
		c1.026-2.04,0.44-2.78-1.846-2.679c-15.593,0.692-30.266,4.81-44.263,11.637C191.503,158.998,182.378,166.174,173.4,174.149z
		 M252.349,142.033c2.088,3.439,3.707,6.339,5.59,9.055c0.508,0.732,1.793,1.193,2.77,1.29c11.453,1.126,22.309,4.344,32.787,9.02
		c8.1,3.615,15.027,8.992,21.996,14.328c0.686,0.524,1.613,1.292,2.291,1.172c3.344-0.592,6.639-1.445,10.477-2.328
		C306.944,154.438,282.401,142.914,252.349,142.033z M141.722,253.813c-3.239,18.605,14.188,60.965,29.993,73.178
		c0.839-3.562,1.701-6.951,2.383-10.376c0.118-0.595-0.391-1.451-0.838-2.002c-12.242-15.105-19.337-32.299-21.106-51.682
		c-0.097-1.053-0.158-2.562-0.822-3.033C148.3,257.745,145.059,255.885,141.722,253.813z M327.271,330.391
		c-0.051-0.296-0.1-0.592-0.15-0.887c-2.887-0.438-5.818-0.691-8.643-1.382c-1.797-0.439-3.127-0.169-4.451,0.991
		c-15.141,13.253-33.057,20.073-52.756,22.793c-1.285,0.177-3.078,0.371-3.666,1.226c-1.752,2.534-3.018,5.403-4.756,8.673
		C282.312,360.82,306.618,349.873,327.271,330.391z M248.466,361.854c-2.104-7.875-4.354-9.861-11.693-10.592
		c-0.45-0.045-0.899-0.108-1.346-0.183c-17.855-2.952-33.551-10.555-47.48-21.994c-0.729-0.598-1.771-1.326-2.575-1.23
		c-3.613,0.43-7.194,1.135-10.787,1.74C195.636,349.042,219.575,360.981,248.466,361.854z M330.64,176.668
		c-0.701,2.702-1.158,5.148-1.984,7.462c-0.99,2.768,0.055,4.75,1.635,6.934c3.016,4.173,6.055,8.383,8.523,12.886
		c6.52,11.884,10.342,24.64,11.432,38.188c0.068,0.833,0.289,1.989,0.861,2.39c2.904,2.03,5.947,3.86,9.615,6.188
		C359.995,221.909,349.935,197.763,330.64,176.668z M171.674,176.858c-0.368-0.004-0.736-0.009-1.104-0.013
		c-18.199,20.272-28.08,43.927-28.934,72.209c3.459-2,6.408-3.633,9.257-5.424c0.473-0.296,0.612-1.261,0.738-1.948
		c0.875-4.8,1.472-9.664,2.598-14.402c3.247-13.663,9.495-25.903,18.081-36.985c0.692-0.894,1.731-2.063,1.599-2.955
		C173.382,183.814,172.454,180.347,171.674,176.858z M360.655,255.462c-2.791,1.368-4.916,2.569-7.162,3.469
		c-2.477,0.993-3.451,2.63-3.559,5.292c-0.324,7.94-2.564,15.473-5.225,22.907c-3.672,10.258-9.434,19.303-15.963,27.917
		c-0.369,0.487-1.027,1.099-0.943,1.536c0.688,3.571,1.518,7.116,2.439,11.27C349.237,307.094,359.304,283.437,360.655,255.462z
		 M240.759,156.722c-19.07,2.388-35.222,9.661-49.866,21.607c3.523,1.48,6.495,2.785,9.522,3.948
		c0.541,0.208,1.468,0.042,1.947-0.315c9.595-7.154,20.359-11.629,31.985-14.216c0.834-0.185,1.857-0.855,2.219-1.583
		C238.006,163.266,239.216,160.256,240.759,156.722z M261.22,157.036c1.93,3.748,3.453,6.793,5.086,9.778
		c0.242,0.445,0.975,0.759,1.535,0.875c11.318,2.338,21.658,6.875,31.031,13.638c0.703,0.508,1.736,1.263,2.354,1.069
		c3.303-1.035,6.52-2.336,10.615-3.861C296.772,166.344,280.505,159.285,261.22,157.036z M190.934,325.998
		c15.105,11.473,31.236,18.906,49.939,21.599c-1.388-3.147-2.615-5.845-3.765-8.575c-0.726-1.724-1.867-2.619-3.775-3.045
		c-10.75-2.399-20.998-6.07-29.969-12.682c-1.403-1.034-2.639-1.169-4.243-0.448C196.666,323.949,194.096,324.798,190.934,325.998z
		 M311.011,326.182c-2.607-1.021-4.678-1.688-6.621-2.624c-2.898-1.396-5.244-0.945-7.936,0.916
		c-8.492,5.867-17.799,9.945-28.068,11.634c-0.811,0.133-1.926,0.578-2.238,1.207c-1.586,3.192-2.953,6.493-4.527,10.049
		C280.077,344.724,296.317,337.768,311.011,326.182z M326.083,310.959c11.547-14.267,17.811-30.093,19.84-48.15
		c-3.264,1.432-6.113,2.565-8.838,3.949c-0.814,0.414-1.668,1.453-1.834,2.332c-1.984,10.566-6.15,20.184-12.25,29.003
		c-0.371,0.536-0.756,1.381-0.59,1.915C323.493,303.514,324.726,306.973,326.083,310.959z M326.591,193.547
		c-1.107,3.468-2.045,6.845-3.289,10.105c-0.57,1.492-0.248,2.499,0.555,3.675c5.832,8.554,9.654,17.923,11.365,28.151
		c0.119,0.717,0.514,1.704,1.07,1.978c2.936,1.443,5.965,2.698,9.518,4.263C343.62,223.629,337.911,207.736,326.591,193.547z
		 M156.376,240.911c3.41-1.492,6.4-2.718,9.295-4.137c0.588-0.287,1.058-1.257,1.183-1.981c1.767-10.229,5.723-19.562,11.339-28.243
		c0.417-0.644,0.938-1.57,0.766-2.186c-1.033-3.706-2.253-7.359-3.519-11.37C164.858,207.352,157.934,222.767,156.376,240.911z
		 M175.813,310.676c1.226-3.493,2.352-6.502,3.303-9.564c0.228-0.732,0.152-1.833-0.258-2.45
		c-6.104-9.19-9.524-19.417-11.869-30.083c-0.152-0.688-0.654-1.566-1.238-1.845c-2.808-1.339-5.701-2.503-8.962-3.9
		C158.115,281.018,165.097,296.362,175.813,310.676z M268.7,172.427c3.154,10.25,5.104,20.243,3.869,30.752
		c6.5-7.718,14.242-13.521,23.396-18.306C287.653,178.648,278.655,175.158,268.7,172.427z M233.281,172.762
		c-10.033,2.568-18.886,5.862-26.82,12.066c8.894,5.233,17.268,10.545,23.813,19.142
		C228.355,193.083,230.012,183.177,233.281,172.762z M295.36,319.617c-8.568-4.796-16.383-10.037-22.568-17.583
		c0.535,10.074-1.293,19.662-4.063,29.22C278.677,329.599,287.3,325.905,295.36,319.617z M233.225,331.208
		c-1.234-5.098-2.829-9.773-3.399-14.57c-0.573-4.82-0.126-9.762-0.126-14.98c-6.46,7.911-14.426,13.631-23.648,18.003
		C214.456,326.01,223.522,329.26,233.225,331.208z M330.729,269.007c-9.299,3.032-18.52,4.478-28.057,3.033
		c6.049,7.493,11.807,14.626,17.719,21.951C326.024,286.98,328.661,278.296,330.729,269.007z M330.661,235.778
		c-1.752-9.232-4.361-17.813-9.633-24.947c-6.014,7.348-11.949,14.601-17.76,21.699
		C312.218,231.717,321.362,232.938,330.661,235.778z M182.233,295.564c3.926-9.365,10.458-16.185,17.006-23.132
		c-9.738,1.753-18.752-1.032-27.918-3.666C173.782,278.283,176.553,287.279,182.233,295.564z M181.596,210.27
		c-5.263,6.706-10.511,19.536-10.012,24.476c9.175-1.673,18.336-3.539,28.524-2.155C191.535,226.568,186.443,218.701,181.596,210.27
		z M306.187,305.299c-6.793-15.895-18.141-26.084-33.309-32.341C280.716,286.764,289.048,300.06,306.187,305.299z M195.835,198.652
		c4.817,16.394,23.674,30.814,33.181,32.08C220.969,217.126,211.614,204.829,195.835,198.652z M273.415,231.021
		c15.574-6.109,27-15.641,32.834-31.722C290.339,205.127,281.306,217.092,273.415,231.021z M196.995,304.753
		c16.462-4.435,24.282-17.321,31.664-30.973C214.015,280.151,202.196,289.036,196.995,304.753z M250.883,284.789
		c-5.451,14.329-7.539,28.354,0.29,42.161C257.87,312.998,257.425,299.014,250.883,284.789z M251.185,261.981
		c4.982,0.004,10.436-5.193,10.469-9.977c0.035-5.289-4.982-10.37-10.217-10.342c-5.383,0.028-10.48,5.021-10.567,10.351
		C240.792,256.871,246.076,261.978,251.185,261.981z M251.051,178.701c-6.564,6.7-6.405,29.507,0.276,39.325
		C257.612,205.345,257.485,187.672,251.051,178.701z M328.425,252.732c-14.818-6.953-29.146-6.148-44.025-0.74
		C299.034,258.009,313.339,258.315,328.425,252.732z M218.203,251.896c-14.422-5.8-36.385-5.763-43.14,0.128
		C189.418,257.495,203.629,257.782,218.203,251.896z"/>
	<path fill-rule="evenodd" clip-rule="evenodd" d="M255.038,252.212c0.025,1.688-1.832,3.627-3.459,3.612
		c-2.206-0.021-3.934-1.749-3.95-3.95c-0.02-2.607,1.585-4.503,3.926-4.64C253.22,247.138,255.001,249.683,255.038,252.212z"/>
</g>
</svg>
