<?xml version="1.0" encoding="utf-8"?>
<!-- Generator: Adobe Illustrator 16.0.0, SVG Export Plug-In . SVG Version: 6.00 Build 0)  -->
<!DOCTYPE svg PUBLIC "-//W3C//DTD SVG 1.1//EN" "http://www.w3.org/Graphics/SVG/1.1/DTD/svg11.dtd">
<svg version="1.1" id="Layer_1" xmlns="http://www.w3.org/2000/svg" xmlns:xlink="http://www.w3.org/1999/xlink" x="0px" y="0px"
	 width="500px" height="500px" viewBox="0 0 500 500" enable-background="new 0 0 500 500" xml:space="preserve">
<g>
	<path fill-rule="evenodd" clip-rule="evenodd" d="M48.746,388.058c-0.799-0.704-1.794-1.275-2.366-2.129
		c-9.969-14.883-17.789-30.901-23.816-47.698c-6.156-17.155-11.086-34.705-12.897-52.958c-0.952-9.592-2.382-19.181-2.575-28.79
		c-0.196-9.815,0.249-19.733,1.513-29.464c1.747-13.452,3.854-26.932,7.011-40.111c4.931-20.586,12.907-40.125,23.326-58.594
		c6.782-12.022,14.262-23.559,22.953-34.354C72.641,80.611,84.677,68.668,97.98,57.912c14.302-11.564,29.415-21.885,45.895-30.067
		c13.646-6.774,27.737-12.555,42.609-16.049c11.4-2.678,22.837-5.568,34.427-6.967c12.229-1.476,24.661-1.798,36.998-1.721
		c17.979,0.113,35.685,2.798,53.121,7.356c16.205,4.237,31.686,10.284,46.71,17.598c18.253,8.884,34.903,20.202,50.087,33.606
		c7.659,6.761,15.211,13.739,22.077,21.286c15.745,17.309,28.516,36.678,38.505,57.891c7.805,16.569,14.431,33.569,18.277,51.479
		c2.324,10.824,3.72,21.856,5.275,32.831c1.876,13.239,2.46,26.587,1.54,39.913c-0.671,9.693-1.838,19.388-3.431,28.975
		c-2.61,15.709-7.12,30.952-12.623,45.892c-6.729,18.269-15.725,35.346-26.453,51.594c-11.086,16.792-24.226,31.744-39.075,45.233
		c-10.685,9.706-22.361,18.088-34.572,25.793c-17.731,11.187-36.489,20.146-56.669,25.78c-12.034,3.361-24.311,5.94-36.585,8.326
		c-5.737,1.114-11.723,0.957-17.599,1.342c-5.742,0.372-11.516,1.237-17.226,0.935c-11.924-0.634-23.891-1.365-35.697-3.058
		c-10.528-1.509-21.063-3.707-31.228-6.802c-11.455-3.486-22.504-8.309-33.713-12.593c-0.295-0.112-0.398-0.723-0.592-1.102
		c0.479-0.178,0.956-0.356,1.433-0.535l0.185-0.155l0.145,0.193c0.23-0.243,0.46-0.484,0.691-0.728
		c0.14-0.168,0.279-0.336,0.418-0.504c0.246-0.449,0.493-0.901,0.739-1.353c12.24,5.431,24.724,10.094,37.753,13.371
		c15.46,3.888,31.057,6.955,46.973,7.653c19.224,0.842,38.425,0.17,57.413-3.429c16.89-3.2,33.273-8.128,49.115-14.788
		c16.423-6.904,31.728-15.875,46.103-26.321c14.638-10.637,28.02-22.783,39.863-36.475c11.316-13.083,21.69-26.918,29.5-42.443
		c4.667-9.278,9.114-18.688,13.172-28.246c2.956-6.96,5.704-14.115,7.49-21.44c2.731-11.204,4.837-22.585,6.668-33.978
		c1.354-8.418,2.314-16.957,2.634-25.472c0.815-21.684-0.573-43.246-5.615-64.424c-2.089-8.776-4.357-17.551-7.268-26.079
		c-5.883-17.243-13.668-33.674-23.175-49.222c-4.567-7.472-9.228-15.003-14.798-21.718c-7.415-8.936-15.554-17.303-23.771-25.526
		c-5.905-5.909-12.105-11.64-18.79-16.625c-8.404-6.267-17.283-11.945-26.252-17.392c-6.582-3.998-13.483-7.562-20.517-10.704
		c-11.93-5.33-24.185-9.815-36.835-13.259c-12.648-3.444-25.491-5.684-38.486-6.995C266.129,8.115,259.343,8,252.603,8.105
		c-10.201,0.16-20.456,0.188-30.576,1.292c-8.965,0.979-17.854,3.042-26.636,5.194c-8.864,2.172-17.693,4.654-26.298,7.681
		c-20.253,7.126-38.764,17.67-56.106,30.221C97.382,63.788,82.891,76.407,70.657,91.35c-6.81,8.317-13.403,16.889-19.277,25.878
		c-10.051,15.384-18.469,31.702-24.097,49.264c-3.711,11.581-7.473,23.217-9.982,35.088c-2.298,10.874-2.895,22.104-4.335,33.164
		c-1.684,12.934-0.748,25.84,0.239,38.749c1.043,13.646,3.363,27.086,6.888,40.3c5.613,21.042,13.442,41.193,24.612,59.967
		c2.833,4.761,5.631,9.54,8.446,14.313C51.683,388.065,50.214,388.062,48.746,388.058z"/>
	<path fill-rule="evenodd" clip-rule="evenodd" d="M151.65,472.302c-0.246,0.451-0.493,0.903-0.739,1.353
		c-0.139,0.168-0.278,0.336-0.418,0.504c-0.231,0.243-0.461,0.484-0.692,0.728c-0.123,0.098-0.232,0.086-0.33-0.038
		c-0.478,0.179-0.955,0.357-1.433,0.535c-1.263-0.389-2.646-0.563-3.768-1.2c-7.71-4.382-15.476-8.684-23.017-13.346
		c-13.274-8.207-25.583-17.802-36.76-28.626c-13.104-12.689-25.434-26.166-35.101-41.802c-0.41-0.663-0.441-1.563-0.648-2.352
		c1.469,0.004,2.938,0.008,4.406,0.014c2.217,2.74,4.615,5.354,6.618,8.242c9.049,13.054,20.002,24.462,31.436,35.322
		c10.764,10.224,22.785,19.033,35.493,26.753C134.831,463.332,143.32,467.686,151.65,472.302z"/>
	<path fill-rule="evenodd" clip-rule="evenodd" d="M440.823,123.794c3.586,6.102,7.395,12.083,10.71,18.328
		c8.392,15.801,14.685,32.458,18.979,49.813c3.197,12.914,5.342,26.019,6.422,39.322c1.307,16.076,1.156,32.113-0.81,48.076
		c-2.805,22.768-7.963,45.003-17.53,65.969c-6.92,15.168-14.516,30.026-24.794,43.269c-6.212,8.004-12.298,16.22-19.403,23.387
		c-8.814,8.897-18.265,17.265-28.11,25.011c-8.553,6.728-17.74,12.786-27.177,18.221c-14.345,8.262-29.465,14.981-45.653,18.904
		c-8.795,2.133-17.571,4.655-26.51,5.824c-12.112,1.581-24.363,2.622-36.569,2.789c-10.58,0.146-21.226-0.849-31.76-2.062
		c-14.377-1.654-28.322-5.486-41.92-10.394c-8.304-2.998-16.413-6.535-24.609-9.829c1.617-1.052,3.235-2.104,4.853-3.154
		c0.727,0.233,1.481,0.404,2.175,0.711c13.4,5.918,27.066,11.056,41.405,14.243c11.783,2.621,23.665,4.327,35.743,5.078
		c18,1.121,35.897,0.404,53.609-2.638c15.51-2.662,30.58-7.244,45.108-13.358c20.245-8.521,38.673-20.085,55.764-33.846
		c15.372-12.378,28.311-26.99,39.76-42.987c11.245-15.709,20.278-32.615,27.112-50.67c2.594-6.853,5.099-13.781,6.986-20.852
		c3.069-11.501,6.131-23.038,6.672-35.049c0.463-10.274,1.553-20.543,1.528-30.813c-0.038-15.695-2.073-31.224-5.313-46.61
		c-3.047-14.466-7.415-28.524-13.485-41.94c-4.809-10.633-10.711-20.772-16.129-31.131
		C439.476,126.705,440.955,125.905,440.823,123.794z"/>
	<path fill-rule="evenodd" clip-rule="evenodd" d="M440.823,123.794c0.132,2.111-1.348,2.911-2.946,3.612
		c-7.919-10.376-15.291-21.239-23.922-30.985c-7.627-8.613-16.256-16.473-25.162-23.789C373.932,60.425,357.71,50.155,339.8,42.931
		c-10.523-4.246-21.165-8.379-32.061-11.481c-14.278-4.064-28.961-6.29-43.843-7.241c-19.305-1.233-38.358,0.007-57.279,4.069
		c-12.829,2.754-25.34,6.404-37.538,11.261c-14.804,5.895-28.887,13.192-41.993,22.17c-13.163,9.017-25.596,19.071-36.425,30.854
		c-6.362,6.923-12.257,14.3-18.034,21.729c-4.009,5.156-7.458,10.747-11.158,16.143c-1.217-0.831-2.434-1.66-3.65-2.49
		c3.555-5.39,7.15-10.754,10.657-16.175c10.166-15.713,23.5-28.484,37.686-40.428c12.291-10.349,25.558-19.393,39.81-26.739
		c9.633-4.964,19.766-9.122,30.004-12.701c10.123-3.538,20.596-6.159,31.034-8.696c10.905-2.65,22.107-3.267,33.284-4.145
		c14.241-1.118,28.319,0.335,42.349,2.021c12.212,1.469,24.295,4.006,35.855,8.508c9.683,3.77,19.57,7.071,29.054,11.285
		c14.043,6.241,27.056,14.4,39.184,23.812c7.498,5.819,14.764,12.034,21.521,18.692c12.041,11.866,22.729,24.927,32.014,39.094
		C440.527,122.864,440.643,123.351,440.823,123.794z"/>
	<path fill-rule="evenodd" clip-rule="evenodd" d="M57.819,127.944c1.217,0.83,2.434,1.66,3.65,2.49
		c-0.171,0.437-0.295,0.899-0.52,1.307c-5.213,9.46-10.492,18.866-14.635,28.891c-5.442,13.168-10.069,26.604-12.942,40.529
		c-2.05,9.939-3.131,20.086-4.467,30.163c-0.506,3.819-0.694,7.704-0.689,11.559c0.004,3.315-0.979,6.516-0.317,9.959
		c0.658,3.431,0.184,7.069,0.324,10.611c0.504,12.687,1.569,25.36,4.811,37.638c2.935,11.117,6.479,22.104,10.374,32.929
		c7.051,19.589,17.314,37.522,29.639,54.254c10.999,14.935,23.757,28.274,38.229,39.844c7.508,6.002,15.497,11.457,23.602,16.639
		c7.113,4.547,14.691,8.368,22.063,12.511c-1.618,1.051-3.236,2.103-4.853,3.154c-9.504-5.679-19.086-11.232-28.477-17.093
		c-4.229-2.64-8.136-5.819-12.083-8.888c-14.046-10.917-26.732-23.271-37.838-37.145c-11.634-14.536-21.407-30.291-29.116-47.27
		c-8.661-19.075-15.218-38.819-18.426-59.579c-3.122-20.208-3.956-40.498-2.147-60.897c2.171-24.494,8.261-48.034,17.733-70.624
		c4.273-10.191,9.945-19.798,15.004-29.659C56.992,128.772,57.454,128.383,57.819,127.944z"/>
	<path fill-rule="evenodd" clip-rule="evenodd" d="M190.562,154.82c17.028-10.645,35.887-15.374,56.511-16.863
		c-4.841-4.132-8.842-7.904-13.257-11.102c-1.372-0.993-3.876-0.624-5.85-0.544c-5.187,0.21-10.37,0.901-15.549,0.861
		c-10.278-0.078-17.88-4.777-22.334-14.153c-6.749-14.207-3.547-27.254,4.958-39.537c0.663-0.958,2.702-1.957,3.578-1.611
		c5.699,2.253,11.563,4.358,16.788,7.488c8.879,5.318,13.686,13.549,14.549,23.953c0.28,3.365,0.609,6.729,0.756,10.101
		c0.175,4.039,2.938,6.344,5.589,8.737c4.036,3.642,8.109,7.241,12.214,10.9c0-6.895,0.002-13.924-0.003-20.952
		c0-0.838-0.186-1.696-0.056-2.507c0.929-5.8-2.681-9.477-6.459-12.652c-12.821-10.778-14.593-29.707-4.506-43.839
		c3.55-4.976,6.929-10.075,10.36-15.135c2.28-3.361,4.139-3.59,6.1-0.508c4.273,6.717,8.823,13.296,12.563,20.304
		c7.081,13.267,5.494,25.561-4.444,36.868c-2.224,2.531-4.8,4.77-6.855,7.422c-1.158,1.495-2.176,3.537-2.236,5.366
		c-0.264,7.842-0.159,15.695-0.148,23.544c0,0.508,0.343,1.015,0.723,2.067c5.266-4.91,10.398-9.422,15.15-14.304
		c1.317-1.353,1.894-3.757,2.145-5.762c0.883-7.069,1.172-14.156,4.309-20.845c3.454-7.364,8.97-12.376,16.013-15.93
		c3.094-1.561,6.347-2.812,9.56-4.126c2.352-0.962,4.657-0.973,6.104,1.485c6.34,10.777,11.104,21.952,6.905,34.771
		c-3.397,10.372-12.487,17.521-23.248,18.658c-5.874,0.621-11.493-0.223-17.208-1.145c-1.672-0.27-3.896,0.052-5.228,1
		c-4.521,3.22-8.757,6.842-13.067,10.863c19.996,1.009,38.314,7.028,55.465,16.707c4.635-7.001,9.298-13.662,13.487-20.609
		c1.225-2.028,1.794-4.967,1.467-7.322c-1.121-8.065-1.979-16.044,0.303-24.042c2.544-8.916,7.199-16.509,15.455-20.933
		c7.252-3.886,15.038-6.771,22.589-10.101c1.934-0.853,3.343-0.256,3.731,1.77c2.811,14.607,3.276,29.021-5.023,42.246
		c-5.486,8.742-14.005,13.68-23.753,15.743c-7.165,1.516-12.001,4.888-15.376,11.226c-2.647,4.974-5.889,9.632-8.934,14.538
		c9.682,6.833,18.724,14.153,25.714,23.845c2.547-3.363,3.782-6.672,3.286-11.18c-1.034-9.409,0.226-18.628,5.446-26.921
		c6.509-10.337,16.2-15.163,28.054-15.854c4.314-0.252,8.684,0.415,13.026,0.669c2.21,0.13,3.117,1.146,3.153,3.517
		c0.143,9.617-0.897,18.888-6.574,27.076c-4.436,6.396-10.137,11.064-17.822,12.912c-4.573,1.099-9.192,2.015-13.812,2.912
		c-5.502,1.069-9.54,5.56-9.49,11.124c0.015,1.618,0.75,3.32,1.485,4.823c2.026,4.144,4.222,8.205,6.37,12.289
		c0.166,0.32,0.475,0.564,0.816,0.956c7.72-3.845,15.409-7.595,23.001-11.537c1.257-0.653,2.382-1.99,3.048-3.279
		c2.388-4.619,4.239-9.536,6.864-14.004c6.348-10.804,15.471-17.495,28.401-18.399c8.967-0.628,17.376,1.617,25.76,4.236
		c2.451,0.767,2.368,2.705,1.517,4.439c-3.814,7.763-6.542,16.216-12.563,22.663c-5.846,6.259-12.564,11.272-21.687,11.808
		c-7.422,0.436-14.671-0.673-21.842-2.256c-3.893-0.859-7.409-1.023-11.093,0.946c-6.509,3.48-13.203,6.611-19.719,9.837
		c0.095,1.79,2.773,3.078,0.548,4.96c-0.001,0-0.094,0.079-0.094,0.079l0.081-0.089c0.773,0.851,1.93,1.574,2.263,2.573
		c3.53,10.587,5.31,21.508,5.886,32.638c0.024,0.478,0.09,0.954,0.15,1.575c4.338-0.616,6.964-3.468,8.603-6.961
		c1.656-3.535,2.593-7.415,3.779-11.164c3.545-11.201,11.644-17.573,22.403-21.045c6.097-1.969,12.309-1.78,18.168,0.627
		c5.122,2.104,9.973,4.888,14.877,7.493c2.099,1.114,2.163,2.847,1.156,4.936c-4.462,9.272-10.916,16.833-19.544,22.388
		c-3.188,2.052-6.834,3.393-10.461,5.147c2.23,0.852,4.533,1.567,6.694,2.583c9.555,4.488,16.747,11.541,22.031,20.612
		c0.097,0.168,0.194,0.335,0.294,0.503c2.846,4.794,2.55,6.397-2.199,9.399c-9.484,5.998-19.58,9.419-31.014,7.12
		c-10.867-2.183-19.516-10.52-22.596-20.804c-1.097-3.663-1.729-7.652-3.674-10.816c-1.719-2.796-4.251-5.678-8.251-6.06
		c-0.492,4.947-0.586,9.885-1.546,14.646c-1.651,8.198-3.709,16.323-5.904,24.394c-0.519,1.909-0.122,2.53,1.394,3.27
		c5.108,2.492,10.35,4.777,15.21,7.69c5.128,3.072,10.085,2.103,15.287,0.725c9.536-2.528,19.061-3.084,28.396,0.906
		c6.624,2.831,11.666,7.751,15.334,13.653c3.769,6.067,6.471,12.795,9.652,19.228c0.864,1.749,0.362,3.255-1.342,3.794
		c-13.757,4.35-27.553,7.153-41.172-0.455c-7.296-4.074-11.89-10.539-15.577-17.823c-1.913-3.779-3.995-7.483-6.219-11.087
		c-0.694-1.125-1.993-2.018-3.203-2.663c-6.778-3.62-13.613-7.131-20.74-10.841c-2.137,4.021-4.15,7.816-6.171,11.606
		c-0.358,0.674-0.641,1.429-1.139,1.985c-6.009,6.717,1.506,15.167,8.646,15.506c5.562,0.265,11.383,1.553,16.476,3.787
		c11.107,4.872,17.956,13.658,19.565,25.864c0.587,4.446,0.071,9.036,0.117,13.56c0.021,2.144-1.136,3.349-3.066,3.544
		c-10.94,1.109-21.693,0.649-31.144-5.832c-10.511-7.208-14.831-17.59-14.689-30.13c0.049-4.382-0.232-8.772-0.559-13.146
		c-0.103-1.369-0.845-2.69-1.413-4.388c-7.647,10.016-16.907,17.891-27.279,25.079c6.504,6.48,8.913,15.995,16.455,21.622
		c1.617,1.205,3.89,1.622,5.921,2.167c19.584,5.258,30.576,15.412,32.313,37.79c0.523,6.745-0.543,13.625-1.067,20.431
		c-0.171,2.215-1.433,3.46-3.999,2.667c-9.619-2.966-18.876-6.623-26.823-13.046c-7.314-5.912-11.308-13.723-12.041-22.871
		c-0.534-6.669,0.215-13.438,0.284-20.162c0.018-1.598,0.094-3.508-0.69-4.747c-4.57-7.229-9.39-14.3-13.769-20.888
		c-9.346,3.607-18.091,7.683-27.25,10.319c-9.079,2.616-18.575,3.782-27.885,5.584c3.485,2.81,7.125,5.846,10.875,8.74
		c2.952,2.277,6.216,2.465,9.874,1.659c9.89-2.181,19.555-2.06,28.184,4.298c9.037,6.659,13.951,20.576,10.349,31.261
		c-2.005,5.944-5.219,11.486-7.991,17.158c-0.803,1.638-2.087,1.976-4.101,1.538c-12.026-2.609-21.092-9.225-27.148-19.832
		c-3.631-6.36-4.659-13.433-4.451-20.682c0.104-3.645-1.247-6.362-4.227-8.58c-4.598-3.425-8.976-7.146-13.699-10.942
		c0,8.891-0.072,17.559,0.089,26.223c0.021,1.134,1.084,2.391,1.938,3.344c4.924,5.501,10.573,10.415,13.14,17.705
		c3.737,10.618,2.67,20.953-2.617,30.588c-3.393,6.183-7.921,11.759-12.099,17.492c-1.688,2.316-3.26,2.363-4.905,0.124
		c-5.808-7.896-12.576-15.214-15.752-24.774c-4.018-12.096-1.958-23.069,6.275-32.841c0.996-1.183,1.835-2.615,3.07-3.457
		c5.874-4.003,6.774-9.666,6.291-16.219c-0.425-5.775-0.089-11.605-0.089-18.189c-3.342,2.779-6.005,5.613-9.214,7.537
		c-6.824,4.088-7.761,10.456-8.377,17.532c-1.212,13.932-8.12,24.389-20.717,30.799c-3.414,1.738-6.959,3.223-10.467,4.771
		c-1.922,0.848-3.395,0.086-4.451-1.565c-4.345-6.785-7.833-13.979-8.656-22.074c-0.828-8.135,0.915-15.962,6.178-22.269
		c4.993-5.984,11.995-8.758,19.786-9.69c5.467-0.656,10.698,0.342,16.049,1.043c4.528,0.593,8.09-2.39,11.439-5.089
		c2.209-1.782,4.202-3.832,6.114-5.598c-9.86-1.866-19.659-2.952-28.968-5.702c-9.348-2.759-18.207-7.177-27.214-10.842
		c-4.085,6.505-8.662,13.288-12.625,20.411c-1.177,2.116-0.83,5.194-0.832,7.831c-0.006,7.209,0.82,14.483,0.117,21.612
		c-0.881,8.946-6.757,15.406-13.473,20.776c-7.234,5.786-15.874,8.993-24.534,12.046c-2.363,0.834-3.541-0.176-4.032-2.259
		c-2.898-12.287-2.95-24.52,1.779-36.365c3.35-8.394,9.564-14.467,17.633-18.386c4.455-2.162,9.2-3.803,13.936-5.291
		c4.314-1.355,6.201-4.922,8.461-8.2c2.626-3.811,5.117-7.714,7.693-11.559c0.795-1.187,1.679-2.313,2.326-3.199
		c-8.625-7.886-17.275-15.794-26.09-23.854c-1.786,3.013-2.625,6.776-2.176,10.569c1.39,11.746-0.841,22.453-8.896,31.357
		c-5.013,5.54-11.606,8.938-18.945,9.973c-6.047,0.854-12.259,0.669-18.395,0.63c-0.896-0.007-2.409-1.665-2.572-2.724
		c-1.67-10.809,0.1-20.894,6.827-29.826c7.317-9.716,17.505-13.718,29.183-14.96c2.944-0.313,6.256,0.207,8.417-2.779
		c1.973-2.727,3.583-5.852,2.234-8.973c-2.5-5.787-5.68-11.281-8.643-17.023c-7.516,3.881-15.208,7.148-22.045,11.702
		c-3.108,2.071-4.729,6.575-6.659,10.17c-3.651,6.797-7.023,13.702-13.537,18.424c-9.54,6.916-20.134,8.376-31.4,6.263
		c-4.319-0.811-8.572-2.013-12.813-3.186c-3.437-0.953-4.199-2.558-2.819-5.78c5.078-11.87,11.531-22.655,22.887-29.749
		c5.474-3.42,11.458-4.202,17.69-4.492c6.585-0.307,12.665,1.76,18.845,3.488c3.209,0.897,6.197,0.17,9.109-1.438
		c5.478-3.021,11.038-5.896,16.588-8.786c0.75-0.392,1.64-0.511,2.489-0.764c-5.761-12.94-7.683-26.696-8.565-40.661
		c-4.325,0.093-8.056,3.19-9.733,8.037c-1.53,4.422-2.57,9.096-4.683,13.219c-6.165,12.034-16.471,17.165-29.802,16.8
		c-9.581-0.262-17.199-4.978-24.531-10.457c-1.524-1.139-1.684-2.384-0.785-4.004c3.301-5.944,6.923-11.645,12.322-15.945
		c0.929-0.739,2.183-1.07,3.287-1.59c0.113-0.185,0.226-0.37,0.339-0.557c2.051-1.465,3.984-3.15,6.184-4.34
		c2.856-1.546,5.925-2.697,9.106-4.109c-9.097-3.382-16.664-8.456-22.379-16.078c-2.649-3.533-5.217-7.131-7.954-10.597
		c-1.606-2.034-1.294-3.616,0.581-5.161c6.016-4.955,12.95-7.962,20.58-9.175c16.034-2.548,32.973,7.289,35.981,24.69
		c0.945,5.464,2.567,10.754,7.94,13.733c1.032,0.571,2.2,0.897,2.953,1.197c1.05-7.497,1.687-14.709,3.153-21.748
		c1.445-6.942,3.729-13.709,5.685-20.691c-6.994-3.188-14.419-6.349-21.625-9.949c-3.697-1.847-7.047-1.224-10.602-0.116
		c-7.944,2.477-15.995,3.469-24.209,1.491c-7.065-1.702-12.325-6.113-17.112-11.324c-6.035-6.569-9.273-14.646-12.615-22.684
		c-1.211-2.913-0.647-4.025,2.435-4.945c7.785-2.324,15.633-4.362,23.86-3.807c6.7,0.453,13.247,1.667,18.76,5.854
		c6.635,5.042,11.05,11.865,14.374,19.34c2.968,6.676,6.438,12.492,13.902,15.128c5.144,1.817,10,4.451,14.863,6.664
		c2.857-4.695,5.703-9.267,8.442-13.903c3.368-5.7-0.799-13.649-7.261-14.508c-6.336-0.842-12.755-1.143-18.785-3.929
		c-11.558-5.341-18.107-14.381-20.224-26.643c-0.746-4.323-0.452-8.842-0.392-13.269c0.011-0.851,1.054-2.329,1.777-2.433
		c9.417-1.347,18.818-1.962,27.875,1.996c10.08,4.406,15.725,12.334,18.643,22.71c1.879,6.684,0.999,13.438,1.4,20.16
		c0.158,2.654,0.922,5.271,1.409,7.905c0.359,0.043,0.719,0.086,1.078,0.129c1.881-2.102,3.593-4.391,5.676-6.271
		c6.051-5.463,12.264-10.746,18.375-16.144c0.731-0.646,1.223-1.563,1.826-2.355C188.177,155.449,189.37,155.134,190.562,154.82z
		 M81.102,215.558c-1.962,1.408-3.925,2.814-5.956,4.271c0.485,0.102,1.037,0.192,1.574,0.335c5.714,1.527,11.683,2.452,17.08,4.731
		c9.453,3.991,16.72,11.236,24.256,18.008c2.316,2.082,5.117,3.623,7.696,5.412c0.206-0.259,0.412-0.518,0.618-0.776
		c-3.365-3.948-4.869-8.532-5.823-13.596c-0.948-5.034-2.935-9.838-7.183-13.421c-7.601-6.409-16.313-7.768-25.753-6.285
		c-2.167,0.341-4.288,0.981-6.429,1.483L81.102,215.558z M359.428,249.354c0.501-10.436-2.49-23.112-5.67-33.32
		c-5.641-18.102-15.835-33.058-29.989-45.467c-15.399-13.502-33.164-22.084-53.326-25.804c-12.689-2.341-25.319-2.016-37.997,0.032
		c-13.55,2.189-26.442,6.269-38.144,13.506c-18.124,11.209-32.704,25.742-41.856,45.328c-6.151,13.165-9.759,27.012-10.575,41.417
		c-0.795,14.062,1.21,27.843,5.951,41.269c4.461,12.637,10.399,24.338,19.18,34.481c9.448,10.912,20.17,20.389,33.295,26.623
		c6.909,3.281,14.143,6.029,21.46,8.266c9.501,2.903,19.39,3.546,29.331,3.564c18.454,0.032,35.723-4.47,52.086-12.874
		c12.169-6.249,22.783-14.505,31.302-25.134c5.039-6.287,9.712-13.041,13.446-20.164
		C356.234,285.223,359.818,268.105,359.428,249.354z M196.875,422.269c4.563-18.065,15.286-31.597,31.1-42.262
		c-3.775-0.51-6.533-1.095-9.308-1.191c-2.773-0.098-5.652-0.084-8.331,0.543c-10.467,2.443-16.906,6.506-19.297,19.387
		C189.44,407.361,192.897,414.77,196.875,422.269z M226.882,120.67c-15.57-10.532-25.615-24.366-30.14-42.824
		c-1.264,2.895-2.018,4.727-2.856,6.518c-2.166,4.625-3.506,9.573-3.084,14.58C192.512,119.195,206.957,126.516,226.882,120.67z
		 M304.413,78.465c-4.259,18.813-14.961,32.119-30.114,42.247c0.468,0.415,0.656,0.727,0.896,0.774
		c5.795,1.157,11.632,1.709,17.477,0.513c6.994-1.431,12.594-5.005,15.438-11.739C312.723,99.342,310.2,89.088,304.413,78.465z
		 M304.717,422.354c7.363-11.443,7.898-25.232,0.13-35.16c-7.453-9.527-21-10.112-29.844-6.774
		c6.019,5.871,12.628,11.524,18.255,18.027C299.039,405.13,302.014,413.531,304.717,422.354z M426.284,219.252
		c-9.35-5.458-18.688-7.326-28.97-3.733c-8.061,2.817-13.181,8.268-15.753,16.061c-1.897,5.75-2.777,11.851-6.635,17.038
		c4.741-2.982,9.544-5.918,13.298-9.855c7.825-8.206,17.042-13.693,27.905-16.622C419.439,221.249,422.725,220.268,426.284,219.252z
		 M373.756,253.664c4.185,3.627,5.835,8.215,6.928,13.055c1.883,8.334,6.742,14.694,14.281,18.136
		c6.543,2.986,13.901,3.171,20.905,0.97c3.245-1.021,6.183-3.019,9.26-4.573c-9.807-2.45-19.1-5.058-27.055-10.721
		c-5.156-3.671-9.752-8.136-14.537-12.315C380.809,255.832,377.944,253.857,373.756,253.664z M75.628,281.008
		c7.832,4.783,16.004,7.704,25.22,5.238c8.26-2.211,15.065-6.439,18.333-14.832c2.236-5.74,4.248-11.568,6.407-17.49
		c-0.697,0.301-1.74,0.528-2.501,1.118c-4.106,3.182-7.979,6.694-12.246,9.637c-5.915,4.078-11.829,8.336-18.27,11.413
		C87.4,278.563,81.446,279.392,75.628,281.008z M363.601,79.915c-5.063,8.12-9.949,16.115-14.997,24.007
		c-5.045,7.888-10.251,15.673-15.722,24.014C358.379,123.274,367.935,105.57,363.601,79.915z M66.011,338.172
		c30.032,8.188,42.712-4.247,49.992-25.101C99.624,321.293,83.212,329.535,66.011,338.172z M168.404,373.409
		c-10.801,3.336-20.6,6.987-25.961,17.503c-5.003,9.814-6.684,19.914-4.463,31.232c5.419-8.491,10.501-16.315,15.44-24.229
		C158.41,389.919,163.261,381.836,168.404,373.409z M66,166.774c2.934,10.332,8.376,18.784,17.583,24.234
		c10.232,6.055,20.767,3.101,31.586,0.699c-8.51-4.271-16.574-8.287-24.607-12.361C82.358,175.186,74.185,170.967,66,166.774z
		 M113.543,309.697c-20.771-10.164-40.871,0.979-49.23,24.281C81.085,325.706,97.362,317.678,113.543,309.697z M385.107,313.311
		c4.168,10.07,8.401,19.534,18.395,24.757c10.002,5.228,19.954,3.619,30.613,0.355C417.532,329.925,401.475,321.696,385.107,313.311
		z M334.037,374.602c-0.201,0.208-0.401,0.415-0.602,0.623c9.949,15.248,19.898,30.496,30.229,46.327
		c1.044-11.938,1.208-23.257-5.647-32.99C352.29,380.434,343.671,376.385,334.037,374.602z M387.563,309.625
		c16.077,8.16,32.158,16.321,48.844,24.789C426.825,308.838,408.423,301.327,387.563,309.625z M116.273,187.397
		c0.193-0.166,0.386-0.331,0.579-0.497c-2.976-5.213-5.581-10.693-9.061-15.545c-2.29-3.193-5.495-6.081-8.898-8.057
		c-8.327-4.835-17.417-4.403-26.504-2.399c-1.498,0.33-2.942,0.902-4.473,1.382c8.297,4.407,16.232,8.696,24.237,12.853
		C100.156,179.291,108.23,183.315,116.273,187.397z M153.286,334.047c-2.674,3.027-4.78,5.87-7.338,8.22
		c-8.174,7.508-16.537,14.809-24.775,22.246c-1.685,1.521-3.147,3.289-4.988,5.235C139.3,372.616,156.124,358.827,153.286,334.047z
		 M436.038,167.222c-16.333,8.19-32.33,16.212-48.735,24.438C409.59,198.452,425.893,193.724,436.038,167.222z M171.15,377.532
		c-9.682,15.618-19.148,30.89-28.945,46.695C171.821,415.259,176.147,395.5,171.15,377.532z M359.863,423.975
		c-10.352-16.001-20.279-31.344-30.091-46.512c-2.077,10.336-2.063,20.479,3.912,29.688
		C339.703,416.426,348.902,420.888,359.863,423.975z M384.813,131.826c-29-4.13-40.058,19.023-36.92,35.603
		C358.431,153.853,372.631,144.013,384.813,131.826z M347.771,334.377c-0.676,11.659,1.116,22.311,11.218,29.904
		c7.716,5.8,16.484,6.302,25.665,5.17c-6.217-5.836-12.768-11.131-18.897-16.879C359.608,346.809,353.882,340.597,347.771,334.377z
		 M153.939,166.784c1.887-21.414-12.791-38.705-37.269-35.045c6.358,5.827,12.66,11.486,18.829,17.288
		C141.719,154.876,147.806,160.866,153.939,166.784z M330.533,123.711c9.785-15.284,19.403-30.304,29.125-45.49
		C332.59,84.57,324.518,106.563,330.533,123.711z M434.331,162.76c-3.472-0.73-6.146-1.402-8.858-1.843
		c-7.339-1.19-14.529-0.978-21.429,2.295c-10.027,4.758-13.525,14.565-18.158,23.7C401.769,178.995,417.649,171.077,434.331,162.76z
		 M252.576,456.538c0.357,0.135,0.716,0.268,1.074,0.4c1.434-1.944,2.891-3.874,4.3-5.837c4.244-5.912,7.003-12.436,7.724-19.705
		c1.076-10.857-4.866-18.677-11.57-26.12c-0.457-0.508-1.064-0.881-1.527-1.257C252.576,421.646,252.576,439.094,252.576,456.538z
		 M248.333,457.202c0-17.5,0-34.846,0-52.19c-0.302-0.096-0.603-0.19-0.904-0.285c-1.491,1.576-3.058,3.088-4.46,4.741
		c-6.962,8.208-9.624,17.435-6.222,27.928C239.17,444.867,243.618,451.186,248.333,457.202z M247.944,96.42
		c0.221-0.192,0.443-0.385,0.664-0.578c0-16.675,0-33.35,0-50.666c-1.104,1.155-1.906,1.737-2.369,2.519
		c-2.635,4.458-5.628,8.774-7.68,13.494c-4.52,10.397-3.922,20.452,3.637,29.451C243.938,92.714,246.019,94.502,247.944,96.42z
		 M254.23,45.203c-0.375,0.147-0.749,0.293-1.124,0.439c0,17.297,0,34.593,0,51.88c1.429-1.357,2.833-2.555,4.079-3.9
		c5.762-6.219,9.997-13.223,8.963-22.05c-0.446-3.808-1.799-7.655-3.458-11.142C260.201,55.197,257.082,50.264,254.23,45.203z
		 M113.398,365.829c6.322-5.455,12.606-10.519,18.467-16.032c5.93-5.579,11.964-11.133,16.867-18.085
		C125.466,330.924,111.956,346.789,113.398,365.829z M387.895,366.103c0.902-24.582-17.402-34.657-35.978-33.631
		C363.092,344.759,375.475,355.33,387.895,366.103z M388.191,135.809c-12.935,10.087-24.798,20.869-36.382,33.27
		c7.163,0.636,13.336-0.748,19.066-3.524C383.003,159.68,388.006,149.353,388.191,135.809z M427.99,276.154
		c-8.399-17.765-31.132-26.351-43.242-23.112C395.981,266.533,410.328,274.313,427.99,276.154z M113.322,134.794
		c0.189,21.597,14.362,34.881,37.104,34.025C138.264,157.667,126.102,146.514,113.322,134.794z M116.638,253.247
		c-16.471-1.589-36.06,6.973-42.806,22.83C91.179,274.362,105.085,266.321,116.638,253.247z M385.704,248.266
		c17.808,1.114,34.516-8.421,40.622-23.012C408.886,225.929,396.311,235.342,385.704,248.266z M116.645,248.347
		c-11.722-14.54-29.752-24.6-40.972-23.004C81.825,239.213,97.249,249.121,116.645,248.347z M300.011,77.734
		c-20.399,6.764-25.118,19.014-24.766,36.632C288.084,105.333,296.664,93.57,300.011,77.734z M300.429,424.406
		c-3.976-15.692-11.783-28.171-25.378-37.081c-0.313,11.561,2.417,21.447,11.161,28.966
		C290.372,419.868,294.757,423.043,300.429,424.406z M226.453,386.982c-14.427,9.67-22.6,23.453-24.839,36.627
		C215.475,419.957,227.035,407.425,226.453,386.982z M201.982,78.567c1.532,11.969,15.877,31.434,24.418,35.819
		c-0.456-4-1.053-7.979-1.338-11.98C224.191,90.187,212.724,81.413,201.982,78.567z"/>
	<path fill-rule="evenodd" clip-rule="evenodd" d="M178.852,144.329c-1.914-2.773-3.646-5.699-5.811-8.26
		c-1.204-1.423-2.986-2.681-4.751-3.247c-6.779-2.176-13.703-3.872-19.719-7.973c-11.965-8.156-15.928-20.172-15.998-33.81
		c-0.031-5.938,1.01-11.889,1.692-17.818c0.252-2.196,1.641-3.132,3.878-2.482c10.138,2.944,20.097,6.547,28.021,13.695
		c7.343,6.624,10.777,15.486,10.848,25.378c0.036,4.99-0.53,10.008-1.158,14.972c-0.449,3.554,0.409,6.578,2.175,9.579
		c1.486,2.524,2.674,5.226,3.992,7.85c-0.215,0.095-0.429,0.188-0.642,0.281C180.537,143.104,179.694,143.716,178.852,144.329z
		 M138.432,79.716c-4.988,24.231,4.464,43.91,29.499,47.36c0-0.191,0.074-0.425-0.011-0.559
		C158.2,111.074,148.469,95.64,138.432,79.716z M171.492,123.91c1.903-10.666,2.781-21.158-3.697-30.508
		c-6.262-9.038-16.011-12.675-25.916-16.345C151.868,92.861,161.68,108.386,171.492,123.91z"/>
	<path fill-rule="evenodd" clip-rule="evenodd" d="M178.852,144.329c0.842-0.612,1.685-1.225,2.528-1.837
		c0.213-0.125,0.426-0.25,0.639-0.375c2.848,4.234,5.695,8.469,8.543,12.704c-1.192,0.313-2.385,0.628-3.577,0.942
		c-2.082-2.641-4.213-5.245-6.219-7.943C179.981,146.765,179.481,145.499,178.852,144.329z"/>
	<path fill-rule="evenodd" clip-rule="evenodd" d="M155.476,443.01c-2.343,0.189-2.557-1.709-2.573-3.268
		c-0.018-1.935,1.084-3.366,3.24-3.261c1.928,0.093,3.039,1.273,2.94,3.237C158.978,441.854,157.877,443.117,155.476,443.01z"/>
	<path fill-rule="evenodd" clip-rule="evenodd" d="M50.92,294.984c-0.695,2.57-1.436,4.001-3.632,3.989
		c-2.306-0.01-2.939-1.799-2.989-3.526c-0.053-1.878,1.102-3.639,3.11-3.272C48.708,292.411,49.759,294.001,50.92,294.984z"/>
	<path fill-rule="evenodd" clip-rule="evenodd" d="M46.263,237.145c0.022,1.783-1.169,3.156-3.106,2.826
		c-1.129-0.193-2.671-1.643-2.877-2.744c-0.345-1.841,0.662-3.814,2.881-3.801C44.983,233.437,46.313,234.681,46.263,237.145z"/>
	<path fill-rule="evenodd" clip-rule="evenodd" d="M412.87,387.892c-1.218,0.971-2.372,2.572-3.674,2.704
		c-0.963,0.096-2.83-1.598-3.024-2.715c-0.304-1.739,0.545-3.963,2.884-3.726c1.33,0.134,2.531,1.546,3.791,2.383
		C412.854,386.989,412.861,387.44,412.87,387.892z"/>
	<path fill-rule="evenodd" clip-rule="evenodd" d="M394.815,406.35c-1.32-1.906-2.92-3.346-2.646-3.999
		c0.598-1.423,2.149-2.444,3.312-3.632c1.092,1.182,2.906,2.286,3.042,3.569C398.628,403.272,396.617,404.482,394.815,406.35z"/>
	<path fill-rule="evenodd" clip-rule="evenodd" d="M417.512,374.006c-0.015-3.146,0.662-4.362,3.13-4.475
		c2.462-0.11,2.659,1.351,2.789,3.031c0.181,2.34-1.528,3.468-3.321,3.485C419.079,376.058,418.034,374.448,417.512,374.006z"/>
	<path fill-rule="evenodd" clip-rule="evenodd" d="M452.467,277.051c1.173-0.961,2.482-2.809,3.486-2.656
		c1.264,0.192,2.865,1.851,3.256,3.187c0.521,1.79-1.1,3.156-2.873,3.087c-1.586-0.063-3.716-0.297-3.21-3.071
		C452.906,277.414,452.687,277.232,452.467,277.051z"/>
	<path fill-rule="evenodd" clip-rule="evenodd" d="M210.547,461.907c-0.815-1.052-2.146-2.02-2.331-3.171
		c-0.328-2.056,1.03-3.446,3.134-3.689c2.152-0.251,3.157,1.491,2.986,3.018c-0.151,1.346-1.594,2.545-2.467,3.809
		C211.429,461.884,210.987,461.896,210.547,461.907z"/>
	<path fill-rule="evenodd" clip-rule="evenodd" d="M77.675,129.193c0.031-2.111,1.126-3.692,3.108-3.326
		c1.231,0.228,2.885,1.813,3.109,3.019c0.366,1.967-1.32,3.097-3.302,3.137C78.768,132.06,77.763,131.024,77.675,129.193z"/>
	<path fill-rule="evenodd" clip-rule="evenodd" d="M276.455,41.143c-1.859,1.346-2.906,2.683-4.113,2.848
		c-2.109,0.289-2.969-1.421-2.966-3.326c0.004-1.972,1.211-3.559,3.091-3.205C273.705,37.693,274.665,39.407,276.455,41.143z"/>
	<path fill-rule="evenodd" clip-rule="evenodd" d="M176.704,446.604c0.089,3.26-1.015,4.088-3.133,4.179
		c-2.27,0.099-3.236-1.732-2.952-2.996c0.285-1.27,2.014-2.696,3.375-3.057C174.818,444.512,176.145,446.186,176.704,446.604z"/>
	<path fill-rule="evenodd" clip-rule="evenodd" d="M55.003,313.465c-0.114,3.235-1.81,4.327-3.466,3.972
		c-1.144-0.245-2.537-2.065-2.729-3.346c-0.277-1.84,1.379-3.137,3.189-2.737C53.268,311.634,54.31,312.949,55.003,313.465z"/>
	<path fill-rule="evenodd" clip-rule="evenodd" d="M42.912,272.355c3.334-0.252,4.449,1.379,4.258,3.067
		c-0.133,1.171-1.671,2.821-2.849,3.09c-1.886,0.433-3.408-1.097-3.202-3.036C41.256,274.189,42.503,273.02,42.912,272.355z"/>
	<path fill-rule="evenodd" clip-rule="evenodd" d="M233.614,461.375c-1.331,0.958-2.57,2.506-4.014,2.729
		c-2.014,0.309-2.739-1.742-2.569-3.375c0.186-1.775,1.405-3.422,3.424-3.04c1.172,0.223,2.136,1.546,3.193,2.375
		C233.637,460.501,233.625,460.938,233.614,461.375z"/>
	<path fill-rule="evenodd" clip-rule="evenodd" d="M433.198,355.386c-0.032,2.955-0.893,4.104-3.083,4.202
		c-2.023,0.09-3.489-0.854-3.063-2.713c0.312-1.365,1.753-3.008,3.045-3.422C430.948,353.178,432.429,354.867,433.198,355.386z"/>
	<path fill-rule="evenodd" clip-rule="evenodd" d="M456.243,215.008c0.847,1.191,2.246,2.313,2.407,3.589
		c0.219,1.75-0.986,3.599-3.006,3.221c-1.166-0.218-2.878-1.852-2.885-2.858c-0.008-1.318,1.425-2.646,2.237-3.969
		C455.412,214.997,455.827,215.002,456.243,215.008z"/>
	<path fill-rule="evenodd" clip-rule="evenodd" d="M114.065,414.21c2.047-1.554,3.161-3.074,4.399-3.183
		c1.947-0.172,3.322,1.556,2.878,3.433c-0.292,1.237-1.877,3.058-2.829,3.025C117.282,417.443,116.104,415.814,114.065,414.21z"/>
	<path fill-rule="evenodd" clip-rule="evenodd" d="M294.253,458.622c-1.135,0.952-2.149,2.438-3.433,2.727
		c-1.87,0.418-3.027-0.964-3.008-2.962c0.018-1.835,0.768-3.498,2.771-3.253c1.276,0.155,2.415,1.426,3.616,2.195
		C294.218,457.761,294.235,458.191,294.253,458.622z"/>
	<path fill-rule="evenodd" clip-rule="evenodd" d="M413.461,114.72c-2.162,1.276-3.358,2.487-4.677,2.641
		c-1.928,0.226-3.19-1.513-2.733-3.142c0.339-1.207,2.068-2.744,3.229-2.789C410.372,111.388,411.533,113.108,413.461,114.72z"/>
	<path fill-rule="evenodd" clip-rule="evenodd" d="M326.589,444.579c3.529-0.182,4.108,1.751,3.984,3.357
		c-0.074,0.968-1.631,2.485-2.623,2.571c-1.677,0.145-3.726-0.689-3.332-2.939C324.844,446.281,326.163,445.186,326.589,444.579z"/>
	<path fill-rule="evenodd" clip-rule="evenodd" d="M386.843,414.174c-2.082,1.558-3.306,2.474-4.529,3.389
		c-0.862-1.204-2.197-2.31-2.474-3.636c-0.389-1.874,1.13-3.232,2.901-2.935C383.937,411.193,384.925,412.617,386.843,414.174z"/>
	<path fill-rule="evenodd" clip-rule="evenodd" d="M107.85,400.945c-0.028,3.157-1.368,4.218-3.165,3.861
		c-1.12-0.221-2.817-1.576-2.828-2.44c-0.019-1.515,0.202-4.047,2.703-3.639C105.926,398.949,107.093,400.403,107.85,400.945z"/>
	<path fill-rule="evenodd" clip-rule="evenodd" d="M51.303,180.484c1.192-0.796,2.287-1.94,3.6-2.309
		c1.985-0.557,2.774,1.002,2.86,2.676c0.109,2.123-1.363,3.401-3.207,3.294c-1.121-0.065-2.163-1.476-3.241-2.282
		C51.312,181.404,51.308,180.944,51.303,180.484z"/>
	<path fill-rule="evenodd" clip-rule="evenodd" d="M75.003,143.918c-1.995,1.429-3.31,3.084-4.381,2.939
		c-1.087-0.147-2.576-1.991-2.734-3.237c-0.246-1.934,1.52-3.193,3.35-2.839C72.39,141.003,73.306,142.439,75.003,143.918z"/>
	<path fill-rule="evenodd" clip-rule="evenodd" d="M451.731,181.938c-2.028,1.388-3.352,2.989-4.414,2.833
		c-1.127-0.166-2.656-1.937-2.78-3.134c-0.094-0.899,1.789-2.835,2.738-2.801C448.508,178.879,449.688,180.417,451.731,181.938z"/>
	<path fill-rule="evenodd" clip-rule="evenodd" d="M192.444,44.437c2.583,0.426,3.361,1.428,3.464,3.277
		c0.108,1.958-0.643,3.268-2.627,3.293c-1.825,0.022-3.351-1.095-3.083-2.975C190.378,46.753,191.656,45.63,192.444,44.437z"/>
	<path fill-rule="evenodd" clip-rule="evenodd" d="M312.766,454.492c-1.064,0.735-2.044,1.868-3.211,2.114
		c-1.809,0.381-3.504-0.828-3.277-2.59c0.154-1.197,1.753-2.844,2.944-3.08c0.991-0.195,2.332,1.37,3.518,2.156
		C312.749,453.559,312.757,454.025,312.766,454.492z"/>
	<path fill-rule="evenodd" clip-rule="evenodd" d="M45.558,214.678c2.221-0.177,3.17,1.395,2.881,3.05
		c-0.209,1.196-1.703,2.993-2.655,3.013c-1.066,0.022-2.855-1.51-3.094-2.63C42.335,216.441,43.142,214.61,45.558,214.678z"/>
	<path fill-rule="evenodd" clip-rule="evenodd" d="M274.926,460.962c-0.013,2.521-1.027,3.559-3.035,3.495
		c-1.678-0.053-2.772-0.867-2.718-2.677c0.059-1.957,1.02-3.561,3.006-3.606C274.013,458.129,275.115,459.436,274.926,460.962z"/>
	<path fill-rule="evenodd" clip-rule="evenodd" d="M43.167,259.433c-2.062,0.119-2.99-1.394-3.026-3.057
		c-0.034-1.567,0.911-2.928,2.934-2.837c2.013,0.092,3.06,1.146,3.001,3.099C46.026,258.353,45.327,259.65,43.167,259.433z"/>
	<path fill-rule="evenodd" clip-rule="evenodd" d="M294.028,43.666c-2.021,1.338-3.095,2.584-4.294,2.719
		c-1.877,0.212-3.167-1.388-2.842-3.096c0.222-1.168,1.892-3.039,2.638-2.916C290.871,40.594,292.002,42.078,294.028,43.666z"/>
	<path fill-rule="evenodd" clip-rule="evenodd" d="M446.698,318.124c-0.282-0.479-1.357-1.492-1.409-2.556
		c-0.093-1.91,1.016-3.235,3.197-3.215c1.987,0.021,2.76,1.267,2.71,2.974C451.134,317.406,449.907,318.426,446.698,318.124z"/>
	<path fill-rule="evenodd" clip-rule="evenodd" d="M459.771,255.407c0.327,0.467,1.551,1.443,1.64,2.513
		c0.158,1.904-1.083,3.262-3.148,3.28c-1.771,0.016-2.943-0.943-2.805-2.817C455.602,256.463,456.53,255.134,459.771,255.407z"/>
	<path fill-rule="evenodd" clip-rule="evenodd" d="M195.896,454.488c-1.118,0.739-2.164,1.908-3.371,2.105
		c-1.513,0.249-3.049-0.44-3.033-2.5c0.017-2.043,1.271-3.493,3.064-3.399c1.162,0.061,2.246,1.61,3.364,2.492
		C195.914,453.621,195.905,454.055,195.896,454.488z"/>
	<path fill-rule="evenodd" clip-rule="evenodd" d="M455.266,198.639c-0.422,2.61-1.206,3.796-3.288,3.833
		c-1.798,0.032-3.007-0.716-2.996-2.652c0.012-2.233,1.438-3.471,3.46-3.324C453.431,196.568,454.327,197.885,455.266,198.639z"/>
	<path fill-rule="evenodd" clip-rule="evenodd" d="M95.402,387.821c-0.978,0.714-1.895,1.896-2.949,2.034
		c-1.708,0.226-3.644-0.66-3.343-2.629c0.182-1.189,1.785-2.798,2.987-3.041C93.764,383.849,95.071,385.144,95.402,387.821z"/>
	<path fill-rule="evenodd" clip-rule="evenodd" d="M75.887,372.124c2.035-1.431,3.28-2.985,4.402-2.898
		c1.088,0.081,2.765,1.76,2.904,2.895c0.233,1.898-1.437,3.207-3.358,2.877C78.722,374.806,77.788,373.565,75.887,372.124z"/>
	<path fill-rule="evenodd" clip-rule="evenodd" d="M458.111,241.39c-2.353,0.103-3.14-1.351-2.657-2.931
		c0.357-1.167,1.796-2.004,2.753-2.989c0.938,0.998,2.534,1.924,2.652,3.011C461.026,240.009,460.194,241.765,458.111,241.39z"/>
	<path fill-rule="evenodd" clip-rule="evenodd" d="M121.464,87.228c0.123,1.544-1.065,3.003-2.988,2.729
		c-0.997-0.142-2.215-1.913-2.492-3.138c-0.37-1.638,0.683-3.001,2.609-3.013C120.395,83.796,121.472,84.709,121.464,87.228z"/>
	<path fill-rule="evenodd" clip-rule="evenodd" d="M105.063,102.976c-0.714-1.016-2.191-2.256-1.973-3.001
		c0.383-1.317,1.641-3.037,2.822-3.304c1.656-0.374,3.297,1.058,2.909,2.983c-0.248,1.232-1.571,2.25-2.413,3.363
		C105.96,103.004,105.512,102.99,105.063,102.976z"/>
	<path fill-rule="evenodd" clip-rule="evenodd" d="M233.6,41.278c-1.157,0.805-2.219,2.032-3.493,2.319
		c-2.086,0.47-2.801-1.394-2.466-2.891c0.281-1.255,1.574-3.154,2.468-3.182c1.14-0.036,2.33,1.525,3.499,2.397
		C233.605,40.374,233.603,40.826,233.6,41.278z"/>
	<path fill-rule="evenodd" clip-rule="evenodd" d="M420.547,132.067c-1.863,0.216-2.428-0.935-2.492-2.621
		c-0.081-2.097,1.219-3.097,2.998-3.089c1.64,0.009,2.914,1.027,2.835,2.933C423.806,131.314,422.644,132.21,420.547,132.067z"/>
	<path fill-rule="evenodd" clip-rule="evenodd" d="M345.787,443.296c-2.587-0.46-3.803-1.744-3.359-3.3
		c0.34-1.194,1.927-2.501,3.181-2.79c0.742-0.171,2.839,1.737,2.706,2.368C348.027,440.932,346.692,442.068,345.787,443.296z"/>
	<path fill-rule="evenodd" clip-rule="evenodd" d="M69.836,359.508c-0.821-1.138-2.089-2.18-2.36-3.437
		c-0.438-2.034,1.58-2.788,2.916-2.521c1.152,0.23,2.585,1.647,2.863,2.79c0.203,0.832-1.272,2.072-2,3.131
		C70.782,359.483,70.309,359.496,69.836,359.508z"/>
	<path fill-rule="evenodd" clip-rule="evenodd" d="M45.083,199.065c1.721-1.425,2.641-2.811,3.718-2.948
		c2.265-0.287,3.42,1.628,3.139,3.479c-0.163,1.074-1.909,2.566-3.021,2.637C47.95,202.295,46.869,200.628,45.083,199.065z"/>
	<path fill-rule="evenodd" clip-rule="evenodd" d="M386.731,87.861c-1.062,0.857-2.163,2.433-3.172,2.375
		c-1.077-0.062-2.691-1.52-2.948-2.63c-0.39-1.679,0.821-3.325,2.77-3.097c1.168,0.137,2.215,1.315,3.316,2.026
		C386.708,86.978,386.72,87.419,386.731,87.861z"/>
	<path fill-rule="evenodd" clip-rule="evenodd" d="M396.048,103.549c-0.817-1.068-2.335-2.186-2.263-3.188
		c0.08-1.132,1.592-2.164,2.48-3.238c1.051,1.064,2.54,1.976,2.983,3.251c0.251,0.722-1.208,2.041-1.897,3.091
		C396.916,103.494,396.481,103.521,396.048,103.549z"/>
	<path fill-rule="evenodd" clip-rule="evenodd" d="M452.661,299.535c-0.385-0.552-1.936-1.834-1.744-2.753
		c0.254-1.219,1.869-2.152,2.899-3.209c0.886,0.918,2.416,1.781,2.5,2.768C456.433,297.714,456.197,299.783,452.661,299.535z"/>
	<path fill-rule="evenodd" clip-rule="evenodd" d="M326.764,58.41c-1.277-1.947-2.809-3.316-2.554-4.113
		c0.396-1.237,2.009-2.084,3.106-3.097c0.894,1.196,2.238,2.302,2.502,3.624C329.967,55.564,328.324,56.663,326.764,58.41z"/>
	<path fill-rule="evenodd" clip-rule="evenodd" d="M95.51,114.022c-1.126,0.752-2.273,2.109-3.373,2.073
		c-0.943-0.032-2.686-1.813-2.553-2.544c0.217-1.197,1.554-2.845,2.637-3.03c0.938-0.163,2.181,1.441,3.289,2.264
		C95.509,113.197,95.509,113.61,95.51,114.022z"/>
	<path fill-rule="evenodd" clip-rule="evenodd" d="M434.251,145.093c-2.085,1.196-3.321,2.397-4.633,2.484
		c-0.843,0.055-1.794-1.53-2.695-2.379c1.188-1.056,2.239-2.499,3.626-2.991C431.178,141.984,432.476,143.648,434.251,145.093z"/>
	<path fill-rule="evenodd" clip-rule="evenodd" d="M344.839,65.866c-1.24-1.614-2.462-2.487-2.513-3.423
		c-0.098-1.84,1.007-3.672,3.016-3.34c1.072,0.176,2.507,1.949,2.596,3.094C348.011,63.129,346.329,64.2,344.839,65.866z"/>
	<path fill-rule="evenodd" clip-rule="evenodd" d="M213.139,39.625c0.589,1.075,1.845,2.34,1.605,3.18
		c-0.34,1.191-1.647,2.694-2.781,2.933c-1.638,0.347-3.034-1.09-2.613-2.838c0.302-1.25,1.573-2.268,2.412-3.388
		C212.222,39.549,212.68,39.587,213.139,39.625z"/>
	<path fill-rule="evenodd" clip-rule="evenodd" d="M157.414,58.2c0.88,1.042,2.534,2.162,2.439,3.107
		c-0.108,1.081-1.733,2.736-2.768,2.789c-0.996,0.051-2.66-1.456-2.991-2.583C153.579,59.756,154.981,58.784,157.414,58.2z"/>
	<path fill-rule="evenodd" clip-rule="evenodd" d="M176.452,56.361c-2.896,0.128-3.964-1.132-3.615-2.78
		c0.235-1.112,1.667-1.971,2.563-2.942c0.965,1.022,2.443,1.924,2.72,3.107C178.314,54.569,176.857,55.779,176.452,56.361z"/>
	<path fill-rule="evenodd" clip-rule="evenodd" d="M309.873,45.4c0.299,0.384,1.459,1.212,1.582,2.174
		c0.24,1.888-1.063,3.267-2.919,3.049c-0.985-0.116-2.443-1.397-2.594-2.328C305.653,46.484,306.834,45.275,309.873,45.4z"/>
	<path fill-rule="evenodd" clip-rule="evenodd" d="M250.803,335.821c-23.461-0.476-44.133-8.749-60.626-25.101
		c-14.635-14.508-22.535-32.669-24.082-53.777c-3.968-54.139,42.318-91.904,87.01-89.763c46.479,2.226,83.093,35.969,82.144,87.946
		C334.427,300.092,294.308,336.821,250.803,335.821z M170.609,250.979c-0.17,44.222,34.038,78.192,79.03,80.06
		c9.674,0.401,18.999-1.197,28.082-4.647c8.917-3.387,16.986-8.077,24.399-14.062c7.479-6.038,13.119-13.523,18.08-21.643
		c4.986-8.166,8.375-17.03,9.291-26.435c0.899-9.218,0.381-18.572,0.484-27.867c-4.981-16.198-10.752-31.877-24.394-43.276
		c-16.18-13.52-34.566-21.478-55.727-21.183C211.001,172.465,170.813,202.74,170.609,250.979z"/>
	<path fill-rule="evenodd" clip-rule="evenodd" d="M158.48,235.575c-0.35,2.635-1.603,3.438-3.294,3.547
		c-2.146,0.139-2.651-1.462-2.902-3.179c-0.314-2.15,1.435-2.998,2.771-2.857C156.27,233.213,157.344,234.692,158.48,235.575z"/>
	<path fill-rule="evenodd" clip-rule="evenodd" d="M345.132,269.394c-0.465-0.649-1.74-1.634-1.806-2.693
		c-0.12-1.981,1.347-3.35,3.336-3.012c0.984,0.167,2.429,1.502,2.497,2.396C349.3,267.943,348.11,269.304,345.132,269.394z"/>
	<path fill-rule="evenodd" clip-rule="evenodd" d="M187.656,182.572c-1.847,1.329-2.88,2.641-4.061,2.791
		c-1.904,0.242-3.229-1.44-2.788-3.097c0.322-1.206,1.952-2.551,3.222-2.834C184.783,179.265,185.968,181.038,187.656,182.572z"/>
	<path fill-rule="evenodd" clip-rule="evenodd" d="M159.16,266.968c-1.135,0.856-2.184,2.256-3.424,2.451
		c-2.224,0.353-2.689-1.58-2.775-3.364c-0.091-1.888,1.145-2.399,2.774-2.469C157.671,263.505,158.486,264.554,159.16,266.968z"/>
	<path fill-rule="evenodd" clip-rule="evenodd" d="M163.002,281.482c-2.059,1.348-3.499,2.957-4.359,2.69
		c-1.174-0.361-2.563-2.129-2.607-3.339c-0.031-0.859,1.956-2.398,3.14-2.501C160.106,278.252,161.187,279.903,163.002,281.482z"/>
	<path fill-rule="evenodd" clip-rule="evenodd" d="M225.473,159.796c-1.799,1.595-2.848,3.24-4.002,3.317
		c-0.906,0.061-2.486-1.671-2.799-2.861c-0.507-1.931,1.07-3.169,2.871-3.017C222.627,157.327,223.618,158.531,225.473,159.796z"/>
	<path fill-rule="evenodd" clip-rule="evenodd" d="M290.819,336.302c1.15-0.817,2.2-2.037,3.474-2.355
		c1.751-0.439,2.652,0.963,2.653,2.602c0.002,1.888-1.077,3.309-2.995,3.096c-1.1-0.123-2.082-1.313-3.117-2.021
		C290.83,337.183,290.824,336.742,290.819,336.302z"/>
	<path fill-rule="evenodd" clip-rule="evenodd" d="M333.125,308.765c-1.672,1.361-2.792,2.962-3.742,2.866
		c-1.108-0.111-2.669-1.552-2.96-2.688c-0.534-2.098,1.318-3.279,3.07-3.208C330.505,305.775,331.457,307.303,333.125,308.765z"/>
	<path fill-rule="evenodd" clip-rule="evenodd" d="M231.674,156.2c1.812-1.428,2.697-2.667,3.76-2.845
		c1.951-0.327,3.008,1.068,3.026,2.971c0.018,1.819-1.145,3.104-2.854,2.834C234.483,158.982,233.539,157.667,231.674,156.2z"/>
	<path fill-rule="evenodd" clip-rule="evenodd" d="M250.723,151.174c1.445,1.867,3.011,3.012,2.915,3.999
		c-0.107,1.111-1.57,2.726-2.692,2.967c-2.111,0.455-3.147-1.405-2.978-3.209C248.065,153.882,249.362,152.947,250.723,151.174z"/>
	<path fill-rule="evenodd" clip-rule="evenodd" d="M211.463,336.605c-1.782,1.396-2.757,2.76-3.909,2.931
		c-1.987,0.292-3.055-1.505-2.806-3.146c0.159-1.05,1.72-2.644,2.628-2.63C208.498,333.778,209.596,335.217,211.463,336.605z"/>
	<path fill-rule="evenodd" clip-rule="evenodd" d="M262.849,157.518c0.424-2.686,1.419-3.457,3.363-3.402
		c1.819,0.05,3.004,1.038,2.566,2.642c-0.331,1.214-1.633,2.743-2.745,2.976C265.164,159.916,263.924,158.322,262.849,157.518z"/>
	<path fill-rule="evenodd" clip-rule="evenodd" d="M335.666,293.173c3.117,0.021,4.092,1.351,3.664,3.157
		c-0.247,1.036-1.588,1.813-2.437,2.704c-1.005-0.984-2.569-1.841-2.836-2.997C333.849,295.132,335.246,293.855,335.666,293.173z"/>
	<path fill-rule="evenodd" clip-rule="evenodd" d="M235.787,349.657c-1.397-1.613-2.887-2.576-3.117-3.778
		c-0.335-1.764,1.296-3.068,2.905-2.571c1.268,0.393,2.391,1.866,3.075,3.131C238.835,346.783,237.197,348.113,235.787,349.657z"/>
	<path fill-rule="evenodd" clip-rule="evenodd" d="M337.241,203.717c0.704,1.047,1.857,2.032,2.011,3.154
		c0.258,1.878-1.175,3.245-2.935,3.001c-1.01-0.14-2.582-1.742-2.541-2.62c0.058-1.226,1.389-2.393,2.175-3.585
		C336.38,203.684,336.81,203.701,337.241,203.717z"/>
	<path fill-rule="evenodd" clip-rule="evenodd" d="M350.501,252.693c-0.45,0.342-1.88,1.922-2.328,1.681
		c-1.225-0.66-2.402-1.962-2.85-3.267c-0.21-0.608,1.229-2.502,2.068-2.604C349.314,248.267,350.58,249.498,350.501,252.693z"/>
	<path fill-rule="evenodd" clip-rule="evenodd" d="M203.775,166.013c1.79-1.413,2.821-2.853,3.929-2.914
		c0.956-0.052,2.719,1.36,2.852,2.305c0.263,1.873-1.057,3.435-3.127,3.212C206.426,168.508,205.541,167.324,203.775,166.013z"/>
	<path fill-rule="evenodd" clip-rule="evenodd" d="M254.797,346.564c-1.801,1.827-2.724,3.546-3.966,3.82
		c-1.494,0.333-2.765-0.872-2.665-2.909c0.097-1.986,0.866-3.283,2.903-3.057C252.057,344.531,252.953,345.464,254.797,346.564z"/>
	<path fill-rule="evenodd" clip-rule="evenodd" d="M262.874,345.261c1.126-0.7,2.296-2.001,3.363-1.921
		c0.968,0.073,2.446,1.561,2.592,2.582c0.259,1.818-1.204,3.158-3.034,2.876c-1.068-0.165-1.964-1.449-2.938-2.229
		C262.864,346.132,262.869,345.696,262.874,345.261z"/>
	<path fill-rule="evenodd" clip-rule="evenodd" d="M294.82,161.667c1.256,1.891,2.407,2.881,2.543,3.994
		c0.23,1.911-1.334,3.225-3.009,2.868c-1.005-0.214-2.205-1.977-2.314-3.137C291.956,164.488,293.422,163.439,294.82,161.667z"/>
	<path fill-rule="evenodd" clip-rule="evenodd" d="M171.57,311.643c-0.615-1.062-1.831-2.211-1.689-3.159
		c0.163-1.102,1.39-2.691,2.381-2.881c1.774-0.339,3.322,1.006,3.018,2.902c-0.189,1.178-1.54,2.168-2.369,3.241
		C172.463,311.711,172.017,311.677,171.57,311.643z"/>
	<path fill-rule="evenodd" clip-rule="evenodd" d="M277.26,341.791c0.978-0.664,1.898-1.758,2.944-1.894
		c1.729-0.228,3.029,0.841,2.829,2.757c-0.16,1.536-0.76,3.292-2.766,2.81c-1.13-0.272-2.031-1.488-3.036-2.277
		C277.241,342.721,277.251,342.256,277.26,341.791z"/>
	<path fill-rule="evenodd" clip-rule="evenodd" d="M172.777,197.116c-0.811-1.072-2.329-2.205-2.241-3.198
		c0.096-1.098,1.663-2.067,2.589-3.091c0.948,0.993,2.415,1.866,2.678,3.016c0.2,0.875-1.128,2.099-1.776,3.168
		C173.61,197.045,173.194,197.081,172.777,197.116z"/>
	<path fill-rule="evenodd" clip-rule="evenodd" d="M154.506,248.271c0.771,1.14,2.254,2.377,2.116,3.394
		c-0.143,1.054-1.765,2.431-2.919,2.63c-0.722,0.125-2.485-1.655-2.497-2.598c-0.014-1.147,1.321-2.311,2.072-3.468
		C153.688,248.243,154.097,248.257,154.506,248.271z"/>
	<path fill-rule="evenodd" clip-rule="evenodd" d="M224.101,343.517c-1.037,0.693-2.295,2.132-3.061,1.905
		c-1.184-0.349-2.481-1.705-2.834-2.899c-0.176-0.596,1.66-2.538,2.537-2.508c1.146,0.04,2.244,1.434,3.363,2.245
		C224.104,342.679,224.102,343.098,224.101,343.517z"/>
	<path fill-rule="evenodd" clip-rule="evenodd" d="M338.829,219.72c1.077-0.533,2.295-1.662,3.19-1.446
		c1.051,0.254,2.678,1.878,2.521,2.547c-0.28,1.188-1.736,2.941-2.662,2.918c-1.086-0.027-2.134-1.695-3.197-2.651
		C338.731,220.632,338.78,220.176,338.829,219.72z"/>
	<path fill-rule="evenodd" clip-rule="evenodd" d="M341.22,278.212c2.757,0.327,3.665,1.759,3.401,3.286
		c-0.188,1.097-1.598,1.982-2.464,2.964c-1.002-0.957-2.603-1.792-2.826-2.903C339.141,280.607,340.529,279.339,341.22,278.212z"/>
	<path fill-rule="evenodd" clip-rule="evenodd" d="M331.482,194.063c-1.032,0.854-1.969,2.23-3.12,2.442
		c-1.788,0.328-2.839-1.145-2.683-2.882c0.134-1.508,0.798-2.88,2.789-2.874C330.336,190.756,331.02,191.711,331.482,194.063z"/>
	<path fill-rule="evenodd" clip-rule="evenodd" d="M284.42,160.81c-1.941,1.244-3.122,2.59-4.057,2.436
		c-0.952-0.157-2.318-1.803-2.3-2.772c0.021-1.06,1.424-2.092,2.225-3.136C281.405,158.277,282.523,159.217,284.42,160.81z"/>
	<path fill-rule="evenodd" clip-rule="evenodd" d="M184.232,316.518c0.589,1.082,1.873,2.404,1.602,3.189
		c-0.391,1.133-1.817,2.369-2.985,2.59c-0.65,0.123-2.447-1.824-2.339-2.66c0.146-1.147,1.608-2.129,2.507-3.181
		C183.422,316.477,183.827,316.496,184.232,316.518z"/>
	<path fill-rule="evenodd" clip-rule="evenodd" d="M317.479,322.935c-0.386-0.559-1.827-1.761-1.635-2.576
		c0.284-1.209,1.572-2.482,2.757-3.027c0.474-0.218,2.517,1.37,2.589,2.239C321.315,321.103,320.723,322.926,317.479,322.935z"/>
	<path fill-rule="evenodd" clip-rule="evenodd" d="M307.353,326.581c0.635,0.991,1.771,1.972,1.792,2.978
		c0.037,1.796-1.219,3.255-3.135,2.928c-0.916-0.157-2.396-1.739-2.253-2.358c0.307-1.327,1.504-2.449,2.337-3.654
		C306.514,326.51,306.934,326.546,307.353,326.581z"/>
	<path fill-rule="evenodd" clip-rule="evenodd" d="M191.82,171.904c1.003-0.705,1.94-1.85,3.026-2.017
		c1.851-0.284,2.729,1.105,2.846,2.871c0.127,1.911-1.189,2.793-2.706,2.553c-1.12-0.177-2.083-1.346-3.117-2.072
		C191.854,172.793,191.836,172.35,191.82,171.904z"/>
	<path fill-rule="evenodd" clip-rule="evenodd" d="M308.872,171.846c0.092,2.948-1.022,4.053-2.783,3.685
		c-0.987-0.207-2.257-1.391-2.496-2.357c-0.448-1.809,0.835-3.007,2.639-2.767C307.331,170.552,308.32,171.525,308.872,171.846z"/>
	<path fill-rule="evenodd" clip-rule="evenodd" d="M169.217,206.774c-1.927,1.216-3.124,2.562-4.086,2.412
		c-0.946-0.148-2.196-1.743-2.344-2.833c-0.235-1.741,1.136-3.042,2.919-2.598C166.781,204.023,167.6,205.325,169.217,206.774z"/>
	<path fill-rule="evenodd" clip-rule="evenodd" d="M162.634,220.8c-1.68,1.267-2.604,2.485-3.706,2.676
		c-1.671,0.289-3.366-0.864-2.896-2.612c0.32-1.187,1.994-2.304,3.306-2.787C159.874,217.881,161.056,219.445,162.634,220.8z"/>
	<path fill-rule="evenodd" clip-rule="evenodd" d="M165.026,298.974c-1.394-1.735-2.87-2.811-2.723-3.578
		c0.198-1.039,1.631-2.546,2.547-2.554c0.975-0.01,2.493,1.354,2.769,2.386C167.817,295.967,166.359,297.148,165.026,298.974z"/>
	<path fill-rule="evenodd" clip-rule="evenodd" d="M315.136,181.739c1.032-0.656,2-1.7,3.11-1.884
		c2.035-0.339,2.827,1.373,2.521,2.921c-0.205,1.036-1.649,2.632-2.412,2.564c-1.146-0.104-2.18-1.446-3.261-2.261
		C315.108,182.632,315.121,182.186,315.136,181.739z"/>
	<path fill-rule="evenodd" clip-rule="evenodd" d="M349.96,236.565c-1.838,1.151-2.931,2.373-3.935,2.303
		c-0.894-0.062-2.541-1.876-2.361-2.349c0.463-1.215,1.604-2.569,2.775-2.955C347.051,233.363,348.297,235.086,349.96,236.565z"/>
	<path fill-rule="evenodd" clip-rule="evenodd" d="M198.214,329.59c-1.76,1.272-2.623,2.336-3.663,2.552
		c-2.046,0.428-2.865-1.292-2.639-2.815c0.139-0.948,1.596-2.374,2.457-2.371C195.389,326.959,196.405,328.269,198.214,329.59z"/>
	<path fill-rule="evenodd" clip-rule="evenodd" d="M251.007,300.885c-2.125,3.893-4.017,8.044-6.532,11.773
		c-2.439,3.617-6.143,5.292-10.618,4.104c-4.527-1.202-7.063-4.644-7.562-8.902c-0.5-4.264,0.188-8.665,0.352-12.907
		c-1.175,0.918-2.751,2.357-4.527,3.484c-2.344,1.486-4.715,3.111-7.307,3.99c-4.21,1.425-8.262,0.619-11.206-2.954
		c-2.734-3.317-2.938-7.171-1.605-11.201c1.842-5.571,4.887-10.237,9.755-13.636c0.54-0.377,0.938-0.957,0.939-0.958
		c-5.051,0.805-10.546,2.094-16.099,2.439c-4.722,0.294-8.998-1.916-10.649-6.546c-1.633-4.577-0.699-9.138,2.938-12.84
		c5.082-5.174,11.569-7.035,19.309-8.163c-1.766-0.592-2.817-1.028-3.909-1.297c-5.012-1.229-9.312-3.804-12.914-7.374
		c-3.193-3.166-4.719-7.283-3.211-11.627c1.608-4.627,5.065-7.726,10.166-8.322c5.485-0.64,10.704,0.387,15.57,3.438
		c-1.634-3.505-3.353-6.609-4.547-9.902c-1.586-4.368-1.729-8.869,0.592-13.101c4.334-7.899,13.725-6.554,19.13-1.594
		c3.417,3.136,6.227,6.935,9.033,10.125c0.47-4.62,0.642-9.677,1.617-14.574c0.531-2.669,1.938-5.521,3.792-7.5
		c4.593-4.902,10.4-4.468,15.119,0.668c2.998,3.263,4.276,7.309,4.563,11.604c0.242,3.625,0.05,7.278,0.05,11.421
		c1.242-1.904,2.272-3.453,3.272-5.022c3.115-4.889,7.53-8.487,12.755-10.528c6.564-2.564,13.681,0.871,13.807,10.446
		c0.098,7.487-3.402,13.418-8.151,18.771c3.612-1.209,7.127-2.815,10.812-3.49c3.24-0.593,6.736-0.56,10.003-0.054
		c4.459,0.689,6.553,4.246,7.414,8.292c0.86,4.047-0.239,7.951-3.652,10.343c-4.146,2.907-8.741,5.176-13.146,7.71
		c-0.637,0.366-1.306,0.681-2.359,1.226c7.08,0.999,13.01,3.284,18.11,7.795c4.234,3.744,5.188,8.353,3.319,13.11
		c-1.696,4.32-6.174,5.856-10.499,5.904c-4.487,0.05-8.984-0.884-13.478-1.384c-0.541-0.062-1.086-0.106-1.905-0.187
		c2.65,2.911,5.418,5.375,7.438,8.346c1.792,2.634,3.509,5.729,3.932,8.804c1.047,7.614-4.226,12.306-12.253,11.768
		c-5.071-0.338-8.679-3.431-12.34-6.444c-0.572-0.471-1.139-0.95-2.217-1.851c0.688,2.452,1.274,4.27,1.704,6.124
		c1.247,5.371-0.886,12.136-4.572,14.709c-4.103,2.86-8.405,2.628-12.188-0.598C254.699,310.613,252.521,305.619,251.007,300.885z
		 M281.396,249.209c0.021-0.054,0.041-0.107,0.062-0.163c0.016,0.054,0.032,0.107,0.049,0.162c-0.044-0.022-0.09-0.044-0.136-0.066
		C281.383,249.172,281.396,249.2,281.396,249.209z M282.265,295.12c2.456,1.026,4.852,2.238,7.382,3.026
		c2.646,0.824,5.06-0.486,6.183-2.995c1.358-3.032,0.806-5.98-1.056-8.501c-2.584-3.496-5.088-7.218-8.336-10.019
		c-5.315-4.586-11.204-8.508-16.829-12.694c-2.123,2.404-3.832,4.342-5.545,6.28c4.525,9.425,9.531,18.496,18.229,24.856
		c-0.328,0.104-0.657,0.208-0.986,0.313c0.013,0.029,0.025,0.061,0.037,0.09C281.65,295.357,281.957,295.239,282.265,295.12z
		 M250.264,269.521c9.328,1.326,17.293-7.55,18.228-16.33c0.869-8.174-4.957-19.426-17.221-19.841
		c-10.728-0.363-17.822,7.35-18.757,15.649C231.395,258.935,238.256,269.087,250.264,269.521z M227.307,250.817
		c-9-0.745-18.002,0.075-26.676,3.479c-3.737,1.467-7.096,3.426-9.541,6.719c-3.272,4.41-1.637,9.091,3.681,10.293
		c1.396,0.314,2.873,0.458,4.304,0.416c10.722-0.312,20.178-4.398,29.064-10.021c0.6-0.38,0.93-1.764,0.81-2.597
		C228.562,256.399,227.907,253.73,227.307,250.817z M243.084,228.527c-2.694-5.375-5.324-11.042-8.332-16.503
		c-2.947-5.351-7.362-9.397-12.778-12.206c-4.632-2.402-9.849,0.647-9.689,5.929c0.077,2.532,0.725,5.183,1.72,7.523
		c2.7,6.349,7.68,11.032,12.452,15.79c2.34,2.333,5.058,4.285,7.335,6.186C237.044,232.895,239.768,230.925,243.084,228.527z
		 M281.401,250.703c-1.742,0-3.487-0.078-5.224,0.015c-4.827,0.26-2.356,4.74-3.827,6.988c-0.459,0.702,0.215,2.96,1.05,3.561
		c6.727,4.845,14.182,8.208,22.448,9.238c3.659,0.457,7.469,0.365,11.135-0.085c4.12-0.505,6.451-5.763,3.917-8.844
		c-1.97-2.394-4.48-4.555-7.164-6.103C296.866,251.513,289.2,250.644,281.401,250.703z M258.288,229.605
		c3.339,2.239,5.935,3.979,8.609,5.771c7.052-4.634,13.194-10.486,17.551-17.897c1.951-3.319,3.254-7.172,4.104-10.951
		c1.127-5.014-2.068-8.15-7.06-7.178c-6.403,1.25-10.264,6.205-13.42,11.15C264.239,216.509,261.497,223.213,258.288,229.605z
		 M231.131,238.845c-0.971-0.779-2.147-1.744-3.344-2.683c-7.366-5.781-15.576-9.851-24.707-11.956
		c-3.803-0.877-8.688,0.984-10.036,3.573c-1.71,3.286-1.034,7.348,2.653,10.223c2.949,2.301,6.479,4.032,9.991,5.403
		c7.063,2.756,14.53,3.292,21.78,3.265C228.709,244.02,229.8,241.689,231.131,238.845z M300.415,223.985
		c-3.924,1.103-7.902,2.163-11.846,3.343c-6.943,2.078-11.745,7.571-17.704,11.224c0.578,2.38,1.071,4.788,1.796,7.123
		c0.187,0.599,1.136,1.413,1.685,1.377c8.112-0.522,16.16-1.455,23.572-5.165c3.906-1.956,7.7-4.119,10.068-7.993
		c1.856-3.037,1.185-6.46-1.867-8.231C304.547,224.75,302.543,224.58,300.415,223.985z M254.836,228.052
		c3.378-9.033,5.005-18.306,4.427-27.796c-0.195-3.197-1.809-6.422-3.269-9.392c-1.215-2.47-3.997-3.398-6.443-2.716
		c-1.756,0.489-3.753,2.155-4.488,3.809c-1.213,2.732-1.878,5.85-2.096,8.854c-0.692,9.519,1.316,18.728,3.81,27.924
		C249.361,228.516,251.944,228.297,254.836,228.052z M210.639,298.94c1.567-0.541,3.95-0.936,5.865-2.099
		c9.969-6.054,16.521-14.868,20.203-25.876c0.115-0.343,0.278-0.763,0.179-1.072c-0.908-2.868-5.916-4.82-8.449-3.028
		c-4.955,3.509-9.954,7.017-14.506,11.013c-4.157,3.65-7.198,8.293-8.54,13.813C204.619,294.87,207.198,298.859,210.639,298.94z
		 M252.369,274.284c0.519,6.846,0.828,13.723,1.625,20.543c0.611,5.218,2.661,10.03,5.902,14.234
		c2.178,2.824,5.517,4.137,7.774,3.189c2.153-0.903,4.525-4.997,4.146-7.824c-0.435-3.226-0.85-6.554-1.993-9.563
		c-2.378-6.258-5.267-12.319-7.87-18.492c-1.136-2.695-2.561-4.379-5.779-2.824C255.266,273.985,254.133,273.961,252.369,274.284z
		 M249.235,283.829c-0.208-0.049-0.417-0.099-0.625-0.147c-0.137-2.394-0.487-4.798-0.36-7.177c0.177-3.272-2.542-2.241-4.025-2.87
		c-1.29-0.547-2.787-0.724-3.614,1.153c-2.89,6.565-6.218,12.964-8.674,19.684c-1.338,3.66-1.642,7.839-1.681,11.79
		c-0.029,2.98,1.919,5.45,4.853,6.579c2.64,1.016,4.523-0.801,5.984-2.516c1.652-1.938,3.469-4.126,4.071-6.494
		C246.839,297.244,247.92,290.507,249.235,283.829z"/>
	<path fill-rule="evenodd" clip-rule="evenodd" d="M250.003,259.468c-5.392,0.385-8.457-3.689-8.59-8.4
		c-0.133-4.693,4.259-8.613,9.065-8.587c4.692,0.026,8.875,3.945,8.769,8.214C259.109,256.201,255.588,259.542,250.003,259.468z"/>
</g>
</svg>
