<?xml version="1.0" encoding="utf-8"?>
<!-- Generator: Adobe Illustrator 16.0.0, SVG Export Plug-In . SVG Version: 6.00 Build 0)  -->
<!DOCTYPE svg PUBLIC "-//W3C//DTD SVG 1.1//EN" "http://www.w3.org/Graphics/SVG/1.1/DTD/svg11.dtd">
<svg version="1.1" id="Layer_1" xmlns="http://www.w3.org/2000/svg" xmlns:xlink="http://www.w3.org/1999/xlink" x="0px" y="0px"
	 width="500px" height="500px" viewBox="0 0 500 500" enable-background="new 0 0 500 500" xml:space="preserve">
<g>
	<path fill-rule="evenodd" clip-rule="evenodd" d="M16.781,204.629c-2.385-3.245-4.546-6.222-6.75-9.167
		c-1-1.335-1.377-2.673,0.089-3.835c10.102-8.001,20.914-14.121,34.478-11.367c3.436,0.698,6.648,2.495,10.118,3.849
		c-5.685-15.728-1.025-28.554,12.46-38.544c-2.624-1.708-5.298-3.539-8.063-5.222c-2.503-1.523-2.548-3.49-1.223-5.714
		c7.267-12.195,16.945-21.011,31.777-22.58c0.93-0.099,1.839-0.396,2.861-0.625c-0.189-0.375-0.261-0.672-0.445-0.86
		c-10.435-10.707-11.577-23.475-8.144-37.19c0.652-2.604,1.774-5.096,2.747-7.613c0.769-1.989,2.175-2.602,4.19-1.746
		c3.204,1.364,6.421,2.696,9.511,3.989c0-3.629,0.063-7.426-0.028-11.219c-0.042-1.82,0.731-2.763,2.459-2.933
		c13.442-1.322,25.676,1.236,35.157,11.644c2.957,3.246,5.288,7.062,7.773,10.436c5.197-12.845,14.584-20.813,29.083-22.617
		c-0.253-1.163-0.243-2.309-0.735-3.166c-1.51-2.623-0.244-4.045,2-5.001c12.654-5.394,25.376-6.319,38.173-0.452
		c1.136,0.521,2.302,0.977,3.19,1.353c0.415-4.717,0.384-9.49,1.324-14.063c2.593-12.607,10.443-21.504,21.171-28.019
		c3.932-2.388,4.778-1.9,6.98,2.172c1.521,2.814,3.165,5.563,4.941,8.666c1.989-3.38,3.812-6.468,5.626-9.56
		c1.69-2.881,3.305-3.446,6.16-1.621c6.044,3.863,11.296,8.587,15.313,14.628c5.617,8.444,6.587,17.688,5.021,27.421
		c-0.092,0.564-0.203,1.125-0.315,1.749c4.028-1.587,7.841-3.376,11.827-4.602c10.87-3.342,21.337-1.527,31.525,2.958
		c2.543,1.12,3.778,2.552,2.069,5.356c-0.854,1.403-0.517,2.629,1.343,3.029c13.574,2.923,22.441,10.943,26.065,24.295
		c2.576-3.813,4.755-7.809,7.657-11.186c9.176-10.675,21.473-13.755,34.949-13.573c2.014,0.026,3.069,1.251,3.116,3.157
		c0.091,3.592,0.027,7.188,0.027,11.113c3.917-1.441,7.325-2.672,10.715-3.952c2.041-0.77,3.038-0.175,3.94,1.928
		c5.633,13.14,6.439,26.166-0.792,38.948c-1.579,2.791-4.021,5.094-5.686,7.154c4.378,1.164,9.306,1.913,13.763,3.781
		c8.61,3.61,14.969,9.991,19.543,18.108c2.104,3.731,1.516,5.798-2.096,7.934c-1.173,0.693-2.359,1.367-3.57,1.991
		c-1.192,0.615-2.424,1.153-4.174,1.976c7.637,3.49,11.822,9.606,14.552,16.826c2.801,7.409,1.952,14.887-0.252,22.697
		c6.294-3.736,12.639-5.768,19.753-5.254c9.3,0.669,16.821,5.1,23.87,10.641c1.847,1.452,1.685,3.454,0.386,5.205
		c-2.287,3.086-4.717,6.066-7.159,9.183c2.989,0.652,6.099,1.277,9.181,2.016c4.877,1.168,5.351,1.962,4.126,6.867
		c-4.041,16.189-14.371,25.922-30.771,29.85c1.023,0.771,1.974,1.524,2.962,2.225c8.824,6.259,12.488,15.394,14.009,25.599
		c0.497,3.34,0.34,6.786,0.363,10.185c0.011,1.529-0.661,2.579-2.492,2.496c-3.087-0.14-6.181-0.149-9.269-0.262
		c-1.245-0.045-2.485-0.217-4.145-0.369c1.041,2.873,2.01,5.371,2.85,7.911c1.288,3.896,0.717,4.839-3.021,6.357
		c-0.801,0.326-1.876,1.688-1.738,2.346c1.39,6.639-0.102,12.688-3.691,18.426c3.55,0.513,6.751,0.853,9.899,1.459
		c5.007,0.965,5.797,2.646,5.172,7.643c-1.465,11.713-8.095,19.688-17.761,25.634c-0.401,0.247-0.802,0.492-1.321,0.81
		c17.735,5.827,22.326,20.859,21.611,34.746c-0.048,0.922-1.184,2.343-2.056,2.562c-2.526,0.632-5.17,0.834-7.779,1.073
		c-1.514,0.139-3.051,0.025-5.013,0.025c1.256,1.976,2.313,3.544,3.267,5.171c0.638,1.087,1.276,2.213,1.647,3.405
		c0.548,1.752,1.468,3.733,1.059,5.316c-0.283,1.097-2.458,1.867-3.916,2.478c-11.167,4.673-22.304,5.54-32.988-1.187
		c-3.237-2.037-5.954-4.902-8.859-7.347c-0.379,2.611-0.464,5.721-1.315,8.607c-3.105,10.555-9.962,18.084-19.548,23.257
		c-0.086,0.045-0.183,0.071-0.269,0.117c-4.587,2.466-4.853,2.44-8.608-0.87c-4.523,4.361-8.848,8.975-13.629,13.051
		c-12.353,10.532-25.726,19.506-40.985,25.381c-4.704,1.812-9.522,3.363-14.116,5.419c-2.521,1.128-4.762,2.955-6.993,4.646
		c-11.209,8.502-23.384,10.164-36.737,5.264c0.449,1.977,0.976,3.826,1.279,5.712c2.056,12.818-3.128,22.786-12.558,30.881
		c-2.78,2.386-5.997,4.326-9.203,6.137c-3.333,1.882-5.041,1.283-7-1.84c-1.993-3.176-3.961-6.367-5.89-9.473
		c-2.186,3.299-4.644,6.618-6.662,10.187c-1.474,2.607-3.304,2.41-5.367,1.367c-6.876-3.483-12.807-8.129-17.211-14.549
		c-4.568-6.66-6.506-14.052-5.762-22.067c0.2-2.154,1.086-4.248,1.809-6.93c-6.188,3.125-12.424,3.252-18.734,2.156
		c-6.57-1.141-12.775-3.173-18.462-6.873c-3.881-2.524-7.974-4.964-12.304-6.519c-22.643-8.132-41.861-21.344-58.475-38.556
		c-1.269-1.315-2.441-2.726-3.673-4.107c-3.473,4.544-3.952,4.605-9.075,1.536c-5.113-3.063-10.043-6.303-13.792-11.101
		c-4.836-6.191-6.66-13.29-6.728-21.696c-4.38,5.841-10.012,8.933-16.201,11.012c-7.604,2.554-15.232,2.786-22.754-0.511
		c-1.424-0.624-2.887-1.285-4.399-1.558c-2.923-0.526-3.453-2.294-2.528-4.646c1.583-4.028,3.378-7.972,5.085-11.954
		c-2.926,0.213-6.157,0.587-9.395,0.646c-3.571,0.064-4.631-1.118-4.911-4.627c-1.016-12.759,6.625-28.727,22.729-33.851
		c-5.845-3.013-10.799-6.799-14.345-12.241c-3.669-5.631-5.298-11.882-5.624-18.482c-0.037-0.743,1.371-1.962,2.333-2.279
		c3.943-1.296,7.974-2.327,12.3-3.549c-3.757-5.829-4.879-12.136-2.923-18.672c-0.398-0.32-0.526-0.499-0.692-0.545
		c-5.108-1.424-5.513-2.191-3.975-7.448c0.355-1.212,0.617-2.451,0.961-3.667c0.313-1.109,0.68-2.204,0.884-2.858
		c-3.706,0-7.468,0.122-11.219-0.032c-4.162-0.172-5.355-1.137-4.794-5.445c0.81-6.22,2.034-12.447,3.784-18.467
		c2.041-7.021,6.755-12.385,12.979-16.863c-11.989-2.786-20.238-9.639-25.182-20.336c-1.622-3.507-2.807-7.248-3.876-10.971
		c-1.061-3.698-0.147-4.959,3.576-5.82C10.929,205.911,13.68,205.318,16.781,204.629z M411.482,257.207
		c0.209-11.048-1.321-22.29-3.812-33.462c-2.548-11.433-6.367-22.381-11.315-32.979c-7.285-15.604-17.427-29.187-28.944-41.875
		c-14.534-16.012-31.33-28.884-51.354-37.216c-21.576-8.979-43.975-14.426-67.501-13.52c-9.409,0.362-18.927,1.126-28.13,3.007
		c-22.722,4.642-43.984,12.987-62.476,27.451c-12.427,9.72-23.303,20.974-33.027,33.363C111.519,179.052,102.375,198.15,97,219.216
		c-5.689,22.296-7.304,44.663-2.961,67.333c2.4,12.532,5.809,24.765,11.035,36.453c5.776,12.917,12.137,25.506,21.406,36.328
		c19.233,22.454,42.489,39.149,70.285,49.642c23.916,9.028,48.513,11.614,73.696,8.843c18.428-2.028,35.851-7.896,52.448-16.084
		c13.962-6.888,26.338-15.989,38.042-26.327c16.545-14.613,28.83-32.007,37.485-52.132
		C407.445,302.325,411.622,280.394,411.482,257.207z M242.987,7.848c-7.917,3.993-12.783,9.718-16.511,16.452
		c-6.39,11.541-5.725,22.709,2.257,33.313c2.519,3.346,5.159,6.599,7.682,9.94c3.521,4.663,3.492,4.665,9.005,3.149
		c1.209-0.332,2.462-0.5,3.938-0.792c0-1.087-0.01-2.131,0.002-3.175c0.049-4.479-0.016-8.966,0.261-13.432
		c0.055-0.875,1.439-1.669,2.21-2.5c0.494,0.941,1.376,1.866,1.416,2.827c0.186,4.38,0.212,8.772,0.14,13.157
		c-0.041,2.461,0.418,4.069,3.419,3.939c1.183-0.051,2.381,0.883,3.606,0.999c0.926,0.087,2.273-0.094,2.802-0.704
		c3.189-3.671,6.328-7.402,9.236-11.298c6.379-8.543,9.788-17.954,7.172-28.716c-2.229-9.17-7.394-16.356-15.365-21.512
		c-2.063-1.335-3.699-1.674-4.876,0.975c-1.563,3.52-3.061,7.075-4.774,10.521c-0.631,1.267-1.8,2.267-2.722,3.389
		c-1.037-1.111-2.413-2.057-3.047-3.364C246.776,16.778,244.986,12.407,242.987,7.848z M21.395,278.877
		c5.395,1.633,10.39,0.58,15.396-0.72c0.903-0.234,1.924-0.014,2.891-0.002c-0.086,1.15,0.071,2.389-0.306,3.435
		c-0.947,2.634-2.384,5.107-3.17,7.778c-1.197,4.073-0.246,5.372,4.074,5.597c8.419,0.438,16.66-0.026,24.413-4.109
		c11.187-5.891,19.158-14.234,21.486-27.014c0.965-5.298,1.397-10.69,2.046-15.841c-3.941-0.902-7.213-1.442-10.336-2.447
		c-1.701-0.546-2.65-0.299-3.752,0.999c-2.834,3.336-5.743,6.613-8.715,9.827c-1.568,1.696-3.419,1.531-3.826-0.322
		c-0.178-0.811,0.424-2.042,1.054-2.738c3.308-3.661,6.737-7.212,10.133-10.81c-1.676-2.005-3.292-3.94-4.965-5.944
		c-7.328,2.115-14.657,4.371-22.065,6.334c-9.365,2.482-16.082,8.015-19.974,16.844C23.108,265.802,21.241,272.091,21.395,278.877z
		 M430.387,242.559c3.264,3.771,6.512,7.384,9.555,11.16c0.602,0.746,0.957,2.59,0.495,3.125c-1.282,1.484-2.571,0.445-3.628-0.738
		c-1.947-2.177-4.244-4.124-5.804-6.548c-2.425-3.765-5.097-4.858-9.231-2.712c-1.903,0.986-5.203,0.501-6.113,1.86
		c-1.06,1.581-0.223,4.452-0.164,6.762c0.18,6.901,1.751,13.532,5.167,19.481c9.79,17.048,27.317,21.958,43.993,19.485
		c1.806-0.268,2.754-1.228,2.139-2.984c-1.109-3.169-2.504-6.238-3.636-9.398c-0.393-1.097-0.364-2.345-0.529-3.522
		c1.177-0.014,2.361-0.12,3.529-0.025c4.152,0.337,8.295,0.823,12.453,1.075c1.431,0.088,2.379-0.752,2.043-2.434
		c-0.989-4.938-1.367-10.097-3.074-14.771c-3.144-8.607-9.278-14.873-17.962-18.014c-7.569-2.738-15.366-4.855-23.087-7.162
		c-0.652-0.194-1.774-0.003-2.203,0.456C432.891,239.19,431.668,240.929,430.387,242.559z M412.423,68.301
		c-3.95,2.538-7.777,5.117-11.74,7.466c-1.108,0.656-2.618,0.631-3.943,0.918c-0.173-1.224-0.627-2.487-0.463-3.664
		c0.496-3.547,1.384-7.042,1.835-10.592c0.436-3.427-0.347-4.177-3.854-3.935c-2.701,0.187-5.431,0.447-8.062,1.045
		c-11.474,2.606-19.972,9.059-24.419,20.099c-3.76,9.335-2.758,19.083-1.849,28.741c3.646,0.787,7.099,1.531,10.485,2.262
		c2.475-4.087,4.891-8.193,7.465-12.197c0.401-0.624,1.947-1.291,2.23-1.055c0.689,0.572,1.233,1.646,1.287,2.551
		c0.044,0.745-0.66,1.56-1.102,2.302c-2.275,3.81-4.572,7.606-6.597,10.966c2.194,3.268,4.074,6.067,5.967,8.886
		c3.455-1.345,7.056-2.555,10.487-4.13c4.847-2.224,9.857-4.279,14.289-7.183c10.633-6.967,12.872-17.705,11.982-29.472
		C416.095,76.983,415.585,72.601,412.423,68.301z M123.877,121.352c0.994-1.752,1.833-3.27,2.708-4.766
		c0.953-1.63,2.862-3.355,2.68-4.833c-0.233-1.902-2.098-3.623-3.327-5.374c-0.725-1.033-1.62-1.947-2.367-2.967
		c-0.513-0.702-1.28-1.504-1.258-2.243c0.031-1.11,0.653-2.203,1.024-3.303c0.901,0.36,2.073,0.48,2.649,1.13
		c1.348,1.521,2.438,3.277,3.584,4.971c4.279,6.323,4.28,6.355,11.516,4.127c0.622-0.191,1.424-1.025,1.483-1.625
		c0.511-5.221,1.172-10.453,1.221-15.688c0.184-19.646-17.866-34.792-37.096-32.708c-1.868,0.203-2.413,0.843-2.07,2.557
		c0.759,3.794,1.59,7.577,2.191,11.396c0.2,1.269-0.212,2.635-0.345,3.957c-1.322-0.216-2.794-0.133-3.939-0.705
		c-3.295-1.646-6.472-3.536-9.67-5.373c-2.078-1.195-3.315-1.198-3.703,1.698c-0.411,3.064-1.565,6.033-1.925,9.099
		c-1.292,11.003,0.579,21.105,9.806,28.407C104.949,115.368,114.554,118.072,123.877,121.352z M253.247,474.895
		c0,3.08,0.13,6.683-0.093,10.262c-0.056,0.893-1.254,1.713-1.928,2.566c-0.551-0.814-1.519-1.601-1.577-2.448
		c-0.192-2.809-0.038-5.64-0.053-8.463c-0.008-1.519-0.371-2.55-2.174-3.154c-2.451-0.823-4.849-2.061-6.965-3.55
		c-1.659-1.168-2.82-0.85-4.099,0.213c-3.068,2.549-6.017,5.246-9.164,7.691c-6.571,5.109-7.464,12.336-6.937,19.714
		c0.868,12.158,8.587,19.725,18.454,25.594c1.543,0.919,2.658,0.477,3.346-0.921c2.081-4.239,3.985-8.564,6.099-12.787
		c0.505-1.008,1.552-1.746,2.351-2.608c0.679,0.822,1.548,1.55,2,2.48c1.818,3.742,3.284,7.671,5.312,11.291
		c1.849,3.305,3.86,3.646,6.97,1.872c8.89-5.071,14.44-12.647,16.364-22.669c1.302-6.779,1.224-13.645-4.04-18.884
		c-4.378-4.356-9.412-8.052-13.603-11.574C259.688,471.522,256.641,473.117,253.247,474.895z M123.001,133.104
		c-0.084-1.608-0.438-3.187-0.186-4.664c0.425-2.481-0.731-3.408-2.841-4.157c-4.758-1.689-9.466-3.532-14.145-5.431
		c-6.138-2.491-12.384-3.03-18.895-1.759c-9.868,1.927-16.45,8.361-22.285,15.864c-2.731,3.512-2.224,5.326,2.055,6.884
		c3.173,1.155,6.504,1.868,9.708,2.947c0.879,0.297,2.005,1.102,2.177,1.863c0.133,0.588-0.904,1.713-1.675,2.181
		c-2.742,1.663-5.605,3.125-8.397,4.71c-1.393,0.791-2.049,1.876-0.749,3.278c1.439,1.554,2.811,3.215,4.453,4.53
		c15.802,12.655,36.229,11.604,50.194-2.567c2.871-2.913,5.701-5.873,8.388-8.953c0.421-0.483,0.292-1.934-0.131-2.577
		c-1.327-2.015-3.218-3.699-4.316-5.811c-1.113-2.141-2.486-2.357-4.482-1.86c-3.774,0.94-7.56,1.84-11.355,2.696
		c-1.459,0.329-3.275,1.145-3.836-1.156c-0.519-2.129,1.136-2.565,2.738-2.925C113.955,135.176,118.483,134.133,123.001,133.104z
		 M66.191,232.909c-0.318-3.114-0.667-5.406-0.748-7.708c-0.055-1.546-0.447-2.388-2.063-2.946
		c-3.297-1.137-6.502-2.554-9.696-3.966c-1.314-0.581-3.026-1.432-1.833-3.167c0.439-0.639,2.397-0.756,3.398-0.391
		c3.718,1.356,7.326,3.014,10.821,4.492c2.041-3.267,4.023-6.442,6.031-9.657c-3.301-4.248-6.58-8.61-10.011-12.847
		c-5.251-6.483-11.716-10.998-20.209-12.2c-10.658-1.508-19.247,2.659-27.706,9.815c3.471,3.498,6.72,6.655,9.808,9.962
		c0.835,0.895,1.18,2.248,1.751,3.391c-1.138,0.385-2.249,0.938-3.418,1.123c-3.064,0.485-6.234,0.502-9.214,1.276
		c-3.594,0.934-4.169,2.042-3.009,5.548c3.282,9.918,8.962,17.915,19.053,21.882c5.243,2.061,10.73,2.729,16.281,1.214
		C52.431,236.817,59.412,234.813,66.191,232.909z M436.836,219.269c3.85-1.583,7.524-3.1,11.204-4.606
		c1.501-0.614,3.212-1.213,4.057,0.689c0.923,2.079-1.08,2.731-2.398,3.292c-3.304,1.405-6.722,2.54-10.059,3.874
		c-0.747,0.298-1.811,0.874-1.935,1.483c-0.537,2.655-0.845,5.366-1.07,8.07c-0.033,0.413,0.722,1.134,1.248,1.313
		c8.083,2.74,16.096,5.958,24.745,6.282c14.151,0.531,28.59-12.002,31.276-26.996c-4.609-2.764-9.918-2.94-15.039-3.853
		c-0.855-0.152-1.633-0.749-2.445-1.141c0.417-0.796,0.675-1.752,1.28-2.362c3.017-3.038,6.135-5.976,9.196-8.968
		c1.3-1.271,1.176-2.421-0.161-3.705c-9.054-8.694-24.183-10.72-35.247-4.582c-9.479,5.259-15.069,14.047-20.563,22.567
		C433.004,213.667,434.918,216.465,436.836,219.269z M237.32,74.959c-6.131-7.128-11.968-14.547-18.475-21.325
		c-9.041-9.415-28.028-10.943-37.556-5.051c-1.953,1.208-2.655,2.379-1.617,4.123c2.508,4.216,5.295,8.267,7.892,12.433
		c0.569,0.913,1.295,2.166,1.053,3.002c-0.18,0.622-1.794,1.113-2.794,1.16c-3.389,0.163-6.794-0.012-10.182,0.159
		c-3.114,0.159-3.633,1.078-2.931,4.099c1.408,6.06,4.813,11.034,8.714,15.66c6.823,8.092,15.796,11.809,26.157,10.526
		c8.024-0.994,15.873-3.401,23.68-5.152c-0.121-2.08-0.115-4.5-0.482-6.864c-0.121-0.781-1.079-1.747-1.874-2.053
		c-3.433-1.316-6.951-2.407-10.43-3.605c-1.653-0.569-4.326-0.576-3.572-3.189c0.805-2.789,3.314-1.371,4.961-0.859
		c4.051,1.258,7.999,2.848,11.953,4.291C233.5,80.064,235.127,77.89,237.32,74.959z M272.025,94.679
		c7.086,1.552,13.713,3.013,20.344,4.451c1.978,0.429,4.005,1.258,5.95,1.115c15.187-1.107,26.973-10.432,31.682-25.935
		c0.771-2.535-0.249-3.703-2.388-4.224c-1.586-0.386-3.263-0.478-4.904-0.516c-1.449-0.034-2.921,0.374-4.35,0.239
		c-1.143-0.107-2.237-0.734-3.354-1.13c0.506-1.206,0.915-2.465,1.537-3.607c2.353-4.322,4.8-8.593,7.159-12.911
		c1.098-2.008,0.125-3.121-1.831-3.614c-3.299-0.832-6.57-1.898-9.923-2.374c-12.868-1.82-23.87,1.891-32.424,11.839
		c-4.748,5.523-9.175,11.322-13.734,16.981c1.832,2.49,3.656,4.969,5.494,7.467c4.906-1.774,9.707-3.603,14.589-5.181
		c0.797-0.257,1.951,0.596,2.941,0.935c-0.463,0.842-0.778,1.835-1.436,2.482c-0.582,0.572-1.525,0.809-2.341,1.109
		c-3.642,1.345-7.323,2.59-10.923,4.039c-0.832,0.335-1.906,1.272-1.994,2.033C271.857,90.168,272.025,92.508,272.025,94.679z
		 M380.415,133.193c1.04,0.24,2.156,0.482,3.264,0.754c3.868,0.952,7.768,1.797,11.571,2.959c0.854,0.262,1.367,1.641,2.036,2.506
		c-1.047,0.421-2.077,1.109-3.151,1.19c-1.113,0.083-2.275-0.403-3.407-0.676c-3.935-0.947-7.866-1.91-11.203-2.722
		c-2.84,3.764-5.328,7.06-7.877,10.438c6.328,6.225,12.464,12.648,20.578,17.224c13.473,7.599,32.256,2.661,41.784-8.659
		c0.695-0.828,1.077-1.921,1.786-3.219c-3.367-1.729-6.423-3.202-9.371-4.866c-1.065-0.601-1.871-1.662-2.795-2.513
		c1.065-0.783,2.033-2.015,3.214-2.271c4.977-1.078,9.375-3.114,13.241-6.851c-5.447-7.851-11.56-15.096-20.98-17.672
		c-5.284-1.445-11.271-1.684-16.698-0.859c-5.552,0.843-10.806,3.649-16.189,5.596c-6.024,2.179-6.027,2.18-6.042,8.584
		C380.174,132.415,380.298,132.694,380.415,133.193z M415.998,343.837c1.642,0.755,3.631,1.666,5.704,2.617
		c3.226-3.241,6.358-6.583,9.741-9.648c0.814-0.738,2.461-0.556,3.724-0.797c-0.37,1.241-0.374,2.843-1.178,3.661
		c-3.108,3.166-6.474,6.082-9.477,8.846c1.551,5.624,4.954,7.69,10.403,6.268c1.099-0.286,2.351,0.074,3.496-0.102
		c5.438-0.834,11.196-0.885,16.227-2.813c10.991-4.212,17.166-12.879,19.609-24.351c0.438-2.062-0.069-3.089-1.939-3.289
		c-3.531-0.376-7.088-0.503-10.629-0.789c-1.116-0.09-2.622,0-3.202-0.655c-0.498-0.563-0.139-2.141,0.21-3.141
		c0.572-1.646,1.494-3.164,2.179-4.776c1.724-4.055,2.305-8.272,0.95-12.503c-0.296-0.926-1.846-2.081-2.797-2.063
		c-7.721,0.143-15.425,0.889-22.549,4.088c-9.518,4.273-15.952,11.298-17.783,21.883C417.7,331.97,416.929,337.705,415.998,343.837z
		 M100.815,429.572c3.803-3.754,5.279-8.664,6.764-13.584c0.276-0.918,0.851-1.745,1.287-2.613c0.872,0.541,1.821,0.988,2.601,1.64
		c2.973,2.479,5.893,5.022,8.83,7.543c1.232,1.057,2.17,0.884,3.075-0.513c8.461-13.067,10.339-26.633,3.017-40.828
		c-1.438-2.789-3.341-5.195-6.965-5.505c-1.395-0.118-2.799-0.798-4.081-1.454c-4.309-2.204-8.565-4.512-12.806-6.762
		c-1.746,1.375-3.41,2.685-5.144,4.05c0.686,2.082,1.335,4.106,2.024,6.117c0.629,1.841,1.52,3.626,1.863,5.515
		c0.181,0.997-0.562,2.162-0.887,3.251c-0.979-0.702-2.029-1.327-2.902-2.143c-0.366-0.343-0.333-1.095-0.521-1.646
		c-1.058-3.088-2.128-6.169-3.159-9.152c-1.991,0-3.652-0.098-5.291,0.051c-0.613,0.056-1.561,0.572-1.701,1.065
		c-2.17,7.628-5.15,15.174-6.123,22.965C78.851,412.347,87.72,423.053,100.815,429.572z M78.236,348.473
		c-3.39-3.188-6.81-6.226-9.966-9.516c-0.659-0.688-0.347-2.307-0.481-3.496c1.08,0.215,2.487,0.07,3.184,0.705
		c2.945,2.686,5.631,5.654,8.526,8.397c0.658,0.624,1.924,1.258,2.648,1.034c1.984-0.612,3.827-1.677,5.388-2.404
		c-1.122-5.385-2.575-10.544-3.195-15.802c-0.782-6.621-4.135-11.703-8.63-16.102c-8.619-8.434-19.5-11.205-31.163-11.623
		c-3.918-0.141-4.852,0.981-5.155,4.936c-0.438,5.714,2.397,10.253,4.981,14.931c0.408,0.737,0.714,1.989,0.358,2.563
		c-0.355,0.574-1.589,0.765-2.459,0.83c-3.25,0.245-6.545,0.124-9.754,0.604c-3.915,0.586-4.288,1.155-3.58,4.949
		c2.391,12.826,12.758,22.577,24.429,24.435c5.938,0.943,11.996,1.125,17.992,1.723c2.529,0.252,4.553,0.028,5.114-3.075
		C76.65,350.578,77.501,349.717,78.236,348.473z M401.14,429.704c1.581-0.935,3.14-1.72,4.553-2.714
		c8.935-6.287,15.618-14.114,16.465-25.55c0.725-9.776-3.032-18.651-6.39-27.503c-0.344-0.907-3.57-0.908-5.464-0.931
		c-0.615-0.007-1.512,1.154-1.82,1.958c-1.146,2.986-1.964,6.104-3.202,9.046c-0.414,0.981-1.722,1.587-2.62,2.365
		c-0.313-1.24-1.12-2.604-0.846-3.696c0.803-3.19,1.96-6.301,3.126-9.387c0.882-2.335-0.762-3.212-2.1-4.461
		c-1.231-1.148-2.166-1.371-3.803-0.545c-5.541,2.8-11.224,5.32-16.82,8.011c-1.028,0.494-2.04,1.161-2.841,1.965
		c-4.79,4.819-6.579,10.882-6.924,17.465c-0.478,9.15,0.771,17.79,7.218,25.003c1.436,1.605,2.563,2.197,4.282,0.717
		c2.278-1.961,4.531-3.952,6.838-5.879c0.958-0.8,2.024-1.47,3.044-2.198c0.657,1.205,1.608,2.34,1.921,3.63
		C396.83,421.427,397.436,426.006,401.14,429.704z M266.684,456.27c3.728-0.46,7.559-1.074,11.414-1.318
		c1.056-0.066,2.929,0.778,3.133,1.548c0.563,2.119-1.5,2.123-2.852,2.322c-3.274,0.484-6.595,0.695-9.851,1.274
		c-0.87,0.155-1.964,1.086-2.293,1.922c-1.597,4.064-1.489,4.057,2.104,6.578c2.072,1.454,4.064,3.025,6.048,4.603
		c2.436,1.938,4.633,4.25,7.266,5.855c11.551,7.048,25.195,6.272,36.148-1.847c1.222-0.906,2.343-1.95,3.611-3.016
		c-0.653-0.757-1.013-1.351-1.526-1.739c-3.17-2.393-6.409-4.692-9.544-7.127c-0.936-0.727-1.612-1.787-2.407-2.693
		c1.036-0.623,2.063-1.265,3.117-1.855c0.236-0.134,0.589-0.045,0.859-0.141c4.156-1.451,8.307-2.916,12.512-4.396
		c-0.354-0.913-0.408-1.212-0.566-1.438c-6.592-9.388-15.536-15.709-26.09-19.875c-5.343-2.108-10.858-3.053-16.583-1.791
		c-4.03,0.887-8.286,1.854-10.595,5.497c-2.551,4.025-5.365,7.551-9.437,9.539C263.052,450.952,264.83,453.557,266.684,456.27z
		 M241.268,448.011c-3.861-2.632-7.36-5.914-9.404-10.507c-0.25-0.563-0.902-1.035-1.478-1.351
		c-5.147-2.825-10.685-4.232-16.529-3.732c-12.743,1.091-22.58,7.724-31.009,16.823c-1.37,1.479-2.627,3.137-3.557,4.911
		c-0.326,0.622,0.247,2.463,0.822,2.688c3.603,1.406,7.331,2.486,10.996,3.737c0.896,0.304,1.709,0.846,2.561,1.279
		c-0.535,0.706-0.958,1.551-1.625,2.099c-2.918,2.395-5.988,4.608-8.84,7.076c-1.882,1.63-2.142,3.62,0.364,4.936
		c3.506,1.841,7.01,3.828,10.744,5.062c11.242,3.716,21.618,2.318,30.699-5.897c3.458-3.126,7.117-6.064,10.916-8.763
		c1.465-1.041,1.361-2.062,0.861-3.119c-0.657-1.385-0.029-3.644-2.778-3.784c-3.387-0.173-6.775-0.671-10.109-1.307
		c-1.117-0.214-2.871-1.212-2.941-1.979c-0.179-1.958,1.605-2.118,3.129-1.934c4.034,0.489,8.058,1.06,11.946,1.579
		C237.722,453.309,239.374,450.841,241.268,448.011z M426.017,364.722c3.84,2.344,7.535,4.488,11.081,6.854
		c0.723,0.481,0.889,1.797,1.312,2.729c-1.045,0.083-2.308,0.586-3.096,0.177c-3.181-1.656-6.388-3.362-9.25-5.498
		c-2.246-1.677-3.413,0-4.856,0.87c-1.284,0.773-2.088,1.694-1.244,3.578c1.02,2.275,1.415,4.824,2.124,7.243
		c2.007,6.852,4.371,13.61,9.444,18.839c9.887,10.191,21.971,10.428,34.248,6.096c1.663-0.588,2.418-1.596,1.273-3.313
		c-1.934-2.896-3.985-5.726-5.725-8.735c-0.755-1.305-0.854-2.988-1.254-4.499c1.354-0.229,2.701-0.615,4.058-0.653
		c3.105-0.085,6.217,0.073,9.321-0.01c2.069-0.055,3.244-1.165,3.055-3.371c-0.226-2.603-0.2-5.263-0.759-7.794
		c-2.152-9.768-11-19.618-22.245-19.296c-8.531,0.246-17.066,0.33-25.559,0.484C427.229,360.765,426.665,362.606,426.017,364.722z
		 M76.75,364.578c-0.312-1.186-0.709-2.38-0.932-3.606c-0.389-2.144-1.427-3.005-3.754-2.885c-3.001,0.155-6.033-0.364-9.044-0.295
		c-6.209,0.142-12.584-0.337-18.583,0.917c-10.753,2.25-17.167,13.717-18.587,24.496c-0.442,3.36,0.76,4.754,4.187,4.805
		c2.907,0.043,5.818-0.335,8.729-0.48c3.334-0.166,4.035,0.962,2.499,3.963c-1.637,3.196-3.364,6.35-4.909,9.592
		c-1.428,2.996-1.042,3.935,2.231,4.805c3.186,0.847,6.454,1.797,9.708,1.89c11.117,0.313,20.642-3.355,26.402-13.321
		c3.126-5.406,5.151-11.482,7.367-17.371c1.651-4.389,1.43-4.467-2.358-7.501c-0.517-0.414-0.997-0.874-1.578-1.386
		c-3.416,1.904-6.799,3.793-10.187,5.674c-1.358,0.754-2.975,1.928-4.084,0.082c-1.222-2.032,0.967-2.661,2.165-3.373
		C69.504,368.511,73.089,366.61,76.75,364.578z M62.356,156.35c-0.163,0.153-0.394,0.322-0.567,0.537
		c-6.284,7.757-7.15,20.005-1.45,29.637c3.297,5.572,7.508,10.604,11.316,15.873c3.826,5.294,3.83,5.291,10.039,2.864
		c-0.197-4.261-0.375-8.523-0.602-12.783c-0.097-1.828,0.636-3.28,2.447-3.188c0.604,0.03,1.497,1.995,1.583,3.126
		c0.242,3.195,0.052,6.422,0.204,9.628c0.066,1.391,0.181,2.93,2.168,3.265c2.744,0.462,5.459,1.091,8.542,1.721
		c4.456-13.871,10.985-26.885,19.333-39.37C94.663,176.577,77.145,172.929,62.356,156.35z M417.656,204.995
		c0.246-4.318,0.418-8.759,0.81-13.181c0.094-1.054,0.915-2.043,1.402-3.063c0.358,0.035,0.716,0.069,1.073,0.104
		c0.336,1.104,0.973,2.213,0.953,3.31c-0.072,3.892-0.434,7.778-0.527,11.67c-0.02,0.802,0.426,2.039,1.031,2.351
		c1.674,0.861,3.544,1.34,5.056,1.871c3.502-4.386,6.865-8.54,10.163-12.746c3.382-4.312,6.236-8.89,7.453-14.359
		c2.014-9.048,0.488-17.304-5.035-24.93c-6.337,7.93-13.791,13.95-23.631,15.972c-9.654,1.984-19.072,0.568-28.056-3.908
		c7.577,12.53,14.873,25.044,18.707,39.02C410.859,206.349,414.167,205.69,417.656,204.995z M146.494,107.863
		c2.388,0.733,4.575,1.232,6.617,2.078c1.843,0.763,2.733,0.25,3.688-1.398c1.706-2.943,3.576-5.813,5.642-8.511
		c0.594-0.776,2.094-0.858,3.179-1.258c0.112,1.125,0.392,2.268,0.273,3.368c-0.076,0.701-0.723,1.351-1.146,2.003
		c-1.945,2.996-3.902,5.986-5.777,8.857c1.664,2.446,3.161,4.646,4.305,6.328c10.821-5.639,21.44-11.172,31.898-16.621
		c-0.111-0.041-0.644-0.233-1.178-0.427c-15.137-5.49-23.613-16.393-26.321-32.114c-0.349-2.022,0.468-3.077,1.963-3.6
		c2.265-0.792,4.65-1.262,7.006-1.764c1.084-0.23,2.221-0.215,3.62-0.336c-0.688-1.239-1.136-2.085-1.621-2.91
		c-2.395-4.084-3.172-4.482-7.739-3.241c-9.378,2.55-21.159,13.102-22.453,24.934C147.564,91.358,147.141,99.517,146.494,107.863z
		 M322.54,64.43c3.812,0.814,7.235,1.417,10.579,2.313c1.742,0.465,3.49,1.608,2.663,3.787c-2.192,5.776-4.049,11.788-7.078,17.115
		c-4.786,8.414-12.339,13.731-21.951,16.245c12.29,3.388,23.348,9.121,33.873,16.064c1.645-2.124,3.171-4.094,4.683-6.045
		c-0.797-1.033-1.532-1.938-2.215-2.879c-1.83-2.521-3.793-4.966-5.37-7.639c-0.55-0.932-0.126-2.439-0.146-3.684
		c1.096,0.383,2.3,0.595,3.254,1.2c0.778,0.494,1.277,1.442,1.863,2.216c2.039,2.688,4.062,5.39,5.957,7.909
		c1.884-0.628,3.318-1.316,4.826-1.557c2.026-0.323,2.451-1.402,2.321-3.233c-0.437-6.122-0.564-12.272-1.189-18.374
		c-1.579-15.434-10.928-26.124-25.864-29.838c-0.654-0.163-1.778-0.127-2.084,0.273C325.214,60.196,323.975,62.249,322.54,64.43z
		 M378.083,427.176c-1.18-1.996-1.958-3.711-3.091-5.146c-2.137-2.701-4.111-5.73-6.807-7.748
		c-6.553-4.904-14.076-7.722-22.249-8.802c-9.032-1.193-17.747-0.425-26.338,2.867c-8.584,3.291-17.243,6.497-26.089,8.956
		c-8.172,2.271-16.635,3.502-24.536,5.103c1.301,3.124,2.685,6.443,4.092,9.819c9.715-4.768,19.591-4.104,29.117,0.017
		c9.684-10.638,21.414-16.201,35.431-16.628c14.198-0.434,26.036,5.372,36.419,14.849
		C375.475,429.293,376.736,428.269,378.083,427.176z M128.354,430.589c9.803-9.712,21.36-15.76,35.551-15.187
		c14.01,0.566,26.03,5.806,35.457,16.626c10.188-4.059,20.513-5.402,30.746-0.639c1.095-3.319,2.113-6.406,3.149-9.55
		c-0.242-0.118-0.482-0.321-0.74-0.349c-16.771-1.687-32.865-5.995-48.359-12.565c-11.606-4.92-23.438-5.643-35.327-1.514
		c-8.584,2.98-17.002,6.464-21.017,15.756c-0.65,1.507-1.968,2.725-3.108,4.25C125.871,428.431,127.042,429.448,128.354,430.589z
		 M318.255,464.025c1.884,2.222,3.749,4.337,5.516,6.533c1.224,1.52,2.595,1.764,4.385,1.106
		c20.05-7.371,38.937-16.756,54.618-31.639c3.671-3.483,7.15-7.174,10.606-10.872c0.666-0.714,1.306-2.043,1.094-2.868
		c-0.539-2.115-1.565-4.106-2.255-5.799c-4.107,3.298-8.177,6.574-12.255,9.841c-6.447,5.164-12.645,10.688-19.409,15.396
		c-10.569,7.358-22.002,13.222-34.385,16.981C323.437,463.534,320.491,463.669,318.255,464.025z M110.991,421.39
		c-3.334,5.23-3.286,5.806,0.896,10.502c12.479,14.019,27.598,24.463,44.428,32.497c6.625,3.163,13.482,5.844,20,8.645
		c2.604-3.263,4.792-6.002,6.933-8.685c-1.672-0.213-3.461-0.177-5.079-0.687c-15.451-4.862-29.334-12.787-42.317-22.297
		c-6.264-4.589-12.107-9.752-18.151-14.642C115.473,424.921,113.214,423.155,110.991,421.39z M314.476,439.277
		c16.167-12.741,32.474-13.824,49.008-0.321c2.478-1.788,4.964-3.583,7.476-5.396c-17.449-18.849-47.104-19.111-64.734,0.289
		C308.983,435.664,311.726,437.468,314.476,439.277z M250.539,422.504c0,0.019,0,0.038,0,0.058c-3.405,0-6.81-0.032-10.214,0.026
		c-0.723,0.012-1.661,0.135-2.125,0.59c-2.718,2.662-4.181,5.841-3.384,9.744c1.082,5.302,4.468,9.024,8.752,11.889
		c1.079,0.722,3.164,0.615,4.463,0.091c0.831-0.336,1.242-2.098,1.522-3.296c0.261-1.109-0.134-2.392,0.204-3.458
		c0.223-0.7,1.23-1.151,1.888-1.714c0.553,0.649,1.461,1.239,1.587,1.964c0.279,1.615-0.012,3.331,0.285,4.939
		c0.171,0.918,0.849,2.021,1.63,2.496c2.923,1.78,4.633-0.811,6.485-2.24c6.521-5.029,8.078-12.709,3.717-18.724
		c-0.835-1.151-2.596-2.133-4.015-2.26C257.762,422.29,254.142,422.504,250.539,422.504z M195.407,433.527
		c-15.594-17.369-43.938-20.75-63.751-0.278c1.905,1.521,3.839,2.987,5.68,4.563c1.621,1.39,2.736,1.186,4.371-0.307
		c10.931-9.981,26.625-11.271,39.075-3.297c2.337,1.496,4.444,3.351,6.667,5.048C190.053,437.381,192.643,435.516,195.407,433.527z
		 M87.551,272.791c-2.586,6.043-6.116,11.438-11.315,15.224c-5.188,3.776-10.959,6.753-15.907,9.738
		c9.949,2.454,18.534,7.228,25.742,20.614c3.118-2.858,6.289-5.763,9.653-8.848C91.145,298.006,89.28,285.491,87.551,272.791z
		 M69.354,226.202c0.09,9.488,7.078,16.464,16.536,16.833c2.335,0.09,2.572-0.81,2.909-2.726c1.374-7.82,2.771-15.648,4.578-23.376
		c1.501-6.423,2.542-5.876-4.181-7.126C76.813,207.505,69.615,216.438,69.354,226.202z M414.6,271.371
		c-0.317,14.147-3.891,26.898-7.047,38.889c3.694,2.324,6.944,4.367,10.13,6.37c5.41-10.113,13.83-16.973,26.835-18.548
		C426.885,291.478,421.508,284.766,414.6,271.371z M433.17,226.854c0.426-10.903-9.492-20.347-21.238-16.287
		c-2.769,0.956-3.144,2.22-2.566,4.922c1.839,8.604,3.433,17.264,4.907,25.94c0.294,1.737,0.917,2.063,2.4,1.979
		C426.422,242.851,433.139,237.035,433.17,226.854z M134.877,142.434c8.003-6.579,15.973-13.078,23.829-19.711
		c0.511-0.431,0.571-2.229,0.111-2.845c-3.962-5.303-9.271-7.622-15.957-7.13c-8.024,0.589-13.18,4.604-15.331,12.38
		C125.762,131.516,128.804,138.535,134.877,142.434z M344.368,121.864c7.842,7.043,15.543,14,23.331,20.856
		c0.462,0.406,1.915,0.367,2.414-0.053c4.906-4.124,7.171-9.495,5.999-15.788c-1.252-6.725-4.647-11.783-12.066-13.244
		C355.489,111.949,347.33,115.381,344.368,121.864z M369.327,409.888c-2.389-12.657-1.635-24.3,6.331-34.394
		c-1.696-1.425-3.163-2.66-4.843-4.071c-10.845,11.673-23.275,21.318-37.177,29.313
		C346.456,399.885,358.096,402.883,369.327,409.888z M170.147,401.176c-14.502-8.597-27.338-18.208-38.285-30.084
		c-1.665,1.498-3.21,2.891-4.809,4.329c8.258,10.123,8.757,21.849,7.047,34.271C145.21,402.428,157.022,399.956,170.147,401.176z
		 M250.558,93.822c0.005,0.097,0.01,0.193,0.015,0.291c3.895,0,7.806-0.224,11.682,0.054c5.521,0.395,6.228-0.083,5.664-5.604
		c-0.163-1.602-0.63-3.276-1.376-4.696c-3.263-6.206-8.447-9.525-15.511-9.564c-8.026-0.043-12.542,5.117-15.729,11.524
		c-0.968,1.947-0.456,4.718-0.276,7.085c0.046,0.611,1.411,1.617,2.152,1.6C241.641,94.418,246.098,94.079,250.558,93.822z
		 M97.448,314.66c-6.279,2.546-9.713,7.301-9.287,13.726c0.47,7.083,1.115,14.316,9.242,17.574c1.36,0.544,2.393,1.904,3.488,2.812
		c3.003-2.138,5.983-4.26,9.012-6.416c-2.065-4.266-4.365-8.765-6.436-13.366C101.365,324.318,99.489,319.545,97.448,314.66z
		 M402.15,348.446c2.585-1.481,5.024-2.827,7.404-4.273c0.709-0.429,1.587-1.031,1.812-1.736c1.932-6.093,4.323-12.079,3.679-18.721
		c-0.368-3.809-2.315-6.251-5.571-7.871c-2.165-1.077-3.468-0.53-4.468,1.849c-3.563,8.476-7.332,16.865-10.906,25.019
		C396.511,344.429,399.403,346.489,402.15,348.446z M252.053,470.653c5.083,0.063,10.585-5.601,10.587-10.897
		c0.003-5.598-5.881-11.33-11.667-11.365c-5.424-0.033-11.042,5.61-11.271,11.022C239.423,465.958,246.314,469.519,252.053,470.653z
		 M391.782,345.819c-5.479,7.053-10.697,13.793-15.94,20.512c-1.819,2.331-1.522,4.104,1.201,5.112
		c1.281,0.476,2.999,0.813,4.18,0.349c5.749-2.26,11.397-4.781,17.031-7.318c0.449-0.201,0.907-1.396,0.711-1.854
		c-1.635-3.834-1.102-7.538,0.704-11.343C396.823,349.309,394.148,347.457,391.782,345.819z M101.032,358.172
		c0.039-4.216-7.302-10.638-12.273-10.738c-4.472-0.09-10.051,5.939-10.011,10.818c0.046,5.49,5.511,11.562,10.41,11.564
		C95.486,369.822,100.974,364.439,101.032,358.172z M128.507,368.065c-2.717-3.34-5.397-6.421-7.83-9.688
		c-2.428-3.259-4.545-6.746-6.937-10.033c-0.557-0.766-1.997-1.79-2.477-1.556c-2.245,1.091-4.377,2.477-6.368,3.995
		c-0.56,0.427-0.937,1.854-0.654,2.496c1.315,2.981,0.811,5.849,0.132,8.838c-0.177,0.777,0.429,2.264,1.101,2.62
		c4.278,2.262,8.612,4.447,13.054,6.363C122.181,372.677,126.169,372.405,128.507,368.065z M359.646,441.781
		c-10.186-11.764-30.827-11.476-41.705,0.503c2.213,1.842,4.422,3.682,6.565,5.466c8.514-5.931,17.113-8.066,26.364-2.007
		c0.542,0.354,1.679,0.291,2.289-0.038C355.372,444.508,357.479,443.113,359.646,441.781z M150.868,446.811
		c3.699-4.34,8.426-4.869,13.448-4.972c5.417-0.112,9.18,3.229,13.233,5.742c2.143-2.196,4.2-4.305,6.251-6.408
		c-13.218-12.24-30.484-10.445-40.95,0.427C145.459,443.295,148.024,444.963,150.868,446.811z M412.2,369.474
		c5.738-0.046,11.766-5.641,11.924-10.727c0.136-4.423-6.934-11.37-10.698-11.134c-4.928,0.309-11.691,6.205-11.588,10.564
		C401.98,364.202,406.855,369.517,412.2,369.474z M154.072,448.606c7.751,3.702,15.104,7.216,22.457,10.728
		c-2.625-3.067-2.583-3.057-1.568-7.172c0.142-0.576-0.212-1.448-0.619-1.959C170.016,444.757,160.062,443.772,154.072,448.606z
		 M329.849,457.521c5.732-2.708,11.969-5.655,18.383-8.686c-5.492-4.271-12.854-4.121-19.066-0.042
		c-1.919,1.262-2.537,2.26-0.814,4.291C329.247,454.143,329.334,455.888,329.849,457.521z"/>
	<path fill-rule="evenodd" clip-rule="evenodd" d="M396.264,261.581c0.683,73.496-62.342,138.296-135.171,142.652
		c-84.351,5.045-150.072-61.111-153.987-136.931c-4.381-84.824,62.146-149.403,135.41-153.721
		C324.325,108.761,396.978,175.036,396.264,261.581z M392.342,259.303c0.01-20.162-4.293-39.424-12.467-57.748
		c-8.74-19.594-21.42-36.319-37.973-50.069c-16.214-13.469-33.944-23.909-54.576-29.285c-20.5-5.341-41.103-6.639-61.902-2.827
		c-14.839,2.72-28.634,8.54-41.694,16.005c-22.851,13.062-40.743,31.267-53.933,53.902c-16.612,28.507-22.445,59.174-17.147,91.902
		c4.277,26.424,15.252,49.616,32.532,69.995c15.736,18.557,35.157,31.878,57.761,40.392c19.544,7.359,39.846,10.201,60.805,8.382
		c16.783-1.456,32.76-5.736,47.794-13.083c23.849-11.655,43.241-28.688,58.12-50.677
		C385.354,313.001,392.018,287.062,392.342,259.303z"/>
	<path fill-rule="evenodd" clip-rule="evenodd" d="M254.974,459.297c-1.56,1.109-2.681,2.376-3.181,2.166
		c-1.019-0.427-1.7-1.652-2.521-2.55c0.852-0.605,1.683-1.646,2.561-1.689C252.623,457.185,253.467,458.242,254.974,459.297z"/>
	<path fill-rule="evenodd" clip-rule="evenodd" d="M93.19,358.592c-0.972,0.649-1.904,1.703-2.928,1.801
		c-0.635,0.061-2.073-1.446-1.968-2.038c0.165-0.926,1.225-2.15,2.108-2.35c0.769-0.174,1.818,0.896,2.744,1.417
		C93.161,357.812,93.175,358.201,93.19,358.592z"/>
	<path fill-rule="evenodd" clip-rule="evenodd" d="M412.434,354.786c1.152,1.744,2.359,2.771,2.254,3.637
		c-0.105,0.867-1.522,1.575-2.365,2.354c-0.692-0.779-1.933-1.555-1.938-2.337C410.38,357.476,411.402,356.506,412.434,354.786z"/>
	<path fill-rule="evenodd" clip-rule="evenodd" d="M365.118,293.786c9.568,20.97,0.1,43.423-15.127,55.415
		c-11.533,9.082-24.246,11.799-38.42,8.161c-0.688-0.177-2.045,0.206-2.31,0.725c-5.354,10.517-14.035,17.75-24.096,23.103
		c-24.788,13.188-49.217,11.883-72.564-3.677c-6.645-4.427-12.24-10.288-16.154-17.448c-0.877-1.607-1.73-2.153-3.664-1.65
		c-2.615,0.68-5.371,0.814-8.445,1.234c7.28,11.856,17.655,20.418,28.808,28.228c-9.021-2.357-16.492-7.219-22.575-14.149
		c-3.71-4.229-7.052-8.781-10.655-13.108c-0.547-0.656-1.578-1.099-2.455-1.263c-20.913-3.934-34.511-16.322-41.015-36.297
		c-2.841-8.727-1.236-17.693,1.16-26.416c0.126-0.461,0.269-0.917,0.415-1.415c-10.384-7.859-17.084-18.186-19.875-30.717
		c-3.735-16.777,0.113-32.141,10.744-45.538c3.264-4.114,7.676-7.369,11.806-10.715c1.473-1.193,2.098-2.184,1.993-4.035
		c-0.648-11.506,1.663-22.362,8.179-31.967c10.69-15.756,25.189-25.209,44.686-25.778c2.703-0.079,5.418,0.468,8.135,0.567
		c0.793,0.029,1.979-0.239,2.357-0.796c7.555-11.155,18.297-17.76,31.111-20.66c22.475-5.084,42.115,0.352,57.744,17.713
		c2.463,2.736,4.458,3.777,8.144,3.581c19.816-1.052,35.068,7.643,47.032,22.898c7.146,9.112,10.497,19.625,11.353,31.041
		c0.043,0.578,0.091,1.199-0.063,1.743c-1.205,4.228,0.671,6.611,4.21,8.91c11.34,7.366,17.672,18.335,19.931,31.364
		C389.132,263.741,381.587,280.526,365.118,293.786z M167.064,257.828c0.441,44.471,36.16,84.427,86.686,83.445
		c44.606-0.866,83.587-36.648,82.54-85.748c-0.934-43.822-36.176-83.761-86.079-83.709
		C204.337,171.865,166.403,212.715,167.064,257.828z M195.674,324.481c-0.398,1.006-0.692,1.618-0.881,2.261
		c-0.274,0.933-0.533,1.878-0.69,2.836c-2.259,13.781,1.31,25.936,10.81,36.084c13.964,14.918,31.292,21.738,51.708,20.053
		c5.001-0.411,10.027-1.454,14.856-2.85c15.526-4.484,27.972-13.307,35.29-27.956c4.793-9.596,4.578-19.859,1.178-30.36
		c-0.821,0.585-1.304,1.046-1.875,1.316c-4.116,1.937-5.619,4.433-5.073,9.593c1.407,13.311-5.266,23.33-15.37,31.302
		c-8.544,6.74-18.481,9.594-29.202,10.361c-19.616,1.404-35.812-4.955-47.642-20.985c-5.401-7.317-7.708-15.583-5.966-24.743
		c0.12-0.629-0.101-1.641-0.546-2.006C200.254,327.738,198.101,326.259,195.674,324.481z M206.388,332.82
		c-1.152,3.376-0.89,6.788,0.102,9.982c3.897,12.559,12.346,21.071,24.14,26.531c9.014,4.175,18.472,5.187,28.204,4.053
		c14.562-1.697,26.554-7.923,34.598-20.548c3.944-6.195,4.75-13.137,4.188-20.896c-2.151,1.099-3.699,2.088-5.383,2.703
		c-2.479,0.905-3.509,2.569-3.939,5.117c-0.365,2.165-1.15,4.349-2.177,6.3c-4.892,9.302-13.261,13.856-23.003,16.402
		c-14.561,3.804-27.717,0.907-39.574-8.295c-3.588-2.785-6.456-6.32-7.293-10.61c-1.049-5.377-3.609-8.799-8.733-10.423
		C207.242,333.05,206.962,332.98,206.388,332.82z M144.98,283.312c-0.647-0.583-1.293-1.156-1.932-1.739
		c-7.802-7.117-12.458-15.721-12.87-26.474c-0.556-14.542,4.836-26.146,16.779-34.554c7.712-5.43,16.426-6.079,25.461-5.088
		c0.789,0.086,2.023-0.112,2.391-0.639c1.373-1.967,2.47-4.127,3.739-6.333c-12.41-4.864-24.455-4.172-35.39,2.854
		c-28.877,18.553-30.506,58.762-3.568,79.978C141.359,288.69,143.129,286.062,144.98,283.312z M324.59,208.215
		c1.367,2.239,2.609,4.539,4.14,6.628c0.502,0.687,1.743,1.148,2.657,1.163c4.145,0.069,8.412-0.727,12.42-0.007
		c28.337,5.09,36.611,36.303,23.937,55.134c-2.671,3.97-6.42,7.215-9.778,10.911c1.588,2.313,3.467,5.047,5.336,7.769
		c16.686-10.77,26.257-36.282,13.966-59.841C364.563,205.622,338.31,202.401,324.59,208.215z M358.018,206.824
		c-0.484-5.244-0.401-9.983-1.426-14.468c-4.023-17.591-14.799-30.204-30.798-37.792c-17.552-8.326-34.15-4.741-49.344,6.618
		c-3.127,2.339-6.183,4.886-7.997,8.619c0.546,0.229,0.805,0.377,1.083,0.445c1.701,0.417,3.468,0.656,5.098,1.261
		c2.178,0.807,3.664,0.33,5.438-1.25c7.781-6.926,16.778-10.251,27.427-10.154c19.485,0.178,34.444,15.816,38.335,30.251
		c1.171,4.347,1.563,8.904,2.34,13.519C350.931,204.698,353.982,205.614,358.018,206.824z M311.106,353.071
		c10.173,5.031,25.895,2.294,36.818-6.806c14.134-11.774,20.35-26.796,15.806-44.997c-3.467-13.882-12.483-23.711-25.122-30.614
		c-0.765,3.583-1.406,6.599-2.034,9.548c17.961,11.263,20.992,29.617,17.385,41.445c-2.044,6.704-5.48,12.488-11.057,16.762
		c-8.759,6.714-18.639,9.426-29.75,7.351C312.444,348.29,311.8,350.597,311.106,353.071z M234.363,169.726
		c-13.475-17.364-36.933-25.255-57.526-15.438c-22.167,10.568-33.266,31.99-29.681,50.371c2.954-0.813,5.903-1.625,9.017-2.482
		c0-2.789-0.41-5.492,0.063-8.029c5.26-28.225,36.135-44.166,61.987-27.102c5.433,3.585,9.808,5.598,15.775,2.993
		C234.073,170.006,234.129,169.929,234.363,169.726z M191.077,347.23c-4.982-0.493-9.574-0.538-13.981-1.459
		c-12.822-2.677-22.707-9.42-26.883-22.329c-4.819-14.896-0.838-27.797,10.365-38.526c1.928-1.848,5.309-2.97,6.006-5.089
		c0.712-2.165-1.049-5.146-1.741-7.766c-0.06-0.226-0.228-0.423-0.345-0.634c-22.929,12.969-31.172,35.641-22.438,56.572
		c8.598,20.609,33.982,33.177,51.394,26.439C192.61,351.883,191.767,349.326,191.077,347.23z M219.312,151.619
		c8.24-10.731,19.458-14.893,32.486-14.758c13.118,0.134,23.711,5.809,32.125,15.449c3.434-1.43,6.698-2.791,9.978-4.157
		c-21.863-28.441-65.772-26.559-84.306-0.285C212.752,149.087,215.905,150.304,219.312,151.619z M218.387,338.313
		c1.058,5.45,4.281,10.512,8.485,13.784c12.932,10.063,33.738,10.743,46.64,1.992c5.471-3.71,9.689-8.401,11.37-15.735
		c-10.96,4.737-21.935,7.061-33.267,6.847C240.277,344.985,229.294,342.468,218.387,338.313z M335.992,284.4
		c-0.309,0.287-0.485,0.395-0.577,0.552c-0.146,0.251-0.202,0.554-0.35,0.804c-2.181,3.663-2.093,6.409,1.395,9.847
		c6.799,6.702,8.753,15.395,5.03,24.211c-3.834,9.08-11.527,13.31-21.448,13.253c-2.193-0.013-4.387-0.002-6.37-0.002
		c0,3.08,0,6.153,0,9.172c15.156,2.904,30.49-4.756,35.982-17.939C355.167,311.065,351.136,294.065,335.992,284.4z M167.957,284.493
		c-14.054,7.95-19.967,25.391-13.623,39.919c5.553,12.716,23.61,21.869,35.763,18.036c0-3.046,0-6.127,0-9.414
		c-12.273,1.944-22.273-1.515-27.624-13.014c-5.341-11.477,0.112-20.599,8.256-28.511
		C169.785,289.12,168.874,286.813,167.957,284.493z M354.76,278.556c14.145-7.908,19.205-25.962,11.762-41.837
		c-6.094-12.997-23.167-20.885-35.343-16.223c1.107,2.459,2.212,4.911,3.278,7.278c0.393,0.028,0.584,0.057,0.775,0.054
		c15.076-0.266,25.451,9.444,25.857,24.385c0.223,8.225-3.595,14.583-9.865,19.57c-1.604,1.276-2.063,2.138-0.146,3.492
		C352.417,276.221,353.548,277.459,354.76,278.556z M169.199,227.508c0.837-2.175,1.515-4.105,2.325-5.979
		c0.673-1.557,0.136-2.287-1.426-2.255c-3.971,0.083-8.084-0.373-11.886,0.499c-14.738,3.379-25.157,17.988-24.608,33.833
		c0.382,11.041,5.266,19.618,14.076,26.28c1.877-2.02,3.578-3.849,5.378-5.786c-9.234-7.847-14.109-17.465-9.422-29.762
		C148.027,232.813,157.083,227.735,169.199,227.508z M343.408,202.354c1.435-13.837-9.672-30.99-23.473-35.859
		c-14.044-4.956-29.851-1.701-37.798,7.341c2.415,0.979,4.795,2.018,7.235,2.886c0.697,0.248,1.736,0.285,2.338-0.064
		c18.358-10.658,37.511,1.232,41.837,17.329c0.717,2.666,0.886,5.478,1.331,8.368C337.647,202.354,340.438,202.354,343.408,202.354z
		 M220.666,173.9c-10.187-10.352-27.98-12.667-41.034-6.129c-15.527,7.778-21.687,25.642-19.684,34.017c2.749,0,5.524,0,8.371,0
		c0.098-1.418,0.165-2.67,0.272-3.917c1.786-20.67,22.536-29.523,36.235-23.589C210.653,176.807,215.293,176.799,220.666,173.9z
		 M166.979,231.875c-9.2-0.681-19.058,7.046-20.915,16.037c-2.011,9.738,2.551,16.694,9.121,22.896
		c0.479,0.45,1.706,0.641,2.292,0.354c2.146-1.053,4.168-2.359,6.435-3.686c0-5.838-0.396-11.779,0.109-17.644
		C164.536,243.868,165.937,237.979,166.979,231.875z M335.972,231.678c0.083,0.374,0.147,0.73,0.242,1.079
		c2.442,8.948,4.661,18.049,3.547,27.312c-0.709,5.889,1.103,9,6.534,10.465c0.171,0.046,0.337,0.105,0.498,0.156
		c9.124-6.625,12.658-15.699,9.427-25.06C353.412,237.493,346.782,230.911,335.972,231.678z M331.729,295.646
		c-3.03,4.634-5.688,9.305-8.947,13.511c-3.326,4.29-7.256,8.109-10.885,12.167c-0.389,0.434-0.82,1.104-0.764,1.613
		c0.625,5.653,1.531,6.444,7.3,6.59c0.875,0.022,1.753,0.052,2.627,0.019c8.554-0.329,15.381-5.401,17.952-13.322
		C341.227,309.397,338.066,300.52,331.729,295.646z M222.577,153.855c1.614,1.23,3.218,2.195,4.485,3.49
		c1.438,1.47,2.389,1.288,3.875-0.003c8.101-7.037,17.384-8.437,27.556-5.599c5.393,1.504,9.969,4.25,13.632,8.438
		c2.837-2.091,5.484-4.042,8.135-5.997C265.148,135.884,235.106,136.572,222.577,153.855z M172.11,295.259
		c-5.035,3.846-8.653,11.692-7.811,17.346c1.926,12.943,12.933,18.632,24.249,16.93c2.795-0.42,2.393-2.688,2.998-4.342
		c0.521-1.424,1.262-2.734-0.352-4.416c-4.304-4.486-8.495-9.129-12.257-14.07C176.263,303.192,174.358,299.094,172.11,295.259z
		 M208.603,179.333c-3.317-1.004-5.833-2.018-8.445-2.514c-12.562-2.386-24.441,4.866-27.575,18.601
		c-1.514,6.638-0.902,7.293,5.533,8.852c0.282,0.069,0.558,0.169,0.829,0.274c1.418,0.555,2.408,0.321,3.397-1.06
		C189.22,193.887,197.827,186.111,208.603,179.333z M330.535,202.214c0.786-9.956-4.951-19.328-14.836-23.81
		c-6.695-3.036-17.265-2.329-20.958,1.408c8.607,4.784,16.213,10.915,22.255,18.605
		C320.762,203.211,324.082,206.794,330.535,202.214z M269.381,162.965c-10.898-12.323-29.745-10.458-36.648-1.42
		c1.777,2.088,3.494,4.199,5.329,6.202c0.489,0.535,1.333,1.041,2.023,1.052c7.473,0.133,14.948,0.197,22.423,0.177
		c0.922-0.002,2.096-0.347,2.714-0.97C266.714,166.503,267.947,164.742,269.381,162.965z"/>
	<path fill-rule="evenodd" clip-rule="evenodd" d="M317.471,367.822c-7.479,9.544-15.959,17.239-28.457,20.411
		c4.429-3.182,8.502-5.806,12.216-8.867c3.365-2.774,6.453-5.918,9.44-9.107C312.537,368.267,314.397,366.909,317.471,367.822z"/>
	<path fill-rule="evenodd" clip-rule="evenodd" d="M325.388,258.171c-0.372,40.795-33.063,72.804-73.959,72.458
		c-40.722-0.345-73.371-31.884-72.909-73.474c0.442-39.76,32.752-74.858,74.717-73.315
		C292.258,185.275,324.811,216.162,325.388,258.171z M321.267,257.945c-0.351-36.804-29.239-71.204-72.878-70.243
		c-34.525,0.761-66.102,30.532-66.254,70.847c-0.144,38.341,31.823,68.941,69.314,68.64
		C292.278,326.859,320.679,296.224,321.267,257.945z"/>
	<path fill-rule="evenodd" clip-rule="evenodd" d="M312.048,258.484c0.179,31.803-27.209,58.781-58.976,59.59
		c-30.547,0.778-58.643-23.223-61.334-54.163c-3.21-36.896,24.451-65.228,55.889-66.651
		C282.241,195.692,311.788,221.868,312.048,258.484z M251.603,314.27c30.938,0.179,56.782-25.345,56.68-56.572
		c-0.098-29.369-23.433-56.801-58.346-56.744c-28.734,0.047-54.301,23.645-54.537,57.327
		C195.175,290.429,221.637,314.109,251.603,314.27z"/>
	<path fill-rule="evenodd" clip-rule="evenodd" d="M204.133,257.002c0.399-26.425,22.498-48.365,48.707-47.497
		c26.036,0.864,46.612,22.647,46.555,48.75c-0.061,26.733-21.637,47.313-48.471,47.005
		C223.304,304.942,204.37,282.249,204.133,257.002z M295.487,257.921c0.009-23.494-20.181-44.754-42.328-45.039
		c-24.477-0.314-44.57,19.302-44.965,44.52c-0.338,21.607,17.32,45.128,45.646,44.437
		C276.185,301.291,295.478,281.336,295.487,257.921z"/>
	<path fill-rule="evenodd" clip-rule="evenodd" d="M252.633,287.335c-19.204,0.571-30.184-15.07-30.114-30.049
		c0.068-14.535,10.784-28.448,28.808-28.961c18.093-0.515,29.453,14.355,29.482,29.53
		C280.839,273.85,268.16,287.213,252.633,287.335z M251.938,232.855c-13.776,0.066-24.978,11.036-24.986,24.467
		c-0.008,13.668,10.936,24.83,24.212,24.906c14.742,0.086,25.157-11.969,25.259-23.969
		C276.539,244.629,264.471,232.095,251.938,232.855z"/>
</g>
</svg>
