<?xml version="1.0" encoding="utf-8"?>
<!-- Generator: Adobe Illustrator 16.0.0, SVG Export Plug-In . SVG Version: 6.00 Build 0)  -->
<!DOCTYPE svg PUBLIC "-//W3C//DTD SVG 1.1//EN" "http://www.w3.org/Graphics/SVG/1.1/DTD/svg11.dtd">
<svg version="1.1" id="Layer_1" xmlns="http://www.w3.org/2000/svg" xmlns:xlink="http://www.w3.org/1999/xlink" x="0px" y="0px"
	 width="500px" height="500px" viewBox="0 0 500 500" enable-background="new 0 0 500 500" xml:space="preserve">
<g>
	<path fill-rule="evenodd" clip-rule="evenodd" d="M164.563,54.548c11.24-5.966,22.986-10.132,35.192-12.813
		c9.244-2.03,18.656-3.287,27.978-4.969c0.806-0.146,1.933-0.742,2.185-1.405c4.029-10.575,10.912-19.563,16.239-29.41
		c0.731-1.35,1.457-2.704,2.188-4.055c1.295-2.39,3.987-2.593,5.263-0.199c6.108,11.473,14.534,21.614,19.425,33.792
		c0.242,0.602,1.185,1.249,1.851,1.308c21.572,1.92,41.958,8.015,61.48,17.246c0.668,0.315,1.884,0.117,2.551-0.307
		c9.998-6.342,19.925-12.798,29.921-19.143c3.051-1.936,4.938-0.948,4.995,2.6c0.202,12.481,0.258,24.965,0.521,37.444
		c0.023,1.1,0.908,2.503,1.821,3.214c12.403,9.651,23.542,20.617,33.843,32.445c3.147,3.615,6.05,7.453,8.923,11.295
		c0.899,1.203,1.707,1.416,3.133,1.195c12.117-1.871,24.306-1.87,36.508-1.138c4.3,0.258,5.021,1.426,2.953,5.257
		c-5.964,11.041-12.068,22.006-18.058,33.034c-0.302,0.558-0.263,1.528,0.005,2.135c7.765,17.603,13.471,35.83,16.709,54.808
		c0.487,2.854,0.688,5.758,1.246,8.595c0.169,0.858,0.924,1.886,1.696,2.299c11.313,6.036,22.684,11.964,34.018,17.961
		c2.295,1.214,2.537,3.935,0.277,5.214c-11.235,6.359-22.543,12.594-33.873,18.787c-1.247,0.684-2.283,1.107-2.46,2.783
		c-2.267,21.408-8.25,41.824-16.65,61.572c-0.968,2.275-0.707,3.914,0.522,6.186c4.86,8.977,9.284,18.189,13.852,27.324
		c0.727,1.451,1.523,2.896,2.005,4.434c0.612,1.957-0.172,3.148-2.364,3.223c-12.125,0.414-24.263,1.119-36.328-0.756
		c-2.455-0.381-3.102,1.441-4.195,2.688c-5.56,6.32-10.637,13.123-16.643,18.979c-7.89,7.693-16.453,14.699-24.814,21.9
		c-1.483,1.277-2.185,2.43-2.169,4.508c0.088,12.199-0.004,24.398-0.121,36.598c-0.038,3.986-1.732,4.904-5.119,2.77
		c-10.091-6.361-20.114-12.828-30.216-19.172c-0.672-0.424-1.879-0.445-2.663-0.166c-10.112,3.605-20.034,7.855-30.329,10.807
		c-9.599,2.75-19.563,4.266-29.415,6.049c-2.585,0.469-3.837,1.389-4.987,3.842c-2.783,5.936-6.15,11.596-9.305,17.359
		c-2.679,4.895-5.34,9.803-8.129,14.637c-0.483,0.836-1.495,1.701-2.39,1.865c-0.734,0.135-2.04-0.525-2.439-1.213
		c-5.48-9.445-10.862-18.949-16.224-28.463c-0.794-1.41-1.671-2.889-1.966-4.439c-0.563-2.967-2.41-3.332-4.999-3.588
		c-20.668-2.045-40.368-7.686-59.258-16.271c-0.874-0.398-2.317-0.529-3.06-0.072c-8.088,4.957-16.086,10.064-24.118,15.115
		c-2.293,1.443-4.595,2.873-6.936,4.236c-2.323,1.354-3.943,0.537-4.053-2.088c-0.418-9.939-0.783-19.883-1.147-29.826
		c-0.043-1.174-0.223-2.436,0.108-3.52c1.654-5.416-0.987-8.26-5.168-11.465c-10.203-7.82-19.471-16.766-27.832-26.586
		c-3.93-4.617-7.798-9.289-11.779-13.859c-0.482-0.555-1.567-1.006-2.266-0.885c-12.025,2.064-24.138,1.785-36.252,1.473
		c-3.031-0.076-4.138-1.734-2.73-4.475c5.739-11.174,11.624-22.271,17.346-33.453c0.43-0.838,0.348-2.283-0.078-3.162
		c-5.928-12.234-10.781-24.859-13.625-38.17c-1.718-8.039-2.958-16.178-4.557-24.244c-0.197-0.994-1.09-2.266-1.984-2.645
		c-9.768-4.154-18.814-9.586-27.717-15.293c-1.671-1.072-3.464-1.955-5.153-3.002c-2.737-1.698-2.929-4.281-0.332-5.761
		c9.816-5.595,19.454-11.579,29.625-16.438c4.543-2.171,6.001-4.752,6.648-9.325c2.787-19.706,8.164-38.7,16.522-56.818
		c0.471-1.021,0.368-2.68-0.134-3.72c-5.534-11.47-11.236-22.859-16.806-34.312c-1.282-2.636-0.186-4.393,2.643-4.319
		c10.675,0.277,21.399,0.139,31.996,1.223c5.092,0.52,7.707-0.691,10.791-4.64c11.68-14.957,24.96-28.413,40.074-39.987
		c0.578-0.443,1.036-1.432,1.045-2.172c0.157-12.738,0.152-25.479,0.378-38.215c0.071-4.018,1.874-4.786,5.242-2.619
		c9.581,6.164,19.158,12.335,28.725,18.522C162.993,53.229,163.736,53.903,164.563,54.548z M86.788,123.795
		c2.062,0.924,4.215,1.824,6.312,2.84c10.886,5.276,17.076,13.835,17.289,26.054c0.335,19.287-20.268,25.944-32.017,22.336
		c-6.296-1.933-11.482-5.593-15.892-10.449c-6.305,9.694-17.663,50.039-16.979,60.309c0.347-0.078,0.676-0.14,0.999-0.227
		c7.463-2.02,14.753-2.109,21.924,1.375c9.74,4.733,15.52,14.459,14.507,24.86c-1.022,10.504-8.387,18.748-19.013,21.484
		c-6.272,1.613-12.467,1.221-18.965-0.49c2.26,21.449,8.654,41.395,17.404,60.801c1.105-1.102,2.065-2.055,3.021-3.012
		c7.681-7.699,16.715-11.008,27.385-7.756c7.699,2.348,13.799,6.914,16.375,14.924c3.297,10.252-0.753,23.152-9.51,29.428
		c-3.962,2.838-8.595,4.738-13.102,7.162c12.7,15.123,26.251,29.736,42.488,41.857c0.211-0.693,0.421-1.369,0.624-2.047
		c2.708-9.064,7.575-16.426,16.541-20.346c12.92-5.645,25.937-0.67,31.037,11.973c3.838,9.516,1.956,18.859-3.501,27.428
		c-1.638,2.57-3.649,4.906-5.41,7.244c19.229,7.703,38.92,13.879,59.765,16.275c-1.228-5.568-2.062-10.854-1.095-16.355
		c2.147-12.23,11.677-21.133,23.602-21.754c12.918-0.674,24.271,10.184,24.713,23.924c0.149,4.637-0.392,9.297-0.636,14.33
		c20.362-3.543,40.512-8.008,59.388-17.059c-0.004-0.041,0.024-0.162-0.023-0.215c-0.976-1.066-2.007-2.084-2.936-3.189
		c-6.531-7.771-9.569-16.553-7.204-26.674c2.593-11.1,12.666-19.064,23.467-18.344c9.072,0.605,16.255,4.875,20.834,12.822
		c2.164,3.758,3.672,7.895,5.476,11.855c15.214-12.061,39.057-36.166,41.937-42.432c-0.855-0.295-1.701-0.598-2.554-0.879
		c-10.828-3.564-18.035-10.596-20.27-21.959c-2.421-12.314,3.056-23.971,16.359-27.48c12.488-3.295,22.343,1.285,30.625,10.918
		c9.186-19.289,14.688-39.527,17.12-60.852c-1.064,0.232-2.018,0.416-2.96,0.65c-4.638,1.15-9.28,1.355-13.959,0.205
		c-9.162-2.254-16.254-7.166-19.677-16.205c-3.103-8.194-2.165-16.134,3.55-22.953c6.204-7.404,14.125-11.464,24.061-10.526
		c3.017,0.286,6.003,0.904,9.13,1.389c-2.471-20.974-8.547-40.797-17.386-59.979c-6.245,5.591-12.396,10.49-20.732,11.167
		c-9.571,0.778-17.586-2.377-22.935-10.514c-7.313-11.124-4.37-26.481,6.484-34.32c3.974-2.869,8.438-5.059,12.768-7.611
		c-12.164-15.553-25.506-30.506-41.791-42.619c-1.178,3.35-1.895,6.586-3.414,9.386c-1.571,2.895-3.732,5.539-5.966,7.991
		c-9.038,9.923-21.533,10.249-31.088,3.361c-8.912-6.423-11.236-17.124-8.263-28.028c1.654-6.069,5.294-11.012,9.513-15.845
		c-18.747-9.475-38.591-14.265-58.832-16.463c0,5.324,0.583,10.428-0.117,15.349c-1.61,11.32-9.375,20.357-20.44,21.411
		c-14.192,1.351-25.393-7.078-27.685-21.541c-0.797-5.038,0.094-10.343,0.219-15.708c-19.947,2.828-39.858,7.474-58.768,16.454
		c0.701,0.871,1.257,1.574,1.827,2.268c4.862,5.921,8.468,12.369,8.721,20.284c0.299,9.397-2.611,17.29-10.713,22.66
		c-12.583,8.341-29.046,1.865-35.147-10.268c-1.794-3.568-3.148-7.358-4.743-11.141C112.436,93.33,99.191,108.113,86.788,123.795z
		 M490.977,248.519c-11.646-7.596-22.993-14.417-35.621-18.794c-7.446-2.583-14.727-2.22-21.707,1.685
		c-15.204,8.502-12.441,26.223-1.356,34.057c7.156,5.059,15.012,5.191,23.046,2.578C468.294,263.832,479.169,255.82,490.977,248.519
		z M10.975,248.631c8.913,5.259,16.865,10.472,25.283,14.777c8.264,4.227,17.066,7.1,26.646,4.615
		c11.369-2.947,19.097-15.193,14.151-27.045c-3.417-8.191-14.157-16.031-27.06-12.511c-9.427,2.571-17.994,6.922-26.248,11.988
		C19.699,242.94,15.74,245.573,10.975,248.631z M251.309,489.418c4.01-6.521,7.656-12.324,11.172-18.205
		c5.266-8.809,9.059-18.049,8.627-28.629c-0.39-9.582-7.184-21.826-21.713-20.236c-9.479,1.037-17.266,8.65-18.216,18.143
		c-0.777,7.762,0.614,15.021,4.273,21.715C240.382,471.225,245.783,479.986,251.309,489.418z M455.69,126.902
		c-0.119-0.366-0.239-0.732-0.358-1.099c-10.535,0.599-21.104,0.866-31.598,1.905c-7.755,0.768-14.947,3.624-20.72,9.191
		c-6.088,5.871-7.91,13.031-5.747,21.116c2.07,7.736,7.618,11.939,15.159,13.417c9.542,1.871,16.891-2.409,23.046-9.208
		C444.796,151.926,449.794,139.154,455.69,126.902z M369.236,456.074c0.229-3.779,0.401-7.004,0.623-10.227
		c0.652-9.475,1.131-18.932-0.804-28.346c-1.643-7.988-4.763-14.926-12.183-19.279c-14.721-8.635-27.463,1.652-29.154,12.896
		c-1.287,8.559,1.849,15.59,7.372,21.838c5.479,6.195,12.321,10.564,19.422,14.605C359.339,450.311,364.131,453.119,369.236,456.074
		z M47.439,370.867c1.02,0.121,1.983,0.352,2.943,0.334c7.494-0.131,15.029,0.119,22.467-0.613
		c5.678-0.559,11.511-1.678,16.778-3.789c9.631-3.857,15.927-10.838,16.2-21.891c0.277-11.199-9.637-20.664-20.518-19.719
		c-8.115,0.705-14.49,4.283-19.411,10.869C57.979,346.658,52.923,358.729,47.439,370.867z M132.794,456.119
		c3.429-1.945,6.286-3.467,9.044-5.15c6.851-4.178,13.998-7.975,20.396-12.766c8.457-6.33,13.104-14.936,12.519-25.938
		c-0.598-11.234-12.008-19.699-22.93-16.781c-11.235,3.002-17.868,12.535-18.781,23.057
		C131.979,430.783,132.794,443.189,132.794,456.119z M47.486,125.758c3.471,7.675,6.554,15.008,10.071,22.126
		c3.325,6.729,7.028,13.312,13.194,17.979c7.66,5.797,15.945,7.353,24.881,3.176c10.115-4.728,13.569-17.053,7.605-27.304
		c-4.818-8.283-12.735-12.35-21.628-13.981c-7.593-1.393-15.438-1.47-23.181-1.958C54.873,125.572,51.293,125.758,47.486,125.758z
		 M369.537,40.752c-2.036,1.075-3.491,1.771-4.874,2.586c-9.253,5.454-18.92,10.32-26.742,17.879
		c-6.412,6.195-10.492,13.373-9.791,22.798c1.144,15.38,15.345,20.581,25.065,16.805c8.29-3.22,13.143-9.901,15.202-18.259
		C371.754,68.935,369.045,55.075,369.537,40.752z M133.346,40.523c-0.176,0.863-0.398,1.473-0.412,2.088
		c-0.214,9.4-0.605,18.803-0.528,28.202c0.059,7.199,1.572,14.187,5.406,20.437c3.868,6.307,9.451,10.409,16.915,10.726
		c11.49,0.487,19.103-6.672,19.988-18.272c0.736-9.643-4.292-16.809-10.756-23C155.075,52.199,144.399,46.256,133.346,40.523z
		 M454.122,370.82c-0.166-0.879-0.181-1.438-0.376-1.924c-4.562-11.449-9.668-22.609-17.283-32.434
		c-4.392-5.666-9.998-9.395-17.113-10.582c-8.497-1.418-20.935,2.934-22.563,15.268c-1.553,11.762,6.051,23.021,17.436,26.473
		C427.213,371.561,440.521,370.703,454.122,370.82z M251.251,7.846c-0.924,1.388-1.446,2.116-1.911,2.879
		c-3.054,5.021-6.135,10.027-9.13,15.083c-3.925,6.622-7.514,13.402-8.658,21.157c-0.96,6.514-0.465,12.725,3.324,18.476
		c7.207,10.937,24.07,11.62,31.794,1.131c4.513-6.125,5.856-13.118,4-20.312c-1.449-5.619-3.569-11.192-6.259-16.333
		C260.53,22.509,255.865,15.5,251.251,7.846z"/>
	<path fill-rule="evenodd" clip-rule="evenodd" d="M463.008,168.229c-0.251,1.612-0.861,3.289-3.003,3.312
		c-2.104,0.023-3.411-1.248-3.408-3.39c0.002-1.95,1.151-3.341,3.112-3.345C461.601,164.803,462.938,165.896,463.008,168.229z"/>
	<path fill-rule="evenodd" clip-rule="evenodd" d="M191.017,29.777c0.002-1.361,1.185-2.581,3.103-2.61
		c2.047-0.032,3.364,1.231,3.4,3.398c0.036,2.183-1.479,3.05-3.323,3.135C192.155,33.794,191.098,32.557,191.017,29.777z"/>
	<path fill-rule="evenodd" clip-rule="evenodd" d="M215.33,23.151c2.298,0.039,3.236,1.476,3.244,3.476
		c0.006,1.845-1.084,3.083-3.018,3.049c-2.094-0.036-3.269-1.177-3.338-3.377C212.149,24.102,213.333,23.249,215.33,23.151z"/>
	<path fill-rule="evenodd" clip-rule="evenodd" d="M30.496,289.111c-1.884-0.16-2.846-1.582-2.893-3.43
		c-0.051-2,1.209-3.15,3.258-3.188c2.088-0.039,3.179,1.15,3.33,3.137C34.321,287.357,32.472,289.131,30.496,289.111z"/>
	<path fill-rule="evenodd" clip-rule="evenodd" d="M173.449,40.528c-2.298-0.174-3.477-1.378-3.577-3.458
		c-0.098-2.016,1.219-3.019,3.045-3.006c1.893,0.014,3.559,0.587,3.477,3.091C176.325,39.243,175.257,40.251,173.449,40.528z"/>
	<path fill-rule="evenodd" clip-rule="evenodd" d="M172.181,455.703c3.226,0.004,4.247,1.203,4.312,3.346
		c0.067,2.199-1.247,3.033-3.195,3.109c-1.835,0.07-3.702-1.727-3.213-3.465C170.446,457.408,171.689,456.367,172.181,455.703z"/>
	<path fill-rule="evenodd" clip-rule="evenodd" d="M30.843,213.589c-2.166,0.013-3.05-1.401-3.312-3.233
		c-0.221-1.545,1.886-3.737,3.271-3.151c1.369,0.58,2.764,1.933,3.35,3.291C34.74,211.86,32.637,213.579,30.843,213.589z"/>
	<path fill-rule="evenodd" clip-rule="evenodd" d="M39.323,188.893c-0.148,1.68-1.46,2.418-3.283,2.337
		c-2.01-0.09-3.187-1.252-3.127-3.279c0.054-1.819,1.076-3.027,2.978-3.167C37.691,184.649,39.365,186.538,39.323,188.893z"/>
	<path fill-rule="evenodd" clip-rule="evenodd" d="M462.622,328.395c-0.112,2.207-1.3,3.496-3.216,3.424
		c-1.828-0.07-3.206-1.318-3.289-3.318c-0.088-2.137,1.428-3.162,3.25-3.201C461.307,325.256,462.448,326.559,462.622,328.395z"/>
	<path fill-rule="evenodd" clip-rule="evenodd" d="M114.554,423.619c-0.904,0.67-1.947,1.922-3.242,2.289
		c-1.638,0.465-3.539-1.545-3.435-3.344c0.104-1.793,1.01-3.229,2.95-3.219C112.923,419.359,113.964,420.818,114.554,423.619z"/>
	<path fill-rule="evenodd" clip-rule="evenodd" d="M287.04,23.657c3.071-0.019,3.976,1.312,3.967,3.092
		c-0.009,1.946-1.223,3.3-3.222,3.29c-1.964-0.01-3.229-1.174-3.097-3.276C284.813,24.758,286.013,23.718,287.04,23.657z"/>
	<path fill-rule="evenodd" clip-rule="evenodd" d="M81.728,107.522c-3.372,0.136-4.118-1.751-3.936-3.296
		c0.133-1.13,1.607-2.583,2.794-2.993c1.658-0.572,3.665,1.367,3.638,3.107C84.188,106.584,82.812,107.498,81.728,107.522z"/>
	<path fill-rule="evenodd" clip-rule="evenodd" d="M308.677,468.811c-2.182-0.26-3.227-1.467-3.275-3.4
		c-0.049-1.971,1.204-3.021,3.054-3.016c1.916,0.004,3.34,0.984,3.311,3.098C311.736,467.508,310.384,468.439,308.677,468.811z"/>
	<path fill-rule="evenodd" clip-rule="evenodd" d="M194.267,461.902c0.889,1.139,2.177,2.154,2.569,3.445
		c0.53,1.744-1.205,3.406-3.151,3.426c-2.022,0.02-2.851-1.359-3.116-3.064C190.298,463.967,191.803,462.457,194.267,461.902z"/>
	<path fill-rule="evenodd" clip-rule="evenodd" d="M474.06,210.252c-0.219,2.975-1.357,4.087-3.316,4.219
		c-1.505,0.101-3.474-1.966-3.21-3.379c0.351-1.872,1.584-3.328,3.501-2.971C472.287,208.355,473.332,209.707,474.06,210.252z"/>
	<path fill-rule="evenodd" clip-rule="evenodd" d="M114.37,73.389c-0.283,1.751-0.897,3.334-2.954,3.159
		c-1.839-0.156-3.224-1.185-3.186-3.312c0.035-1.975,0.907-3.367,3.051-3.26C113.321,70.079,114.183,71.492,114.37,73.389z"/>
	<path fill-rule="evenodd" clip-rule="evenodd" d="M44.071,171.298c-2.774-0.422-4.071-1.488-4.069-3.45
		c0.001-1.818,1.173-3.148,3.021-3.116c1.92,0.033,3.371,1.384,3.119,3.282C45.975,169.284,44.67,170.404,44.071,171.298z"/>
	<path fill-rule="evenodd" clip-rule="evenodd" d="M217.954,470.779c-0.272,1.9-1.192,3.367-3.248,3.234
		c-1.733-0.113-3.059-1.115-2.984-3.162c0.076-2.064,1.187-3.156,3.237-3.176C216.991,467.658,217.805,468.914,217.954,470.779z"/>
	<path fill-rule="evenodd" clip-rule="evenodd" d="M394.564,73.262c-0.29,1.817-0.725,3.593-2.906,3.654
		c-1.971,0.055-3.311-1.192-3.387-3.135c-0.07-1.801,1.03-3.124,2.949-3.215C393.027,70.481,394.349,71.276,394.564,73.262z"/>
	<path fill-rule="evenodd" clip-rule="evenodd" d="M332.929,458.092c-0.4,2.615-1.2,4.049-3.302,4.045
		c-1.83-0.006-3.074-0.949-3.24-2.879c-0.142-1.648,1.802-3.742,3.661-3.42C331.21,456.039,332.161,457.453,332.929,458.092z"/>
	<path fill-rule="evenodd" clip-rule="evenodd" d="M470.146,190.289c-1.184,0.832-2.267,2.004-3.581,2.401
		c-1.457,0.439-3.438-1.708-3.209-3.289c0.251-1.748,1.189-3.04,3.176-3.106C468.281,186.237,469.725,187.787,470.146,190.289z"/>
	<path fill-rule="evenodd" clip-rule="evenodd" d="M39.956,308.52c-1.135,0.855-2.182,2.242-3.425,2.449
		c-1.938,0.322-3.468-1.191-3.109-3.078c0.241-1.264,1.792-3.125,2.827-3.174c1.193-0.055,2.465,1.594,3.702,2.504
		C39.952,307.652,39.954,308.086,39.956,308.52z"/>
	<path fill-rule="evenodd" clip-rule="evenodd" d="M391.039,425.814c-1.688,0.061-3.126-0.553-3-2.703
		c0.123-2.113,1.499-3.293,3.546-3.363c2.408-0.084,2.701,1.934,2.745,3.596C394.379,425.193,393.093,426.027,391.039,425.814z"/>
	<path fill-rule="evenodd" clip-rule="evenodd" d="M40.334,328.4c0.128-1.598,1.231-2.736,3.226-2.818
		c2.005-0.084,3.339,1.377,2.958,2.98c-0.311,1.311-1.908,2.902-3.224,3.236C41.579,332.236,40.361,330.809,40.334,328.4z"/>
	<path fill-rule="evenodd" clip-rule="evenodd" d="M424.588,105.932c-1.153,0.835-2.252,2.253-3.473,2.368
		c-1.791,0.168-3.193-1.065-3.146-3.199c0.05-2.173,1.497-3.031,3.364-3.044C423.326,102.043,424.077,103.44,424.588,105.932z"/>
	<path fill-rule="evenodd" clip-rule="evenodd" d="M410.642,408.297c-1.122,0.896-2.137,2.303-3.392,2.566
		c-1.854,0.395-3.008-0.988-3.07-2.914c-0.065-2.012,0.95-3.262,3.006-3.439C409.443,404.316,409.664,406.129,410.642,408.297z"/>
	<path fill-rule="evenodd" clip-rule="evenodd" d="M98.941,89.823c-1.272,0.684-2.528,1.887-3.821,1.927
		c-1.886,0.06-2.692-1.559-2.59-3.417c0.098-1.794,1.146-2.87,2.889-2.952C97.116,85.301,98.741,87.384,98.941,89.823z"/>
	<path fill-rule="evenodd" clip-rule="evenodd" d="M83.937,390.971c0.008,2.992-1.222,4.027-2.995,4.162
		c-1.92,0.146-2.984-1.133-3.204-2.965c-0.196-1.633,1.624-3.729,3.14-3.305C82.18,389.23,83.239,390.461,83.937,390.971z"/>
	<path fill-rule="evenodd" clip-rule="evenodd" d="M325.95,37.839c0.56-2.509,1.316-3.746,3.371-3.783
		c1.988-0.035,3.045,1.019,3.1,2.933c0.06,2.035-1.205,3.478-3.064,3.3C328.153,40.175,327.081,38.703,325.95,37.839z"/>
	<path fill-rule="evenodd" clip-rule="evenodd" d="M421.06,395.326c-2.072-0.215-3.145-1.328-3.132-3.389
		c0.014-1.936,1.343-2.844,2.973-2.877c1.841-0.037,3.063,1.117,3.059,3.074C423.954,394.004,423.041,395.199,421.06,395.326z"/>
	<path fill-rule="evenodd" clip-rule="evenodd" d="M469.726,308.666c-0.82,0.572-1.892,1.695-3.194,2.131
		c-1.426,0.477-3.618-1.645-3.133-3.16c0.384-1.195,1.739-2.711,2.854-2.891C467.991,304.467,469.454,305.67,469.726,308.666z"/>
	<path fill-rule="evenodd" clip-rule="evenodd" d="M472.05,290.275c-2.483-0.598-3.441-1.66-3.394-3.445
		c0.051-1.953,1.011-3.355,3.134-3.299c1.987,0.053,3.089,1.496,2.705,3.242C474.214,288.059,472.902,289.115,472.05,290.275z"/>
	<path fill-rule="evenodd" clip-rule="evenodd" d="M408.328,85.32c0.817,1.169,2.398,2.449,2.251,3.479
		c-0.173,1.199-1.679,2.61-2.938,3.144c-1.4,0.592-3.561-1.609-3.086-3.15c0.396-1.289,1.626-2.322,2.487-3.467
		C407.471,85.324,407.899,85.322,408.328,85.32z"/>
	<path fill-rule="evenodd" clip-rule="evenodd" d="M291.24,469.395c-0.257,2.811-1.205,3.895-3.213,3.818
		c-1.817-0.066-2.889-0.947-2.844-2.848c0.046-1.949,0.895-3.639,2.99-3.262C289.44,467.332,290.485,468.795,291.24,469.395z"/>
	<path fill-rule="evenodd" clip-rule="evenodd" d="M92.404,406.838c0.542-0.475,1.432-1.748,2.626-2.178
		c1.375-0.496,3.581,1.721,3.114,3.213c-0.375,1.199-1.568,2.66-2.692,2.986C93.566,411.404,92.408,409.969,92.404,406.838z"/>
	<path fill-rule="evenodd" clip-rule="evenodd" d="M304.003,31.331c1.943-1.523,2.98-2.951,4.229-3.168
		c1.836-0.32,3.227,1.362,2.868,2.992c-0.265,1.208-1.837,2.65-3.075,2.945C307.176,34.302,305.902,32.712,304.003,31.331z"/>
	<path fill-rule="evenodd" clip-rule="evenodd" d="M147.629,147.758c-3.807-4.927-8.544-6.456-14.345-5.235
		c-2.288,0.481-4.667,0.772-6.993,0.707c-0.884-0.024-1.732-1.292-2.597-1.993c0.717-0.74,1.335-1.968,2.168-2.136
		c3.853-0.78,7.766-1.266,12.061-1.918c-2.705-2.892-5.08-5.729-7.797-8.189c-1.076-0.973-2.882-1.441-4.402-1.563
		c-3.781-0.302-7.6-0.141-11.376-0.471c-0.948-0.083-1.795-1.317-2.688-2.023c0.904-0.721,1.757-1.969,2.723-2.063
		c2.846-0.278,5.737-0.099,9.453-0.099c-3.788-4.006-6.979-7.392-10.184-10.765c-0.927-0.976-2.398-2.071-0.898-3.299
		c0.654-0.536,2.665-0.273,3.454,0.37c2.729,2.224,5.184,4.783,7.761,7.196c0.903,0.845,1.859,1.634,3.346,2.932
		c0.187-2.82,0.335-5.003,0.476-7.188c0.069-1.084-0.044-2.217,0.248-3.235c0.189-0.662,0.972-1.63,1.467-1.617
		c0.727,0.019,1.669,0.64,2.086,1.285c0.453,0.7,0.536,1.718,0.555,2.603c0.033,1.534,0.039,3.095-0.202,4.604
		c-0.921,5.789,0.26,10.733,5.165,14.47c1.393,1.063,2.469,2.543,3.938,4.093c0.186-3.862,0.208-7.392,0.611-10.878
		c0.123-1.065,1.198-2.764,1.995-2.86c1.822-0.22,2.26,1.473,2.197,3.026c-0.105,2.619-0.288,5.236-0.506,7.848
		c-0.448,5.385,1.342,9.771,5.852,13.134c4.028-3.748,5.87-8.671,7.271-13.824c4.153-15.268,15.341-22.761,27.722-23.717
		c3.643-0.282,7.363,0.66,11.057,0.793c4.286,0.154,8.583,0.036,12.892,0.036c-0.779-6.959-2.697-12.892-10.253-15.049
		c-1.713-0.489-3.457-1.268-4.843-2.353c-0.847-0.663-1.629-2.307-1.396-3.254c0.416-1.695,1.988-1.047,3.153-0.536
		c3.212,1.415,6.404,2.878,10.214,4.598c-2.071-5.86-0.409-12.588-6.119-16.648c-2.324-1.653-5.071-2.729-7.673-3.969
		c-3.191-1.52-4.54-3.107-3.457-4.525c1.755-2.3,3.555-0.542,5.26,0.275c2.187,1.049,4.335,2.176,7.033,3.539
		c-0.922-3.689-1.749-6.879-2.507-10.084c-0.415-1.751-1.151-4.125,1.017-4.745c2.571-0.734,2.768,1.969,3.301,3.7
		c0.98,3.18,1.846,6.396,2.937,10.217c2.146-3.066,3.954-5.583,5.686-8.15c0.804-1.192,1.762-2.63,3.104-1.27
		c0.73,0.74,0.942,2.744,0.475,3.753c-0.894,1.93-2.314,3.668-3.743,5.285c-3.364,3.805-4.784,7.95-3.179,12.988
		c0.875,2.746,1.396,5.604,2.138,8.661c2.174-3.042,4.08-5.973,6.271-8.669c1.173-1.442,2.45-4.296,4.837-2.208
		c2.202,1.926-0.434,3.481-1.448,4.968c-2.289,3.355-4.885,6.514-6.978,9.981c-0.778,1.289-0.798,3.248-0.632,4.846
		c0.259,2.48,0.973,4.912,1.542,7.592c5.736-1.531,10.542-4.074,14.816-7.627c4.835-4.021,9.834-7.79,16.183-8.987
		c9.017-1.701,16.948,0.654,23.91,6.648c5.095,4.387,10.486,8.361,17.188,10.059c3.412-6.085,2.701-12.37-2.068-18.142
		c-1.498-1.814-3.016-3.617-4.437-5.491c-0.966-1.275-1.739-2.727-0.04-4.011c1.705-1.288,2.673,0.1,3.537,1.25
		c2.378,3.169,4.687,6.39,7.448,10.177c1.024-5.045,2.058-9.605,2.798-14.212c0.16-1-0.567-2.275-1.174-3.242
		c-2.017-3.218-4.132-6.377-6.281-9.509c-0.964-1.404-1.611-2.801,0.02-4.011c1.668-1.238,2.604,0.086,3.475,1.329
		c1.896,2.711,3.808,5.41,5.987,8.504c1.131-4.107,2.122-7.715,3.12-11.323c0.142-0.518,0.159-1.18,0.495-1.513
		c0.679-0.672,1.536-1.164,2.32-1.73c0.481,0.854,1.471,1.787,1.354,2.548c-0.438,2.834-1.251,5.609-1.9,8.411
		c-0.256,1.105-0.447,2.225-0.668,3.338c0.186,0.184,0.373,0.368,0.561,0.552c2.506-1.323,4.979-2.716,7.536-3.932
		c0.913-0.435,2.136-0.817,3.029-0.563c1.481,0.42,1.313,2.927-0.34,3.93c-2.081,1.263-4.26,2.395-6.48,3.396
		c-4.306,1.943-7.407,4.635-7.64,9.824c-0.114,2.579-0.832,5.13-1.392,8.356c2.906-1.394,5.221-2.499,7.527-3.617
		c0.651-0.314,1.288-0.961,1.92-0.946c1.293,0.03,3.243-0.021,3.725,0.729c0.979,1.528-0.43,2.504-1.883,3.185
		c-2.945,1.382-5.818,2.922-8.763,4.309c-3.149,1.482-4.737,4.037-5.423,7.329c-0.421,2.03-0.954,4.037-1.568,6.603
		c3.022,0,6.013,0.106,8.994-0.023c5.141-0.224,10.3-1.074,15.409-0.814c14.822,0.754,23.832,9.645,27.287,22.605
		c1.889,7.083,4.183,11.255,7.995,14.366c2.993-2.834,5.53-5.861,5.504-10.347c-0.02-3.35,0.031-6.701,0.062-10.051
		c0.015-1.507,0.147-3.187,2.096-3.133c1.865,0.051,2.026,1.506,1.95,3.168c-0.155,3.313-0.046,6.64-0.046,9.96
		c0.294,0.099,0.587,0.197,0.881,0.295c2.711-3.183,6.286-5.988,7.891-9.655c1.612-3.684,1.269-8.226,1.765-12.393
		c0.106-0.893-0.123-1.946,0.281-2.649c0.42-0.731,1.422-1.128,2.171-1.67c0.497,0.735,1.382,1.447,1.426,2.209
		c0.167,2.932,0.067,5.879,0.067,8.821c0.241,0.159,0.482,0.318,0.723,0.476c2.7-2.884,5.321-5.846,8.131-8.619
		c1.396-1.377,3.195-3.736,5.199-1.676c1.887,1.941-0.763,3.259-1.927,4.531c-2.789,3.048-5.698,5.985-9.166,9.599
		c3.176,0,5.567-0.06,7.954,0.021c1.647,0.056,3.427,0.12,3.261,2.576c-0.153,2.258-1.665,2.112-3.32,2.059
		c-3.527-0.115-7.065-0.206-10.587-0.035c-1.221,0.061-2.63,0.664-3.558,1.474c-2.646,2.315-5.09,4.864-8.12,7.813
		c4.044,0.659,7.42,1.202,10.792,1.766c0.622,0.104,1.4,0.115,1.802,0.493c0.695,0.654,1.152,1.563,1.709,2.364
		c-0.792,0.549-1.577,1.546-2.377,1.557c-1.869,0.025-3.779-0.281-5.615-0.706c-6.251-1.446-11.686-0.565-15.632,5.256
		c2.327,3.407,6.114,4.736,9.708,6.352c4.847,2.18,10.009,3.861,14.466,6.662c6.892,4.33,11.081,11.01,12.153,19.076
		c0.608,4.572-0.046,9.322-0.23,13.988c-0.177,4.479-0.842,8.974,0.57,13.376c7.239-0.282,13.335-2.023,15.874-9.74
		c0.668-2.035,1.766-3.989,2.994-5.75c0.569-0.815,1.931-1.078,2.932-1.591c0.199,1.118,0.892,2.454,0.511,3.316
		c-1.518,3.438-3.369,6.729-5.319,10.503c3.987-1.005,7.637-1.669,11.076-2.913c1.533-0.555,2.913-2.091,3.891-3.508
		c1.994-2.891,3.7-5.984,5.462-9.031c0.796-1.376,1.894-2.704,3.349-1.633c0.694,0.51,0.818,2.625,0.383,3.674
		c-1.125,2.706-2.704,5.223-4.383,8.335c4.106-1.089,7.653-2.034,11.204-2.969c0.78-0.205,1.711-0.724,2.322-0.478
		c0.878,0.35,2.186,1.347,2.119,1.932c-0.104,0.902-1.065,2.176-1.925,2.439c-3.759,1.151-7.612,1.996-11.726,3.024
		c2.354,1.815,4.525,3.467,6.673,5.15c1.331,1.044,2.258,2.375,0.989,3.927c-1.306,1.596-2.688,0.806-3.986-0.304
		c-1.859-1.587-3.817-3.057-5.672-4.648c-2.158-1.853-4.611-2.468-7.338-1.831c-3.491,0.813-6.956,1.732-10.775,2.692
		c3.029,2.351,5.751,4.393,8.384,6.541c1.131,0.922,2.832,1.89,1.452,3.723c-1.288,1.71-2.784,0.764-4.041-0.152
		c-2.705-1.971-5.217-4.24-8.056-5.982c-1.476-0.904-3.503-1.383-5.239-1.288c-3.218,0.178-6.403,0.919-9.896,1.473
		c1.076,4.377,2.855,8.131,5.386,11.564c2.572,3.489,5.479,6.799,7.582,10.556c6.439,11.502,4.712,24.481-4.282,34.964
		c-4.42,5.154-7.628,10.814-8.593,15.193c0.241,0.086,0.485,0.189,0.737,0.26c12.629,3.471,10.085,3.266,20.464-4.424
		c0.939-0.695,1.859-1.701,2.908-1.887c1.021-0.184,2.196,0.502,3.305,0.807c-0.376,0.967-0.473,2.303-1.177,2.834
		c-3.094,2.342-6.363,4.453-9.606,6.672c7.257,4.512,15.404,4.178,21.797-0.822c1.14-0.891,2.189-2.041,3.486-2.543
		c1.073-0.414,2.45-0.047,3.693-0.025c-0.311,1.273-0.201,3.037-1.008,3.729c-2.377,2.035-5.117,3.645-7.788,5.471
		c3.517,1.082,6.974,2.145,10.428,3.213c0.604,0.186,1.421,0.213,1.752,0.625c0.655,0.813,1.04,1.844,1.536,2.785
		c-0.92,0.363-1.932,1.176-2.743,1.01c-3.178-0.652-6.294-1.609-9.431-2.459c-0.681-0.186-1.355-0.385-2.462-0.701
		c1.441,2.693,2.737,4.994,3.91,7.357c0.667,1.344,1.664,3.01-0.26,4.014c-1.975,1.029-2.97-0.666-3.757-2.086
		c-0.963-1.734-1.697-3.594-2.598-5.367c-1.93-3.799-4.67-6.539-9.078-7.428c-2.699-0.543-5.31-1.525-8.52-2.477
		c1.817,3.734,3.467,6.834,4.816,10.059c0.47,1.125,0.693,3.391,0.174,3.701c-1.948,1.164-3.092-0.379-3.894-2.049
		c-1.369-2.854-2.754-5.701-4.073-8.578c-1.446-3.154-3.636-5.279-7.194-5.936c-2.196-0.402-4.328-1.156-6.587-1.779
		c-1.784,6.277-1.091,12.467-0.183,18.629c1.988,13.498-5.238,26.613-17.735,31.926c-2.068,0.879-4.207,1.594-6.321,2.363
		c-4.798,1.746-9.342,3.912-12.908,7.783c3.802,5.111,9.032,6.395,15.067,5.541c2.146-0.303,4.314-0.813,6.449-0.713
		c1.071,0.051,2.751,1.088,2.983,1.982c0.408,1.576-0.992,2.119-2.576,2.252c-3.576,0.297-7.138,0.793-11.015,1.244
		c2.16,2.311,4.166,4.469,6.185,6.611c2.279,2.42,4.931,3.727,8.416,3.545c2.68-0.139,5.422,0.15,8.07,0.619
		c0.849,0.152,1.486,1.486,2.221,2.279c-0.954,0.631-1.868,1.713-2.872,1.803c-2.765,0.252-5.566,0.088-8.39,0.088
		c3.065,3.275,6.313,6.74,9.552,10.213c0.491,0.527,1.175,1.041,1.337,1.67c0.175,0.682,0.09,1.723-0.34,2.18
		c-0.411,0.441-1.582,0.676-2.107,0.402c-1.007-0.525-1.862-1.408-2.657-2.258c-3.129-3.348-6.211-6.738-9.692-10.529
		c-0.146,3.27-0.267,5.936-0.383,8.602c-0.024,0.543,0.155,1.209-0.095,1.605c-0.625,0.986-1.445,1.85-2.187,2.762
		c-0.592-0.986-1.67-1.963-1.688-2.959c-0.065-3.336,0.143-6.689,0.449-10.018c0.253-2.738-0.582-4.957-2.438-6.9
		c-2.236-2.348-4.441-4.725-6.66-7.088c-0.213,0.117-0.427,0.236-0.64,0.355c-0.235,3.912-0.479,7.824-0.698,11.74
		c-0.084,1.496-0.118,3.139-2.153,3.08c-1.988-0.057-2.129-1.689-2.068-3.193c0.124-3.07,0.094-6.174,0.56-9.199
		c0.856-5.576-1.504-9.383-6.206-12.318c-3.063,3.105-5.187,6.854-6.354,11.061c-1.734,6.262-4.03,12.184-8.519,17.045
		c-6.938,7.514-15.508,10.064-25.526,8.729c-5.072-0.676-10.203-0.938-15.315-1.264c-1.114-0.072-2.262,0.373-3.749,0.643
		c0.799,3.451,1.301,6.762,2.407,9.855c0.465,1.297,2.062,2.436,3.41,3.119c3.131,1.588,6.414,2.877,9.655,4.238
		c1.482,0.625,2.824,1.68,1.892,3.174c-0.477,0.764-2.626,1.168-3.659,0.777c-3.258-1.229-6.347-2.91-9.969-4.641
		c1.156,4.975,1.997,9.666,3.447,14.162c0.422,1.307,2.512,2.182,3.97,3.021c2.811,1.621,5.764,2.992,8.559,4.635
		c1.336,0.787,2.716,2.064,1.432,3.742c-1.14,1.492-2.472,0.541-3.803-0.256c-2.461-1.473-5.063-2.711-8.218-4.367
		c0.793,3.404,1.448,6.164,2.072,8.93c0.238,1.057,0.66,2.162,0.528,3.188c-0.129,0.996-0.854,1.916-1.319,2.869
		c-0.823-0.697-2.128-1.25-2.386-2.115c-1.106-3.713-1.902-7.516-2.981-11.984c-2.212,3.043-4.1,5.609-5.952,8.203
		c-0.973,1.365-1.983,3.027-3.851,1.602c-1.709-1.307-0.807-2.936,0.228-4.307c1.744-2.313,3.507-4.615,5.311-6.881
		c1.803-2.268,2.551-4.715,1.766-7.598c-1.049-3.861-1.997-7.75-3.104-12.078c-2.293,3.666-4.222,6.787-6.196,9.877
		c-0.431,0.674-0.919,1.547-1.575,1.779c-0.817,0.289-2.004,0.291-2.703-0.131c-0.413-0.25-0.538-1.758-0.191-2.35
		c1.462-2.49,2.925-5.045,4.801-7.221c4.889-5.664,4.912-11.734,2.053-18.25c-6.477,2.092-11.911,5.979-17.213,10.064
		c-7.613,5.873-16.095,7.973-25.551,6.139c-5.697-1.105-10.328-4.232-14.696-7.793c-4.442-3.619-9.144-6.715-14.511-8.355
		c-3.615,7.834-1.13,14.406,3.988,20.473c1.046,1.238,2.082,2.553,2.776,3.998c0.383,0.799,0.046,1.943,0.034,2.932
		c-1.063-0.232-2.525-0.105-3.112-0.762c-1.8-2.01-3.258-4.326-4.86-6.516c-0.9-1.23-1.821-2.445-3.067-4.117
		c-0.866,4.898-2.042,9.332-2.275,13.816c-0.114,2.184,1.287,4.596,2.438,6.66c1.401,2.518,3.413,4.691,4.838,7.197
		c0.478,0.838-0.035,2.238-0.095,3.383c-1.083-0.357-2.571-0.387-3.177-1.133c-2.027-2.494-3.739-5.246-6.013-8.539
		c-1.132,4.172-2.064,7.594-2.985,11.018c-0.094,0.348-0.098,0.719-0.183,1.07c-0.367,1.512-1.271,2.68-2.84,1.988
		c-0.694-0.305-1.347-1.875-1.196-2.727c0.657-3.719,1.616-7.383,2.623-11.754c-2.705,1.482-5.079,2.766-7.431,4.086
		c-0.628,0.352-1.152,1.076-1.793,1.174c-1.019,0.152-2.095-0.076-3.147-0.143c0.184-1.131-0.029-2.693,0.634-3.305
		c1.503-1.385,3.309-2.672,5.222-3.342c6.838-2.396,10.07-7.141,10.228-14.275c0.04-1.775,0.55-3.543,0.849-5.342
		c-3.433,1.855-6.694,3.785-10.117,5.363c-0.951,0.439-2.381-0.16-3.592-0.283c0.568-1.127,0.844-2.711,1.758-3.293
		c2.733-1.734,5.646-3.236,8.62-4.527c3.586-1.555,5.588-4.107,6.139-7.941c0.293-2.039,0.757-4.053,1.18-6.268
		c-5.193-1.154-10.292-0.826-15.384,0.117c-11.377,2.105-21.391-0.285-29.407-9.025c-3.751-4.088-5.877-9.082-7.354-14.359
		c-1.432-5.117-3.098-10.068-7.772-13.051c-5.076,3.082-6.668,7.664-5.66,13.424c0.435,2.48,0.569,5.029,0.649,7.555
		c0.048,1.527-0.099,3.549-2.196,3.248c-0.892-0.127-2.063-1.955-2.185-3.109c-0.343-3.229-0.207-6.508-0.256-9.768
		c-0.007-0.498-0.001-0.996-0.001-2.176c-3.22,3.707-6.073,6.811-8.678,10.111c-0.696,0.881-0.837,2.355-0.878,3.57
		c-0.095,2.797,0.054,5.6,0.047,8.4c-0.003,0.889,0.02,1.879-0.349,2.637c-0.346,0.711-1.178,1.6-1.828,1.625
		c-0.557,0.023-1.566-1.004-1.666-1.672c-0.356-2.395-0.42-4.836-0.575-7.26c-0.039-0.596-0.006-1.199-0.006-1.838
		c-3.235,3.131-6.337,6.125-9.431,9.129c-0.39,0.377-0.704,0.834-1.108,1.193c-1.079,0.963-2.292,2.316-3.727,0.98
		c-1.493-1.393-0.094-2.623,0.837-3.689c3.13-3.578,6.294-7.129,9.768-11.055c-3.036,0-5.627-0.047-8.216,0.02
		c-1.457,0.037-3.337,0.441-3.374-1.541c-0.017-0.939,1.468-2.482,2.523-2.744c1.965-0.49,4.119-0.369,6.185-0.279
		c7.944,0.35,13.437-2.969,17.152-10.643c-3.831-0.305-7.597-0.461-11.311-0.99c-1.032-0.146-2.672-1.369-2.701-2.146
		c-0.066-1.82,1.561-2.098,3.151-1.865c0.89,0.129,1.779,0.291,2.674,0.348c3.232,0.197,6.467,0.516,9.7,0.49
		c3.669-0.031,6.145-2.225,8.585-5.752c-3.229-1.967-6.191-4.197-9.487-5.684c-5.67-2.557-11.758-4.25-16.65-8.318
		c-8.073-6.723-11.775-15.383-11.125-25.854c0.313-5.053,0.869-10.092,1.174-15.143c0.094-1.563-0.278-3.152-0.422-4.578
		c-9.161-0.107-14.151,4.811-17.032,12.51c-0.475,1.27-0.758,2.678-1.51,3.756c-0.544,0.781-1.718,1.119-2.611,1.654
		c-0.452-1.037-1.521-2.295-1.245-3.076c1.044-2.965,2.518-5.781,3.845-8.646c0.401-0.867,0.846-1.713,1.443-2.914
		c-2.948,0.684-5.448,1.32-7.974,1.834c-3.709,0.754-6.39,2.811-8.173,6.115c-1.372,2.543-2.8,5.055-4.149,7.609
		c-0.756,1.43-1.564,2.996-3.456,2.063c-2.127-1.051-1.125-2.766-0.319-4.178c1.475-2.588,3.062-5.111,4.858-8.088
		c-4.383,1.375-8.372,2.641-12.372,3.871c-1.223,0.377-2.731,1.42-3.406-0.594c-0.563-1.676,0.393-2.736,2.011-3.25
		c3.772-1.201,7.541-2.418,11.818-3.793c-1.993-1.195-3.913-2.225-5.691-3.455c-1.622-1.125-4.434-2.217-2.851-4.658
		c1.648-2.543,3.657-0.066,5.319,0.828c1.504,0.811,2.905,1.859,4.221,2.955c2.875,2.398,5.93,2.617,9.371,1.363
		c2.494-0.908,5.127-1.436,7.891-2.186c-2.497-1.971-4.886-3.855-7.274-5.74c-1.45-1.146-2.753-2.494-1.171-4.279
		c1.44-1.627,2.734-0.256,3.967,0.664c2.683,2,5.274,4.162,8.135,5.867c1.438,0.857,3.427,1.324,5.089,1.16
		c3.307-0.324,6.56-1.203,10.706-2.027c-2.618-4.291-4.605-8.596-7.532-12.119c-5.006-6.029-9.177-12.193-10.092-20.275
		c-0.953-8.428,1.46-15.704,6.427-22.32c0.919-1.225,1.962-2.369,3.043-3.456c3.802-3.822,6.12-8.404,7.317-13.955
		c-3.566-0.54-7.048-1.481-10.519-1.442c-2.149,0.025-4.43,1.287-6.381,2.449c-2.463,1.467-4.546,3.57-7.013,5.03
		c-0.86,0.51-2.874,0.391-3.479-0.259c-1.234-1.331-0.173-2.571,1.141-3.527c2.975-2.167,5.894-4.413,8.84-6.629
		c-4.119-1.07-8.123-2.3-12.213-3.065c-1.323-0.247-3.031,0.459-4.288,1.197c-2.491,1.462-4.781,3.265-7.172,4.899
		c-1.351,0.923-2.852,1.641-4.02-0.104c-1.151-1.722,0.316-2.621,1.498-3.457c1.982-1.402,4.001-2.752,6.549-4.496
		c-3.006-0.746-5.464-1.354-7.92-1.968c-1.05-0.263-2.12-0.474-3.137-0.829c-1.431-0.5-3.055-1.378-2.198-3.021
		c0.446-0.854,2.424-1.417,3.606-1.272c2.302,0.285,4.524,1.184,6.792,1.785c1.284,0.34,2.592,0.594,4.238,0.964
		c-1.595-3.353-2.963-6.366-4.459-9.313c-0.675-1.331-0.84-2.663,0.624-3.163c0.808-0.275,2.472,0.266,2.932,0.972
		c1.564,2.403,2.905,4.98,4.072,7.607c1.657,3.73,4.112,6.242,8.306,6.992c2.533,0.453,4.984,1.367,8.097,2.252
		c-1.472-2.966-2.727-5.404-3.893-7.883c-0.572-1.217-1.276-2.494-1.354-3.779c-0.054-0.875,0.871-1.811,1.358-2.72
		c0.851,0.51,2.05,0.818,2.487,1.568c1.359,2.338,2.616,4.773,3.572,7.299c1.822,4.813,4.991,7.778,10.191,8.496
		c1.59,0.22,3.133,0.79,5.316,1.361c0-4.917,0.113-9.58-0.038-14.234c-0.108-3.336-0.792-6.66-0.831-9.994
		c-0.134-11.514,5.684-19.522,15.411-24.914c2.974-1.647,6.283-2.731,9.509-3.875C140.038,153.707,144.158,151.418,147.629,147.758z
		 M114.85,309.969c-0.237,12.463,6.578,22.127,18.42,26.162c15.227,5.189,25.471,15.191,30.262,30.756
		c2.761,8.969,8.723,14.947,17.93,17.615c5.176,1.5,10.224,0.604,15.323-0.092c12.44-1.695,23.601,1.051,33.551,8.979
		c3.627,2.889,7.675,5.578,11.964,7.248c10.58,4.123,19.6,0.576,28.047-6.354c10.895-8.938,23.48-12.563,37.493-9.523
		c13.484,2.926,26.05-2.281,31.084-16.74c0.919-2.641,1.484-5.449,2.727-7.922c5.895-11.736,14.641-20.123,27.602-23.943
		c12.425-3.664,19.778-15.547,18.141-28.309c-0.3-2.332-0.904-4.648-0.958-6.982c-0.305-13.137,3.399-24.756,12.013-35.041
		c7.046-8.414,9.043-18.254,3.967-28.582c-1.413-2.872-3.566-5.419-5.591-7.945c-8.676-10.829-12.156-23.077-9.966-36.784
		c1.317-8.248,0.197-15.857-4.823-22.68c-3.947-5.366-9.736-7.892-15.754-10.037c-10.252-3.656-18.482-9.826-23.55-19.618
		c-1.769-3.42-2.869-7.189-4.257-10.806c-1.949-5.076-4.706-9.595-9.25-12.752c-7.019-4.877-14.854-5.707-23.1-4.495
		c-6.293,0.924-12.537,1.164-18.817-0.56c-8.067-2.215-14.716-6.763-21.073-11.914c-7.792-6.313-17.537-7.308-26.311-2.384
		c-3.293,1.848-6.342,4.179-9.334,6.505c-9.048,7.039-19.541,8.968-30.607,8.699c-4.51-0.109-9.01-1.118-13.508-1.073
		c-10.219,0.101-19.406,7.413-22.69,17.956c-4.806,15.432-14.033,26.375-29.917,31.303c-8.483,2.632-15.063,7.689-17.686,16.8
		c-1.313,4.563-1.254,9.114-0.517,13.695c0.988,6.142,1.167,12.234-0.297,18.335c-1.903,7.932-5.117,15.003-10.909,21.076
		c-5.607,5.881-8.556,13.06-7.097,21.599c1.097,6.422,4.258,11.564,8.464,16.354c6.777,7.721,9.915,16.947,9.998,27.125
		C115.864,300.414,115.198,305.193,114.85,309.969z"/>
	<path fill-rule="evenodd" clip-rule="evenodd" d="M442.152,260.178c-7.235-0.457-12.558-4.607-13.028-10.512
		c-0.288-3.621,1.119-6.529,4.008-8.674c5.544-4.119,11.488-3.206,17.249-0.825c4.991,2.063,9.765,4.664,14.579,7.135
		c1.967,1.01,2.007,2.669,0.136,3.571c-5.364,2.582-10.731,5.174-16.196,7.531C446.788,259.314,444.409,259.604,442.152,260.178z
		 M458.253,249.674c-4.763-4.713-14.206-7.762-19.967-6.733c-2.814,0.503-4.469,2.304-5.07,4.994
		c-0.577,2.584,0.29,4.922,2.733,5.877c2.348,0.916,5.22,1.969,7.455,1.391C448.405,253.912,453.154,251.643,458.253,249.674z"/>
	<path fill-rule="evenodd" clip-rule="evenodd" d="M58.637,258.916c-4.899-0.014-11.262-2.951-17.408-6.551
		c-1.396-0.818-2.859-1.525-4.238-2.37c-1.689-1.036-1.819-2.36-0.049-3.306c7.65-4.09,15.29-8.338,24.174-9.042
		c5.904-0.468,11.768,4.88,11.784,10.401C72.917,253.99,67.187,259.297,58.637,258.916z M44.046,247.496
		c0.039,0.335,0.078,0.672,0.116,1.008c5.589,3.55,11.26,6.988,18.331,6.402c5.058-0.418,7.811-5.407,5.178-9.32
		c-1.785-2.652-4.597-4.28-7.671-3.457C54.592,243.579,49.355,245.673,44.046,247.496z"/>
	<path fill-rule="evenodd" clip-rule="evenodd" d="M261.902,440.553c-0.794,2.963-1.256,5.549-2.18,7.959
		c-2.002,5.217-4.201,10.363-6.428,15.49c-0.349,0.805-1.26,1.365-1.912,2.039c-0.615-0.693-1.418-1.293-1.816-2.096
		c-2.562-5.168-5.363-10.252-7.451-15.613c-2.46-6.316-2.359-12.623,2.731-17.912c4.234-4.398,11.712-3.488,14.482,1.936
		C260.641,434.918,261.104,437.914,261.902,440.553z M251.59,457.996c1.988-5.738,3.891-10.746,5.4-15.871
		c0.475-1.609,0.126-3.582-0.249-5.301c-0.755-3.465-3.392-5.457-6.324-5.105c-2.883,0.348-5.375,3.477-5.573,7.109
		C244.466,445.787,248.02,451.387,251.59,457.996z"/>
	<path fill-rule="evenodd" clip-rule="evenodd" d="M413.404,165.077c-4.793-0.531-9.167-3.424-10.41-7.286
		c-1.404-4.361,0.382-9.34,4.59-12.374c6.309-4.547,13.764-5.669,21.171-6.872c1.778-0.288,3.592-0.38,5.394-0.522
		c1.511-0.118,2.14,0.73,1.52,2.007c-3.91,8.038-7.555,16.333-14.969,21.899C418.64,163.476,415.855,164.055,413.404,165.077z
		 M429.76,143.697c-0.218-0.252-0.434-0.505-0.652-0.758c-3.059,0.586-6.166,0.998-9.167,1.8c-4.669,1.249-9.481,2.276-12.501,6.746
		c-2.185,3.235-1.436,6.713,2.133,8.273c3.965,1.734,7.525,0.251,10.026-2.579C423.313,152.976,426.404,148.22,429.76,143.697z"/>
	<path fill-rule="evenodd" clip-rule="evenodd" d="M358.096,426.939c0,1.898,0.068,3.801-0.036,5.691
		c-0.039,0.729-0.279,1.76-0.78,2.055c-0.497,0.293-1.61,0.068-2.155-0.334c-4.936-3.643-10.026-7.121-14.628-11.154
		c-4.055-3.553-6.078-8.348-5.041-13.885c1.334-7.129,9.324-10.152,15.107-5.797c4.095,3.084,6.6,7.082,6.862,12.346
		c0.185,3.691,0.497,7.377,0.753,11.066C358.151,426.932,358.123,426.936,358.096,426.939z M352.995,427.484
		c0.21-0.189,0.421-0.381,0.632-0.57c-0.167-3.055,0.003-6.178-0.596-9.146c-0.612-3.035-1.694-6.063-3.096-8.828
		c-1.521-3.002-4.504-3.865-7.366-2.766c-2.551,0.979-3.896,3.455-3.188,6.705c0.391,1.785,1.021,3.867,2.27,5.049
		C345.234,421.322,349.188,424.326,352.995,427.484z"/>
	<path fill-rule="evenodd" clip-rule="evenodd" d="M99.687,343.238c-0.126,2.939-1.634,5.709-4.189,7.979
		c-5.375,4.777-12.062,6.295-18.833,7.541c-2.666,0.49-5.376,0.756-8.075,1.035c-2.331,0.242-3.02-0.566-1.99-2.572
		c3.374-6.586,6.367-13.422,11.688-18.805c3.982-4.029,8.294-7.143,14.409-5.176C96.512,334.467,99.655,338.779,99.687,343.238z
		 M72.648,354.631c3.128-0.488,5.701-0.748,8.205-1.314c5.159-1.164,10.194-2.699,13.549-7.229c1.356-1.832,2.011-3.928,0.678-6.068
		c-1.348-2.166-3.357-3.428-5.944-2.877c-1.718,0.365-3.54,0.965-4.937,1.98C78.928,342.947,76.195,348.711,72.648,354.631z"/>
	<path fill-rule="evenodd" clip-rule="evenodd" d="M167.647,411.715c-0.61,4.941-3.794,9.58-8.231,13.342
		c-4.124,3.494-8.529,6.66-12.855,9.91c-0.494,0.369-1.336,0.586-1.905,0.438c-0.376-0.098-0.799-0.979-0.782-1.494
		c0.268-7.824,0.008-15.758,2.69-23.246c0.94-2.621,2.687-5.115,4.584-7.195c2.83-3.1,6.821-3.426,11.01-1.535
		C165.372,403.385,167.623,406.953,167.647,411.715z M148.293,428.855c2.644-2.051,4.835-3.387,6.56-5.172
		c2.742-2.84,5.593-5.723,7.625-9.059c2.472-4.059,1.111-7.77-2.605-9.295c-3.391-1.391-6.41,0.098-8.464,4.209
		C148.469,415.422,149.165,421.861,148.293,428.855z"/>
	<path fill-rule="evenodd" clip-rule="evenodd" d="M92.065,164.057c-9.265,0.063-13.406-4.068-16.807-9.021
		c-3.164-4.608-5.966-9.47-8.784-14.304c-0.462-0.793-0.525-2.195-0.121-2.98c0.26-0.505,1.761-0.673,2.622-0.52
		c6.038,1.075,12.118,2.022,18.059,3.509c4.951,1.239,9.065,4.038,11.43,8.822C101.883,156.479,97.176,164.047,92.065,164.057z
		 M73.8,142.696c-0.256,0.307-0.513,0.613-0.768,0.92c3.321,4.569,6.569,9.193,10.018,13.665c0.768,0.996,2.156,1.796,3.4,2.093
		c5.429,1.297,8.585,0.674,8.936-4.258c0.126-1.775-0.967-4.051-2.229-5.438C87.958,143.971,80.509,144.318,73.8,142.696z"/>
	<path fill-rule="evenodd" clip-rule="evenodd" d="M358.753,67.799c-1.141,6.544-1.772,13.232-3.571,19.59
		c-1.69,5.976-6.572,9.099-11.365,8.732c-5.813-0.443-10.186-6.66-8.769-12.308c1.332-5.311,4.897-8.956,8.869-12.333
		c3.304-2.812,6.616-5.614,9.939-8.401c0.551-0.461,1.135-0.96,1.791-1.203c1.564-0.576,2.706-0.313,2.579,1.734
		c-0.083,1.354-0.161,2.708-0.241,4.063C358.241,67.716,358.496,67.757,358.753,67.799z M353.499,69.363
		c-3.666,3.021-7.095,5.625-10.242,8.535c-1.548,1.431-2.806,3.306-3.779,5.194c-1.509,2.923-0.404,6.167,2.368,8.017
		c2.271,1.514,4.54,1.166,6.969-1.309c0.921-0.938,1.606-2.149,2.24-3.322C353.885,81.248,353.092,75.499,353.499,69.363z"/>
	<path fill-rule="evenodd" clip-rule="evenodd" d="M144.149,68.799c0-1.807-0.137-3.627,0.04-5.416
		c0.169-1.723,1.116-2.883,2.901-1.581c6.192,4.515,12.872,8.542,17.364,14.948c1.544,2.202,2.78,4.967,3.104,7.604
		c0.685,5.571-2.607,9.826-7.972,11.345c-4.333,1.227-8.915-0.935-11.527-5.526c-3.199-5.625-3.218-11.937-3.79-18.12
		c-0.1-1.075-0.014-2.168-0.014-3.253C144.22,68.799,144.185,68.799,144.149,68.799z M149.126,68.194c0,3.441-0.22,6.136,0.05,8.781
		c0.461,4.526,0.469,9.231,3.933,12.901c1.749,1.851,3.992,2.671,6.095,1.694c1.676-0.778,3.332-2.513,4.056-4.221
		c1.276-3.011-0.02-5.969-2.188-8.142C157.363,75.491,153.361,72.067,149.126,68.194z"/>
	<path fill-rule="evenodd" clip-rule="evenodd" d="M411.791,333.113c6.381,0.344,10.534,3.313,13.59,7.422
		c3.533,4.75,6.503,9.941,9.467,15.084c1.505,2.611,0.729,3.824-2.198,3.652c-7.756-0.457-15.464-1.41-22.607-4.727
		c-8.585-3.986-9.933-14.918-2.469-19.914C408.986,333.686,410.862,333.434,411.791,333.113z M428.485,354.828
		c0.183-0.365,0.363-0.732,0.546-1.098c-2.135-3.324-4.088-6.785-6.454-9.936c-2.241-2.982-5.054-5.43-8.909-6.271
		c-3.267-0.715-5.901,0.92-6.698,4.199c-0.965,3.975,1.204,7.982,5.83,9.398C417.926,352.693,423.248,353.621,428.485,354.828z"/>
	<path fill-rule="evenodd" clip-rule="evenodd" d="M240.071,56.296c0.73-2.863,1.181-5.835,2.248-8.566
		c2.099-5.372,4.498-10.629,6.888-15.88c0.354-0.778,1.252-1.536,2.061-1.791c0.439-0.138,1.53,0.668,1.797,1.279
		c2.871,6.591,5.961,13.115,8.32,19.891c1.674,4.803,0.781,9.739-2.693,13.71c-2.867,3.279-6.554,4.804-10.943,3.327
		c-4.345-1.461-6.168-4.998-7.085-9.15c-0.193-0.871-0.118-1.799-0.166-2.702C240.356,56.375,240.213,56.335,240.071,56.296z
		 M252.28,38.991c-0.495-0.004-0.992-0.009-1.487-0.013c-1.796,4.564-3.834,9.053-5.279,13.725c-0.656,2.124-0.381,4.642-0.09,6.925
		c0.355,2.772,2.575,4.573,5.35,4.903c2.539,0.302,5.166-0.975,6.038-3.565c0.694-2.06,1.326-4.558,0.788-6.535
		C256.174,49.189,254.098,44.125,252.28,38.991z"/>
	<path fill-rule="evenodd" clip-rule="evenodd" d="M313.899,376.643c-2.042-0.328-4.148-0.439-6.116-1.021
		c-7.454-2.205-14.692-0.768-21.923,1.057c-2.361,0.598-4.71,1.256-7.031,1.994c-5.327,1.691-9.99,4.371-14.128,8.281
		c-5.771,5.455-12.746,7.455-20.494,4.826c-1.974-0.668-3.96-2.006-5.354-3.561c-6.552-7.303-15.273-9.938-24.376-11.986
		c-7.601-1.709-15.035-2.045-22.781-0.244c-8.677,2.018-16.858-2.922-18.896-11.814c-2.492-10.875-9.418-18.283-17.046-25.451
		c-1.714-1.611-3.487-3.16-5.245-4.725c-3.387-3.012-7.287-4.857-11.778-5.721c-10.182-1.957-16.438-10.934-14.202-21.111
		c3.037-13.828-1.147-26.264-6.663-38.465c-1.148-2.539-3.625-4.471-5.458-6.707c-7.001-8.543-8.079-15.236-2.191-24.146
		c1.93-2.92,5.022-5.121,6.716-8.138c6.501-11.579,10.343-23.76,7.615-37.343c-1.218-6.064-1.111-12.284,3.313-17.227
		c2.036-2.274,4.775-4.742,7.582-5.358c11.007-2.416,18.592-9.595,26.143-17.112c5.413-5.387,8.894-11.692,10.873-19.046
		c2.69-9.998,10.597-14.982,20.706-12.522c13.131,3.195,25.093-0.338,36.771-5.519c3.268-1.449,5.93-4.353,8.728-6.755
		c7.141-6.127,15.701-6.835,23.201-1.7c1.252,0.858,2.393,1.951,3.377,3.111c3.15,3.717,7.222,6.049,11.733,7.477
		c5.327,1.684,10.771,3.014,16.193,4.376c5.092,1.279,10.043-0.052,15.014-1.025c10.765-2.107,18.693,2.327,21.668,12.898
		c2.376,8.445,7.028,15.208,13.256,21.029c3.824,3.574,7.815,7.022,12.057,10.076c2.346,1.689,5.282,3.196,8.087,3.487
		c8.892,0.921,16.45,10.547,14.603,21.052c-2.137,12.143,0.055,23.612,4.641,34.704c1.364,3.301,3.876,6.295,6.394,8.919
		c6.862,7.153,8.921,16.895,4.528,24.281c-1.231,2.068-2.896,3.926-4.579,5.674c-5.618,5.834-7.687,13.332-10.19,20.707
		c-2.662,7.836-2.29,15.57-0.732,23.525c1.533,7.822-1.981,17.363-11.197,19.779c-10.692,2.803-18.211,9.926-25.801,17.229
		c-5.526,5.318-8.964,11.506-10.723,19.02C328.249,371.736,322.07,376.221,313.899,376.643z M373.838,187.128
		c0.066-0.004,0.134-0.008,0.202-0.011c-0.15-1.339-0.217-2.693-0.465-4.014c-1.188-6.319-6.008-8.746-11.446-10.157
		c-4.758-1.234-8.936-3.397-12.667-6.497c-2.299-1.908-4.61-3.818-6.745-5.901c-5.36-5.233-11.158-10.153-14.05-17.369
		c-1.069-2.671-1.88-5.446-2.815-8.171c-2.697-7.852-9.671-11.587-17.818-9.804c-3.164,0.692-6.436,1.089-9.672,1.201
		c-7.164,0.248-13.867-2.136-20.659-4.001c-6.007-1.65-11.053-4.722-15.304-9.288c-5.32-5.713-11.303-6.827-18.124-3.058
		c-2.696,1.49-4.833,3.99-7.226,6.03c-4.678,3.991-10.367,5.819-16.127,7.423c-8.917,2.484-17.818,4.729-27.211,2.062
		c-2.57-0.729-5.621-0.694-8.249-0.104c-6.057,1.359-8.713,6.241-9.991,11.711c-1.474,6.306-4.685,11.513-8.904,16.202
		c-2.298,2.553-4.736,5.001-7.276,7.314c-6.096,5.55-12.254,10.806-20.81,12.601c-6.867,1.441-10.501,7.08-10.079,14.099
		c0.167,2.782,1.019,5.531,1.103,8.31c0.471,15.489-3.138,29.725-13.611,41.618c-6.513,7.396-6.925,14.954-0.264,21.663
		c4.489,4.521,7.293,9.762,9.297,15.672c3.4,10.031,6.005,20.107,4.046,30.848c-0.45,2.463-0.88,5.154-0.356,7.527
		c1.278,5.799,4.755,9.748,10.887,11.082c8.869,1.928,15.483,7.533,21.689,13.736c4.337,4.336,9.17,8.295,11.505,14.211
		c1.388,3.516,2.47,7.15,3.724,10.721c2.111,6.014,8.361,10.471,14.542,9.23c5.82-1.168,11.627-2.514,17.683-1.32
		c11.565,2.277,22.931,4.508,31.862,13.469c6.733,6.754,14.372,6.186,21.44-0.305c1.797-1.65,3.487-3.648,5.617-4.664
		c12.924-6.164,26.005-11.139,40.908-7.572c8.31,1.99,16.015-0.332,18.29-11.09c1.483-7.01,5.206-12.854,10.17-17.922
		c2.595-2.65,5.261-5.236,7.977-7.762c5.843-5.438,12.436-9.441,20.294-11.477c2.4-0.621,4.834-2.506,6.434-4.477
		c2.11-2.602,2.851-6.008,2.463-9.467c-0.382-3.412-1.258-6.818-1.217-10.219c0.186-15.113,3.387-29.186,14.635-40.363
		c3.24-3.221,4.513-7.293,3.884-11.913c-0.581-4.267-3.124-7.372-5.767-10.53c-2.253-2.693-4.65-5.454-6.105-8.592
		c-3.785-8.165-6.098-16.866-6.649-25.843C372.58,197.06,373.479,192.077,373.838,187.128z"/>
	<path fill-rule="evenodd" clip-rule="evenodd" d="M250.621,371.982c-66.589,0.631-125.653-58.715-123.236-126.844
		c2.431-68.479,60.577-118.684,119.928-120.452c71.362-2.127,129.926,59.575,127.234,128.858
		C372.066,317.457,317.02,372.877,250.621,371.982z M370.142,247.431c1.173-58.556-50.728-119.278-120.063-118.612
		c-62.643,0.602-119.264,54.276-118.512,121.419c0.68,60.754,53.567,117.233,118.198,117.874
		C315.896,368.768,372.715,312.088,370.142,247.431z"/>
	<path fill-rule="evenodd" clip-rule="evenodd" d="M278.336,176.875c1.353-3.455,2.466-6.292,3.572-9.132
		c0.197-0.505,0.21-1.227,0.571-1.494c0.825-0.612,1.813-1.005,2.733-1.486c0.268,0.936,0.951,1.99,0.727,2.789
		c-0.986,3.526-2.235,6.979-3.56,10.974c2.65-1.032,4.851-2.008,7.134-2.713c0.77-0.238,1.751,0.21,2.637,0.346
		c-0.254,0.93-0.212,2.246-0.82,2.709c-1.335,1.017-2.924,1.899-4.542,2.306c-4.186,1.052-6.955,3.327-8.539,7.463
		c-2.993,7.815-6.307,15.509-9.758,23.915c2.856-1.476,5.049-2.813,7.402-3.734c1.123-0.441,3.379-0.565,3.696-0.013
		c1.055,1.832-0.567,2.917-2.029,3.744c-2.52,1.428-5.033,2.874-7.62,4.17c-2.678,1.341-4.36,3.441-5.313,6.211
		c-0.117,0.343-0.171,0.717-0.343,1.028c-2.277,4.099-3.364,7.917,1.543,11.148c1.352,0.89,2.119,2.665,3.053,3.9
		c8.813-1.176,13.698-7.112,17.335-14.525c0.478-0.973,0.856-2.103,1.615-2.796c0.734-0.67,1.897-0.872,2.874-1.279
		c0.187,1.134,0.886,2.527,0.468,3.353c-1.345,2.647-3.101,5.085-4.7,7.603c-0.191,0.3-0.395,0.592-0.897,1.342
		c1.057-0.289,1.691-0.403,2.28-0.635c8.401-3.314,16.785-6.673,25.201-9.95c2.312-0.9,4.039-2.267,5.018-4.597
		c1.052-2.498,2.079-5.028,3.418-7.372c0.413-0.724,1.811-0.885,2.757-1.304c0.249,1.012,0.94,2.173,0.661,3.007
		c-0.712,2.12-1.859,4.094-3.053,6.589c2.973-1.125,5.585-2.116,8.199-3.103c0.931-0.35,1.869-0.978,2.794-0.962
		c1.08,0.021,2.149,0.608,3.224,0.948c-0.609,0.933-1.007,2.293-1.866,2.717c-2.577,1.271-5.34,2.166-8.021,3.229
		c-0.722,0.285-1.413,0.646-2.48,1.141c2.32,0.813,4.353,1.275,6.1,2.249c0.806,0.45,1.054,1.899,1.555,2.896
		c-1.009,0.325-2.121,1.099-3.003,0.891c-2.541-0.599-4.954-1.719-7.482-2.389c-1.53-0.405-3.379-0.908-4.744-0.419
		c-9.118,3.264-18.145,6.783-27.201,10.219c0.042,0.22,0.084,0.441,0.127,0.662c2.743,0.788,5.529,1.459,8.209,2.425
		c0.911,0.328,1.556,1.398,2.322,2.129c-1.189,0.57-2.513,1.8-3.544,1.59c-3.528-0.719-6.903-2.217-10.438-2.875
		c-2.166-0.403-4.61-0.167-6.762,0.409c-2.852,0.762-5.539,2.138-8.146,3.189c0,3.612,0,7.016,0,10.608
		c6.756,4.109,14.125,5.488,22.013,2.248c0.999-0.41,2.076-0.941,3.097-0.898c1.178,0.047,2.331,0.668,3.496,1.041
		c-0.741,0.943-1.292,2.313-2.26,2.746c-2.368,1.057-4.93,1.682-7.689,2.568c8.427,3.402,16.593,6.775,24.821,9.99
		c4.56,1.781,8.874,0.195,13.149-1.402c1.649-0.617,3.909-1.758,4.709,0.557c0.914,2.643-1.805,2.754-3.515,3.326
		c-1.626,0.543-3.27,1.031-5.425,1.707c3.579,1.287,6.68,2.4,9.779,3.516c0.593,0.213,1.448,0.26,1.727,0.684
		c0.618,0.939,0.949,2.07,1.396,3.123c-1.017,0.219-2.17,0.861-3.025,0.584c-3.344-1.088-6.594-2.467-10.405-3.941
		c0.866,2.139,1.808,3.863,2.22,5.705c0.245,1.096-0.339,2.379-0.55,3.578c-1.036-0.654-2.792-1.135-2.995-1.988
		c-1.796-7.5-6.771-11.377-13.82-13.715c-6.832-2.268-13.413-5.283-20.889-8.285c1.625,3.146,2.887,5.563,4.122,7.99
		c0.363,0.719,0.95,1.494,0.9,2.207c-0.054,0.762-0.58,1.721-1.205,2.127c-0.385,0.25-1.594-0.166-1.986-0.648
		c-1.082-1.322-2.235-2.721-2.813-4.291c-2.94-7.996-9.192-11.982-15.071-13.766c-2.93,3.201-5.285,5.775-7.64,8.35
		c-0.58-0.465-1.158-0.928-1.738-1.393c1.63,3.594,2.789,7.52,5.04,10.666c1.732,2.422,4.784,3.938,7.35,5.711
		c1.627,1.127,3.595,1.797,5.099,3.047c0.726,0.604,1.33,2.426,0.945,3.076c-0.808,1.359-2.167,1.375-3.655,0.23
		c-2.186-1.678-4.628-3.021-7.466-4.068c3.301,8.434,6.526,16.896,9.943,25.281c1.33,3.262,3.721,5.379,7.487,5.93
		c1.788,0.264,3.586,1.242,5.091,2.305c0.72,0.508,0.766,1.969,1.117,2.998c-1.137,0.176-2.409,0.764-3.382,0.441
		c-2.188-0.723-4.229-1.895-7.029-3.215c1.403,3.75,2.614,6.799,3.672,9.896c0.496,1.451,1.696,3.504-0.386,4.279
		c-2.367,0.883-2.864-1.49-3.466-3.16c-0.964-2.686-1.873-5.391-2.984-8.607c-0.88,2.494-1.303,4.496-2.286,6.172
		c-0.541,0.92-2.024,1.289-3.084,1.906c-0.182-1.129-0.881-2.518-0.465-3.35c3.386-6.76,2.931-13.141-0.435-19.904
		c-3.124-6.279-5.305-13.029-8.1-20.074c-0.894,3.125-1.665,5.84-2.45,8.549c-0.433,1.5-1.226,3.021-2.939,2.27
		c-0.692-0.305-0.94-2.184-0.939-3.348c0.002-1.131,0.457-2.313,0.926-3.379c3.383-7.67,2.098-14.998-1.343-21.604
		c-4.214,0-8.255,0-12.203,0c-4.104,7.162-4.461,14.721-1.482,22.51c0.414,1.08,0.805,2.309,0.686,3.412
		c-0.107,1.002-0.924,1.928-1.429,2.887c-0.747-0.748-1.848-1.367-2.172-2.268c-1.006-2.795-1.717-5.693-2.748-9.266
		c-1.855,4.324-3.526,8.068-5.073,11.863c-1.603,3.932-2.873,8.012-4.674,11.846c-1.824,3.881-1.521,7.479,0.229,11.191
		c0.692,1.469,1.452,2.98,1.701,4.551c0.144,0.902-0.673,1.957-1.056,2.943c-0.907-0.529-2.17-0.844-2.644-1.633
		c-0.942-1.572-1.452-3.404-2.349-5.654c-1.59,3.469-2.955,6.379-4.257,9.318c-0.573,1.291-1.094,2.734-2.873,2.039
		c-1.842-0.721-1.501-2.111-0.814-3.596c1.394-3.01,2.679-6.07,4.354-9.896c-3.039,1.186-5.212,2.158-7.472,2.848
		c-0.761,0.232-1.739-0.252-2.619-0.408c0.231-0.951,0.158-2.254,0.762-2.773c0.966-0.83,2.333-1.393,3.612-1.629
		c5.049-0.934,7.993-3.846,9.726-8.68c2.374-6.623,5.279-13.053,7.941-19.572c0.431-1.057,0.789-2.145,1.374-3.744
		c-2.944,1.555-5.311,2.967-7.821,4.035c-0.771,0.328-1.944-0.283-2.932-0.465c0.294-0.99,0.28-2.484,0.936-2.887
		c2.915-1.791,6.108-3.131,9.024-4.922c1.467-0.9,2.957-2.211,3.729-3.703c1.692-3.266,2.934-6.768,4.097-9.545
		c-2.991-2.58-5.695-4.914-9.127-7.875c-4.939,1.832-11.543,4.449-14.272,12.109c-0.54,1.514-1.34,3.025-2.372,4.238
		c-0.72,0.848-2.041,1.182-3.093,1.746c-0.12-1.117-0.697-2.461-0.277-3.313c1.544-3.131,3.417-6.096,5.201-9.184
		c-1.966,0.762-4.134,1.58-6.286,2.441c-7.21,2.883-14.383,5.867-21.636,8.641c-3.991,1.525-5.099,5.098-6.639,8.43
		c-0.567,1.227-0.846,2.662-1.665,3.672c-0.526,0.646-1.798,0.689-2.735,1.002c-0.251-0.879-0.898-1.877-0.677-2.615
		c0.611-2.037,1.586-3.967,2.654-6.504c-3.531,1.33-6.503,2.477-9.499,3.557c-0.744,0.268-1.64,0.584-2.331,0.391
		c-0.626-0.172-1.593-1.164-1.487-1.523c0.263-0.885,0.885-2.002,1.662-2.34c3.299-1.43,6.705-2.613,10.631-4.096
		c-2.465-0.91-4.512-1.453-6.333-2.42c-0.912-0.486-1.413-1.746-2.1-2.654c1.153-0.385,2.306-0.771,3.462-1.146
		c0.071-0.023,0.18,0.029,0.258,0.07c7.943,4.301,15.452,2.273,23.03-1.273c5.131-2.4,10.515-4.262,16.207-6.533
		c-2.778-0.781-5.144-1.359-7.446-2.125c-1.391-0.465-3.368-0.861-2.689-2.975c0.643-2,2.402-1.816,4.104-1.322
		c3.119,0.904,6.244,1.789,9.381,2.627c2.787,0.742,5.453,0.688,8.138-0.725c2.301-1.211,4.83-1.992,7.083-2.893
		c0-3.56,0-6.945,0-10.63c-3.332-1.347-6.812-3.163-10.514-4.092c-2.116-0.532-4.64,0.184-6.899,0.694
		c-2.728,0.616-5.334,1.787-8.07,2.341c-1.025,0.208-2.264-0.64-3.405-1.007c0.731-0.993,1.26-2.493,2.232-2.881
		c2.499-0.993,5.194-1.493,8.484-2.369c-1.104-0.443-1.672-0.678-2.246-0.901c-8.078-3.136-16.168-6.243-24.229-9.424
		c-2.685-1.06-5.225-1.03-7.874,0.157c-1.884,0.844-3.87,1.6-5.888,1.943c-0.939,0.161-2.063-0.748-3.102-1.171
		c0.583-0.898,0.967-2.132,1.792-2.62c1.524-0.904,3.307-1.371,5.62-2.266c-2.959-1.209-5.376-2.2-7.797-3.182
		c-0.587-0.238-1.379-0.277-1.742-0.698c-0.727-0.84-1.221-1.88-1.812-2.838c1.027-0.268,2.191-0.987,3.058-0.724
		c3.28,0.99,6.462,2.3,9.987,3.604c-0.261-0.727-0.43-1.34-0.695-1.909c-0.686-1.473-1.763-2.87-2.01-4.406
		c-0.189-1.174,0.651-2.516,1.033-3.783c0.979,0.605,2.282,0.995,2.865,1.865c0.934,1.397,1.578,3.063,2.014,4.704
		c1.138,4.274,3.958,6.5,8.032,7.97c8.228,2.965,16.313,6.328,24.972,9.729c-1.325-2.233-2.459-4.088-3.535-5.979
		c-0.49-0.861-1.127-1.763-1.222-2.694c-0.11-1.071,0.305-2.196,0.492-3.297c1.042,0.432,2.422,0.586,3.052,1.355
		c1.122,1.372,1.988,3.041,2.615,4.715c2.872,7.671,9.372,10.56,16.206,12.773c2.51-2.683,4.891-5.227,7.516-8.034
		c-2.422-4.09-2.522-9.891-7.28-13.081c-2.543-1.706-5.332-3.047-8.01-4.556c-0.707-0.399-1.689-0.638-2.05-1.245
		c-0.571-0.959-0.724-2.167-1.054-3.271c1.143-0.132,2.483-0.713,3.389-0.311c2.506,1.109,4.829,2.63,7.94,4.394
		c-2.278-5.656-4.214-10.582-6.247-15.466c-1.597-3.833-3.368-7.593-4.955-11.429c-0.896-2.166-2.334-3.536-4.594-4.214
		c-1.896-0.569-3.854-1.161-5.525-2.171c-1.031-0.624-2.379-2.24-2.181-3.082c0.495-2.115,2.398-1.35,3.795-0.804
		c1.924,0.75,3.769,1.703,6.342,2.89c-1.324-3.056-2.422-5.524-3.461-8.014c-0.483-1.157-1.145-2.351-1.179-3.542
		c-0.025-0.872,0.84-1.771,1.309-2.657c0.812,0.515,2.013,0.844,2.367,1.579c1.596,3.32,2.952,6.756,4.642,10.732
		c0.799-2.051,1.507-3.636,2.031-5.28c0.484-1.524,1.164-2.959,2.965-2.282c1.813,0.682,1.24,2.305,0.766,3.719
		c-0.747,2.225-1.384,4.49-2.212,6.683c-1.053,2.783-0.893,5.421,0.286,8.144c2.975,6.876,5.847,13.798,8.751,20.704
		c0.342,0.813,0.635,1.648,1.224,3.186c0.734-2.859,1.315-5.111,1.892-7.364c0.178-0.698,0.128-1.596,0.556-2.054
		c0.646-0.691,1.624-1.463,2.45-1.452c0.522,0.008,1.533,1.45,1.443,2.132c-0.352,2.668-0.779,5.389-1.687,7.907
		c-1.76,4.881-1.621,9.525,0.664,14.17c0.708,1.439,1.198,2.986,1.617,4.048c4.259,0,8.249,0,12.656,0
		c2.02-4.813,4.209-10.091,2.395-16.091c-0.836-2.761-1.438-5.591-2.233-8.366c-0.452-1.582-0.864-3.23,1.167-3.788
		c1.948-0.535,2.731,1.023,3.14,2.592c0.69,2.645,1.269,5.319,2.561,8.061c3.555-9.058,7.206-18.08,10.563-27.209
		c0.521-1.414-0.133-3.366-0.548-4.993c-0.513-2.008-1.275-3.961-2.056-5.887c-0.595-1.463-0.661-2.923,0.983-3.304
		c0.674-0.156,1.951,1.085,2.521,1.971C276.981,173.241,277.446,174.806,278.336,176.875z M236.222,249.003
		c0.023,8.114,6.869,15.02,14.799,14.928c8.427-0.1,15.814-7.369,15.484-15.979c-0.316-8.228-5.837-14.64-15.504-14.789
		C242.757,233.036,236.197,240.185,236.222,249.003z"/>
	<path fill-rule="evenodd" clip-rule="evenodd" d="M236.023,174.167c-0.073-5.32,1.037-10.431,3.202-15.25
		c2.998-6.675,6.167-13.275,9.401-19.839c0.484-0.982,1.722-2.224,2.594-2.21c0.895,0.014,2.123,1.252,2.594,2.245
		c4.161,8.792,9.422,17.1,11.535,26.796c1.785,8.189,1.686,16-3.585,23.039c-4.746,6.337-14.688,6.718-19.995,0.879
		C237.712,185.361,236.097,180.07,236.023,174.167z M251.356,144.085c-0.31-0.06-0.618-0.12-0.928-0.179
		c-2.903,7.358-6.209,14.59-8.578,22.117c-1.757,5.583-2.384,11.58,0.554,17.183c1.863,3.553,4.208,6.623,8.834,6.459
		c4.513-0.159,8.234-2.631,9.267-7.333c0.931-4.239,1.445-8.796,0.95-13.075C260.388,160.04,255.569,152.14,251.356,144.085z"/>
	<path fill-rule="evenodd" clip-rule="evenodd" d="M325.816,234.428c7.211-0.079,13.889,2.251,20.395,4.888
		c5.584,2.263,10.902,5.188,16.303,7.891c0.638,0.318,1.431,1.058,1.467,1.644c0.033,0.556-0.714,1.369-1.32,1.722
		c-9.243,5.385-18.916,9.793-29.407,12.094c-6.351,1.395-12.733,1.465-18.831-1.313c-4.073-1.855-6.94-4.936-8.128-9.266
		c-1.623-5.92,1.595-12.366,7.819-14.998c3.664-1.549,7.69-2.242,11.555-3.321C325.717,233.989,325.767,234.208,325.816,234.428z
		 M356.104,249.099c-1.285-0.729-2.235-1.393-3.279-1.84c-4.98-2.134-9.935-4.343-14.994-6.271
		c-6.046-2.302-12.307-2.714-18.665-1.392c-4.808,0.999-8.26,4.69-8.586,9.226c-0.304,4.213,2.455,8.102,7.497,9.26
		c3.612,0.828,7.505,1.092,11.2,0.773C338.914,258.027,347.203,253.219,356.104,249.099z"/>
	<path fill-rule="evenodd" clip-rule="evenodd" d="M176.102,263.369c-8.934-0.025-16.796-3.459-24.594-7.066
		c-3.76-1.74-7.433-3.668-11.161-5.477c-2.289-1.111-2.602-2.532-0.482-3.631c10.709-5.55,21.178-11.888,33.485-13.252
		c7.107-0.789,14.053,0.289,19.124,6.011c7.26,8.19,3.074,18.812-7.07,21.89C182.423,262.75,179.209,262.883,176.102,263.369z
		 M146.805,248.238c-0.076,0.334-0.153,0.668-0.23,1.001c6.379,2.66,12.634,5.693,19.174,7.869
		c6.032,2.006,12.393,2.652,18.683,0.629c4.522-1.453,7.041-4.582,7.214-8.792c0.151-3.675-2.584-7.2-6.692-8.981
		c-4.425-1.917-9.047-1.854-13.576-1.122C162.569,240.264,154.664,244.241,146.805,248.238z"/>
	<path fill-rule="evenodd" clip-rule="evenodd" d="M215.649,199.853c-0.561,5.844-2.38,11.137-8.265,13.509
		c-6.376,2.571-12.057,0.429-16.943-3.989c-6.934-6.271-10.673-14.46-13.435-23.153c-1.336-4.204-2.55-8.467-3.458-12.779
		c-0.826-3.917-0.011-4.64,3.793-3.391c12.087,3.97,23.65,8.974,32.954,18.042C213.572,191.286,215.84,194.985,215.649,199.853z
		 M178.182,175.048c2.784,9.216,5.201,17.718,10.16,25.137c2.445,3.658,5.233,7.125,9.604,8.88c3.524,1.415,6.976,1.866,9.82-0.986
		c2.939-2.947,4.55-6.688,2.847-10.814c-1.036-2.512-2.563-5.01-4.451-6.948C198.625,182.582,188.652,179.174,178.182,175.048z"/>
	<path fill-rule="evenodd" clip-rule="evenodd" d="M236.02,322.008c-0.11-5.598,2.215-10.365,5.337-14.598
		c2.968-4.023,7.486-5.385,12.382-4.459c5.622,1.063,8.88,4.994,10.78,10.088c2.963,7.939,1.411,15.846-1.316,23.354
		c-2.702,7.441-6.346,14.549-9.709,21.742c-1.204,2.574-3.381,2.623-4.645,0.133c-4.697-9.266-9.543-18.49-11.727-28.775
		C236.6,327.031,236.379,324.506,236.02,322.008z M251.037,353.078c4.585-8.336,8.421-16.393,10.124-25.264
		c1.199-6.244,0.628-12.25-3.449-17.486c-3.219-4.133-7.421-4.746-11.566-1.52c-3.732,2.906-5.233,7.123-5.56,11.627
		C239.71,332.533,245.572,342.512,251.037,353.078z"/>
	<path fill-rule="evenodd" clip-rule="evenodd" d="M215.439,296.521c-0.243,4.805-2.072,8.887-5.397,12.379
		c-6.107,6.412-13.419,10.92-21.676,13.973c-3.724,1.377-7.452,2.746-11.207,4.035c-3.104,1.063-4.717-0.051-3.937-3.113
		c3.204-12.576,6.99-24.961,15.951-34.887c1.781-1.975,4.039-3.672,6.37-4.971C204.66,278.861,215.226,285.789,215.439,296.521z
		 M178.502,320.967c0.163,0.234,0.326,0.469,0.489,0.705c3.81-1.488,7.691-2.822,11.415-4.5c6.728-3.031,12.893-6.916,17.636-12.732
		c2.384-2.922,3.893-6.156,3.016-10.006c-1.633-7.166-9.774-10.049-15.531-5.48C185.178,297.172,181.97,309.146,178.502,320.967z"/>
	<path fill-rule="evenodd" clip-rule="evenodd" d="M302.014,214.137c-12.436-0.229-18.757-11.956-13.196-21.511
		c3.784-6.503,9.645-10.813,16.154-14.039c6.688-3.314,13.721-5.939,20.653-8.745c0.962-0.389,2.424-0.447,3.24,0.037
		c0.517,0.307,0.559,1.984,0.314,2.914c-2.931,11.093-5.859,22.212-12.679,31.74C312.549,210.052,307.483,213.839,302.014,214.137z
		 M324.362,175.27c-0.201-0.222-0.4-0.445-0.601-0.668c-7.323,3.638-14.728,7.123-21.939,10.969
		c-4.221,2.251-7.254,5.892-9.548,10.115c-1.815,3.343-1.621,6.65,0.361,9.759c2.053,3.219,5.039,4.804,8.987,4.388
		c3.322-0.351,6.053-1.838,8.277-4.208C317.976,197.022,320.977,186.053,324.362,175.27z"/>
	<path fill-rule="evenodd" clip-rule="evenodd" d="M300.052,282.611c5.413,0.275,9.482,2.418,12.793,6.01
		c6.002,6.51,9.705,14.338,12.461,22.625c1.562,4.695,2.793,9.508,4.051,14.299c0.567,2.162-0.482,3.291-2.572,2.563
		c-12.497-4.359-24.835-9.129-34.474-18.697c-5.921-5.879-7.062-12.775-3.497-19.578
		C291.244,285.189,295.371,283.057,300.052,282.611z M324.625,322.412c-2.796-9.133-5.282-17.92-10.7-25.395
		c-2.245-3.098-5.008-5.961-8.01-8.33c-3.417-2.695-7.768-2.238-11.056,0.359c-3.212,2.537-4.755,6.902-3.03,10.689
		c1.43,3.139,3.167,6.523,5.711,8.693C305.286,315.043,314.535,319.053,324.625,322.412z"/>
	<path fill-rule="evenodd" clip-rule="evenodd" d="M156.468,290.764c4.912-0.537,9.079,0.961,12.562,4.152
		c0.75,0.688,1.369,1.697,1.634,2.674c0.162,0.594-0.274,1.689-0.792,2.035c-0.493,0.332-1.777,0.285-2.139-0.115
		c-3.591-3.973-8.25-4.588-13.257-5.012c-5.069-0.43-8.316-5.111-4.529-10.178c1.136-1.52,2.66-2.867,3.364-4.561
		c0.826-1.984,0.856-4.285,1.419-6.396c0.282-1.061,0.979-2.01,1.488-3.008c0.904,0.732,2.276,1.289,2.629,2.229
		c1.383,3.689-0.343,6.846-2.298,9.84c-0.688,1.055-1.747,1.889-2.308,2.992c-0.614,1.209-1.343,2.73-1.064,3.885
		C153.347,290.01,155.311,290.289,156.468,290.764z"/>
	<path fill-rule="evenodd" clip-rule="evenodd" d="M345.502,290.842c0.724,0,1.446,0.021,2.169-0.004
		c1.862-0.059,2.199-1.051,1.356-2.5c-0.95-1.633-2.088-3.154-3.066-4.771c-1.693-2.801-3.311-5.672-2.582-9.129
		c0.191-0.912,0.695-1.859,1.327-2.537c0.38-0.408,1.419-0.613,1.914-0.381c0.468,0.219,0.952,1.197,0.845,1.725
		c-0.826,4.059,1.256,6.893,3.719,9.674c0.876,0.988,1.579,2.195,2.1,3.416c1.946,4.547-0.744,8.709-5.728,8.797
		c-4.632,0.082-8.913,0.953-12.526,4.148c-0.576,0.51-1.773,0.316-2.683,0.447c-0.125-0.898-0.632-1.992-0.293-2.65
		c0.635-1.232,1.548-2.693,2.719-3.209c3.388-1.494,6.962-2.564,10.463-3.799C345.324,290.326,345.413,290.584,345.502,290.842z"/>
	<path fill-rule="evenodd" clip-rule="evenodd" d="M156.738,206.915c-0.63,0-1.267-0.063-1.888,0.012
		c-1.935,0.229-2.462,1.307-1.396,2.989c1.254,1.979,2.966,3.751,3.819,5.878c0.979,2.438,1.52,5.152,1.649,7.776
		c0.046,0.93-1.61,2.676-2.604,2.764c-1.78,0.157-1.756-1.622-1.595-3.029c0.341-2.961-0.698-5.498-2.377-7.842
		c-1.104-1.542-2.321-3.017-3.288-4.641c-1.727-2.899-0.717-5.801,2.47-6.981c1.58-0.585,3.292-0.917,4.974-1.105
		c3.618-0.404,7.096-0.921,10.053-3.437c0.843-0.716,3.08-1.128,3.629-0.597c1.418,1.371,0.099,2.761-0.991,3.893
		C165.778,206.142,161.212,206.429,156.738,206.915z"/>
	<path fill-rule="evenodd" clip-rule="evenodd" d="M289.973,351.117c-1.334-0.75-3.591-1.83-5.641-3.215
		c-3.048-2.059-5.763-4.668-9.876-4.441c-0.65,0.037-1.972-1.035-1.907-1.414c0.139-0.814,0.84-1.934,1.557-2.162
		c1.122-0.357,2.623-0.471,3.65-0.002c2.994,1.367,5.858,3.033,8.718,4.678c0.842,0.486,1.429,1.398,2.249,1.939
		c1.991,1.311,2.934,0.99,3.43-1.336c0.545-2.555,0.623-5.215,1.271-7.736c0.861-3.34,2.063-6.658,5.59-8.16
		c0.705-0.301,2.121-0.039,2.563,0.496c0.393,0.475,0.219,2.137-0.278,2.51c-4.349,3.26-4.341,8.023-4.65,12.699
		C296.415,348.473,293.974,351.176,289.973,351.117z"/>
	<path fill-rule="evenodd" clip-rule="evenodd" d="M225.53,156.42c-3.889-0.077-6.983-2.017-10.058-4.148
		c-1.313-0.911-2.947-1.356-4.436-2.014c-0.503,1.571-1.065,3.126-1.498,4.716c-0.748,2.744-0.998,5.723-2.259,8.194
		c-0.878,1.721-3.044,2.834-4.76,4.042c-0.367,0.258-1.424-0.081-1.874-0.475c-0.26-0.229-0.066-1.166,0.146-1.693
		c0.225-0.558,0.684-1.039,1.096-1.503c2.18-2.46,3.338-5.262,3.398-8.607c0.03-1.683,0.44-3.416,0.982-5.024
		c1.269-3.761,4.952-5.208,8.441-3.314c1.649,0.896,3.137,2.1,4.666,3.208c2.154,1.561,4.4,2.793,7.201,2.485
		c1.37-0.15,2.951-0.353,3.12,1.583c0.165,1.864-1.203,2.441-2.812,2.547C226.437,156.446,225.981,156.42,225.53,156.42z"/>
	<path fill-rule="evenodd" clip-rule="evenodd" d="M345.011,207.485c-3.218-1.023-6.56-1.781-9.603-3.185
		c-1.441-0.665-2.43-2.488-3.372-3.95c-0.275-0.428,0.11-1.818,0.561-2.047c0.65-0.333,2.044-0.354,2.415,0.086
		c3.549,4.197,8.158,4.563,13.236,4.515c4.881-0.045,7.388,5.169,4.888,9.411c-0.635,1.079-1.464,2.061-2.302,3
		c-2.122,2.382-3.507,4.976-3.172,8.33c0.125,1.255,0.279,3.23-1.681,2.943c-0.977-0.142-2.328-1.771-2.468-2.861
		c-0.468-3.656,1.137-6.833,3.199-9.765c0.26-0.368,0.659-0.654,0.857-1.047c0.778-1.532,1.503-3.091,2.249-4.64
		c-1.47-0.617-2.939-1.235-4.408-1.853C345.277,206.777,345.145,207.131,345.011,207.485z"/>
	<path fill-rule="evenodd" clip-rule="evenodd" d="M211.87,351.248c-3.806-0.537-6.567-3.133-6.587-6.939
		c-0.024-4.576-1.25-8.506-4.667-11.701c-0.499-0.465-0.779-1.852-0.453-2.326c0.364-0.531,1.826-0.957,2.3-0.646
		c1.535,1.004,3.447,2.105,4.102,3.643c1.393,3.277,2.278,6.811,3.009,10.314c0.643,3.078,1.591,3.775,4.334,2.234
		c1.091-0.613,1.932-1.709,3.053-2.221c2.987-1.365,6.023-2.66,9.137-3.691c0.813-0.27,2.082,0.365,2.938,0.91
		c0.422,0.268,0.607,1.324,0.467,1.924c-0.094,0.402-0.98,0.939-1.453,0.887c-4.468-0.494-7.396,2.299-10.613,4.65
		C215.755,349.514,213.736,350.275,211.87,351.248z"/>
	<path fill-rule="evenodd" clip-rule="evenodd" d="M289.432,146.109c3.72,0.001,5.919,1.853,6.622,4.844
		c0.493,2.104,0.413,4.375,1.121,6.384c0.817,2.324,2.093,4.521,3.413,6.62c0.754,1.197,2.467,2.367,0.896,3.546
		c-0.741,0.556-3.089-0.041-3.998-0.881c-2.794-2.582-4.278-5.98-4.67-9.809c-0.101-0.989-0.219-1.978-0.379-2.959
		c-0.694-4.261-1.891-4.627-5.486-2.087c-2.557,1.805-5.241,3.527-8.092,4.773c-1.283,0.561-3.161,0.053-4.67-0.342
		c-0.587-0.154-1.329-1.407-1.225-2.027c0.102-0.596,1.256-1.506,1.864-1.445c3.989,0.407,6.844-1.601,9.748-3.91
		C286.278,147.464,288.415,146.66,289.432,146.109z"/>
	<path fill-rule="evenodd" clip-rule="evenodd" d="M234.832,141.901c-0.008,2.229-1.278,3.408-3.159,3.437
		c-1.667,0.025-3.17-0.758-3.16-2.902c0.01-1.996,0.846-3.304,2.939-3.443C233.563,138.853,234.533,140.122,234.832,141.901z"/>
	<path fill-rule="evenodd" clip-rule="evenodd" d="M231.58,357.262c-2.492,0.035-3.653-0.959-3.636-3.057
		c0.014-1.908,1.029-3.033,2.983-3.023c1.894,0.008,2.986,1.018,3.081,2.951C234.106,356.107,233.042,357.074,231.58,357.262z"/>
	<path fill-rule="evenodd" clip-rule="evenodd" d="M148.266,229.17c-1.091,0.786-2.346,2.356-3.236,2.171
		c-1.256-0.259-2.903-1.662-3.186-2.859c-0.397-1.683,1.365-2.797,2.94-2.575c1.221,0.171,2.305,1.316,3.449,2.028
		C148.244,228.347,148.255,228.759,148.266,229.17z"/>
	<path fill-rule="evenodd" clip-rule="evenodd" d="M274.728,142.439c-1.084,0.838-2.258,2.433-3.228,2.316
		c-1.107-0.133-2.75-1.744-2.817-2.797c-0.058-0.933,1.615-2.594,2.729-2.793c0.949-0.171,2.19,1.279,3.302,2.013
		C274.719,141.598,274.724,142.019,274.728,142.439z"/>
	<path fill-rule="evenodd" clip-rule="evenodd" d="M159.598,309c0.63-0.414,1.874-1.867,2.872-1.715
		c1.093,0.168,1.959,1.818,2.924,2.822c-1.02,0.973-1.956,2.607-3.08,2.748C160.963,313.023,159.333,312.031,159.598,309z"/>
	<path fill-rule="evenodd" clip-rule="evenodd" d="M143.865,271.783c-0.433-0.654-1.592-1.658-1.721-2.781
		c-0.204-1.781,0.957-3.383,2.886-2.994c1.071,0.215,2.483,1.633,2.671,2.699C148.013,270.475,146.783,271.717,143.865,271.783z"/>
	<path fill-rule="evenodd" clip-rule="evenodd" d="M339.172,313.547c-0.846-1.145-2.182-2.199-2.417-3.459
		c-0.309-1.658,0.95-2.799,2.784-2.848c2.1-0.057,3.027,1.324,2.813,3.088c-0.136,1.111-1.206,2.109-1.857,3.16
		C340.054,313.508,339.613,313.527,339.172,313.547z"/>
	<path fill-rule="evenodd" clip-rule="evenodd" d="M190.756,333.857c0.769,1.117,1.934,2.143,2.209,3.369
		c0.352,1.568-0.684,2.826-2.432,2.924c-2.018,0.113-3.173-1.236-3.042-3.004c0.083-1.123,1.265-2.164,1.955-3.242
		C189.883,333.889,190.319,333.875,190.756,333.857z"/>
	<path fill-rule="evenodd" clip-rule="evenodd" d="M274.217,354.633c-1.19,0.803-2.356,2.154-3.583,2.213
		c-0.786,0.037-2.157-1.734-2.383-2.869c-0.333-1.686,0.845-2.855,2.717-2.855C272.822,351.121,273.746,352.129,274.217,354.633z"/>
	<path fill-rule="evenodd" clip-rule="evenodd" d="M193.241,158.84c0.225,3.013-0.992,4.104-2.689,3.741
		c-1.095-0.234-2.501-1.514-2.763-2.573c-0.411-1.661,0.852-3.166,2.617-2.948C191.6,157.207,192.659,158.449,193.241,158.84z"/>
	<path fill-rule="evenodd" clip-rule="evenodd" d="M159.426,187.536c0.192-1.905,1.259-3.142,3-2.698
		c1.135,0.29,1.998,1.651,2.983,2.532c-1.005,0.971-1.878,2.5-3.046,2.776C160.779,190.519,159.48,189.4,159.426,187.536z"/>
	<path fill-rule="evenodd" clip-rule="evenodd" d="M312.276,333.617c0.5,0.734,1.735,1.789,1.92,3.004
		c0.234,1.549-0.826,3.244-2.602,2.959c-1.079-0.174-2.6-1.566-2.752-2.584C308.631,335.557,309.169,333.689,312.276,333.617z"/>
	<path fill-rule="evenodd" clip-rule="evenodd" d="M314.55,159.287c-0.031,2.68-1.063,3.603-2.862,3.662
		c-1.792,0.06-2.623-0.958-2.613-2.68c0.01-1.776,0.916-3.061,2.682-3.095C313.459,157.143,314.543,158.219,314.55,159.287z"/>
	<path fill-rule="evenodd" clip-rule="evenodd" d="M340.236,184.229c0.71,1.111,1.765,2.141,2.052,3.353
		c0.433,1.835-0.988,2.578-2.594,2.644c-1.898,0.077-2.791-1.096-2.847-2.878C336.792,185.554,337.862,184.766,340.236,184.229z"/>
	<path fill-rule="evenodd" clip-rule="evenodd" d="M357.223,231.578c-0.809-1.026-2.059-1.949-2.325-3.101
		c-0.414-1.79,0.98-3.12,2.643-2.766c1.155,0.247,2.552,1.603,2.875,2.737c0.221,0.778-1.221,2.028-1.919,3.066
		C358.072,231.535,357.647,231.557,357.223,231.578z"/>
	<path fill-rule="evenodd" clip-rule="evenodd" d="M357.897,265.883c0.8,1.174,2.015,2.256,2.297,3.543
		c0.379,1.729-1.008,2.619-2.669,2.494c-1.659-0.121-2.959-0.92-2.887-2.857C354.699,267.438,355.4,266.309,357.897,265.883z"/>
	<path fill-rule="evenodd" clip-rule="evenodd" d="M256.312,248.591c-0.049,3.391-2.031,5.344-5.399,5.321
		c-2.767-0.021-5.447-2.693-5.394-5.381c0.054-2.768,2.96-5.523,5.705-5.409C254.287,243.247,256.355,245.472,256.312,248.591z"/>
</g>
</svg>
