<?xml version="1.0" encoding="utf-8"?>
<!-- Generator: Adobe Illustrator 16.0.0, SVG Export Plug-In . SVG Version: 6.00 Build 0)  -->
<!DOCTYPE svg PUBLIC "-//W3C//DTD SVG 1.1//EN" "http://www.w3.org/Graphics/SVG/1.1/DTD/svg11.dtd">
<svg version="1.1" id="Layer_1" xmlns="http://www.w3.org/2000/svg" xmlns:xlink="http://www.w3.org/1999/xlink" x="0px" y="0px"
	 width="500px" height="500px" viewBox="0 0 500 500" enable-background="new 0 0 500 500" xml:space="preserve">
<g>
	<path fill-rule="evenodd" clip-rule="evenodd" d="M88.573,181.628c-2.859-5.271-6.267-10.484-8.637-16.133
		c-5.747-13.696-7.684-28.161-7.748-42.962c-0.065-14.958,2.042-29.564,6.168-43.92c0.771-2.681,2.082-4.302,5.004-4.83
		c25.922-4.687,51.408-4.164,76.083,6.195c8.242,3.46,15.747,8.164,22.368,14.093c0.462-4.482,0.608-8.955,1.438-13.297
		c1.618-8.471,5.257-16.179,9.791-23.476c12.831-20.65,30.457-36.337,50.781-49.287c7.289-4.644,6.798-4.327,14.01,0.338
		c12.753,8.25,24.848,17.321,35.098,28.607c11.684,12.861,21.23,27.023,25.072,44.305c0.924,4.155,0.966,8.507,1.429,12.914
		c7.307-6.188,15.284-11.155,24.188-14.482c18.125-6.772,36.855-9.471,56.159-7.893c5.827,0.476,11.637,1.173,17.457,1.73
		c2.852,0.271,4.735,1.353,5.553,4.445c2.767,10.452,4.893,20.983,5.674,31.795c1.237,17.116,0.349,33.987-5.053,50.419
		c-2.401,7.309-5.712,14.15-10.523,20.207c-0.549,0.69-1.051,1.416-1.612,2.176c4.122,0.27,8.13,0.283,12.062,0.835
		c16.491,2.316,30.384,10.102,42.773,20.854c13.06,11.335,23.378,24.918,32.389,39.595c1.922,3.132,2.015,5.565,0.193,8.87
		c-7.305,13.243-15.855,25.573-26.396,36.402c-12.777,13.127-27.508,23.25-45.76,27.174c-5.025,1.079-10.235,1.311-15.233,1.916
		c-0.117-0.184,0.142,0.307,0.477,0.737c8.597,11.021,12.545,23.896,14.939,37.392c1.63,9.188,1.896,18.46,1.624,27.753
		c-0.379,12.915-2.762,25.531-6.174,37.946c-0.382,1.392-2.242,3.02-3.694,3.362c-5.934,1.396-11.935,2.675-17.982,3.371
		c-10.679,1.229-21.381,1.201-32.071-0.396c-18.044-2.698-34.573-8.814-48.571-20.877c-0.117-0.101-0.323-0.097-0.317-0.095
		c-0.676,4.823-0.96,9.754-2.109,14.473c-2.929,12.02-9.231,22.393-16.799,32.005c-12.975,16.484-29.024,29.469-46.672,40.604
		c-2.252,1.42-4.332,1.383-6.546-0.038c-16.777-10.76-32.324-23.027-45.089-38.419c-9.492-11.446-17.303-23.934-19.617-39.056
		c-0.444-2.905-0.477-5.875-0.712-8.987c-9.253,8.459-20.276,13.753-32.138,17.244c-13.936,4.103-28.224,5.819-42.718,4.168
		c-8.099-0.923-16.12-2.527-24.176-3.827c-2.866-0.463-4.227-2.34-4.965-5.005c-4.671-16.864-7.052-34.005-5.984-51.512
		c0.881-14.458,3.473-28.568,10.143-41.619c1.829-3.577,4.149-6.906,6.306-10.45c-3.231-0.22-6.515-0.271-9.751-0.692
		c-13.113-1.711-24.828-6.988-35.528-14.549c-12.907-9.117-23.086-20.844-31.598-34.058c-3.311-5.142-6.358-10.451-9.561-15.662
		c-1.307-2.126-1.241-3.983,0.029-6.268c9.462-17,20.95-32.366,35.979-44.857c11.91-9.898,25.305-16.705,40.903-18.512
		C82.28,182.008,85.66,181.854,88.573,181.628z M269.235,191.653c0.429-0.964,0.969-2.096,1.441-3.255
		c6.714-16.455,13.105-33.049,20.223-49.327c5.68-12.989,9.242-26.1,8.119-40.463c-1.24-15.871-6.995-29.69-17.458-41.479
		c-7.806-8.792-16.677-16.45-26.729-22.673c-4.409-2.73-5.305-2.948-9.375,0.205c-6.262,4.849-12.67,9.573-18.478,14.932
		c-20.568,18.981-28.208,42.348-22.929,69.9c1.757,9.167,5.71,17.523,9.245,26.052c5.908,14.257,11.656,28.579,17.51,42.858
		c1.552,3.789,1.617,3.769,5.442,2.504c0.467-0.154,0.896-0.42,1.25-0.591c-10.207-27.789-7.863-53.74,10.633-77.711
		c-1.045,0-1.575-0.018-2.104,0.002c-6.062,0.23-11.389-1.387-15.472-6.139c-6.965-8.105-8.121-19.999-2.795-29.745
		c4.817-8.815,11.854-14.579,22.296-14.513c13.305,0.083,22.454,6.912,27.663,18.871c5.784,13.278,4.08,26.241-3.104,38.479
		c-3.269,5.568-7.219,10.75-11.028,15.984c-5.659,7.775-9.392,16.292-10.874,25.828c-1.387,8.922-0.251,17.798,0.233,26.687
		c0.027,0.482,0.965,1.216,1.566,1.318C259.27,190.186,264.053,190.87,269.235,191.653z M232.622,310.168
		c-0.441,1.005-0.974,2.139-1.443,3.299c-5.075,12.548-9.888,25.208-15.281,37.618c-4.98,11.458-9.855,22.907-12.116,35.266
		c-2.904,15.872-1.001,31.047,7.365,45.03c9.137,15.274,22.479,26.331,37.194,35.845c1.187,0.768,3.598,0.55,5.006-0.121
		c2.648-1.263,5.009-3.153,7.441-4.851c11.568-8.07,21.741-17.57,29.009-29.77c11.443-19.21,11.828-39.528,4.407-60.008
		c-5.714-15.767-12.466-31.157-18.813-46.692c-2.128-5.207-4.431-10.344-6.664-15.538c-1.879,0.508-3.495,0.944-5.399,1.461
		c9.351,26.916,8.285,52.472-10.157,76.003c8.85-1.706,16.081,1.461,19.99,8.851c4.455,8.421,4.969,17.099,0.75,25.891
		c-9.181,19.133-34,21.136-46.121,3.696c-6.925-9.964-8.228-20.925-5.487-32.455c2.335-9.824,7.847-18.104,13.827-26.006
		c12.48-16.493,14.596-34.873,10.663-54.295C242.021,312.306,237.49,311.275,232.622,310.168z M111.024,251.646
		c-0.148,2.315-0.048,4.854-0.512,7.284c-2.009,10.534-13.187,16.031-21.257,16.597c-7.564,0.53-14.342-2.189-20.515-6.359
		c-13.061-8.822-15.852-25.497-5.997-37.738c9.765-12.129,22.877-15.458,37.786-13.007c8.55,1.406,15.775,5.634,22.707,10.643
		c5.531,3.998,11.242,7.803,17.16,11.191c8.099,4.636,17.15,6.485,26.344,7.041c7.503,0.454,15.055,0.093,22.531,0.093
		c0.444-3.478,0.795-6.22,1.148-8.988c-3.73-1.694-7.403-3.365-11.08-5.031c-14.715-6.667-29.576-13.033-44.106-20.081
		c-15.338-7.439-31.058-12.219-48.328-10.323c-9.146,1.004-17.849,3.401-25.65,8.322c-13.95,8.801-24.388,20.915-32.434,35.204
		c-0.944,1.676-0.818,3.11,0.054,4.808c6.115,11.895,14.601,21.816,25.002,30.122c8.277,6.61,17.625,11.232,28.055,13.046
		c15.983,2.778,31.485,0.875,46.353-5.891c19.469-8.86,39.794-15.441,60.021-22.278c1.503-0.509,3.377-0.815,1.991-2.971
		C162.003,270.951,135.265,269.065,111.024,251.646z M309.994,238.489c0.263,0.239,0.526,0.478,0.791,0.716
		c26.274-9.503,51.688-9.184,75.804,6.541c0.021-0.198,0.093-0.456,0.065-0.702c-1.346-12.015,8.928-21.686,19.993-23.612
		c9.828-1.711,18.48,1.145,26.235,7.102c12.227,9.391,14.522,26.389,4.953,38.386c-6.838,8.573-16.27,12.616-26.966,13.476
		c-12.004,0.965-22.858-2.766-32.94-9.108c-5.928-3.729-11.77-7.655-17.971-10.877c-8.643-4.492-18.118-6.444-27.787-6.9
		c-6.706-0.316-13.447,0.123-20.139,0.225c-0.303,2.723-0.194,4.98-0.86,6.979c-1.056,3.164,0.54,4,3.055,4.873
		c19.61,6.801,38.661,14.971,57.327,24.019c9.719,4.711,20.028,6.97,30.646,7.546c11.769,0.639,23.027-1.834,33.457-7.567
		c15.629-8.591,26.701-21.632,36.15-36.408c2.402-3.757,1.76-6.479-0.487-9.711c-5.735-8.252-12.247-15.769-19.741-22.494
		c-13.167-11.814-28.519-17.984-46.175-17.911c-11.824,0.05-23.06,3.018-33.792,8.066c-8.525,4.011-17.172,7.773-25.847,11.45
		c-11.16,4.729-22.411,9.241-33.592,13.921C311.319,236.854,310.715,237.811,309.994,238.489z M214.694,300.883
		c-6.185,11.66-13.457,22.357-23.681,30.636c-10.194,8.253-21.447,14.562-34.574,16.867c1.184,1.38,2.402,2.487,3.244,3.829
		c4.063,6.479,3.696,13.307,0.577,19.863c-4.981,10.47-13.671,15.919-25.136,16.816c-9.937,0.779-19.3-4.048-23.512-12.578
		c-4.959-10.048-3.465-20.04,1.208-29.621c6.93-14.208,18.931-21.157,34.264-23.555c8.033-1.257,16.179-2.865,23.765-5.684
		c13.834-5.143,22.925-16.392,32.237-27.063c-2.055-3.033-3.956-5.837-5.793-8.548c-9.353,3.541-18.647,7.142-27.999,10.584
		c-14.931,5.495-29.787,11.14-43.576,19.226c-14.131,8.286-24.665,19.605-29.189,35.635c-5.107,18.101-4.17,36.315-0.109,54.486
		c0.388,1.734,1.475,2.521,3.205,2.75c5.522,0.735,11.02,1.669,16.553,2.302c15.892,1.82,30.83-1.098,44.581-9.415
		c14.249-8.619,23.903-21.096,30.291-36.302c5.285-12.578,10.518-25.18,16.001-37.671c3.096-7.051,6.651-13.9,10.049-20.941
		C216.341,301.99,215.611,301.5,214.694,300.883z M351.124,344.068c6.822-10.326,19.771-9.973,27.243-3.818
		c8.309,6.844,12.222,15.567,10.524,26.478c-1.923,12.352-11.087,20.428-23.597,20.456c-12.631,0.029-22.111-6.121-29.569-15.805
		c-6.046-7.85-8.438-17.186-10.251-26.677c-2.283-11.964-6.257-23.177-15.019-31.979c-5.701-5.729-11.946-10.915-17.974-16.367
		c-3.048,2.328-5.654,4.322-8.065,6.164c2.907,5.752,5.975,11.159,8.441,16.828c5.795,13.323,11.136,26.844,16.974,40.148
		c6.736,15.356,16.646,28.261,31.228,36.953c18.902,11.268,39.38,12.503,60.494,8.542c0.754-0.143,1.731-1.259,1.892-2.064
		c2.056-10.319,3.942-20.652,3.868-31.258c-0.187-26.388-11.284-46.677-34.456-59.377c-14.468-7.928-29.673-14.523-44.648-21.502
		c-7.711-3.594-15.641-6.717-23.574-10.096c-0.673,1.053-1.27,1.985-1.979,3.093C327.781,296.652,347.595,313.577,351.124,344.068z
		 M344.778,152.871c-5.357-3.563-7.279-10.506-5.596-17.329c3.024-12.259,15.828-22.179,28.566-22.438
		c15.039-0.307,27.673,11.833,24.596,29.51c-2.494,14.335-11.304,24.423-24.436,30.132c-6.24,2.712-13.204,3.972-19.965,5.218
		c-8.829,1.626-17.466,3.673-24.974,8.746c-9.921,6.703-17.866,15.563-25.825,24.294c2.217,3.21,4.298,6.225,6.186,8.959
		c14.849-6.113,29.659-12.104,44.38-18.306c12.448-5.243,24.604-11.033,35.341-19.452c16.185-12.691,23.76-29.65,24.646-49.784
		c0.521-11.834-1.451-23.471-4.132-34.987c-0.353-1.514-0.956-2.065-2.43-2.288c-10.022-1.519-20-2.038-30.134-0.604
		c-28.382,4.017-47.932,19.509-59.574,45.325c-6.893,15.283-13.342,30.765-20.199,46.063c-2.108,4.705-4.907,9.101-7.407,13.669
		c0.508,0.349,0.87,0.61,1.245,0.852c0.355,0.23,0.725,0.44,1.301,0.786C298.729,176.476,317.004,159.009,344.778,152.871z
		 M198.769,218.296c-12.192-6.918-23.815-14.198-32.342-25.305c-8.405-10.947-14.373-23.028-16.317-36.874
		c-4.299,6.184-10.078,8.732-17.496,7.44c-8.332-1.451-13.748-6.679-17.58-13.792c-7.349-13.641-1.607-27.044,7.132-32.945
		c7.079-4.781,14.988-4.852,22.813-2.267c16.148,5.335,25.231,17.12,29.287,33.2c1.493,5.918,2.573,11.949,4.259,17.808
		c2.769,9.616,8.219,17.776,15.048,24.938c4.996,5.237,10.45,10.037,15.628,14.963c2.969-2.517,5.347-4.533,7.205-6.108
		c-3.641-7.649-7.315-14.94-10.618-22.396c-6.576-14.848-11.899-30.264-20.051-44.395c-7.69-13.331-17.854-24.23-31.934-30.897
		c-16.922-8.011-34.722-10.151-53.132-6.91c-1.05,0.185-2.364,1.658-2.683,2.781c-3.583,12.566-5.31,25.316-3.979,38.438
		c1.505,14.839,6.832,27.833,17.399,38.537c7.575,7.673,16.729,13.099,26.171,17.975c12.524,6.469,25.287,12.476,37.934,18.706
		c6.994,3.446,13.961,6.944,21.167,10.531C197.377,220.58,197.97,219.607,198.769,218.296z M220.148,304.709
		c-0.347,0.604-0.704,1.117-0.953,1.678c-7.56,17.068-15.206,34.098-22.626,51.228c-5.253,12.127-11.181,23.753-20.974,32.98
		c-13.872,13.07-30.324,20.029-49.332,20.89c-9.967,0.449-19.75-1.035-29.455-3.189c-2.177-0.482-3.358-1.542-3.867-3.817
		c-3.626-16.227-4.874-32.482-2.147-49.037c2.733-16.599,10.323-30.115,23.592-40.479c9.45-7.382,20.075-12.667,31.08-17.134
		c13.973-5.671,28.135-10.874,42.211-16.289c2.63-1.011,5.241-2.067,7.849-3.098c-1.323-3.383-2.491-6.369-3.676-9.397
		c-0.424,0.089-0.786,0.123-1.118,0.24c-12.518,4.418-25.087,8.698-37.534,13.309c-12.804,4.742-25.455,9.88-37.308,16.764
		c-10.75,6.241-20.119,14.061-26.844,24.614c-9.022,14.157-11.911,30.097-12.793,46.536c-0.77,14.341,1.487,28.314,4.74,42.234
		c1.267,5.422,3.191,8.439,9.337,9.63c17.404,3.375,34.773,4.172,52.029,0.343c27.993-6.211,47.608-23.21,59.828-48.886
		c3.585-7.534,6.647-15.321,9.82-23.045c5.756-14.016,11.417-28.072,17.123-42.125C225.951,307.26,223.097,306.005,220.148,304.709z
		 M228.38,193.317c-2.89-6.961-5.699-13.844-8.6-20.689c-6.442-15.198-12.686-30.486-19.468-45.53
		c-6.487-14.392-16.388-26.186-29.299-35.338c-15.095-10.699-32.283-14.878-50.441-15.96c-11.584-0.689-23.001,0.768-34.386,2.632
		c-1.772,0.291-2.98,1.114-3.584,3.109c-3.243,10.702-5.332,21.568-6.08,32.756c-1.079,16.135,0.932,31.81,6.339,47.002
		c5.389,15.14,15.747,26.408,29.23,34.584c10.502,6.369,21.437,12.104,32.509,17.436c15.368,7.4,31.044,14.16,46.761,21.271
		c1.244-3.25,2.38-6.217,3.575-9.338c-10.408-5.163-20.748-10.157-30.963-15.394c-13.752-7.052-27.649-13.872-41.044-21.559
		c-15.183-8.713-25.652-21.632-30.317-38.734c-4.826-17.686-3.175-35.285,1.051-52.856c1.002-4.166,3.321-5.842,7.283-6.455
		c10.983-1.699,21.906-1.413,32.808,0.556c15.306,2.763,28.936,8.896,40.18,19.905c10.434,10.215,17.186,22.789,23.006,35.917
		c5.056,11.405,9.668,23.006,14.704,34.419c2.44,5.53,5.403,10.829,8.104,16.184C223.018,195.753,225.69,194.539,228.38,193.317z
		 M305.258,223.559c1.167,2.85,2.311,5.289,3.157,7.827c0.664,1.99,1.536,2.21,3.384,1.362c4.975-2.283,10.012-4.44,15.077-6.515
		c15.781-6.463,31.771-12.434,46.831-20.559c9.044-4.879,17.908-9.993,25.701-16.774c15.879-13.815,22.9-31.9,24.49-52.287
		c0.718-9.213,0.779-18.589-0.063-27.782c-0.822-8.985-3.162-17.833-4.861-26.736c-0.417-2.189-1.771-3.306-4.009-3.732
		c-17.716-3.375-35.434-3.386-53.058,0.363c-14.706,3.128-28.219,8.964-39.7,18.981c-11.336,9.89-18.646,22.627-24.802,35.985
		c-6.045,13.114-11.272,26.606-16.802,39.956c-2.703,6.531-5.275,13.118-7.932,19.742c2.8,1.443,5.414,2.79,8.463,4.361
		c4.499-9.048,9.24-17.918,13.373-27.061c5.474-12.106,9.971-24.67,15.78-36.603c12.228-25.115,32.467-39.734,60.182-43.761
		c10.323-1.5,20.644-0.943,30.92,0.615c4.755,0.72,4.966,0.963,6.087,5.747c3.496,14.9,5.391,29.91,3.08,45.206
		c-2.976,19.684-12.884,34.915-29.2,46.253c-11.771,8.178-24.85,13.639-37.914,19.19
		C330.726,212.742,318.007,218.144,305.258,223.559z M272.392,308.872c1.085,2.51,2.192,4.949,3.204,7.429
		c6.343,15.533,12.577,31.11,19.018,46.604c4.957,11.922,11.09,23.209,19.729,32.922c17.454,19.623,39.944,28.119,65.646,29.241
		c11.313,0.494,22.465-0.896,33.544-3.195c3.326-0.689,5.43-1.979,5.603-5.606c0.059-1.241,0.408-2.476,0.69-3.698
		c4.25-18.333,5.757-36.791,2.564-55.47c-1.674-9.786-4.169-19.311-9.08-28.036c-8.905-15.824-22.844-26.179-38.773-33.63
		c-18.609-8.703-37.747-16.282-56.681-24.288c-2.678-1.133-5.5-1.921-8.275-2.877c-1.146,3.189-2.161,6.02-3.152,8.776
		c13.387,5.906,26.577,11.61,39.666,17.532c12.937,5.852,25.949,11.577,37.42,20.188c18.202,13.662,26.809,32.097,27.521,54.565
		c0.363,11.51-1.246,22.788-3.691,33.985c-1.104,5.053-1.289,5.344-5.415,5.984c-12.349,1.915-24.654,2.462-37.084,0.165
		c-21.367-3.95-37.779-15.157-49.912-32.942c-6.684-9.799-11.067-20.754-15.543-31.641c-5.631-13.698-10.898-27.554-18.416-40.464
		C278.148,305.882,275.306,307.358,272.392,308.872z M193.486,249.116c-1.238,29.564,21.315,56.836,53.84,59.276
		c27.102,2.034,56.795-17.038,60.072-51.744c3.12-33.047-22.542-61.538-54.66-63.214
		C222.086,191.834,194.823,216.387,193.486,249.116z M311.98,250.5c10.354-0.938,20.613-1.201,30.788,0.374
		c11.466,1.776,21.756,6.479,31.26,13.136c9.106,6.381,18.588,11.73,30.238,12.38c9.444,0.525,17.902-1.436,25.251-7.276
		c7.62-6.057,12.021-13.844,9.575-23.827c-4.743-19.36-29.347-26.035-42.449-14.699c-5.296,4.582-8.292,13.876-3.681,20.36
		c2.556,3.591,6.198,5.452,10.156,6.69c5.456,1.704,10.165,0.295,12.872-3.476c1.564-2.178,1.79-4.585,0.364-6.816
		c-1.304-2.041-3.039-3.979-5.834-3.433c-1.756,0.343-3.517,0.702-3.754-1.491c-0.204-1.896,1.15-3.029,3.247-3.141
		c5.696-0.304,11.024,4.547,11.306,10.392c0.339,7.054-6.748,13.146-14.435,12.696c-6.919-0.405-12.342-3.845-17.067-8.354
		c-12.144-11.59-26.894-16.531-43.248-17.391c-11.478-0.603-22.494,2.102-33.331,5.552c-0.771,0.246-1.736,1.396-1.766,2.159
		C311.394,246.363,311.776,248.41,311.98,250.5z M108.6,298.356c0.096-0.005-0.265-0.021-0.616,0.033
		c-10.343,1.626-20.695,1.827-30.838-0.989c-24.951-6.93-41.362-23.736-52.724-46.233c-0.99-1.961-0.615-3.793,0.39-5.653
		c7.164-13.273,16.59-24.666,28.623-33.757c12.122-9.159,25.994-13.265,41.121-13.054c5.026,0.07,10.046,0.604,14.686,0.901
		c-3.391-2.724-6.982-5.688-10.663-8.534c-1.962-1.517-3.908-3.379-6.174-4.092c-2.497-0.785-5.361-0.658-8.049-0.539
		c-13.57,0.603-25.814,5.156-36.955,12.798C30.115,211.096,18.059,227.5,7.5,245.211c-1.465,2.457-1.307,4.691,0.105,7.092
		c6.037,10.263,12.531,20.208,20.419,29.159c14.558,16.517,31.86,28.284,54.356,30.754c3.819,0.419,8.033,1.209,11.305-1.261
		C98.956,306.977,103.812,302.445,108.6,298.356z M189.262,251.234c-5.21,0-10.066-0.099-14.917,0.018
		c-16.118,0.387-31.004-3.655-44.529-12.426c-5.885-3.817-11.312-8.4-17.401-11.829c-12.817-7.216-30.108-8.227-42.476,2.341
		c-5.885,5.028-9.602,11.275-8.999,19.287c0.773,10.269,9.373,19.412,20.083,22.112c7.408,1.867,14.073,0.526,20.033-4.074
		c4.604-3.554,6.995-8.384,5.843-14.198c-1.245-6.285-5.883-9.683-11.686-11.527c-4.222-1.343-8.233-1.07-11.234,2.76
		c-1.591,2.031-2.386,4.19-0.757,6.673c1.633,2.491,3.884,3.474,6.671,2.942c0.786-0.149,1.673,0.237,2.515,0.38
		c-0.291,0.982-0.344,2.617-0.915,2.824c-1.67,0.608-3.669,1.182-5.319,0.805c-4.787-1.094-8.145-5.742-7.741-10.032
		c0.485-5.142,5.496-10.169,10.656-10.708c7.081-0.738,12.6,2.52,17.958,6.631c5.554,4.262,11.014,8.899,17.19,12.047
		c18.727,9.547,38.579,10.532,58.847,5.964c6.494-1.464,6.463-1.591,6.18-8.363C189.24,252.249,189.262,251.634,189.262,251.234z
		 M391.035,200.743c1.373-0.191,2.884-0.372,4.382-0.615c17.139-2.779,33.161,0.375,47.88,9.486
		c9.675,5.988,17.656,13.987,24.73,22.828c3.359,4.199,6.351,8.722,9.176,13.303c0.744,1.207,0.872,3.5,0.227,4.752
		c-8.217,15.96-19.303,29.554-34.378,39.497c-10.96,7.229-23.084,11.24-36.361,11.022c-4.97-0.08-9.935-0.51-14.754-0.771
		c3.848,3.089,8.06,6.04,11.72,9.563c2.36,2.272,4.861,3.043,7.897,3.215c12.582,0.715,24.095-3.007,34.671-9.27
		c21.656-12.827,36.468-32.076,48.593-53.623c0.559-0.994,0.216-3.069-0.49-4.108c-5.304-7.81-10.467-15.753-16.323-23.139
		c-8.174-10.308-17.921-19.023-29.322-25.739c-10.517-6.193-21.86-9.782-34.095-9.735c-3.35,0.014-7.158,0.828-9.938,2.575
		C399.751,193.066,395.482,197.148,391.035,200.743z M302.135,387.979c0,0.129-0.02,0.486,0.004,0.84
		c0.048,0.721,0.107,1.439,0.182,2.157c1.683,15.999-1.166,31.015-9.904,44.684c-9.562,14.955-22.737,26.117-37.441,35.737
		c-3.215,2.102-5.692,1.843-8.53-0.254c-4.054-2.995-8.358-5.672-12.263-8.844c-9.401-7.636-18.173-15.941-24.866-26.148
		c-9.539-14.545-12.097-30.586-9.912-46.982c-3.745,4.338-7.855,9.067-11.907,13.848c-0.421,0.497-0.657,1.287-0.693,1.957
		c-0.411,7.55,0.483,14.939,3.303,21.982c4.11,10.265,10.098,19.37,17.213,27.825c11.613,13.802,25.443,24.895,40.793,34.213
		c1.985,1.205,3.735,1.195,5.706-0.209c5.64-4.017,11.547-7.672,17.055-11.855c14.787-11.233,27.482-24.393,36.224-40.982
		c4.84-9.187,8.002-18.83,7.458-29.411c-0.133-2.581-0.696-4.702-2.662-6.752C308.371,396.111,305.362,391.946,302.135,387.979z
		 M302.352,113.934c3.049-4.058,5.68-8.322,9.085-11.835c2.492-2.572,2.972-5.287,3.012-8.448
		c0.153-11.803-3.758-22.421-9.596-32.429c-12.196-20.91-29.736-36.379-50.005-49.111c-2.82-1.771-4.959-2.022-7.702-0.002
		c-5.357,3.943-11.11,7.363-16.35,11.448c-15.662,12.212-28.947,26.476-37.766,44.558c-4.479,9.183-6.752,18.743-6.18,28.948
		c0.053,0.956,0.174,2.119,0.733,2.801c3.792,4.631,7.711,9.157,11.538,13.658c0.003-0.009,0.103-0.172,0.091-0.327
		c-0.041-0.537-0.128-1.071-0.183-1.608c-1.262-12.557-0.26-24.896,4.732-36.564c8.91-20.827,25.062-35.053,43.728-46.847
		c2.113-1.335,4.32-1.144,6.333,0.325c6.171,4.505,12.579,8.736,18.422,13.637c10.718,8.991,19.806,19.336,25.35,32.485
		C302.924,87.258,303.804,100.332,302.352,113.934z M249.48,189.141c-0.072-0.806-0.156-1.329-0.16-1.852
		c-0.07-8.904-0.738-17.856-0.039-26.699c0.87-11.006,6.032-20.546,12.379-29.474c4.109-5.779,8.712-11.413,11.649-17.778
		c5.933-12.86,5.488-25.784-3.424-37.411c-9.479-12.368-27.32-13.046-36.612-0.467c-7.102,9.615-6.276,22.481,2.451,29.942
		c4.293,3.668,9.257,4.297,14.416,2.321c4.822-1.847,7.594-5.61,8.546-10.652c0.585-3.092-1.347-7.167-3.804-8.344
		c-3.017-1.445-3.983-1.092-7.133,2.335c-0.405,0.441-1.412,0.854-1.815,0.647c-0.562-0.289-1.089-1.146-1.156-1.807
		c-0.208-2.078,2.069-5.078,4.355-6.013c3.809-1.557,8.664,0.072,11.189,3.695c4.438,6.364,2.482,15.302-2.836,20.212
		c-3.913,3.611-7.12,7.584-9.936,11.979c-7.146,11.163-11.963,23.064-12.169,36.589c-0.164,10.828,1.27,21.337,5.134,31.465
		c0.308,0.805,1.289,1.899,1.978,1.914C244.711,189.792,246.938,189.397,249.48,189.141z M250.777,313.237
		c0.397,4.1,0.905,8.185,1.172,12.284c1.048,16.102-2.759,30.812-12.52,43.87c-4.578,6.124-9.071,12.351-11.674,19.655
		c-4.686,13.146-4.172,25.639,5.162,36.78c5.792,6.915,13.417,9.32,22.092,7.447c12.937-2.793,23.573-20.455,14.21-35.688
		c-4.418-7.187-13.142-8.118-19.378-4.149c-5.229,3.325-7.36,11.129-4.51,15.934c1.11,1.869,4.678,3.806,6.449,3.157
		c2.108-0.771,3.427-2.22,3.416-4.813c-0.006-1.713,1.805-1.715,2.395-0.726c0.713,1.195,1.105,3.054,0.715,4.348
		c-1.092,3.622-4.49,5.632-8.127,5.325c-4.925-0.417-8.745-3.502-9.704-7.98c-1.277-5.962,0.283-11.264,4.252-15.765
		c10.838-12.284,18.413-25.988,20.177-42.641c1.342-12.658-0.575-24.73-4.968-36.525c-0.206-0.554-1.091-1.24-1.632-1.216
		C255.799,312.643,253.306,312.979,250.777,313.237z M205.582,292.949c-5.214,7.447-11.847,13.269-18.519,19.079
		c-6.16,5.366-13.154,9.189-21.009,11.168c-7.124,1.794-14.394,3.007-21.606,4.445c-18.484,3.688-29.834,16.682-31.633,33.567
		c-1.012,9.502,4.238,20.666,15.721,23.31c8.648,1.989,19.279-1.635,24.845-8.871c4.015-5.222,6.255-10.895,4.598-17.568
		c-1.214-4.888-6.207-8.868-11.237-9.063c-6.368-0.247-12.052,2.99-13.861,7.899c-1.119,3.032-0.478,6.281,1.517,7.997
		c2.502,2.151,4.381,0.94,6.282-0.968c0.353-0.354,1.463-0.407,1.885-0.113c0.46,0.321,0.919,1.464,0.697,1.804
		c-0.944,1.455-1.876,3.269-3.3,3.986c-3.113,1.569-7.813-0.077-9.93-2.959c-3.287-4.476-1.678-12.52,3.104-16.884
		c4.682-4.271,10.248-5.378,16.26-5.104c9.413,0.431,17.847-2.669,25.954-7.006c16.064-8.593,27.29-21.82,35.807-37.593
		c0.308-0.571,0.01-1.872-0.476-2.395C209.154,296.039,207.403,294.606,205.582,292.949z M294.412,208.413
		c3.604-3.837,7.037-7.514,10.493-11.17c8.638-9.135,18.112-17.105,30.624-20.292c6.846-1.744,13.842-2.906,20.772-4.32
		c16.269-3.317,27.201-12.755,31.661-28.795c3.377-12.146-3.812-23.785-16.086-26.095c-10.283-1.935-18.39,2.782-24.803,10.523
		c-2.931,3.539-4.482,7.77-4.294,12.459c0.233,5.815,4.854,11.021,10.394,11.842c6.788,1.006,12.825-2.201,14.659-7.788
		c0.992-3.021,0.463-5.419-1.751-7.04c-2.256-1.651-4.348-1.021-6.393,0.611c-0.479,0.382-1.394,0.217-2.106,0.305
		c-0.085-0.811-0.466-1.738-0.199-2.41c0.911-2.307,2.869-3.414,5.242-3.649c6.002-0.594,10.534,4.669,9.585,11.045
		c-1.121,7.542-7.977,13.061-16.137,13.135c-4.217,0.039-8.567-0.317-12.624,0.568c-17.575,3.838-31.661,13.442-42.57,27.557
		c-4.462,5.774-8.086,12.198-12.053,18.27C290.967,205.179,292.668,206.775,294.412,208.413z M295.114,293.955
		c2.875,2.337,5.673,4.598,8.456,6.877c11.926,9.771,20.75,21.591,24.39,36.856c1.621,6.796,2.901,13.714,5.109,20.318
		c3.51,10.498,10.167,18.533,20.612,22.968c6.552,2.781,13.308,3.49,19.916,0.577c9.277-4.088,13.813-14.97,11.049-25.193
		c-2.13-7.877-10.734-17.895-21.479-15.757c-4.646,0.924-8.45,3.038-9.717,8.128c-1.217,4.89-0.155,9.114,3.717,12.419
		c1.868,1.594,4.078,2.279,6.529,1.275c2.261-0.927,2.99-2.531,2.492-4.95c-0.129-0.624,0.592-1.854,1.187-2.068
		c0.556-0.201,1.657,0.401,2.182,0.963c1.862,1.999,1.1,6.142-1.374,8.104c-5.903,4.683-15.065,1.852-17.706-5.921
		c-1.658-4.88-2.521-10.074-3.322-15.191c-1.651-10.552-4.926-20.422-11.357-29.059c-9.164-12.303-21.663-20.352-35.086-27.423
		C298.872,289.204,297.094,291.451,295.114,293.955z M206.694,207.666c-0.377-0.301-0.717-0.575-1.059-0.844
		c-7.592-5.972-14.702-12.397-20.558-20.179c-7.954-10.568-11.684-22.727-14.074-35.469c-2.318-12.354-8.405-22.219-19.162-29.068
		c-6.277-3.996-13.122-5.643-20.354-4.542c-9.614,1.464-16.677,11.753-15.293,21.568c1.184,8.391,4.7,15.267,12.707,19.116
		c6.763,3.251,14.084,1.506,17.724-4.171c4.161-6.489,0.46-15.434-7.064-17.075c-3.909-0.854-6.137,1.351-5.571,5.284
		c0.121,0.839-0.616,1.802-0.957,2.708c-0.868-0.506-2.049-0.804-2.547-1.556c-1.693-2.554-0.61-6.825,1.996-8.678
		c3.698-2.628,8.135-2.69,12.128-0.165c5.776,3.653,7.953,9.252,8.573,15.732c1.501,15.671,7.471,29.488,17.361,41.672
		c8.243,10.155,19.095,16.833,30.431,22.876C202.861,212.5,204.745,210.124,206.694,207.666z"/>
	<path fill-rule="evenodd" clip-rule="evenodd" d="M345.478,55.458c0.538,0.936,1.619,1.974,1.468,2.781
		c-0.162,0.872-1.609,2.234-2.255,2.111c-0.94-0.178-2.24-1.446-2.313-2.337c-0.067-0.832,1.264-1.78,1.979-2.677
		C344.73,55.377,345.104,55.418,345.478,55.458z"/>
	<path fill-rule="evenodd" clip-rule="evenodd" d="M331.763,49.964c-1.568,1.146-2.472,2.321-3.34,2.295
		c-0.847-0.025-1.657-1.279-2.483-1.993c0.788-0.896,1.45-2.272,2.409-2.527C329.048,47.554,330.142,48.846,331.763,49.964z"/>
	<path fill-rule="evenodd" clip-rule="evenodd" d="M176.287,49.229c-1.313,1.201-2.258,2.593-2.809,2.452
		c-1.068-0.273-1.915-1.409-2.854-2.188c0.775-0.83,1.469-2.2,2.35-2.334C173.787,47.036,174.802,48.238,176.287,49.229z"/>
	<path fill-rule="evenodd" clip-rule="evenodd" d="M311.53,38.373c1.137,1.736,2.305,2.756,2.298,3.768
		c-0.005,0.722-1.612,2.013-2.461,1.978c-0.782-0.032-2.042-1.456-2.103-2.336C309.204,40.924,310.395,39.979,311.53,38.373z"/>
	<path fill-rule="evenodd" clip-rule="evenodd" d="M190.263,44.86c-1.164-1.634-2.376-2.596-2.271-3.381
		c0.125-0.935,1.382-1.717,2.149-2.565c0.834,0.821,2.153,1.542,2.348,2.493C192.642,42.155,191.407,43.187,190.263,44.86z"/>
	<path fill-rule="evenodd" clip-rule="evenodd" d="M48.637,328.445c0.994,1.515,2.165,2.539,1.987,3.203
		c-0.275,1.025-1.472,1.804-2.278,2.687c-0.725-0.862-1.996-1.709-2.021-2.591C46.302,330.86,47.521,329.941,48.637,328.445z"/>
	<path fill-rule="evenodd" clip-rule="evenodd" d="M56.152,346.005c0.646,0.88,1.86,1.811,1.787,2.625
		c-0.082,0.911-1.332,1.716-2.073,2.567c-0.794-0.781-2.068-1.47-2.241-2.37c-0.155-0.803,0.906-1.84,1.43-2.775
		C55.421,346.036,55.787,346.021,56.152,346.005z"/>
	<path fill-rule="evenodd" clip-rule="evenodd" d="M307.232,458.647c1.606-1.222,2.539-2.48,3.422-2.447
		c0.852,0.034,2.124,1.304,2.314,2.217c0.135,0.65-1.223,2.287-1.897,2.278C310.015,460.682,308.973,459.646,307.232,458.647z"/>
	<path fill-rule="evenodd" clip-rule="evenodd" d="M193.792,458.403c-1.654,1.164-2.611,2.36-3.447,2.281
		c-0.855-0.082-2.08-1.338-2.217-2.223c-0.099-0.642,1.274-2.083,2.062-2.137C191.088,456.262,192.067,457.34,193.792,458.403z"/>
	<path fill-rule="evenodd" clip-rule="evenodd" d="M362.255,67.607c-1.211-1.51-2.507-2.438-2.42-3.208
		c0.093-0.825,1.506-2.096,2.315-2.075c0.796,0.019,1.945,1.311,2.194,2.244C364.506,65.168,363.326,66.129,362.255,67.607z"/>
	<path fill-rule="evenodd" clip-rule="evenodd" d="M58.228,152.288c-0.916,0.467-1.789,1.187-2.754,1.346
		c-1.636,0.271-2.431-0.977-2.014-2.291c0.282-0.891,1.502-1.969,2.379-2.042c0.77-0.063,1.646,1.156,2.475,1.809
		C58.286,151.503,58.256,151.896,58.228,152.288z"/>
	<path fill-rule="evenodd" clip-rule="evenodd" d="M440.246,130.653c0.979,1.612,2.033,2.595,2.002,3.542
		c-0.023,0.733-1.407,1.421-2.186,2.129c-0.765-0.87-1.967-1.662-2.141-2.636C437.802,133.009,439.093,132.079,440.246,130.653z"/>
	<path fill-rule="evenodd" clip-rule="evenodd" d="M51.696,168.343c-1.496,0.953-2.428,2.011-3.298,1.961
		c-0.755-0.043-2.175-1.689-2.019-2.015c0.483-1.012,1.461-2.055,2.485-2.422C49.322,165.702,50.348,167.117,51.696,168.343z"/>
	<path fill-rule="evenodd" clip-rule="evenodd" d="M444.591,154.108c-0.547-0.81-1.402-1.56-1.571-2.441
		c-0.282-1.468,0.622-2.625,2.14-2.29c0.854,0.188,1.995,1.297,2.084,2.094c0.093,0.82-0.939,1.766-1.478,2.655
		C445.373,154.122,444.982,154.115,444.591,154.108z"/>
	<path fill-rule="evenodd" clip-rule="evenodd" d="M344.654,440.471c0.624,0.914,1.73,1.832,1.723,2.741
		c-0.006,0.788-1.274,1.565-1.986,2.346c-0.773-0.817-1.955-1.538-2.186-2.488c-0.171-0.708,0.891-1.715,1.401-2.589
		C343.957,440.477,344.306,440.474,344.654,440.471z"/>
	<path fill-rule="evenodd" clip-rule="evenodd" d="M461.874,318.28c-1.2-1.367-2.541-2.29-2.408-2.881
		c0.218-0.966,1.395-1.716,2.168-2.557c0.809,0.792,2.005,1.47,2.284,2.418C464.095,315.855,462.891,316.857,461.874,318.28z"/>
	<path fill-rule="evenodd" clip-rule="evenodd" d="M450.09,331.311c0.895-0.524,1.847-1.534,2.667-1.436
		c0.781,0.093,2.092,1.476,1.975,2.053c-0.188,0.938-1.259,2.198-2.125,2.347c-0.719,0.122-1.679-1.159-2.532-1.818
		C450.08,332.074,450.085,331.691,450.09,331.311z"/>
	<path fill-rule="evenodd" clip-rule="evenodd" d="M160.693,57.955c-1.369,1.2-2.349,2.55-2.845,2.39
		c-1.024-0.329-2.08-1.334-2.518-2.329c-0.172-0.391,1.232-2.071,1.991-2.123C158.188,55.834,159.133,56.934,160.693,57.955z"/>
	<path fill-rule="evenodd" clip-rule="evenodd" d="M176.433,450.839c-1.561,1.07-2.463,2.164-3.326,2.133
		c-0.72-0.026-2.062-1.52-1.932-2.095c0.209-0.93,1.289-2.049,2.213-2.296C173.981,448.422,174.954,449.685,176.433,450.839z"/>
	<path fill-rule="evenodd" clip-rule="evenodd" d="M142.863,64.877c-1.007,0.569-1.976,1.443-3.037,1.575
		c-0.517,0.063-1.843-1.674-1.706-1.886c0.618-0.955,1.523-1.924,2.546-2.325c0.452-0.177,1.428,0.985,2.167,1.54
		C142.843,64.146,142.853,64.512,142.863,64.877z"/>
	<path fill-rule="evenodd" clip-rule="evenodd" d="M443.089,367.307c-1.499,1.133-2.436,2.354-3.101,2.22
		c-0.916-0.185-2.064-1.292-2.269-2.197c-0.131-0.578,1.227-2.075,1.977-2.119C440.563,365.159,441.497,366.255,443.089,367.307z"/>
	<path fill-rule="evenodd" clip-rule="evenodd" d="M445.497,351.561c-0.954-1.577-1.996-2.548-1.825-3.199
		c0.239-0.912,1.384-1.586,2.142-2.362c0.782,0.786,2.113,1.526,2.184,2.373C448.063,349.146,446.765,350.035,445.497,351.561z"/>
	<path fill-rule="evenodd" clip-rule="evenodd" d="M453.278,171.559c-1.071-1.575-2.194-2.507-2.073-3.231
		c0.149-0.894,1.334-1.613,2.071-2.408c0.766,0.717,2.112,1.407,2.147,2.156C455.464,168.962,454.369,169.9,453.278,171.559z"/>
	<path fill-rule="evenodd" clip-rule="evenodd" d="M39.082,311.39c1.177,1.546,2.362,2.424,2.295,3.192
		c-0.076,0.883-1.157,2.16-1.999,2.34c-0.632,0.135-2.163-1.142-2.23-1.886C37.065,314.128,38.097,313.12,39.082,311.39z"/>
	<path fill-rule="evenodd" clip-rule="evenodd" d="M60.774,130.728c1.133,1.512,2.308,2.395,2.265,3.212
		c-0.044,0.828-1.291,1.594-2.011,2.387c-0.709-0.735-1.896-1.415-1.993-2.223C58.936,133.271,59.899,132.313,60.774,130.728z"/>
	<path fill-rule="evenodd" clip-rule="evenodd" d="M39.286,188.387c-1.161-1.572-2.282-2.427-2.217-3.18
		c0.07-0.806,1.208-2.047,1.968-2.116c0.733-0.065,2.167,1.072,2.226,1.771C41.336,185.728,40.31,186.685,39.286,188.387z"/>
	<path fill-rule="evenodd" clip-rule="evenodd" d="M60.988,364.054c1.016,1.474,2.131,2.384,2.049,3.167
		c-0.085,0.801-1.318,2.018-2.099,2.057c-0.774,0.039-2.316-1.232-2.261-1.806C58.773,366.495,59.856,365.614,60.988,364.054z"/>
	<path fill-rule="evenodd" clip-rule="evenodd" d="M363.124,438.6c-0.889,0.422-1.835,1.257-2.65,1.144
		c-0.74-0.103-1.979-1.388-1.861-1.879c0.218-0.911,1.279-2.272,1.963-2.256c0.892,0.02,1.755,1.198,2.63,1.879
		C363.178,437.858,363.15,438.229,363.124,438.6z"/>
	<path fill-rule="evenodd" clip-rule="evenodd" d="M327.64,447.557c0.976,1.515,2.067,2.464,1.961,3.25
		c-0.114,0.842-1.355,1.531-2.106,2.287c-0.697-0.787-1.896-1.541-1.95-2.371C325.49,449.913,326.604,449.024,327.64,447.557z"/>
	<path fill-rule="evenodd" clip-rule="evenodd" d="M143.367,437.96c-1.673,0.874-2.603,1.748-3.47,1.688
		c-0.676-0.047-1.907-1.443-1.769-1.905c0.267-0.892,1.291-2.101,2.064-2.147C140.976,435.55,141.833,436.746,143.367,437.96z"/>
	<path fill-rule="evenodd" clip-rule="evenodd" d="M461.832,188.306c-1.029-1.567-2.128-2.512-1.994-3.23
		c0.147-0.803,1.354-1.825,2.208-1.939c0.58-0.076,1.886,1.244,1.89,1.946C463.939,185.922,462.902,186.766,461.832,188.306z"/>
	<path fill-rule="evenodd" clip-rule="evenodd" d="M156.899,445.463c-0.513-0.752-1.534-1.602-1.414-2.233
		c0.167-0.882,1.187-1.604,1.842-2.394c0.717,0.655,1.95,1.265,2.015,1.98c0.074,0.816-0.891,1.729-1.404,2.6
		C157.591,445.433,157.245,445.448,156.899,445.463z"/>
	<path fill-rule="evenodd" clip-rule="evenodd" d="M205.664,250.525c-0.309-22.35,17.862-45.092,44.938-44.927
		c23.091,0.141,45.717,19.765,45.028,46.354c-0.604,23.354-19.648,44.981-44.885,44.755
		C225.544,296.481,205.516,275.969,205.664,250.525z M250.17,209.28c-21.961-0.372-40.978,18.384-41.038,41.155
		c-0.06,22.731,17.531,41.754,40.558,42.512c24.813,0.815,41.715-20.446,42.354-41.042
		C292.744,229.433,272.598,209.117,250.17,209.28z"/>
	<path fill-rule="evenodd" clip-rule="evenodd" d="M280.1,251.075c0.078,16.117-11.77,28.485-26.633,29.839
		c-17.281,1.573-31.321-10.779-32.419-28.456c-0.948-15.29,10.485-30.08,28.329-31.523
		C262.771,219.85,280.213,231.809,280.1,251.075z M224.654,251.135c0.043,14.393,11.74,26.324,25.858,26.377
		c14.443,0.055,26.142-11.862,26.146-26.633c0.003-13.986-12.44-26.283-26.528-26.219
		C236.313,224.723,224.611,236.885,224.654,251.135z"/>
	<path fill-rule="evenodd" clip-rule="evenodd" d="M250.276,265.486c-7.799,0.138-13.817-5.937-14.111-14.24
		c-0.286-8.074,6.155-14.651,14.581-14.889c7.424-0.21,14.236,6.517,14.438,14.253C265.394,258.689,258.731,265.337,250.276,265.486
		z"/>
</g>
</svg>
