<?xml version="1.0" encoding="utf-8"?>
<!-- Generator: Adobe Illustrator 16.0.0, SVG Export Plug-In . SVG Version: 6.00 Build 0)  -->
<!DOCTYPE svg PUBLIC "-//W3C//DTD SVG 1.1//EN" "http://www.w3.org/Graphics/SVG/1.1/DTD/svg11.dtd">
<svg version="1.1" id="Layer_1" xmlns="http://www.w3.org/2000/svg" xmlns:xlink="http://www.w3.org/1999/xlink" x="0px" y="0px"
	 width="500px" height="500px" viewBox="0 0 500 500" enable-background="new 0 0 500 500" xml:space="preserve">
<g>
	<path fill-rule="evenodd" clip-rule="evenodd" d="M19.739,294.981c0.604-1.216,0.982-2.632,1.848-3.619
		c6.588-7.506,13.285-14.916,19.906-22.394c0.645-0.728,1.005-1.708,1.439-2.47c-6.474-5.679-12.746-11.17-19.002-16.679
		c-0.773-0.68-1.51-1.413-2.188-2.188c-1.022-1.169-1.072-2.222,0.252-3.348c5.237-4.451,10.408-8.981,15.613-13.471
		c1.955-1.686,3.938-3.339,6.116-5.182c-6.061-7.317-12.11-14.604-18.141-21.908c-3.595-4.352-7.215-8.686-10.711-13.116
		c-1.141-1.447-0.93-2.538,1.188-3.274c13.294-4.619,26.539-9.378,39.794-14.108c0.671-0.239,1.285-0.639,2.203-1.104
		c-3.234-5.802-6.397-11.422-9.501-17.075c-0.853-1.553-1.564-3.187-2.282-4.809c-1.129-2.554-0.699-3.635,2.002-4.253
		c6.942-1.589,13.913-3.049,20.873-4.56c0.626-0.136,1.252-0.27,2.067-0.445c-2.106-8.311-4.154-16.489-6.257-24.653
		c-1.564-6.073-3.208-12.126-4.803-18.192c-0.683-2.597,0.24-3.734,2.9-3.344c12.637,1.853,25.266,3.761,37.896,5.659
		c1.909,0.286,3.812,0.617,5.228,0.848c0-8.264-0.009-16.744,0.01-25.223c0.003-1.268-0.262-2.797,0.34-3.719
		c0.475-0.725,2.282-1.228,3.179-0.916c4.504,1.57,8.884,3.489,13.346,5.187c2.525,0.96,5.124,1.729,7.978,2.679
		c0.89-4.463,1.675-8.659,2.569-12.831c2.471-11.516,4.982-23.023,7.489-34.53c0.622-2.851,1.588-3.251,4.33-1.595
		c6.188,3.736,12.364,7.494,18.468,11.364c1.989,1.261,3.595,3.148,5.626,4.313c5.324,3.056,10.786,5.871,16.323,8.853
		c3.121-6.933,6.379-14.173,9.64-21.413c0.344-0.765,0.622-1.575,1.067-2.276c1.488-2.341,2.45-2.488,4.465-0.696
		c5.992,5.328,11.968,10.673,18.22,16.252c2.049-2.831,3.935-5.374,5.756-7.962c7.776-11.055,15.531-22.126,23.302-33.185
		c1.96-2.79,2.57-2.776,4.577,0.075c6.042,8.585,12.017,17.22,18.134,25.751c3.715,5.181,7.646,10.205,11.599,15.457
		c6.118-5.614,12.078-11.012,17.943-16.51c1.65-1.546,3.217-2.033,4.282,0.208c3.36,7.074,6.524,14.24,9.735,21.384
		c0.183,0.406,0.095,0.932,0.133,1.403c-0.052-0.012-0.102-0.024-0.152-0.036c0.056-0.017,0.111-0.035,0.167-0.053
		c0.427,1.84,1.435,1.456,2.612,0.729c7.695-4.748,15.416-9.459,23.103-14.222c5.104-3.161,10.157-6.402,15.246-9.585
		c2.951-1.847,4.271-1.166,4.999,2.351c3.237,15.627,6.515,31.247,9.864,47.287c2.707-1.138,5.237-2.246,7.801-3.269
		c4.26-1.699,8.5-3.457,12.825-4.971c2.896-1.015,3.847-0.277,3.86,2.687c0.042,8.801,0.015,17.602,0.015,26.85
		c2.665-0.378,5.767-0.804,8.864-1.26c7.452-1.097,14.901-2.205,22.352-3.313c3.806-0.566,7.612-1.129,11.414-1.72
		c2.915-0.453,4.021,0.644,3.273,3.575c-1.55,6.08-3.238,12.125-4.843,18.191c-0.741,2.805-1.421,5.627-2.129,8.441
		c-1.681,0.898-3.363,1.797-5.043,2.695c0.313-1.532,0.564-3.081,0.952-4.594c1.959-7.652,3.955-15.295,6.001-23.184
		c-1.168,0.097-2.011,0.11-2.834,0.245c-7.59,1.233-15.157,2.624-22.769,3.704c-11.904,1.69-23.843,3.138-35.756,4.774
		c-2.637,0.362-4.041-0.437-4.438-3.166c-0.944-6.494-1.854-12.999-3.057-19.448c-1.872-10.042-3.88-20.063-6.013-30.053
		c-1.438-6.74-3.19-13.412-4.892-20.487c-1.676,0.924-3.094,1.616-4.421,2.452c-7.484,4.711-14.946,9.46-22.42,14.189
		c-10.307,6.524-20.621,13.036-30.925,19.566c-1.896,1.201-3.585,1.513-5.05-0.674c-1.305-1.945-2.742-3.802-4.081-5.726
		c-11.248-16.176-22.477-32.366-33.744-48.528c-1.461-2.095-3.113-4.054-4.985-6.475c-7.028,10.085-13.742,19.604-20.334,29.207
		c-7.02,10.226-13.935,20.523-20.868,30.808c-1.77,2.625-3.328,2.928-6.132,1.161c-7.735-4.873-15.48-9.73-23.246-14.555
		c-9.42-5.852-18.862-11.669-28.304-17.487c-2.282-1.406-4.599-2.758-6.828-4.091c-0.436,2.313-0.788,4.377-1.218,6.425
		c-2.664,12.679-5.511,25.323-7.963,38.043c-1.633,8.473-2.787,17.042-3.994,25.591c-0.365,2.581-1.709,3.37-4.011,3.142
		c-1.751-0.172-3.493-0.448-5.239-0.677c-6.515-0.854-13.045-1.608-19.542-2.585c-12.567-1.889-25.117-3.902-37.854-5.893
		c0.361,0.992,0.595,1.502,0.734,2.037c2.81,10.79,5.575,21.591,8.42,32.372c2.651,10.05,5.375,20.083,8.086,30.118
		c1.099,4.068,1.055,4.167-2.75,5.508c-3.438,1.213-6.859,2.475-10.293,3.7c-12.191,4.349-24.384,8.694-36.578,13.036
		c-3.892,1.386-7.79,2.757-11.929,4.221c7.458,9.099,14.594,18.101,22.054,26.825c7.64,8.933,15.575,17.614,23.433,26.358
		c1.646,1.831,1.625,3.395-0.017,5.179c-4.206,4.57-8.366,9.184-12.513,13.81c-6.638,7.403-13.287,14.798-19.859,22.26
		c-4.58,5.2-9.037,10.507-13.574,15.796c0.264,0.174,0.674,0.551,1.157,0.741c8.434,3.323,16.853,6.687,25.322,9.916
		c10.076,3.843,20.166,7.653,30.311,11.312c6.201,2.235,6.284,1.258,4.252,8.701c-3.229,11.839-6.615,23.633-9.869,35.466
		c-2.532,9.209-4.964,18.445-7.44,27.671c-1.173-0.792-2.346-1.585-3.52-2.377c3.354-13.272,6.708-26.546,10.05-39.774
		c-6.785-2.037-13.601-4.074-20.409-6.138c-1.321-0.4-3.058-0.55-3.784-1.466c-0.678-0.855-0.81-2.885-0.249-3.861
		c3.502-6.089,7.267-12.025,10.943-18.014c0.341-0.556,0.667-1.12,1.192-2.005c-3.963-1.631-7.782-3.289-11.664-4.783
		c-10.297-3.964-20.626-7.845-30.934-11.781c-2.365-0.903-2.801-2.047-1.261-3.923c1.229-1.496,2.811-2.702,4.236-4.037
		c0.107,0.144,0.215,0.287,0.321,0.432c0.063-0.149,0.125-0.299,0.188-0.447c0.223-0.242,0.445-0.485,0.667-0.728
		C19.699,295.36,19.719,295.171,19.739,294.981z M303.167,33.46c0.137-0.052,0.274-0.104,0.41-0.156
		c-0.161,0.077-0.323,0.154-0.474,0.227C303.125,33.507,303.146,33.483,303.167,33.46z M46.983,229.321
		c-6.955,5.638-13.709,11.115-20.491,16.614c6.647,5.922,13.128,11.697,19.855,17.69c5.368-5.914,10.604-11.684,15.774-17.38
		C57.032,240.556,52.076,235.015,46.983,229.321z M311.778,57.413c-3.027-7.234-6.097-14.569-9.291-22.2
		c-5.603,5.062-10.948,9.813-16.153,14.714c-0.536,0.505-0.667,2.196-0.24,2.848c2.92,4.45,6.225,8.655,9.001,13.186
		c1.099,1.792,1.686,1.374,2.922,0.545C302.515,63.488,307.051,60.529,311.778,57.413z M199.536,35.283
		c-3.324,7.51-6.527,14.748-9.833,22.215c5.14,3.238,10.319,6.5,15.619,9.84c3.759-5.573,7.376-10.933,11.149-16.526
		C210.894,45.699,205.309,40.577,199.536,35.283z M72.012,145.634c-5.233,0.997-10.388,1.92-15.517,2.969
		c-5.125,1.049-5.155,1.125-2.834,5.651c2.818,5.494,5.713,10.948,8.598,16.463c5.335-1.809,10.353-3.51,15.509-5.258
		C75.883,158.965,74.032,152.59,72.012,145.634z M77.553,327.916c-3.951-1.515-7.507-2.944-11.111-4.243
		c-4.267-1.538-4.294-1.493-6.6,2.533c-2.929,5.115-5.842,10.242-8.769,15.378c0.417,0.336,0.599,0.592,0.835,0.659
		c6.038,1.713,12.066,3.457,18.142,5.024c0.621,0.159,2.026-0.606,2.213-1.208C74.117,340.087,75.791,334.059,77.553,327.916z
		 M110.963,76.645c0,8.612,0,16.804,0,25.083c5.584,0.859,10.909,1.678,16.315,2.51c0.979-6.899,1.882-13.267,2.802-19.753
		C123.901,81.951,117.459,79.309,110.963,76.645z M371.367,84.538c1.098,6.909,2.12,13.332,3.14,19.749
		c5.493-0.904,10.462-1.722,15.753-2.594c0-8.447,0-16.579,0-24.992C384.045,79.279,377.753,81.889,371.367,84.538z M224.24,43.151
		l-0.204-0.007l0.092,0.243L224.24,43.151z"/>
	<path fill-rule="evenodd" clip-rule="evenodd" d="M60.383,392.076c1.173,0.792,2.346,1.585,3.52,2.377
		c7.192-0.745,14.38-1.522,21.576-2.229c13.544-1.327,27.101-2.545,40.634-3.971c2.896-0.306,4.751,0.494,5.272,3.834
		c1.669,10.676,3.277,21.361,5.132,32.004c2.198,12.611,4.629,25.181,7.017,38.082c1.143-0.627,1.87-0.994,2.564-1.413
		c8.103-4.904,16.162-9.881,24.309-14.708c10.175-6.028,20.425-11.93,30.637-17.896c3.905-2.28,4.852-2.092,7.559,1.692
		c2.958,4.134,5.906,8.275,8.827,12.435c7.288,10.38,14.517,20.801,21.853,31.146c3.515,4.955,7.219,9.775,10.982,14.854
		c0.771-0.921,1.479-1.663,2.073-2.488c3.402-4.728,6.77-9.479,10.162-14.215c9.946-13.882,19.936-27.731,29.82-41.654
		c2.581-3.636,3.546-4.083,7.308-1.873c11.567,6.798,23.15,13.572,34.637,20.507c7.378,4.456,14.595,9.179,22.222,13.995
		c1.499-6.793,3.013-13.251,4.337-19.748c2.271-11.141,4.47-22.298,6.61-33.465c1.079-5.624,1.961-11.285,2.936-16.929
		c0.612-3.533,1.38-4.186,5.05-4.235c0.941-0.014,1.891,0.007,2.827,0.104c9.026,0.943,18.053,1.886,27.074,2.869
		c10.159,1.105,20.314,2.251,30.895,3.427c-0.724-3.229-1.359-6.323-2.113-9.391c-2.219-9.024-4.483-18.038-6.73-27.056
		c0.664-1.605,1.88-2.408,3.6-2.478c2.396,9.054,4.797,18.105,7.188,27.161c1.149,4.351,2.391,8.68,3.382,13.066
		c0.759,3.357,0.166,4.078-3.132,3.726c-7.354-0.788-14.682-1.83-22.032-2.663c-6.44-0.729-12.898-1.298-19.347-1.965
		c-1.916-0.198-1.905,1.04-1.849,2.34c0.313,7.134,0.489,14.276,0.99,21.396c0.415,5.904-0.298,6.658-5.912,4.783
		c-5.946-1.986-11.847-4.108-17.771-6.159c-0.43-0.149-0.89-0.207-1.532-0.353c-1.897,8.773-3.761,17.44-5.649,26.103
		c-1.641,7.531-3.272,15.066-4.985,22.582c-0.721,3.156-2.027,3.49-4.729,1.791c-12.562-7.896-25.171-15.715-37.77-23.554
		c-0.14-0.086-0.357-0.048-0.395-0.053c-1.909,3.727-3.8,7.4-5.674,11.082c-1.872,3.678-3.751,7.352-5.586,11.047
		c-1.88,3.79-2.967,4.135-6.063,1.39c-5.731-5.083-11.354-10.29-17.419-15.806c-3.242,4.484-6.427,8.882-9.602,13.286
		c-5.108,7.088-10.211,14.181-15.313,21.272c-1.811,2.516-3.636,5.022-5.417,7.561c-1.302,1.854-2.521,2.061-3.92,0.071
		c-8.221-11.691-16.463-23.367-24.711-35.04c-1.508-2.134-3.071-4.229-4.826-6.641c-3.717,3.143-7.348,6.237-11.007,9.298
		c-2.672,2.235-5.341,4.479-8.088,6.622c-2.134,1.664-3.316,1.386-4.596-1.092c-3.823-7.403-7.581-14.84-11.558-22.643
		c-3.237,1.682-6.64,3.236-9.829,5.147c-9.59,5.747-19.117,11.601-28.624,17.484c-3.389,2.098-4.392,1.835-5.168-1.941
		c-3.203-15.583-6.365-31.173-9.531-46.763c-0.07-0.347-0.009-0.719-0.009-1.443c-7.208,2.452-14.239,4.879-21.294,7.23
		c-3.759,1.252-4.5,0.689-4.512-3.307c-0.025-8.44-0.008-16.882-0.008-25.795c-4.015,0.451-8.442,0.968-12.873,1.445
		c-9.827,1.06-19.649,2.177-29.489,3.106c-3.81,0.359-3.967-0.012-2.974-3.629C59.68,394.557,60.034,393.317,60.383,392.076z
		 M187.747,441.303c3.644,7.525,7.086,14.637,10.638,21.972c5.463-4.579,10.503-9.062,15.846-13.148
		c1.967-1.505,1.667-2.399,0.489-3.988c-2.797-3.773-5.465-7.644-8.238-11.437c-0.798-1.091-1.774-2.051-2.573-2.96
		C198.329,435.042,193.077,438.149,187.747,441.303z M285.413,447.854c5.73,5.13,11.339,10.15,17.192,15.39
		c3.664-7.5,7.146-14.627,10.63-21.758c-5.63-3.445-10.899-6.673-15.92-9.745C293.206,437.304,289.322,442.563,285.413,447.854z
		 M127.066,392.819c-5.3,0.525-10.309,1.037-15.321,1.509c-1.717,0.161-2.315,0.851-2.176,2.72c0.201,2.691-0.125,5.418-0.146,8.13
		c-0.037,4.481-0.011,8.962-0.011,13.8c6.798-2.292,13.336-4.498,20.086-6.774C128.698,405.824,127.908,399.527,127.066,392.819z
		 M374.813,392.806c-1.016,6.587-2.009,13.021-2.985,19.348c6.532,2.29,12.871,4.514,18.958,6.648
		c0-7.607,0.042-15.093-0.077-22.575c-0.011-0.632-1.046-1.704-1.713-1.797C384.341,393.78,379.658,393.335,374.813,392.806z
		 M123.023,390.908c0.068-0.057,0.136-0.112,0.205-0.168c-0.144-0.063-0.283-0.146-0.434-0.178
		c-0.055-0.012-0.136,0.097-0.206,0.151C122.733,390.778,122.878,390.844,123.023,390.908z"/>
	<path fill-rule="evenodd" clip-rule="evenodd" d="M430.971,355.653c-1.72,0.069-2.936,0.872-3.6,2.478
		c-0.908-3.002-1.854-5.994-2.719-9.008c-2.018-7.026-3.975-14.069-6.001-21.094c-0.626-2.17-0.194-3.635,2.163-4.321
		c2.156-0.629,4.285-1.367,6.386-2.163c12.021-4.555,24.033-9.134,36.043-13.719c5.084-1.94,10.172-3.873,15.219-5.907
		c1-0.403,2.912-0.615,1.125-2.599c-4.588-5.089-9.023-10.314-13.546-15.464c-6.237-7.101-12.469-14.205-18.759-21.259
		c-4.066-4.561-8.258-9.009-12.339-13.556c-1.506-1.679-1.682-3.458-0.06-5.29c8.551-9.658,17.119-19.3,25.587-29.03
		c6.644-7.634,13.148-15.388,19.853-23.251c-1.194-0.534-2.193-1.042-3.234-1.437c-7.091-2.68-14.19-5.34-21.289-8
		c-11.411-4.277-22.81-8.584-34.243-12.801c-3.003-1.108-3.75-2.232-2.812-5.285c1.02-3.321,2.207-6.593,3.129-9.94
		c2.403-8.739,4.702-17.508,7.043-26.264c1.68-0.898,3.362-1.797,5.043-2.695c-1.391,5.313-2.782,10.627-4.13,15.779
		c7.416,1.602,14.452,3.113,21.484,4.642c4.423,0.961,4.946,2.225,2.872,6.224c-3.573,6.887-7.055,13.821-10.661,20.902
		c6.812,2.575,13.742,5.288,20.739,7.816c6.857,2.478,13.786,4.758,20.677,7.147c2.574,0.893,2.852,2.144,0.747,4.707
		c-3.406,4.148-6.969,8.167-10.45,12.254c-5.862,6.879-11.714,13.769-17.899,21.042c2.999,2.704,5.987,5.515,9.1,8.179
		c4.146,3.547,8.376,6.997,12.598,10.456c1.7,1.394,1.796,2.827,0.152,4.237c-7.064,6.058-14.159,12.079-21.502,18.333
		c9.997,11.675,20.118,23.495,30.881,36.064c-15.618,6.062-30.419,11.805-45.589,17.692c2.266,3.896,4.312,7.519,6.459,11.079
		c1.835,3.04,3.803,6,5.683,9.013c1.901,3.05,1.665,3.974-1.771,5.013c-7.604,2.298-15.258,4.429-23.015,6.662
		C430.524,353.29,430.747,354.472,430.971,355.653z M454.7,229.137c-5.456,5.661-10.885,11.293-16.287,16.897
		c5.362,5.893,10.636,11.688,15.947,17.524c6.896-5.838,13.479-11.412,20.063-16.986C467.983,240.879,461.464,235.116,454.7,229.137
		z M423.485,165.194c5.154,1.89,10.442,3.828,15.874,5.818c3.572-7.074,7.012-13.883,10.752-21.288
		c-6.93-1.309-13.414-2.58-19.927-3.686c-0.567-0.096-1.742,0.777-1.922,1.404C426.597,153.273,425.088,159.149,423.485,165.194z
		 M449.974,341.86c-3.976-6.862-7.677-13.251-11.353-19.599c-5.171,1.863-10.148,3.656-15.142,5.456
		c1.934,6.945,3.777,13.568,5.608,20.144C436.298,345.79,443.134,343.825,449.974,341.86z"/>
	<path fill-rule="evenodd" clip-rule="evenodd" d="M415.687,296.883c-2.032,6.127-3.767,12.372-6.151,18.358
		c-6.813,17.111-16.481,32.587-28.514,46.454c-5.827,6.717-12.501,12.744-19.114,18.726c-10.599,9.585-22.612,17.2-35.354,23.563
		c-16.458,8.218-33.64,14.54-52.056,16.44c-10.843,1.118-21.812,1.909-32.689,1.609c-23.874-0.655-46.344-7.064-67.684-17.874
		c-19.901-10.081-37.288-23.4-52.36-39.672c-8.295-8.955-15.189-19.054-21.295-29.702c-6.248-10.897-11.273-22.29-14.748-34.304
		c-4.024-13.911-7.229-28.004-7.683-42.612c-0.389-12.54,0.019-25.021,2.325-37.351c2.398-12.817,5.972-25.329,10.846-37.453
		c6.192-15.401,14.773-29.394,24.96-42.429c2.003-2.563,4.44-4.786,6.678-7.165c0.604,1.187,1.208,2.374,1.812,3.561
		c-4.612,6.161-9.546,12.109-13.77,18.525c-9.055,13.757-16.17,28.452-20.998,44.293c-3.741,12.273-6.048,24.755-7.275,37.47
		c-1.511,15.649,0.055,31.086,3.223,46.442c3.66,17.731,10.261,34.296,19.151,49.992c10.313,18.208,24.063,33.455,40.407,46.406
		c23.161,18.354,49.059,30.56,78.399,35.384c19.734,3.244,39.327,2.809,58.858-0.975c13.1-2.538,25.798-6.585,37.656-12.771
		c9.052-4.723,18.134-9.525,26.604-15.186c9.848-6.58,18.531-14.67,26.625-23.406c13.285-14.338,23.767-30.43,31.266-48.442
		c2.683-6.443,4.892-13.084,7.317-19.636C413.311,295.716,414.498,296.299,415.687,296.883z"/>
	<path fill-rule="evenodd" clip-rule="evenodd" d="M415.687,296.883c-1.188-0.584-2.376-1.167-3.564-1.751
		c0.07-0.562,0.086-1.136,0.218-1.683c3.003-12.367,5.388-24.85,5.721-37.599c0.207-7.91,0.361-15.894-0.439-23.743
		c-1.417-13.92-4.218-27.604-9.331-40.732c-4.809-12.345-10.279-24.365-17.704-35.368c-10.395-15.405-22.882-28.871-37.933-39.882
		c-11.177-8.177-22.906-15.329-35.774-20.619c-11.235-4.617-22.74-8.472-34.639-10.558c-10.521-1.844-21.281-2.701-31.969-3.097
		c-7.051-0.262-14.199,0.784-21.233,1.751c-8.043,1.106-16.156,2.231-23.976,4.33c-10.927,2.933-21.521,6.947-31.698,12.052
		c-13.136,6.588-24.84,15.175-35.814,24.816c-4.447,3.907-8.603,8.146-12.891,12.232c-0.604-1.187-1.208-2.375-1.812-3.561
		c4.424-4.454,8.716-9.049,13.303-13.329c8.364-7.803,17.681-14.355,27.563-20.098c9.102-5.29,18.564-9.878,28.719-12.682
		c10.987-3.033,22.038-5.967,33.219-8.121c10.642-2.05,21.552-2.527,32.381-1.819c17.579,1.15,34.878,4.188,51.459,10.27
		c13.403,4.917,26.49,10.677,37.944,19.42c8.692,6.635,17.361,13.337,25.595,20.52c4.329,3.776,8.518,8.008,10.836,13.554
		c-0.06,0-0.119,0-0.179,0.001c0.055-0.029,0.109-0.059,0.163-0.088c0.693,0.391,1.599,0.618,2.048,1.198
		c9.842,12.696,18.383,26.163,23.939,41.333c2.606,7.115,5.52,14.171,7.415,21.481c3.959,15.267,6.502,30.859,5.4,46.662
		c-0.851,12.191-2.831,24.312-4.512,36.435C417.732,291.157,416.526,293.994,415.687,296.883z M383.631,142.339
		c0.063,0.06,0.138,0.179,0.188,0.169c0.14-0.025,0.271-0.104,0.405-0.163c-0.138-0.065-0.271-0.15-0.415-0.186
		C383.768,142.149,383.691,142.275,383.631,142.339z"/>
	<path fill-rule="evenodd" clip-rule="evenodd" d="M250.985,39.985c-3.178,4.623-5.985,8.698-8.782,12.782
		c-3.695,5.394-7.381,10.795-11.074,16.191c-0.265,0.388-0.49,0.942-0.864,1.09c-0.968,0.381-2.009,0.579-3.021,0.849
		c-0.254-0.985-0.999-2.194-0.67-2.913c1.003-2.196,2.316-4.275,3.694-6.272c5.387-7.8,10.9-15.514,16.258-23.334
		c3.282-4.791,5.981-4.712,9.024,0.13c2.932,4.666,6.214,9.111,9.339,13.656c3.452,5.022,6.916,10.037,10.337,15.08
		c0.762,1.124,1.504,2.652-0.249,3.274c-1.001,0.355-2.934-0.022-3.544-0.788c-2.575-3.233-4.834-6.72-7.167-10.144
		C259.943,53.24,255.648,46.873,250.985,39.985z"/>
	<path fill-rule="evenodd" clip-rule="evenodd" d="M250.32,459.432c5.99-8.355,11.713-16.362,17.472-24.344
		c0.873-1.209,1.972-2.254,2.854-3.457c0.924-1.257,2.01-2.252,3.44-1.071c1.449,1.196,0.5,2.412-0.375,3.647
		c-3.31,4.675-6.488,9.443-9.777,14.133c-3.346,4.769-6.771,9.481-10.148,14.227c-2.064,2.898-4.221,3.064-6.309,0.238
		c-3.74-5.063-7.354-10.222-10.998-15.354c-3.207-4.519-6.459-9.009-9.507-13.633c-0.561-0.851-0.719-2.974-0.229-3.317
		c1.378-0.966,2.871-0.67,4.034,1.01C237.17,440.752,243.654,449.93,250.32,459.432z"/>
	<path fill-rule="evenodd" clip-rule="evenodd" d="M345.416,61.72c-8.519,5.463-16.495,10.585-24.481,15.693
		c-1.184,0.756-2.346,1.771-3.647,2.042c-0.929,0.194-2.076-0.658-3.125-1.044c0.363-0.947,0.447-2.302,1.137-2.774
		c4.41-3.023,8.935-5.885,13.46-8.737c4.926-3.104,9.872-6.174,14.851-9.194c3.012-1.827,4.783-1.256,5.571,2.219
		c1.848,8.142,3.432,16.345,5.069,24.532c0.755,3.774,1.391,7.572,2.065,11.361c0.115,0.646,0.42,1.445,0.168,1.931
		c-0.455,0.883-1.151,1.995-1.963,2.215c-0.532,0.144-1.938-1.003-2.104-1.76c-1.009-4.583-1.747-9.225-2.625-13.837
		C348.39,77.003,346.95,69.649,345.416,61.72z"/>
	<path fill-rule="evenodd" clip-rule="evenodd" d="M156.058,61.642c-0.493,2.548-0.907,4.616-1.29,6.689
		c-1.82,9.879-3.656,19.755-5.416,29.645c-0.259,1.456-0.896,2.563-2.294,1.916c-0.883-0.41-1.916-1.927-1.803-2.811
		c0.569-4.474,1.476-8.905,2.293-13.347c1.392-7.561,2.827-15.116,4.202-22.681c0.747-4.11,3.075-5.477,6.503-3.291
		c7.659,4.881,15.154,10.019,22.739,15.015c1.147,0.755,2.414,1.337,3.649,1.95c1.724,0.855,2.398,2.278,1.568,3.939
		c-0.99,1.984-2.652,1.044-3.874,0.245c-5.509-3.607-10.928-7.352-16.417-10.99C162.807,65.856,159.619,63.903,156.058,61.642z"/>
	<path fill-rule="evenodd" clip-rule="evenodd" d="M87.61,119.717c2.655,10.768,5.166,20.934,7.661,31.103
		c0.199,0.811,0.594,1.75,0.357,2.445c-0.285,0.84-1.053,1.917-1.789,2.076c-0.604,0.131-1.924-0.79-2.138-1.486
		c-1.348-4.396-2.553-8.841-3.66-13.305c-1.736-6.996-3.361-14.02-5.026-21.033c-0.765-3.222,1.06-5.184,4.259-4.62
		c9.446,1.665,18.894,3.32,28.341,4.976c0.278,0.049,0.584,0,0.84,0.097c1.601,0.604,4.296,0.268,3.517,3.187
		c-0.691,2.588-2.791,1.786-4.668,1.447C106.206,122.961,97.096,121.384,87.61,119.717z"/>
	<path fill-rule="evenodd" clip-rule="evenodd" d="M413.678,119.737c-9.809,1.775-19.128,3.471-28.453,5.133
		c-0.823,0.147-1.887,0.391-2.483,0.02c-0.861-0.539-1.765-1.53-1.936-2.46c-0.103-0.557,1.073-1.86,1.815-1.985
		c10.64-1.79,21.293-3.5,31.966-5.076c3.018-0.445,4.372,1.522,3.598,4.994c-1.001,4.487-2.064,8.963-3.249,13.404
		c-1.813,6.79-3.705,13.561-5.712,20.294c-0.19,0.637-1.771,1.522-2.132,1.312c-0.78-0.458-1.266-1.513-1.707-2.405
		c-0.162-0.328,0.118-0.892,0.232-1.338c2.464-9.615,4.935-19.229,7.396-28.845C413.222,121.974,413.372,121.15,413.678,119.737z"/>
	<path fill-rule="evenodd" clip-rule="evenodd" d="M155.223,435.622c1.36-0.804,2.468-1.443,3.562-2.107
		c7.707-4.678,15.408-9.363,23.116-14.04c1.278-0.776,2.809-1.897,3.893-0.151c1,1.612-0.326,2.833-1.668,3.674
		c-7.92,4.972-15.847,9.934-23.801,14.85c-1.465,0.905-2.99,1.909-4.623,2.307c-3.268,0.795-4.081,0.073-4.688-3.368
		c-0.766-4.337-1.469-8.685-2.295-13.009c-1.267-6.633-2.618-13.248-3.924-19.872c-0.127-0.646-0.467-1.431-0.233-1.926
		c0.496-1.053,1.306-1.956,1.987-2.922c0.779,0.773,2.051,1.436,2.254,2.339c0.948,4.217,1.576,8.504,2.367,12.758
		C152.465,421.13,153.8,428.101,155.223,435.622z"/>
	<path fill-rule="evenodd" clip-rule="evenodd" d="M49.065,198.691c6.336,7.383,12.537,14.607,18.737,21.834
		c0.246,0.286,0.544,0.546,0.718,0.872c0.873,1.638,2.826,3.35,0.327,5.056c-2.417,1.65-2.963-0.941-3.986-2.145
		c-6.434-7.568-12.798-15.195-19.233-22.762c-3.05-3.586-2.795-5.233,1.691-7.017c8.532-3.392,17.142-6.585,25.712-9.879
		c1.049-0.404,2.058-0.915,3.078-1.39c1.578-0.736,2.983-0.654,3.803,1.061c0.882,1.844-0.261,2.888-1.79,3.469
		c-4.804,1.826-9.652,3.534-14.466,5.335C58.818,194.937,54.002,196.806,49.065,198.691z"/>
	<path fill-rule="evenodd" clip-rule="evenodd" d="M48.644,294.004c2.816,0.997,5.453,1.864,8.039,2.859
		c5.836,2.244,11.653,4.541,17.467,6.842c1.133,0.449,2.46,0.78,3.255,1.597c0.707,0.728,0.799,2.052,1.163,3.113
		c-0.911,0.246-1.967,0.919-2.709,0.667c-4.877-1.651-9.715-3.431-14.511-5.307c-5.089-1.991-10.155-4.054-15.16-6.245
		c-3.161-1.385-3.739-3.567-1.501-6.228c4.948-5.886,10.086-11.612,15.154-17.396c1.906-2.175,3.679-4.503,5.824-6.411
		c0.908-0.809,2.617-0.717,3.962-1.034c-0.098,1.198,0.263,2.789-0.37,3.528c-3.252,3.791-6.802,7.324-10.159,11.028
		c-1.479,1.633-2.73,3.468-4.114,5.188C52.933,288.754,50.858,291.282,48.644,294.004z"/>
	<path fill-rule="evenodd" clip-rule="evenodd" d="M86.128,374.736c4.554-0.345,8.385-0.57,12.202-0.938
		c5.705-0.549,11.397-1.225,17.102-1.784c1.667-0.164,3.331,0.546,3.258,2.249c-0.037,0.854-1.786,2.242-2.866,2.353
		c-10.377,1.063-20.776,1.925-31.172,2.799c-2.62,0.22-3.988-1.229-3.319-3.658c3.049-11.063,6.179-22.105,9.312-33.146
		c0.398-1.4,0.667-3.232,2.88-2.447c1.987,0.705,1.512,2.235,1.087,3.767C91.835,353.938,89.093,363.954,86.128,374.736z"/>
	<path fill-rule="evenodd" clip-rule="evenodd" d="M452.084,293.695c-3.928-4.652-7.575-9.026-11.282-13.35
		c-2.997-3.496-6.129-6.879-9.047-10.438c-0.564-0.688-0.416-1.964-0.596-2.968c1.128-0.053,2.612-0.587,3.313-0.065
		c1.837,1.366,3.429,3.107,4.942,4.853c5.635,6.493,11.187,13.059,16.797,19.573c1.96,2.273,1.838,4.271-0.884,5.704
		c-3.469,1.825-7.106,3.345-10.729,4.866c-5.413,2.274-10.85,4.5-16.33,6.61c-1.943,0.749-4.729,2.072-5.618-0.722
		c-0.832-2.614,2.289-2.864,4.058-3.604C434.912,300.727,443.146,297.372,452.084,293.695z"/>
	<path fill-rule="evenodd" clip-rule="evenodd" d="M414.873,374.974c-2.709-9.302-5.332-18.277-7.929-27.261
		c-0.44-1.524-1.031-3.075-1.062-4.623c-0.02-1.054,0.818-2.122,1.272-3.185c0.904,0.738,2.346,1.313,2.631,2.242
		c2.549,8.316,4.944,16.682,7.274,25.063c0.79,2.84,1.386,5.747,1.848,8.658c0.353,2.221-0.781,3.343-3.106,3.19
		c-7.187-0.473-14.377-0.882-21.561-1.388c-2.714-0.192-5.439-0.441-8.105-0.95c-1.173-0.225-2.449-0.943-3.25-1.826
		c-0.985-1.086,0.44-2.871,2.222-2.736c3.086,0.232,6.16,0.627,9.241,0.918C400.967,373.7,407.588,374.302,414.873,374.974z"/>
	<path fill-rule="evenodd" clip-rule="evenodd" d="M321.489,420.822c2.815,1.677,5.659,3.307,8.438,5.04
		c5.17,3.223,10.301,6.505,15.563,9.835c2.119-9.997,4.214-19.828,6.274-29.668c0.345-1.649,0.61-3.323,0.783-4.999
		c0.206-2.005,1.695-2.329,3.016-1.876c0.685,0.234,1.443,1.871,1.284,2.705c-2.265,11.801-4.673,23.574-7.066,35.352
		c-0.674,3.314-2.918,4.268-6.156,2.358c-6.706-3.952-13.325-8.051-19.961-12.12c-1.178-0.723-2.266-1.595-3.396-2.397
		C320.676,423.642,321.082,422.231,321.489,420.822z"/>
	<path fill-rule="evenodd" clip-rule="evenodd" d="M432.272,222.071c3.352-4.13,6.649-8.306,10.071-12.377
		c3.022-3.596,6.184-7.075,9.664-11.04c-4.002-1.406-7.883-2.702-11.715-4.133c-5.694-2.127-11.345-4.375-17.034-6.518
		c-1.913-0.721-2.789-2.08-2.05-3.901c0.911-2.242,2.569-1.046,4.039-0.477c9.598,3.715,19.2,7.411,28.804,11.107
		c3.003,1.155,3.876,3.105,1.988,5.609c-2.553,3.386-5.524,6.452-8.247,9.714c-3.842,4.608-7.585,9.3-11.45,13.889
		c-0.883,1.048-2.091,1.822-3.149,2.723C434.115,224.889,435.183,223.081,432.272,222.071z"/>
	<path fill-rule="evenodd" clip-rule="evenodd" d="M321.489,420.822c-0.407,1.409-0.813,2.819-1.221,4.229
		c-1.261-0.762-2.766-1.307-3.697-2.359c-0.646-0.729-0.5-2.159-0.708-3.275c0.995-0.048,2.046-0.317,2.969-0.083
		C319.783,419.574,320.609,420.306,321.489,420.822z"/>
	<path fill-rule="evenodd" clip-rule="evenodd" d="M432.272,222.071c2.91,1.01,1.843,2.817,0.921,4.596
		c-0.837-0.297-1.674-0.593-2.51-0.89C431.214,224.542,431.742,223.307,432.272,222.071z"/>
	<path fill-rule="evenodd" clip-rule="evenodd" d="M114.273,329.786c-2.049-3.678-4.2-7.301-6.127-11.041
		c-6.322-12.266-10.669-25.26-13.123-38.791c-2.657-14.654-3.574-29.423-2.326-44.372c1.31-15.689,5.004-30.733,10.654-45.317
		c7.395-19.089,18.613-35.745,32.563-50.709c10.294-11.043,21.957-20.224,35.091-27.538c15.204-8.465,31.274-14.633,48.487-17.649
		c15.441-2.705,30.963-3.587,46.585-2.226c9.729,0.848,19.173,3.13,28.576,5.735c13.485,3.736,26.129,9.349,38.198,16.319
		c3.77,2.178,7.349,4.695,10.961,7.138c0.726,0.49,1.204,1.346,1.797,2.033c0.075,0.105,0.149,0.212,0.225,0.318l-0.055,0.227
		c0.146,1.333,1.603,2.799-0.397,3.914c-0.857-0.54-1.741-1.04-2.567-1.622c-14.834-10.458-30.847-18.409-48.276-23.676
		c-12.058-3.645-24.281-5.893-36.817-6.396c-14.146-0.566-28.109,0.823-42.013,3.69c-18.573,3.83-35.612,11.105-51.344,21.497
		c-15.466,10.215-28.321,23.181-39.135,38.211c-9.734,13.53-16.983,28.289-21.877,44.195c-4.306,13.994-7.164,28.314-7.003,42.977
		c0.102,9.286,1.086,18.606,2.318,27.825c1.467,10.969,4.125,21.722,8.873,31.804c3.867,8.21,7.993,16.298,12.004,24.44
		c-0.5,0.183-1.077,0.621-1.487,0.499C116.763,330.89,115.53,330.297,114.273,329.786z"/>
	<path fill-rule="evenodd" clip-rule="evenodd" d="M345.383,127.828c2-1.115,0.544-2.581,0.397-3.914
		c1.001,0.377,2.169,0.539,2.978,1.164c10.771,8.321,19.965,18.182,28.203,28.981c13.154,17.243,22.481,36.334,27.369,57.468
		c3.496,15.118,4.548,30.516,3.722,46c-0.798,14.955-3.379,29.634-8.288,43.798c-3.777,10.896-8.781,21.27-14.836,31.11
		c-8.832,14.355-19.379,27.224-32.732,37.649c-1.427-0.371-3.129-0.328-3.474-2.319c0.555-0.625,1.07-1.29,1.671-1.867
		c4.598-4.427,9.346-8.706,13.775-13.295c3.123-3.234,6.154-6.656,8.636-10.389c5.426-8.158,11.045-16.272,15.53-24.95
		c5.455-10.553,8.878-21.92,11.611-33.581c5.652-24.104,5.381-48.095-0.114-72.034c-2.832-12.335-7.694-24.028-13.738-35.204
		c-6.202-11.465-13.717-21.98-22.762-31.333C357.561,139.146,351.379,133.575,345.383,127.828z"/>
	<path fill-rule="evenodd" clip-rule="evenodd" d="M348.722,367.766c0.345,1.991,2.047,1.948,3.474,2.319
		c-6.184,4.539-12.189,9.354-18.606,13.536c-5.646,3.68-11.641,6.876-17.683,9.885c-9.941,4.952-20.302,9.058-31.261,10.915
		c-10.92,1.85-21.977,3.528-33.015,3.845c-9.395,0.27-18.892-1.18-28.265-2.453c-13.57-1.843-26.175-6.734-38.658-12.356
		c-12.927-5.821-24.718-13.215-35.5-22.224c-13.833-11.56-25.872-24.755-34.708-40.632c-0.133-0.24-0.154-0.542-0.228-0.814
		c1.257,0.511,2.489,1.104,3.783,1.485c0.411,0.122,0.987-0.316,1.487-0.499c6.962,10.671,15.088,20.338,24.167,29.308
		c11.35,11.215,24.152,20.366,38.292,27.522c14.043,7.109,28.841,12.014,44.559,14.403c19.256,2.927,38.259,2.31,57.195-1.827
		c11.218-2.452,21.831-6.701,32.046-11.869c6.835-3.459,13.614-7.079,20.143-11.077C340.448,374.475,344.48,370.948,348.722,367.766
		z"/>
	<path fill-rule="evenodd" clip-rule="evenodd" d="M260.724,233.892c8.426,4.51,11.716,13.383,9.796,22.577
		c-3.169,15.185-19.406,24.469-35.733,16.26c-12.021-6.043-17.813-20.708-15.312-33.68c3.441-17.849,19.941-25.92,34.352-25.055
		c22.45,1.35,36.145,18.934,35.278,39.22c-0.773,18.137-11.481,33.227-28.703,39.317c-14.563,5.15-28.592,3.27-41.233-6.456
		c-10.399-8-16.665-18.572-18.25-31.282c-1.955-15.685,1.271-30.327,12.899-42.093c10.235-10.357,22.466-16.581,37.228-15.513
		c22.302,1.614,38.924,12.246,47.901,33.191c3.913,9.131,3.991,18.894,2.396,28.623c-1.276,7.791-4.441,14.866-8.662,21.477
		c-5.35,8.381-12.592,14.697-21.392,19.262c-0.66,0.343-1.41,0.794-2.09,0.749c-0.874-0.057-1.718-0.564-2.575-0.879
		c0.323-0.763,0.484-1.675,1.013-2.247c0.613-0.664,1.524-1.079,2.351-1.519c11.668-6.2,19.67-15.891,24.403-27.874
		c7.838-19.844,3.35-41.955-14.537-55.479c-9.137-6.908-19.174-11.017-30.744-10.939c-10.691,0.073-20.001,3.843-28.14,10.644
		c-13.539,11.313-18.407,25.878-15.393,42.997c2.527,14.356,10.148,25.408,23.509,31.759c8.068,3.834,16.613,4.278,25.517,2.626
		c16.817-3.119,31.398-21.755,30.495-38.892c-0.893-16.96-11.162-28.545-27.606-32.063c-9.169-1.961-17.673,0.325-24.901,6.049
		c-6.376,5.05-9.206,12.275-9.463,20.32c-0.278,8.677,2.791,16.136,9.847,21.356c10.996,8.136,23.003,6.69,30.647-3.955
		c5.969-8.311,4.515-20.488-5.501-25.085c-0.466-0.214-0.805-0.705-1.202-1.067c0.098-0.197,0.193-0.395,0.291-0.591
		C258.381,235.065,259.552,234.479,260.724,233.892z"/>
	<path fill-rule="evenodd" clip-rule="evenodd" d="M167.533,280.734c3.691,0.744,8.639,1.745,13.587,2.737
		c6.555,1.315,12.976,1.37,19.184-1.675c0.757-0.372,1.984,0.214,2.993,0.355c-0.326,1.143-0.295,2.881-1.039,3.325
		c-4.021,2.41-8.563,3.684-13.193,3.232c-6.419-0.627-12.842-1.597-19.145-2.966c-10.457-2.27-21.162,4.874-24.848,11.815
		c-4.249,8-8.014,16.256-12.031,24.379c-0.741,1.499-1.563,2.995-2.594,4.296c-0.446,0.563-1.986,1.074-2.214,0.835
		c-0.599-0.63-1.238-1.855-0.998-2.543c1.378-3.957,2.925-7.863,4.568-11.721c3.235-7.595,6.84-14.983,12.283-21.324
		C149.909,284.699,157.275,281.243,167.533,280.734z"/>
	<path fill-rule="evenodd" clip-rule="evenodd" d="M263.021,306.707c-0.263,6.414-2.511,11.069-5.75,15.142
		c-3.446,4.335-7.183,8.469-11.072,12.415c-9.612,9.751-10.358,21.84-4.26,33.078c4.447,8.195,10.052,15.76,14.997,23.693
		c0.521,0.835,0.559,2.742-0.02,3.334c-1.279,1.314-2.771,0.669-3.713-0.843c-4.975-7.985-10.299-15.782-14.789-24.032
		c-4.823-8.859-5.527-18.445-2.004-28.01c2.011-5.463,5.938-9.688,10.078-13.72c5.559-5.414,10.267-11.429,12.197-19.178
		c0.09-0.359,0.224-0.727,0.219-1.089c-0.026-1.683,0.465-3.331,2.343-3.042C262.124,304.592,262.753,306.338,263.021,306.707z"/>
	<path fill-rule="evenodd" clip-rule="evenodd" d="M354.694,274.706c-10.837,0.063-17.624-3.432-23.628-8.777
		c-3.442-3.064-6.702-6.355-10.329-9.182c-2.626-2.046-5.704-3.521-8.609-5.201c-1.344-0.777-3.437-1.218-2.56-3.314
		c0.901-2.156,2.881-1.305,4.39-0.654c5.753,2.478,10.676,6.154,15.389,10.28c4.324,3.785,8.973,7.269,13.795,10.397
		c4.452,2.888,9.628,2.25,14.532,1.247c9.494-1.943,18.008-6.162,25.959-11.662c2.681-1.854,5.665-3.317,8.649-4.65
		c0.754-0.336,2.038,0.519,3.079,0.826c-0.345,0.847-0.446,2.07-1.076,2.479c-4.153,2.699-8.354,5.338-12.668,7.77
		c-4.478,2.523-8.925,5.26-13.706,7.04C362.893,273.173,357.493,274.016,354.694,274.706z"/>
	<path fill-rule="evenodd" clip-rule="evenodd" d="M180.51,363.191c0.13-9.854-0.756-19.707,2.525-29.331
		c3.06-8.974,8.957-14.778,17.878-17.784c5.771-1.945,11.877-3.206,16.909-6.861c2.614-1.898,4.739-4.459,7.27-6.49
		c0.966-0.776,2.863-1.627,3.613-1.194c1.774,1.026,0.687,2.646-0.293,3.814c-4.986,5.94-11.247,9.852-18.645,12.252
		c-4.703,1.524-9.258,3.597-13.71,5.771c-3.861,1.885-6.105,5.398-7.918,9.216c-3.908,8.227-3.084,16.984-3.004,25.659
		c0.05,5.551,0.182,11.101,0.337,16.649c0.04,1.398,0.04,2.975-1.684,2.813c-0.883-0.083-2.225-1.483-2.345-2.419
		C180.925,371.28,180.786,367.228,180.51,363.191z"/>
	<path fill-rule="evenodd" clip-rule="evenodd" d="M188.688,256.782c-3.649-1.31-7.156-2.008-10.052-3.731
		c-5.142-3.061-10.147-6.454-14.791-10.225c-9.89-8.029-20.547-8.136-31.334-2.945c-6.706,3.227-12.78,7.764-19.159,11.68
		c-1.277,0.784-2.583,1.625-3.993,2.058c-1.172,0.359-3.164,0.696-3.659,0.101c-1.331-1.601,0.341-2.754,1.539-3.562
		c5.597-3.775,11.3-7.395,16.889-11.182c6.245-4.231,13.307-5.899,20.622-6.772c7.428-0.887,13.946,1.593,19.939,5.742
		c5.684,3.935,11.218,8.1,17.052,11.796c2.028,1.286,4.808,1.329,7.135,2.224c1.126,0.433,1.998,1.524,2.984,2.317
		C190.868,255.064,189.877,255.846,188.688,256.782z"/>
	<path fill-rule="evenodd" clip-rule="evenodd" d="M356.791,329.887c-7.33-0.978-14.92-1.071-21.93-3.136
		c-11.173-3.289-19.822-10.197-23.724-21.811c-1.372-4.087-2.393-8.318-4.1-12.256c-1.382-3.189-3.455-6.104-5.413-9.012
		c-0.97-1.441-1.957-2.717-0.378-4.189c1.743-1.627,2.87-0.145,3.956,1.033c4.136,4.486,6.028,10.043,7.738,15.754
		c1.333,4.458,2.328,9.333,4.91,13.016c2.715,3.87,6.998,6.729,10.872,9.662c2.041,1.546,4.57,2.786,7.062,3.327
		c5.096,1.107,10.292,1.936,15.488,2.347c5.892,0.465,11.833,0.268,17.741,0.574c0.797,0.041,1.53,1.335,2.293,2.05
		c-0.844,0.685-1.658,1.915-2.536,1.963c-3.953,0.215-7.925,0.093-11.889,0.093C356.852,329.497,356.821,329.692,356.791,329.887z"
		/>
	<path fill-rule="evenodd" clip-rule="evenodd" d="M333.941,223.423c-3.338-0.884-8.813-2.146-14.165-3.805
		c-5.056-1.568-10.021-1.125-15.042-0.168c-1.352,0.257-2.769,1.057-3.439-1.048c-0.699-2.189,0.768-2.515,2.292-2.937
		c7.698-2.136,15.196-1.001,22.531,1.561c7.489,2.614,15.063,3.339,21.994-0.802c4.417-2.64,8.604-6.214,11.789-10.242
		c5.281-6.68,9.129-14.354,12.196-22.353c0.37-0.967,0.617-2.106,1.297-2.794c0.722-0.73,1.892-1.017,2.865-1.497
		c0.387,1.11,1.335,2.393,1.057,3.298c-0.822,2.68-2.107,5.22-3.25,7.798c-3.55,8.01-7.909,15.558-13.785,22.07
		C353.896,219.581,345.86,223.388,333.941,223.423z"/>
	<path fill-rule="evenodd" clip-rule="evenodd" d="M218.275,199.862c-3.399,0.42-3.766-2.053-4.223-3.999
		c-1.792-7.64-1.539-15.27,0.557-22.838c3.607-13.027-0.081-21.035-10.413-29.997c-6.82-5.915-15.39-8.514-23.312-12.343
		c-1.513-0.731-3.124-1.349-4.452-2.338c-0.63-0.469-1.001-1.727-0.896-2.553c0.052-0.411,1.552-1.069,2.206-0.896
		c2.436,0.644,4.859,1.433,7.166,2.445c9.056,3.975,17.965,8.23,25.361,15.011c9.378,8.597,11.418,19.316,8.624,31.215
		c-1.758,7.487-2.847,14.872-0.41,22.417C218.827,197.05,218.378,198.368,218.275,199.862z"/>
	<path fill-rule="evenodd" clip-rule="evenodd" d="M311.391,347.321c-0.051-8.929-2.807-11.865-9.749-14.464
		c-3.555-1.331-9.473,1.336-11.39,4.839c-2.335,4.265-1.733,7.736,1.911,11.023c1.782,1.606,5.926,1.227,7.316-0.746
		c1.005-1.424,0.696-2.692-0.92-3.396c-1.547-0.672-2.877-1.476-1.62-3.281c1.17-1.68,2.831-1.648,4.476-0.512
		c3.795,2.625,3.317,9.964-0.874,12.056c-8.906,4.445-16.283-3.131-16.013-9.921c0.316-7.946,4.61-13.076,12.664-14.685
		c6.49-1.297,14.038,2.942,16.747,9.309c3.025,7.114,1.874,14.204,0,21.295c-0.479,1.81-1.145,3.569-1.716,5.355
		c-0.538,1.685-1.897,2.328-3.281,1.653c-0.646-0.315-1.102-2.029-0.888-2.93c1.226-5.164,2.678-10.274,4.054-15.403
		C311.869,347.451,311.63,347.386,311.391,347.321z"/>
	<path fill-rule="evenodd" clip-rule="evenodd" d="M146.219,176.656c10.234-0.443,20.079,1.234,27.851,8.372
		c3.432,3.152,6.024,7.427,8.306,11.572c3.327,6.042,5.921,12.485,9.068,18.635c0.954,1.863,2.634,3.386,4.114,4.939
		c0.928,0.975,2.312,1.808,0.958,3.211c-1.3,1.348-2.6,0.811-3.91-0.404c-4.639-4.305-8.009-9.395-10.228-15.323
		c-2.135-5.705-4.055-11.518-8.073-16.326c-5.596-6.698-13.281-8.975-21.413-10.155c-6.915-1.003-13.857-0.891-20.779,0.301
		c-1.842,0.317-3.781,0.304-5.649,0.139c-0.829-0.073-1.591-0.902-2.384-1.388c0.654-0.791,1.188-2.092,1.984-2.279
		c2.726-0.642,5.534-1.102,8.329-1.243C138.325,176.508,142.276,176.656,146.219,176.656z"/>
	<path fill-rule="evenodd" clip-rule="evenodd" d="M327.238,139.902c-0.793,7.69-1.246,15.435-2.46,23.058
		c-1.789,11.242-11.185,20.055-22.361,22.784c-7.416,1.811-14.735,4.305-20.231,10.267c-0.626,0.679-2.44,0.262-3.703,0.353
		c0.026-1.084-0.371-2.519,0.172-3.177c1.021-1.238,2.603-2.005,3.918-3.011c1.122-0.859,2.065-2.107,3.318-2.615
		c5.538-2.246,11.013-4.898,16.779-6.276c12.869-3.076,19.483-16.746,19.686-26.914c0.181-9.036,0.058-18.079,0.072-27.118
		c0.002-0.656-0.166-1.422,0.111-1.942c0.443-0.832,1.193-1.5,1.814-2.236c0.711,0.783,2.004,1.542,2.036,2.353
		c0.194,4.794,0.096,9.6,0.096,14.402C326.736,139.854,326.987,139.878,327.238,139.902z"/>
	<path fill-rule="evenodd" clip-rule="evenodd" d="M254.635,114.412c-3.167-1.649-4.102-4.953-5.592-7.794
		c-0.266-0.507,0.584-2.289,0.883-2.28c1.079,0.03,2.569,0.249,3.136,0.986c2.153,2.802,4.281,5.692,5.916,8.813
		c3.238,6.186,6.504,12.4,9.108,18.865c5.029,12.482,3.311,23.875-5.887,34.208c-4.015,4.511-7.07,9.909-10.302,15.065
		c-1.058,1.687-1.175,3.936-1.968,5.825c-0.328,0.784-1.301,1.299-1.98,1.936c-0.634-0.864-1.942-1.879-1.788-2.564
		c0.776-3.451,1.319-7.19,3.104-10.124c2.849-4.686,6.39-9.012,10.039-13.136c6.103-6.896,8.942-14.508,7.04-23.763
		c-1.41-6.861-4.987-12.677-8.21-18.698c-1.294-2.418-2.389-4.943-3.579-7.424c0.023-0.153,0.051-0.299,0.078-0.446
		C254.634,114.058,254.635,114.235,254.635,114.412z M262.403,124.66c0.017,0.051,0.019,0.128,0.054,0.147
		c0.061,0.034,0.142,0.033,0.214,0.046c-0.023-0.094-0.047-0.189-0.069-0.283C262.535,124.601,262.469,124.63,262.403,124.66z"/>
	<path fill-rule="evenodd" clip-rule="evenodd" d="M251.141,343.559c1.843-2.633,6.865-3.438,10.783-1.726
		c7.603,3.319,11.407,10.858,9.809,19.098c-1.399,7.213-4.533,13.433-9.893,18.512c-1.269,1.203-2.721,2.217-4.121,0.769
		c-1.45-1.501-0.224-2.694,1.024-3.969c5.802-5.919,9.884-12.753,8.902-21.395c-0.761-6.696-7.889-10.947-13.947-8.669
		c-3.169,1.191-3.767,4.14-4.319,7.039c-0.504,2.636-0.039,5.015,2.48,6.284c0.89,0.449,2.426,0.16,3.392-0.333
		c0.423-0.217,0.162-1.785,0.2-2.741c0.041-1.007-0.289-2.3,0.216-2.932c0.384-0.48,1.978-0.448,2.756-0.071
		c2.243,1.085,2.942,3.204,2.305,5.452c-1.622,5.724-6.248,7.989-11.941,3.961c-3.874-2.742-4.803-7.069-2.899-12.71
		c0.77-2.282,1.054-5.073,4.094-5.834c0.328-0.14,0.657-0.28,0.985-0.421l0.153-0.074c0,0-0.05-0.163-0.05-0.162
		s0.17,0.025,0.17,0.025L251.141,343.559z M250.179,345.154c-0.14,0.068-0.276,0.136-0.414,0.203
		c0.062,0.052,0.135,0.158,0.182,0.147c0.142-0.032,0.272-0.109,0.407-0.168C250.298,345.277,250.241,345.22,250.179,345.154z"/>
	<path fill-rule="evenodd" clip-rule="evenodd" d="M151.317,325.387c-2.599-0.269-5.215-0.425-7.789-0.841
		c-1.88-0.304-2.746-1.777-2.323-3.53c0.464-1.924,2.139-1.419,3.514-1.151c6.755,1.322,13.498,1.603,19.896-1.332
		c6.802-3.12,8.178-13.093,2.335-17.061c-4.068-2.763-7.676-2.589-10.831,0.904c-0.942,1.044-1.355,2.81-1.452,4.279
		c-0.055,0.856,1,1.784,1.554,2.68c0.815-0.525,1.59-1.135,2.456-1.557c1.039-0.506,2.155-0.851,3.237-1.266
		c0.221,0.995,0.779,2.057,0.598,2.973c-0.573,2.901-2.563,4.303-5.429,4.163c-3.151-0.153-6.322-3.037-6.786-6.171
		c-0.895-6.039,5.326-12.674,11.462-12.225c10.221,0.748,15.825,10.637,11.673,20.091c-3.336,7.596-9.998,8.903-17.007,9.784
		c-1.672,0.209-3.393,0.03-5.091,0.03C151.33,325.234,151.323,325.311,151.317,325.387z"/>
	<path fill-rule="evenodd" clip-rule="evenodd" d="M357.666,235.58c6.114,0.389,10.847,1.811,14.651,5.616
		c2.332,2.332,4.857,4.48,7.061,6.924c0.586,0.649,0.304,2.084,0.421,3.157c-1.171-0.087-2.688,0.267-3.455-0.336
		c-3.316-2.606-6.188-5.818-9.64-8.204c-6.236-4.312-15.885-3.259-19.823,4.567c-1.601,3.18-0.237,7.748,3.135,10.024
		c3.436,2.318,7.009,2.069,9.339-0.855c0.566-0.711,1.013-2.3,0.626-2.809c-0.608-0.798-1.957-1.356-3.018-1.398
		c-1.225-0.048-2.963,1.024-3.051-0.974c-0.046-1.053,1.228-2.641,2.307-3.17c2.645-1.298,4.823-0.328,6.957,2.522
		c1.762,2.354,1.906,5.863,0.07,8.129c-3.338,4.122-8.459,6.361-13.96,3.134c-4.379-2.57-7.505-5.817-7.108-11.181
		c0.479-6.505,3.821-11.231,9.858-13.772C354.058,236.104,356.348,235.889,357.666,235.58z"/>
	<path fill-rule="evenodd" clip-rule="evenodd" d="M168.779,201.626c0.563,8.986-8.901,15.174-16.389,13.738
		c-9.943-1.909-14.984-8.542-18.125-17.34c-0.472-1.323-1.171-2.723-1.081-4.041c0.083-1.214,1.087-2.365,1.686-3.543
		c0.896,0.75,2.351,1.353,2.598,2.277c1.34,5.015,2.963,9.796,6.725,13.626c3.881,3.951,11.401,6.892,16.475,3.371
		c3.167-2.197,4.88-6.031,3.5-10.208c-1.215-3.678-5.535-6.716-8.872-5.872c-1.153,0.291-2.458,1.499-2.873,2.598
		c-0.237,0.628,1.174,1.884,1.854,2.85c0.735,1.044,1.482,2.08,2.225,3.12c-1.346,0.411-2.993,1.509-3.972,1.08
		c-1.604-0.703-3.516-2.175-3.973-3.717c-0.962-3.234-0.398-6.513,2.637-8.799c2.268-1.708,4.831-2.101,7.502-1.424
		C163.176,190.477,169.051,194.699,168.779,201.626z"/>
	<path fill-rule="evenodd" clip-rule="evenodd" d="M345.909,196.758c-0.288,0.335-0.595,0.573-0.745,0.887
		c-0.758,1.576-1.892,3.106-3.627,1.824c-1.704-1.259-1.058-3.157,0.101-4.728c1.68-2.276,3.98-2.585,6.387-1.674
		c2.473,0.938,4.341,2.611,4.625,5.5c0.416,4.219-1.791,8.974-4.924,10.611c-4.174,2.179-9.952,1.326-13.522-1.394
		c-10.243-7.805-3.901-23.279,5.269-26.478c7.059-2.462,14.285-1.821,21.347,0.304c0.999,0.301,2.404,1.677,2.367,2.499
		c-0.083,1.841-1.693,2.427-3.464,2.12c-3.41-0.592-6.791-1.489-10.226-1.777c-5.921-0.498-11.147,1.011-14.581,6.395
		c-2.352,3.686-2.471,7.391-0.086,11.107c2.078,3.239,4.99,4.71,8.86,4.146c2.581-0.375,4.624-2.25,4.918-4.667
		C348.872,199.275,348.243,197.574,345.909,196.758z"/>
	<path fill-rule="evenodd" clip-rule="evenodd" d="M313.961,160.005c0.635,6.16-5.271,10.642-11.063,11.125
		c-6.017,0.501-12.261-3.995-13.789-9.849c-2.139-8.191,1.188-14.29,7.28-19.309c4.368-3.599,9.488-5.676,15.021-6.636
		c0.816-0.142,1.822,0.81,2.74,1.255c-0.707,1.084-1.175,2.728-2.164,3.151c-3.428,1.466-7.197,2.171-10.543,3.778
		c-7.101,3.412-10.288,10.907-7.854,17.515c1.43,3.879,5.023,5.933,9.724,5.557c3.371-0.269,6.081-2.331,6.38-5.669
		c0.153-1.706-0.631-3.845-1.712-5.22c-1.238-1.575-3.355-0.712-3.499,1.267c-0.128,1.778-1.048,2.829-2.597,2.586
		c-0.752-0.118-1.665-1.533-1.857-2.491c-0.702-3.492,2.939-6.809,6.712-6.3C311.729,151.438,314.232,154.642,313.961,160.005z"/>
	<path fill-rule="evenodd" clip-rule="evenodd" d="M176.377,151.662c0.663-2.976,1.453-6.721,2.349-10.441
		c0.335-1.391,0.858-2.91,2.815-2.264c1.977,0.653,1.735,2.248,1.202,3.732c-1.69,4.701-2.104,9.566-1.463,14.443
		c0.736,5.597,3.545,10.221,9.401,11.663c3.266,0.804,8.371-0.859,10.043-3.505c1.809-2.861,1.366-7.924-1.308-10.448
		c-1-0.943-2.866-1.58-4.22-1.413c-3.025,0.373-3.448,2.271-1.549,4.655c0.626,0.787,0.658,2.048,0.963,3.092
		c-1.397-0.063-3.089,0.355-4.136-0.284c-2.604-1.587-2.435-4.552-1.663-6.868c0.598-1.794,2.266-3.823,3.969-4.549
		c5.498-2.344,12.101,2.518,12.888,8.88c1.552,12.544-9.386,17.133-17.784,14.478c-5.709-1.804-8.98-6.418-10.355-12.167
		C176.899,158.034,176.818,155.27,176.377,151.662z"/>
	<path fill-rule="evenodd" clip-rule="evenodd" d="M140.241,271.369c-5.141-0.416-9.897-1.846-13.928-5.267
		c-1.74-1.477-3.592-2.82-5.31-4.32c-0.745-0.651-1.505-1.463-1.827-2.356c-0.231-0.644,0.011-1.803,0.49-2.254
		c0.437-0.412,1.572-0.424,2.23-0.171c0.829,0.318,1.521,1.044,2.21,1.664c4.827,4.346,9.973,8.022,16.819,8.25
		c4.307,0.143,8.69-2.908,10.21-7.129c1.491-4.142,0.359-8.261-3.202-10.813c-1.97-1.412-4.171-1.898-6.618-0.875
		c-2.149,0.899-2.241,2.725-2.556,4.554c-0.319,1.859,0.466,2.131,2.195,2.152c1.089,0.013,2.165,1.115,3.247,1.729
		c-0.852,0.947-1.546,2.446-2.583,2.741c-3.577,1.021-7.112-1.944-7.334-5.817c-0.419-7.328,6.684-11.723,14.312-8.984
		c6.312,2.267,8.779,8.444,6.965,15.285C153.944,265.859,148.277,272.222,140.241,271.369z"/>
	<path fill-rule="evenodd" clip-rule="evenodd" d="M213.128,338.393c-0.891-0.47-1.81-0.894-2.668-1.416
		c-5.751-3.502-12.199-2.006-13.669,5.656c-0.256,1.337,0.187,3.009,0.843,4.24c0.352,0.661,1.86,0.998,2.817,0.945
		c0.685-0.037,1.519-0.848,1.922-1.528c0.401-0.676,0.187-1.699,0.536-2.43c0.387-0.811,1.107-1.461,1.682-2.182
		c0.605,0.595,1.514,1.084,1.763,1.803c1.249,3.599-0.609,7.078-4.222,8.205c-4.023,1.256-8.331-0.639-9.394-4.464
		c-2.103-7.556,3.232-17.094,13.388-16.123c13.731,1.313,15.147,16.783,8.996,25.145c-3.083,4.19-7.065,7.128-11.917,9.022
		c-1.815,0.709-3.365,2.084-5.169,2.835c-1.007,0.42-2.965,0.654-3.317,0.15c-1.022-1.468-0.164-2.842,1.392-3.638
		c2.083-1.067,4.364-1.851,6.236-3.203c3.245-2.345,6.543-4.749,9.27-7.646c3.898-4.144,2.888-9.416,2.252-14.465
		c0.091-0.182,0.183-0.363,0.274-0.546c0.167-0.028,0.333-0.057,0.499-0.084c-0.157-0.146-0.314-0.29-0.471-0.436
		c-0.074-0.252-0.148-0.506-0.222-0.758C213.677,337.782,213.403,338.088,213.128,338.393z"/>
	<path fill-rule="evenodd" clip-rule="evenodd" d="M259.737,144.492c-0.155,6.014-3.673,11.519-8.691,12.75
		c-5.567,1.366-10.877-0.72-14.136-5.141c-7.133-9.68-3.734-20.312,4.907-28.235c1.042-0.956,2.013-2.153,3.254-2.676
		c0.999-0.421,2.356,0.008,3.556,0.06c-0.323,0.977-0.376,2.21-1.016,2.888c-3.586,3.787-7.96,7.033-9.407,12.339
		c-1.824,6.689-0.141,15.458,8.785,16.679c3.359,0.459,5.933-0.894,7.596-4.06c1.452-2.766,1.141-6.06-1.063-8.212
		c-0.627-0.613-2.018-1-2.792-0.73c-0.632,0.221-1.425,1.821-1.178,2.385c0.853,1.944,0.138,3.097-1.599,3.27
		c-2.051,0.205-2.97-1.323-3.073-3.257c-0.154-2.893,2.418-6.799,4.779-7.333c3.514-0.794,7.454,0.928,8.72,4.106
		C259.163,141.294,259.476,143.454,259.737,144.492z"/>
	<path fill-rule="evenodd" clip-rule="evenodd" d="M354.465,301.884c-2.928-3.262-5.668-6.661-10.058-8.246
		c-4.021-1.451-7.313-0.604-10.375,2.158c-3.146,2.836-4.258,6.125-3.057,10.31c1.022,3.565,8.186,6.461,10.356,3.438
		c0.584-0.814,1.163-2.044,0.959-2.895c-0.186-0.773-1.509-1.223-2.204-1.938c-0.787-0.811-1.434-1.757-2.143-2.645
		c0.934-0.593,1.874-1.696,2.797-1.679c2.687,0.05,5.561,2.681,6.085,5.093c0.634,2.917-0.79,6.158-3.404,7.748
		c-3.984,2.425-9.914,2.27-12.949-0.339c-3.625-3.117-4.97-10.013-2.991-14.857c5.01-12.269,17.75-11.013,24.747-5.089
		c2.548,2.158,4.125,5.461,6.146,8.241C357.071,301.417,355.768,301.65,354.465,301.884z"/>
	<path fill-rule="evenodd" clip-rule="evenodd" d="M260.724,233.892c-1.172,0.587-2.343,1.174-3.515,1.761
		c-0.077,0.204-0.153,0.407-0.229,0.611c-3.821,0.025-7.77-0.476-11.046,2.174c-3.302,2.671-5.823,7.353-3.376,12.225
		c1.165,2.319,3.054,3.334,5.51,3.06c2.392-0.267,3.989-1.42,3.673-4.249c-0.19-1.695,0.174-3.52,2.295-3.471
		c2.416,0.056,2.3,2.056,2.077,3.798c-0.735,5.751-2.545,7.556-7.101,8.002c-6.797,0.664-10.394-3.499-11.612-7.496
		c-2.92-9.58,7.253-20.209,16.486-18.245C256.191,232.551,258.446,233.274,260.724,233.892z M241.023,251.703l0.166,0.116
		l0.024-0.186L241.023,251.703z"/>
	<path fill-rule="evenodd" clip-rule="evenodd" d="M311.651,378.578c-0.003,1.75-2.156,2.979-3.658,2.121
		c-4.22-2.408-8.479-4.805-12.417-7.631c-4.456-3.198-8.596-6.839-12.83-10.339c-0.623-0.515-1.365-1.284-1.421-1.986
		c-0.067-0.869,0.295-2.048,0.913-2.595c0.387-0.343,1.891-0.062,2.374,0.441c6.228,6.46,13.925,10.904,21.336,15.739
		c1.323,0.864,2.786,1.524,4.073,2.435C310.741,377.271,311.235,378.101,311.651,378.578z"/>
	<path fill-rule="evenodd" clip-rule="evenodd" d="M191.983,299.443c7.454-0.262,14.503-1.996,20.797-6.149
		c1.286-0.848,2.575-1.427,3.193,0.242c0.311,0.838-0.296,2.625-1.062,3.159c-8.412,5.868-17.858,8.099-28.027,7.463
		c-1.615-0.101-3.245-0.747-2.926-2.611c0.142-0.829,1.656-1.813,2.685-2.013C188.366,299.202,190.198,299.443,191.983,299.443z"/>
	<path fill-rule="evenodd" clip-rule="evenodd" d="M351.218,348.276c-5.681-2.104-10.913-3.876-16.006-5.985
		c-3.277-1.357-6.37-3.169-9.496-4.872c-0.795-0.433-1.696-1.107-2.001-1.887c-0.305-0.777-0.253-2.133,0.247-2.666
		c0.498-0.528,2.057-0.8,2.623-0.412c7.682,5.253,16.277,8.308,25.104,10.909c0.783,0.23,1.719,1.748,1.642,2.582
		C353.256,346.771,351.988,347.486,351.218,348.276z"/>
	<path fill-rule="evenodd" clip-rule="evenodd" d="M280.903,304.506c-0.735,8.958-3.373,16.902-6.952,24.584
		c-0.579,1.242-1.154,2.663-2.157,3.479c-0.904,0.734-2.392,0.754-3.622,1.089c-0.075-1.092-0.614-2.466-0.15-3.232
		c3.376-5.57,5.816-11.493,7.113-17.858c0.538-2.642,0.886-5.352,0.978-8.043c0.069-2.024,1.325-2.565,2.701-2.324
		C279.62,302.341,280.214,303.696,280.903,304.506z"/>
	<path fill-rule="evenodd" clip-rule="evenodd" d="M247.095,304.932c-0.577,1.363-0.849,2.379-1.389,3.221
		c-4.521,7.047-10.091,13.037-17.54,17.077c-1.311,0.711-2.641,1.503-4.062,1.848c-0.82,0.199-1.839-0.423-2.769-0.674
		c0.339-0.999,0.374-2.437,1.069-2.918c2.75-1.9,5.813-3.349,8.564-5.246c5.168-3.567,9.224-8.124,11.757-13.976
		c0.314-0.726,1.662-1.637,2.237-1.467C245.817,303.048,246.409,304.188,247.095,304.932z"/>
	<path fill-rule="evenodd" clip-rule="evenodd" d="M141.401,157.965c6.721,1.905,13.058,3.593,19.318,5.533
		c2.386,0.74,4.605,2.032,6.878,3.119c1.499,0.718,2.18,1.897,1.242,3.424c-0.844,1.375-1.845,1.56-3.508,0.688
		c-6.819-3.578-14.087-5.913-21.699-7.194c-1.142-0.192-2.348-0.726-3.238-1.453c-0.623-0.51-1.204-1.762-0.992-2.419
		C139.647,158.908,140.79,158.444,141.401,157.965z"/>
	<path fill-rule="evenodd" clip-rule="evenodd" d="M221.529,361.981c0.692-0.944,1.337-1.822,1.981-2.699
		c0.839,0.788,2.179,1.439,2.439,2.388c2.401,8.749,4.67,17.536,6.799,26.355c0.216,0.896-0.74,2.075-1.152,3.122
		c-0.991-0.49-2.574-0.752-2.87-1.513c-1.138-2.932-1.958-6-2.725-9.06C224.477,374.503,223.066,368.402,221.529,361.981z"/>
	<path fill-rule="evenodd" clip-rule="evenodd" d="M172.86,330.011c0.305,1.005,1.164,2.271,0.83,2.972
		c-4.244,8.918-5.574,18.597-7.561,28.104c-0.316,1.512-1.079,2.639-2.641,2.034c-0.695-0.269-1.481-1.723-1.349-2.486
		c1.562-9.041,2.837-18.173,6.561-26.671c0.654-1.493,1.866-2.742,2.82-4.104C171.967,329.91,172.413,329.96,172.86,330.011z"/>
	<path fill-rule="evenodd" clip-rule="evenodd" d="M361.905,286.625c-0.47,0-1.056,0.18-1.391-0.035
		c-0.975-0.625-1.851-1.407-2.764-2.128c0.729-0.665,1.381-1.778,2.201-1.921c4.048-0.706,8.172-0.983,12.208-1.739
		c4.405-0.823,8.745-1.991,13.107-3.037c1.73-0.416,3.49-0.327,3.897,1.612c0.426,2.026-1.252,2.471-2.976,2.813
		c-8.067,1.602-16.112,3.318-24.165,4.994C361.984,286.997,361.945,286.811,361.905,286.625z"/>
	<path fill-rule="evenodd" clip-rule="evenodd" d="M285.05,138.606c-0.738,0.988-1.367,2.726-2.324,2.929
		c-2.226,0.475-2.337-1.757-2.639-3.207c-1.725-8.269-3.404-16.549-4.9-24.861c-0.173-0.959,0.889-2.14,1.378-3.218
		c0.939,0.586,2.54,1.018,2.718,1.78C281.292,120.679,283.084,129.38,285.05,138.606z"/>
	<path fill-rule="evenodd" clip-rule="evenodd" d="M173.112,217.076c0.748,0.791,1.946,1.597,2.503,2.72
		c3.439,6.927,8.379,12.357,15.271,15.95c1.547,0.808,2.332,2.081,1.534,3.706c-0.858,1.749-2.397,1.146-3.64,0.471
		c-8.265-4.486-14.306-10.968-17.797-19.791C170.234,218.239,170.835,217.555,173.112,217.076z"/>
	<path fill-rule="evenodd" clip-rule="evenodd" d="M140.615,222.502c-0.692,0.457-1.644,1.632-2.585,1.623
		c-9.2-0.085-17.417,3.268-25.62,6.849c-0.76,0.332-2.007-0.452-3.028-0.719c0.392-1.045,0.529-2.776,1.214-3.029
		c6.133-2.267,12.324-4.4,18.582-6.296c2.656-0.805,5.512-0.943,8.274-1.399C139.238,219.235,140.345,219.831,140.615,222.502z"/>
	<path fill-rule="evenodd" clip-rule="evenodd" d="M141.408,281.89c-0.564,0.732-0.88,1.465-1.437,1.817
		c-7.665,4.855-12.73,12.073-17.793,19.32c-0.606,0.867-0.8,2.804-2.774,1.81c-2.084-1.051-1.496-2.755-0.644-4.007
		c2.583-3.796,5.191-7.614,8.191-11.077c2.734-3.156,5.897-5.969,9.076-8.696c0.972-0.833,2.599-1.037,3.964-1.187
		C140.351,279.83,140.852,281.063,141.408,281.89z"/>
	<path fill-rule="evenodd" clip-rule="evenodd" d="M202.575,115.339c0.618,0.396,1.322,0.703,1.839,1.203
		c6.113,5.917,12.257,11.805,18.211,17.881c0.686,0.699,0.267,2.481,0.359,3.761c-1.173-0.313-2.695-0.263-3.461-1
		c-3.519-3.383-6.727-7.087-10.242-10.474c-2.561-2.466-5.492-4.545-8.109-6.958c-0.578-0.533-0.759-1.754-0.713-2.636
		c0.049-0.935,0.585-1.844,0.91-2.764C201.77,114.682,202.173,115.011,202.575,115.339z"/>
	<path fill-rule="evenodd" clip-rule="evenodd" d="M192.417,272.13c-8.722,0.431-16.339-2.872-23.742-6.879
		c-0.652-0.353-1.424-0.752-1.767-1.346c-0.57-0.988-0.838-2.151-1.234-3.24c1.179,0.011,2.5-0.327,3.512,0.09
		c5.018,2.063,9.856,4.604,14.961,6.399c2.562,0.901,5.566,0.499,8.354,0.826c1.453,0.17,3.785-0.259,3.395,2.167
		c-0.168,1.045-1.96,1.828-3.014,2.729C192.726,272.628,192.572,272.38,192.417,272.13z"/>
	<path fill-rule="evenodd" clip-rule="evenodd" d="M345.879,144.071c-1.075,3.838-1.879,7.124-2.922,10.332
		c-1.619,4.979-3.384,9.911-5.135,14.845c-0.277,0.78-0.645,1.816-1.269,2.118c-0.888,0.431-2.192,0.626-3.045,0.27
		c-0.495-0.208-0.922-1.953-0.583-2.565c4.191-7.572,5.76-15.988,8.103-24.164c0.317-1.108,1.527-2.167,2.597-2.738
		C343.964,141.987,345.188,143.465,345.879,144.071z"/>
	<path fill-rule="evenodd" clip-rule="evenodd" d="M378.032,209.505c1.477-1.865,2.818-3.871,4.517-5.507
		c0.491-0.474,2.36-0.243,2.94,0.33c0.466,0.461,0.339,2.298-0.209,2.889c-5.985,6.461-11.732,13.213-19.308,17.948
		c-1.481,0.926-3.516,2.681-4.947,0.646c-1.692-2.404,1.219-3.172,2.53-4.314c3.687-3.215,7.445-6.351,11.228-9.454
		c0.823-0.675,1.866-1.081,2.809-1.612c0.184,0.051,0.367,0.103,0.551,0.153c0.163,0.198,0.326,0.396,0.488,0.593
		c0.58-0.209,1.16-0.418,1.74-0.627c-0.088-0.143-0.085-0.283,0.011-0.422c0.013-0.187,0.026-0.374,0.04-0.562
		c-0.355-0.199-0.71-0.399-1.065-0.599c-0.256,0.002-0.513,0.005-0.769,0.007C378.402,209.151,378.217,209.328,378.032,209.505z"/>
	<path fill-rule="evenodd" clip-rule="evenodd" d="M309.112,229.556c9.174,1.291,16.717,4.514,22.973,10.382
		c0.643,0.603,0.984,2.324,0.591,3.061c-0.749,1.402-1.99,1.046-3.22,0.039c-5.679-4.653-12.133-7.615-19.439-8.689
		c-1.589-0.232-3.026-1.115-2.589-2.983C307.625,230.522,308.769,229.902,309.112,229.556z"/>
	<path fill-rule="evenodd" clip-rule="evenodd" d="M196.846,184.059c0.395-0.432,1.221-1.337,2.047-2.242
		c0.756,0.807,2.011,1.521,2.178,2.436c0.592,3.218,0.497,6.579,1.245,9.749c1.046,4.426,2.715,8.703,3.886,13.105
		c0.27,1.015-0.4,2.278-0.638,3.429c-0.954-0.478-2.269-0.705-2.803-1.475c-3.305-4.77-4.23-10.322-4.863-15.941
		C197.586,190.36,197.258,187.602,196.846,184.059z"/>
	<path fill-rule="evenodd" clip-rule="evenodd" d="M311.713,202.714c-5.999-0.259-11.177,0.122-15.954,2.763
		c-0.561,0.31-1.301,0.623-1.871,0.507c-0.921-0.188-2.426-0.631-2.503-1.145c-0.13-0.859,0.424-2.372,1.124-2.708
		c2.497-1.202,5.12-2.61,7.8-2.869c5.523-0.535,11.114-0.457,16.675-0.412c0.685,0.005,1.356,1.349,2.034,2.073
		c-0.79,0.597-1.524,1.586-2.384,1.709C314.793,202.897,312.888,202.714,311.713,202.714z"/>
	<path fill-rule="evenodd" clip-rule="evenodd" d="M230.106,188.587c0.228-8.106,2.804-15.421,7.557-21.941
		c0.496-0.68,1.834-0.747,2.781-1.098c0.251,1.137,1.043,2.521,0.657,3.369c-1.543,3.384-4.002,6.431-5.076,9.926
		c-1.185,3.854-1.107,8.081-1.831,12.099c-0.206,1.141-1.146,2.858-2.001,3.025c-1.817,0.356-2.136-1.3-2.091-2.84
		C230.126,190.281,230.106,189.434,230.106,188.587z"/>
	<path fill-rule="evenodd" clip-rule="evenodd" d="M264.298,191.082c-1.821,0.104-2.752-1.516-1.545-3.4
		c1.683-2.624,3.436-5.391,5.779-7.357c3.783-3.175,8.021-5.828,12.205-8.483c0.599-0.381,2.416,0.165,2.855,0.823
		c0.392,0.588-0.018,2.299-0.652,2.854c-1.155,1.012-2.748,1.519-4.144,2.265c-5.008,2.676-8.933,6.511-11.919,11.308
		c-0.603,0.969-0.955,2.092-1.423,3.145C265.07,191.852,264.684,191.467,264.298,191.082z"/>
	<path fill-rule="evenodd" clip-rule="evenodd" d="M311.194,265.532c2.635,2.256,5.612,4.225,7.809,6.848
		c2.124,2.538,3.473,5.733,5.098,8.675c0.353,0.639,0.749,1.521,0.567,2.123c-0.291,0.959-1.049,1.778-1.609,2.656
		c-0.77-0.517-1.792-0.865-2.266-1.579c-2.677-4.034-5.137-8.214-7.859-12.215c-0.92-1.35-2.438-2.28-3.6-3.483
		c-0.696-0.722-1.646-1.563-1.721-2.419c-0.074-0.859,0.793-1.802,1.248-2.707c0.664,0.56,1.328,1.12,1.992,1.681
		C310.967,265.251,311.08,265.392,311.194,265.532z"/>
	<path fill-rule="evenodd" clip-rule="evenodd" d="M297.205,308.982c-0.475,2.309-1.009,5.415-1.836,8.442
		c-0.147,0.54-1.509,0.747-2.311,1.107c-0.387-0.904-1.272-1.935-1.08-2.691c1.518-5.955,0.946-11.762-0.785-17.544
		c-0.295-0.985-0.853-2.009-0.76-2.962c0.09-0.938,0.854-1.811,1.322-2.712c0.868,0.501,2.219,0.807,2.516,1.539
		c0.906,2.234,1.555,4.604,2.022,6.978C296.747,303.435,296.853,305.799,297.205,308.982z"/>
	<path fill-rule="evenodd" clip-rule="evenodd" d="M114.707,209.064c-0.341-0.234-1.499-0.617-1.614-1.204
		c-0.156-0.798,0.224-2.233,0.827-2.562c4.251-2.312,8.96-2.467,13.652-2.289c0.518,0.02,1.374,1.375,1.362,2.099
		c-0.011,0.695-0.854,1.863-1.49,1.982C123.414,207.852,119.341,208.376,114.707,209.064z"/>
	<path fill-rule="evenodd" clip-rule="evenodd" d="M325.345,352.177c0.858,0.361,1.584,0.569,2.209,0.946
		c2.804,1.688,5.708,3.253,8.292,5.233c0.9,0.689,0.983,2.447,1.44,3.716c-1.025,0.158-2.319,0.794-3.032,0.394
		c-3.58-2.007-7.056-4.217-10.44-6.539c-0.523-0.359-0.698-1.773-0.461-2.516C323.532,352.852,324.631,352.587,325.345,352.177z"/>
	<path fill-rule="evenodd" clip-rule="evenodd" d="M287.229,387.069c-1.016,0.469-1.93,1.089-2.926,1.278
		c-0.653,0.125-1.652-0.156-2.107-0.629c-2.539-2.639-5.024-5.337-7.389-8.133c-0.962-1.138-1.864-2.675-0.1-3.891
		c1.496-1.029,2.409-0.088,3.462,1.159c1.986,2.354,4.314,4.414,6.445,6.649C285.294,384.217,285.797,385.099,287.229,387.069z"/>
	<path fill-rule="evenodd" clip-rule="evenodd" d="M389.221,225.987c1.023,0.814,2.043,1.235,2.283,1.927
		c0.243,0.7-0.004,2.134-0.519,2.444c-3.602,2.171-7.287,4.22-11.059,6.078c-0.61,0.301-1.956-0.35-2.613-0.945
		c-0.264-0.24,0.159-1.889,0.704-2.262C381.634,230.752,385.37,228.447,389.221,225.987z"/>
	<path fill-rule="evenodd" clip-rule="evenodd" d="M169.492,148.28c-0.279,2.143-1.141,3.34-2.833,2.665
		c-3.889-1.553-7.706-3.308-11.446-5.191c-0.547-0.276-0.957-1.979-0.623-2.543c0.369-0.624,1.828-1.17,2.534-0.931
		c3.597,1.222,7.132,2.641,10.618,4.158C168.536,146.783,169.043,147.788,169.492,148.28z"/>
	<path fill-rule="evenodd" clip-rule="evenodd" d="M354.465,301.884c1.303-0.233,2.606-0.467,3.909-0.7
		c1.403,4.238,2.849,8.464,4.185,12.723c0.441,1.406,0.051,2.95-1.581,2.931c-0.906-0.012-2.285-1.189-2.612-2.132
		C356.9,310.488,355.736,306.167,354.465,301.884z"/>
	<path fill-rule="evenodd" clip-rule="evenodd" d="M353.678,174.667c-0.679-1.875-1.739-3.278-1.408-4.158
		c1.306-3.473,2.923-6.851,4.717-10.103c0.448-0.812,1.969-1.349,3.036-1.422c1.376-0.094,2.048,0.927,1.394,2.294
		c-1.683,3.515-3.395,7.019-5.195,10.474C355.784,172.589,354.959,173.225,353.678,174.667z"/>
	<path fill-rule="evenodd" clip-rule="evenodd" d="M302.217,122.652c-0.225,2.321-0.221,4.698-0.782,6.935
		c-0.234,0.933-1.67,1.564-2.56,2.333c-0.654-0.887-1.866-1.776-1.863-2.662c0.009-3.453,0.262-6.924,0.747-10.343
		c0.126-0.888,1.423-1.61,2.183-2.407c0.725,0.916,1.72,1.734,2.098,2.777c0.36,0.995,0.077,2.223,0.077,3.35
		C302.149,122.641,302.183,122.646,302.217,122.652z"/>
	<path fill-rule="evenodd" clip-rule="evenodd" d="M206.875,376.706c0-0.752-0.197-1.576,0.048-2.237
		c0.346-0.937,1.019-1.752,1.552-2.618c0.86,0.71,2.368,1.338,2.471,2.144c0.481,3.775,0.667,7.597,0.747,11.406
		c0.021,1.015-0.087,2.836-1.95,2.205c-0.892-0.304-2-1.354-2.148-2.213c-0.489-2.858-0.587-5.782-0.836-8.683
		C206.797,376.709,206.836,376.707,206.875,376.706z"/>
	<path fill-rule="evenodd" clip-rule="evenodd" d="M154.363,335.967c-1.562,4.119-2.928,7.982-4.559,11.729
		c-0.228,0.523-1.948,0.894-2.624,0.577c-0.64-0.298-1.306-1.733-1.107-2.424c0.815-2.834,1.917-5.59,2.996-8.342
		c0.396-1.012,0.86-2.091,1.596-2.843c0.522-0.534,1.723-0.973,2.311-0.725C153.64,334.223,153.957,335.321,154.363,335.967z"/>
	<path fill-rule="evenodd" clip-rule="evenodd" d="M381.729,304.1c-3.553,0.169-7.104,0.396-10.66,0.472
		c-1.589,0.034-3.445-0.064-3.59-2.226c-0.146-2.187,1.681-2.131,3.166-2.228c2.705-0.177,5.412-0.361,8.121-0.406
		C382.997,299.64,383.313,300.154,381.729,304.1z"/>
	<path fill-rule="evenodd" clip-rule="evenodd" d="M224.768,109.154c0.562,0.487,1.524,1.097,2.189,1.941
		c1.918,2.433,3.645,5.019,5.592,7.428c1.062,1.313,1.129,2.579-0.229,3.305c-0.739,0.396-2.46,0.142-2.992-0.469
		c-2.332-2.678-4.498-5.521-6.511-8.45C221.601,111.139,222.547,109.12,224.768,109.154z"/>
	<path fill-rule="evenodd" clip-rule="evenodd" d="M123.386,274.695c-2.238,3.974-6.207,6.133-9.999,8.412
		c-0.587,0.354-1.826-0.378-2.763-0.608c0.242-0.91,0.195-2.122,0.777-2.676c2.306-2.193,4.795-4.195,7.242-6.238
		C120.495,272.037,122.052,272.32,123.386,274.695z"/>
	<path fill-rule="evenodd" clip-rule="evenodd" d="M378.73,210.109c-0.048-0.379-0.096-0.757-0.143-1.136
		c0.256-0.002,0.513-0.005,0.769-0.007c0.355,0.199,0.71,0.399,1.065,0.599c-0.014,0.188-0.027,0.375-0.04,0.562
		c0.055,0.038,0.161,0.097,0.156,0.109c-0.044,0.108-0.109,0.21-0.167,0.313c-0.58,0.209-1.16,0.418-1.74,0.627
		c0.031-0.19,0.062-0.38,0.093-0.569l-0.051,0.063c0.137-0.137,0.273-0.273,0.411-0.41c-0.138-0.075-0.275-0.149-0.413-0.225
		L378.73,210.109z"/>
	<path fill-rule="evenodd" clip-rule="evenodd" d="M214.257,338.205c-0.001,0.216-0.002,0.433-0.004,0.648
		c-0.21-0.004-0.421-0.009-0.63-0.012C213.834,338.63,214.045,338.417,214.257,338.205z"/>
	<path fill-rule="evenodd" clip-rule="evenodd" d="M378.724,210.606c-0.211,0.023-0.422,0.049-0.633,0.072
		c0.004-0.214,0.007-0.429,0.01-0.642c0.21,0.024,0.42,0.048,0.63,0.072l-0.06-0.074c0,0.212,0.001,0.424,0.002,0.635
		L378.724,210.606z"/>
</g>
</svg>
