<?xml version="1.0" encoding="utf-8"?>
<!-- Generator: Adobe Illustrator 16.0.0, SVG Export Plug-In . SVG Version: 6.00 Build 0)  -->
<!DOCTYPE svg PUBLIC "-//W3C//DTD SVG 1.1//EN" "http://www.w3.org/Graphics/SVG/1.1/DTD/svg11.dtd">
<svg version="1.1" id="Layer_1" xmlns="http://www.w3.org/2000/svg" xmlns:xlink="http://www.w3.org/1999/xlink" x="0px" y="0px"
	 width="500px" height="500px" viewBox="0 0 500 500" enable-background="new 0 0 500 500" xml:space="preserve">
<path d="M245.491,28.707c-6.985,4.676-7.042,4.734-8.024,5.195c-0.461,0.231-3.925,2.656-7.62,5.484
	c-6.176,4.676-14.95,12.814-20.087,18.645c-2.771,3.174-7.1,9.409-7.851,11.256c-0.173,0.461-0.692,1.558-1.154,2.424
	c-0.461,0.808-0.808,1.905-0.808,2.366c0,0.462-0.404,1.617-0.866,2.482c-0.462,0.923-0.866,2.424-0.866,3.405
	c-0.058,0.924-0.405,2.367-0.866,3.175c-0.462,0.808-0.809,2.944-0.866,4.733c0,2.078-0.231,3.348-0.635,3.348
	c-0.404,0-2.541-1.789-4.849-3.983c-6.407-6.061-9.755-8.485-15.182-11.083c-2.771-1.27-5.772-2.712-6.638-3.174
	c-0.923-0.462-2.194-0.808-2.886-0.808c-0.693,0-1.79-0.404-2.367-0.866c-0.635-0.461-2.136-0.866-3.29-0.866
	c-1.212,0-2.886-0.288-3.81-0.635c-1.617-0.692-10.506-1.674-16.336-1.79c-5.888-0.173-17.836,0.808-18.76,1.501
	c-0.52,0.346-1.155,1.559-1.443,2.655c-0.578,2.309-1.559,5.253-2.656,7.966c-0.461,1.039-0.808,2.597-0.808,3.463
	c0,0.924-0.289,1.905-0.635,2.251s-0.809,2.021-1.097,3.695c-0.289,1.731-0.751,4.156-1.097,5.426
	c-0.923,3.521-0.75,19.165,0.231,21.935c0.461,1.27,0.866,2.944,0.866,3.751c0,0.809,0.346,1.963,0.808,2.598
	c0.405,0.635,0.866,1.79,1.039,2.598c0.173,0.809,0.52,1.905,0.751,2.424c0.346,0.924,0.058,1.039-2.078,1.039
	c-1.385-0.058-3.175-0.404-3.983-0.866c-0.808-0.461-2.251-0.808-3.233-0.866c-0.981,0-2.944-0.404-4.271-0.866
	c-2.944-1.039-18.01-1.212-21.646-0.23c-1.27,0.346-3.751,0.808-5.542,1.097c-1.731,0.231-3.751,0.692-4.444,1.097
	c-0.635,0.346-1.905,0.634-2.829,0.634c-0.923,0-2.136,0.346-2.771,0.809c-0.634,0.404-1.789,0.923-2.597,1.096
	c-2.771,0.635-6.638,2.194-7.966,3.233c-1.327,0.981-1.385,1.27-1.327,9.582c0,5.022,0.289,8.832,0.635,9.178
	c0.289,0.289,0.578,2.483,0.578,4.792c0,2.482,0.346,5.138,0.866,6.35c0.461,1.097,0.866,2.886,0.866,3.867
	c0,1.039,0.404,2.367,0.866,3.001c0.461,0.578,0.866,1.732,0.866,2.424c0,0.751,0.346,2.078,0.808,2.887
	c0.405,0.866,1.79,3.637,3.002,6.177c3.001,6.407,6.119,10.794,11.025,15.643c2.31,2.309,4.214,4.445,4.214,4.792
	c0,0.346-0.981,0.634-2.136,0.634c-1.212,0-2.712,0.405-3.29,0.866c-0.635,0.462-1.847,0.866-2.771,0.866
	c-1.443,0-3.174,0.75-11.313,4.791c-1.328,0.693-3.06,1.848-3.867,2.54c-0.751,0.75-1.559,1.327-1.79,1.327
	c-0.173,0-2.828,2.251-5.83,5.022c-5.542,5.08-12.238,12.642-15.528,17.49c-0.981,1.444-3.001,4.33-4.445,6.523
	c-1.5,2.135-2.713,4.098-2.713,4.387s-0.404,0.808-0.866,1.212c-1.271,1.039-1.039,2.193,0.866,4.618
	c0.981,1.212,1.732,2.367,1.732,2.54s1.096,1.963,2.482,3.925c4.502,6.58,5.83,8.37,8.774,11.718
	c6.984,7.851,9.64,10.563,12.642,12.872c1.962,1.444,3.81,2.887,4.098,3.176c1.674,1.385,6.869,4.444,7.504,4.444
	c0.404,0,1.039,0.404,1.443,0.865c0.404,0.463,1.155,0.866,1.674,0.866s1.443,0.404,2.02,0.866c0.635,0.462,1.79,0.865,2.598,0.865
	c0.809,0.059,2.136,0.405,2.944,0.866c0.809,0.462,2.136,0.809,3.002,0.866c0.866,0,1.674,0.173,1.847,0.462
	c0.116,0.23-1.096,1.847-2.712,3.579c-2.829,2.943-7.273,8.658-8.89,11.256c-2.309,3.81-6.522,13.392-6.522,14.893
	c0,0.75-0.404,1.847-0.866,2.482c-0.462,0.576-0.866,1.962-0.866,3.001s-0.289,2.482-0.635,3.117
	c-0.75,1.385-1.616,10.506-2.021,20.953c-0.231,5.831-0.115,7.216,0.75,8.947c0.808,1.502,1.443,2.078,2.771,2.195
	c0.923,0.113,2.193,0.576,2.828,1.038c0.635,0.461,1.847,0.807,2.655,0.807c0.808,0.06,2.078,0.406,2.886,0.866
	c0.808,0.463,2.251,0.809,3.233,0.865c0.923,0,2.02,0.29,2.366,0.637c0.346,0.346,2.54,0.865,4.907,1.155
	c2.309,0.286,5.368,0.749,6.811,1.039c3.983,0.922,16.047,0.749,19.049-0.174c4.676-1.444,7.735-2.194,10.563-2.483
	c2.54-0.287,2.713-0.23,2.713,1.099c0,0.692-0.405,1.845-0.866,2.424c-0.462,0.634-0.866,1.962-0.866,2.944
	c0,0.979-0.404,3.001-0.866,4.442c-0.751,2.078-0.866,4.792-0.751,13.508c0.231,10.563,0.866,15.932,2.482,19.568
	c0.461,0.925,0.923,2.483,1.039,3.463c0.347,1.965,1.847,6.407,2.713,7.909c0.346,0.576,0.578,1.675,0.578,2.425
	c0,0.809,0.346,1.615,0.75,1.904c0.75,0.52,10.274,1.329,15.701,1.329c6.119,0,17.259-0.982,18.933-1.675
	c0.923-0.347,2.482-0.636,3.521-0.636c1.097,0,2.251-0.403,2.656-0.866c0.404-0.46,1.559-0.866,2.539-0.866
	c1.039,0,2.367-0.403,3.002-0.865c0.577-0.46,1.673-0.866,2.309-0.866c0.692,0,1.559-0.403,1.962-0.866
	c0.404-0.46,1.328-0.865,2.078-0.865c0.692,0,1.501-0.287,1.674-0.634c0.231-0.289,0.982-0.865,1.616-1.155
	c2.194-0.981,6.234-3.579,8.428-5.425c1.962-1.675,8.948-8.892,9.178-9.584c0.116-0.287,0.577-0.52,0.981-0.52
	c0.577,0,0.866,1.328,0.981,5.312c0.231,5.139,0.751,7.39,2.54,11.026c0.462,0.923,0.808,2.019,0.808,2.481
	c0,1.328,3.001,6.523,6.638,11.485c4.56,6.178,17.144,18.703,24.244,24.015c3.174,2.424,6.176,4.502,6.638,4.732
	c0.462,0.232,1.674,0.925,2.598,1.558c0.981,0.637,2.136,1.329,2.598,1.559c0.462,0.174,1.674,0.926,2.598,1.675
	c0.981,0.693,2.54,1.676,3.579,2.195c1.732,0.865,1.962,0.865,3.752-0.233c1.039-0.633,2.309-1.325,2.771-1.559
	c0.461-0.173,1.327-0.749,1.847-1.269s2.713-2.078,4.791-3.521c13.738-9.294,26.668-21.416,33.076-31.057
	c1.962-2.944,3.579-5.715,3.579-6.118c0-0.347,0.288-0.982,0.692-1.386c0.808-0.809,2.136-4.213,2.713-7.043
	c0.23-1.096,0.75-2.598,1.097-3.29c0.404-0.692,0.692-3.058,0.692-5.309c0-2.194,0.231-4.156,0.52-4.389
	c0.347-0.174,2.309,1.559,4.503,3.81c4.444,4.676,10.736,9.641,13.449,10.68c0.462,0.173,1.271,0.576,1.731,0.866
	c0.462,0.289,1.271,0.692,1.731,0.865c0.462,0.174,1.271,0.576,1.732,0.866c0.462,0.289,1.27,0.692,1.731,0.866
	c0.462,0.173,1.559,0.692,2.424,1.155c0.809,0.46,2.137,0.806,2.887,0.806c0.692,0.06,1.963,0.406,2.771,0.866
	c0.81,0.463,2.425,0.809,3.637,0.866c1.212,0,2.771,0.289,3.464,0.692c2.308,1.271,18.183,1.964,29.093,1.212
	c3.116-0.173,4.386-0.52,5.138-1.385c1.039-1.153,2.365-4.213,2.944-6.868c0.173-0.809,0.692-1.964,1.096-2.597
	c0.463-0.637,0.809-1.905,0.809-2.888c0.058-0.923,0.403-2.367,0.866-3.174c0.46-0.809,0.808-2.194,0.866-3.061
	c0-0.922,0.402-3.06,0.865-4.732c1.789-6.061,0.347-28.17-1.964-31.17c-0.807-0.982-1.039-4.33-0.346-4.909
	c0.693-0.576,2.193-0.229,8.659,1.792c5.483,1.731,20.491,2.251,25.166,0.865c1.675-0.52,4.041-0.925,5.254-0.925
	c1.271,0,2.829-0.287,3.521-0.693c0.692-0.346,2.308-0.865,3.578-1.096c1.271-0.229,3.232-0.692,4.329-1.096
	c5.483-1.964,6.754-2.483,8.024-3.061c2.193-1.096,3.059-4.445,2.713-10.793c-0.52-9.468-1.327-17.55-2.021-19.627
	c-0.346-1.097-0.636-2.828-0.636-3.81c0-0.924-0.403-2.252-0.866-2.886c-0.461-0.578-0.865-1.79-0.865-2.598
	c0-0.809-0.403-1.963-0.866-2.598c-0.461-0.578-0.865-1.559-0.865-2.137c0-0.634-0.347-1.789-0.808-2.598
	c-0.462-0.865-0.981-1.962-1.154-2.424c-0.231-0.462-0.866-1.675-1.502-2.598c-0.635-0.981-1.327-2.136-1.559-2.598
	c-0.866-2.02-5.771-8.023-8.946-10.967c-3.464-3.349-4.099-4.618-2.252-4.618c0.578,0,2.021-0.404,3.117-0.866
	c1.154-0.461,2.829-0.866,3.695-0.866c0.865,0,2.135-0.403,2.712-0.865c0.635-0.462,1.732-0.866,2.425-0.866
	s1.559-0.403,1.963-0.866c0.403-0.461,1.154-0.865,1.731-0.865s1.327-0.404,1.732-0.866c0.402-0.461,0.922-0.865,1.212-0.865
	c0.229,0,2.078-1.097,4.098-2.425c4.561-3.001,10.679-9.12,20.088-20.088c1.212-1.386,4.849-6.522,6.062-8.543
	c0.346-0.52,1.27-1.904,2.192-3.06c0.866-1.154,1.559-2.366,1.559-2.713c0-0.288,0.404-0.865,0.866-1.27
	c1.097-0.924,1.097-3.117,0-4.041c-0.462-0.404-0.866-0.923-0.866-1.212c0-0.52-7.33-11.545-8.022-12.064
	c-0.231-0.173-1.675-1.962-3.233-3.983c-5.137-6.811-17.778-18.067-22.627-20.203c-0.635-0.289-1.386-0.867-1.617-1.155
	c-0.173-0.347-0.808-0.635-1.385-0.635s-1.386-0.404-1.789-0.866c-0.404-0.462-1.155-0.866-1.731-0.866
	c-0.578,0-1.329-0.404-1.731-0.866c-0.405-0.462-1.329-0.866-2.021-0.866s-2.251-0.404-3.348-0.866
	c-1.155-0.462-3.002-0.866-4.099-0.866c-1.096,0-2.135-0.23-2.309-0.462c-0.116-0.23,1.039-1.731,2.598-3.232
	c3.232-3.117,9.12-10.622,10.91-13.969c0.692-1.27,1.442-2.655,1.674-3.117c0.865-1.501,3.636-8.082,4.675-10.967
	c0.405-1.097,0.925-3.349,1.154-5.022c0.29-1.617,0.692-3.349,0.924-3.752c0.462-0.692,0.866-5.657,1.732-21.126
	c0.346-6.177-0.174-7.563-3.349-8.716c-1.039-0.404-2.598-1.097-3.464-1.559c-0.808-0.462-2.135-0.808-2.886-0.808
	s-1.904-0.404-2.539-0.866c-0.578-0.462-1.79-0.866-2.598-0.866c-0.866,0-2.482-0.404-3.58-0.866c-1.153-0.462-3-0.866-4.039-0.866
	c-1.098,0-2.944-0.404-4.041-0.866c-1.559-0.635-4.388-0.866-10.969-0.866c-6.464,0-9.581,0.23-11.371,0.866
	c-1.327,0.462-3.29,0.866-4.272,0.866c-1.039,0-2.364,0.404-3,0.866c-0.982,0.75-6.581,1.27-6.581,0.577
	c0-0.173,0.23-0.75,0.52-1.327c0.866-1.732,2.368-6.87,2.368-8.082c0-0.635,0.402-2.078,0.865-3.174
	c1.213-2.886,1.213-20.666,0.057-24.879c-1.096-3.983-2.021-7.677-2.597-10.333c-0.29-1.212-0.81-2.54-1.156-2.886
	c-0.346-0.346-0.633-1.328-0.633-2.194c0-0.866-0.232-1.789-0.579-1.962c-0.287-0.173-0.807-1.386-1.152-2.598
	c-0.463-1.674-0.982-2.367-1.905-2.54c-4.329-0.866-21.473-1.443-22.166-0.693c-0.232,0.173-2.367,0.346-4.792,0.346
	c-2.654,0-5.312,0.347-6.523,0.866c-1.152,0.462-3.23,0.866-4.56,0.866c-1.385,0-3.001,0.346-3.636,0.808
	c-0.636,0.404-1.905,0.924-2.887,1.039c-1.962,0.347-5.311,1.5-6.638,2.251c-0.462,0.288-1.27,0.693-1.732,0.866
	c-0.462,0.173-1.27,0.577-1.731,0.866s-1.559,0.808-2.424,1.154c-0.924,0.346-1.616,0.866-1.616,1.097
	c0,0.23-0.693,0.634-1.501,0.808c-0.809,0.231-4.099,2.944-7.331,6.119c-3.175,3.117-6.061,5.542-6.292,5.426
	c-0.23-0.173-0.462-1.905-0.462-3.867c-0.058-2.021-0.404-4.214-0.865-5.022c-0.462-0.809-0.809-2.194-0.866-3.06
	c0-0.923-0.347-2.367-0.809-3.175c-0.462-0.866-1.674-3.348-2.713-5.484c-1.097-2.193-2.309-4.213-2.655-4.56
	c-0.403-0.347-0.75-0.866-0.75-1.155c0-1.097-7.446-9.467-13.912-15.701c-6.753-6.465-15.815-13.565-25.225-19.856
	c-2.943-1.963-5.427-3.579-5.483-3.579C250.514,25.417,248.204,26.917,245.491,28.707L245.491,28.707z M254.554,34.999
	c2.136,1.443,4.156,2.886,4.503,3.175c0.346,0.289,3.001,2.309,5.888,4.445c11.775,8.716,24.243,22.107,28.63,30.593
	c0.866,1.79,1.617,3.522,1.617,3.926s0.347,1.443,0.808,2.367c1.617,3.175,3.29,20.954,2.078,22.396
	c-0.347,0.404-0.75,2.136-0.924,3.81c-0.173,1.732-0.75,4.214-1.27,5.542c-0.924,2.367-1.097,2.482-3.29,2.482
	c-1.271-0.057-2.829-0.404-3.406-0.866c-0.635-0.461-2.078-0.866-3.174-0.866c-1.213-0.058-2.656-0.52-3.464-1.212
	c-1.385-1.096-1.385-1.212-0.635-4.444c1.039-4.445,0.981-14.027-0.116-18.298c-0.808-3.117-3.405-9.178-5.252-12.122
	c-3.694-6.003-16.336-19.453-20.896-22.339c-1.27-0.809-2.828-2.021-3.405-2.713c-1.905-2.135-3.349-1.559-9.871,3.983
	c-3.868,3.29-12.354,12.238-13.854,14.72c-0.635,0.924-2.136,3.175-3.463,4.907c-1.27,1.732-2.771,4.213-3.406,5.483
	c-0.577,1.271-1.443,3.002-1.848,3.868c-0.461,0.808-0.808,2.02-0.808,2.655s-0.404,2.078-0.866,3.175
	c-1.155,2.771-1.155,12.007,0,15.124c1.385,3.867,1.154,5.137-1.155,6.234c-1.155,0.52-2.886,0.981-3.925,0.981
	s-2.424,0.404-3.059,0.866c-0.578,0.462-1.905,0.866-2.886,0.866c-1.616,0-1.962-0.288-2.771-2.309
	c-0.52-1.27-0.923-3.175-0.923-4.213c-0.059-0.982-0.405-2.483-0.866-3.291c-0.635-1.039-0.808-3.579-0.808-9.524
	c0-5.946,0.173-8.485,0.808-9.524c0.461-0.808,0.808-2.309,0.866-3.406c0-2.828,3.636-9.928,7.85-15.643
	c3.348-4.445,20.896-21.935,22.05-21.935c0.231,0,1.039-0.577,1.848-1.328c1.501-1.327,9.582-7.504,12.122-9.178
	C249.474,31.939,250.34,32.113,254.554,34.999L254.554,34.999z M252.88,58.435c1.212,0.981,5.368,5.08,9.236,9.063
	c6.695,6.812,7.272,7.562,10.505,14.143c4.156,8.542,4.733,11.833,3.752,21.3c-0.577,5.772-0.809,5.945-7.562,5.715
	c-4.561-0.173-5.888-0.404-6.754-1.27c-0.98-0.924-1.039-1.328-0.461-2.597c1.039-2.194,0.865-11.256-0.174-12.642
	c-0.462-0.635-0.865-1.501-0.865-1.963c0-2.193-9.121-13.968-10.853-13.968c-0.289,0-1.27,1.096-2.251,2.424
	c-0.981,1.385-2.713,3.521-3.867,4.791c-1.155,1.271-2.078,2.598-2.078,2.944s-0.404,0.981-0.866,1.385
	c-0.462,0.405-0.866,1.155-0.866,1.732c0,0.578-0.405,1.328-0.866,1.731c-0.693,0.578-0.866,2.078-0.866,6.754
	c0,3.29,0.288,6.581,0.635,7.215c1.155,2.078-0.461,2.829-7.273,3.348c-3.463,0.289-6.407,0.404-6.638,0.289
	c-0.231-0.116-0.577-2.021-0.75-4.099c-0.231-2.135-0.635-4.156-0.981-4.502c-0.75-0.75-0.75-5.137,0-5.888
	c0.289-0.288,0.75-1.847,0.923-3.405c0.462-3.117,3.695-10.448,6.177-13.796c4.387-6.119,7.042-9.178,12.468-14.374
	c3.579-3.406,6.869-6.176,7.273-6.176C250.34,56.587,251.667,57.396,252.88,58.435L252.88,58.435z M151.171,74.54
	c1.27,0.346,3.637,0.808,5.195,1.039c1.616,0.23,3.463,0.692,4.156,1.096c0.693,0.405,1.789,0.693,2.424,0.693
	c0.693,0,2.887,0.751,4.849,1.732c2.021,0.924,4.099,1.731,4.618,1.731c0.519,0,1.096,0.289,1.27,0.635
	c0.23,0.289,0.981,0.808,1.616,1.155c2.829,1.212,9.236,6.003,12.411,9.235c2.194,2.251,7.042,8.889,7.042,9.698
	c0,0.289,0.404,0.808,0.866,1.212c0.461,0.404,0.866,1.328,0.866,2.021c0,0.692,0.404,1.616,0.866,2.02
	c0.461,0.405,0.866,1.212,0.866,1.848c0,0.577,0.404,1.905,0.923,2.828c1.385,2.713,0.866,4.734-1.385,5.484
	c-0.981,0.289-2.136,0.866-2.54,1.27c-0.404,0.405-1.212,0.693-1.905,0.693c-0.692,0-1.731,0.404-2.366,0.866
	c-2.367,1.79-4.849,0.693-4.849-2.078c0-0.866-0.231-1.731-0.52-1.905c-0.289-0.23-1.097-1.559-1.79-3.117
	c-0.693-1.5-1.5-3.117-1.79-3.578c-0.289-0.462-0.75-1.443-1.096-2.136c-0.693-1.616-6.581-7.677-8.948-9.178
	c-2.886-1.847-3.579-2.193-6.176-3.463c-6.234-3.117-9.524-4.156-15.47-4.849c-2.367-0.288-4.965-0.635-5.772-0.808
	c-7.619-1.385-7.851-1.271-8.658,4.098c-0.231,1.848-0.751,4.099-1.097,4.964c-0.923,2.367-0.75,11.141,0.231,15.009
	c0.461,1.847,0.866,3.867,0.866,4.502c0,0.693,0.346,2.02,0.808,3.001c0.462,1.039,0.981,2.251,1.155,2.713
	c0.173,0.461,0.577,1.27,0.866,1.732c0.289,0.461,0.692,1.27,0.866,1.731c0.923,2.366,4.56,7.042,9.698,12.237
	c2.135,2.251,3.925,4.388,3.925,4.792s-1.847,2.424-4.156,4.502c-3.406,3.117-4.271,3.694-5.195,3.233
	c-0.578-0.289-1.039-0.751-1.039-0.982c0-0.23-2.598-3.117-5.773-6.465c-3.174-3.348-6.465-7.1-7.388-8.37
	c-0.866-1.27-2.021-2.828-2.598-3.463c-1.559-1.673-5.022-7.734-5.022-8.716c0-0.52-0.289-1.442-0.692-2.135
	c-0.347-0.693-0.866-2.31-1.097-3.579c-0.289-1.27-0.75-3.752-1.154-5.484c-0.692-3.521-0.404-12.295,0.52-13.449
	c0.346-0.346,0.693-2.367,0.866-4.445c0.289-4.099,1.212-8.023,2.482-10.563c0.462-0.923,0.809-2.251,0.809-3.001
	c0-0.751,0.23-1.501,0.52-1.732c0.288-0.173,0.692-1.097,0.923-2.078c0.23-1.039,0.923-1.963,1.616-2.251
	C128.601,73.731,148.4,73.789,151.171,74.54z M374.562,75.867c1.096,1.039,2.021,2.309,2.021,2.828c0,0.462,0.347,1.616,0.807,2.541
	c1.445,2.828,2.251,6.695,2.484,11.717c0.173,2.713,0.46,5.138,0.749,5.484c0.229,0.289,0.636,2.828,0.866,5.542
	c0.289,3.694,0.173,5.83-0.52,8.543c-0.52,1.963-0.923,4.329-0.923,5.138c-0.06,1.905-1.905,7.446-2.83,8.37
	c-0.347,0.346-0.634,0.924-0.634,1.328c0,1.789-5.541,8.716-15.298,19.165c-1.905,2.02-3.693,4.041-3.924,4.502
	c-0.636,1.097-2.251,1.039-3.35-0.231c-0.52-0.52-2.251-2.193-3.867-3.694c-1.675-1.501-3-3.175-3-3.694s1.615-2.598,3.637-4.561
	c4.615-4.617,8.022-8.37,8.771-9.582c2.194-3.752,4.908-10.101,4.908-11.545c0-0.634,0.403-2.424,0.923-3.983
	c1.039-3.117,0.866-12.295-0.289-16.451c-0.347-1.27-0.75-3.521-0.923-4.964c-0.173-1.501-0.692-3.175-1.096-3.752
	c-0.752-0.981-1.039-1.039-4.216-0.289c-1.846,0.405-5.541,0.924-8.253,1.155c-2.714,0.231-5.484,0.693-6.177,1.097
	c-0.693,0.346-1.849,0.692-2.598,0.692c-0.75,0-1.905,0.405-2.541,0.866c-0.576,0.462-1.673,0.866-2.308,0.866
	c-0.693,0-1.559,0.404-1.963,0.866c-0.404,0.462-1.154,0.866-1.731,0.866c-0.578,0-1.328,0.405-1.731,0.866
	c-0.405,0.462-1.039,0.866-1.501,0.866c-0.404,0-3.175,2.424-6.177,5.311c-4.156,4.156-5.888,6.35-7.504,9.582
	c-1.213,2.367-2.136,4.792-2.136,5.484c-0.059,1.674-1.905,3.867-3.29,3.867c-0.578,0-1.559-0.404-2.137-0.866
	c-0.634-0.461-1.731-0.866-2.424-0.866c-0.693,0-1.559-0.346-1.963-0.808c-0.346-0.462-1.385-0.924-2.193-1.039
	c-1.386-0.173-1.559-0.462-1.731-2.424c-0.115-1.271,0.173-3.06,0.692-4.042c0.462-0.98,1.79-3.751,2.943-6.118
	c1.155-2.367,2.598-5.138,3.233-6.061c0.577-0.981,1.27-2.135,1.5-2.598c0.578-1.27,10.622-11.025,12.007-11.602
	c0.635-0.289,3.117-1.559,5.483-2.829c2.367-1.27,4.734-2.309,5.195-2.309c0.521,0,1.443-0.404,2.078-0.866
	c0.577-0.461,1.616-0.808,2.251-0.866c1.098,0,3.176-0.577,8.947-2.482c1.963-0.635,5.772-0.866,15.182-0.923l12.583-0.058
	L374.562,75.867L374.562,75.867z M250.628,84.237c0.809,0.462,2.021,2.367,2.714,4.098c0.23,0.461,0.692,1.616,1.154,2.598
	c1.616,3.579,2.078,7.793,1.327,11.949l-0.692,3.925h-10.044l-0.981-2.886c-1.731-5.195-0.173-12.353,3.983-18.645
	C249.243,83.602,249.474,83.487,250.628,84.237L250.628,84.237z M153.191,95.839c2.944,0.693,6.061,1.79,8.081,3.001
	c0.462,0.231,1.154,0.578,1.443,0.693c0.346,0.116,0.981,0.404,1.443,0.578c0.462,0.173,1.674,0.866,2.598,1.5
	c0.981,0.635,2.135,1.328,2.598,1.558c1.789,0.809,7.273,7.1,8.832,10.044c0.866,1.732,1.789,3.522,2.078,3.983
	c3.174,6.061,3.117,6.754-0.809,8.659c-0.634,0.346-2.193,1.212-3.463,2.021c-3.405,2.021-4.041,1.848-5.772-1.616
	c-0.866-1.616-1.905-3.406-2.367-3.925c-0.461-0.462-0.808-1.212-0.808-1.559c0-0.923-7.966-8.774-8.89-8.774
	c-0.461,0-1.097-0.404-1.5-0.866c-2.656-3.174,0,3.81,3.463,9.236c0.635,0.923,1.385,2.251,1.732,2.886
	c0.346,0.635,1.616,2.944,2.828,5.195c2.713,4.734,2.771,5.368,1.097,6.003c-0.75,0.289-2.02,1.097-2.829,1.847
	c-1.789,1.616-3.752,2.829-4.56,2.829c-1.386,0-11.892-11.372-13.681-14.893c-1.039-1.962-1.905-3.867-1.905-4.213
	s-0.347-1.443-0.809-2.424c-1.501-3.349-2.021-11.429-1.212-19.338l0.404-3.636l4.387,0.23
	C148.054,95.031,151.459,95.436,153.191,95.839L153.191,95.839z M359.092,105.479c-0.232,10.679-0.925,15.354-2.598,17.028
	c-0.405,0.404-0.692,1.039-0.692,1.385c0,2.482-11.719,15.239-13.97,15.239c-0.866,0-5.426-3.233-8.196-5.772
	c-0.52-0.52,1.615-5.484,2.597-6.119c0.289-0.173,0.52-0.75,0.52-1.327c0-0.578,0.693-1.617,1.5-2.424
	c0.81-0.751,1.731-1.905,2.021-2.54c0.289-0.635,1.039-1.962,1.675-2.886c0.633-0.981,1.269-2.136,1.499-2.598
	c0.173-0.461,0.692-1.559,1.155-2.424c1.905-3.521,0.057-3.752-4.445-0.52c-3.001,2.136-6.868,6.35-6.868,7.446
	c0,0.289-0.404,0.866-0.866,1.271c-0.462,0.404-0.865,1.154-0.865,1.673s-0.289,1.271-0.693,1.674s-0.981,1.559-1.271,2.54
	c-1.039,3.232-2.712,2.828-10.274-2.251c-1.847-1.212-2.136-1.731-1.789-2.886c0.462-2.021,5.137-11.025,6.869-13.277
	c1.327-1.789,7.042-6.465,8.89-7.273c0.461-0.23,2.02-1.039,3.405-1.847c1.385-0.809,3.003-1.443,3.522-1.443
	s1.441-0.404,2.078-0.866c0.576-0.461,1.731-0.866,2.538-0.866c0.809,0,2.077-0.404,2.887-0.866c0.923-0.52,3.233-0.808,6.523-0.866
	h5.079L359.092,105.479L359.092,105.479z M263.731,113.619c3.521,0.288,7.101,0.808,7.966,1.154
	c0.924,0.405,2.655,0.693,3.926,0.693c1.27,0,3.232,0.404,4.387,0.866c1.097,0.462,2.713,0.866,3.579,0.866
	c0.808,0.058,2.136,0.405,2.944,0.866c0.808,0.462,2.251,0.866,3.174,0.866c0.982,0,2.252,0.404,2.829,0.866
	c0.635,0.462,1.847,0.866,2.713,0.866s1.731,0.231,1.904,0.52c0.174,0.289,1.039,0.693,1.905,0.866
	c0.924,0.231,2.425,0.751,3.348,1.212c7.331,3.349,13.623,6.523,15.586,7.735c1.27,0.809,3.521,2.136,5.021,2.944
	c6.234,3.348,14.547,9.467,21.416,15.758c2.771,2.482,5.888,5.253,6.983,6.119c1.099,0.924,3.117,3.002,4.445,4.734
	c1.386,1.731,2.654,3.232,2.828,3.405c0.232,0.173,1.675,2.021,3.29,4.156c1.675,2.136,3.637,4.618,4.445,5.484
	c0.81,0.866,1.502,1.847,1.502,2.078c0,0.289,0.807,1.501,1.731,2.713c0.979,1.212,1.731,2.424,1.731,2.655
	c0,0.289,1.153,2.309,2.598,4.445c1.442,2.193,2.598,4.214,2.598,4.502c0,0.288,0.807,2.02,1.732,3.81
	c0.979,1.79,1.731,3.694,1.731,4.214c0,0.577,0.403,1.328,0.865,1.731c0.46,0.404,0.866,1.097,0.866,1.559
	c0,0.462,0.347,1.559,0.807,2.367c0.982,2.02,2.078,5.079,2.657,7.62c0.229,1.096,0.749,2.771,1.039,3.751
	c1.096,3.175,2.364,8.082,2.597,9.813c0.114,0.923,0.52,2.887,0.866,4.33c1.615,6.407,2.425,22.223,1.559,28.862
	c-0.173,1.442-0.52,5.195-0.752,8.427c-0.23,3.233-0.692,6.177-1.039,6.639c-0.403,0.462-0.807,2.078-0.979,3.694
	c-0.347,3.464-1.386,7.446-2.484,9.697c-0.46,0.924-0.806,2.482-0.806,3.521s-0.406,2.367-0.866,3.002
	c-0.463,0.577-0.866,1.616-0.866,2.251s-0.405,1.674-0.865,2.251c-0.463,0.635-0.866,1.559-0.866,2.136
	c0,0.52-0.406,1.27-0.866,1.675c-0.462,0.403-0.865,1.212-0.865,1.731c0,0.577-0.406,1.789-0.81,2.713
	c-0.462,0.865-0.981,2.021-1.212,2.482c-0.173,0.461-0.866,1.789-1.502,2.886c-0.692,1.097-2.019,3.463-2.943,5.195
	c-0.979,1.731-2.598,4.502-3.693,6.176c-1.096,1.616-1.962,3.233-1.962,3.521c0,0.346-0.173,0.692-0.406,0.809
	c-0.286,0.057-1.152,1.212-2.078,2.54c-0.865,1.27-2.019,2.828-2.598,3.463c-0.519,0.635-2.018,2.425-3.29,3.983
	c-5.021,6.35-16.277,17.664-19.625,19.742c-1.269,0.808-2.54,1.788-2.886,2.135c-0.289,0.404-2.021,1.731-3.752,2.943
	c-1.731,1.213-3.637,2.714-4.329,3.291c-0.636,0.636-1.675,1.385-2.31,1.675c-0.635,0.288-1.905,1.039-2.886,1.673
	c-0.924,0.635-2.31,1.386-3.002,1.674c-0.635,0.289-1.386,0.866-1.616,1.155c-0.173,0.347-0.809,0.635-1.386,0.635
	s-1.385,0.404-1.789,0.865c-0.404,0.462-1.154,0.866-1.731,0.866c-0.578,0-1.328,0.404-1.731,0.866
	c-0.405,0.461-1.155,0.865-1.732,0.865s-1.327,0.405-1.731,0.866s-1.097,0.866-1.616,0.866c-0.808,0-4.561,1.5-7.158,2.943
	c-0.577,0.288-1.501,0.52-2.021,0.52c-0.577,0-1.789,0.404-2.712,0.866c-0.866,0.461-2.194,0.865-2.887,0.865
	s-1.789,0.405-2.425,0.866c-0.576,0.461-1.847,0.866-2.828,0.866c-0.924,0-2.366,0.404-3.175,0.865
	c-0.808,0.462-2.366,0.808-3.521,0.866c-1.154,0-3.232,0.404-4.56,0.866c-1.328,0.461-3.521,0.865-4.849,0.865
	c-1.271,0-4.215,0.404-6.407,0.866c-5.484,1.154-22.917,1.154-27.708,0c-1.905-0.462-5.08-0.808-6.985-0.866
	c-2.02,0-4.271-0.404-5.195-0.865c-0.923-0.462-2.828-0.866-4.271-0.866c-1.443-0.059-3.233-0.404-4.041-0.866
	c-0.808-0.461-2.251-0.808-3.232-0.865c-1.039,0-2.597-0.405-3.463-0.866c-0.924-0.461-2.193-0.866-2.886-0.866
	c-0.635,0-1.674-0.404-2.309-0.865c-0.578-0.462-1.674-0.866-2.367-0.866c-0.692,0-2.078-0.404-3.174-0.924
	c-4.445-2.193-5.195-2.539-6.234-2.539c-0.52,0-1.328-0.405-1.731-0.866c-0.405-0.461-1.328-0.866-2.078-0.866
	c-0.751,0-1.385-0.231-1.385-0.52s-0.693-0.808-1.559-1.153c-0.924-0.347-3.175-1.559-5.08-2.656
	c-1.905-1.097-3.983-2.251-4.618-2.598c-1.963-0.98-3.232-1.904-9.121-6.349c-3.174-2.368-6.638-4.907-7.735-5.658
	c-2.771-1.904-19.164-18.471-21.242-21.53c-0.924-1.386-1.847-2.655-2.021-2.828c-0.923-0.866-3.925-5.08-4.213-5.946
	c-0.231-0.52-0.578-0.98-0.924-0.98c-0.288,0-0.634-0.463-0.866-1.039c-0.173-0.52-0.866-1.79-1.5-2.714
	c-0.635-0.981-1.27-2.078-1.443-2.481c-0.173-0.347-0.404-1.039-0.577-1.443c-0.173-0.347-0.808-1.501-1.443-2.425
	c-0.635-0.98-1.27-2.078-1.443-2.481c-0.173-0.347-0.404-1.039-0.577-1.443c-0.173-0.347-0.923-1.848-1.731-3.232
	c-0.809-1.386-1.443-2.887-1.443-3.233c0-0.403-0.405-1.039-0.866-1.442c-0.462-0.404-0.866-1.27-0.866-1.963
	c0-0.635-0.404-1.731-0.866-2.309c-0.462-0.635-0.866-1.789-0.866-2.598c0-0.808-0.405-2.021-0.866-2.598
	c-0.462-0.635-0.866-1.731-0.866-2.482c0-0.692-0.404-2.135-0.808-3.174c-0.462-1.039-1.039-3.117-1.212-4.618
	s-0.577-2.887-0.923-3.06c-0.289-0.231-0.52-1.386-0.52-2.655s-0.346-3.175-0.808-4.214c-1.79-4.329-1.616-38.271,0.23-45.371
	c1.271-4.907,1.905-7.792,2.194-9.813c0.116-1.097,0.635-2.54,1.039-3.175c0.462-0.635,0.808-1.905,0.808-2.886
	c0-0.923,0.404-2.251,0.866-2.829c0.461-0.635,0.866-1.79,0.866-2.597c0-0.809,0.404-2.021,0.866-2.598
	c0.461-0.635,0.866-1.559,0.866-2.136c0-0.52,0.404-1.27,0.866-1.673c0.461-0.405,0.866-1.212,0.866-1.732
	c0-0.578,0.404-1.79,0.808-2.713c0.462-0.866,0.981-2.021,1.155-2.482c0.173-0.462,0.577-1.27,0.866-1.731
	c0.289-0.462,1.097-2.021,1.789-3.463c0.693-1.444,1.732-3.406,2.367-4.33c0.577-0.981,1.27-2.136,1.501-2.597
	c0.173-0.462,1.097-1.79,2.02-2.944c0.866-1.155,1.617-2.367,1.617-2.656c0-0.231,0.577-1.097,1.327-1.905
	c0.692-0.808,1.963-2.482,2.829-3.751c0.866-1.271,2.309-3.117,3.175-4.099c0.866-0.981,3.06-3.406,4.791-5.368
	c4.733-5.368,7.504-8.196,10.679-10.737c1.617-1.27,3.868-3.174,5.08-4.271c1.154-1.097,3.001-2.482,4.041-3.117
	c0.981-0.577,2.54-1.732,3.406-2.54c1.443-1.385,2.598-2.136,5.368-3.636c0.635-0.347,1.847-1.039,2.712-1.617
	c4.792-3.059,8.717-5.311,9.41-5.311c0.461,0,0.923-0.231,1.097-0.519c0.346-0.52,2.944-1.79,7.735-3.868
	c0.981-0.461,2.828-1.212,4.041-1.732c1.155-0.52,2.828-1.327,3.694-1.731c0.808-0.461,2.021-0.808,2.597-0.808
	c0.635,0,1.617-0.405,2.251-0.866c0.578-0.462,1.79-0.866,2.656-0.866c0.866,0,2.251-0.289,3.174-0.635
	c0.866-0.404,2.771-0.866,4.214-1.096c1.443-0.231,3.752-0.693,5.195-1.039c5.946-1.444,9.294-1.963,15.182-2.424
	c3.406-0.231,6.407-0.635,6.638-0.866C244.106,112.464,250.282,112.695,263.731,113.619L263.731,113.619z M101.182,132.205
	c0.635,0.289,2.251,0.577,3.636,0.577c1.386,0.058,3.117,0.405,3.926,0.866c0.808,0.462,2.135,0.808,2.944,0.866
	c0.866,0,1.847,0.404,2.251,0.866c0.404,0.462,1.097,0.866,1.501,0.866c0.461,0,1.905,0.693,3.291,1.559
	c1.327,0.924,2.712,1.732,3.117,1.905c1.789,0.751,13.622,10.737,15.758,13.277c2.771,3.29,2.712,3.867-0.462,7.216
	c-1.155,1.27-2.598,3.001-3.175,3.867c-0.578,0.923-1.385,1.616-1.905,1.616c-0.462,0-2.886-1.962-5.311-4.387
	c-4.272-4.271-9.755-8.196-13.969-10.159c-4.676-2.136-6.465-2.771-7.735-2.771c-0.751,0-2.309-0.404-3.406-0.866
	c-1.501-0.635-4.213-0.866-9.524-0.866c-5.368,0-8.082,0.231-9.524,0.866c-1.155,0.462-2.713,0.866-3.521,0.866
	c-1.963,0-3.29,2.021-2.598,3.868c0.289,0.75,0.52,3.001,0.52,4.963c0.058,2.021,0.404,4.214,0.866,5.022
	c0.461,0.809,0.808,2.367,0.866,3.522c0,1.154,0.404,2.424,0.866,2.828c0.461,0.404,0.866,1.097,0.866,1.616
	c0,1.097,2.193,5.773,2.944,6.234c0.288,0.173,0.52,0.693,0.52,1.155c0,1.27,5.772,8.774,9.235,12.006
	c1.616,1.501,3.752,3.117,4.791,3.579c0.981,0.462,2.655,1.328,3.579,1.962c0.981,0.635,2.251,1.385,2.886,1.731
	c0.635,0.289,1.616,0.809,2.194,1.155c0.52,0.289,1.443,0.866,2.02,1.155c0.52,0.346,1.559,0.808,2.309,1.154
	c1.5,0.635,1.386,2.021-0.578,6.177c-1.212,2.655-1.731,2.886-3.924,1.616c-0.809-0.461-2.078-0.866-2.887-0.866
	c-0.808,0-1.962-0.404-2.54-0.866c-0.634-0.461-1.616-0.866-2.136-0.866c-0.577,0-1.731-0.404-2.655-0.866
	c-0.866-0.404-2.771-1.328-4.214-2.02c-1.443-0.693-3.001-1.444-3.463-1.732c-0.461-0.289-1.27-0.635-1.732-0.808
	c-4.387-1.674-13.392-10.044-15.181-14.2c-0.231-0.462-0.635-1.27-0.924-1.731c-0.288-0.462-0.693-1.27-0.866-1.732
	c-0.173-0.462-0.577-1.27-0.808-1.731c-1.559-2.713-2.424-4.849-2.424-5.715c0-0.52-0.404-1.501-0.866-2.136
	c-0.462-0.578-0.866-1.905-0.866-2.944c0-0.981-0.347-2.54-0.809-3.463c-1.385-2.713-2.251-9.236-2.482-18.183l-0.231-8.428
	l2.078-1.616c1.097-0.866,3.002-1.732,4.214-1.963c1.154-0.288,2.944-0.75,3.867-1.039c3.983-1.385,7.158-2.02,10.967-2.251
	c2.251-0.115,4.561-0.461,5.195-0.75C90.215,130.993,98.989,130.993,101.182,132.205z M411.793,132.09
	c0.461,0.173,2.943,0.52,5.483,0.75c5.831,0.52,14.893,2.771,19.222,4.733l2.425,1.096v8.139c0,5.6-0.289,9.121-0.866,11.025
	c-0.461,1.559-0.866,3.925-0.866,5.195c-0.057,1.328-0.403,3.001-0.865,3.81c-0.462,0.809-0.866,2.078-0.866,2.887
	c0,0.808-0.403,1.962-0.866,2.539c-0.461,0.635-0.865,1.674-0.865,2.367c0,0.692-0.403,1.731-0.866,2.367
	c-0.461,0.577-0.865,1.673-0.865,2.366s-0.23,1.385-0.52,1.559c-0.289,0.231-1.097,1.559-1.848,3.117
	c-0.692,1.501-2.192,3.81-3.231,5.195c-2.368,2.887-9.697,8.543-13.565,10.391c-1.501,0.75-2.886,1.558-3.06,1.905
	c-0.23,0.289-0.924,0.52-1.616,0.52s-1.79,0.404-2.366,0.866c-0.636,0.462-1.731,0.866-2.425,0.866s-1.56,0.405-1.963,0.866
	c-0.403,0.462-1.212,0.866-1.788,0.866c-0.579,0-1.213,0.231-1.386,0.578c-0.463,0.75-5.368,2.886-6.696,2.886
	c-0.637,0-1.097-0.347-1.097-0.75c0-0.346-0.346-1.328-0.752-2.135c-0.46-0.809-0.923-2.31-1.152-3.291
	c-0.29-1.501-0.116-1.963,1.212-2.829c2.309-1.559,5.482-3.117,6.234-3.117c0.347,0,0.979-0.404,1.386-0.866
	c0.402-0.461,1.212-0.866,1.845-0.866c0.579,0,1.212-0.404,1.386-0.866c0.232-0.461,0.579-0.866,0.865-0.866
	c1.675,0,8.833-6.407,12.297-10.967c2.539-3.29,6.118-10.044,6.118-11.545c0-0.461,0.404-1.385,0.865-1.962
	c0.463-0.635,0.866-1.789,0.866-2.54c0-0.75,0.404-2.771,0.865-4.444c0.637-2.021,0.866-4.791,0.751-8.139l-0.173-5.137l-2.31-0.404
	c-1.269-0.173-3.347-0.635-4.617-0.982c-3.578-0.923-15.528-0.808-18.01,0.231c-1.096,0.462-2.771,0.866-3.58,0.866
	c-0.865,0-2.078,0.405-2.711,0.866c-0.579,0.462-1.675,0.866-2.311,0.866c-0.692,0-1.559,0.404-1.962,0.866
	c-0.403,0.462-1.155,0.866-1.731,0.866c-0.52,0-2.078,0.751-3.348,1.732c-1.328,0.924-2.656,1.731-2.887,1.731
	c-0.289,0-1.269,0.751-2.194,1.732c-0.923,0.924-1.962,1.731-2.251,1.731c-0.807,0-5.195,4.618-5.655,5.888
	c-0.636,1.732-1.965,1.155-4.043-1.731c-1.152-1.5-2.598-3.232-3.23-3.81c-2.311-2.136-1.618-3.867,3.637-9.236
	c2.598-2.713,4.963-4.964,5.195-4.964c0.229,0,1.615-1.039,3.117-2.309c1.499-1.328,3.29-2.655,3.982-3.06
	c1.789-0.981,6.062-3.117,7.101-3.521c0.46-0.173,1.269-0.577,1.731-0.866C391.415,132.552,407.925,130.531,411.793,132.09z
	 M95.294,152.466c1.039,0,2.021,0.23,2.193,0.52c0.173,0.346,1.559,0.577,3.06,0.577c2.251,0,5.31,0.692,9.063,2.136
	c0.346,0.115,1.385,0.692,2.309,1.327c0.981,0.635,2.136,1.328,2.598,1.559c3.002,1.328,12.295,10.044,12.93,12.18
	c0.347,0.924-0.173,2.193-2.021,5.022c-1.385,2.078-2.712,3.751-3.001,3.751c-0.289,0-2.021-1.154-3.867-2.598
	c-1.847-1.443-3.521-2.598-3.636-2.598c-0.173,0-1.674-0.923-3.349-2.078c-1.732-1.154-3.867-2.482-4.849-2.886
	c-0.923-0.462-2.136-1.039-2.598-1.328c-1.674-0.923-5.31-1.905-5.657-1.501c-0.231,0.231-0.058,0.578,0.347,0.692
	c0.346,0.173,0.692,0.52,0.692,0.809c0,1.385,6.984,9.063,8.947,9.813c0.347,0.115,2.887,1.732,5.657,3.579l5.138,3.406
	l-0.405,2.078c-0.23,1.212-0.75,2.54-1.212,3.06c-0.461,0.461-0.808,1.27-0.808,1.732c-0.058,0.98-2.021,3.405-2.771,3.405
	c-0.346,0-1.328-0.404-2.251-0.808c-0.866-0.462-2.021-1.039-2.483-1.212c-0.461-0.173-2.135-1.097-3.751-2.021
	c-1.559-0.981-3.521-2.078-4.329-2.482c-2.31-1.097-5.138-3.868-8.139-7.908c-1.559-2.078-3.002-4.041-3.233-4.33
	c-0.981-1.27-4.213-8.428-4.213-9.351c-0.058-0.577-0.404-1.674-0.866-2.482c-0.462-0.808-0.809-2.136-0.866-2.944
	c0-0.866-0.405-2.482-0.866-3.579c-1.501-3.579-1.212-4.099,2.482-5.195c1.962-0.52,4.214-0.808,5.599-0.635
	C92.409,152.351,94.255,152.524,95.294,152.466z M415.142,152.582c1.039,0.23,2.135,0.52,2.424,0.692
	c1.212,0.75,0.635,4.387-1.848,11.544c-0.347,0.924-0.75,2.54-0.866,3.579c-0.173,1.039-0.635,2.194-1.096,2.54
	c-0.463,0.346-0.809,1.097-0.809,1.674c0,0.578-0.403,1.328-0.866,1.731c-0.462,0.405-0.866,1.097-0.866,1.559
	c0,2.251-8.197,10.679-12.12,12.468c-0.463,0.231-1.618,0.924-2.598,1.501c-2.484,1.616-6.294,3.521-7.043,3.521
	c-0.347,0-0.923,0.404-1.329,0.866c-1.559,1.905-2.771,0.981-5.136-3.925l-2.367-4.733l1.386-1.154
	c0.749-0.635,2.887-2.194,4.732-3.463c4.502-3.117,12.354-10.968,12.354-12.411c0-1.386-1.212-1.501-3.35-0.347
	c-0.866,0.404-2.598,1.27-3.867,1.848c-1.962,0.923-5.944,3.521-8.082,5.31c-1.788,1.443-5.715,4.156-6.061,4.156
	c-0.23,0-1.153-1.097-2.078-2.482c-0.923-1.327-2.252-3.059-2.944-3.867c-0.749-0.809-1.326-1.674-1.326-1.963
	c0-0.634,4.616-5.195,9.465-9.409c5.195-4.502,10.91-7.1,18.243-8.254c1.731-0.289,4.501-0.809,6.06-1.097
	C408.041,151.947,411.562,152.005,415.142,152.582L415.142,152.582z M90.85,209.843c0.808,0.462,2.424,0.809,3.636,0.866
	c1.212,0,2.771,0.289,3.463,0.693c0.693,0.346,2.193,0.866,3.291,1.097c6.061,1.327,7.677,2.712,6.292,5.252
	c-0.404,0.75-0.923,2.482-1.096,3.926l-0.289,2.597l-2.54,0.173c-1.385,0.115-3.521-0.231-4.733-0.692
	c-3.117-1.271-15.123-1.271-17.49-0.059c-0.866,0.462-2.078,0.866-2.597,0.866c-1.674,0-7.1,3.06-11.949,6.753
	c-4.733,3.637-19.28,18.125-19.28,19.222c0,0.52,12.18,14.432,13.969,15.875c3.983,3.29,7.389,5.771,8.832,6.465
	c0.982,0.404,2.136,0.981,2.598,1.27c2.887,1.616,4.618,2.366,5.427,2.366c0.52,0,1.673,0.462,2.482,0.981
	c2.251,1.502,19.164,1.502,21.935,0c2.424-1.27,3.637-0.75,3.637,1.616c0,0.981,0.288,2.656,0.634,3.637
	c0.751,2.194-0.115,4.156-1.847,4.156c-0.635,0-1.732,0.289-2.424,0.692c-0.693,0.347-2.194,0.866-3.291,1.098
	c-1.097,0.23-2.771,0.692-3.752,0.98c-3.926,1.386-11.141,2.54-13.854,2.251c-4.791-0.52-11.313-1.962-12.006-2.654
	c-0.347-0.347-1.155-0.636-1.79-0.636c-0.693-0.058-2.251-0.692-3.521-1.442c-1.27-0.809-2.828-1.675-3.463-1.963
	c-1.328-0.577-7.966-6.522-13.854-12.468c-6.407-6.35-9.64-10.448-15.412-19.223c-1.559-2.366-1.79-2.943-1.386-3.752
	c0.981-1.962,7.735-11.775,8.889-12.93c0.578-0.577,2.425-2.712,4.156-4.791c3.521-4.329,9.294-9.929,13.854-13.507
	c3.579-2.771,9.352-6.119,10.563-6.119c0.462,0,1.155-0.404,1.559-0.866c0.405-0.462,1.385-0.866,2.251-0.866
	c0.808,0,2.829-0.405,4.387-0.809C80.055,208.805,88.945,208.747,90.85,209.843L90.85,209.843z M423.915,209.843
	c1.327,0.462,3.117,0.866,3.982,0.866c0.808,0,3.06,0.751,4.964,1.674c1.905,0.923,3.868,1.848,4.329,2.021
	c1.386,0.52,2.888,1.616,5.139,3.694c1.154,1.039,2.713,2.251,3.521,2.713c1.559,0.866,11.313,10.621,12.699,12.699
	c0.461,0.75,2.829,3.867,5.195,6.984c5.427,7.1,6.349,8.543,6.349,9.986c0,3.752-16.451,23.032-27.36,32.094
	c-3.117,2.598-9.235,6.061-10.736,6.061c-0.52,0-1.442,0.404-2.078,0.866c-0.577,0.462-1.962,0.866-3.001,0.866
	s-2.829,0.404-3.983,0.865c-1.097,0.462-3.694,0.866-5.657,0.866c-1.962,0-4.732-0.404-6.062-0.866
	c-1.327-0.461-3.29-0.865-4.271-0.865c-0.981,0-2.31-0.404-2.886-0.866c-0.636-0.462-1.847-0.866-2.772-0.866
	c-0.866,0-2.425-0.346-3.463-0.808c-1.039-0.462-2.655-1.039-3.577-1.212c-1.502-0.289-1.618-0.52-1.272-2.193
	c0.174-1.039,0.52-2.944,0.693-4.272c0.52-3.405,1.559-4.156,3.869-2.712c1.615,0.923,3.001,1.096,11.371,1.039
	c9.351,0,9.581-0.059,13.275-1.79c2.078-0.981,4.156-1.905,4.618-2.136c3.579-1.443,11.833-8.255,17.316-14.258
	c3.002-3.29,6.234-6.696,7.158-7.562l1.674-1.559l-1.442-2.194c-2.482-3.751-18.299-19.222-19.626-19.222
	c-0.288,0-1.386-0.634-2.366-1.385c-1.79-1.27-4.907-2.828-9.063-4.444c-3.231-1.212-16.22-1.385-19.857-0.231
	c-1.673,0.52-3.81,0.866-4.732,0.751c-1.559-0.173-1.675-0.404-1.962-3.06c-0.173-1.616-0.692-3.463-1.099-4.213
	c-0.866-1.674-0.46-3.002,0.982-3.002c0.576,0,1.559-0.404,2.194-0.866c0.576-0.461,1.731-0.866,2.538-0.866
	c0.809,0,2.078-0.404,2.887-0.866c0.81-0.461,2.366-0.866,3.464-0.866c1.097-0.057,3.175-0.404,4.617-0.808
	C413.178,208.804,420.971,208.804,423.915,209.843z M410.927,228.604c7.446,1.327,8.773,1.673,10.679,2.309
	c1.097,0.404,2.424,0.981,2.887,1.212c0.462,0.289,1.27,0.692,1.732,0.923c1.269,0.52,5.425,3.752,5.944,4.618
	c0.231,0.404,0.751,0.75,1.155,0.75c0.749,0,6.234,5.311,9.062,8.717c2.251,2.712,2.194,4.156-0.229,7.1
	c-7.446,9.063-18.356,17.086-23.264,17.086c-0.751,0-1.963,0.404-2.771,0.924c-1.098,0.692-2.655,0.865-7.907,0.692
	c-5.773-0.231-8.487-0.692-11.431-2.193c-0.693-0.347-0.807-1.386-0.693-4.965c0.174-5.426,0.982-6.695,3.35-5.426
	c1.039,0.577,3.521,0.809,7.908,0.866c6.176,0,6.58-0.116,9.928-1.905c3.349-1.789,10.102-7.677,10.102-8.774
	c0-0.923-6.868-6.926-7.966-6.926c-0.288,0-0.865-0.404-1.271-0.866c-0.403-0.461-1.153-0.866-1.731-0.866
	c-0.576,0-1.788-0.404-2.654-0.866c-2.251-1.154-10.505-1.154-13.336,0c-3,1.27-4.213,0.692-4.213-1.962
	c0-1.212-0.173-3.406-0.346-4.849c-0.347-2.482-0.29-2.655,1.385-3.521c0.982-0.52,2.368-0.924,3.117-0.924
	c0.75,0,2.368-0.404,3.637-0.866C406.656,227.969,407.059,227.911,410.927,228.604L410.927,228.604z M98.643,229.643
	c5.483,1.039,6.061,1.443,6.003,4.56c-0.058,5.079-0.693,7.389-2.078,7.562c-0.75,0.115-1.905-0.231-2.598-0.692
	c-1.789-1.271-10.736-1.271-12.353-0.058c-0.577,0.462-1.559,0.866-2.136,0.866c-1.385,0-6.985,3.175-9.005,5.08
	c-0.462,0.404-1.385,1.154-2.136,1.674c-0.75,0.462-1.385,1.154-1.385,1.443c0,1.442,6.985,7.1,12.122,9.871
	c2.829,1.5,13.104,1.615,15.354,0.114c0.809-0.52,1.616-0.808,1.848-0.634c0.692,0.75,1.731,4.617,2.135,7.907
	c0.347,3.002,0.289,3.464-0.692,3.695c-0.577,0.23-1.79,0.75-2.655,1.212c-2.309,1.153-15.644,1.097-17.722-0.059
	c-0.808-0.461-2.078-0.865-2.886-0.865s-1.963-0.404-2.54-0.866c-0.635-0.461-1.501-0.866-1.962-0.866
	c-0.462,0-1.79-0.808-3.002-1.731c-1.212-0.98-2.424-1.731-2.655-1.731c-0.462,0-1.328-0.693-6.119-4.964
	c-3.463-3.117-7.966-9.005-7.966-10.448c0-2.771,18.125-19.222,21.242-19.222c0.52,0,1.732-0.404,2.656-0.866
	c0.866-0.461,2.309-0.866,3.175-0.866c0.808,0,1.905-0.288,2.367-0.577C86.636,228.488,94.198,228.777,98.643,229.643z
	 M99.277,246.209c0.578,0.462,1.674,0.866,2.424,0.866c1.155,0,1.27,0.289,1.27,3.521c0,3.405-0.058,3.463-2.021,4.329
	c-1.212,0.461-3.925,0.808-6.927,0.808c-4.387,0-5.368-0.23-8.658-1.847c-2.078-0.981-3.752-2.078-3.752-2.482
	c0-0.75,4.849-4.329,5.946-4.329c0.404-0.058,1.327-0.404,2.136-0.866C91.658,245.113,97.777,245.113,99.277,246.209z
	 M411.619,246.152c0.866,0.462,2.021,1.039,2.483,1.212c2.366,0.923,5.194,3.174,5.194,4.156c-0.058,0.231-1.789,1.328-3.982,2.31
	c-3.464,1.674-4.445,1.904-8.89,1.904c-2.713,0-5.079-0.23-5.312-0.52c-0.174-0.288-1.096-0.692-2.019-0.923
	c-1.675-0.347-1.731-0.52-1.731-3.521c0-2.482,0.229-3.232,1.038-3.463c0.52-0.173,1.789-0.692,2.712-1.097
	C403.423,245.17,409.542,245.113,411.619,246.152L411.619,246.152z M109.956,294.293c0.231,1.097,0.693,2.251,1.039,2.598
	c1.501,1.501,0,5.599-2.021,5.599c-0.808,0-3.81,1.559-6.869,3.522c-0.924,0.576-2.136,1.27-2.598,1.5
	c-5.195,2.424-15.585,12.699-15.585,15.412c0,0.462-0.231,0.981-0.52,1.154c-0.693,0.462-2.944,5.08-2.944,6.177
	c0,0.462-0.404,1.327-0.866,1.905c-0.462,0.635-0.866,1.847-0.866,2.713c0,0.808-0.405,2.482-0.866,3.578
	c-1.097,2.715-1.212,13.624-0.116,13.911c0.346,0.116,2.021,0.636,3.579,1.155c3.348,1.096,16.913,1.328,18.817,0.289
	c0.635-0.346,2.367-0.809,3.868-1.098c1.5-0.23,3.637-0.807,4.733-1.153c1.096-0.405,2.309-0.865,2.598-0.925
	c0.346-0.114,0.981-0.46,1.443-0.75c0.462-0.289,1.27-0.692,1.731-0.923c2.886-1.155,7.908-4.792,11.661-8.485
	c5.715-5.6,5.195-5.427,7.273-2.598c0.923,1.326,2.655,3.348,3.81,4.443c1.097,1.099,2.078,2.251,2.078,2.483
	c0,0.807-11.718,11.949-14.546,13.795c-0.809,0.52-1.848,1.328-2.31,1.848c-0.808,0.749-2.02,1.502-6.234,3.753
	c-0.461,0.23-1.905,0.923-3.175,1.499c-1.27,0.52-3.06,1.328-4.041,1.731c-4.675,2.138-27.996,1.965-33.364-0.229
	c-0.923-0.347-2.251-0.636-3.001-0.636c-0.693,0-2.078-0.403-2.944-0.866c-0.924-0.46-2.54-0.866-3.579-0.866
	s-2.54-0.402-3.29-0.922c-1.443-0.923-1.443-0.982-1.443-10.334c0-6.867,0.23-10.044,0.866-11.832
	c0.461-1.329,0.866-3.291,0.866-4.272c0-1.039,0.404-2.366,0.866-3.001c0.461-0.577,0.866-2.021,0.866-3.117s0.404-2.54,0.866-3.117
	c0.461-0.635,0.866-1.674,0.866-2.309c0-0.692,0.404-1.731,0.866-2.31c0.461-0.634,0.866-1.559,0.866-2.02
	c0-0.52,0.866-2.598,1.847-4.676c2.482-4.791,12.007-14.604,16.047-16.336l1.731-0.866c1.039-0.635,5.945-2.771,11.141-4.906
	c4.099-1.731,7.1-2.598,8.774-2.54C109.321,292.389,109.61,292.677,109.956,294.293L109.956,294.293z M396.784,293.254
	c1.099,0.404,2.771,1.039,3.636,1.501c0.926,0.462,1.965,0.808,2.368,0.808c0.924,0,7.158,3.291,8.485,4.388
	c0.461,0.461,1.212,0.808,1.559,0.808c0.924,0,7.734,4.791,9.985,7.043c3.002,2.943,5.368,6.233,6.812,9.235
	c0.751,1.559,1.559,2.887,1.848,3.117c0.289,0.173,0.52,0.808,0.52,1.385c0,0.578,0.404,1.848,0.865,2.829
	c0.463,0.981,1.271,2.598,1.731,3.578c0.463,0.982,0.866,2.598,0.866,3.579c0,1.039,0.404,2.367,0.866,2.944
	c0.462,0.635,0.865,2.078,0.865,3.174c0,1.155,0.405,3.523,0.866,5.255c0.577,2.078,0.866,5.944,0.866,11.196
	c0,7.506-0.115,8.139-1.27,9.411c-0.751,0.806-1.905,1.325-3.002,1.325c-0.98,0-2.539,0.406-3.464,0.866
	c-0.865,0.463-2.366,0.866-3.231,0.866c-0.924,0-2.368,0.289-3.29,0.692c-3.58,1.502-20.897,2.251-28.169,1.212
	c-4.1-0.633-6.467-1.325-10.104-3c-2.771-1.27-7.677-4.214-8.369-5.022c-0.289-0.403-1.615-1.328-2.887-2.135
	c-2.309-1.386-14.141-12.642-14.141-13.394c0-0.174,1.212-1.962,2.711-3.924c3.753-4.907,4.389-5.6,4.965-5.6
	c0.29,0,2.425,1.903,4.676,4.215c3.693,3.81,7.62,6.867,12.525,9.811c2.311,1.329,7.966,3.291,9.524,3.291
	c0.692,0,2.021,0.405,2.887,0.865c2.135,1.099,19.223,1.271,20.262,0.232c0.404-0.405,1.673-0.865,2.886-1.039l2.194-0.346
	l-0.231-6.294c-0.115-3.577-0.52-7.1-0.981-8.195c-0.462-1.039-0.809-2.54-0.809-3.349c0-0.75-0.347-2.136-0.808-3.06
	c-0.692-1.442-1.847-4.04-2.886-6.522c-0.404-0.924-1.155-2.193-2.944-4.906c-1.385-2.136-7.909-8.947-8.602-8.947
	c-0.229,0-1.442-0.75-2.598-1.616c-1.153-0.924-2.482-1.848-2.942-2.021c-0.463-0.23-1.618-0.924-2.598-1.559
	c-0.925-0.635-2.138-1.27-2.598-1.5c-0.463-0.174-1.559-0.693-2.424-1.155c-0.81-0.462-2.021-0.809-2.657-0.809
	c-1.905,0-2.654-1.442-1.962-3.867c1.848-6.465,1.962-6.638,4.156-6.35C393.84,292.389,395.688,292.851,396.784,293.254
	L396.784,293.254z M391.129,309.07c2.711,1.443,5.828,3.117,6.867,3.752c1.099,0.692,2.367,1.386,2.83,1.616
	c0.46,0.173,2.539,1.848,4.617,3.694c2.828,2.425,4.213,4.271,5.656,7.216c1.039,2.193,2.31,4.733,2.771,5.6
	c0.461,0.923,0.808,2.251,0.808,2.943s0.404,1.789,0.865,2.425c0.463,0.577,0.866,1.846,0.866,2.712c0,0.865,0.404,2.54,0.866,3.696
	c0.981,2.308,1.155,4.559,0.346,5.078c-0.634,0.347-3.117,0.75-7.907,1.212c-2.598,0.29-4.329,0.117-6.35-0.576
	c-1.5-0.52-4.33-0.925-6.235-0.925c-2.654-0.057-4.097-0.403-5.828-1.442c-1.271-0.75-3.406-1.962-4.792-2.598
	c-2.367-1.212-14.546-12.525-14.546-13.564c0-0.231,0.981-1.79,2.194-3.406c1.212-1.616,2.364-3.406,2.598-3.983
	c0.402-1.096,2.364-1.327,3.463-0.403c2.365,2.02,9.928,7.215,11.37,7.907c0.463,0.231,2.138,1.098,3.637,2.021
	c3.003,1.79,5.601,2.136,5.601,0.751c0-0.404-0.347-1.039-0.692-1.271c-0.406-0.23-1.792-1.731-3.004-3.29
	c-2.538-3.117-7.85-7.504-10.447-8.658c-0.922-0.404-2.597-1.443-3.579-2.309c-1.559-1.328-1.846-1.905-1.559-3.117
	c0.232-0.866,0.752-1.963,1.155-2.482c0.463-0.462,0.809-1.213,0.809-1.616c0-0.809,1.846-3.464,2.365-3.521
	C386.106,306.531,388.472,307.685,391.129,309.07z M116.075,309.994c0.751,1.443,1.617,2.828,1.905,3.117
	c0.981,0.98,0.693,4.387-0.404,4.791c-0.577,0.23-2.078,1.097-3.348,1.904c-4.156,2.598-4.618,2.887-5.831,3.406
	c-2.021,0.865-8.889,8.081-8.889,9.294c0,1.385,1.097,1.5,2.655,0.288c0.577-0.462,1.501-0.866,2.021-0.866s2.078-0.635,3.463-1.386
	c1.385-0.808,3.925-2.135,5.656-3.001c1.674-0.924,4.272-2.655,5.657-3.926l2.655-2.309l1.905,2.251
	c1.097,1.271,1.963,2.598,1.963,2.944s0.404,0.981,0.866,1.386c1.731,1.442,0.923,3.116-3.579,7.619
	c-4.214,4.156-9.986,8.542-11.256,8.542c-0.289,0-1.096,0.347-1.789,0.692c-1.905,1.099-6.061,2.252-9.929,2.771
	c-1.905,0.289-4.214,0.636-5.195,0.865c-0.923,0.174-3.694,0.52-6.119,0.693c-3.579,0.232-4.502,0.116-5.311-0.693
	c-1.212-1.152-1.27-4.097-0.115-6.811c0.461-1.155,0.866-2.827,0.866-3.693s0.404-2.137,0.866-2.714
	c0.461-0.635,0.866-1.847,0.866-2.713c0-0.808,0.404-1.847,0.866-2.251c0.461-0.404,0.866-0.981,0.866-1.327
	c0-3.117,8.081-12.584,13.276-15.586c3.406-1.963,9.756-5.195,11.256-5.657C113.939,306.935,114.689,307.339,116.075,309.994z
	 M363.768,356.172c9.755,9.987,15.066,18.702,16.335,26.555c2.078,13.334,2.078,11.196,0,24.53
	c-0.636,3.811-1.788,8.372-2.541,9.814c-0.346,0.636-0.806,1.904-1.039,2.887c-0.865,3.29-2.078,6.175-2.884,6.694
	c-1.386,0.866-21.879,0.636-24.477-0.347c-1.27-0.46-3.521-0.806-4.963-0.865c-1.444,0-3.117-0.403-3.753-0.866
	c-0.576-0.46-1.788-0.865-2.655-0.865c-0.865,0-2.54-0.403-3.752-0.923c-4.04-1.789-5.657-2.481-6.522-2.771
	c-0.462-0.229-1.616-0.865-2.598-1.501c-0.924-0.634-2.136-1.326-2.598-1.559c-0.462-0.174-2.021-1.442-3.464-2.712
	c-1.442-1.328-3.751-3.29-5.079-4.389c-3.06-2.598-8.313-9.697-9.697-13.274c-0.577-1.559-2.021-4.849-2.887-6.523
	c-1.386-2.771-1.039-4.04,1.443-5.195c1.154-0.52,2.425-0.982,2.713-0.982s1.847-0.692,3.521-1.499
	c3.117-1.618,4.617-1.559,5.137,0.174c0.173,0.576,0.692,1.788,1.154,2.654c0.404,0.923,0.809,1.962,0.809,2.424
	c0,0.403,0.404,1.039,0.866,1.442c0.461,0.406,0.865,1.039,0.865,1.502c0,2.308,6.35,9.408,11.371,12.758
	c1.675,1.096,3.233,2.251,3.406,2.538c0.173,0.289,0.75,0.52,1.328,0.52c0.577,0,1.385,0.405,1.789,0.865
	c0.404,0.463,1.328,0.866,2.021,0.866c0.693,0,1.616,0.406,2.02,0.866c0.405,0.462,1.328,0.865,2.138,0.865
	c0.749,0,1.961,0.29,2.654,0.693c1.559,0.809,14.083,2.021,17.547,1.675c1.039-0.116,2.483-3.174,2.483-5.195
	c0-0.982,0.403-3.233,0.866-5.079c0.46-1.791,0.866-5.312,0.866-7.735c0-2.598-0.347-5.252-0.866-6.465
	c-0.463-1.155-0.866-2.714-0.866-3.406c0-0.749-0.405-2.078-0.865-3.001c-0.463-0.865-0.866-2.078-0.866-2.656
	c0-0.577-0.405-1.326-0.865-1.732c-0.463-0.403-0.866-1.152-0.866-1.731c0-0.576-0.406-1.326-0.866-1.731
	c-0.463-0.403-0.865-0.923-0.865-1.213c0-0.865-5.255-8.139-7.273-10.101c-1.039-1.039-2.311-2.54-2.83-3.347l-1.039-1.559
	l4.216-3.983C357.244,348.612,356.089,348.266,363.768,356.172L363.768,356.172z M147.938,353.401
	c1.963,1.731,3.406,3.579,3.463,4.216c0,0.633-0.923,2.078-2.02,3.174c-2.425,2.424-8.313,10.101-8.313,10.853
	c0,0.287-0.404,0.866-0.866,1.27c-0.462,0.402-0.866,1.155-0.866,1.731s-0.405,1.328-0.866,1.731
	c-0.462,0.403-0.866,1.386-0.866,2.251c0,0.81-0.404,2.021-0.866,2.598c-0.462,0.636-0.866,1.905-0.866,2.771
	c0,0.923-0.405,2.598-0.866,3.753c-1.039,2.481-1.154,11.66-0.231,14.604c0.404,1.096,0.808,3.406,1.039,5.139
	c0.462,4.039,2.194,5.541,5.253,4.676c1.097-0.29,4.214-0.579,6.927-0.579c3.232,0,5.483-0.287,6.581-0.866
	c0.866-0.46,2.251-0.866,3.059-0.866c0.808,0,2.136-0.346,2.944-0.806c0.866-0.406,3.29-1.618,5.426-2.657
	c6.234-3.117,16.625-12.988,16.625-15.759c0-0.52,0.231-1.039,0.52-1.212c0.635-0.403,2.944-5.079,2.944-5.945
	c0-0.289,0.52-1.038,1.154-1.615c1.212-1.099,1.443-1.099,5.888,1.213c0.808,0.46,1.905,0.806,2.367,0.806
	c0.52,0,1.674,0.463,2.713,0.982c1.443,0.81,1.731,1.329,1.5,2.481c-0.347,2.138-1.79,5.715-2.54,6.467
	c-0.404,0.403-0.693,1.269-0.693,1.962c0,0.692-0.404,1.559-0.866,1.961c-0.462,0.406-0.866,0.982-0.866,1.272
	c0,0.923-5.195,7.503-8.024,10.217c-2.886,2.711-8.485,7.157-9.871,7.733c-0.461,0.232-1.27,0.636-1.731,0.925
	c-0.461,0.287-1.27,0.693-1.732,0.866c-0.461,0.173-1.27,0.576-1.731,0.866c-0.461,0.286-1.905,0.979-3.175,1.499
	c-1.27,0.579-3.001,1.385-3.867,1.848c-0.808,0.403-2.136,0.75-2.886,0.75c-0.693,0.059-1.962,0.405-2.771,0.865
	c-0.808,0.463-2.367,0.81-3.521,0.866c-1.154,0-3.232,0.405-4.561,0.865c-1.847,0.637-5.195,0.866-13.564,0.866h-11.141
	l-1.212-2.481c-0.692-1.385-1.212-2.887-1.212-3.347c0-0.463-0.405-1.386-0.866-2.021c-0.462-0.576-0.866-1.788-0.866-2.654
	s-0.289-2.251-0.635-3.177c-0.404-0.865-0.866-3.577-1.096-5.944c-0.231-2.366-0.751-5.425-1.097-6.754
	c-0.808-3.059-0.52-13.797,0.404-14.72c0.404-0.402,0.693-1.788,0.693-3.174c0-3.753,3.405-11.141,8.139-17.433
	c3.752-4.964,13.854-15.066,15.124-15.066C144.128,350.4,146.091,351.786,147.938,353.401L147.938,353.401z M159.31,363.099
	c0.923,0.926,1.905,1.731,2.193,1.731s1.674,0.926,3.059,2.078c2.194,1.849,2.424,2.194,1.79,3.061
	c-0.462,0.52-1.386,2.078-2.194,3.521c-0.75,1.444-3.117,5.195-5.311,8.371c-3.694,5.426-4.617,7.85-3.405,8.6
	c0.289,0.173,0.808-0.057,1.212-0.52c0.404-0.46,1.097-0.866,1.5-0.866c0.981,0,8.254-6.811,8.947-8.369
	c0.289-0.636,1.155-2.194,1.962-3.463c0.751-1.27,1.385-2.771,1.443-3.348c0-2.194,1.79-1.848,6.638,1.326
	c0.981,0.636,2.367,1.386,3.117,1.731c1.155,0.52,1.328,0.866,1.039,2.657c-0.231,1.152-0.75,2.538-1.27,3.117
	c-0.462,0.52-0.866,1.326-0.866,1.788c-0.058,0.463-0.693,1.849-1.443,3.117c-0.808,1.27-1.616,2.714-1.847,3.174
	c-1.212,2.598-10.795,10.391-12.815,10.391c-0.289,0-0.808,0.406-1.212,0.866c-0.405,0.462-1.212,0.865-1.79,0.865
	c-0.577,0-1.905,0.347-2.944,0.81c-3.81,1.559-8.313,2.654-12.006,2.771l-3.752,0.173l-0.461-4.329
	c-0.289-2.367-0.52-5.484-0.52-6.927c0.057-5.079,1.905-14.144,3.463-17.087c0.346-0.633,0.75-1.499,0.923-1.962
	c0.404-0.982,1.328-2.481,2.828-4.619c1.559-2.191,9.178-10.39,9.64-10.39C157.462,361.367,158.387,362.119,159.31,363.099
	L159.31,363.099z M349.105,367.834c1.788,1.962,3.233,3.81,3.233,4.097c0,0.289,0.806,1.502,1.731,2.714
	c0.979,1.212,1.731,2.598,1.731,3.061c0,0.46,0.403,1.152,0.866,1.558c0.46,0.403,0.865,1.153,0.865,1.732
	c0,0.576,0.403,1.962,0.866,3.058c0.633,1.618,0.866,4.502,0.866,12.238v10.101h-3.983c-3.81,0-8.025-0.923-12.065-2.654
	c-1.039-0.463-2.251-0.81-2.654-0.81c-0.405,0-1.904-0.633-3.291-1.442c-1.385-0.809-2.943-1.615-3.405-1.848
	c-2.309-0.979-8.196-6.291-9.641-8.599c-2.192-3.523-4.849-9.584-4.964-11.489c-0.115-2.019,0.058-2.251,2.771-3.81
	c5.137-3.001,5.483-3.117,6.521-2.425c0.52,0.29,1.039,1.272,1.155,2.078c0.115,0.81,0.577,1.792,1.039,2.138
	c0.462,0.403,0.809,1.096,0.809,1.559c0,0.403,0.403,0.923,0.865,1.096c0.462,0.23,0.866,0.693,0.866,1.096
	c0,1.156,7.62,7.793,9.006,7.793c0.346,0,0.979,0.406,1.385,0.866c0.807,0.925,1.731,0.636,1.731-0.576
	c0-0.403-1.904-3.58-4.155-7.044c-4.792-7.04-5.485-8.195-5.947-9.407c-0.173-0.463-0.692-1.559-1.153-2.425
	c-0.751-1.502-0.693-1.675,1.904-3.81c1.501-1.27,3.578-2.828,4.677-3.464c1.961-1.212,2.019-1.212,3.577-0.057
	C345.179,363.791,347.373,365.869,349.105,367.834L349.105,367.834z M207.335,388.035c0.347,0.347,1.732,0.866,3.117,1.099
	c4.214,0.75,8.197,2.019,8.428,2.711c0.058,0.29-0.23,1.559-0.692,2.714c-1.097,2.598-1.27,14.316-0.289,16.854
	c0.347,0.866,0.866,2.541,1.097,3.637c0.981,4.216,1.962,6.121,7.273,14.144c1.039,1.559,4.733,5.715,8.139,9.234
	c9.871,10.044,13.334,12.988,15.354,12.988c3.463,0,23.378-19.452,26.553-25.916c0.231-0.52,0.924-1.732,1.559-2.657
	c0.635-0.979,1.327-2.135,1.501-2.598c0.173-0.46,0.692-1.672,1.154-2.711c0.462-0.982,0.809-2.425,0.809-3.177
	c0.058-0.692,0.403-1.962,0.865-2.771c1.154-2.078,1.154-12.409-0.058-15.872c-1.5-4.446-1.443-4.503,7.851-6.581
	c1.097-0.232,2.598-0.752,3.29-1.099c1.097-0.633,1.327-0.46,2.425,1.386c0.808,1.271,1.212,3.003,1.212,4.792
	c0,1.559,0.404,3.753,0.866,4.849c0.577,1.442,0.866,4.1,0.866,8.082c0,3.866-0.289,6.927-0.866,8.485
	c-0.462,1.326-0.866,3.058-0.866,3.81c0,1.213-3.002,8.08-4.791,10.91c-5.253,8.369-17.144,20.664-27.188,28.11
	c-2.887,2.135-5.542,4.156-5.945,4.502c-0.405,0.29-0.866,0.577-1.039,0.577c-0.347,0-3.753,2.311-4.329,2.887
	c-0.578,0.636-3.464,2.308-3.868,2.308c-0.289,0-1.154-0.633-2.02-1.441c-0.866-0.81-2.078-1.675-2.656-1.905
	c-0.635-0.229-1.847-0.982-2.771-1.731c-0.923-0.693-3.117-2.368-4.906-3.753c-7.446-5.599-12.179-9.698-18.76-16.335
	c-6.061-6.062-11.775-13.218-11.775-14.663c0-0.286-0.405-1.325-0.924-2.424c-2.309-4.56-2.539-5.252-2.539-6.984
	c-0.059-1.038-0.405-2.48-0.866-3.29c-1.155-2.021-1.155-15.528,0-18.759c0.461-1.271,0.866-3.061,0.866-3.927
	c0-1.675,2.02-6.177,2.771-6.177C206.412,387.343,206.932,387.632,207.335,388.035L207.335,388.035z M235.274,393.866
	c2.078,0.347,3.983,0.866,4.213,1.096c0.231,0.233,0,0.982-0.52,1.731c-1.27,1.792-1.328,12.988-0.057,14.663
	c0.461,0.576,0.866,1.442,0.866,1.905c0,1.559,9.293,12.179,10.621,12.179c0.347,0,1.212-0.693,1.905-1.615
	c2.771-3.233,6.35-7.966,6.696-8.775c0.23-0.46,0.634-1.269,0.923-1.731c2.136-3.693,2.367-4.732,2.367-9.524
	c0-3.347-0.289-5.542-0.866-6.694c-1.212-2.251-0.751-2.83,2.193-2.83c1.328,0,3.463-0.287,4.733-0.633
	c4.503-1.156,4.906-1.213,6.35-0.866c1.271,0.347,1.443,0.692,1.501,2.827c0.058,1.329,0.23,3.061,0.462,3.811
	c0.173,0.749,0.173,4.099-0.059,7.503c-0.576,7.39-1.962,10.623-8.485,19.338c-4.906,6.523-16.451,18.24-18.067,18.24
	c-1.097,0-6.177-3.924-9.928-7.62c-2.31-2.364-9.583-11.313-9.583-11.889c0-0.233-0.634-1.099-1.327-1.849
	c-0.751-0.809-1.559-2.194-1.79-3.06c-0.173-0.866-0.634-1.559-0.923-1.559c-0.346,0-0.577-0.46-0.577-1.039
	c0-0.576-0.346-1.499-0.808-2.135c-0.404-0.637-0.923-2.194-1.097-3.464c-0.173-1.269-0.635-3.406-1.039-4.792
	c-0.635-2.019-0.635-2.884,0.058-5.195c0.404-1.499,0.866-3.866,0.981-5.309c0.404-4.272,0.347-4.272,4.098-3.81
	C229.906,392.943,233.138,393.463,235.274,393.866z M254.67,394.962c0.288,0.406,0.75,2.194,0.98,3.927
	c0.231,1.731,0.635,3.636,0.924,4.155c0.347,0.693,0.23,1.732-0.347,3.117c-0.462,1.155-0.865,2.714-0.865,3.464
	c0,0.692-0.289,1.502-0.636,1.675c-0.288,0.229-0.808,0.979-1.154,1.615c-0.75,1.731-1.847,3.521-2.539,3.983
	c-0.809,0.636-2.598,0.576-2.598-0.058c0-0.346-0.751-1.731-1.732-3.116c-0.924-1.445-1.732-3.004-1.732-3.523
	s-0.404-1.615-0.924-2.365c-1.154-1.791-0.866-8.198,0.578-11.429l0.923-2.138h4.272C252.533,394.27,254.265,394.559,254.67,394.962
	L254.67,394.962z"/>
<path d="M231.406,126.721c-1.559,0.462-3.867,0.866-5.079,0.866c-1.212,0-3.117,0.404-4.272,0.866
	c-1.097,0.462-2.771,0.866-3.694,0.866c-0.924,0-2.482,0.346-3.521,0.809c-2.944,1.212-5.773,2.193-7.389,2.482
	c-0.808,0.115-2.193,0.578-3.174,0.981c-4.502,1.962-6.407,2.828-7.216,3.29c-0.462,0.289-1.212,0.635-1.559,0.809
	c-0.404,0.173-1.096,0.404-1.443,0.577c-0.404,0.173-1.155,0.52-1.617,0.809c-0.461,0.288-1.905,1.039-3.174,1.616
	c-1.27,0.577-3.867,2.078-5.772,3.348c-1.905,1.27-3.925,2.54-4.445,2.886c-5.368,3.29-8.428,5.657-14.027,10.967
	c-1.674,1.559-4.213,3.868-5.657,5.022c-3.405,2.829-16.566,18.587-16.566,19.857c0,0.173-0.693,1.328-1.559,2.482
	c-2.021,2.656-2.656,3.695-4.502,7.273c-1.559,3.002-2.194,4.214-3.175,5.888c-0.346,0.578-0.75,1.443-0.923,1.905
	c-0.173,0.462-0.75,1.905-1.212,3.175c-0.462,1.27-1.212,3.001-1.674,3.867c-0.461,0.809-0.808,2.078-0.808,2.713
	c0,0.693-0.231,1.673-0.578,2.251c-1.039,1.732-2.424,6.119-2.828,8.774c-0.23,1.443-0.635,2.944-0.923,3.406
	c-0.231,0.462-0.692,2.54-0.924,4.618c-0.231,2.078-0.693,4.964-1.039,6.407c-0.981,4.213-0.808,27.418,0.231,31.344
	c0.461,1.847,0.866,4.387,0.866,5.656c0,1.271,0.404,3.232,0.866,4.388c0.461,1.096,0.866,3.001,0.866,4.155
	s0.404,2.598,0.866,3.175c0.461,0.636,0.866,1.675,0.866,2.309c0,0.693,0.404,1.964,0.866,2.887
	c0.461,0.866,0.866,2.193,0.866,2.887c0,0.692,0.404,1.789,0.866,2.424c0.461,0.577,0.866,1.674,0.866,2.309
	c0,0.693,0.404,1.559,0.866,1.963c0.461,0.404,0.866,1.097,0.866,1.559c0,0.809,3.751,8.139,4.675,9.063
	c0.288,0.347,0.52,0.866,0.52,1.271c0,0.808,10.505,16.566,12.526,18.645c0.75,0.808,2.713,3.059,4.329,4.964
	c1.674,1.904,4.618,4.848,6.523,6.522c1.905,1.616,4.098,3.58,4.906,4.272c3.521,3.291,12.469,9.812,15.009,11.023
	c0.461,0.233,1.673,0.926,2.597,1.559c0.981,0.636,2.136,1.272,2.598,1.502c0.461,0.173,1.27,0.576,1.732,0.866
	c0.461,0.289,1.443,0.749,2.135,1.039c0.635,0.346,1.386,0.865,1.616,1.155c0.173,0.346,0.808,0.633,1.385,0.633
	c0.578,0,2.482,0.752,4.272,1.731c1.789,0.926,3.752,1.732,4.387,1.732c0.578,0,1.385,0.405,1.79,0.865
	c0.404,0.463,1.27,0.866,1.962,0.866c0.635,0.06,1.848,0.406,2.655,0.866c0.809,0.462,2.078,0.865,2.886,0.865
	c0.809,0,1.962,0.406,2.54,0.866c0.635,0.463,1.732,0.865,2.425,0.865c0.692,0,2.193,0.406,3.29,0.866
	c1.154,0.463,3.059,0.866,4.156,0.866c1.154,0,2.655,0.289,3.348,0.692c0.693,0.347,4.041,0.866,7.446,1.099
	c3.463,0.287,6.753,0.749,7.331,1.096c1.444,0.75,15.932,0.75,17.375,0c0.635-0.347,4.156-0.809,7.908-1.096
	c3.752-0.347,7.908-0.866,9.294-1.155c1.327-0.347,3.521-0.923,4.906-1.27c1.327-0.346,3.521-0.809,4.906-1.039
	c1.386-0.232,2.771-0.752,3.117-1.099c0.404-0.402,1.27-0.692,2.021-0.692c1.154,0,2.077-0.346,7.389-2.598
	c2.136-0.923,6.638-3.058,7.792-3.693c0.463-0.289,2.078-1.039,3.579-1.731s2.886-1.502,3.06-1.848
	c0.231-0.287,0.692-0.52,1.154-0.52c1.039,0,13.565-8.427,17.606-11.833c7.446-6.351,15.932-15.239,21.3-22.339
	c1.616-2.136,2.944-3.983,2.944-4.156s1.096-1.904,2.481-3.925c1.385-2.021,3.061-4.791,3.81-6.234
	c2.021-3.983,2.771-5.253,3.464-5.945c0.346-0.347,0.636-1.213,0.636-1.905s0.403-1.559,0.865-1.962
	c0.46-0.405,0.866-1.155,0.866-1.675c0-0.577,0.403-1.501,0.866-2.136c0.46-0.577,0.865-1.558,0.865-2.077s0.347-1.675,0.807-2.598
	c1.559-3.117,2.657-6.004,2.657-6.985c0-0.52,0.403-1.5,0.865-2.078c0.46-0.635,0.866-2.02,0.866-3.117
	c0-1.039,0.287-2.481,0.692-3.175c0.403-0.692,0.866-2.828,1.096-4.732c0.23-1.905,0.693-4.503,1.039-5.773
	c0.403-1.385,0.637-8.196,0.637-17.374c0-12.006-0.174-15.528-0.866-17.49c-0.463-1.386-0.866-3.579-0.866-4.906
	c-0.06-1.271-0.405-3.002-0.865-3.81c-0.463-0.808-0.81-2.367-0.866-3.521c0-1.097-0.406-2.54-0.866-3.174
	c-0.462-0.577-0.865-1.674-0.865-2.367c0-1.27-0.982-3.867-2.657-7.273c-0.46-0.923-0.807-2.02-0.807-2.54
	c0-0.751-0.865-2.771-2.367-5.368c-0.29-0.462-0.692-1.271-0.866-1.732c-0.173-0.462-0.576-1.271-0.865-1.731
	c-0.29-0.462-0.81-1.501-1.097-2.251c-0.346-0.751-1.212-2.194-1.904-3.175c-1.386-1.962-2.425-3.636-3.061-4.964
	c-0.229-0.462-1.559-2.367-2.943-4.156c-1.386-1.79-2.481-3.521-2.481-3.868c0-0.288-0.347-0.808-0.752-1.039
	c-0.403-0.23-1.962-2.02-3.404-3.925c-3.696-4.849-13.739-14.777-19.05-18.818c-2.424-1.905-4.618-3.406-4.791-3.406
	c-0.23,0-1.386-0.808-2.598-1.732c-1.212-0.981-2.309-1.732-2.481-1.732c-0.231,0-1.328-0.692-2.54-1.5
	c-1.213-0.809-2.714-1.732-3.348-2.021c-0.636-0.289-1.905-1.039-2.887-1.674c-0.924-0.635-2.136-1.27-2.598-1.5
	c-0.462-0.173-1.27-0.52-1.731-0.808c-0.462-0.289-2.021-1.097-3.464-1.732c-1.442-0.692-3.29-1.616-4.156-2.078
	c-0.808-0.462-2.021-0.808-2.598-0.808c-0.635,0-1.615-0.404-2.251-0.866c-0.577-0.461-1.616-0.866-2.251-0.866
	s-1.674-0.404-2.251-0.866c-0.636-0.461-1.789-0.866-2.598-0.866s-2.021-0.404-2.598-0.866c-0.636-0.461-2.078-0.866-3.29-0.866
	c-1.155,0-3.06-0.404-4.156-0.866c-1.155-0.461-3.233-0.866-4.618-0.866c-1.386,0-2.828-0.347-3.175-0.75
	C269.331,125.741,235.274,125.625,231.406,126.721L231.406,126.721z M268.638,131.917c1.328,0.462,3.349,0.866,4.503,0.866
	c1.848,0,5.946,0.981,10.217,2.424c0.981,0.289,2.54,0.809,3.464,1.039c3.06,0.866,6.927,2.367,7.504,2.944
	c0.288,0.289,1.097,0.52,1.79,0.52c0.692,0,1.558,0.405,1.962,0.866c0.404,0.462,1.154,0.866,1.674,0.924
	c0.52,0,2.771,1.039,4.965,2.309c2.251,1.27,4.502,2.425,5.079,2.598c0.52,0.23,0.981,0.577,0.981,0.809
	c0,0.288,0.693,0.75,1.616,1.096c1.848,0.75,3.117,1.501,5.945,3.637c1.155,0.923,2.31,1.616,2.482,1.616
	c0.231,0,2.944,1.905,6.003,4.271c6.293,4.733,13.97,12.18,17.896,17.375c1.499,1.905,3.29,4.099,4.04,4.965
	c2.251,2.424,8.715,11.602,9.987,14.2c0.633,1.385,1.441,2.598,1.731,2.828c0.287,0.173,0.52,0.751,0.52,1.271
	s0.807,2.655,1.788,4.733c0.982,2.078,2.135,4.676,2.654,5.772c0.463,1.097,1.213,2.771,1.676,3.637
	c0.462,0.924,0.809,2.367,0.809,3.232c0,0.866,0.403,2.078,0.866,2.713c0.46,0.577,0.865,1.905,0.865,2.886
	c0,0.981,0.403,2.771,0.866,3.868c0.46,1.154,0.865,3.232,0.865,4.56c0.058,1.385,0.403,3.117,0.866,3.925
	c0.633,1.154,0.807,4.444,0.807,15.874s-0.174,14.72-0.807,15.875c-0.463,0.809-0.809,2.828-0.866,4.502
	c0,1.675-0.405,3.983-0.865,5.138c-0.463,1.097-0.866,2.886-0.866,3.867s-0.405,2.31-0.865,2.887
	c-0.463,0.635-0.866,1.789-0.866,2.598c0,0.808-0.406,2.02-0.866,2.598c-0.462,0.635-0.865,1.616-0.865,2.136
	c0,0.577-0.347,1.731-0.81,2.654c-0.463,0.866-1.328,2.771-2.021,4.215c-0.633,1.442-1.441,3.059-1.788,3.578
	c-0.982,1.731-1.615,2.944-3.174,5.946c-0.809,1.559-1.675,3.29-1.965,3.751c-0.286,0.463-0.692,1.271-0.865,1.732
	c-0.46,1.154-1.442,2.713-3.348,5.253c-0.922,1.154-1.615,2.425-1.615,2.771c0,0.347-0.232,0.635-0.52,0.635
	c-0.289,0-1.271,1.212-2.138,2.713c-2.019,3.464-19.914,21.357-23.954,23.955c-1.731,1.099-3.637,2.598-4.214,3.29
	c-0.635,0.636-1.443,1.212-1.847,1.212c-0.404,0-1.097,0.347-1.501,0.752c-1.039,0.923-2.482,1.789-5.945,3.577
	c-1.559,0.81-3.637,2.021-4.618,2.598c-0.924,0.636-2.136,1.272-2.598,1.445s-1.616,0.749-2.482,1.212
	c-0.923,0.403-1.962,0.807-2.424,0.807c-0.404,0-1.039,0.405-1.443,0.865c-0.404,0.463-1.271,0.866-1.963,0.866
	s-1.789,0.406-2.424,0.866c-0.577,0.463-1.79,0.865-2.655,0.865c-0.866,0-2.598,0.347-3.753,0.81
	c-2.886,1.039-6.753,2.078-9.985,2.654c-1.443,0.232-4.041,0.752-5.772,1.099c-8.023,1.559-23.725,2.654-26.149,1.788
	c-1.039-0.346-4.33-0.749-7.331-0.981c-3.001-0.174-6.003-0.634-6.696-1.039c-0.635-0.403-2.598-0.866-4.33-0.979
	c-1.731-0.174-3.983-0.579-4.963-0.926c-4.734-1.731-5.773-2.019-7.678-2.251c-1.097-0.174-2.251-0.52-2.598-0.75
	c-0.288-0.229-1.5-0.749-2.598-1.039c-3.694-1.096-6.349-2.194-7.042-2.887c-0.404-0.403-0.924-0.692-1.27-0.692
	c-0.635,0-7.966-3.637-10.448-5.252c-0.923-0.577-2.251-1.329-2.887-1.675c-0.634-0.347-1.905-1.097-2.886-1.732
	c-0.924-0.633-2.251-1.385-2.886-1.731c-2.367-1.152-6.927-4.443-9.005-6.348c-0.462-0.463-2.194-1.965-3.752-3.233
	c-4.791-4.041-10.967-10.217-13.218-13.219c-1.212-1.616-2.367-3.002-2.598-3.175c-0.635-0.462-5.772-8.081-5.772-8.659
	c0-0.288-0.346-0.865-0.693-1.27c-0.404-0.403-1.328-1.904-2.078-3.348s-1.847-3.406-2.424-4.329
	c-0.635-0.981-1.328-2.137-1.501-2.598c-0.173-0.462-1.097-2.425-2.021-4.329c-0.923-1.905-1.673-3.926-1.673-4.388
	c0-0.52-0.405-1.27-0.866-1.674c-0.462-0.404-0.866-1.271-0.866-1.963c0-0.635-0.404-1.962-0.866-2.886
	c-0.462-0.865-0.866-2.482-0.866-3.463c0-1.039-0.405-2.367-0.866-3.002c-0.462-0.577-0.866-1.848-0.866-2.713
	c0-0.866-0.404-2.54-0.866-3.695c-0.462-1.096-0.866-3.521-0.866-5.31c0-1.79-0.289-3.579-0.635-3.926
	c-0.347-0.346-0.75-2.828-0.923-5.483c-0.231-3.867-0.173-4.964,0.52-5.542c0.692-0.52,4.329-0.692,14.661-0.577l13.739,0.174
	l1.039,4.618c0.52,2.539,1.039,5.888,1.039,7.504c0,1.558,0.404,3.521,0.866,4.329c0.461,0.808,0.808,2.078,0.866,2.886
	c0,1.616,1.5,6.465,2.655,8.774c0.462,0.808,0.808,1.904,0.808,2.366s0.404,1.155,0.866,1.559c0.461,0.404,0.866,1.155,0.866,1.675
	s1.154,2.771,2.598,4.906c1.443,2.193,2.597,4.329,2.597,4.791c0,0.403,0.404,0.923,0.866,1.097c0.461,0.23,0.866,0.577,0.866,0.923
	c0,1.098,3.059,4.503,4.041,4.503c0.52,0,1.674-0.52,2.482-1.154l1.501-1.212l-3.06-4.503c-1.674-2.424-3.291-5.021-3.463-5.715
	c-0.231-0.692-0.693-1.27-0.981-1.27c-0.289,0-0.52-0.347-0.52-0.809c0-0.404-0.405-1.097-0.866-1.501
	c-0.462-0.404-0.866-1.154-0.866-1.674s-0.289-1.27-0.692-1.674c-0.981-0.981-2.483-5.195-3.926-11.083
	c-0.404-1.443-0.923-3.405-1.27-4.329c-2.136-5.945-2.194-28.92-0.116-34.519c0.462-1.155,0.809-3.001,0.809-4.041
	c0-0.981,0.404-2.367,0.866-2.944c0.461-0.635,0.866-1.674,0.866-2.309c0-0.693,0.404-1.732,0.866-2.309
	c0.461-0.635,0.866-1.847,0.866-2.713c0-0.866,0.23-1.732,0.52-1.962c0.346-0.173,1.212-1.674,2.078-3.348
	c0.808-1.616,2.02-3.81,2.597-4.734c0.635-0.981,1.327-2.136,1.559-2.598c0.808-1.732,7.388-10.217,10.505-13.449
	c1.79-1.847,4.676-4.445,6.407-5.773c1.732-1.327,3.925-3.117,4.849-3.983c0.981-0.923,1.963-1.616,2.251-1.616
	c0.289,0,1.501-0.809,2.713-1.732c1.212-0.981,2.598-1.731,3.06-1.731c0.52,0,1.154-0.347,1.385-0.75
	c0.577-0.866,7.677-4.445,8.889-4.445c0.52,0,1.27-0.404,1.674-0.866c0.404-0.462,1.27-0.866,1.962-0.866
	c0.692,0,1.789-0.404,2.424-0.866c0.577-0.462,1.789-0.866,2.598-0.866c0.808,0,1.962-0.404,2.598-0.866
	c0.577-0.462,2.021-0.866,3.174-0.866c1.097,0,3.349-0.347,4.907-0.809c1.559-0.461,4.791-0.923,7.158-1.038l4.329-0.173v12.122
	l-6.061,0.288c-3.348,0.173-6.638,0.635-7.331,0.981c-0.693,0.404-2.136,0.75-3.175,0.75c-1.096,0-2.481,0.405-3.117,0.866
	c-0.577,0.462-1.559,0.866-2.136,0.866c-0.635,0-1.905,0.404-2.886,0.924c-1.039,0.52-2.251,1.154-2.771,1.385
	c-0.981,0.519-6.349,3.405-7.908,4.33c-9.466,5.483-21.761,17.144-24.705,23.378c-0.231,0.461-0.75,1.097-1.212,1.327
	c-0.404,0.231-0.75,0.751-0.75,1.155c0,0.635-2.483,6.177-4.388,9.755c-0.461,0.809-0.808,1.905-0.808,2.367
	c0,0.462-0.404,1.616-0.866,2.482c-0.462,0.924-0.866,2.424-0.866,3.29s-0.405,2.54-0.866,3.695c-1.212,2.886-1.212,26.322,0,28.458
	c0.461,0.809,0.866,2.367,0.866,3.463c0,1.097,0.404,2.655,0.866,3.464c0.461,0.809,0.808,2.021,0.866,2.713
	c0,0.693,0.404,1.963,0.808,2.886c0.462,0.866,0.981,2.021,1.155,2.482s0.577,1.271,0.866,1.732c0.289,0.461,0.693,1.27,0.866,1.731
	c0.461,1.154,1.442,2.713,3.406,5.253c0.866,1.153,1.559,2.309,1.559,2.54c0,0.52,2.828,4.04,5.714,7.099
	c0.981,1.039,1.79,2.252,1.79,2.598c0,0.405-4.56,5.254-10.102,10.795l-10.102,10.102l-4.098-4.329
	c-4.214-4.503-8.89-10.794-10.91-14.72c-0.346-0.635-1.097-1.962-1.731-2.886c-0.635-0.981-1.328-2.136-1.501-2.598
	c-0.173-0.462-1.096-2.367-2.021-4.214c-0.923-1.789-1.673-3.694-1.673-4.214s-0.346-1.616-0.751-2.425
	c-0.461-0.865-1.212-2.424-1.731-3.463c-0.52-1.097-0.981-2.54-0.981-3.232c0-0.693-0.346-1.732-0.809-2.366
	c-0.404-0.636-0.923-2.887-1.096-4.965c-0.173-2.078-0.635-4.503-1.039-5.311c-0.635-1.327-1.039-1.559-3.233-1.559h-2.482v3.002
	c0.058,1.789,0.404,3.521,0.866,4.156c0.461,0.634,0.866,2.078,0.866,3.231c0,1.213,0.692,3.926,1.5,6.119s1.674,4.791,1.905,5.715
	c0.231,0.981,0.75,2.251,1.097,2.886c0.346,0.636,1.559,3.117,2.712,5.484c1.155,2.366,2.598,5.079,3.175,6.061
	c0.634,0.924,1.385,2.251,1.732,2.887c0.98,1.962,1.847,3.231,6.234,9.063c4.444,5.888,17.028,18.933,18.24,18.933
	c0.404,0,1.212,0.578,1.848,1.213c1.154,1.327,8.832,6.579,10.852,7.505c0.635,0.287,2.021,1.039,2.944,1.672
	c0.981,0.636,2.136,1.329,2.598,1.502c1.155,0.463,7.966,3.637,9.986,4.619c0.923,0.46,1.962,0.806,2.424,0.806
	c0.404,0,1.501,0.406,2.367,0.866c0.923,0.463,2.251,0.866,2.886,0.866c0.692,0,1.558,0.405,1.963,0.865
	c0.404,0.463,1.673,0.866,2.828,0.866c1.155,0.06,2.713,0.405,3.521,0.865c0.808,0.463,2.251,0.866,3.175,0.866
	c0.981,0,2.886,0.463,4.329,0.982c2.193,0.809,5.195,0.982,19.915,0.982c12.814,0,17.778-0.174,19.049-0.753
	c0.98-0.403,3.29-0.979,5.137-1.212c3.982-0.576,4.964-1.326,3.925-2.771c-0.403-0.52-0.923-1.559-1.27-2.309
	c-0.577-1.328-1.443-1.675-2.021-0.692c-0.173,0.29-1.731,0.576-3.405,0.576c-1.616,0-3.291,0.29-3.637,0.636
	c-0.981,0.982-16.625,1.615-27.015,1.097c-8.832-0.461-11.198-0.807-17.028-2.655c-1.443-0.462-3.175-0.809-3.81-0.809
	c-0.692,0-1.559-0.403-1.962-0.866c-0.404-0.46-1.328-0.865-2.078-0.865c-0.751,0-3.117-0.807-5.253-1.789
	c-3.925-1.731-5.31-2.481-9.698-4.965c-1.27-0.692-2.712-1.442-3.174-1.672c-0.462-0.174-1.27-0.52-1.732-0.81
	c-0.462-0.289-1.905-1.097-3.174-1.789c-1.271-0.635-3.406-1.963-4.792-2.887c-1.385-0.923-2.655-1.674-2.828-1.674
	c-0.981,0-6.465-4.964-6.523-5.945c0-0.866,19.568-20.03,20.492-20.03c0.52,0,2.424,1.097,4.214,2.425
	c1.847,1.385,3.81,2.771,4.444,3.175c2.713,1.674,12.815,6.522,13.565,6.522c0.461,0,1.386,0.404,1.962,0.865
	c0.635,0.463,1.732,0.866,2.425,0.866c0.692,0,1.558,0.404,1.962,0.866c0.405,0.462,1.559,0.865,2.656,0.865
	c1.039,0,2.598,0.289,3.521,0.693c1.443,0.577,13.219,1.731,16.913,1.674c5.6-0.173,14.373-1.097,15.412-1.674
	c0.693-0.404,2.021-0.693,2.886-0.693c0.925,0,2.194-0.403,2.829-0.865c0.577-0.462,1.559-0.866,2.136-0.866
	c0.866,0,7.273-2.713,9.64-4.098c0.462-0.289,2.193-1.155,3.867-1.963c1.616-0.808,3.06-1.674,3.175-1.905
	c0.116-0.23,1.617-1.386,3.349-2.539c3.001-2.021,7.907-6.523,13.045-12.064c2.078-2.252,4.099-5.022,6.351-8.89
	c1.615-2.655,4.849-9.351,4.849-9.986c0-0.347,0.346-1.501,0.808-2.54c1.674-4.04,2.193-6.118,2.713-10.274
	c0.23-2.367,0.809-5.888,1.212-7.793l0.809-3.463l14.487-0.174c16.914-0.173,16.625-0.23,15.991,4.676
	c-0.232,1.675-0.636,3.464-0.865,3.983c-0.29,0.52-0.52,2.135-0.52,3.521c0,1.443-0.406,3.695-0.866,5.022
	c-0.463,1.327-0.865,3.175-0.865,3.982c0,0.866-0.406,2.078-0.866,2.713c-0.463,0.577-0.866,1.675-0.866,2.367
	s-0.346,1.963-0.809,2.886c-0.463,0.866-1.212,2.54-1.675,3.637c-0.52,1.098-1.732,3.81-2.828,6.061
	c-1.675,3.579-2.54,5.08-5.484,9.813c-0.403,0.636-0.923,1.616-1.096,2.136c-0.173,0.578-0.576,1.039-0.809,1.039
	c-0.288,0-1.385,1.386-2.481,3.002c-1.097,1.674-2.771,3.81-3.694,4.791c-0.924,0.924-2.887,3.29-4.329,5.194
	c-2.944,3.868-7.446,8.255-11.487,11.372c-1.501,1.097-3.464,2.713-4.33,3.579c-0.923,0.808-1.904,1.501-2.135,1.501
	c-0.289,0-1.501,0.75-2.714,1.731c-1.212,0.925-2.598,1.73-3.059,1.73c-0.52,0-1.154,0.347-1.386,0.81
	c-0.577,0.982-6.984,4.502-7.734,4.272c-0.809-0.29-2.598-5.774-3.003-9.121l-0.346-2.598l5.426-3.175
	c3.002-1.731,5.484-3.349,5.484-3.637c0-0.231,0.23-0.404,0.577-0.404c1.039,0,5.484-3.637,13.738-11.256
	c4.444-4.041,15.124-18.356,15.124-20.146c0-0.462,0.403-1.097,0.865-1.501s0.866-1.039,0.866-1.443
	c0-0.462,0.403-1.501,0.808-2.424c0.462-0.866,0.981-2.021,1.154-2.482c0.174-0.462,0.577-1.271,0.809-1.731
	c1.616-2.829,2.425-4.849,2.425-5.946c0.058-0.692,0.403-1.904,0.866-2.712c0.46-0.809,0.807-2.31,0.866-3.349
	c0-1.039,0.229-2.425,0.576-3.002c1.096-2.021,0.116-2.943-2.828-2.771c-2.482,0.174-2.656,0.289-2.829,1.905
	c-0.115,0.923-0.577,2.54-1.039,3.579c-0.404,0.98-0.808,2.481-0.808,3.29c0,0.808-0.462,2.425-0.981,3.637
	c-1.675,3.867-4.849,10.217-5.945,12.006c-0.578,0.924-1.617,2.771-2.31,4.041c-0.692,1.271-1.443,2.424-1.674,2.598
	c-0.173,0.173-1.154,1.443-2.078,2.828c-0.981,1.443-4.906,5.772-8.773,9.641c-8.37,8.369-16.336,14.142-23.841,17.201
	c-0.461,0.173-1.27,0.577-1.731,0.866c-0.461,0.288-1.904,0.981-3.175,1.5c-1.27,0.578-3.06,1.386-3.925,1.79
	c-0.924,0.461-2.366,0.808-3.175,0.808c-0.866,0.059-2.193,0.404-3.001,0.866c-0.809,0.462-2.541,0.808-3.926,0.865
	c-1.328,0-3.406,0.404-4.561,0.866c-2.54,1.097-24.07,1.271-27.303,0.231c-1.096-0.347-3.174-0.866-4.618-1.098
	c-3.925-0.75-7.62-1.789-9.352-2.655c-0.808-0.461-1.847-0.808-2.309-0.808s-2.367-0.808-4.213-1.732
	c-1.848-0.98-3.81-1.731-4.388-1.731c-0.52,0-1.27-0.403-1.673-0.865c-0.405-0.462-1.155-0.866-1.732-0.866
	c-0.578,0-1.328-0.404-1.731-0.866c-0.405-0.461-1.097-0.865-1.559-0.865c-0.462,0-1.501-0.52-2.31-1.154
	c-2.02-1.617-2.886-1.443-4.213,0.692c-1.674,2.771-1.616,2.828,7.215,7.389c2.54,1.327,5.022,2.598,5.483,2.828
	c2.771,1.501,8.139,3.464,10.968,4.041c1.097,0.231,2.598,0.749,3.291,1.097c0.692,0.405,1.962,0.693,2.771,0.693
	c0.866,0,3.175,0.404,5.137,0.924c2.771,0.749,6.35,0.923,16.683,0.923c13.045,0,17.085-0.463,23.205-2.541
	c0.981-0.287,2.655-0.807,3.752-1.038c1.097-0.288,3.232-0.924,4.676-1.501c3.232-1.212,4.561-0.577,4.561,2.192
	c0,0.926,0.403,2.598,0.865,3.753c0.462,1.098,0.866,2.771,0.866,3.637c0,0.923,0.403,2.368,0.808,3.29
	c0.462,0.866,0.981,2.021,1.154,2.598c0.231,0.81,0.52,0.866,2.367,0.23c1.097-0.403,2.366-1.039,2.713-1.386
	c0.404-0.403,1.154-0.692,1.674-0.692s1.27-0.403,1.675-0.866c0.403-0.46,1.153-0.865,1.731-0.865c0.577,0,1.327-0.403,1.731-0.866
	c0.404-0.46,1.039-0.866,1.5-0.866c0.809,0,10.737-6.464,12.931-8.485c2.771-2.48,4.503-3.924,6.407-5.367
	c4.965-3.637,19.049-20.261,21.936-25.803c0.46-0.923,1.153-1.847,1.499-2.078c0.406-0.23,0.753-0.923,0.753-1.5
	s0.403-1.386,0.865-1.789c0.46-0.404,0.866-1.212,0.866-1.79c0-0.577,0.23-1.154,0.52-1.386c0.347-0.173,1.152-1.559,1.846-3.059
	c0.692-1.501,1.501-3.232,1.848-3.868c0.347-0.634,0.809-2.078,1.039-3.174c0.463-2.136,1.328-4.906,2.598-7.967
	c0.463-1.038,0.809-2.597,0.809-3.463c0-0.924,0.287-1.905,0.693-2.309c0.402-0.404,0.865-2.194,1.096-4.041
	c0.229-1.789,0.749-4.676,1.096-6.292c1.386-6.465,0.173-29.901-1.846-35.673c-0.289-0.982-0.809-2.771-1.039-4.041
	c-0.462-2.367-1.328-4.964-2.657-8.255c-0.46-1.039-0.806-2.367-0.806-2.944s-0.406-1.385-0.866-1.789
	c-0.463-0.405-0.865-1.155-0.865-1.732c0-0.578-0.406-1.328-0.866-1.731c-0.463-0.405-0.866-1.212-0.866-1.79
	c0-0.577-0.232-1.154-0.52-1.327c-0.289-0.231-1.155-1.559-1.848-3.117c-1.212-2.424-5.022-8.254-6.983-10.506
	c-2.194-2.598-4.504-5.715-4.504-6.119c0-0.289-3.348-3.752-7.389-7.792c-7.792-7.678-15.238-13.623-22.742-18.125
	c-2.944-1.789-9.294-4.906-9.987-4.906c-0.403,0-1.038-0.404-1.442-0.866c-0.404-0.462-1.212-0.866-1.731-0.866
	c-0.578,0-1.79-0.347-2.714-0.809c-2.481-1.212-5.426-2.194-7.677-2.54c-1.097-0.115-2.54-0.635-3.175-1.039
	c-0.635-0.461-2.021-0.808-3.06-0.808c-1.097,0-2.771-0.346-3.752-0.809c-1.039-0.462-3.117-0.981-4.733-1.154
	c-1.559-0.173-4.041-0.577-5.483-0.866c-4.214-0.923-22.282-0.808-26.149,0.231c-1.848,0.461-4.445,0.866-5.772,0.866
	c-1.328,0.058-3.463,0.404-4.733,0.866c-1.27,0.461-3.001,0.866-3.81,0.866c-0.808,0-1.962,0.404-2.598,0.866
	c-0.577,0.461-1.789,0.866-2.597,0.866c-0.808,0-1.962,0.404-2.598,0.866c-0.577,0.461-1.673,0.866-2.309,0.866
	c-0.693,0-1.559,0.404-1.962,0.866c-0.405,0.461-1.271,0.866-1.963,0.866c-0.692,0-1.789,0.404-2.424,0.866
	c-0.577,0.461-1.673,0.866-2.309,0.866c-0.693,0-1.559,0.404-1.962,0.866c-0.404,0.461-1.155,0.866-1.732,0.866
	c-0.578,0-1.328,0.404-1.731,0.866c-0.405,0.461-1.155,0.866-1.732,0.866c-0.578,0-1.328,0.404-1.731,0.866
	c-0.405,0.461-0.924,0.866-1.212,0.866c-0.231,0-1.617,0.75-3.002,1.731c-1.443,0.923-2.886,1.732-3.175,1.732
	c-0.346,0-0.866,0.346-1.096,0.808c-0.231,0.404-1.732,1.674-3.349,2.713c-5.426,3.579-17.952,15.874-19.856,19.452
	c-0.404,0.751-1.559,2.31-2.54,3.464c-2.135,2.482-3.174,4.041-3.637,5.426c-0.23,0.577-0.577,1.039-0.808,1.039
	c-0.288,0-0.693,0.577-0.923,1.27c-0.23,0.75-0.981,2.136-1.732,3.06c-0.692,0.981-1.559,2.366-1.905,3.175
	c-0.346,0.808-0.866,1.847-1.155,2.309c-0.461,0.866-1.559,3.349-3.174,7.1c-1.212,2.886-2.136,5.714-2.598,7.908
	c-0.23,1.097-0.75,2.598-1.097,3.291c-0.404,0.692-0.692,2.367-0.692,3.752s-0.405,3.117-0.924,3.81
	c-0.52,0.808-0.808,2.193-0.692,3.751c0.173,2.309,0.231,2.424,2.251,2.598c2.944,0.231,4.561-1.847,4.561-5.83
	c0-2.713,0.981-6.523,2.655-10.679c0.462-1.039,0.808-2.367,0.808-2.944c0-0.577,0.404-1.386,0.866-1.79
	c0.461-0.404,0.866-1.27,0.866-1.963c0-0.634,0.404-1.732,0.866-2.309c0.461-0.635,0.866-1.559,0.866-2.136
	c0-0.52,0.404-1.271,0.866-1.674c0.461-0.404,0.866-1.328,0.866-2.078c0-0.693,0.288-1.501,0.635-1.674
	c0.289-0.231,0.866-0.981,1.154-1.616c0.289-0.692,1.039-2.078,1.674-3.001c0.635-0.981,1.327-2.136,1.559-2.598
	c0.173-0.462,1.039-1.79,1.905-2.886s1.674-2.309,1.79-2.655c0.923-2.656,20.491-22.166,22.223-22.166
	c0.173,0,1.328-0.751,2.482-1.617c1.154-0.923,2.482-1.847,2.944-2.02c0.461-0.231,1.674-0.924,2.598-1.559
	c0.981-0.635,2.251-1.385,2.886-1.731c0.635-0.289,1.559-0.809,2.021-1.097c2.598-1.5,8.485-4.098,9.294-4.098
	c0.52,0,1.27-0.404,1.673-0.866c0.405-0.462,1.155-0.866,1.674-0.866c0.577,0,1.501-0.405,2.136-0.866
	c0.578-0.462,1.905-0.866,2.886-0.866c0.923,0,2.251-0.404,2.886-0.866c0.577-0.462,1.905-0.866,2.944-0.866
	c0.981,0,2.54-0.289,3.463-0.693c0.866-0.346,3.463-0.866,5.657-1.097c2.251-0.231,5.773-0.75,7.851-1.154
	c5.715-1.097,5.715-1.097,5.715,6.292v6.292l-3.868,0.346c-2.193,0.231-5.137,0.405-6.58,0.405c-1.5,0-3.463,0.404-4.33,0.866
	c-0.923,0.461-2.655,0.866-3.867,0.866c-1.212,0-2.771,0.288-3.463,0.693c-0.693,0.346-2.194,0.866-3.29,1.097
	c-3.291,0.692-7.504,2.367-7.504,2.886c0,0.288-0.405,0.52-0.924,0.52c-0.808,0-2.02,0.52-5.426,2.366
	c-0.462,0.231-2.021,1.039-3.463,1.79c-6.177,3.059-14.257,9.178-21.589,16.335c-4.675,4.56-15.354,19.395-15.354,21.357
	c0,0.404-0.404,1.039-0.866,1.443c-0.462,0.404-0.866,1.039-0.866,1.443c0,0.462-0.405,1.559-0.866,2.54
	c-0.462,0.981-1.27,2.598-1.731,3.579c-0.462,0.981-0.866,2.31-0.866,3.002c-0.058,0.693-0.405,1.905-0.866,2.713
	c-0.462,0.808-0.866,2.193-0.866,3.175c0,0.923-0.404,2.366-0.866,3.175c-0.462,0.808-0.809,2.771-0.866,4.329
	c0,1.616-0.405,4.445-0.866,6.35c-0.52,1.847-0.75,3.694-0.635,4.156c0.809,2.02-0.808,2.193-15.296,1.905l-14.085-0.289v-6.177
	c0-4.156,0.231-6.407,0.751-6.927c0.346-0.346,0.692-2.136,0.692-3.925c0.058-1.731,0.404-3.81,0.866-4.618
	c0.461-0.808,0.808-2.367,0.866-3.463c0-1.155,0.346-2.54,0.808-3.174c0.405-0.635,0.924-2.078,1.039-3.175
	c0.346-2.251,1.328-5.253,2.54-7.62c0.462-0.808,0.809-1.847,0.809-2.251c0-0.635,3.174-7.331,4.617-9.755
	c0.289-0.462,1.732-2.944,3.233-5.484c6.061-10.274,22.223-29.323,26.957-31.805c0.866-0.462,2.078-1.328,2.598-1.847
	c1.559-1.559,5.714-4.733,6.176-4.733c0.231,0,1.385-0.751,2.54-1.617c1.155-0.923,2.482-1.847,2.944-2.02
	c0.462-0.231,1.674-0.924,2.598-1.559c0.981-0.635,2.251-1.385,2.887-1.731c0.634-0.346,1.962-1.097,2.885-1.732
	c0.982-0.635,2.136-1.328,2.598-1.501c1.848-0.75,4.965-2.135,5.773-2.655c0.461-0.231,1.154-0.578,1.443-0.693
	c0.346-0.058,1.501-0.52,2.598-0.866c1.096-0.405,2.828-0.924,3.752-1.212c0.981-0.289,2.655-0.808,3.752-1.155
	c7.273-2.481,10.968-3.406,15.585-4.099c2.078-0.288,4.676-0.75,5.773-1.039c1.097-0.288,8.659-0.519,16.797-0.577
	C263.155,131.051,266.676,131.225,268.638,131.917L268.638,131.917z M261.711,149.003c1.098,0.404,3.983,0.866,6.351,1.097
	c4.791,0.52,8.658,1.385,11.14,2.655c0.925,0.461,2.137,0.808,2.714,0.808s1.789,0.346,2.713,0.808
	c0.866,0.462,2.539,1.212,3.637,1.732c3.752,1.616,14.142,6.811,15.873,7.908c0.981,0.577,2.252,1.327,2.887,1.673
	c7.677,3.868,28.573,24.014,31.69,30.594c0.403,0.923,0.923,1.79,3.29,5.484c1.329,2.135,4.619,8.658,5.368,10.678
	c0.174,0.462,0.576,1.271,0.81,1.731c1.559,2.829,2.424,4.849,2.424,5.831c0,0.635,0.347,1.731,0.693,2.424
	c0.865,1.559,2.077,6.523,2.711,11.083c0.289,1.905,0.809,4.502,1.155,5.772c0.403,1.271,0.636,3.868,0.52,5.773l-0.173,3.463
	l-14.776,0.288c-8.14,0.173-15.183,0.231-15.702,0.116c-0.635-0.116-0.981-0.808-0.981-1.905c0-0.981-0.288-2.887-0.635-4.272
	c-0.346-1.443-0.462-3.232-0.289-4.041l0.347-1.385l9.121-0.173c10.101-0.173,10.391-0.347,8.542-4.041
	c-0.52-0.981-0.922-2.713-0.922-3.868c0-1.154-0.406-2.828-0.866-3.751c-0.463-0.866-0.866-2.194-0.866-2.886
	c0-0.693-0.405-1.79-0.866-2.424c-0.462-0.577-0.866-1.501-0.866-2.021s-0.404-1.27-0.865-1.673
	c-0.462-0.404-0.866-1.328-0.866-2.021s-0.404-1.616-0.865-2.021c-0.463-0.404-0.866-1.212-0.866-1.789
	c0-0.577-0.231-1.155-0.52-1.328c-0.289-0.23-1.098-1.5-1.79-2.944c-1.962-4.041-9.352-13.622-14.431-18.76
	c-2.193-2.194-9.12-8.082-9.524-8.082c-0.23,0-1.386-0.808-2.598-1.732c-1.212-0.981-2.366-1.731-2.655-1.731
	c-0.23,0-0.865-0.347-1.327-0.808c-1.443-1.271-11.083-6.119-12.18-6.119c-0.578,0-1.328-0.404-1.731-0.866
	c-0.405-0.461-1.155-0.866-1.675-0.866c-0.577,0-1.501-0.404-2.136-0.866c-0.577-0.461-1.731-0.866-2.54-0.866
	c-0.808,0-1.962-0.404-2.539-0.866c-0.635-0.461-2.021-0.866-3.06-0.866c-1.097,0-2.771-0.404-3.694-0.923
	c-0.981-0.462-2.771-0.809-4.155-0.693c-2.367,0.173-2.426,0.231-2.598,2.54c-0.231,3.001,0.576,3.694,4.906,4.098
	c1.847,0.173,3.867,0.693,4.502,1.097c0.636,0.461,1.789,0.808,2.598,0.808c0.808,0,1.963,0.404,2.539,0.866
	c0.636,0.462,1.675,0.866,2.31,0.866c0.692,0,1.731,0.404,2.309,0.866c0.636,0.462,1.559,0.866,2.078,0.866s2.137,0.635,3.521,1.385
	c1.385,0.809,3.867,2.078,5.426,2.944c11.313,5.831,24.129,17.837,30.594,28.689c1.847,3.233,4.906,9.352,4.906,9.986
	c0,0.404,0.404,1.039,0.866,1.443c0.461,0.404,0.866,1.212,0.866,1.79c0,0.578,0.346,1.905,0.808,2.944
	c0.751,1.905,1.905,5.08,2.482,6.985c0.289,0.923-0.174,0.981-6.523,0.866l-6.811-0.173l-0.404-1.905
	c-0.231-1.097-0.692-2.251-1.039-2.597c-0.346-0.347-0.635-1.155-0.635-1.732c0-0.578-0.347-1.79-0.809-2.598
	c-0.461-0.866-0.98-1.963-1.154-2.424c-0.173-0.462-0.577-1.271-0.865-1.731c-0.289-0.462-0.693-1.271-0.866-1.732
	c-0.347-0.981-0.924-1.847-3.694-5.888c-2.714-4.041-3.925-5.484-8.485-9.986c-4.618-4.56-7.735-7.216-8.543-7.216
	c-0.289,0-1.501-0.693-2.655-1.616c-3.464-2.597-11.661-7.042-13.046-7.042c-0.404,0-1.039-0.404-1.443-0.866
	c-0.403-0.461-1.385-0.866-2.251-0.866c-0.809-0.058-2.136-0.404-2.943-0.866c-0.809-0.461-2.31-0.808-3.349-0.866
	c-1.039,0-2.828-0.404-3.982-0.866c-1.271-0.52-3.868-0.866-6.869-0.866c-3.579,0-5.022-0.231-5.657-0.923
	c-0.808-0.75-0.924-2.944-0.924-14.893c0-10.102,0.174-14.143,0.693-14.662C253.457,148.194,259.057,148.137,261.711,149.003
	L261.711,149.003z M260.961,185.6c1.097,0.462,2.887,0.866,3.867,0.866c0.981,0.058,2.425,0.404,3.233,0.866
	c0.808,0.462,2.077,0.866,2.886,0.866c0.808,0,1.963,0.405,2.54,0.866c0.635,0.462,1.616,0.866,2.136,0.866
	c0.866,0,2.944,0.866,5.715,2.424c0.461,0.231,1.442,0.693,2.136,0.981c0.635,0.347,1.385,0.866,1.615,1.155
	c0.174,0.346,0.751,0.635,1.213,0.635c2.251,0,13.854,10.275,18.529,16.451c1.501,1.905,2.943,3.694,3.29,4.041
	c0.866,0.75,6.119,11.371,6.119,12.353c0,0.404,0.347,1.443,0.808,2.251c2.771,5.426,4.099,20.204,2.771,31.575
	c-0.52,4.561-1.212,7.042-2.771,10.274c-0.461,0.924-0.808,2.136-0.808,2.713c0,0.52-0.404,1.328-0.866,1.731
	c-0.462,0.405-0.865,1.155-0.865,1.732s-0.405,1.327-0.866,1.731c-0.462,0.404-0.866,1.039-0.866,1.443s-1.385,2.713-3.002,5.137
	c-1.673,2.425-3.348,4.907-3.637,5.484c-1.039,1.848-9.697,10.217-11.948,11.545c-1.212,0.75-2.193,1.5-2.193,1.731
	c0,0.23-1.097,0.981-2.424,1.731c-1.386,0.693-3.233,1.79-4.215,2.366c-2.943,1.848-6.407,3.464-7.33,3.464
	c-0.52,0-1.213,0.404-1.616,0.866c-0.404,0.462-1.213,0.865-1.848,0.865s-1.674,0.289-2.367,0.693
	c-0.692,0.346-2.309,0.865-3.578,1.097c-1.271,0.23-3.349,0.692-4.618,1.039c-3.29,0.866-21.935,0.808-23.551-0.058
	c-0.692-0.347-2.309-0.866-3.579-1.097c-2.597-0.462-5.599-1.443-7.966-2.598c-0.923-0.462-2.135-0.809-2.712-0.809
	c-0.52,0-1.328-0.404-1.732-0.866c-0.404-0.461-1.154-0.865-1.731-0.865c-0.578,0-1.328-0.404-1.732-0.866
	c-0.404-0.461-1.154-0.866-1.731-0.866c-0.578,0-1.328-0.403-1.732-0.865c-0.404-0.462-0.981-0.866-1.27-0.866
	c-0.923,0-9.871-6.984-13.911-10.909c-4.502-4.33-10.794-12.237-10.794-13.565c0-0.462-0.231-0.981-0.52-1.154
	c-0.289-0.23-1.097-1.559-1.79-3.117c-0.635-1.5-1.616-3.464-2.02-4.329c-0.462-0.924-0.866-2.078-0.866-2.655
	c0-0.52-0.405-1.501-0.866-2.136c-0.462-0.577-0.866-2.021-0.866-3.117s-0.404-2.54-0.866-3.117c-1.271-1.674-1.212-18.355,0-21.3
	c0.461-1.154,0.866-2.886,0.866-3.868c0-1.905,2.078-8.601,2.944-9.466c0.288-0.346,0.52-0.981,0.52-1.501s0.808-2.482,1.732-4.329
	c0.981-1.848,1.731-3.637,1.731-3.867c0-1.848,16.971-20.666,18.587-20.666c0.346,0,1.559-0.693,2.713-1.616
	c2.712-2.021,3.751-2.655,7.388-4.445c1.674-0.866,3.175-1.732,3.348-2.078c0.231-0.288,0.808-0.52,1.327-0.52
	s1.732-0.404,2.656-0.866c0.866-0.461,2.309-0.866,3.175-0.866c0.808,0,2.021-0.404,2.598-0.866
	c0.635-0.461,2.193-0.866,3.463-0.866c1.328-0.058,3.001-0.404,3.81-0.866C240.758,184.387,258.018,184.387,260.961,185.6
	L260.961,185.6z"/>
<path d="M244.106,197.953c-0.635,0.288-2.713,0.577-4.618,0.577c-8.947,0.116-24.128,7.966-32.787,16.971
	c-2.54,2.655-6.754,9.005-6.754,10.16c0,0.288-0.404,0.808-0.866,1.212c-0.462,0.404-0.866,1.154-0.866,1.732
	c0,0.577-0.405,1.327-0.866,1.731c-0.462,0.404-0.866,1.386-0.866,2.251c-0.058,0.808-0.404,2.136-0.866,2.944
	c-0.462,0.808-0.808,2.251-0.866,3.232c0,0.981-0.405,2.771-0.866,3.868c-0.578,1.5-0.866,4.156-0.866,8.946
	c0,4.849,0.288,7.505,0.866,8.947c0.461,1.155,0.866,2.829,0.866,3.753c0,0.865,0.404,2.136,0.866,2.771
	c0.461,0.577,0.866,1.616,0.866,2.193c0,1.039,3.001,7.504,4.791,10.448c1.27,2.078,5.772,8.081,6.985,9.293
	c1.962,1.904,9.293,7.216,11.313,8.139c0.462,0.231,1.212,0.751,1.616,1.155c0.404,0.403,1.097,0.75,1.501,0.75
	s2.251,0.751,4.099,1.731c1.847,0.924,3.81,1.731,4.271,1.731c0.52,0,1.443,0.405,2.021,0.866c0.635,0.462,2.136,0.866,3.348,0.866
	c1.212,0,3.175,0.404,4.33,0.865c1.501,0.636,4.271,0.866,10.275,0.866c6.003,0,8.773-0.23,10.274-0.866
	c1.154-0.461,2.943-0.865,4.04-0.865c1.039,0,2.425-0.404,3.06-0.866c0.577-0.461,1.559-0.866,2.136-0.866
	c0.635,0,1.79-0.346,2.598-0.808c0.866-0.404,2.713-1.385,4.156-2.078c4.387-2.309,4.791-2.54,8.197-5.08
	c3.982-2.943,9.697-8.6,9.697-9.524c0-0.403,0.808-1.559,1.731-2.654c0.981-1.039,1.732-2.252,1.732-2.714
	c0-0.403,0.23-0.808,0.461-0.923c0.635-0.23,3.002-4.906,3.002-5.888c0-0.404,0.404-1.097,0.866-1.501
	c0.461-0.404,0.865-1.386,0.865-2.252c0-0.865,0.347-2.02,0.808-2.654c2.194-3.233,2.137-27.592-0.114-29.843
	c-0.347-0.346-0.693-1.385-0.693-2.251c0-0.866-0.404-2.309-0.865-3.232c-0.405-0.866-1.386-2.771-2.021-4.214
	c-2.194-4.561-2.771-5.368-6.984-10.39c-2.367-2.829-5.946-6.119-8.255-7.792c-4.618-3.233-10.91-6.639-12.353-6.639
	c-0.52,0-1.501-0.404-2.078-0.866c-0.636-0.461-1.905-0.866-2.829-0.866c-0.866,0-2.193-0.288-2.886-0.692
	C263.097,198.299,246.242,197.029,244.106,197.953L244.106,197.953z M257.96,203.494c1.904,0.173,4.906,0.75,6.638,1.27
	c7.966,2.309,18.183,7.793,16.913,9.005c-0.173,0.231-14.373,0.404-31.459,0.404c-24.647,0-31.055-0.173-31.055-0.75
	c0-0.75,4.098-3.521,7.504-5.08c8.485-3.81,9.582-4.099,16.278-4.561c3.406-0.173,6.35-0.461,6.465-0.634
	C249.532,202.859,252.88,203.032,257.96,203.494L257.96,203.494z M282.954,252.386l0.115,32.787h-65.805l-0.116-32.498
	c-0.116-17.837-0.116-32.614,0-32.902c0.116-0.231,14.893-0.347,32.902-0.289l32.729,0.173L282.954,252.386z M211.954,235.069
	l-0.173,13.45l-6.87,0.173l-6.811,0.173l0.404-2.193c0.173-1.212,0.635-2.425,0.924-2.713c0.289-0.346,0.52-1.674,0.52-3.059
	c0-1.328,0.347-3.29,0.808-4.329c0.462-1.039,0.981-2.31,1.154-2.771c0.173-0.462,0.577-1.27,0.866-1.731
	c0.289-0.462,0.981-1.905,1.559-3.175c0.635-1.27,1.27-2.424,1.443-2.598c0.173-0.173,0.924-1.385,1.674-2.712
	c1.443-2.656,3.463-3.983,4.214-2.713C211.896,221.272,212.011,227.68,211.954,235.069L211.954,235.069z M292.651,223.293
	c0.577,1.097,1.386,2.309,1.674,2.655c0.52,0.635,1.327,2.251,3.405,6.869c2.252,5.022,3.521,15.585,1.963,16.047
	c-0.404,0.173-3.06,0.115-5.945-0.058l-5.195-0.288l-0.173-12.988c-0.058-7.158,0-13.565,0.173-14.258
	c0.231-1.096,0.462-1.212,1.617-0.692C290.92,220.926,292.017,222.139,292.651,223.293L292.651,223.293z M210.915,254.579
	c0.693,0.462,0.923,2.713,1.039,13.104c0.116,6.869,0.058,13.104-0.173,13.854c-0.289,1.154-0.462,1.212-1.674,0.692
	c-0.75-0.403-1.559-1.097-1.732-1.616c-0.173-0.52-0.808-1.731-1.443-2.654c-1.096-1.732-4.213-7.852-6.003-12.008
	c-0.52-1.212-0.981-3.059-0.981-4.213c0-1.097-0.404-2.771-0.866-3.753c-0.692-1.27-0.751-1.962-0.289-2.828
	c0.577-1.039,1.212-1.154,5.945-1.154C207.682,254.002,210.453,254.291,210.915,254.579L210.915,254.579z M300.098,258.909
	c-0.058,2.539-0.404,5.541-0.866,6.638c-1.039,2.713-2.366,5.888-2.943,6.927c-2.021,3.752-2.944,5.368-3.406,5.945
	c-0.346,0.404-1.039,1.328-1.616,2.078c-0.75,0.924-1.442,1.271-2.078,1.039c-0.923-0.347-0.981-1.559-0.808-13.392
	c0.115-10.794,0.346-13.104,1.039-13.565c0.462-0.346,3.06-0.52,5.772-0.462l4.906,0.174V258.909z M279.201,290.772
	c0.578,0.577-1.962,3.059-3.117,3.059c-0.576,0-1.153,0.231-1.327,0.52c-0.462,0.692-5.08,2.944-6.061,2.944
	c-0.404,0-1.271,0.346-1.963,0.692c-3.752,2.136-20.435,3.579-24.302,2.136c-0.981-0.346-2.944-0.865-4.387-1.097
	c-2.829-0.462-5.772-1.443-8.197-2.655c-0.808-0.462-1.905-0.809-2.366-0.809c-0.462,0-1.154-0.403-1.559-0.865
	s-1.097-0.866-1.558-0.866c-0.982,0-3.06-2.366-2.656-3.001C221.998,290.253,278.682,290.194,279.201,290.772L279.201,290.772z"/>
<path d="M229.501,232.009c-0.634,0.346-0.75,4.561-0.75,20.261c0,10.909,0.23,20.03,0.52,20.318
	c0.23,0.231,9.813,0.404,21.243,0.347l20.722-0.173l0.174-19.857c0.115-14.143-0.058-20.088-0.52-20.607
	c-0.52-0.635-4.444-0.808-20.665-0.808C239.257,231.49,229.906,231.721,229.501,232.009L229.501,232.009z M265.752,251.231
	c0.174,7.562,0.174,14.315,0,15.008l-0.346,1.328l-15.239,0.173c-13.854,0.115-15.354,0.058-15.99-0.865
	c-0.981-1.271-1.039-26.784-0.173-28.516c0.578-1.096,1.271-1.096,16.047-0.981l15.413,0.173L265.752,251.231L265.752,251.231z"/>
<path d="M245.375,247.421c-0.23,0.231-0.404,2.598-0.404,5.253v4.849l5.08-0.173l5.022-0.174v-9.813l-4.618-0.173
	C247.857,247.133,245.606,247.191,245.375,247.421z M182.515,42.561c-0.923,0.173-2.251,1.154-3.348,2.482
	c-1.385,1.789-1.731,2.712-1.731,5.08c0,1.847,0.288,3.117,0.866,3.579c0.461,0.404,0.866,1.096,0.866,1.5
	c0,0.462,0.635,0.924,1.443,1.155c0.75,0.173,1.674,0.693,2.078,1.155c0.923,1.154,2.598,0.981,5.426-0.404
	c2.656-1.328,4.907-4.849,4.907-7.562c0-1.271-2.656-5.657-3.868-6.407C188.345,42.676,184.131,42.272,182.515,42.561z
	 M313.086,42.619c-5.138,1.385-7.39,7.388-4.33,11.371c1.501,1.963,5.369,4.329,7.158,4.329c0.577,0,1.385-0.404,1.789-0.866
	c0.404-0.461,1.039-0.866,1.443-0.866s1.442-0.808,2.251-1.79c1.848-2.193,2.078-6.984,0.462-8.889
	C319.146,42.849,316.318,41.81,313.086,42.619z M87.213,94.512c-1.905,0.981-5.022,5.08-5.022,6.581
	c0,1.443,2.078,5.311,3.521,6.639c0.923,0.866,2.078,1.096,4.964,1.096c3.521,0,3.867-0.173,5.426-1.905
	c1.443-1.616,1.674-2.309,1.674-5.484c0-3.232-0.173-3.81-1.559-5.08C93.101,93.531,90.215,92.953,87.213,94.512L87.213,94.512z
	 M407.002,94.338c-3.002,1.328-4.387,3.695-4.444,7.389c0,2.886,0.23,3.579,1.674,5.195c1.559,1.732,1.905,1.905,5.425,1.905
	c4.215,0,5.368-0.692,7.332-4.445c1.559-2.944,1.443-3.925-0.52-6.638C413.756,93.935,410.466,92.78,407.002,94.338z
	 M39.476,184.561c-1.789,0.346-3.579,2.193-4.618,4.675c-0.577,1.559-0.634,2.367,0,4.33c0.347,1.328,0.982,2.771,1.328,3.232
	c1.212,1.443,4.964,3.521,6.407,3.521c2.021,0,6.234-3.405,6.811-5.483c0.809-2.771,0-7.273-1.559-8.774
	C46.46,184.619,42.477,183.926,39.476,184.561z M454.739,184.965c-2.829,1.27-3.695,2.944-3.695,7.273
	c0,4.098,0.52,4.906,4.446,7.042c2.712,1.444,4.617,1.271,7.042-0.634c4.617-3.637,5.194-7.793,1.616-11.834
	c-1.559-1.789-2.31-2.193-4.733-2.424C457.625,184.214,455.836,184.445,454.739,184.965z M39.187,301.797
	c-2.136,1.271-3.405,2.713-4.618,5.368c-0.924,2.021-0.924,2.251,0.058,4.329c1.328,2.944,2.713,4.272,5.252,4.965
	c3.002,0.809,6.119,0.058,8.024-1.905c1.443-1.501,1.616-2.078,1.616-5.426c0-4.099-0.75-5.253-4.675-7.331
	C42.477,300.527,41.38,300.527,39.187,301.797L39.187,301.797z M455.086,302.086c-3.405,2.078-3.983,3.175-4.042,7.389
	c0,3.348,0.174,3.925,1.617,5.253c1.847,1.789,4.733,2.424,7.907,1.789c1.732-0.404,2.771-1.097,4.156-3.002
	c1.098-1.385,1.905-3.116,1.905-3.982c0-2.425-2.366-6.004-4.905-7.446C458.896,300.47,457.683,300.47,455.086,302.086
	L455.086,302.086z M88.83,391.325c-3.983,1.329-6.638,4.503-6.638,7.793c0,2.541,2.886,6.407,5.599,7.563
	c1.847,0.81,2.54,0.81,4.675,0.174c3.637-1.097,5.311-3.521,5.311-7.677c0-3.81-1.212-5.774-4.502-7.333
	C90.965,390.749,90.561,390.692,88.83,391.325z M406.886,391.731c-3.29,1.672-4.328,3.521-4.328,7.446
	c0,4.097,1.096,5.771,4.732,7.503c1.847,0.81,2.482,0.866,4.329,0.29c1.213-0.406,2.656-1.155,3.291-1.675
	c1.212-1.096,3.231-4.849,3.231-6.062c0-1.788-2.48-5.657-4.559-7.043C411.215,390.576,409.311,390.46,406.886,391.731z
	 M181.591,443.913c-3.348,1.788-4.156,3.233-4.156,7.156c0.057,2.888,0.288,3.81,1.442,5.139c3.06,3.463,8.948,3.406,11.833-0.057
	c2.424-2.944,2.656-4.792,1.039-8.025c-0.866-1.789-2.078-3.117-3.637-3.983C185.401,442.584,184.189,442.527,181.591,443.913z
	 M311.931,444.029c-2.886,1.731-4.214,3.693-4.502,6.811c-0.231,2.48-0.058,2.943,1.847,5.078c2.425,2.657,4.906,3.35,8.428,2.425
	c6.408-1.731,6.984-11.949,0.751-14.257C314.875,442.7,314.067,442.7,311.931,444.029z"/>
</svg>
