<?xml version="1.0" encoding="utf-8"?>
<!-- Generator: Adobe Illustrator 16.0.0, SVG Export Plug-In . SVG Version: 6.00 Build 0)  -->
<!DOCTYPE svg PUBLIC "-//W3C//DTD SVG 1.1//EN" "http://www.w3.org/Graphics/SVG/1.1/DTD/svg11.dtd">
<svg version="1.1" id="Layer_1" xmlns="http://www.w3.org/2000/svg" xmlns:xlink="http://www.w3.org/1999/xlink" x="0px" y="0px"
	 width="500px" height="500px" viewBox="0 0 500 500" enable-background="new 0 0 500 500" xml:space="preserve">
<g>
	<path fill-rule="evenodd" clip-rule="evenodd" d="M98.473,168.588c-8.158-4.402-16.174-8.704-24.162-13.058
		c-1.63-0.889-3.507-1.706-3.052-4.182c0.352-1.917,1.774-2.568,3.433-1.625c8.578,4.876,17.168,9.73,26.074,14.771
		c1.81-3.069,3.561-6.035,5.616-9.519c-13.595-9.639-27.324-19.369-41.044-29.109c-0.998-0.709-2.258-1.322-2.811-2.309
		c-0.548-0.978-0.841-2.671-0.335-3.489c0.403-0.652,2.518-1.016,3.28-0.547c4.084,2.515,8.065,5.219,11.929,8.066
		c9.328,6.874,18.571,13.864,27.846,20.81c1.264,0.946,2.517,1.905,3.858,2.921c2.381-3.129,4.647-6.106,7.022-9.228
		c-6.645-5.487-13.299-10.98-19.955-16.472c-0.801-0.661-1.587-1.344-2.422-1.959c-1.483-1.089-2.374-2.75-1.095-4.032
		c0.671-0.673,3.134-0.475,4.122,0.244c4.11,2.992,7.966,6.331,11.915,9.544c3.509,2.855,7.017,5.711,10.823,8.81
		c5.26-5.5,10.596-11.078,15.798-16.516c-6.235,0.132-12.154-2.11-17.807-5.581c-7.877-4.836-11.955-12.345-14.96-20.571
		c-4.623-12.653-4.427-25.607-1.75-38.63c0.387-1.886,1.776-2.393,3.428-2.084c6.83,1.277,13.8,2.114,20.428,4.089
		c8.289,2.47,16.094,6.218,22.746,12.04c9.225,8.072,13.822,17.871,11.881,30.287c-0.096,0.616-0.013,1.259-0.013,1.69
		c6.221-3.27,12.422-6.529,19.05-10.013c-4.264-7.799-8.728-15.968-13.2-24.132c-0.316-0.578-0.724-1.108-1.031-1.69
		c-0.869-1.644-0.83-3.418,0.976-4.037c0.866-0.296,2.737,0.64,3.327,1.551c1.929,2.984,3.501,6.203,5.169,9.353
		c3.071,5.799,6.113,11.612,9.202,17.484c2.444-0.914,4.957-1.851,7.468-2.791c1.882-0.705,1.486-1.96,0.956-3.418
		c-2.535-6.968-4.953-13.979-7.497-20.944c-2.963-8.113-6.049-16.182-9-24.3c-0.683-1.876-1.896-4.354,0.56-5.508
		c2.847-1.336,3.733,1.453,4.445,3.392c2.55,6.94,4.913,13.947,7.363,20.924c3.164,9.01,6.342,18.016,9.617,27.317
		c3.469-1.066,6.833-2.1,10.309-3.168c-1.813-8.251-3.582-16.3-5.35-24.347c-0.14-0.639-0.302-1.274-0.407-1.918
		c-0.317-1.934,0.366-3.615,2.259-3.982c2.207-0.429,2.426,1.673,2.767,3.17c1.58,6.946,3.064,13.913,4.618,20.864
		c0.365,1.633,0.867,3.235,1.34,4.98c7.191-1.267,14.374-2.531,21.918-3.859c-4.651-3.559-8.034-7.836-10.057-13.084
		c-3.775-9.802-3.121-19.531,0.596-29.196c3.651-9.494,9.438-17.524,16.684-24.58c2.503-2.436,4.911-4.969,7.364-7.456
		c1.028-1.042,2.078-1.652,3.377-0.334c7.923,8.022,16.699,15.343,21.841,25.699c7.277,14.655,8.318,29.125-1.778,43.08
		c-0.873,1.208-1.972,2.27-3.057,3.301c-1.008,0.957-2.139,1.783-3.429,2.843c3.989,0.529,7.813,1,11.627,1.554
		c3.073,0.447,6.151,0.906,9.192,1.528c1.722,0.353,2.496,0.08,2.924-1.84c1.696-7.612,3.561-15.188,5.455-22.753
		c0.447-1.786,0.513-4.5,3.267-3.992c2.714,0.5,2.15,3.167,1.747,4.947c-1.576,6.955-3.421,13.848-5.161,20.766
		c-0.343,1.361-0.673,2.724-1.104,4.471c3.525,1.17,6.999,2.323,10.778,3.578c5.366-15.564,10.729-31.142,16.118-46.71
		c0.522-1.507,0.968-3.139,1.9-4.375c0.695-0.923,2.193-1.913,3.196-1.787c1.843,0.233,2.445,1.692,1.734,3.626
		c-2.854,7.75-5.596,15.542-8.453,23.292c-3.275,8.885-6.629,17.742-10.051,26.884c3.228,1.422,6.369,2.807,9.74,4.292
		c1.349-2.649,2.716-5.312,4.06-7.987c2.911-5.796,5.79-11.608,8.732-17.39c0.505-0.992,1.092-2.089,1.95-2.709
		c0.674-0.487,2.01-0.679,2.713-0.326c0.699,0.352,1.362,1.554,1.342,2.367c-0.025,1.043-0.668,2.111-1.182,3.098
		c-3.948,7.57-7.909,15.134-11.92,22.671c-0.649,1.219-1.11,2.18,0.48,3.016c5.783,3.037,11.547,6.115,17.031,9.025
		c0-2.844-0.146-6.086,0.026-9.312c0.562-10.481,5.344-18.825,13.799-24.778c12.53-8.823,26.647-13.276,41.95-14.065
		c2.327-0.12,3.215,0.548,3.61,3.004c2.521,15.633,1.54,30.802-6.033,44.989c-4.867,9.116-12.293,15.35-22.591,17.661
		c-2.15,0.482-4.39,0.561-7.127,0.889c5.74,5.353,11.18,10.423,16.581,15.458c6.354-5.188,13.361-10.913,20.371-16.632
		c0.511-0.415,1.027-0.832,1.585-1.175c1.438-0.885,2.845-1.056,3.983,0.471c1.225,1.642,0.249,2.959-0.941,3.906
		c-4.205,3.342-8.552,6.507-12.764,9.84c-3.1,2.452-6.073,5.062-9.417,7.862c2.427,3.188,4.837,6.357,7.242,9.519
		c7.188-5.355,14.223-10.71,21.381-15.899c7.016-5.087,14.174-9.981,21.229-15.018c1.719-1.228,3.351-1.544,4.561,0.362
		c1.104,1.74,0.267,3.062-1.407,4.201c-9.19,6.251-18.366,12.524-27.448,18.93c-5.147,3.631-10.106,7.531-15.39,11.488
		c1.843,3.155,3.614,6.184,5.538,9.478c9.229-5.355,18.201-10.562,27.067-15.706c3.241,2.717,3.02,4.353-0.488,6.277
		c-7.333,4.022-14.656,8.064-21.973,12.117c-0.652,0.361-1.23,0.854-1.896,1.323c2.927,6.453,5.822,12.837,8.789,19.381
		c3.281-5.166,6.81-10.026,12.056-13.234c10.929-6.683,22.571-6.974,34.53-3.522c9.489,2.738,17.927,7.665,26.221,12.878
		c1.564,0.983,1.747,2.162,0.95,3.561c-8.045,14.143-16.922,27.534-32.729,34.218c-10.103,4.271-20.071,4.617-29.615-1.696
		c-0.928-0.615-1.884-1.188-3.055-1.926c0.95,7.44,1.87,14.633,2.854,22.322c6.405-0.557,12.762-1.105,19.115-1.665
		c2.998-0.264,5.991-0.623,8.994-0.797c1.624-0.093,3.363,0.098,3.295,2.37c-0.059,2.008-1.457,2.597-3.249,2.732
		c-9.105,0.685-18.209,1.408-27.647,2.142c0,3.613,0,7.422,0,11.562c0.496,0.089,1.287,0.319,2.087,0.359
		c8.488,0.417,16.98,0.731,25.464,1.22c7.624,0.438,15.239,1.047,22.856,1.606c1.498,0.11,2.407,0.77,2.386,2.507
		c-0.022,1.806-0.815,2.655-2.56,2.588c-3.863-0.151-7.729-0.305-11.587-0.544c-8.278-0.513-16.557-1.057-24.832-1.632
		c-4.688-0.326-9.371-0.738-14.234-1.126c-0.324,4.154-0.636,8.149-0.931,11.931c8.899,1.505,17.577,3.033,26.279,4.396
		c2.015,0.316,3.478,1.233,3.189,3.133c-0.275,1.813-1.864,2-3.771,1.646c-8.771-1.621-17.585-3.01-26.512-4.504
		c-1.802,7.576-3.577,15.043-5.229,21.993c3.647-1.081,7.502-2.877,11.499-3.286c12.207-1.251,22.089,3.835,30.658,12.186
		c9.52,9.278,14.396,21.15,19.319,33.745c-2.843,1.366-5.618,2.867-8.521,4.063c-9.106,3.751-18.449,6.652-28.451,6.097
		c-13.758-0.765-25.581-5.332-32.966-17.878c-1.277-2.168-2.131-4.585-3.229-6.99c-3.519,6.073-7.021,12.121-10.623,18.341
		c7.391,5.271,14.733,10.508,22.075,15.747c0.846,0.603,2.015,1.045,2.44,1.868c0.563,1.093,1.091,2.744,0.648,3.697
		c-0.803,1.732-2.301,0.938-3.535,0.038c-8.063-5.867-16.133-11.723-24.42-17.741c-2.059,2.587-4.374,5.497-6.872,8.637
		c2.811,2.448,5.589,4.831,8.327,7.26c8.542,7.576,17.068,15.168,25.598,22.759c2.043,1.816,4.052,3.674,6.117,5.465
		c1.343,1.163,1.817,2.338,0.516,3.848c-1.333,1.545-2.64,1.409-4.058,0.128c-4.761-4.304-9.552-8.571-14.306-12.881
		c-8.39-7.604-16.76-15.229-25.189-22.893c-2.671,2.8-5.438,5.699-8.378,8.78c2.813,2.999,5.531,5.959,8.318,8.853
		c3.277,3.401,6.615,6.746,9.929,10.114c0.33,0.337,0.776,0.609,0.984,1.009c0.785,1.514,3.015,2.856,0.85,4.83
		c-2.213,2.019-3.4-0.13-4.627-1.381c-5.817-5.936-11.62-11.887-17.307-17.945c-1.349-1.438-2.144-1.524-3.63-0.199
		c-4.558,4.064-9.264,7.961-13.715,11.756c3.554,1.41,7.451,2.458,10.833,4.401c7.728,4.439,12.453,11.513,15.921,19.56
		c5.976,13.864,5.533,28.004,2.021,42.307c-0.2,0.818-0.057,1.933-0.554,2.421c-0.862,0.85-2.253,2.031-3.159,1.838
		c-15.08-3.228-29.49-8.335-40.662-19.383c-9.777-9.668-13.089-21.645-8.943-35.368c-6.901,2.957-13.581,5.818-20.206,8.657
		c3.212,8.352,6.404,16.464,9.42,24.641c0.605,1.646,2.354,3.996-0.264,5.164c-2.722,1.215-3.498-1.416-4.212-3.31
		c-2.681-7.116-5.265-14.269-7.894-21.405c-0.417-1.13-0.888-2.243-1.489-3.759c-3.423,1.071-6.785,2.122-10.467,3.273
		c0.487,2.196,0.865,4.376,1.462,6.495c3.795,13.47,7.651,26.921,11.456,40.387c0.796,2.815-0.568,4.63-3.136,3.934
		c-0.955-0.26-1.977-1.64-2.278-2.704c-1.892-6.682-3.593-13.418-5.353-20.138c-2.324-8.889-4.645-17.778-6.986-26.747
		c-7.522,1.169-15.249,2.369-23.499,3.649c7.353,5.377,11.352,12.257,12.718,20.602c1.341,8.182,0.004,16.062-2.86,23.824
		c-3.505,9.499-10.283,16.566-16.902,23.789c-2.545,2.776-5.186,5.463-7.943,8.357c-11.502-11.212-22.726-22.06-26.998-37.782
		c-3.287-12.1-2.454-23.716,5.653-33.958c1.53-1.934,3.632-3.414,5.492-5.122c-7.578-1.024-15.404-2.083-23.62-3.194
		c-0.871,3.681-1.83,7.843-2.844,11.992c-2.874,11.761-5.786,23.512-8.646,35.275c-0.467,1.919-1.372,3.626-3.497,3.02
		c-2.054-0.587-2.095-2.373-1.567-4.427c3.803-14.805,7.475-29.642,11.171-44.473c0.248-0.994,0.355-2.022,0.535-3.075
		c-3.37-0.961-6.586-1.879-10.042-2.866c-0.871,2.245-1.703,4.391-2.534,6.536c-2.508,6.475-5.002,12.956-7.536,19.421
		c-0.608,1.551-1.427,3.117-3.499,2.288c-2.014-0.808-1.656-2.346-0.989-4.013c3.407-8.525,6.749-17.076,10.136-25.674
		c-6.747-2.952-13.435-5.879-20.265-8.867c2.098,5.424,2.066,11.032,1.184,16.727c-1.292,8.334-5.698,14.9-11.792,20.342
		c-11.212,10.012-24.856,14.814-39.305,17.806c-1.596,0.331-2.281-0.028-2.625-1.501c-4.028-17.214-5.563-34.289,3.74-50.463
		c4.824-8.386,11.213-15.118,21.129-17.458c0.999-0.233,1.997-0.464,3.415-0.793c-5.337-4.521-10.523-8.912-15.75-13.338
		c-6.588,6.862-13.104,13.628-19.585,20.426c-1.136,1.191-2.515,2.248-3.673,0.66c-0.652-0.893-0.734-3.167-0.064-3.903
		c6.452-7.102,13.119-14.009,19.775-21.026c-2.616-2.859-5.281-5.771-8.049-8.797c-2.95,2.672-5.792,5.247-8.638,7.822
		c-10.212,9.238-20.439,18.462-30.623,27.732c-1.412,1.285-2.834,1.62-4.216,0.318c-1.496-1.407-0.539-2.814,0.596-3.857
		c4.241-3.893,8.551-7.711,12.846-11.546c8.942-7.984,17.89-15.961,27.006-24.092c-2.342-2.911-4.73-5.877-7.33-9.107
		c-4.317,3.343-8.516,6.656-12.782,9.881c-3.683,2.781-7.452,5.446-11.162,8.191c-1.3,0.963-2.627,1.848-3.874,0.099
		c-1.226-1.72-0.206-2.982,1.17-4.025c7.947-6.027,15.902-12.044,23.891-18.091c-3.537-5.964-7.015-11.829-10.564-17.814
		c-2.169,6.974-6.115,12.667-11.897,17.169c-6.334,4.931-13.646,7.077-21.424,7.788c-12.884,1.174-24.744-2.723-36.27-7.901
		c-3.098-1.391-3.466-2.432-1.994-5.565c3.468-7.379,6.417-15.115,10.785-21.932c6.815-10.633,16.635-17.97,29.214-20.543
		c6.306-1.289,12.802-0.839,18.663,2.613c0.466,0.273,1.002,0.43,1.854,0.785c-1.888-7.442-3.693-14.562-5.583-22.014
		c-3.602,0.571-7.356,1.162-11.108,1.764c-5.197,0.832-10.421,1.536-15.578,2.571c-2.332,0.468-3.038-0.917-3.138-2.434
		c-0.047-0.705,1.423-2.03,2.361-2.197c8.795-1.567,17.625-2.944,26.926-4.455c-0.428-3.708-0.885-7.664-1.4-12.127
		c-4.455,0.256-8.928,0.478-13.396,0.779c-7.709,0.521-15.417,1.067-23.123,1.648c-3.475,0.261-6.938,0.705-10.415,0.912
		c-1.564,0.094-3.258,0.104-4.686-0.417c-0.828-0.303-1.575-1.689-1.71-2.677c-0.071-0.523,1.179-1.675,1.943-1.788
		c3.533-0.524,7.098-0.921,10.664-1.116c11.971-0.655,23.947-1.188,35.919-1.815c1.581-0.083,3.147-0.441,4.544-0.647
		c0-3.731,0-7.362,0-11.061c-8.551-0.64-16.792-1.247-25.031-1.887c-1.312-0.101-2.608-0.405-3.919-0.507
		c-1.871-0.144-2.018-1.366-1.895-2.807c0.139-1.618,1.144-1.965,2.577-1.838c7.889,0.697,15.781,1.364,23.672,2.042
		c1.492,0.129,2.984,0.262,4.551,0.399c0.892-7.455,1.759-14.708,2.605-21.783c-3.989,1.681-8.033,3.9-12.36,5.094
		c-7.551,2.084-14.779,0.029-21.556-3.347c-9.321-4.644-16.581-11.662-22.237-20.371c-2.668-4.108-5.311-8.232-8.031-12.306
		c-1.029-1.54-1.376-2.833,0.413-4.057c9.138-6.247,18.824-11.375,29.638-14.027c8.912-2.186,17.917-2.003,26.326,1.645
		c7.183,3.116,13.075,8.185,16.494,15.58c0.102,0.221,0.306,0.394,0.533,0.677C92.457,181.578,95.428,175.162,98.473,168.588z
		 M250.648,417.823c6.953-0.512,13.915-0.946,20.861-1.553c15.798-1.381,30.792-5.963,45.325-12.027
		c19.2-8.012,35.721-20.113,50.76-34.332c16.529-15.625,28.96-34.158,37.948-54.93c8.825-20.398,12.977-41.858,13.015-64.111
		c0.03-17.747-2.944-34.981-8.291-51.874c-4.362-13.786-10.085-26.972-18.113-38.971c-10.551-15.767-23.264-29.611-38.185-41.476
		c-13.374-10.636-28.039-18.812-43.886-25.024c-15.802-6.194-32.238-9.689-49.113-10.705c-12.887-0.776-25.716,0.28-38.521,2.415
		c-18.54,3.091-36.108,8.921-52.56,17.791c-15.788,8.512-29.436,19.957-41.826,32.922c-8.979,9.396-16.75,19.697-22.988,31.058
		c-6.285,11.448-11.534,23.358-15.462,35.89c-4.025,12.84-6.279,25.925-6.979,39.288c-0.879,16.783,1.222,33.292,5.426,49.538
		c6.996,27.032,20.042,50.855,39.067,71.194c7.38,7.891,15.617,15.101,24.105,21.81c19.123,15.116,41.022,24.423,64.825,29.485
		C227.476,416.64,238.998,417.429,250.648,417.823z M228.526,42.562c-4.557,17.38,5.336,34.62,19.101,34.63
		c0.628-5.2-0.012-10.229-3.193-14.469C239.437,56.061,234.131,49.631,228.526,42.562z M272.629,42.987
		c-1.332,1.568-2.56,2.988-3.76,4.431c-3.854,4.63-7.944,9.089-11.473,13.956c-3.366,4.641-4.878,10.005-4.017,15.874
		C268.61,75.527,277.59,56.395,272.629,42.987z M248.45,423.418c-13.991-0.771-24.532,16.679-20.257,32.948
		C238.456,443.63,248.506,432.688,248.45,423.418z M272.511,456.422c5.446-16.086-7.153-33.315-19.497-32.957
		c-0.132,3.753,1.925,9.513,4.747,13.279C262.663,443.287,267.568,449.829,272.511,456.422z M358.652,74.304
		c-7.943,5.478-10.879,12.694-11.568,21.101c-0.513,6.238,2.136,13.589,6.458,15.954C359.422,99.813,357.701,87.288,358.652,74.304z
		 M142.975,74.497c0.374,16.163-0.66,27.53,4.779,36.685C158.241,102.439,156.064,84.04,142.975,74.497z M442.684,175.287
		c-0.206-0.265-0.411-0.529-0.617-0.793c-9.955,0.06-17.642,4.6-23.249,12.563c-1.773,2.519-2.653,5.773-3.496,8.814
		c-0.845,3.046,0.7,4.342,3.618,3.25c1.734-0.65,3.732-1.303,4.917-2.593C430.251,189.558,436.43,182.388,442.684,175.287z
		 M58.947,174.275c0.508,0.689,0.959,1.378,1.483,2.006c5.252,6.284,10.409,12.652,15.829,18.79c2.29,2.594,5.216,4.529,8.982,4.45
		C87.134,189.67,77.527,174.858,58.947,174.275z M452.114,216.277c-21.193-11.361-26.173-11.8-34.39-10.904
		C421.486,217.698,439.053,223.357,452.114,216.277z M83.602,205.797c-7.978-3.213-24.346,4.785-34.453,10.972
		c6.257,2.313,12.652,4.166,19.358,1.904C75.151,216.433,80.61,212.678,83.602,205.797z M70.262,346.402
		c14.083-2.34,24.42-18.817,21.062-29.031C78.242,322.591,76.092,335.551,70.262,346.402z M54.742,307.184
		c4.279,1.452,8.373,2.961,12.543,4.217c3.308,0.996,6.675,1.896,10.079,2.447c4.091,0.661,8.192,0.546,11.921-1.743
		C83.704,301.924,66.64,298.338,54.742,307.184z M430.523,346.275c-1.952-4.563-3.646-9.09-5.809-13.383
		c-1.551-3.083-3.547-5.989-5.667-8.724c-2.44-3.148-5.526-5.537-9.729-6.1C408.276,330.266,415.414,341.948,430.523,346.275z
		 M411.883,312.088c5.998,3.906,27.966,0.229,34.401-5.76C430.51,297.756,417.486,303.564,411.883,312.088z M110.858,100.883
		c5.499,13.593,25.948,19.688,33.459,12.837C135.242,104.236,122.403,105.087,110.858,100.883z M126.528,412.472
		c6.019-2.313,12.135-4.553,18.162-7.012c5.026-2.051,9.874-4.46,13.127-9.142C147.904,389.513,130.981,398.362,126.528,412.472z
		 M357.257,113.865c6.564,7.407,29.291-0.877,32.304-12.961c-7.998,2.292-15.671,4.384-23.271,6.716
		C362.758,108.704,359.541,110.502,357.257,113.865z M375.119,412.583c-9.517-16.257-21.202-22.466-31.353-16.658
		C347.651,402.037,355.918,406.43,375.119,412.583z M160.063,434.313c9.746-9.303,11.154-27.932,1.666-35.918
		c-0.905,3.371-2.414,6.473-2.444,9.586C159.204,416.511,159.744,425.045,160.063,434.313z M340.988,434.208
		c-0.262-12.106,3.27-23.859-1.634-35.368C330.168,404.213,331.031,423.275,340.988,434.208z M248.304,438.694
		c-5.656,7.256-11.163,14.27-16.592,21.343c-0.68,0.887-1.572,2.283-1.306,3.1c0.873,2.679,2.234,5.198,3.547,8.085
		c4.076-5.396,7.558-10.551,11.631-15.187c2.286-2.604,2.924-5.197,2.753-8.402C248.18,444.672,248.304,441.697,248.304,438.694z
		 M135.192,102.2c-3.519-5.442-7.057-10.647-14.119-12.248c-5.22-1.182-10.259-3.165-15.915-4.961
		c0.762,3.146,1.169,5.657,2.024,8.005c0.438,1.204,1.504,2.774,2.58,3.055C118.183,98.251,126.673,100.178,135.192,102.2z
		 M42.041,177.067c3.529,3.686,7.098,6.831,9.956,10.526c4.871,6.296,11.63,7.982,18.814,8.972
		c-4.431-5.25-8.761-10.515-13.238-15.652C50.856,173.207,53.29,173.722,42.041,177.067z M76.202,323.641
		c-4.272,1.5-8.863,2.196-11.623,5.957c-4.187,5.707-7.999,11.688-12.313,18.06c3.625,0,6.452-0.101,9.268,0.036
		c1.818,0.088,2.892-0.444,3.728-2.165C68.781,338.286,72.449,331.116,76.202,323.641z M430.882,196.175
		c4.91-0.284,9.66-0.608,13.003-3.427c5.584-4.708,10.453-10.267,15.912-15.759c-2.499-0.742-4.415-1.562-6.405-1.83
		c-1.969-0.265-3.85-0.837-5.689,1.483C442.495,183.198,436.803,189.369,430.882,196.175z M365.468,102.766
		c1.87-0.604,3.657-1.321,5.512-1.758c6.284-1.48,12.599-2.831,18.882-4.313c0.93-0.219,2.248-0.679,2.539-1.38
		c1.221-2.948,2.12-6.028,3.138-9.06c-0.249-0.275-0.498-0.551-0.747-0.826c-6.447,2.152-12.928,4.209-19.317,6.518
		c-1.789,0.646-3.663,1.732-4.871,3.149C368.628,97.408,367.169,100.159,365.468,102.766z M68.089,202.002
		c0.038-0.246,0.076-0.489,0.114-0.733c-4.132-0.569-8.361-1.988-12.374-1.524c-7.131,0.826-13.888,3.479-20.82,7.044
		c2.335,1.864,4.408,3.441,6.387,5.127c1.558,1.328,2.987,1.391,4.86,0.47C53.489,208.833,60.804,205.449,68.089,202.002z
		 M448.144,347.591c-2.573-4.268-5.302-8.11-7.319-12.294c-3.251-6.735-8.885-9.754-15.844-11.311
		c0.573,0.993,1.162,1.89,1.631,2.847c3.014,6.156,5.943,12.355,9.059,18.46c0.497,0.975,1.739,2.103,2.726,2.193
		C441.463,347.771,444.573,347.591,448.144,347.591z M460.026,318.585c-2.135-2.33-3.723-3.929-5.152-5.657
		c-1.813-2.193-3.839-2.527-6.51-1.6c-7.277,2.53-14.63,4.852-22.314,7.375c4.718,1.418,8.781,4.387,13.953,3.441
		C446.436,320.968,452.879,319.853,460.026,318.585z M266.917,470.622c1.089-1.801,1.938-3.229,2.812-4.642
		c1.316-2.127,1.212-3.893-0.481-6.002c-4.766-5.938-9.252-12.1-13.854-18.168c-0.628-0.827-1.289-1.627-2.128-2.684
		c0,2.68,0.063,4.898-0.016,7.111c-0.11,3.106-0.152,6.076,1.966,8.771C259.102,459.95,262.771,465.063,266.917,470.622z
		 M354.401,444.688c0.079-12.2,1.068-23.938-7.749-33.486c-0.373,8.316-0.813,16.488-1.032,24.666
		c-0.038,1.416,0.443,3.344,1.418,4.185C349.058,441.794,351.57,442.965,354.401,444.688z M379.686,428.781
		c-0.655-3.08-1.244-5.414-1.627-7.779c-0.292-1.801-1.203-2.675-2.933-3.289c-4.862-1.724-9.655-3.645-14.444-5.568
		c-2.993-1.203-5.93-2.553-9.677-4.177c2.103,3.186,3.659,5.72,5.401,8.119c1.122,1.548,2.244,3.47,3.84,4.233
		C366.324,423.231,372.596,425.74,379.686,428.781z M433.128,201.852c6.385,2.998,12.822,5.892,19.14,9.024
		c5.355,2.657,6.031,2.667,10.515-1.369c0.811-0.729,1.794-1.265,2.872-2.01C455.716,201.403,440.638,196.814,433.128,201.852z
		 M253.431,57.562c4.501-5.106,8.632-9.83,12.804-14.517c5.371-6.033,5.387-6.021,1.701-13.063c-0.162-0.31-0.408-0.578-0.706-0.993
		c-0.504,0.441-0.973,0.754-1.319,1.168c-3.502,4.183-7.093,8.299-10.409,12.625c-1.067,1.392-1.801,3.306-1.981,5.054
		C253.202,50.901,253.431,54.021,253.431,57.562z M154.061,411.063c-8.667,9.794-7.356,21.079-6.657,32.44
		c7.173-2.665,8.78-4.61,8.384-10.147C155.263,426.024,154.656,418.698,154.061,411.063z M41.122,318.4
		c6.981,1.33,13.507,2.596,20.044,3.812c4.885,0.909,8.529-2.259,13.072-3.676c-7.872-2.617-15.304-4.953-22.614-7.621
		c-1.669-0.609-2.627-0.427-3.709,0.655C45.852,313.637,43.796,315.711,41.122,318.4z M247.619,57.818
		c0.172-1.495,0.614-2.997,0.456-4.431c-0.355-3.23-0.13-6.974-1.722-9.523c-3.295-5.277-7.62-9.911-11.705-15.042
		c-1.173,2.127-2.052,3.885-3.083,5.548c-1.209,1.952-1.033,3.389,0.597,5.223C237.417,45.502,242.415,51.641,247.619,57.818z
		 M149.713,408.032c-1.552,0.856-2.406,1.46-3.352,1.828c-6.643,2.579-13.313,5.089-19.951,7.675
		c-0.913,0.355-2.222,0.832-2.47,1.555c-1.012,2.938-1.682,5.996-2.645,9.642c4.792-2.023,8.706-3.869,12.755-5.341
		c5.654-2.053,10.44-4.917,12.779-10.861C147.39,411.104,148.497,409.894,149.713,408.032z M138.931,97.807
		c-0.23-7.843-0.445-16.029-0.743-24.213c-0.034-0.944-0.233-2.345-0.852-2.723c-2.32-1.42-4.847-2.502-7.504-3.814
		C129.16,78.977,129.757,89.895,138.931,97.807z M371.339,66.957c-2.198,1.114-4.014,2.319-6.012,2.965
		c-1.943,0.629-2.331,1.745-2.359,3.551c-0.087,5.553-0.349,11.103-0.486,16.655c-0.066,2.715-0.012,5.434-0.012,7.453
		C371.688,89.729,371.178,78.493,371.339,66.957z M122.98,85.392c-5.568-7.864-11.123-15.193-18.321-21.34
		c-0.397,4.435-0.413,8.736-0.39,13.038c0.011,2.058,0.652,3.332,3.051,3.885C112.403,82.144,117.377,83.78,122.98,85.392z
		 M237.018,475.652c3.58,4.334,7.046,8.531,10.512,12.729c0.199-0.133,0.398-0.266,0.597-0.397c0-9.201,0-18.4,0-27.913
		C244.29,465.451,240.669,470.529,237.018,475.652z M397.193,64.508c-0.394-0.18-0.785-0.359-1.178-0.54
		c-5.948,7.059-11.896,14.119-18.292,21.708c6.325-1.729,11.989-3.241,17.616-4.882c0.5-0.146,1.032-1.119,1.073-1.74
		C396.739,74.21,396.948,69.358,397.193,64.508z M253.248,488.729c3.881-4.57,7.328-8.585,10.684-12.675
		c0.224-0.272-0.101-1.211-0.416-1.673c-1.424-2.094-2.929-4.133-4.421-6.181c-1.729-2.376-3.475-4.737-5.213-7.105
		c-0.211,0.088-0.423,0.175-0.634,0.263C253.248,470.135,253.248,478.913,253.248,488.729z M56.579,326.457
		c-5.196-1.328-9.799-2.553-14.431-3.66c-1.337-0.319-2.874-1.261-3.917,0.735c-2.257,4.319-4.603,8.592-6.912,12.884
		c0.255,0.234,0.511,0.469,0.766,0.703C40.095,333.632,48.106,330.145,56.579,326.457z M444.364,326.402
		c8.748,3.671,16.698,7.008,24.648,10.344c0.193-0.27,0.387-0.539,0.582-0.809c-1.915-3.719-3.914-7.397-5.707-11.173
		c-1.006-2.112-2.474-2.475-4.524-1.968C454.648,323.962,449.919,325.071,444.364,326.402z M362.734,426.687
		c5.191,7.771,10.154,15.199,15.117,22.627c1.146-4.359,1.625-8.546,2.211-12.718c0.292-2.089-0.764-2.968-2.533-3.679
		C372.721,430.985,367.973,428.905,362.734,426.687z M248.193,12.417c-0.222-0.113-0.444-0.226-0.666-0.338
		c-2.976,3.615-5.993,7.198-8.88,10.883c-0.403,0.514-0.528,1.771-0.182,2.265c3.033,4.318,6.203,8.541,9.727,13.33
		C248.193,29.291,248.193,20.854,248.193,12.417z M445.064,332.021c-0.212,0.292-0.424,0.583-0.636,0.874
		c2.868,4.739,5.735,9.478,8.655,14.301c5.017-1.751,9.619-3.358,14.221-4.965c0.002-0.241,0.005-0.482,0.008-0.723
		C459.896,338.345,452.48,335.184,445.064,332.021z M264.315,24.22c-3.464-4.104-6.851-8.116-10.236-12.127
		c-0.181,0.129-0.36,0.259-0.54,0.388c0,8.098,0,16.196,0,24.76C257.287,32.712,260.723,28.562,264.315,24.22z M56.792,332.508
		c-0.108-0.206-0.215-0.413-0.323-0.62c-7.725,3.39-15.45,6.78-23.979,10.523c4.935,1.465,9.121,2.724,13.317,3.945
		c1.451,0.422,2.483,0.25,3.388-1.368C51.57,340.74,54.239,336.658,56.792,332.508z M123.067,449.038
		c0.248,0.008,0.495,0.015,0.742,0.021c4.543-7.268,9.087-14.536,14-22.396c-5.559,2.512-10.576,4.716-15.51,7.092
		c-0.601,0.29-1.136,1.555-1.051,2.292C121.747,440.39,122.44,444.711,123.067,449.038z M47.783,196.254
		c-8.072-2.146-16.026-4.26-24.7-6.566c2.648,4.002,4.994,7.384,7.153,10.881c1.181,1.91,2.39,2.018,4.345,1.13
		C38.725,199.818,42.992,198.209,47.783,196.254z M453.891,196.443c5.301,2.469,10.159,4.731,15.179,7.07
		c2.988-4.314,5.867-8.47,9.114-13.157C469.548,192.52,461.794,194.462,453.891,196.443z M128.441,451.266
		c0.164,0.168,0.328,0.336,0.491,0.504c4.012-1.503,8.005-3.058,12.044-4.483c1.548-0.546,1.875-1.486,1.786-2.995
		c-0.25-4.226-0.356-8.46-0.552-12.689c-0.018-0.382-0.269-0.754-0.679-1.83C136.952,437.291,132.697,444.278,128.441,451.266z
		 M477.119,185.974c-1.355-0.945-2.107-1.591-2.963-2.042c-2.73-1.439-5.533-2.748-8.243-4.224
		c-1.526-0.831-2.555-0.543-3.607,0.787c-1.283,1.618-2.741,3.098-4.127,4.634c-1.806,2.002-3.615,4-5.833,6.454
		C460.796,189.67,468.533,187.918,477.119,185.974z M375.354,80.618c5.892-6.928,11.22-13.194,16.547-19.461
		c-4.937,0.846-9.676,2.241-14.376,3.754c-0.567,0.183-1.288,0.977-1.332,1.535C375.845,70.916,375.643,75.396,375.354,80.618z
		 M372.42,452.044c0.261-0.271,0.521-0.542,0.78-0.813c-4.351-6.58-8.701-13.159-13.253-20.041
		c-0.356,0.764-0.561,1.001-0.567,1.243c-0.124,4.482-0.281,8.967-0.269,13.45c0.001,0.6,0.767,1.503,1.383,1.746
		C364.438,449.182,368.438,450.589,372.42,452.044z M47.724,191.062c0.132-0.231,0.264-0.462,0.396-0.694
		c-3.39-3.597-6.751-7.223-10.21-10.753c-0.388-0.396-1.479-0.563-1.981-0.312c-3.547,1.772-7.025,3.682-11.345,5.985
		C32.873,187.355,40.297,189.209,47.724,191.062z M110.768,61.177c-0.108,0.176-0.216,0.352-0.324,0.528
		c4.772,5.724,9.544,11.448,14.501,17.395c0-3.764-0.003-7.208,0.002-10.652c0.003-2.516-1.413-3.855-3.695-4.469
		C117.758,63.039,114.262,62.11,110.768,61.177z"/>
	<path fill-rule="evenodd" clip-rule="evenodd" d="M413.412,102.642c0.051-3.573,2.886-6.476,6.201-6.351
		c2.732,0.103,5.261,3.187,5.222,6.363c-0.038,2.942-2.51,5.405-5.424,5.403C416.193,108.056,413.369,105.507,413.412,102.642z"/>
	<path fill-rule="evenodd" clip-rule="evenodd" d="M48.54,145.621c0.037-3.973,2.058-6.106,5.808-5.989
		c3.658,0.114,4.986,2.104,5.438,6.525c0.276,2.693-3.013,5.157-6.288,5.073C50.521,151.154,48.509,148.877,48.54,145.621z"/>
	<path fill-rule="evenodd" clip-rule="evenodd" d="M447.093,151.222c-2.947,0.034-5.467-2.48-5.561-5.547
		c-0.109-3.607,2.477-6.262,6.092-6.254c2.594,0.005,5.197,3.05,5.297,6.195C453.014,148.551,450.273,151.187,447.093,151.222z"/>
	<path fill-rule="evenodd" clip-rule="evenodd" d="M87.135,102.179c-0.002,3.458-2.25,5.929-5.355,5.886
		c-3.006-0.042-5.474-2.7-5.503-5.929c-0.032-3.519,2.166-5.956,5.355-5.942C84.993,96.21,87.137,98.542,87.135,102.179z"/>
	<path fill-rule="evenodd" clip-rule="evenodd" d="M409.008,411.185c0.005,3.374-2.439,6.201-5.27,6.097
		c-3.234-0.12-5.593-2.396-5.597-5.4c-0.005-3.77,2.286-6.377,5.596-6.366C406.716,405.522,409.004,407.983,409.008,411.185z"/>
	<path fill-rule="evenodd" clip-rule="evenodd" d="M435.093,381.659c-3.484-0.013-5.726-2.169-5.73-5.513
		c-0.004-2.997,2.711-5.646,5.813-5.674c2.942-0.027,5.543,2.768,5.543,5.956C440.718,379.546,438.431,381.673,435.093,381.659z"/>
	<path fill-rule="evenodd" clip-rule="evenodd" d="M71.25,375.82c0.019,3.09-2.616,5.846-5.593,5.852
		c-2.83,0.005-5.71-2.747-5.769-5.513c-0.07-3.254,2.55-5.87,5.87-5.859C68.904,370.31,71.23,372.648,71.25,375.82z"/>
	<path fill-rule="evenodd" clip-rule="evenodd" d="M300.327,27.535c3.345,0.063,5.597,2.245,5.599,5.423
		c0.002,3.216-2.666,5.957-5.668,5.823c-3.43-0.153-5.505-2.393-5.453-5.886C294.854,29.562,297.007,27.472,300.327,27.535z"/>
	<path fill-rule="evenodd" clip-rule="evenodd" d="M352.764,48.217c0.039,3.843-1.533,5.378-5.508,5.377
		c-3.127-0.001-5.335-2.044-5.338-4.938c-0.002-3.357,2.838-6.444,5.883-6.393C350.832,42.314,352.726,44.586,352.764,48.217z"/>
	<path fill-rule="evenodd" clip-rule="evenodd" d="M207.389,33.41c-0.078,2.908-2.834,5.514-5.728,5.413
		c-3.32-0.116-5.426-2.311-5.351-5.576c0.078-3.366,2.492-5.814,5.636-5.716C205.04,27.627,207.473,30.255,207.389,33.41z"/>
	<path fill-rule="evenodd" clip-rule="evenodd" d="M155.119,53.605c-3.214,0.012-6.052-2.548-6.075-5.481
		c-0.024-3.073,2.94-5.869,6.133-5.783c2.447,0.066,5.135,3.43,5.044,6.314C160.133,51.452,157.923,53.595,155.119,53.605z"/>
	<path fill-rule="evenodd" clip-rule="evenodd" d="M97.265,416.912c-2.834-0.003-4.971-2.397-4.999-5.602
		c-0.027-3.139,2.445-5.386,5.901-5.361c3.107,0.021,4.889,2.062,4.86,5.565C102.999,414.884,100.832,416.914,97.265,416.912z"/>
	<path fill-rule="evenodd" clip-rule="evenodd" d="M33.734,292.559c-3.545-0.023-5.684-2.192-5.542-5.618
		c0.105-2.553,2.731-4.696,5.781-4.721c3.63-0.029,5.462,1.733,5.475,5.268C39.46,290.754,37.398,292.584,33.734,292.559z"/>
	<path fill-rule="evenodd" clip-rule="evenodd" d="M473.09,287.221c-0.034,3.13-2.507,5.425-5.732,5.32
		c-2.897-0.094-5.152-2.566-5.146-5.648c0.006-3.113,2.342-5.45,5.334-5.333C470.527,281.676,473.121,284.325,473.09,287.221z"/>
	<path fill-rule="evenodd" clip-rule="evenodd" d="M471.892,233.511c3.315,0.043,5.691,2.31,5.619,5.361
		c-0.077,3.275-2.023,5.06-5.47,5.016c-3.304-0.041-5.778-2.333-5.738-5.316C466.345,235.518,468.607,233.469,471.892,233.511z"/>
	<path fill-rule="evenodd" clip-rule="evenodd" d="M168.834,459.348c-0.031-3.116,2.344-5.56,5.455-5.611
		c2.758-0.047,5.324,2.355,5.397,5.055c0.085,3.146-2.309,5.691-5.351,5.688C171.153,464.476,168.865,462.341,168.834,459.348z"/>
	<path fill-rule="evenodd" clip-rule="evenodd" d="M29.842,243.765c-3.954-0.085-5.834-1.709-5.726-4.949
		c0.107-3.248,2.397-5.416,5.62-5.322c3.274,0.094,5.467,2.593,5.418,6.177C35.121,242.168,32.963,243.831,29.842,243.765z"/>
	<path fill-rule="evenodd" clip-rule="evenodd" d="M321.503,459.285c0.062-3.114,2.423-5.611,5.242-5.541
		c2.812,0.07,5.246,2.739,5.143,5.638c-0.111,3.06-2.458,5.181-5.606,5.064C323.447,464.342,321.446,462.182,321.503,459.285z"/>
	<path fill-rule="evenodd" clip-rule="evenodd" d="M389.656,249.967c0.071,80.077-66.165,140.967-142.415,139.229
		c-73.901-1.685-136.189-62.013-135.705-138.767c0.471-74.502,60.139-138.407,137.953-138.821
		C329.56,111.182,389.27,176.554,389.656,249.967z M251.24,160.116c-45.912-0.437-87.819,35.033-90.74,85.268
		c-3.137,53.946,36.242,94.292,87.335,96.216c46.333,1.745,89.766-32.947,93.031-85.165
		C344.126,204.276,302.91,160.484,251.24,160.116z M132.437,313.619c1.566-14.907,8.734-26.051,20.784-34.697
		c-7.567-0.778-14.191-2.623-20.424-5.978c-6.263-3.371-11.106-8.356-16.029-13.777
		C116.905,274.938,125.544,305.204,132.437,313.619z M369.074,312.83c9.392-16.489,14.2-34.07,14.813-52.89
		c-9.401,10.956-20.908,17.701-35.392,19.03C359.607,287.793,367.431,298.355,369.074,312.83z M366.22,183.667
		c-1.571,13.94-8.475,24.682-19.661,33.704c16.075,0.797,28.177,7.664,37.549,20.364
		C381.925,218.141,376.076,200.282,366.22,183.667z M135.011,183.534c-9.666,16.531-15.832,34.111-17.711,53.229
		c9.273-12.008,21.432-18.34,36.855-19.262C143.259,208.422,136.22,197.679,135.011,183.534z M258.603,383.786
		c19.54-0.925,37.452-6.221,55.158-15.01c-7.908-0.08-14.454-2.153-20.497-5.859c-6.005-3.682-11.226-8.266-15.658-14.555
		C276.416,363.332,269.894,374.716,258.603,383.786z M223.327,348.573c-8.969,11.78-20.28,18.489-34.696,20.877
		c17.094,8.373,34.584,13.433,54.131,14.129C230.46,374.886,224.847,363.169,223.327,348.573z M118.444,245.907
		c12.296,0,24.52,0,36.543,0c1.372-7.797,2.726-15.481,4.072-23.134C141.674,220.92,124.439,231.014,118.444,245.907z
		 M382.944,245.877c-4.376-10.768-19.095-25.2-40.71-23.105c1.355,7.642,2.711,15.29,4.096,23.105
		C358.435,245.877,370.679,245.877,382.944,245.877z M256.516,117.361c11.921,7.483,16.761,19.085,19.32,32.56
		c9.031-11.956,21.077-17.319,35.938-18.839C293.808,122.33,275.716,117.791,256.516,117.361z M244.302,116.788
		c-19.001,0.965-36.911,5.685-53.82,14.246c14.338,1.455,25.933,7.745,35.021,19.521
		C226.791,136.009,233.592,125.336,244.302,116.788z M139.817,325.945c9.786,14.109,21.307,25.667,35.446,35.457
		c-4.974-14.245-3.627-27.499,3.143-40.029c-6.236,1.92-12.299,4.181-18.551,5.604C153.397,328.447,146.804,328.021,139.817,325.945
		z M326.753,360.657c13.59-9.569,24.945-20.969,34.646-34.448c-6.895,1.335-13.588,2.44-20.177,0.843
		c-6.345-1.539-12.498-3.869-18.575-5.801C331.438,338.829,329.112,349.209,326.753,360.657z M343.771,273.703
		c14.736,1.582,32.194-7.877,39.387-22.739c-12.294,0-24.623,0-36.879,0C345.456,258.411,344.627,265.938,343.771,273.703z
		 M154.923,251.23c-12.098,0-24.314,0-36.752,0c8.628,16.124,25.966,24.107,39.146,22.418
		C156.525,266.232,155.733,258.816,154.923,251.23z M358.078,170.925c-11.019-14.106-24.82-27.132-32.686-30.413
		c4.994,12.824,2.187,24.701-3.935,36.281C333.063,171.238,344.782,168.245,358.078,170.925z M143.396,171.226
		c12.946-3.157,24.707,0.061,36.479,6.477c-7.622-12.05-8.746-24.28-5.041-37.169C166.833,144.388,149.706,161.088,143.396,171.226z
		 M181.718,138.567c-6.836,11.759-4.58,30.095,5.41,40.678c5.148-3.831,10.267-7.639,15.491-11.527
		C195.804,158.214,188.854,148.52,181.718,138.567z M276.137,158.404c6.24,2.392,12.302,4.716,17.997,6.899
		c6.623-9.545,13.173-18.985,19.815-28.557C299.906,135.82,284.802,142.732,276.137,158.404z M224.371,158.657
		c-3.707-6.883-8.701-12.928-15.834-16.822c-6.971-3.805-14.354-6.162-22.402-5.248c7.094,9.749,14.088,19.361,20.907,28.732
		C213.013,163.024,218.679,160.845,224.371,158.657z M298.407,167.582c5.391,3.921,10.444,7.599,15.382,11.189
		c8.332-12.297,13.073-25.04,5.812-39.313c-0.387-0.154-0.773-0.309-1.161-0.462C311.819,148.444,305.197,157.893,298.407,167.582z
		 M253.016,346.992c0,11.395,0,22.918,0,34.493c14.324-8.225,20.679-25.727,19.526-37.229
		C266.081,345.161,259.611,346.068,253.016,346.992z M184.897,321.021c-8.32,9.727-10.282,33.648-3.256,41.007
		c6.179-9.89,12.327-19.73,18.365-29.395C194.803,328.636,189.845,324.824,184.897,321.021z M301.825,332.112
		c2.919,5.023,5.864,10.155,8.872,15.249c2.97,5.029,6.006,10.022,9.068,15.124c6.811-9.979,5.074-31.561-3.618-41.398
		C311.461,324.694,306.778,328.299,301.825,332.112z M314.737,363.733c-5.729-9.729-11.477-19.491-17.174-29.164
		c-5.932,2.521-11.677,4.961-17.417,7.399C285.212,354.456,303.135,365.626,314.737,363.733z M228.645,344.605
		c-1.597,13.16,8.482,32.369,18.945,36.263c0-11.402,0-22.86,0-33.964C241.146,346.122,234.998,345.376,228.645,344.605z
		 M363.674,317.378c1.072-15.263-8.181-28.41-21.96-36.686c-2.194,5.215-4.395,10.44-6.562,15.588
		C344.512,303.204,353.938,310.176,363.674,317.378z M186.08,363.918c16.296-0.277,27.037-9.171,35.453-21.89
		c-5.848-2.356-11.46-4.615-17.281-6.959C198.229,344.629,192.186,354.225,186.08,363.918z M248.094,121.193
		c-11.602,4.605-20.756,26.936-16.992,35.506c5.637-0.603,11.221-1.2,16.992-1.817C248.094,143.738,248.094,132.56,248.094,121.193z
		 M137.26,317.349c9.78-7.284,19.137-14.25,28.585-21.286c-2.042-4.968-4.135-10.057-6.25-15.203
		C145.849,288.903,137.496,300.263,137.26,317.349z M168.931,200.907c-4.741-3.381-9.436-6.859-14.266-10.139
		c-4.734-3.215-9.604-6.229-14.695-9.511c0.745,17.102,12.293,31.207,21.699,34.567C164.092,210.847,166.51,205.881,168.931,200.907
		z M360.583,180.962c-9.337,6.757-18.674,13.514-28.008,20.268c2.603,5.108,5.13,10.07,7.652,15.023
		C352.341,207.636,360.418,196.77,360.583,180.962z M253.438,155.023c5.863,0.652,11.384,1.268,17.006,1.893
		c0.778-14.892-4.394-26.684-17.006-35.589C253.438,132.874,253.438,143.853,253.438,155.023z M330.015,197.043
		c9.582-6.845,19.226-13.735,28.813-20.583c-14.41-3.591-27.43-0.598-39.398,7.875C322.978,188.595,326.346,192.638,330.015,197.043
		z M140.401,321.158c14.191,3.172,26.547,0.7,38.111-6.196c-3.473-4.899-6.857-9.674-10.426-14.71
		C159.078,307.056,150.028,313.888,140.401,321.158z M181.429,184.513c-10.857-8.583-28.739-12.135-39.215-7.824
		c9.832,6.73,19.637,13.441,29.407,20.129C174.999,192.58,178.15,188.626,181.429,184.513z M360.099,320.532
		c-9.479-6.862-18.533-13.414-27.642-20.007c-3.466,4.982-6.494,9.338-9.507,13.669
		C332.285,322.073,350.145,324.756,360.099,320.532z"/>
	<path fill-rule="evenodd" clip-rule="evenodd" d="M100.537,224.447c-2.885,0.003-5.549-2.858-5.501-5.908
		c0.055-3.374,2.728-5.985,6.142-6.001c3.46-0.016,5.929,2.349,5.985,5.733C107.217,221.597,104.164,224.443,100.537,224.447z"/>
	<path fill-rule="evenodd" clip-rule="evenodd" d="M91.708,241.865c-0.014-3.859,2.139-6.143,5.76-6.107
		c3.112,0.03,6.037,2.851,6.111,5.894c0.079,3.23-2.544,5.977-5.777,6.047C94.078,247.78,91.721,245.524,91.708,241.865z"/>
	<path fill-rule="evenodd" clip-rule="evenodd" d="M406.067,219.011c-0.125,3.147-3.071,5.935-6.101,5.775
		c-3.179-0.168-5.916-3.411-5.777-6.847c0.132-3.264,2.857-5.554,6.315-5.307C403.553,212.851,406.192,215.878,406.067,219.011z"/>
	<path fill-rule="evenodd" clip-rule="evenodd" d="M144.11,146.102c-3.083,0.045-5.328-2.152-5.374-5.257
		c-0.054-3.617,2.635-6.386,6.321-6.51c2.964-0.1,5.338,2.63,5.433,6.318C150.582,144.25,148.563,145.649,144.11,146.102z"/>
	<path fill-rule="evenodd" clip-rule="evenodd" d="M393.688,190.331c3.524,0.056,6.354,2.859,6.233,6.178
		c-0.097,2.697-3.356,5.734-6.024,5.61c-3.417-0.157-5.946-2.654-5.933-5.857C387.979,192.818,390.43,190.279,393.688,190.331z"/>
	<path fill-rule="evenodd" clip-rule="evenodd" d="M250.313,103.565c-3.086,0.003-5.822-2.453-5.784-5.191
		c0.044-3.108,3.034-6.098,6.16-6.16c3.203-0.063,6.158,2.834,6.124,6.002C256.776,101.576,254.365,103.561,250.313,103.565z"/>
	<path fill-rule="evenodd" clip-rule="evenodd" d="M398.168,241.684c-0.007-3.626,2.268-5.96,5.745-5.896
		c3.106,0.058,5.62,3.044,5.562,6.604c-0.049,2.943-2.576,5.261-5.77,5.292C400.264,247.719,398.175,245.456,398.168,241.684z"/>
	<path fill-rule="evenodd" clip-rule="evenodd" d="M102.153,281.725c3.09-0.03,5.942,2.993,5.945,6.303
		c0.003,2.815-2.659,5.221-5.84,5.278c-3.677,0.066-6.076-2.26-6.041-5.856C96.25,284.031,98.605,281.761,102.153,281.725z"/>
	<path fill-rule="evenodd" clip-rule="evenodd" d="M111.409,174.401c0.199-2.953,2.976-5.476,5.829-5.296
		c3.555,0.224,5.844,3.012,5.526,6.73c-0.259,3.031-2.954,5.543-5.779,5.387C113.794,181.046,111.177,177.845,111.409,174.401z"/>
	<path fill-rule="evenodd" clip-rule="evenodd" d="M209.676,105.215c-0.006,3.145-2.757,5.64-6.191,5.614
		c-2.928-0.022-5.723-2.97-5.653-5.963c0.072-3.077,2.778-5.767,5.835-5.802C206.937,99.027,209.682,101.837,209.676,105.215z"/>
	<path fill-rule="evenodd" clip-rule="evenodd" d="M91.938,264.86c-0.077-3.105,2.416-5.713,5.548-5.802
		c3.087-0.088,6.612,3.077,6.658,5.95c0.043,2.788-3.988,5.384-6.201,5.529C94.706,270.751,92.021,268.164,91.938,264.86z"/>
	<path fill-rule="evenodd" clip-rule="evenodd" d="M398.776,293.163c-3.312,0.01-5.659-2.491-5.646-6.014
		c0.012-3.187,2.307-5.416,5.6-5.442c3.536-0.027,6.312,2.895,6.221,6.551C404.884,290.938,402.096,293.154,398.776,293.163z"/>
	<path fill-rule="evenodd" clip-rule="evenodd" d="M107.647,190.328c3.385-0.013,5.643,2.391,5.599,5.962
		c-0.036,2.999-2.766,5.917-5.588,5.974c-3.091,0.062-5.816-2.803-5.754-6.047C101.972,192.719,104.292,190.341,107.647,190.328z"/>
	<path fill-rule="evenodd" clip-rule="evenodd" d="M356.161,146.054c-3.362-0.121-5.786-2.568-5.645-5.696
		c0.168-3.654,2.536-5.751,6.326-5.604c3.109,0.122,5.718,3.182,5.599,6.573C362.346,144.061,359.538,146.175,356.161,146.054z"/>
	<path fill-rule="evenodd" clip-rule="evenodd" d="M391.491,303.764c3.211-0.028,6.002,2.646,6.093,5.838
		c0.079,2.787-2.723,5.611-5.571,5.621c-3.55,0.011-6.135-2.423-6.226-5.86C385.706,306.286,388.247,303.793,391.491,303.764z"/>
	<path fill-rule="evenodd" clip-rule="evenodd" d="M109.127,303.883c3.622,0.08,5.89,2.344,5.831,5.822
		c-0.05,3.099-2.919,5.728-6.189,5.674c-3.361-0.057-5.236-2.111-5.132-5.624C103.756,305.744,105.57,303.804,109.127,303.883z"/>
	<path fill-rule="evenodd" clip-rule="evenodd" d="M384.183,169.375c3.144-0.036,5.71,2.613,5.794,5.982
		c0.064,2.63-2.9,5.6-5.633,5.641c-3.236,0.049-5.92-2.685-6.032-6.146C378.219,172.021,381.017,169.412,384.183,169.375z"/>
	<path fill-rule="evenodd" clip-rule="evenodd" d="M335.796,383.417c-3.296-0.022-6.301-2.778-6.208-5.693
		c0.101-3.149,2.967-5.745,6.25-5.661c3.153,0.081,5.367,2.24,5.411,5.277C341.303,381.181,339.275,383.441,335.796,383.417z"/>
	<path fill-rule="evenodd" clip-rule="evenodd" d="M181.71,107.545c2.875-0.016,5.82,2.87,5.891,5.776
		c0.077,3.162-2.351,6.052-5.294,5.681c-4.131-0.521-6.17-1.226-6.264-4.589C175.947,110.961,178.809,107.562,181.71,107.545z"/>
	<path fill-rule="evenodd" clip-rule="evenodd" d="M403.674,270.442c-3.103-0.016-5.896-2.693-5.856-5.608
		c0.045-3.229,2.805-5.848,6.09-5.776c2.88,0.062,5.594,3.1,5.622,6.297C409.556,268.244,407.006,270.46,403.674,270.442z"/>
	<path fill-rule="evenodd" clip-rule="evenodd" d="M113.754,330.144c0.099-3.771,2.288-5.304,5.989-5.698
		c2.378-0.252,5.357,2.828,5.407,5.246c0.066,3.228-2.584,6.487-5.322,6.546C116.663,336.306,113.74,333.373,113.754,330.144z"/>
	<path fill-rule="evenodd" clip-rule="evenodd" d="M168.28,125.687c0.033,2.888-2.541,5.606-5.25,5.542
		c-4.018-0.094-6.514-2.341-6.535-5.884c-0.014-2.524,2.847-5.178,5.675-5.263C165.42,119.985,168.245,122.576,168.28,125.687z"/>
	<path fill-rule="evenodd" clip-rule="evenodd" d="M303.313,105.116c-0.099,2.574-3.281,5.777-5.706,5.742
		c-3.194-0.047-6.182-3.168-6.014-6.284c0.188-3.505,2.521-5.241,6.645-5.125C301.57,99.542,302.938,101.98,303.313,105.116z"/>
	<path fill-rule="evenodd" clip-rule="evenodd" d="M354.079,357.814c3.215,0.105,5.503,2.42,5.467,5.528
		c-0.035,3.106-2.808,5.663-6.123,5.647c-3.293-0.017-5.626-2.481-5.488-5.802C348.077,359.75,350.426,357.694,354.079,357.814z"/>
	<path fill-rule="evenodd" clip-rule="evenodd" d="M301.751,396.393c0.038,3.098-2.578,5.456-6.167,5.555
		c-2.596,0.072-5.19-2.507-5.253-5.228c-0.086-3.58,2.329-6.131,5.839-6.168C299.241,390.521,301.71,393.104,301.751,396.393z"/>
	<path fill-rule="evenodd" clip-rule="evenodd" d="M184.551,382.741c3.38,0.014,6.133,2.736,6.092,6.023
		c-0.039,3.018-2.549,5.311-5.734,5.239c-3.501-0.077-5.836-2.265-5.818-5.451C179.11,385.115,181.353,382.729,184.551,382.741z"/>
	<path fill-rule="evenodd" clip-rule="evenodd" d="M274.625,105.224c-3.557-0.056-5.865-2.171-5.867-5.371
		c-0.001-3.026,2.527-5.705,5.419-5.745c3.673-0.05,5.993,2.405,5.922,6.266C280.04,103.66,278.21,105.282,274.625,105.224z"/>
	<path fill-rule="evenodd" clip-rule="evenodd" d="M138.177,347.439c0.029,3.64-2.429,5.898-6.368,5.853
		c-2.787-0.031-5.164-2.574-5.026-5.629c0.179-3.937,2.161-5.232,5.992-5.634C135.366,341.758,138.156,344.755,138.177,347.439z"/>
	<path fill-rule="evenodd" clip-rule="evenodd" d="M142.162,363.688c-0.003-3.369,2.321-5.782,5.6-5.812
		c2.949-0.027,5.831,2.946,5.9,6.086c0.06,2.765-2.399,4.992-5.618,5.09C144.521,369.159,142.165,367.011,142.162,363.688z"/>
	<path fill-rule="evenodd" clip-rule="evenodd" d="M316.072,394.033c-2.427,0.038-4.88-2.579-4.911-5.24
		c-0.039-3.344,2.471-5.953,5.758-5.987c3.049-0.032,5.736,2.644,5.734,5.71C322.651,391.563,319.772,393.976,316.072,394.033z"/>
	<path fill-rule="evenodd" clip-rule="evenodd" d="M226.875,105.318c-3.09-0.015-5.289-2.389-5.223-5.641
		c0.065-3.218,2.53-5.288,6.293-5.285c2.892,0.001,5.055,2.229,5.042,5.193C232.972,103.177,230.669,105.336,226.875,105.318z"/>
	<path fill-rule="evenodd" clip-rule="evenodd" d="M381.24,324.342c3.055-0.078,6.016,2.729,6.109,5.792
		c0.087,2.861-2.292,5.414-5.172,5.55c-2.96,0.142-6.069-2.532-6.176-5.309C375.872,326.97,378.082,324.423,381.24,324.342z"/>
	<path fill-rule="evenodd" clip-rule="evenodd" d="M165.96,372.509c3.647,0.018,5.444,1.682,5.359,4.968
		c-0.085,3.359-2.484,5.908-5.529,5.875c-3.588-0.04-6.113-2.277-6-5.315C159.917,374.65,162.327,372.493,165.96,372.509z"/>
	<path fill-rule="evenodd" clip-rule="evenodd" d="M339.2,120.553c3.679,0.034,6.131,2.142,6.143,5.281
		c0.013,3.256-2.648,5.622-6.203,5.516c-3.302-0.099-5.389-2.282-5.36-5.609C333.807,122.594,335.97,120.524,339.2,120.553z"/>
	<path fill-rule="evenodd" clip-rule="evenodd" d="M205.572,391.075c3.056,0.038,5.795,2.8,5.805,5.852
		c0.008,2.315-3,5.087-5.546,5.11c-3.266,0.03-6.358-2.919-6.275-5.986C199.63,393.307,202.378,391.034,205.572,391.075z"/>
	<path fill-rule="evenodd" clip-rule="evenodd" d="M279.057,401.735c-0.018,3.145-2.216,5.769-4.875,5.824
		c-3.217,0.066-6.02-2.658-5.985-5.82c0.036-3.273,2.39-5.676,5.628-5.739C276.846,395.94,279.076,398.385,279.057,401.735z"/>
	<path fill-rule="evenodd" clip-rule="evenodd" d="M319.856,118.92c-3.732,0.051-6.278-2.131-6.238-5.349
		c0.034-2.739,3.125-5.459,6.188-5.443c2.92,0.015,5.403,2.818,5.41,6.108C325.222,116.978,323.049,118.876,319.856,118.92z"/>
	<path fill-rule="evenodd" clip-rule="evenodd" d="M368.364,353.229c-3.603-0.167-5.568-2.252-5.411-5.741
		c0.135-3.005,2.631-5.136,5.882-5.022c3.399,0.119,5.259,2.124,5.106,5.505C373.772,351.696,371.971,353.395,368.364,353.229z"/>
	<path fill-rule="evenodd" clip-rule="evenodd" d="M227.969,406.671c-3.351-0.052-5.75-2.085-5.753-4.873
		c-0.005-3.747,2.318-6.067,5.955-5.949c2.994,0.097,5.485,2.938,5.358,6.109C233.414,404.805,231.156,406.719,227.969,406.671z"/>
	<path fill-rule="evenodd" clip-rule="evenodd" d="M250.765,397.515c3.241-0.003,5.698,2.287,5.653,5.27
		c-0.044,2.98-2.615,5.663-5.478,5.719c-2.781,0.052-5.839-2.663-5.919-5.258C244.915,399.771,247.174,397.518,250.765,397.515z"/>
	<path fill-rule="evenodd" clip-rule="evenodd" d="M135.667,156.466c-0.202,3.087-2.661,5.541-5.393,5.382
		c-3.073-0.177-5.91-3.141-5.659-5.908c0.28-3.076,3.162-5.539,6.173-5.274C133.724,150.924,135.863,153.469,135.667,156.466z"/>
	<path fill-rule="evenodd" clip-rule="evenodd" d="M370.811,161.462c-3.313-0.011-5.023-1.808-5.034-5.292
		c-0.012-3.399,1.826-5.436,4.954-5.49c3.496-0.06,5.86,2.388,5.828,6.036C376.534,159.602,374.268,161.474,370.811,161.462z"/>
	<path fill-rule="evenodd" clip-rule="evenodd" d="M250.973,331.774c-44.264,0.245-79.43-35.151-80.48-78.814
		c-1.105-45.954,36.293-82.712,79.224-82.988c45.463-0.292,79.537,35.755,81.08,78.185
		C332.5,295.023,294.898,332.402,250.973,331.774z M175.593,250.543c0.116,43.132,32.072,75.487,73.729,76.312
		c44.762,0.884,76.188-34.003,76.523-75.904c0.325-40.625-31.664-74.145-71.451-75.924
		C210.794,173.077,175.536,208.715,175.593,250.543z"/>
	<path fill-rule="evenodd" clip-rule="evenodd" d="M201.781,250.818c-0.454-26.897,22.248-50.025,49.779-49.564
		c26.402,0.442,47.718,22.466,47.791,50.351c0.066,26.104-22.38,48.963-47.782,48.863
		C222.928,300.356,201.748,277.082,201.781,250.818z M294.295,251.353c0.001-24.971-19.419-44.808-42.656-45.101
		c-24.89-0.314-43.875,19.219-44.767,42.381c-1.048,27.244,20.293,46.375,44.156,46.874
		C274.208,295.991,295.179,273.902,294.295,251.353z"/>
	<path fill-rule="evenodd" clip-rule="evenodd" d="M312.892,251.264c-2.789-0.041-5-2.318-4.97-5.118
		c0.025-2.339,2.578-4.676,5.1-4.671c2.883,0.007,5.158,2.562,5.021,5.64C317.935,249.537,315.736,251.308,312.892,251.264z"/>
	<path fill-rule="evenodd" clip-rule="evenodd" d="M246.632,312.669c0.033,2.928-1.724,4.779-4.597,4.848
		c-3.118,0.074-5.085-1.863-5.089-5.011c-0.003-2.812,1.725-4.613,4.455-4.646C244.686,307.824,246.599,309.581,246.632,312.669z"/>
	<path fill-rule="evenodd" clip-rule="evenodd" d="M303.37,227.597c0.034-3.041,2.126-5.196,5.05-5.207
		c2.619-0.009,4.674,2.313,4.684,5.292c0.01,2.522-2.066,4.582-4.666,4.63C305.368,232.369,303.337,230.479,303.37,227.597z"/>
	<path fill-rule="evenodd" clip-rule="evenodd" d="M299.073,206.279c2.73,0.04,4.789,2.382,4.808,5.469
		c0.012,2.196-2.329,4.483-4.588,4.483c-2.761-0.001-5.41-2.477-5.443-5.085C293.818,208.664,296.421,206.239,299.073,206.279z"/>
	<path fill-rule="evenodd" clip-rule="evenodd" d="M285.564,203.446c-3.157-0.051-5.141-2.06-5.037-5.103
		c0.088-2.609,2.131-4.562,4.76-4.548c2.718,0.015,5.123,2.564,5.029,5.33C290.227,201.867,288.439,203.491,285.564,203.446z"/>
	<path fill-rule="evenodd" clip-rule="evenodd" d="M183.487,245.519c0.025-2.831,1.915-4.627,4.843-4.603
		c2.804,0.021,4.935,2.071,4.879,4.691c-0.06,2.9-2.019,5.001-4.598,4.937C185.373,250.461,183.46,248.586,183.487,245.519z"/>
	<path fill-rule="evenodd" clip-rule="evenodd" d="M189.686,260.029c3.146-0.062,5.229,1.891,5.292,4.962
		c0.055,2.649-1.907,4.775-4.439,4.812c-2.503,0.035-5.133-2.251-5.229-4.546C185.172,261.996,186.77,260.088,189.686,260.029z"/>
	<path fill-rule="evenodd" clip-rule="evenodd" d="M277.703,312.409c-3.248-0.031-5.379-2.206-5.24-5.352
		c0.096-2.217,2.324-4.229,4.582-4.141c2.982,0.118,5.316,2.033,5.326,4.373C282.387,310.454,280.577,312.437,277.703,312.409z"/>
	<path fill-rule="evenodd" clip-rule="evenodd" d="M201.746,282.772c0.007,2.327-2.393,4.581-4.817,4.524
		c-2.792-0.064-5.015-1.927-5.084-4.26c-0.091-3.098,1.762-5.249,4.552-5.282C199.273,277.721,201.736,280.03,201.746,282.772z"/>
	<path fill-rule="evenodd" clip-rule="evenodd" d="M228.457,307.548c0.061,2.706-2.013,4.815-4.739,4.818
		c-2.517,0.002-4.707-2.11-4.768-4.598c-0.065-2.656,2.305-5.347,4.7-5.341C226.407,302.435,228.388,304.546,228.457,307.548z"/>
	<path fill-rule="evenodd" clip-rule="evenodd" d="M192.237,231.818c-2.835-0.071-4.724-1.898-4.653-4.502
		c0.079-2.934,2.196-5.156,4.885-5.127c2.659,0.029,4.895,2.437,4.793,5.163C197.159,230.146,195.194,231.892,192.237,231.818z"/>
	<path fill-rule="evenodd" clip-rule="evenodd" d="M304.505,287.509c-3.101-0.002-5.111-2.004-5.125-5.103
		c-0.01-2.016,2.519-4.519,4.59-4.545c3.104-0.038,5.097,1.962,5.087,5.104C309.047,285.854,307.385,287.511,304.505,287.509z"/>
	<path fill-rule="evenodd" clip-rule="evenodd" d="M259.479,317.521c-3.448-0.07-5.065-1.707-4.951-5.015
		c0.102-2.942,1.868-4.298,5.424-4.157c2.476,0.097,4.275,2.185,4.268,4.946C264.21,315.92,262.35,317.578,259.479,317.521z"/>
	<path fill-rule="evenodd" clip-rule="evenodd" d="M207.477,210.764c-0.088,2.634-2.381,5.083-4.747,5.067
		c-2.92-0.018-5.08-2.375-4.923-5.37c0.135-2.569,2.195-4.345,4.967-4.281C205.435,206.24,207.56,208.312,207.477,210.764z"/>
	<path fill-rule="evenodd" clip-rule="evenodd" d="M311.088,270.002c-2.972-0.146-4.759-2.16-4.622-5.21
		c0.114-2.574,2.528-4.604,5.229-4.403c2.489,0.186,4.303,2.526,4.206,5.428C315.808,268.627,314.057,270.15,311.088,270.002z"/>
	<path fill-rule="evenodd" clip-rule="evenodd" d="M215.856,194.354c2.955,0.033,5.172,2.032,5.219,4.706
		c0.046,2.617-2.473,4.814-5.543,4.833c-2.146,0.013-4.147-2.496-4.099-5.138C211.48,196.223,213.386,194.326,215.856,194.354z"/>
	<path fill-rule="evenodd" clip-rule="evenodd" d="M208.361,301.631c-3.249,0.006-4.938-1.52-4.878-4.407
		c0.06-2.943,1.968-4.979,4.606-4.915c3.185,0.076,5.076,1.829,5.095,4.722C213.202,299.872,211.364,301.626,208.361,301.631z"/>
	<path fill-rule="evenodd" clip-rule="evenodd" d="M268.621,186.422c2.683,0.111,4.808,2.394,4.63,4.967
		c-0.179,2.57-2.471,4.567-5.17,4.502c-2.817-0.068-4.623-1.944-4.469-4.648C263.784,188.202,265.758,186.304,268.621,186.422z"/>
	<path fill-rule="evenodd" clip-rule="evenodd" d="M292.552,292.534c2.741,0.008,4.725,1.845,4.761,4.411
		c0.045,3.066-1.911,5.253-4.663,5.216c-2.819-0.04-4.817-2.213-4.752-5.171C287.956,294.371,289.882,292.525,292.552,292.534z"/>
	<path fill-rule="evenodd" clip-rule="evenodd" d="M250.237,183.566c2.792,0.005,5.432,2.287,5.401,4.667
		c-0.029,2.308-2.662,4.762-5.077,4.734c-2.408-0.028-4.517-2.305-4.5-4.856C246.081,185.339,247.713,183.562,250.237,183.566z"/>
	<path fill-rule="evenodd" clip-rule="evenodd" d="M232.917,195.019c-2.995-0.155-4.892-1.868-4.843-4.37
		c0.051-2.658,2.33-4.939,4.854-4.861c2.927,0.092,4.766,2.172,4.594,5.198C237.401,193.087,235.068,195.132,232.917,195.019z"/>
	<path fill-rule="evenodd" clip-rule="evenodd" d="M251.759,272.344c-10.985,0.479-21.075-6.547-22.351-19.86
		c-1.111-11.599,8.056-20.791,17.797-22.34c14.336-2.28,23.719,7.624,24.776,19.655
		C272.912,260.424,263.411,272.163,251.759,272.344z M267.096,250.955c0.471-7.492-6.614-16.416-15.833-16.153
		c-9.792,0.28-16.782,6.24-17.091,16.538c-0.246,8.162,7.721,16.185,15.757,16.21C259.157,267.578,267.091,259.908,267.096,250.955z
		"/>
	<path fill-rule="evenodd" clip-rule="evenodd" d="M247.026,282.342c-0.073,2.13-1.837,3.619-4.195,3.54
		c-2.235-0.076-3.626-1.536-3.598-3.78c0.03-2.44,1.526-3.881,3.885-3.736C245.319,278.498,247.096,280.308,247.026,282.342z"/>
	<path fill-rule="evenodd" clip-rule="evenodd" d="M218.207,265.839c-0.03-2.319,1.359-3.896,3.488-3.958
		c2.005-0.06,4.277,1.916,4.285,3.726c0.007,1.62-2.479,4.119-4.131,4.151C219.847,269.797,218.235,268.063,218.207,265.839z"/>
	<path fill-rule="evenodd" clip-rule="evenodd" d="M271.844,231.803c-1.779-0.039-3.528-1.935-3.494-3.79
		c0.039-2.156,1.85-3.986,3.946-3.992c1.921-0.005,3.735,1.922,3.677,3.903C275.912,229.932,273.873,231.846,271.844,231.803z"/>
	<path fill-rule="evenodd" clip-rule="evenodd" d="M214.272,251.984c0.016-1.979,1.807-3.577,3.939-3.513
		c1.995,0.06,3.924,1.864,3.74,3.747c-0.198,2.023-1.15,3.605-3.475,3.664C215.999,255.946,214.253,254.274,214.272,251.984z"/>
	<path fill-rule="evenodd" clip-rule="evenodd" d="M229.577,272.495c1.854,0.056,3.869,2.105,3.764,3.829
		c-0.104,1.7-2.315,3.684-4.063,3.643c-1.964-0.045-3.733-1.951-3.629-3.911C225.76,273.955,227.441,272.431,229.577,272.495z"/>
	<path fill-rule="evenodd" clip-rule="evenodd" d="M280.414,234.687c1.975-0.052,3.969,1.648,4.103,3.495
		c0.126,1.769-1.81,3.758-3.741,3.845c-1.898,0.086-3.921-1.874-4.025-3.9C276.655,236.3,278.315,234.741,280.414,234.687z"/>
	<path fill-rule="evenodd" clip-rule="evenodd" d="M223.905,238.63c-0.056,2.194-1.599,3.629-3.839,3.483
		c-2.134-0.139-3.553-1.083-3.522-3.46c0.027-2.053,1.946-3.973,3.931-3.939C222.622,234.751,223.964,236.285,223.905,238.63z"/>
	<path fill-rule="evenodd" clip-rule="evenodd" d="M257.677,285.847c-2.081-0.203-3.261-1.563-3.438-3.663
		c-0.169-2.021,1.81-3.839,3.802-3.745c2.005,0.096,3.803,1.943,3.8,3.9C261.837,284.234,259.977,285.863,257.677,285.847z"/>
	<path fill-rule="evenodd" clip-rule="evenodd" d="M271.214,280.134c-2.12,0.047-3.736-1.478-3.815-3.597
		c-0.079-2.107,1.455-3.739,3.612-3.847c1.831-0.091,3.991,1.872,3.967,3.608C274.953,278.162,273.059,280.093,271.214,280.134z"/>
	<path fill-rule="evenodd" clip-rule="evenodd" d="M282.992,265.822c-0.048,2.117-1.813,3.971-3.646,3.834
		c-1.979-0.147-3.698-2.002-3.501-3.994c0.207-2.073,1.271-3.604,3.52-3.7C281.313,261.879,283.039,263.847,282.992,265.822z"/>
	<path fill-rule="evenodd" clip-rule="evenodd" d="M282.851,248.868c1.838,0.3,3.401,1.119,3.497,3.475
		c0.095,2.323-1.535,3.991-3.888,3.85c-2.104-0.126-3.227-1.526-3.434-3.458C278.807,250.684,280.646,248.881,282.851,248.868z"/>
	<path fill-rule="evenodd" clip-rule="evenodd" d="M234.557,220.359c-0.147-2.218,1.507-3.042,3.475-3.242
		c2.059-0.21,4.121,1.943,3.806,3.939c-0.322,2.047-1.565,3.515-3.795,3.311C235.929,224.173,234.333,223.147,234.557,220.359z"/>
	<path fill-rule="evenodd" clip-rule="evenodd" d="M247.434,218.622c-0.028-2.596,1.589-4.475,3.506-4.347
		c2.029,0.135,3.341,1.278,3.51,3.333c0.154,1.868-1.813,3.985-3.662,3.941C248.703,221.499,247.559,220.293,247.434,218.622z"/>
	<path fill-rule="evenodd" clip-rule="evenodd" d="M227.988,224.327c2.346-0.08,3.468,1.294,3.69,3.401
		c0.195,1.851-1.912,3.856-3.805,3.706c-2.178-0.173-3.438-1.324-3.427-3.644C224.458,225.682,225.793,224.35,227.988,224.327z"/>
	<path fill-rule="evenodd" clip-rule="evenodd" d="M262.626,217.626c2.507-0.342,3.354,1.251,3.642,3.114
		c0.259,1.682-1.805,3.645-3.558,3.695c-2.01,0.059-3.814-1.528-3.716-3.381C259.115,218.728,260.178,217.32,262.626,217.626z"/>
	<path fill-rule="evenodd" clip-rule="evenodd" d="M253.896,242.928c-1.699,1.11-2.765,2.35-3.773,2.303
		c-0.862-0.039-2.504-1.903-2.321-2.343c0.491-1.174,1.639-2.403,2.808-2.817C251.153,239.879,252.347,241.526,253.896,242.928z"/>
	<path fill-rule="evenodd" clip-rule="evenodd" d="M242.589,247.123c1.108,1.822,2.284,2.894,2.161,3.787
		c-0.129,0.94-1.477,2.34-2.336,2.373c-0.823,0.032-2.414-1.459-2.387-2.234C240.065,249.982,241.309,248.958,242.589,247.123z"/>
	<path fill-rule="evenodd" clip-rule="evenodd" d="M250.924,256.361c0.637,1.019,1.739,2.03,1.753,3.058
		c0.011,0.738-1.366,2.019-2.238,2.127c-1.408,0.175-2.862-0.753-2.581-2.445c0.165-0.987,1.223-1.827,1.88-2.733
		C250.134,256.365,250.528,256.363,250.924,256.361z"/>
	<path fill-rule="evenodd" clip-rule="evenodd" d="M262.721,251.304c-1.634,1.1-2.627,2.262-3.287,2.097
		c-0.991-0.248-2.427-1.428-2.427-2.211c0.001-0.914,1.354-2.571,2.099-2.558C260.085,248.649,261.043,249.977,262.721,251.304z"/>
</g>
</svg>
