<?xml version="1.0" encoding="utf-8"?>
<!-- Generator: Adobe Illustrator 16.0.0, SVG Export Plug-In . SVG Version: 6.00 Build 0)  -->
<!DOCTYPE svg PUBLIC "-//W3C//DTD SVG 1.1//EN" "http://www.w3.org/Graphics/SVG/1.1/DTD/svg11.dtd">
<svg version="1.1" id="Layer_1" xmlns="http://www.w3.org/2000/svg" xmlns:xlink="http://www.w3.org/1999/xlink" x="0px" y="0px"
	 width="500px" height="500px" viewBox="0 0 500 500" enable-background="new 0 0 500 500" xml:space="preserve">
<g>
	<path fill-rule="evenodd" clip-rule="evenodd" d="M341.213,248.478c0.921,53.049-42.077,93.384-93.09,92.001
		c-46.706-1.267-87.95-39.275-88.28-90.58c-0.338-52.669,42.846-93.785,93.091-92.369
		C303.191,158.946,342.111,200.667,341.213,248.478z M337.226,242.967c0.05-8.311-2.342-18.545-6.491-28.243
		c-6.808-15.907-17.244-28.958-31.873-38.532c-14.21-9.299-29.678-14.782-46.681-14.782c-22.567-0.001-42.712,7.071-59.461,22.568
		c-24.144,22.338-32.708,50.228-27.352,82.146c3.855,22.975,16.401,41.211,35.379,54.593c24.338,17.161,51.201,20.412,79.027,10.929
		C317.103,318.921,338.757,284.082,337.226,242.967z"/>
	<path fill-rule="evenodd" clip-rule="evenodd" d="M171.518,448.312c2.032-20.351,6.542-40.649,18.409-58.564
		c9.696-14.636,22.636-25.785,38.25-33.747c6.243-3.183,12.745-5.856,19.1-8.825c2.426-1.134,4.737-1.013,7.205-0.102
		c12.465,4.603,23.759,11.203,34.213,19.382c18.772,14.685,30.348,33.905,35.8,56.871c2.048,8.627,3.248,17.459,4.741,26.214
		c0.574,3.365-0.012,4.075-3.938,5.405c-20.191,6.841-38.357,17.405-55.256,30.234c-5.675,4.307-11.124,8.92-16.529,13.564
		c-2.057,1.769-3.443,1.61-5.448-0.106c-12.056-10.322-24.465-20.2-38.245-28.175c-11.485-6.646-23.329-12.566-36.027-16.603
		C171.519,453.136,171.339,452.76,171.518,448.312z M324.134,446.716c-0.203-1.496-0.405-2.992-0.61-4.488
		c-1.734-12.638-4.299-25.06-9.655-36.745c-6.375-13.907-15.366-25.749-27.293-35.436c-10.228-8.306-21.871-13.938-33.924-18.88
		c-0.936-0.385-2.324-0.343-3.263,0.061c-6.53,2.799-13.083,5.573-19.47,8.679c-18.969,9.224-32.785,23.679-41.973,42.521
		c-6.87,14.088-9.627,29.32-11.418,44.745c-0.073,0.628,0.677,1.709,1.313,2.008c5.626,2.645,11.341,5.1,16.978,7.723
		c19.669,9.15,37.318,21.412,53.887,35.293c1.851,1.55,2.914,1.319,4.728-0.106c8.748-6.878,17.379-13.958,26.565-20.209
		c12.821-8.725,26.737-15.531,41.199-21.17C323.049,449.989,324.735,449.229,324.134,446.716z"/>
	<path fill-rule="evenodd" clip-rule="evenodd" d="M181.119,349.53c-0.303,13.501-4.048,26.086-8.877,38.384
		c-7.452,18.98-20,34.308-34.891,47.907c-4.332,3.956-4.232,3.894-9.057,0.581c-18.924-12.989-39.258-22.631-62.248-25.825
		c-1.971-0.273-2.733-1.271-2.78-3.193c-0.333-13.829-3.146-27.173-7.942-40.122c-3.596-9.706-7.786-19.126-14.128-27.392
		c-1.571-2.048-1.294-3.233,0.46-4.847c11.034-10.146,23.275-18.471,37.012-24.49c13.805-6.05,28.226-9.861,43.339-10.092
		c16.632-0.254,31.599,5.367,46.098,13.236c6.909,3.75,8.82,9.642,10.195,16.094C179.684,336.264,180.214,342.937,181.119,349.53z
		 M176.43,351.418c-0.188-10.216-1.812-18.824-4.434-27.271c-0.742-2.391-2.044-4.241-4.244-5.536
		c-17.176-10.114-35.422-15.419-55.573-13.005c-11.604,1.391-22.63,4.622-33.153,9.553c-10.219,4.79-19.377,11.245-27.982,18.528
		c-4.861,4.115-4.768,3.921-1.544,9.301c11.014,18.386,16.987,38.394,18.545,59.71c0.188,2.568,1.171,3.209,3.379,3.708
		c5.97,1.352,11.976,2.676,17.79,4.557c14.729,4.768,28.268,12.045,41.217,20.442c1.757,1.14,2.875,1.218,4.544-0.347
		c7.038-6.583,13.767-13.404,19.667-21.069C168.265,392.296,175.456,372.34,176.43,351.418z"/>
	<path fill-rule="evenodd" clip-rule="evenodd" d="M377.865,300.826c15.304,0.129,29.742,3.879,43.732,9.84
		c13.965,5.95,26.754,13.655,37.833,24.119c1.799,1.7,1.914,2.979,0.479,4.99c-11.625,16.283-17.834,34.672-20.729,54.291
		c-0.583,3.956-0.809,7.965-1.138,11.954c-0.313,3.792-0.529,3.951-4.448,4.576c-16.435,2.619-31.835,8.211-46.191,16.578
		c-6.143,3.581-12.1,7.492-18.022,11.432c-1.959,1.303-3.19,0.474-4.42-0.759c-3.968-3.976-7.947-7.944-11.787-12.042
		c-17.153-18.3-27.968-39.758-31.576-64.641c-1.79-12.345,0.261-24.416,3.234-36.431c1.292-5.22,4.026-8.437,8.717-10.904
		c10.609-5.583,21.449-10.367,33.407-12.088C370.562,301.223,374.228,301.119,377.865,300.826z M377.255,305.367
		c-4.115,0.558-10.316,1.165-16.424,2.282c-10.479,1.918-19.632,7.231-28.981,11.972c-0.738,0.375-1.346,1.398-1.613,2.246
		c-3.893,12.32-6.25,24.845-4.534,37.832c2.064,15.64,7.134,30.198,15.818,43.44c6.833,10.419,15.158,19.53,24.185,28.07
		c1.676,1.585,2.682,1.521,4.52,0.394c6.973-4.272,13.863-8.758,21.173-12.38c12.281-6.084,25.097-10.858,38.741-13.008
		c1.958-0.309,2.745-1.26,2.919-3.337c0.418-4.955,0.935-9.927,1.834-14.814c3.151-17.121,8.774-33.332,18.612-47.847
		c1.374-2.029,1.169-3.062-0.572-4.595c-9.362-8.242-19.828-14.728-31.062-20.073C408.41,309.145,394.233,305.886,377.255,305.367z"
		/>
	<path fill-rule="evenodd" clip-rule="evenodd" d="M454.871,300.97c-22.205,0.431-43.056-4.954-62.806-14.755
		c-15.478-7.681-26.98-19.812-36.966-33.663c-2.473-3.43-2.565-6.308-1.213-10.002c6.439-17.58,15.646-33.541,29.574-46.091
		c18.109-16.315,39.363-26.931,63.43-31.565c3.663-0.706,7.373-1.167,11.059-1.76c2.154-0.347,3.191,0.553,3.81,2.667
		c2.04,6.981,3.964,14.021,6.502,20.827c5.334,14.306,13.53,26.98,23.123,38.787c1.627,2.004,3.305,3.967,4.925,5.978
		c2.279,2.828,2.268,3.333-0.112,6.163c-10.407,12.378-17.486,26.533-22.05,41.953c-1.761,5.951-3.037,12.055-4.307,18.137
		c-0.39,1.865-1.262,2.656-2.958,2.752C462.88,300.621,458.875,300.783,454.871,300.97z M491.398,234.2
		c-0.728-0.983-1.603-2.215-2.532-3.403c-0.988-1.262-2.076-2.449-3.042-3.729c-12.608-16.693-22.486-34.77-28-55.078
		c-1.007-3.711-1.247-3.778-5.067-3.007c-5.319,1.074-10.653,2.091-15.938,3.318c-20.474,4.754-38.056,14.884-52.902,29.566
		c-12.165,12.031-20.327,26.667-25.569,42.913c-0.376,1.164-0.302,2.994,0.381,3.896c4.87,6.448,9.454,13.222,15.069,18.974
		c12.653,12.96,28.541,20.384,45.958,24.673c13.607,3.352,27.429,4.069,41.394,3.281c2.754-0.156,3.727-0.951,4.318-3.617
		c2.854-12.88,6.599-25.515,13.06-37.096C482.414,247.921,486.945,241.311,491.398,234.2z"/>
	<path fill-rule="evenodd" clip-rule="evenodd" d="M362.445,182.036c-15.816,0.741-26.918-2.375-37.727-6.681
		c-1.507-0.6-2.842-2.416-3.596-3.986c-4.619-9.612-7.326-19.791-8.866-30.342c-2.22-15.201,0.272-29.782,5.318-44.063
		c6.117-17.316,14.292-33.532,25.898-47.886c0.168-0.208,0.289-0.458,0.476-0.646c3.223-3.258,3.283-5.292,9.229-1.744
		c12.485,7.451,26.127,12.041,40.48,14.289c6.141,0.962,12.372,1.408,18.58,1.838c4.495,0.312,4.888,0.27,5.566,4.672
		c2.231,14.459,6.588,28.228,13.862,40.913c3.659,6.383,8.155,12.292,12.33,18.376c2.118,3.087,1.931,3.482-0.317,6.469
		c-6.799,9.034-14.61,17.095-23.486,24.029c-11.556,9.026-23.962,16.662-38.064,21.172
		C374.432,180.91,366.502,181.913,362.445,182.036z M359.003,178.396c6.314-0.982,12.831-1.277,18.908-3.065
		c25.221-7.416,44.455-23.363,60.459-43.664c1.013-1.285,0.976-2.552-0.101-3.871c-1.632-2.001-3.282-4.003-4.715-6.146
		c-10.353-15.497-17.216-32.468-21.139-50.647c-0.402-1.866-1.14-2.587-3.127-2.696c-19.06-1.044-37.262-5.416-54.302-14.231
		c-6.071-3.141-6.027-3.019-10.315,2.354c-10.368,12.991-18.175,27.379-23.778,42.997c-8.689,24.219-6.566,47.708,4.809,70.548
		c0.433,0.867,1.295,1.817,2.169,2.12C337.921,175.576,348.194,177.949,359.003,178.396z"/>
	<path fill-rule="evenodd" clip-rule="evenodd" d="M46.955,300.728c-3.565,0-7.137-0.126-10.696,0.039
		c-2.796,0.128-4.164-0.853-4.745-3.717c-2.277-11.233-5.222-22.277-9.76-32.86c-4.316-10.066-10.106-19.203-17.095-27.575
		c-1.816-2.175-0.359-3.356,0.704-4.806c4.946-6.743,10.155-13.307,14.821-20.237c9.115-13.539,15.741-28.219,19.164-44.26
		c0.896-4.203,1.535-4.542,5.512-4.16c18.308,1.758,34.984,8.202,50.869,17.207c13.501,7.654,25.578,16.9,34.523,29.725
		c7.401,10.611,13.4,21.979,17.36,34.372c0.803,2.513,0.46,4.505-0.926,6.717c-13.684,21.821-33.165,35.687-57.718,43.022
		C75.215,298.303,61.324,300.894,46.955,300.728z M49.844,295.354c9.058,0.682,17.909-0.762,26.75-2.521
		c27.984-5.569,50.868-18.807,66.009-43.707c0.633-1.042,0.857-2.701,0.541-3.875c-0.712-2.646-1.88-5.17-2.87-7.742
		c-9.383-24.377-25.76-42.532-48.715-54.878c-13.464-7.241-27.84-11.663-42.864-14.14c-3.64-0.6-3.508-0.522-4.686,2.951
		c-2.504,7.383-4.774,14.88-7.844,22.029c-6.118,14.245-15.079,26.808-24.448,39.057c-1.328,1.736-1.396,2.807-0.017,4.529
		c6.042,7.543,10.98,15.826,14.332,24.86c3.697,9.966,6.805,20.156,9.97,30.311c0.691,2.22,1.488,3.319,3.958,3.175
		C43.245,295.21,46.549,295.354,49.844,295.354z"/>
	<path fill-rule="evenodd" clip-rule="evenodd" d="M315.722,52.109c-0.373,18.197-4.162,35.515-11.659,52.037
		c-8.092,17.831-20.465,31.8-37.592,41.386c-4.328,2.423-8.847,4.562-13.448,6.408c-1.618,0.65-3.971,0.582-5.606-0.09
		c-17.816-7.318-32.814-18.365-43.283-34.731c-9.224-14.421-14.773-30.316-17.119-47.301c-1.521-11.016-1.425-22.022-0.007-33.042
		c0.643-4.995,1.093-5.618,5.883-6.802c20.36-5.036,39.242-13.177,55.634-26.529c1.437-1.17,2.61-0.971,4.034,0.117
		c13.396,10.24,28.104,18.062,44.057,23.499c4.45,1.517,9.018,2.704,13.558,3.938c2.096,0.568,3.484,1.582,3.718,3.889
		C314.473,40.63,315.107,46.369,315.722,52.109z M190.356,53.401c0.483,6.032,0.698,12.188,1.513,18.265
		c2.483,18.522,9.221,35.335,20.857,50.071c9.68,12.257,22.653,19.827,36.798,25.674c0.842,0.348,2.143,0.142,3.024-0.258
		c4.371-1.981,8.8-3.888,12.98-6.23c17.675-9.902,29.528-24.899,37-43.455c7.145-17.74,9.498-36.207,7.502-55.243
		c-0.621-5.922-0.51-5.901-6.214-7.421c-11.13-2.966-21.859-7.066-31.923-12.627c-6.447-3.563-12.451-7.926-18.619-11.985
		c-1.467-0.965-2.724-1.96-4.508-0.515c-9.487,7.689-20.205,13.296-31.451,17.826c-7.487,3.016-15.23,5.404-22.894,7.967
		c-1.909,0.638-2.955,1.679-3.084,3.692C191.034,43.867,190.692,48.569,190.356,53.401z"/>
	<path fill-rule="evenodd" clip-rule="evenodd" d="M144.646,182.01c-17.83,0.096-33.878-5.586-48.906-14.793
		c-15.051-9.222-28.036-20.722-39.011-34.538c-1.516-1.908-1.704-3.346-0.111-5.338c9.121-11.407,16.246-23.955,21.324-37.671
		c2.76-7.453,4.803-15.07,5.743-22.958c0.3-2.521,1.203-3.641,3.996-3.714c17.696-0.46,34.736-4.181,51.05-11.035
		c4.078-1.713,7.993-3.864,11.824-6.089c1.981-1.149,3.273-1.162,4.818,0.611c9.004,10.33,16.53,21.591,21.975,34.203
		c5.072,11.746,9.906,23.571,11.849,36.331c1.837,12.062,0.971,24.023-2.379,35.683c-1.98,6.886-4.841,13.526-7.482,20.206
		c-0.425,1.074-1.623,2.17-2.72,2.598C166.343,179.517,155.716,181.899,144.646,182.01z M186.304,128.598
		c-0.417-4.155-0.431-8.397-1.318-12.449c-5.092-23.244-14.816-44.252-30.402-62.444c-1.965-2.294-3.22-2.329-5.7-1.1
		c-5.883,2.912-11.814,5.84-17.983,8.038c-12.547,4.468-25.521,7.137-38.889,7.524c-1.857,0.054-2.814,0.476-3.123,2.636
		c-0.476,3.327-1.414,6.605-2.358,9.844c-4.748,16.283-12.074,31.311-22.07,45.029c-3.213,4.41-3.212,4.509,0.204,8.518
		c10.945,12.844,23.438,23.774,38.154,32.249c22.707,13.076,46.242,13.669,70.529,5.644c1.042-0.345,2.211-1.335,2.652-2.323
		C181.841,156.673,186.263,143.215,186.304,128.598z"/>
	<path fill-rule="evenodd" clip-rule="evenodd" d="M346.707,269.094c1.441-1.147,2.268-2.292,3.177-2.361
		c0.624-0.048,1.988,1.483,1.896,2.154c-0.124,0.905-1.207,2.07-2.111,2.339C349.091,271.396,348.092,270.145,346.707,269.094z"/>
	<path fill-rule="evenodd" clip-rule="evenodd" d="M347.653,289.51c-1.554,1.002-2.445,1.931-3.455,2.086
		c-0.557,0.086-1.313-1.126-1.979-1.754c0.847-0.805,1.582-1.895,2.591-2.288C345.284,287.368,346.28,288.522,347.653,289.51z"/>
	<path fill-rule="evenodd" clip-rule="evenodd" d="M161.097,206.227c-1.631,0.958-2.598,1.983-3.336,1.838
		c-0.847-0.164-1.493-1.366-2.226-2.116c0.747-0.724,1.504-2.032,2.239-2.02C158.664,203.944,159.536,205.076,161.097,206.227z"/>
	<path fill-rule="evenodd" clip-rule="evenodd" d="M343.779,209.473c-1.031-1.545-2.147-2.518-1.976-3.119
		c0.27-0.934,1.417-1.615,2.192-2.403c0.643,0.786,1.727,1.533,1.798,2.368C345.858,207.078,344.822,207.932,343.779,209.473z"/>
	<path fill-rule="evenodd" clip-rule="evenodd" d="M311.548,333.428c-1.69,1.071-2.568,1.993-3.532,2.093
		c-0.522,0.054-1.786-1.441-1.654-1.975c0.211-0.847,1.22-1.868,2.063-2.061C309.056,331.34,309.96,332.384,311.548,333.428z"/>
	<path fill-rule="evenodd" clip-rule="evenodd" d="M165.765,418.968c0.479,1.012,1.324,2.03,1.304,3.032
		c-0.012,0.634-1.315,1.241-2.039,1.861c-0.649-0.803-1.777-1.585-1.813-2.412s1.022-1.701,1.601-2.555
		C165.134,418.919,165.449,418.943,165.765,418.968z"/>
	<path fill-rule="evenodd" clip-rule="evenodd" d="M298.938,342.732c-1.034-1.677-1.996-2.58-2.022-3.51
		c-0.018-0.631,1.277-1.3,1.985-1.951c0.708,0.842,1.722,1.594,2.001,2.56C301.056,340.367,299.983,341.258,298.938,342.732z"/>
	<path fill-rule="evenodd" clip-rule="evenodd" d="M372.047,189.048c1.102,1.417,2.233,2.238,2.179,2.97
		c-0.063,0.824-1.197,1.566-1.865,2.344c-0.774-0.794-1.848-1.479-2.203-2.43C369.974,191.44,371.067,190.474,372.047,189.048z"/>
	<path fill-rule="evenodd" clip-rule="evenodd" d="M151.847,272.335c-1.098-1.576-2.16-2.43-2.129-3.24
		c0.033-0.839,1.128-1.636,1.758-2.451c0.695,0.796,1.75,1.508,1.966,2.417C153.605,269.75,152.699,270.691,151.847,272.335z"/>
	<path fill-rule="evenodd" clip-rule="evenodd" d="M351.198,279.76c-1.467,1.086-2.384,2.268-3.09,2.153
		c-0.791-0.127-1.763-1.36-1.934-2.25c-0.1-0.521,1.205-1.847,1.882-1.85C348.899,277.811,349.745,278.798,351.198,279.76z"/>
	<path fill-rule="evenodd" clip-rule="evenodd" d="M300.607,158.584c-1.507,0.961-2.438,2.019-3.16,1.891
		c-0.796-0.141-1.399-1.369-2.087-2.123c0.801-0.667,1.536-1.722,2.424-1.869C298.408,156.379,299.237,157.509,300.607,158.584z"/>
	<path fill-rule="evenodd" clip-rule="evenodd" d="M203.998,155.298c0.847,1.54,1.816,2.528,1.616,3.124
		c-0.292,0.867-1.425,1.452-2.199,2.157c-0.628-0.703-1.833-1.484-1.749-2.089C201.789,157.588,202.82,156.812,203.998,155.298z"/>
	<path fill-rule="evenodd" clip-rule="evenodd" d="M292.389,344.078c-1.191,1.035-2.075,2.161-2.4,2.019
		c-0.991-0.435-1.767-1.36-2.626-2.095c0.663-0.653,1.324-1.824,1.991-1.827C290.17,342.17,290.992,343.143,292.389,344.078z"/>
	<path fill-rule="evenodd" clip-rule="evenodd" d="M129.67,195.295c-0.964-1.532-2.04-2.492-1.913-3.251
		c0.127-0.764,1.45-1.33,2.249-1.983c0.628,0.809,1.654,1.57,1.754,2.439C131.836,193.157,130.732,193.951,129.67,195.295z"/>
	<path fill-rule="evenodd" clip-rule="evenodd" d="M157.555,286.512c0.79,1.523,1.698,2.474,1.522,3.137
		c-0.222,0.84-1.38,2.056-2.036,1.997c-0.804-0.072-2.188-1.405-2.093-1.993C155.099,288.723,156.272,287.958,157.555,286.512z"/>
	<path fill-rule="evenodd" clip-rule="evenodd" d="M338.758,422.351c-1.474,1.027-2.381,2.109-2.955,1.955
		c-0.844-0.227-1.813-1.249-2.022-2.105c-0.13-0.532,1.146-2.028,1.614-1.956C336.357,420.395,337.202,421.307,338.758,422.351z"/>
	<path fill-rule="evenodd" clip-rule="evenodd" d="M169.635,406.833c1.158,1.542,2.322,2.423,2.236,3.155
		c-0.097,0.813-1.238,1.853-2.112,2.087c-0.485,0.13-1.859-1.14-1.923-1.858C167.763,409.394,168.698,408.48,169.635,406.833z"/>
	<path fill-rule="evenodd" clip-rule="evenodd" d="M446.047,313.136c-1.031-1.445-2.09-2.287-1.979-2.928
		c0.152-0.879,1.188-1.604,1.847-2.396c0.737,0.632,2.049,1.245,2.07,1.9C448.014,310.589,447.041,311.496,446.047,313.136z"/>
	<path fill-rule="evenodd" clip-rule="evenodd" d="M181.298,53.436c-1.386,1.045-2.28,2.18-2.836,2.032
		c-0.842-0.223-1.786-1.247-2.017-2.11c-0.125-0.466,1.126-1.827,1.779-1.842C179.022,51.498,179.844,52.466,181.298,53.436z"/>
	<path fill-rule="evenodd" clip-rule="evenodd" d="M293.303,360.215c-1.124-1.482-2.163-2.266-2.211-3.104
		c-0.038-0.66,1.146-1.39,1.789-2.089c0.739,0.689,1.86,1.271,2.094,2.103C295.148,357.748,294.179,358.691,293.303,360.215z"/>
	<path fill-rule="evenodd" clip-rule="evenodd" d="M197.358,164.018c-0.908,0.465-1.846,1.328-2.717,1.266
		c-0.659-0.047-1.698-1.268-1.708-1.979c-0.008-0.621,1.214-1.792,1.841-1.758c0.905,0.05,1.763,0.968,2.641,1.516
		C197.396,163.381,197.377,163.699,197.358,164.018z"/>
	<path fill-rule="evenodd" clip-rule="evenodd" d="M149.915,262.218c-0.881-1.425-1.91-2.353-1.82-3.154
		c0.086-0.767,1.338-1.4,2.078-2.095c0.655,0.909,1.582,1.746,1.845,2.756C152.141,260.198,150.983,261.005,149.915,262.218z"/>
	<path fill-rule="evenodd" clip-rule="evenodd" d="M321.713,68.038c-0.897-1.355-1.862-2.173-1.79-2.886
		c0.071-0.71,1.404-1.97,1.792-1.838c0.893,0.305,1.89,1.2,2.164,2.069C324.029,65.859,322.793,66.771,321.713,68.038z"/>
	<path fill-rule="evenodd" clip-rule="evenodd" d="M205.11,339.363c-1.513,1.182-2.333,2.081-3.349,2.457
		c-0.304,0.113-1.782-1.56-1.63-1.857c0.48-0.944,1.376-1.83,2.328-2.303C202.825,337.479,203.773,338.47,205.11,339.363z"/>
	<path fill-rule="evenodd" clip-rule="evenodd" d="M70.821,159.062c-1.229,0.951-2.223,2.12-2.617,1.944
		c-0.925-0.412-1.738-1.382-2.199-2.321c-0.122-0.249,1.268-1.773,1.843-1.705C68.723,157.085,69.494,158.068,70.821,159.062z"/>
	<path fill-rule="evenodd" clip-rule="evenodd" d="M196.3,333.632c-1.435,0.92-2.3,1.896-3.149,1.883
		c-0.653-0.01-1.929-1.456-1.79-1.926c0.254-0.858,1.275-1.886,2.123-2.043C194.108,331.432,194.969,332.589,196.3,333.632z"/>
	<path fill-rule="evenodd" clip-rule="evenodd" d="M211.504,341.38c0.986,1.245,2.185,2.15,2.042,2.72
		c-0.217,0.865-1.363,1.498-2.115,2.23c-0.646-0.716-1.766-1.406-1.806-2.154C209.585,343.422,210.619,342.613,211.504,341.38z"/>
	<path fill-rule="evenodd" clip-rule="evenodd" d="M309.154,163.449c-1.353,1.063-2.121,2.087-3.025,2.223
		c-0.539,0.082-1.861-1.286-1.798-1.896c0.078-0.773,1.125-1.871,1.907-2.02C306.922,161.626,307.817,162.619,309.154,163.449z"/>
	<path fill-rule="evenodd" clip-rule="evenodd" d="M332.707,191.101c-1.065-1.327-2.251-2.217-2.107-2.755
		c0.246-0.928,1.318-1.636,2.044-2.437c0.662,0.724,1.754,1.389,1.859,2.186C334.599,188.813,333.614,189.675,332.707,191.101z"/>
	<path fill-rule="evenodd" clip-rule="evenodd" d="M278.007,147.821c1.004,1.483,2.023,2.331,1.934,3.036
		c-0.097,0.756-1.204,1.865-1.933,1.916c-0.662,0.046-1.967-1.114-1.979-1.76C276.015,150.181,277.007,149.331,278.007,147.821z"/>
	<path fill-rule="evenodd" clip-rule="evenodd" d="M162.744,199.54c-0.915-1.55-1.87-2.459-1.821-3.311
		c0.039-0.671,1.312-1.273,2.037-1.905c0.602,0.839,1.514,1.619,1.693,2.54C164.762,197.425,163.743,198.207,162.744,199.54z"/>
	<path fill-rule="evenodd" clip-rule="evenodd" d="M457.017,319.973c-1.107,1.168-1.861,2.512-2.431,2.438
		c-0.875-0.113-1.622-1.202-2.425-1.876c0.69-0.666,1.288-1.662,2.101-1.886C454.862,318.481,455.742,319.316,457.017,319.973z"/>
	<path fill-rule="evenodd" clip-rule="evenodd" d="M216.741,154.359c-1.387,0.841-2.283,1.815-2.96,1.682
		c-0.761-0.151-1.85-1.32-1.826-2.012c0.024-0.68,1.25-1.808,1.979-1.833C214.658,152.172,215.419,153.278,216.741,154.359z"/>
	<path fill-rule="evenodd" clip-rule="evenodd" d="M384.923,291.33c-1.402,1.028-2.214,2.075-2.894,1.997
		c-0.702-0.083-1.767-1.265-1.765-1.962c0.002-0.703,1.053-1.862,1.771-1.969C382.696,289.298,383.524,290.334,384.923,291.33z"/>
	<path fill-rule="evenodd" clip-rule="evenodd" d="M164.374,299.303c-0.744,0.52-1.573,1.543-2.213,1.437
		c-0.844-0.143-1.538-1.171-2.297-1.818c0.714-0.64,1.356-1.65,2.163-1.806c0.678-0.129,1.546,0.739,2.33,1.165
		C164.362,298.622,164.368,298.962,164.374,299.303z"/>
	<path fill-rule="evenodd" clip-rule="evenodd" d="M433.397,162.077c-0.945-1.389-1.952-2.267-1.79-2.76
		c0.292-0.882,1.285-1.533,1.986-2.281c0.604,0.591,1.75,1.245,1.691,1.761C435.181,159.709,434.344,160.539,433.397,162.077z"/>
	<path fill-rule="evenodd" clip-rule="evenodd" d="M185.822,324.135c0.486,0.782,1.457,1.659,1.329,2.325
		c-0.148,0.77-1.176,1.668-1.993,1.896c-0.445,0.123-1.8-1.07-1.761-1.596c0.068-0.906,0.902-1.757,1.415-2.63
		C185.148,324.131,185.485,324.133,185.822,324.135z"/>
	<path fill-rule="evenodd" clip-rule="evenodd" d="M373.173,288.056c-1.265,1.011-1.987,2.038-2.688,2.021
		c-0.71-0.017-2.052-1.211-1.958-1.628c0.206-0.916,1.005-1.973,1.844-2.355C370.787,285.902,371.826,287.071,373.173,288.056z"/>
	<path fill-rule="evenodd" clip-rule="evenodd" d="M179.181,63.052c1.024,1.448,2.075,2.296,1.957,2.922
		c-0.165,0.87-1.208,1.573-1.874,2.347c-0.734-0.667-1.998-1.287-2.062-2.013C177.132,65.51,178.166,64.616,179.181,63.052z"/>
	<path fill-rule="evenodd" clip-rule="evenodd" d="M341.548,299.547c-0.772,0.451-1.592,1.32-2.304,1.239
		c-0.774-0.088-1.449-1.058-2.167-1.644c0.727-0.697,1.364-1.755,2.215-1.973c0.603-0.153,1.494,0.827,2.257,1.301
		C341.549,298.83,341.549,299.188,341.548,299.547z"/>
	<path fill-rule="evenodd" clip-rule="evenodd" d="M168.554,185.135c0.849,1.556,1.701,2.465,1.707,3.378
		c0.003,0.536-1.434,1.595-2.056,1.484c-0.721-0.129-1.745-1.286-1.742-1.993C166.465,187.243,167.506,186.486,168.554,185.135z"/>
	<path fill-rule="evenodd" clip-rule="evenodd" d="M153.765,276.569c0.865,1.493,1.76,2.348,1.68,3.097
		c-0.079,0.735-1.15,1.364-1.786,2.039c-0.675-0.742-1.76-1.419-1.894-2.248C151.661,278.81,152.738,277.971,153.765,276.569z"/>
	<path fill-rule="evenodd" clip-rule="evenodd" d="M54.255,312.98c-0.407-0.833-1.25-1.752-1.104-2.473
		c0.16-0.792,1.229-1.402,1.901-2.091c0.639,0.698,1.805,1.412,1.787,2.091c-0.024,0.859-1.014,1.69-1.587,2.533
		C54.918,313.021,54.587,313,54.255,312.98z"/>
	<path fill-rule="evenodd" clip-rule="evenodd" d="M322.72,48.373c0.966,1.43,1.941,2.236,1.881,2.956
		c-0.065,0.773-1.102,1.466-1.714,2.194c-0.683-0.669-1.818-1.278-1.92-2.026C320.866,50.76,321.816,49.882,322.72,48.373z"/>
	<path fill-rule="evenodd" clip-rule="evenodd" d="M338.477,199.54c-0.874-1.536-1.798-2.429-1.681-3.154
		c0.121-0.752,1.249-1.343,1.937-2.004c0.632,0.733,1.704,1.433,1.764,2.21C340.55,197.308,339.517,198.107,338.477,199.54z"/>
	<path fill-rule="evenodd" clip-rule="evenodd" d="M121.595,291.414c-1.321,0.954-2.167,2.008-2.757,1.88
		c-0.77-0.166-1.874-1.288-1.849-1.963c0.027-0.745,1.088-1.893,1.85-2.031C119.441,289.19,120.272,290.343,121.595,291.414z"/>
	<path fill-rule="evenodd" clip-rule="evenodd" d="M184.008,382.916c-0.452-0.805-1.316-1.649-1.238-2.398
		c0.076-0.735,1.108-1.372,1.72-2.052c0.618,0.573,1.757,1.168,1.734,1.716c-0.038,0.923-0.813,1.815-1.277,2.721
		C184.634,382.906,184.321,382.911,184.008,382.916z"/>
	<path fill-rule="evenodd" clip-rule="evenodd" d="M287.462,151.119c1.05,1.391,2.111,2.186,2.071,2.918
		c-0.043,0.76-1.154,1.459-1.799,2.186c-0.698-0.673-1.831-1.268-1.968-2.04C285.642,153.479,286.597,152.583,287.462,151.119z"/>
	<path fill-rule="evenodd" clip-rule="evenodd" d="M307.088,148.952c-1.429,0.963-2.258,1.958-2.945,1.868
		c-0.751-0.098-1.372-1.198-2.05-1.861c0.667-0.664,1.287-1.787,2.014-1.86C304.83,147.025,305.659,148.006,307.088,148.952z"/>
	<path fill-rule="evenodd" clip-rule="evenodd" d="M178.071,400.088c-1.437,0.87-2.283,1.722-3.201,1.809
		c-0.531,0.051-1.791-1.389-1.655-1.712c0.371-0.886,1.217-1.97,2.045-2.139C175.882,397.919,176.769,399.086,178.071,400.088z"/>
	<path fill-rule="evenodd" clip-rule="evenodd" d="M142.419,282.422c0.588,0.853,1.485,1.651,1.646,2.578
		c0.094,0.54-0.992,1.284-1.547,1.937c-0.693-0.614-1.804-1.139-1.964-1.87c-0.165-0.751,0.599-1.706,0.957-2.571
		C141.813,282.471,142.116,282.445,142.419,282.422z"/>
	<path fill-rule="evenodd" clip-rule="evenodd" d="M223.562,147.561c0.955,1.488,1.944,2.352,1.832,3.035
		c-0.125,0.76-1.164,1.659-1.98,1.898c-0.436,0.128-1.815-1.074-1.758-1.558C221.763,150.01,222.592,149.167,223.562,147.561z"/>
	<path fill-rule="evenodd" clip-rule="evenodd" d="M348.371,259.339c1.228-1.096,1.935-1.727,2.642-2.358
		c0.687,0.771,1.733,1.466,1.919,2.343c0.106,0.501-1.12,1.709-1.875,1.836C350.436,261.264,349.627,260.242,348.371,259.339z"/>
	<path fill-rule="evenodd" clip-rule="evenodd" d="M279.739,344.689c0.751,1.451,1.537,2.268,1.396,2.867
		c-0.194,0.826-1.088,1.487-1.683,2.22c-0.683-0.771-1.74-1.466-1.911-2.337C277.43,346.87,278.601,346.047,279.739,344.689z"/>
	<path fill-rule="evenodd" clip-rule="evenodd" d="M66.842,309.789c-1.012-1.303-2.032-2.049-1.951-2.647
		c0.112-0.827,1.053-1.542,1.639-2.304c0.714,0.627,1.89,1.176,2.011,1.9C68.661,307.449,67.706,308.34,66.842,309.789z"/>
	<path fill-rule="evenodd" clip-rule="evenodd" d="M168.053,434.189c-1.409,0.995-2.226,2.022-2.937,1.953
		c-0.76-0.071-1.42-1.181-2.123-1.837c0.69-0.646,1.329-1.719,2.087-1.812C165.804,432.404,166.654,433.336,168.053,434.189z"/>
	<path fill-rule="evenodd" clip-rule="evenodd" d="M312.525,344.59c0.479,0.783,1.313,1.563,1.325,2.353
		c0.01,0.676-0.925,1.364-1.443,2.047c-0.722-0.625-1.867-1.152-2.037-1.902c-0.158-0.691,0.733-1.621,1.163-2.445
		C311.864,344.624,312.195,344.606,312.525,344.59z"/>
	<path fill-rule="evenodd" clip-rule="evenodd" d="M210.185,357c-0.786,0.544-1.741,1.664-2.317,1.494
		c-0.831-0.244-1.386-1.425-2.059-2.206c0.619-0.469,1.247-1.327,1.855-1.315c0.838,0.019,1.663,0.695,2.493,1.089
		C210.167,356.374,210.176,356.688,210.185,357z"/>
	<path fill-rule="evenodd" clip-rule="evenodd" d="M349.659,216.248c-1.215,1.001-1.946,2.068-2.603,2.024
		c-0.737-0.05-1.408-1.104-2.106-1.721c0.718-0.747,1.33-1.708,2.205-2.13C347.494,214.257,348.423,215.312,349.659,216.248z"/>
	<path fill-rule="evenodd" clip-rule="evenodd" d="M354.873,297.412c-0.963-1.262-1.983-2.041-1.865-2.564
		c0.21-0.927,1.111-1.698,1.724-2.535c0.65,0.683,1.745,1.313,1.828,2.059C356.644,295.12,355.721,295.982,354.873,297.412z"/>
	<path fill-rule="evenodd" clip-rule="evenodd" d="M192.949,358.443c0.87,1.432,1.662,2.295,1.849,3.272
		c0.069,0.361-1.476,1.542-1.958,1.38c-0.773-0.261-1.656-1.274-1.769-2.071C190.985,360.417,192.021,359.649,192.949,358.443z"/>
	<path fill-rule="evenodd" clip-rule="evenodd" d="M411.85,167.176c0.795,1.406,1.622,2.206,1.51,2.838
		c-0.147,0.82-1.043,1.505-1.617,2.249c-0.648-0.693-1.761-1.352-1.815-2.09C409.871,169.432,410.869,168.612,411.85,167.176z"/>
	<path fill-rule="evenodd" clip-rule="evenodd" d="M112.216,181.503c-1.474,0.822-2.425,1.706-2.825,1.503
		c-0.863-0.438-1.442-1.434-2.138-2.202c0.709-0.494,1.445-1.411,2.12-1.369C110.114,179.482,110.799,180.414,112.216,181.503z"/>
	<path fill-rule="evenodd" clip-rule="evenodd" d="M221.739,350.974c-0.853-1.442-1.758-2.288-1.625-2.915
		c0.174-0.829,1.162-1.486,1.799-2.217c0.646,0.616,1.874,1.301,1.81,1.833C223.612,348.613,222.714,349.459,221.739,350.974z"/>
	<path fill-rule="evenodd" clip-rule="evenodd" d="M154.649,213.879c0.444,0.816,1.358,1.736,1.208,2.422
		c-0.165,0.752-1.312,1.288-2.031,1.918c-0.535-0.664-1.511-1.342-1.492-1.99c0.024-0.806,0.87-1.588,1.36-2.382
		C154.013,213.858,154.332,213.868,154.649,213.879z"/>
	<path fill-rule="evenodd" clip-rule="evenodd" d="M232.925,152.663c-0.933-1.321-1.981-2.25-1.806-2.677
		c0.36-0.883,1.375-1.499,2.12-2.225c0.552,0.57,1.625,1.23,1.545,1.689C234.62,150.377,233.831,151.194,232.925,152.663z"/>
	<path fill-rule="evenodd" clip-rule="evenodd" d="M149.451,294.902c-1.317,0.804-2.195,1.724-2.682,1.55
		c-0.813-0.291-1.375-1.28-2.042-1.978c0.697-0.633,1.376-1.736,2.095-1.762C147.496,292.69,148.209,293.807,149.451,294.902z"/>
	<path fill-rule="evenodd" clip-rule="evenodd" d="M202.884,135.131c-0.829-1.294-1.725-2.094-1.72-2.888
		c0.004-0.556,1.376-1.654,1.892-1.526c0.787,0.196,1.725,1.164,1.896,1.957C205.063,133.183,203.915,133.966,202.884,135.131z"/>
	<path fill-rule="evenodd" clip-rule="evenodd" d="M351.594,189.054c0.994,1.234,2.043,1.968,2.042,2.699
		c-0.001,0.712-1.078,1.422-1.683,2.134c-0.728-0.724-1.736-1.342-2.067-2.216C349.714,191.216,350.734,190.308,351.594,189.054z"/>
	<path fill-rule="evenodd" clip-rule="evenodd" d="M357.464,201.785c-1.188,0.913-2.076,2.055-2.631,1.911
		c-0.749-0.195-1.569-1.322-1.713-2.16c-0.079-0.459,1.145-1.571,1.825-1.608C355.593,199.893,356.297,200.87,357.464,201.785z"/>
	<path fill-rule="evenodd" clip-rule="evenodd" d="M298.936,135.886c-1.051-1.466-1.988-2.213-2.009-2.985
		c-0.017-0.597,1.089-1.672,1.745-1.712c0.643-0.038,1.839,0.918,1.897,1.525C300.644,133.471,299.803,134.316,298.936,135.886z"/>
	<path fill-rule="evenodd" clip-rule="evenodd" d="M54.108,155.374c0.435,0.783,1.237,1.588,1.19,2.34
		c-0.04,0.625-1.271,1.776-1.637,1.657c-0.826-0.269-1.841-1.089-2.016-1.858c-0.132-0.584,0.911-1.437,1.431-2.169
		C53.42,155.354,53.765,155.363,54.108,155.374z"/>
	<path fill-rule="evenodd" clip-rule="evenodd" d="M87.507,303.421c-0.857-1.464-1.675-2.234-1.578-2.862
		c0.108-0.698,1.034-1.745,1.631-1.765c0.642-0.021,1.859,0.991,1.847,1.529C89.388,301.119,88.506,301.896,87.507,303.421z"/>
	<path fill-rule="evenodd" clip-rule="evenodd" d="M359.918,208.69c0.905,1.551,1.746,2.359,1.704,3.118
		c-0.034,0.632-1.255,1.792-1.687,1.683c-0.811-0.206-1.874-1.087-1.997-1.826C357.83,211.019,358.867,210.18,359.918,208.69z"/>
	<path fill-rule="evenodd" clip-rule="evenodd" d="M197.334,151.732c-0.967-1.291-1.997-2.091-1.877-2.642
		c0.174-0.798,1.085-1.775,1.863-1.976c0.48-0.124,1.817,1.042,1.83,1.65C199.167,149.545,198.243,150.346,197.334,151.732z"/>
	<path fill-rule="evenodd" clip-rule="evenodd" d="M79.402,161.812c0.998,1.436,1.943,2.215,1.966,3.019
		c0.016,0.619-1.13,1.269-1.759,1.904c-0.638-0.708-1.604-1.335-1.8-2.148C77.67,164.007,78.57,163.18,79.402,161.812z"/>
	<path fill-rule="evenodd" clip-rule="evenodd" d="M424.861,165.167c-1.319,0.875-2.121,1.81-2.711,1.69
		c-0.677-0.138-1.596-1.194-1.615-1.875c-0.019-0.662,1.081-1.974,1.488-1.899C422.852,163.235,423.542,164.129,424.861,165.167z"/>
	<path fill-rule="evenodd" clip-rule="evenodd" d="M394.965,181.269c-1.313,0.927-2.052,1.785-2.899,1.914
		c-0.481,0.073-1.701-1.172-1.604-1.605c0.178-0.81,0.974-1.867,1.704-2.05C392.749,179.381,393.619,180.38,394.965,181.269z"/>
	<path fill-rule="evenodd" clip-rule="evenodd" d="M133.288,288.145c-1.199,0.977-1.956,2.021-2.467,1.911
		c-0.813-0.172-1.461-1.115-2.179-1.732c0.685-0.672,1.275-1.65,2.09-1.901C131.215,286.272,132.052,287.269,133.288,288.145z"/>
	<path fill-rule="evenodd" clip-rule="evenodd" d="M385.046,186.914c-1.414,0.963-2.24,1.962-2.977,1.898
		c-0.645-0.056-1.589-1.275-1.643-2.034c-0.043-0.583,1.102-1.762,1.705-1.754C382.912,185.035,383.677,185.966,385.046,186.914z"/>
	<path fill-rule="evenodd" clip-rule="evenodd" d="M358.44,288.184c-0.903-1.556-1.836-2.443-1.703-3.124
		c0.146-0.762,1.259-1.337,1.951-1.993c0.508,0.709,1.376,1.396,1.421,2.132C360.151,285.904,359.341,286.662,358.44,288.184z"/>
	<path fill-rule="evenodd" clip-rule="evenodd" d="M458.201,312.354c-1.128-1.282-2.139-1.938-2.242-2.712
		c-0.078-0.595,0.989-1.341,1.547-2.02c0.712,0.623,1.726,1.13,2.029,1.911C459.733,310.047,458.904,310.958,458.201,312.354z"/>
	<path fill-rule="evenodd" clip-rule="evenodd" d="M182.236,81.528c-0.745-1.239-1.661-2.094-1.515-2.688
		c0.181-0.733,1.207-1.66,1.938-1.727c0.552-0.049,1.788,1.223,1.699,1.724C184.209,79.664,183.237,80.342,182.236,81.528z"/>
	<path fill-rule="evenodd" clip-rule="evenodd" d="M338.634,435.408c-1.182,0.864-2.098,1.938-2.542,1.771
		c-0.79-0.3-1.664-1.298-1.787-2.111c-0.081-0.535,1.193-1.852,1.681-1.769C336.802,433.438,337.475,434.417,338.634,435.408z"/>
	<path fill-rule="evenodd" clip-rule="evenodd" d="M315.093,371.112c-1.187,0.873-2.046,1.939-2.576,1.795
		c-0.821-0.223-1.419-1.271-2.111-1.971c0.63-0.613,1.306-1.764,1.877-1.715C313.114,369.294,313.87,370.231,315.093,371.112z"/>
	<path fill-rule="evenodd" clip-rule="evenodd" d="M319.481,380.632c-1.237,1.002-1.932,1.969-2.745,2.08
		c-0.542,0.075-1.825-1.149-1.755-1.647c0.111-0.787,0.976-1.84,1.722-2.042C317.287,378.864,318.174,379.825,319.481,380.632z"/>
	<path fill-rule="evenodd" clip-rule="evenodd" d="M177.256,184.062c-0.948-1.241-1.92-2.024-1.783-2.438
		c0.282-0.846,1.16-1.492,1.792-2.221c0.574,0.521,1.655,1.091,1.611,1.553C178.793,181.823,178.058,182.627,177.256,184.062z"/>
	<path fill-rule="evenodd" clip-rule="evenodd" d="M433.481,309.678c-0.422-0.803-1.294-1.714-1.136-2.38
		c0.162-0.688,1.266-1.396,2.078-1.588c0.414-0.098,1.626,1.039,1.543,1.409c-0.207,0.927-0.947,1.734-1.474,2.589
		C434.155,309.697,433.817,309.688,433.481,309.678z"/>
	<path fill-rule="evenodd" clip-rule="evenodd" d="M197.718,354.866c-0.817-1.514-1.703-2.449-1.501-2.944
		c0.316-0.779,1.302-1.406,2.146-1.765c0.208-0.09,1.44,1.18,1.355,1.681C199.578,352.672,198.752,353.391,197.718,354.866z"/>
	<path fill-rule="evenodd" clip-rule="evenodd" d="M363.797,274.574c-1.127,0.801-1.963,1.741-2.329,1.585
		c-0.847-0.361-1.606-1.173-2.084-1.987c-0.129-0.221,1.081-1.675,1.33-1.587C361.656,272.919,362.456,273.654,363.797,274.574z"/>
	<path fill-rule="evenodd" clip-rule="evenodd" d="M349.502,223.894c0.898,1.409,1.747,2.151,1.699,2.833
		c-0.045,0.657-0.964,1.667-1.595,1.746c-0.563,0.07-1.787-0.938-1.772-1.444C347.856,226.2,348.646,225.392,349.502,223.894z"/>
	<path fill-rule="evenodd" clip-rule="evenodd" d="M98.27,294.604c0.942,1.229,1.914,2.019,1.774,2.414
		c-0.294,0.832-1.171,1.459-1.809,2.17c-0.558-0.555-1.59-1.133-1.562-1.655C96.716,296.723,97.482,295.951,98.27,294.604z"/>
	<path fill-rule="evenodd" clip-rule="evenodd" d="M405.651,297.665c-1.209,0.822-1.972,1.716-2.452,1.583
		c-0.84-0.23-1.506-1.091-2.246-1.688c0.622-0.644,1.252-1.811,1.863-1.801C403.596,295.771,404.358,296.735,405.651,297.665z"/>
	<path fill-rule="evenodd" clip-rule="evenodd" d="M140.177,271.655c0.91,1.203,1.896,2.123,1.747,2.379
		c-0.493,0.846-1.398,1.449-2.145,2.146c-0.503-0.571-1.484-1.228-1.402-1.696C138.523,273.648,139.315,272.928,140.177,271.655z"/>
	<path fill-rule="evenodd" clip-rule="evenodd" d="M323.702,179.015c0.88,1.317,1.786,2.086,1.775,2.845
		c-0.008,0.608-1.127,1.201-1.754,1.801c-0.596-0.734-1.441-1.395-1.685-2.231C321.908,180.985,322.82,180.236,323.702,179.015z"/>
	<path fill-rule="evenodd" clip-rule="evenodd" d="M316.613,324.523c0.48,0.75,1.461,1.626,1.312,2.219
		c-0.184,0.729-1.234,1.441-2.059,1.714c-0.327,0.108-1.499-0.994-1.488-1.528c0.016-0.799,0.738-1.584,1.159-2.375
		C315.896,324.543,316.255,324.532,316.613,324.523z"/>
	<path fill-rule="evenodd" clip-rule="evenodd" d="M43.245,312.854c-1.054-1.185-2.163-1.913-2.079-2.46
		c0.116-0.759,1.125-1.383,1.751-2.065c0.604,0.593,1.58,1.116,1.704,1.796C44.737,310.759,43.946,311.557,43.245,312.854z"/>
	<path fill-rule="evenodd" clip-rule="evenodd" d="M153.964,226.815c-1.277,0.797-2.088,1.701-2.713,1.587
		c-0.694-0.127-1.681-1.18-1.687-1.837c-0.005-0.665,1.148-1.957,1.591-1.875C151.997,224.845,152.693,225.786,153.964,226.815z"/>
	<path fill-rule="evenodd" clip-rule="evenodd" d="M234.456,348.775c-1.353,0.837-2.123,1.623-2.966,1.713
		c-0.481,0.051-1.083-1.036-1.63-1.612c0.696-0.647,1.303-1.557,2.125-1.836C232.41,346.896,233.215,347.864,234.456,348.775z"/>
	<path fill-rule="evenodd" clip-rule="evenodd" d="M46.98,323.767c-0.951-1.358-1.96-2.173-1.882-2.864
		c0.076-0.677,1.219-1.615,1.974-1.698c0.501-0.054,1.513,1.148,1.609,1.879C48.764,321.702,47.864,322.453,46.98,323.767z"/>
	<path fill-rule="evenodd" clip-rule="evenodd" d="M306.4,351.919c-1.351,1.025-2.102,2.007-2.63,1.899
		c-0.816-0.166-1.479-1.078-2.208-1.674c0.542-0.627,1.058-1.73,1.632-1.764C303.985,350.338,304.821,351.105,306.4,351.919z"/>
	<path fill-rule="evenodd" clip-rule="evenodd" d="M295.215,140.987c0.816,1.402,1.667,2.223,1.615,2.984
		c-0.04,0.574-1.329,1.577-1.888,1.472c-0.695-0.132-1.6-1.165-1.684-1.892C293.19,142.96,294.199,142.246,295.215,140.987z"/>
	<path fill-rule="evenodd" clip-rule="evenodd" d="M92.269,169.827c-1.461,0.924-2.262,1.816-3.044,1.801
		c-0.601-0.012-1.179-1.167-1.768-1.815c0.696-0.616,1.323-1.574,2.113-1.735C90.139,167.962,90.924,168.906,92.269,169.827z"/>
	<path fill-rule="evenodd" clip-rule="evenodd" d="M392.57,291.487c0.993,1.388,1.823,2.106,1.979,2.949
		c0.079,0.425-1.135,1.582-1.632,1.509c-0.737-0.109-1.759-0.93-1.906-1.609C390.877,293.721,391.754,292.887,392.57,291.487z"/>
	<path fill-rule="evenodd" clip-rule="evenodd" d="M404.846,176.369c-1.34,0.823-2.131,1.637-2.987,1.712
		c-0.505,0.044-1.113-1.082-1.674-1.682c0.743-0.619,1.409-1.503,2.261-1.75C402.897,174.518,403.672,175.487,404.846,176.369z"/>
	<path fill-rule="evenodd" clip-rule="evenodd" d="M270.95,149.902c-1.398,0.899-2.153,1.69-2.997,1.803
		c-0.437,0.058-1.522-1.171-1.439-1.675c0.121-0.743,0.957-1.803,1.612-1.901C268.766,148.033,269.562,148.974,270.95,149.902z"/>
	<path fill-rule="evenodd" clip-rule="evenodd" d="M310.924,361.55c-1.471,0.846-2.26,1.61-3.097,1.668
		c-0.535,0.036-1.142-0.972-1.716-1.511c0.659-0.68,1.229-1.721,2.01-1.915C308.688,359.65,309.534,360.629,310.924,361.55z"/>
	<path fill-rule="evenodd" clip-rule="evenodd" d="M151.779,192.067c-1.19,0.779-2.233,1.729-2.462,1.563
		c-0.796-0.58-1.31-1.547-1.931-2.368c0.635-0.464,1.415-1.42,1.874-1.286C150.078,190.215,150.702,191.115,151.779,192.067z"/>
	<path fill-rule="evenodd" clip-rule="evenodd" d="M208.888,143.66c-1.39,0.969-2.116,1.87-2.719,1.793
		c-0.712-0.09-1.756-0.964-1.842-1.608c-0.079-0.591,0.894-1.839,1.458-1.872C206.545,141.928,207.358,142.769,208.888,143.66z"/>
	<path fill-rule="evenodd" clip-rule="evenodd" d="M351.219,239.593c-0.977-1.404-1.903-2.147-1.864-2.835
		c0.044-0.756,0.975-1.461,1.52-2.188c0.576,0.654,1.504,1.249,1.626,1.979C352.617,237.249,351.898,238.088,351.219,239.593z"/>
	<path fill-rule="evenodd" clip-rule="evenodd" d="M200.807,121.953c-1.46,0.842-2.39,1.759-2.863,1.565
		c-0.767-0.316-1.422-1.293-1.719-2.135c-0.097-0.274,1.151-1.485,1.638-1.403C198.686,120.119,199.394,120.947,200.807,121.953z"/>
	<path fill-rule="evenodd" clip-rule="evenodd" d="M332.603,310.634c-0.985-1.27-1.95-1.972-1.937-2.656
		c0.013-0.633,0.989-1.58,1.694-1.748c0.449-0.106,1.616,0.921,1.665,1.506C334.087,308.464,333.327,309.261,332.603,310.634z"/>
	<path fill-rule="evenodd" clip-rule="evenodd" d="M191.011,370.563c-1.186,0.945-1.998,2.01-2.47,1.877
		c-0.801-0.228-1.389-1.211-2.065-1.877c0.622-0.58,1.205-1.563,1.877-1.628C189.008,368.87,189.755,369.743,191.011,370.563z"/>
	<path fill-rule="evenodd" clip-rule="evenodd" d="M182.377,390.216c-1.185,0.81-2.047,1.811-2.567,1.657
		c-0.767-0.228-1.29-1.277-1.917-1.977c0.657-0.561,1.312-1.561,1.972-1.564C180.542,388.329,181.226,389.298,182.377,390.216z"/>
	<path fill-rule="evenodd" clip-rule="evenodd" d="M325.892,397.895c0.895,1.508,1.609,2.325,1.818,3.257
		c0.084,0.382-1.281,1.516-1.386,1.441c-0.832-0.576-1.703-1.268-2.154-2.136C324.006,400.14,324.949,399.249,325.892,397.895z"/>
	<path fill-rule="evenodd" clip-rule="evenodd" d="M141.509,208.756c0.816,1.41,1.617,2.169,1.537,2.821
		c-0.087,0.708-0.995,1.315-1.544,1.966c-0.627-0.645-1.641-1.224-1.762-1.952C139.637,210.974,140.565,210.184,141.509,208.756z"/>
	<path fill-rule="evenodd" clip-rule="evenodd" d="M321.266,388.524c0.875,1.286,1.774,2.03,1.754,2.749
		c-0.019,0.66-1.029,1.293-1.602,1.938c-0.641-0.63-1.701-1.198-1.801-1.903C319.524,390.641,320.438,389.832,321.266,388.524z"/>
	<path fill-rule="evenodd" clip-rule="evenodd" d="M146.675,204.125c-0.875-1.134-1.864-1.861-1.8-2.481
		c0.071-0.699,1.089-1.302,1.695-1.946c0.605,0.726,1.446,1.375,1.713,2.209C148.414,202.317,147.479,203.067,146.675,204.125z"/>
	<path fill-rule="evenodd" clip-rule="evenodd" d="M316.85,170.483c-1.135,0.813-1.815,1.67-2.506,1.678
		c-0.574,0.007-1.162-0.981-1.744-1.529c0.651-0.671,1.209-1.552,2.002-1.909C314.919,168.582,315.756,169.596,316.85,170.483z"/>
	<path fill-rule="evenodd" clip-rule="evenodd" d="M421.146,304.216c1.241-0.898,2.018-1.869,2.56-1.754
		c0.748,0.16,1.319,1.141,1.967,1.771c-0.623,0.625-1.184,1.644-1.889,1.756C423.189,306.084,422.427,305.128,421.146,304.216z"/>
	<path fill-rule="evenodd" clip-rule="evenodd" d="M122.294,186.863c-1.237,0.962-1.968,1.96-2.596,1.899
		c-0.64-0.062-1.56-1.121-1.639-1.824c-0.059-0.519,0.987-1.565,1.631-1.646C120.316,185.215,121.059,186.068,122.294,186.863z"/>
	<path fill-rule="evenodd" clip-rule="evenodd" d="M333.387,410.949c-1.05,0.9-1.788,1.914-2.184,1.794
		c-0.855-0.258-1.537-1.098-2.29-1.699c0.632-0.635,1.2-1.669,1.915-1.783C331.437,409.164,332.215,410.126,333.387,410.949z"/>
	<path fill-rule="evenodd" clip-rule="evenodd" d="M415.791,301.028c-1.301,0.839-2.069,1.727-2.732,1.651
		c-0.637-0.07-1.599-1.131-1.607-1.767c-0.009-0.577,1.056-1.608,1.684-1.638C413.813,299.245,414.534,300.144,415.791,301.028z"/>
	<path fill-rule="evenodd" clip-rule="evenodd" d="M77.962,301.231c0.71,1.204,1.552,2.01,1.4,2.52
		c-0.223,0.744-1.157,1.276-1.789,1.897c-0.571-0.645-1.615-1.311-1.587-1.93C76.018,303.018,77.008,302.358,77.962,301.231z"/>
	<path fill-rule="evenodd" clip-rule="evenodd" d="M306.226,122.036c-1.288,0.959-1.99,1.89-2.613,1.838
		c-0.716-0.059-1.361-0.985-2.037-1.534c0.594-0.633,1.109-1.646,1.802-1.787C304.002,120.425,304.82,121.255,306.226,122.036z"/>
	<path fill-rule="evenodd" clip-rule="evenodd" d="M171.014,307.83c-1.093,0.697-1.868,1.567-2.401,1.438
		c-0.7-0.17-1.65-1.111-1.67-1.747c-0.019-0.571,1.127-1.698,1.663-1.644C169.333,305.954,169.968,306.922,171.014,307.83z"/>
	<path fill-rule="evenodd" clip-rule="evenodd" d="M446.546,154.721c0.86,1.379,1.731,2.159,1.627,2.771
		c-0.121,0.708-1.102,1.27-1.71,1.894c-0.608-0.647-1.59-1.233-1.707-1.96C444.659,156.835,445.599,156.076,446.546,154.721z"/>
	<path fill-rule="evenodd" clip-rule="evenodd" d="M152.408,237.03c-1.077,0.795-1.931,1.752-2.256,1.597
		c-0.688-0.326-1.461-1.21-1.506-1.911c-0.035-0.555,0.962-1.176,1.501-1.767C150.774,235.526,151.401,236.104,152.408,237.03z"/>
	<path fill-rule="evenodd" clip-rule="evenodd" d="M188.606,343.995c0.933,1.119,1.891,1.767,1.929,2.464
		c0.032,0.599-0.988,1.253-1.542,1.883c-0.635-0.6-1.588-1.107-1.796-1.831C187.046,345.993,187.895,345.188,188.606,343.995z"/>
	<path fill-rule="evenodd" clip-rule="evenodd" d="M310.507,111.597c-1.136,0.847-1.925,1.775-2.281,1.631
		c-0.764-0.308-1.303-1.17-1.936-1.805c0.553-0.537,1.121-1.519,1.652-1.499C308.641,109.949,309.31,110.762,310.507,111.597z"/>
	<path fill-rule="evenodd" clip-rule="evenodd" d="M180.583,316.268c-0.939,0.964-1.547,1.59-2.156,2.216
		c-0.68-0.699-1.36-1.398-2.04-2.097c0.652-0.57,1.238-1.445,1.978-1.604C178.872,314.675,179.592,315.564,180.583,316.268z"/>
	<path fill-rule="evenodd" clip-rule="evenodd" d="M190.926,104.255c-0.965-1.053-1.901-1.643-2.04-2.382
		c-0.091-0.48,1.035-1.706,1.52-1.656c0.7,0.072,1.62,0.892,1.858,1.592C192.428,102.289,191.593,103.11,190.926,104.255z"/>
	<path fill-rule="evenodd" clip-rule="evenodd" d="M322.887,319.422c-0.808-1.251-1.614-1.961-1.626-2.685
		c-0.011-0.604,0.909-1.224,1.418-1.837c0.631,0.689,1.524,1.293,1.788,2.103C324.612,317.448,323.699,318.239,322.887,319.422z"/>
	<path fill-rule="evenodd" clip-rule="evenodd" d="M154.896,426.963c0.864,1.158,1.72,1.817,1.769,2.531
		c0.038,0.558-0.926,1.185-1.444,1.78c-0.65-0.646-1.546-1.194-1.85-1.975C153.217,428.901,154.124,428.091,154.896,426.963z"/>
	<path fill-rule="evenodd" clip-rule="evenodd" d="M215.603,137.732c0.925,1.249,1.753,1.894,1.799,2.591
		c0.031,0.472-1.027,1.408-1.617,1.423c-0.647,0.017-1.86-0.794-1.853-1.226C213.944,139.796,214.731,139.086,215.603,137.732z"/>
	<path fill-rule="evenodd" clip-rule="evenodd" d="M313.578,101.6c-1.186,0.762-1.92,1.601-2.58,1.545
		c-0.539-0.046-1.468-1.266-1.356-1.775c0.148-0.67,1.077-1.447,1.8-1.61C311.867,99.664,312.542,100.664,313.578,101.6z"/>
	<path fill-rule="evenodd" clip-rule="evenodd" d="M187.737,173.169c-0.936-1.361-1.781-2.066-1.813-2.806
		c-0.025-0.572,0.932-1.608,1.523-1.661c0.55-0.049,1.63,0.886,1.684,1.462C189.198,170.897,188.468,171.704,187.737,173.169z"/>
	<path fill-rule="evenodd" clip-rule="evenodd" d="M186.59,93.27c-0.714-1.175-1.495-1.887-1.429-2.511
		c0.068-0.657,0.945-1.23,1.469-1.84c0.64,0.601,1.742,1.166,1.791,1.811C188.47,91.384,187.478,92.115,186.59,93.27z"/>
	<path fill-rule="evenodd" clip-rule="evenodd" d="M196.526,112.01c-1.369,0.697-2.145,1.41-2.858,1.352
		c-0.534-0.042-1.471-1.192-1.364-1.647c0.166-0.709,1.073-1.742,1.648-1.731C194.631,109.998,195.292,110.976,196.526,112.01z"/>
	<path fill-rule="evenodd" clip-rule="evenodd" d="M272.289,348.854c-1.319,0.919-2.095,1.873-2.751,1.797
		c-0.65-0.074-1.393-1.113-1.661-1.881c-0.106-0.304,0.975-1.463,1.479-1.44C270.141,347.364,270.894,348.077,272.289,348.854z"/>
	<path fill-rule="evenodd" clip-rule="evenodd" d="M285.093,137.927c0.922,0.996,1.987,1.715,1.88,2.125
		c-0.187,0.711-1.025,1.543-1.739,1.719c-0.475,0.117-1.745-0.868-1.709-1.275C283.591,139.741,284.354,139.048,285.093,137.927z"/>
	<path fill-rule="evenodd" clip-rule="evenodd" d="M170.166,53.319c-1.411,0.693-2.205,1.405-2.91,1.326
		c-0.566-0.064-1.493-1.161-1.413-1.665c0.099-0.627,1.096-1.579,1.658-1.548C168.218,51.474,168.888,52.357,170.166,53.319z"/>
	<path fill-rule="evenodd" clip-rule="evenodd" d="M138.583,200.308c-0.814-0.965-1.679-1.559-1.779-2.263
		c-0.065-0.461,1.283-1.634,1.468-1.532c0.795,0.441,1.479,1.181,1.985,1.954C140.347,198.604,139.408,199.417,138.583,200.308z"/>
	<path fill-rule="evenodd" clip-rule="evenodd" d="M366.02,197.901c-1.23,0.926-1.919,1.845-2.592,1.833
		c-0.645-0.011-1.273-0.988-1.908-1.541c0.638-0.57,1.203-1.425,1.938-1.613C363.986,196.446,364.743,197.202,366.02,197.901z"/>
	<path fill-rule="evenodd" clip-rule="evenodd" d="M110.613,294.265c-1.067,0.769-1.824,1.69-2.293,1.562
		c-0.695-0.189-1.186-1.125-1.765-1.743c0.618-0.519,1.202-1.381,1.866-1.447C108.965,292.58,109.605,293.47,110.613,294.265z"/>
	<path fill-rule="evenodd" clip-rule="evenodd" d="M348.653,430.156c-1.127,0.792-1.854,1.683-2.387,1.579
		c-0.652-0.128-1.512-1.049-1.586-1.703c-0.06-0.535,0.983-1.724,1.398-1.664C346.84,428.479,347.498,429.296,348.653,430.156z"/>
	<path fill-rule="evenodd" clip-rule="evenodd" d="M59.195,145.073c0.821,0.988,1.634,1.599,1.821,2.361
		c0.085,0.347-1.27,1.532-1.62,1.4c-0.753-0.283-1.444-1.094-1.807-1.857C57.468,146.723,58.425,145.956,59.195,145.073z"/>
	<path fill-rule="evenodd" clip-rule="evenodd" d="M441.602,149.768c-0.876-1.026-1.858-1.69-1.792-2.219
		c0.09-0.704,1-1.302,1.557-1.944c0.543,0.544,1.458,1.045,1.528,1.646C442.97,147.883,442.239,148.611,441.602,149.768z"/>
	<path fill-rule="evenodd" clip-rule="evenodd" d="M318.732,75.302c0.811,1.215,1.656,1.942,1.672,2.687
		c0.014,0.549-1.059,1.121-1.646,1.684c-0.545-0.711-1.335-1.36-1.539-2.158C317.104,77.067,317.962,76.372,318.732,75.302z"/>
	<path fill-rule="evenodd" clip-rule="evenodd" d="M99.398,178.549c-0.67-1.371-1.317-2.131-1.319-2.893
		c-0.001-0.516,0.905-1.033,1.405-1.549c0.62,0.688,1.501,1.295,1.751,2.099C101.363,176.614,100.357,177.377,99.398,178.549z"/>
	<path fill-rule="evenodd" clip-rule="evenodd" d="M314.436,87.388c0.842,1.347,1.623,2.059,1.618,2.765
		c-0.004,0.529-1.043,1.487-1.579,1.458c-0.583-0.031-1.487-0.931-1.569-1.543C312.825,89.469,313.605,88.756,314.436,87.388z"/>
	<path fill-rule="evenodd" clip-rule="evenodd" d="M336.379,54.354c-1.143,0.733-1.87,1.515-2.243,1.373
		c-0.774-0.298-1.362-1.085-2.026-1.671c0.597-0.531,1.212-1.502,1.787-1.48C334.582,52.602,335.234,53.48,336.379,54.354z"/>
	<path fill-rule="evenodd" clip-rule="evenodd" d="M329.984,249.515c0.301,46.229-37.225,81.106-81.46,79.626
		c-45.198-1.511-77.116-37.696-77.268-79.366c-0.165-45.357,35.509-81.712,81.898-80.652
		C296.923,170.124,330.694,207.094,329.984,249.515z M250.765,172.584c-37.544,0.073-73.961,28.749-75.952,73.952
		c-1.748,39.674,28.821,77.203,73.495,78.861c40.874,1.517,76.808-29.089,78.257-74.153
		C327.936,208.598,294.59,173.173,250.765,172.584z"/>
	<path fill-rule="evenodd" clip-rule="evenodd" d="M316.641,443.403c0.323,1.336-0.646,2.137-2.43,2.835
		c-22.174,8.685-42.052,21.215-60.333,36.36c-3.934,3.259-3.73,2.47-6.928-0.254c-15.325-13.059-32.049-23.976-50.488-32.172
		c-3.656-1.625-7.367-3.131-10.982-4.842c-0.64-0.303-1.417-1.437-1.307-2.038c1.542-8.462,2.613-17.076,4.997-25.307
		c6.209-21.438,19.294-37.917,38.343-49.425c6.89-4.163,14.378-7.343,21.64-10.874c0.75-0.365,1.925-0.333,2.733-0.031
		c14.63,5.447,27.449,13.597,38.478,24.783c14.646,14.86,22.104,32.987,25.468,53.151
		C316.227,437.959,316.335,440.374,316.641,443.403z M250.991,480.088c1.493-1.159,3.546-2.697,5.542-4.307
		c16.729-13.484,35.026-24.323,54.829-32.656c0.7-0.296,1.466-1.534,1.426-2.292c-0.132-2.475-0.557-4.941-0.985-7.392
		c-3.143-17.936-10.118-34.006-22.937-47.265c-10.429-10.786-22.359-19.255-36.734-23.942c-1.211-0.395-2.837-0.297-4.029,0.18
		c-4.037,1.611-8.063,3.31-11.922,5.306c-29.219,15.113-44.398,39.66-48.137,71.874c-0.23,1.98,0.611,2.755,2.261,3.585
		c9.99,5.023,20.251,9.628,29.76,15.453C230.65,465.116,240.527,472.756,250.991,480.088z"/>
	<path fill-rule="evenodd" clip-rule="evenodd" d="M169.823,349.236c-1.177,23.653-8.843,41.735-21.444,57.815
		c-4.273,5.453-9.193,10.399-13.765,15.622c-1.234,1.41-2.348,1.495-3.918,0.485c-11.264-7.24-23.122-13.326-35.816-17.63
		c-5.708-1.938-11.541-3.56-17.408-4.94c-2.339-0.551-2.967-1.694-3.278-3.746c-0.986-6.502-1.753-13.064-3.235-19.458
		c-2.846-12.274-7.565-23.873-13.882-34.8c-2.24-3.874-2.267-3.913,1.266-6.638c11.125-8.582,23.044-15.82,36.412-20.316
		c22.038-7.41,43.329-5.776,63.965,5.32c5.057,2.718,7.91,6.175,8.65,11.731C168.235,339.185,169.287,345.662,169.823,349.236z
		 M165.952,349.831c0.23-0.033,0.46-0.066,0.691-0.1c-1.408-6.771-2.757-13.554-4.288-20.295c-0.225-0.986-1.15-2.032-2.038-2.615
		c-17.096-11.223-35.639-14.624-55.607-10.114c-16.232,3.666-30.212,11.806-43.305,21.737c-1.281,0.972-1.285,1.829-0.65,3.146
		c2.658,5.524,5.461,10.994,7.792,16.656c4.726,11.483,7.324,23.548,8.974,35.818c0.273,2.033,1.201,2.752,3.103,3.247
		c17.48,4.55,34.088,11.202,49.292,21.068c1.775,1.151,2.794,0.806,4.115-0.514c7.154-7.142,13.611-14.825,18.734-23.575
		C160.804,380.56,166.218,366.044,165.952,349.831z"/>
	<path fill-rule="evenodd" clip-rule="evenodd" d="M331.485,351.027c0.136-8.144,1.337-16.138,3.772-23.902
		c0.45-1.437,1.71-2.995,3.025-3.727c12.587-6.99,25.84-12.093,40.475-12.003c13.229,0.08,25.944,2.858,37.896,8.743
		c9.439,4.648,18.444,9.976,26.803,16.41c2.107,1.622,2.512,2.859,1.113,5.189c-10.293,17.153-15.606,35.913-17.832,55.675
		c-0.111,0.983-1.344,2.433-2.283,2.644c-19.689,4.428-37.794,12.438-54.544,23.636c-0.6,0.401-2.127,0.326-2.611-0.148
		c-12.563-12.337-23.28-25.985-29.629-42.638C334.413,372.363,331.351,361.279,331.485,351.027z M382.759,315.198
		c-14.447-0.339-25.267,2.675-35.46,7.89c-9.91,5.071-7.814,2.585-10.238,13.193c-1.995,8.735-2.604,17.577-0.902,26.505
		c4.158,21.787,15.386,39.581,30.722,55.136c1.571,1.593,2.627,1.63,4.487,0.455c15.138-9.552,31.325-16.782,48.68-21.249
		c2.462-0.635,3.091-1.941,3.591-4.169c2.196-9.786,4.119-19.679,7.119-29.225c2.357-7.5,6.139-14.555,9.313-21.797
		c0.644-1.467,1.22-2.816-0.823-3.684c-0.559-0.237-1.012-0.72-1.514-1.092C420.508,324.406,401.882,315.324,382.759,315.198z"/>
	<path fill-rule="evenodd" clip-rule="evenodd" d="M446.742,289.152c-21.399-0.287-41.786-5.91-59.978-18.495
		c-8.747-6.051-15.611-14.03-21.494-22.833c-0.51-0.763-0.42-2.218-0.108-3.191c5.866-18.4,16.404-33.649,31.399-45.765
		c15.704-12.689,33.993-19.359,53.699-22.617c1.418-0.235,2,0.247,2.412,1.68c3.304,11.485,7.593,22.602,13.921,32.767
		c4.411,7.084,9.322,13.865,14.173,20.666c2.33,3.268,2.516,3.703,0.096,6.902c-9.824,12.985-15.593,27.805-19.762,43.377
		c-2.198,8.212-0.044,6.472-8.687,7.243C450.729,289.037,449.031,289.05,446.742,289.152z M456.564,284.695
		c0.501-1.957,0.901-3.686,1.387-5.391c4.326-15.215,9.94-29.857,19.445-42.699c1.201-1.622,0.519-2.473-0.4-3.665
		c-11.722-15.188-21.214-31.57-26.643-50.104c-0.516-1.76-1.149-2.828-3.34-2.085c-1.919,0.65-3.987,0.855-5.988,1.266
		c-18.112,3.719-34.069,11.595-47.564,24.377c-11.14,10.551-19.36,22.914-23.91,37.611c-0.326,1.055-0.333,2.557,0.19,3.458
		c1.333,2.296,2.934,4.468,4.636,6.518c8.35,10.054,18.73,17.311,30.672,22.571C421.48,283.789,438.629,285.974,456.564,284.695z"/>
	<path fill-rule="evenodd" clip-rule="evenodd" d="M321.822,129.557c-0.441-14.496,4.303-28.052,10.782-41.229
		c4.614-9.387,9.946-18.274,16.305-26.575c1.411-1.841,2.584-2.158,4.65-1.071c14.812,7.793,30.653,12.209,47.231,14.131
		c0.09,0.01,0.177,0.026,0.265,0.041c1.853,0.315,4.222,0.05,5.411,1.11c1.165,1.037,1.14,3.419,1.613,5.217
		c4.252,16.124,10.399,31.371,20.629,44.741c2.421,3.164,2.349,3.368-0.06,6.369c-7.638,9.518-16.38,17.921-26.396,24.836
		c-15.604,10.773-32.915,16.093-51.962,14.023c-6.137-0.667-12.156-2.604-18.149-4.25c-1.208-0.332-2.466-1.792-3.009-3.034
		C324.42,153.082,321.394,141.901,321.822,129.557z M358.122,167.471c2.406,0,4.838,0.225,7.215-0.039
		c11.516-1.276,22.09-5.259,31.793-11.537c10.705-6.927,20.265-15.108,27.694-25.596c0.864-1.219,1.203-2.125,0.164-3.53
		c-9.811-13.276-16.429-28.062-20.209-44.085c-0.709-3.01-2.079-3.797-4.948-4.081c-14.824-1.467-28.996-5.48-42.552-11.633
		c-5.33-2.419-5.396-2.573-8.798,2.061c-10.704,14.581-18.688,30.452-22.052,48.36c-2.816,15.003-0.407,29.406,5.823,43.216
		c0.521,1.154,1.774,2.333,2.959,2.774C342.584,166.128,350.133,168.124,358.122,167.471z"/>
	<path fill-rule="evenodd" clip-rule="evenodd" d="M50.045,289.036c-7.843-0.017-7.757-0.04-9.774-7.543
		c-4.112-15.296-9.871-29.854-19.352-42.736c-2.612-3.549-2.532-3.653,0.032-7.123c7.782-10.532,15.19-21.315,20.457-33.36
		c2.696-6.167,4.859-12.572,7.129-18.917c1.37-3.826,1.285-4.01,5.137-3.195c16.379,3.462,32.042,8.774,45.867,18.537
		c16.553,11.688,28.231,27.107,35.195,46.158c1.485,4.063,1.218,7.122-1.53,10.887c-13.748,18.837-32.517,29.454-54.867,34.113
		c-9.268,1.932-18.788,2.652-28.193,3.924C50.112,289.533,50.079,289.285,50.045,289.036z M53.597,284.648
		c13.203,0.167,25.977-2.231,38.403-6.646c16.182-5.752,29.394-15.365,38.791-29.877c0.722-1.115,1.126-2.937,0.77-4.168
		c-3.337-11.54-9.087-21.867-17.029-30.808C98.409,195,77.896,184.752,54.181,180.52c-1.59-0.284-2.178,0.113-2.833,1.744
		c-3.635,9.05-6.955,18.296-11.474,26.903c-4.363,8.309-9.955,15.987-15.221,23.799c-1.298,1.927-1.128,3.176,0.085,4.89
		c8.41,11.882,13.819,25.178,18.18,38.957c0.825,2.604,0.857,6.265,2.625,7.546C47.349,285.667,50.842,284.648,53.597,284.648z"/>
	<path fill-rule="evenodd" clip-rule="evenodd" d="M303.092,56.253c0.553,19.751-3.429,38.396-14.701,54.969
		c-8.575,12.608-19.99,21.829-33.938,28.071c-3.083,1.38-5.445,1.516-8.392-0.125c-10.082-5.614-19.865-11.57-27.559-20.397
		c-10.044-11.523-15.673-25.121-18.539-39.938c-2.121-10.972-2.712-22.07-2.13-33.251c0.165-3.155,1.332-4.575,4.39-5.457
		c15.543-4.484,30.285-10.798,43.69-19.996c4.721-3.239,4.715-3.217,9.45,0.127c13.526,9.551,28.572,15.849,44.397,20.333
		c2.556,0.724,3.295,1.961,3.319,4.169C303.121,48.59,303.092,52.422,303.092,56.253z M201.587,55.193
		c-0.127,0.004-0.254,0.008-0.381,0.013c0.256,3.64,0.475,7.284,0.774,10.92c1.083,13.155,4.212,25.715,10.588,37.396
		c7.896,14.464,19.514,24.75,34.541,31.304c1.985,0.866,3.86,1.169,6.111,0.276c16.017-6.355,27.831-17.503,36.022-32.345
		c9.637-17.459,12.025-36.442,10.163-56.097c-0.156-1.642-0.893-2.394-2.546-2.865c-15.926-4.537-30.906-11.162-44.513-20.686
		c-1.639-1.146-2.859-0.884-4.333,0.107c-2.878,1.934-5.744,3.904-8.748,5.625c-11.075,6.339-22.863,11.068-34.95,15.055
		c-1.805,0.596-2.729,1.427-2.729,3.285C201.588,49.851,201.587,52.521,201.587,55.193z"/>
	<path fill-rule="evenodd" clip-rule="evenodd" d="M141.854,171.246c-14.805,0.496-30.24-5.953-44.679-15.696
		c-9.424-6.358-17.412-14.137-24.429-22.993c-2.705-3.415-2.651-4.044-0.171-7.437c9.94-13.598,16.833-28.604,20.707-44.997
		c0.225-0.953,0.476-1.9,0.662-2.86c0.318-1.642,1.19-2.226,2.946-2.335c18.086-1.131,35.152-6.001,51.231-14.329
		c1.456-0.754,2.512-0.914,3.694,0.526c12.147,14.788,20.768,31.441,25.751,49.864c4.888,18.066,1.689,35.452-5.472,52.36
		c-0.948,2.24-2.411,3.506-4.736,4.146C159.969,169.534,152.568,171.433,141.854,171.246z M176.105,125.537
		c-0.264-2.229-0.437-5.906-1.164-9.47c-3.718-18.224-12.471-34.085-23.209-49.013c-1.638-2.277-3.054-2.37-5.492-1.117
		c-14.342,7.368-29.691,11.376-45.7,12.73c-2.738,0.231-3.515,1.12-4.104,3.534c-3.964,16.26-11.114,31.077-20.583,44.834
		c-0.465,0.675-0.444,2.245,0.031,2.92c5.108,7.269,11.279,13.518,18.381,18.878c8.652,6.531,17.836,12.195,28.2,15.421
		c13.918,4.331,28.011,4.133,42.098,0.339c2.139-0.576,3.324-1.587,4.204-3.525C173.69,150.222,176.319,138.901,176.105,125.537z"/>
	<path fill-rule="evenodd" clip-rule="evenodd" d="M252.613,318.229c-34.255,1.334-67.196-23.995-70.244-64.091
		c-2.931-38.553,24.71-70.833,63.443-74.029c34.332-2.832,71.208,23.433,73.274,64.03
		C320.964,280.992,296.088,316.503,252.613,318.229z M185.939,250.269c0.342,36.208,29.726,65.139,65.909,64.325
		c36.798-0.828,63.688-28.981,63.5-67.253c-0.188-38.618-33.407-64.174-65.567-63.596
		C214.934,184.37,185.857,212.053,185.939,250.269z"/>
	<path fill-rule="evenodd" clip-rule="evenodd" d="M305.838,436.974c-0.883,0.883-1.617,2.055-2.675,2.6
		c-4.66,2.4-9.486,4.482-14.119,6.932c-12.698,6.714-24.768,14.419-35.842,23.594c-1.891,1.566-3.102,1.516-4.997-0.008
		c-15.333-12.327-31.888-22.69-50.044-30.364c-2.247-0.95-2.858-2.22-2.522-4.485c4.561-30.788,21.172-52.274,49.591-64.891
		c3.99-1.771,7.2-1.817,11.126,0.1c25.877,12.627,42.446,32.529,48.34,60.944c0.343,1.651,0.44,3.352,0.652,5.029
		C305.512,436.607,305.675,436.79,305.838,436.974z M250.66,467.308c2.297-1.722,4.458-3.431,6.705-5.015
		c13.536-9.549,27.342-18.638,42.643-25.22c0.702-0.301,1.433-1.855,1.267-2.638c-0.994-4.683-1.914-9.426-3.47-13.939
		c-7.809-22.655-23.47-37.954-45.153-47.44c-0.854-0.374-2.13-0.39-2.992-0.039c-3.697,1.503-7.436,2.979-10.938,4.872
		c-22.087,11.942-34.705,30.605-39.094,55.166c-0.509,2.853,0.566,3.505,2.802,4.518
		C219.698,445.396,235.375,455.839,250.66,467.308z"/>
	<path fill-rule="evenodd" clip-rule="evenodd" d="M68.62,341.672c7.536-6.646,16-11.345,25.054-14.902
		c20.313-7.981,40.252-7.693,59.589,3.283c1.957,1.111,3.011,2.566,3.577,4.673c4.632,17.259,2.255,33.643-5.905,49.384
		c-4.8,9.26-11.41,17.184-18.047,25.106c-1.408,1.682-2.76,0.847-4.268,0.144c-9.744-4.549-19.448-9.192-29.305-13.483
		c-4.382-1.906-9.112-3.005-13.63-4.62c-0.821-0.293-1.883-1.243-1.989-2.008c-2.267-16.281-7.263-31.686-14.595-46.363
		C68.944,342.574,68.842,342.237,68.62,341.672z M119.562,324.652c-4.047,0.546-8.151,0.829-12.13,1.688
		c-11.636,2.512-22.073,7.747-31.88,14.402c-2.229,1.513-2.51,2.807-1.278,5.17c6.258,12.006,9.956,24.866,11.948,38.197
		c0.398,2.664,1.397,3.862,3.813,4.599c13.13,4.003,25.636,9.506,37.622,16.16c2.287,1.27,3.763,1.015,5.228-0.937
		c3.419-4.556,7.083-8.947,10.24-13.677c10.946-16.402,15.806-34.067,10.223-53.628c-0.403-1.414-1.581-3.008-2.846-3.715
		C140.922,327.563,130.618,324.815,119.562,324.652z"/>
	<path fill-rule="evenodd" clip-rule="evenodd" d="M378.391,321.544c16.104,0.007,29.52,4.584,42.086,11.921
		c3.6,2.102,6.909,4.695,10.421,6.954c1.523,0.979,1.329,1.967,0.658,3.351c-6.312,13.022-10.808,26.652-13.559,40.858
		c-0.034,0.175-0.146,0.349-0.131,0.515c0.435,4.989-2.328,6.541-6.817,7.716c-12.964,3.396-25.034,9.126-36.734,15.607
		c-4.446,2.464-4.558,2.639-7.796-1.152c-8.89-10.411-16.896-21.414-21.122-34.654c-4.164-13.046-4.394-26.242-0.875-39.472
		c0.256-0.964,1.046-2.088,1.902-2.544c7.891-4.198,16.103-7.55,25.074-8.599C374.236,321.725,377.002,321.641,378.391,321.544z
		 M377.024,325.33c-9.192,0.211-17.727,2.817-25.711,7.188c-1.486,0.813-3.153,2.369-3.568,3.898
		c-2.754,10.154-2.776,20.446-0.231,30.636c3.582,14.346,11.688,26.177,21.201,37.192c1.354,1.567,2.473,1.774,4.29,0.801
		c12.54-6.729,25.437-12.625,39.131-16.674c0.958-0.284,2.047-1.783,2.211-2.851c2.182-14.17,6.691-27.591,12.799-40.505
		c0.693-1.469,0.718-2.436-0.746-3.273c-5.999-3.439-11.822-7.233-18.02-10.263C398.534,326.668,387.909,325.104,377.024,325.33z"/>
	<path fill-rule="evenodd" clip-rule="evenodd" d="M442.525,278.375c-21.604-1.028-40.794-7.048-56.712-21.444
		c-3.408-3.083-6.282-6.779-9.208-10.353c-0.554-0.675-0.538-2.224-0.203-3.164c9.065-25.477,26.571-42.461,52.05-51.247
		c4.597-1.585,9.425-2.486,14.087-3.903c2.077-0.631,2.943,0.109,3.55,1.932c3.599,10.832,8.466,21.09,14.31,30.877
		c2.46,4.122,5.024,8.199,7.84,12.08c1.089,1.5,0.853,2.376,0.056,3.717c-5.641,9.502-10.31,19.463-13.795,29.959
		c-0.979,2.948-1.684,5.997-2.801,8.888c-0.347,0.895-1.56,1.849-2.519,2.032C446.834,278.203,444.405,278.224,442.525,278.375z
		 M443.307,274.63c1.91-0.514,4.807,1.373,5.844-2.457c3.411-12.591,8.756-24.402,14.979-35.828c0.688-1.262,0.672-2.128-0.2-3.329
		c-8.42-11.594-14.762-24.311-19.882-37.639c-1.051-2.733-2.513-3.306-5.018-2.475c-4.975,1.65-10.058,3.021-14.915,4.961
		c-21.136,8.439-35.344,23.685-43.367,44.838c-0.256,0.67-0.143,1.842,0.297,2.355c2.834,3.313,5.588,6.739,8.77,9.697
		C404.805,268.693,423.066,274.051,443.307,274.63z"/>
	<path fill-rule="evenodd" clip-rule="evenodd" d="M417.527,128.311c-7.118,10.565-16.482,18.461-27.459,24.567
		c-11.911,6.627-24.628,9.663-38.236,8.196c-4.047-0.437-8.076-1.358-11.993-2.476c-1.141-0.325-2.207-1.953-2.737-3.223
		c-7.407-17.748-7.813-35.563-0.23-53.389c4.061-9.547,9.538-18.27,15.55-26.685c1.196-1.675,2.471-1.87,4.349-1.053
		c12.202,5.313,24.85,9.065,38.134,10.415c2.175,0.221,3.403,0.971,4.11,3.282C403.365,102.187,409.239,115.761,417.527,128.311z
		 M357.703,158.092c4.672-0.527,9.487-0.483,13.971-1.682c15.555-4.159,28.488-12.679,38.957-24.887
		c2.726-3.18,2.599-3.282,0.372-6.99c-0.641-1.066-1.234-2.161-1.865-3.232c-5.666-9.624-9.748-19.936-13.379-30.456
		c-0.3-0.87-1.337-1.97-2.168-2.102c-12.696-2.01-25.056-5.21-36.915-10.205c-1.381-0.583-2.058-0.343-2.788,0.897
		c-3.697,6.28-7.669,12.407-11.165,18.795c-9.747,17.817-10.146,36.106-2.177,54.663c0.378,0.88,1.135,2.061,1.907,2.233
		C347.461,156.242,352.521,157.114,357.703,158.092z"/>
	<path fill-rule="evenodd" clip-rule="evenodd" d="M31.67,235.596c5.246-8.666,10.714-16.904,15.335-25.593
		c3.396-6.387,5.724-13.347,8.435-20.088c0.563-1.4,1.063-2.368,2.822-1.978c14.917,3.312,28.917,8.646,40.962,18.364
		c11.948,9.64,20.338,21.761,25.103,36.333c0.413,1.261,0.056,3.239-0.713,4.351C114.8,259.719,102.847,268.201,88.139,273
		c-11.463,3.74-23.208,5.185-35.207,5.123c-2.075-0.01-3.055-0.601-3.656-2.831C45.417,260.969,39.292,247.622,31.67,235.596z
		 M59.819,274.454c4.059-0.479,8.149-0.773,12.17-1.468c18.533-3.2,34.777-10.642,47.007-25.532
		c1.618-1.968,2.027-3.739,1.065-6.048c-3.503-8.407-7.451-16.501-13.711-23.323c-12.201-13.295-27.318-21.345-44.691-25.582
		c-2.331-0.569-3.045,0.236-3.837,2.223c-5.458,13.685-12.114,26.743-20.934,38.608c-0.951,1.279-0.861,2.167-0.077,3.546
		c5.677,9.98,10.584,20.319,14.069,31.291C52.91,274.563,52.912,274.563,59.819,274.454z"/>
	<path fill-rule="evenodd" clip-rule="evenodd" d="M208.376,60.672c0.217-3.461,0.328-6.935,0.731-10.374
		c0.091-0.774,1.082-1.855,1.861-2.075c13.439-3.777,25.957-9.583,37.865-16.806c0.848-0.515,2.506-0.739,3.23-0.258
		c11.955,7.923,24.996,13.444,38.562,17.884c0.916,0.3,2.188,1.518,2.188,2.311c0.021,14.724-0.725,29.358-6.592,43.188
		c-6.764,15.948-18.52,26.939-34.058,34.118c-0.742,0.343-1.926,0.329-2.672-0.017c-18.763-8.694-32.015-22.41-37.336-42.693
		c-2.151-8.201-2.961-16.754-4.381-25.146C207.976,60.76,208.175,60.716,208.376,60.672z M212.318,62.948
		c0.427,8.878,1.847,20.532,6.838,31.536c6.064,13.369,16.248,22.489,29.067,29.042c1.801,0.921,3.471,1.033,5.253-0.106
		c3.146-2.011,6.546-3.664,9.516-5.897c21.082-15.858,26.981-38.084,26.164-63.06c-0.048-1.46-0.745-2.182-2.334-2.713
		c-11.931-3.985-23.431-8.976-34.036-15.809c-1.663-1.071-2.791-1.281-4.515-0.196c-9.145,5.752-18.971,10.133-29.065,13.906
		C212.065,52.319,212.028,52.219,212.318,62.948z"/>
	<path fill-rule="evenodd" clip-rule="evenodd" d="M140.701,161.488c-19.074-1.314-34.394-10.15-48.029-22.53
		c-2.953-2.68-5.403-5.909-8.143-8.83c-1.091-1.164-1.187-2.188-0.272-3.527c8.346-12.23,13.792-25.788,18.222-39.82
		c0.271-0.857,1.368-1.894,2.228-2.054c6.267-1.167,12.702-1.644,18.833-3.281c7.253-1.938,14.29-4.727,21.339-7.364
		c1.73-0.647,2.744-0.567,3.834,0.871c10.676,14.082,18.686,29.41,20.999,47.139c1.335,10.238-0.879,20.106-4.249,29.839
		c-1.489,4.305-3.748,6.684-8.156,7.258C151.766,159.912,146.236,160.718,140.701,161.488z M143.401,157.201
		c3.965-0.485,7.924-1.032,11.897-1.435c3.239-0.328,4.956-1.886,6.261-5.04c5.916-14.307,6.439-28.555,1.043-43.136
		c-3.611-9.759-8.782-18.614-14.374-27.306c-1.39-2.162-2.688-2.202-4.746-1.343c-10.388,4.333-21.155,7.406-32.294,8.985
		c-4.127,0.585-6.952,2.025-7.472,6.517c-0.12,1.037-0.515,2.081-0.966,3.035c-4.438,9.39-8.857,18.792-13.436,28.113
		c-0.837,1.703-1.379,2.885,0.256,4.404c1.755,1.629,3.17,3.619,4.878,5.306C108.013,148.687,123.769,157.141,143.401,157.201z"/>
	<path fill-rule="evenodd" clip-rule="evenodd" d="M250.377,194.29c29.622-0.298,54.584,24.406,54.765,54.423
		c0.18,30.148-24.114,55.524-55.176,55.507c-29.069-0.016-53.816-24.643-53.767-54.569
		C196.251,218.019,221.121,193.853,250.377,194.29z M250.202,300.527c30.059-0.838,52.577-24.114,51.282-54.006
		c-1.244-28.747-27.374-50.355-54.696-48.484c-26.494,1.815-48.68,25.538-46.887,54.305
		C201.61,279.775,223.086,300.246,250.202,300.527z"/>
	<path fill-rule="evenodd" clip-rule="evenodd" d="M281.955,415.88c0.931,15.705-10.539,32.87-30.24,33.58
		c-15.284,0.55-31.332-10.512-33-29.787c-1.653-19.104,15.001-33.151,28.507-34.273C265.277,383.897,282.169,399.503,281.955,415.88
		z M278.649,417.175c0.461-15.703-14.269-27.934-28.272-28.05c-15.093-0.127-28.44,12.958-28.266,28.32
		c0.173,15.313,12.279,28.311,27.834,28.468C266.136,446.077,278.563,433.576,278.649,417.175z"/>
	<path fill-rule="evenodd" clip-rule="evenodd" d="M145.804,358.106c0.705,13.869-11.729,27.296-27.757,27.019
		c-14.554-0.251-26.282-12.778-26.536-27.704c-0.292-17.163,15.445-27.234,28.422-27.116
		C134.344,330.437,145.957,342.922,145.804,358.106z M119.144,333.966c-12.659-0.136-23.963,10.449-24.208,22.625
		c-0.325,16.158,12.634,25.14,23.432,25.024c12.876-0.138,23.99-10.01,24.16-23.253C142.7,344.866,132.396,334.107,119.144,333.966z
		"/>
	<path fill-rule="evenodd" clip-rule="evenodd" d="M409.382,357.193c-0.351,18.283-14.773,27.91-27.946,27.618
		c-15.19-0.336-26.538-12.891-25.727-28.581c0.766-14.826,13.308-25.839,27.321-25.776
		C398.7,330.523,409.744,344.243,409.382,357.193z M359.137,357.651c0.346,13.874,10.446,23.226,22.755,23.48
		c13.096,0.271,23.954-10.437,24.074-23.438c0.121-13.019-10.036-23.504-22.888-23.627
		C369.902,333.94,359.223,344.461,359.137,357.651z"/>
	<path fill-rule="evenodd" clip-rule="evenodd" d="M422.888,208.034c15.99-0.242,25.883,13.731,25.844,26.974
		c-0.046,15.36-12.454,27.485-27.628,26.662c-13.466-0.73-25.309-10.899-25.167-27.504
		C396.061,219.675,408.684,207.684,422.888,208.034z M445.209,235.074c-0.089-13.346-9.868-23.629-22.521-23.545
		c-12.251,0.08-23.457,11.09-23.206,23.258c0.266,12.958,10.256,23.859,22.704,23.556
		C435.502,258.019,445.198,247.702,445.209,235.074z"/>
	<path fill-rule="evenodd" clip-rule="evenodd" d="M367.427,95.753c14.741-0.092,26.593,11.724,26.692,26.616
		c0.103,15.164-11.493,27.027-26.277,27.374c-16.342,0.383-26.64-14.469-26.647-26.43
		C341.186,108.384,353.059,95.843,367.427,95.753z M344.912,122.715c-0.345,12.972,10.046,23.28,22.734,23.319
		c12.596,0.039,23.01-10.548,23.132-23.256C390.9,110,380.525,99.51,367.804,99.553C354.921,99.595,344.833,109.803,344.912,122.715
		z"/>
	<path fill-rule="evenodd" clip-rule="evenodd" d="M105.214,235.266c0.356,13.925-11.162,25.934-24.848,26.426
		c-15.665,0.562-27.104-10.993-27.426-27.101c-0.276-13.787,11.808-26.409,25.509-26.886
		C92.785,207.206,105.648,219.558,105.214,235.266z M101.899,235.115c0.023-13.095-9.976-23.659-22.414-23.68
		c-12.527-0.021-23.005,10.488-23.093,23.163c-0.089,12.84,10.014,23.45,22.345,23.469
		C91.563,258.085,101.876,247.865,101.899,235.115z"/>
	<path fill-rule="evenodd" clip-rule="evenodd" d="M278.052,80.174c0.521,16.243-12.379,28.836-28.022,28.532
		c-14.847-0.29-27.354-11.77-27.202-28.925c0.109-12.237,10.328-27.266,28.632-26.929C269.229,53.177,278.615,67.396,278.052,80.174
		z M250.686,104.947c14.293-0.049,24.8-10.535,24.459-24.966c-0.33-13.974-9.76-23.414-23.729-23.672
		c-14.609-0.271-25.033,10.312-25.057,24.714C226.335,95.129,239.167,105.549,250.686,104.947z"/>
	<path fill-rule="evenodd" clip-rule="evenodd" d="M160.81,122.313c-0.071,15.296-12.374,27.896-27.421,27.425
		c-13.168-0.413-25.939-10.693-25.985-27.147c-0.042-15.072,12.257-27.362,27.282-27.311
		C149.286,95.33,160.881,107.327,160.81,122.313z M135.125,145.767c11.38,0.216,23.009-10.805,22.362-24.407
		c-0.602-12.667-11.589-23.164-23.502-22.576c-13.723,0.678-23.775,11.595-22.981,24.957
		C111.766,136.558,122.656,146.503,135.125,145.767z"/>
	<path fill-rule="evenodd" clip-rule="evenodd" d="M293.769,252.237c-1.132,21.346-20.527,42.755-46.607,40.462
		c-26.202-2.302-41.328-24.498-39.689-47.028c1.704-23.437,22.927-41.796,45.428-40.011
		C275.249,207.433,295.541,227.378,293.769,252.237z M250.379,289.112c21.804,0.563,40.401-19.275,39.876-40.241
		c-0.597-23.787-21.253-40.154-41.144-39.595c-22.363,0.628-39.265,19.98-37.984,42.146
		C212.332,272.298,228.784,288.838,250.379,289.112z"/>
	<path fill-rule="evenodd" clip-rule="evenodd" d="M271.111,417.513c0.261,10.502-9.04,20.513-19.221,20.938
		c-11.324,0.472-21.935-7.306-22.519-20.416c-0.511-11.468,9.022-21.613,20.035-21.864
		C261.151,395.902,270.813,405.401,271.111,417.513z M267.461,417.601c-0.071-9.344-8.589-18.177-17.361-18.006
		c-9.067,0.175-17.297,8.507-17.211,17.422c0.096,10.038,7.852,17.725,17.833,17.678
		C260.17,434.649,267.533,427.129,267.461,417.601z"/>
	<path fill-rule="evenodd" clip-rule="evenodd" d="M119.027,340.988c8.907-0.01,16.61,7.608,16.596,16.409
		c-0.016,9.708-7.715,17.35-17.323,17.193c-8.958-0.145-16.455-7.749-16.424-16.658
		C101.909,348.277,109.277,340.998,119.027,340.988z M131.919,358.151c-0.057-7.665-5.77-13.472-13.223-13.438
		c-7.641,0.033-13.214,5.875-13.137,13.766c0.066,6.8,6.161,12.492,13.355,12.475C125.991,370.937,131.971,365.049,131.919,358.151z
		"/>
	<path fill-rule="evenodd" clip-rule="evenodd" d="M398.988,357.867c-0.055,9.178-7.488,16.4-16.882,16.405
		c-9.29,0.005-16.352-7.474-16.243-17.2c0.097-8.68,7.805-16.065,16.738-16.037C391.787,341.063,399.044,348.517,398.988,357.867z
		 M369.528,357.896c-0.005,7.176,5.475,12.59,12.719,12.563c7.379-0.024,13.102-5.537,13.079-12.595
		c-0.025-7.407-5.678-13.166-12.896-13.139C375.253,344.754,369.534,350.591,369.528,357.896z"/>
	<path fill-rule="evenodd" clip-rule="evenodd" d="M422.129,251.157c-8.481,0.229-15.781-7.153-16.089-16.269
		c-0.268-7.94,7.712-16.229,15.878-16.49c9.011-0.29,16.455,6.721,16.688,15.863C438.836,243.317,431.798,251.412,422.129,251.157z
		 M434.894,234.712c0.045-6.795-5.78-12.659-12.545-12.628c-6.551,0.03-12.526,6.069-12.645,12.779
		c-0.118,6.655,5.81,12.708,12.536,12.803C428.861,247.758,434.849,241.629,434.894,234.712z"/>
	<path fill-rule="evenodd" clip-rule="evenodd" d="M368.293,106.523c8.203,0.031,15.446,7.183,15.474,15.276
		c0.03,9.492-7.191,17.373-15.913,17.364c-8.978-0.009-16.479-7.567-16.439-16.563C351.452,113.761,359.088,106.489,368.293,106.523
		z M367.826,110.204c-7.006,0.018-12.685,5.527-12.718,12.339c-0.034,6.914,5.857,12.944,12.604,12.897
		c6.689-0.046,12.522-5.94,12.572-12.705C380.335,115.815,374.739,110.187,367.826,110.204z"/>
	<path fill-rule="evenodd" clip-rule="evenodd" d="M94.899,234.888c-0.039,8.955-7.417,16.27-16.32,16.182
		c-8.711-0.086-15.522-7.164-15.446-16.051c0.081-9.508,7.324-16.688,16.759-16.615C88.211,218.47,94.938,225.858,94.899,234.888z
		 M79.197,247.358c6.716-0.048,12.42-5.799,12.401-12.503c-0.018-6.655-5.898-12.713-12.305-12.68
		c-6.801,0.037-12.763,6.113-12.658,12.902C66.741,241.944,72.329,247.407,79.197,247.358z"/>
	<path fill-rule="evenodd" clip-rule="evenodd" d="M267.279,80.535c0.005,9.793-7.188,16.915-17.087,16.918
		c-9.146,0.003-16.626-7.364-16.571-16.32c0.06-9.791,7.393-17.016,17.354-17.1C260.009,63.956,267.274,71.312,267.279,80.535z
		 M237.293,80.48c-0.243,7.802,5.206,13.09,12.52,13.527c7.932,0.475,14.183-5.622,14.266-13.356
		c0.07-6.625-6.261-12.99-13.003-13.07C243.399,67.49,237.352,73.15,237.293,80.48z"/>
	<path fill-rule="evenodd" clip-rule="evenodd" d="M150.637,122.183c-0.054,9.704-7.458,17.086-17.113,17.063
		c-9.01-0.022-15.985-7.599-15.91-17.284c0.069-8.776,7.81-16.223,16.866-16.224C143.297,105.737,150.687,113.258,150.637,122.183z
		 M146.882,122.265c0.036-6.978-5.439-12.504-12.446-12.563c-6.871-0.058-12.97,5.626-13.002,12.118
		c-0.037,7.68,5.5,13.625,12.687,13.619C141.402,135.432,146.844,129.815,146.882,122.265z"/>
	<path fill-rule="evenodd" clip-rule="evenodd" d="M249.778,217.126c16.531-0.62,31.689,13.418,32.547,29.72
		c1.026,19.546-13.933,34.032-30.03,34.703c-16.16,0.673-32.614-10.976-33.597-30.931
		C217.799,232.395,231.603,217.808,249.778,217.126z M278.769,249.12c0.343-17.402-16.207-28.648-27.896-28.588
		c-15.815,0.082-28.595,12.73-28.598,28.448c-0.004,16.191,12.702,29.092,28.59,29.03
		C266.238,277.949,278.768,264.976,278.769,249.12z"/>
	<path fill-rule="evenodd" clip-rule="evenodd" d="M250.633,232.786c8.81-0.095,16.515,7.489,16.645,16.382
		c0.136,9.261-7.113,16.882-16.223,17.057c-9.123,0.176-16.869-7.283-16.964-16.333
		C233.987,240.098,240.957,232.889,250.633,232.786z"/>
</g>
</svg>
