<?xml version="1.0" encoding="utf-8"?>
<!-- Generator: Adobe Illustrator 16.0.0, SVG Export Plug-In . SVG Version: 6.00 Build 0)  -->
<!DOCTYPE svg PUBLIC "-//W3C//DTD SVG 1.1//EN" "http://www.w3.org/Graphics/SVG/1.1/DTD/svg11.dtd">
<svg version="1.1" id="Layer_1" xmlns="http://www.w3.org/2000/svg" xmlns:xlink="http://www.w3.org/1999/xlink" x="0px" y="0px"
	 width="500px" height="500px" viewBox="0 0 500 500" enable-background="new 0 0 500 500" xml:space="preserve">
<g>
	<path fill-rule="evenodd" clip-rule="evenodd" d="M272.092,480.076c-1.809,1.301-3.566,2.681-5.438,3.886
		c-6.342,4.089-11.327,9.429-15.041,15.983c-0.261,0.461-0.699,0.822-1.32,1.532c-1.384-1.925-2.686-3.608-3.853-5.38
		c-4.403-6.685-10.602-11.278-17.514-14.992c-9.214-4.953-18.084-10.342-25.285-18.109c-3.466-3.738-6.603-9.354-9.089-17.014
		c-1.529,1.213-2.898,2.394-4.361,3.444c-7.461,5.356-15.51,9.538-24.859,9.79c-5.633,0.151-11.297-0.764-16.944-1.239
		c-8.719-0.734-17.395-1.29-25.255,3.783c-0.75,0.483-1.75,0.579-3.013,0.975c-0.271-1.288-0.692-2.415-0.717-3.551
		c-0.151-6.995-1.95-13.531-5.376-19.608c-1.946-3.451-3.982-6.854-6.057-10.23c-5.475-8.907-7.714-18.642-7.254-28.996
		c0.156-3.506,0.893-6.988,1.367-10.497c-3.867,0.174-7.994,0.435-12.125,0.526c-8.433,0.189-15.751-3.35-22.677-7.517
		c-5.676-3.416-10.854-7.649-16.341-11.39c-5.525-3.768-11.57-6.079-18.382-6.14c-1.022-0.009-2.039-0.75-3.476-1.318
		c8.748-10.627,7.984-22.795,7.633-34.768c-0.318-10.86,2.593-20.56,9.372-28.978c1.918-2.381,4.619-4.134,7.153-6.344
		c-3.989-1.6-7.35-2.508-10.255-4.199c-6.701-3.9-10.648-10.396-14.763-16.686c-2.771-4.234-5.418-8.581-8.557-12.531
		c-1.946-2.449-4.659-4.31-7.118-6.325c-1.942-1.592-2.116-3.452-0.166-4.899c7.005-5.198,12.118-12.009,16.638-19.34
		c5.144-8.344,11.897-14.835,21.209-18.379c0.48-0.183,0.872-0.596,1.265-0.874c-4.666-3.389-8.564-7.205-10.911-12.453
		c-3.639-8.138-4.597-16.695-4.347-25.496c0.222-7.801,0.15-15.601-2.76-23.022c-0.849-2.165-1.861-4.299-3.07-6.282
		c-1.387-2.272-1.225-2.977,1.407-3.671c3.888-1.025,7.816-1.921,11.656-3.102c7.343-2.256,13.039-7.264,19.071-11.702
		c7.404-5.446,15.33-9.883,24.637-10.849c4.348-0.451,8.786-0.036,13.183,0c0.641,0.005,1.281,0.091,2.211,0.161
		c-0.454-1.583-0.914-2.944-1.231-4.337c-3.103-13.59,0.728-25.745,7.868-37.152c1.408-2.249,3.767-4.008,4.774-6.38
		c1.761-4.145,2.973-8.549,4.106-12.925c0.724-2.792,1.005-5.718,1.279-8.604c0.313-3.292,0.884-3.726,3.956-2.203
		c6.455,3.199,13.284,3.654,20.31,3.039c6.625-0.581,13.259-1.073,19.893-1.555c6.381-0.464,12.202,1.785,17.85,4.235
		c4.658,2.02,9.013,4.737,13.31,7.042c1.73-6.456,5.333-12.263,9.913-17.63c5.291-6.2,12.528-9.406,19.318-13.369
		c5.231-3.052,10.631-5.98,15.307-9.766c3.4-2.75,5.911-6.688,8.503-10.322c2.353-3.302,3.033-3.687,5.087-0.377
		c6.711,10.812,17.22,16.671,28.036,22.238c8.141,4.188,15.132,9.835,20.194,17.499c2.458,3.722,4.16,7.945,5.967,11.475
		c4.948-2.497,9.826-5.363,15.007-7.485c9.002-3.686,18.402-3.982,27.922-2.213c7.916,1.472,15.819,1.781,23.571-0.935
		c1.389-0.486,2.649-1.327,4.009-1.912c0.954-0.411,2.219-1.173,2.901-0.848c0.713,0.338,1.234,1.786,1.253,2.76
		c0.116,5.985,1.108,11.792,3.733,17.175c1.72,3.528,3.777,6.913,5.91,10.215c6.554,10.153,9.94,21.163,9.053,33.289
		c-0.228,3.121-1.094,6.195-1.714,9.543c1.494-0.12,3.492-0.247,5.482-0.447c13.349-1.342,24.524,3.533,34.812,11.617
		c8.469,6.653,17.838,11.741,28.532,14.028c4.221,0.903,4.221,1.307,2.082,5.093c-4.247,7.518-4.973,15.785-4.709,24.209
		c0.271,8.664,0.101,17.281-3.352,25.429c-0.899,2.124-2.257,4.054-3.403,6.073c-1.153-0.383-2.307-0.765-3.46-1.147
		c1.351-3.099,2.648-6.222,4.094-9.276c0.291-0.616,1.142-0.966,1.734-1.438c0.11,0.003,0.22,0.006,0.33,0.01
		c0.005-0.209,0.01-0.417,0.014-0.627c-0.135-0.139-0.271-0.278-0.405-0.417l-0.072-0.059c-0.012-0.162-0.098-0.229-0.258-0.201
		c0.067-1.174,0.159-2.348,0.2-3.523c0.219-6.18,0.682-12.365,0.572-18.54c-0.136-7.662,1.022-14.945,4.744-21.749
		c-10.855-2.162-19.944-7.563-28.535-14.057c-9.154-6.919-19.096-11.854-30.982-11.535c-5.669,0.153-10.557,1.584-14.223,6.461
		c-3,3.993-6.62,7.52-9.993,11.284c0.413,0.511,0.899,0.969,1.212,1.524c1.196,2.129,2.461,2.437,4.614,0.933
		c2.512-1.755,5.285-3.228,8.115-4.421c11.756-4.962,22.953-3.596,33.559,3.347c-0.778,1.173-1.558,2.347-2.336,3.52
		c-0.832-0.419-1.697-0.785-2.491-1.267c-12.618-7.649-26.595-4.61-36.612,3.889c4.884,7.114,9.773,14.238,14.719,21.443
		c3.713-4.986,3.789-9.427,0.377-13.913c-1.091-1.436-0.995-2.629,0.803-3.892c2.941-2.065,5.831-2.2,9-0.959
		c3.535,1.384,5.01,4.438,6.028,7.647c4.909,0.309,9.561,0.573,13.738,3.195c1.854,1.165,2.459,2.444,2.188,4.636
		c-0.521,4.198-2.458,7.538-5.658,10.374c3.037,3.257,4.471,6.836,3.626,11.145c-0.81,4.124-4.044,7.573-7.209,7.557
		c-1.306-0.006-1.958-0.082-2.148-1.961c-0.755-7.403-5.006-8.796-11.089-8.283c-0.367,0.031-0.658,0.953-0.983,1.46
		c-1.002,0.832-2.004,1.664-3.007,2.495c-3.179-5.809-6.095-11.783-9.592-17.395c-7.845-12.591-15.923-25.059-27.118-35.062
		c-6.086-5.438-12.2-10.859-18.52-16.02c-16.2-13.229-35.215-20.945-54.916-26.985c-13.955-4.279-28.535-5.251-43.034-6.173
		c-10.904-0.693-21.728,0.352-32.529,1.989c-10.653,1.615-21.106,4.067-31.158,7.811c-13.333,4.966-26.006,11.265-37.822,19.403
		c-18.301,12.606-33.982,27.68-46.122,46.318c-5.869,9.01-11.925,17.96-15.782,28.085c-2.32,6.09-4.279,12.324-6.239,18.543
		c-4.659,14.777-6.524,25.217-6.837,41.549c-0.196,10.203-0.313,20.429,1.852,30.444c2.229,10.321,4.304,20.747,7.602,30.744
		c3.911,11.858,9.941,22.848,16.597,33.465c9.155,14.604,20.32,27.372,33.59,38.376c9.34,7.746,19.119,14.811,29.829,20.534
		c12.54,6.699,25.769,11.744,39.616,14.781c9.384,2.058,19.009,3.074,28.562,4.276c5.847,0.736,11.76,0.938,17.644,1.381
		c-0.078,0.094-0.155,0.188-0.232,0.282c0.066-0.018,0.135-0.037,0.203-0.056c-0.025-0.067-0.049-0.137-0.074-0.205
		c0.888-0.129,1.772-0.273,2.662-0.385c9.371-1.165,18.79-2.033,28.104-3.549c16.76-2.729,32.466-8.708,47.581-16.334
		c14.388-7.258,27.08-16.838,38.587-28.053c3.481-3.394,6.944-6.807,10.416-10.21c1.187,0.835,2.373,1.67,3.56,2.505
		c-1.186,1.392-2.371,2.783-3.49,4.098c3.048,3.545,5.822,7.161,9.011,10.364c2.879,2.894,5.195,6.623,9.81,7.369
		c5.626,0.91,11.188,0.809,16.762-0.342c10.249-2.115,18.342-8.216,26.292-14.431c6.593-5.154,13.544-9.255,21.975-10.179
		c-0.799-1.659-1.668-3.21-2.299-4.851c-0.636-1.652-1.146-3.371-1.507-5.104c-0.379-1.822-1.299-4.142-0.562-5.435
		c0.957-1.682-1.487-2.385-0.321-3.635c0.441-0.474,0.712-1.104,1.062-1.662c0.403,0.207,0.927,0.319,1.183,0.643
		c0.477,0.602,0.798,1.326,1.184,2.001c0.352,0.213,1.016,0.438,1.008,0.638c-0.251,6.544,1.794,12.321,5.479,17.667
		c1.516,2.197,0.786,3.67-1.792,3.694c-10.115,0.102-18.028,4.963-25.321,11.325c-6.653,5.806-14.149,10.203-22.655,12.638
		c-6.604,1.891-13.334,2.844-20.178,1.063c-0.605-0.157-1.288-0.021-2.016-0.021c3.856,12.46,1.901,24.283-3.501,35.577
		c-2.413,5.044-5.868,9.585-8.787,14.392c-2.354,3.878-3.702,8.125-4.266,12.614c-0.116,0.928-1.288,1.498-0.25,2.927
		c0.727,0.999,0.102,3.067-0.104,4.634c-0.305,2.316-1.451,2.991-3.324,1.636c-8.552-6.188-18.257-5.351-27.583-3.729
		c-15.14,2.631-28.646-0.243-41.019-9.145c-0.889-0.64-1.861-1.163-2.914-1.814c-4.142,12.339-11.915,21.288-23.175,27.242
		c-0.789-1.229-1.58-2.457-2.369-3.687c3.753-2.627,7.972-4.787,11.166-7.974c7.431-7.414,12.491-16.108,10.944-27.222
		c-0.83-5.969-1.949-11.896-2.971-18.044c-3.628,0.821-6.5,1.471-9.473,2.144c0.12,0.678,0.194,1.223,0.313,1.759
		c2.023,9.121,1.945,17.898-2.845,26.406c-4,7.104-10.269,11.544-16.768,15.801c-4.229,2.769-8.758,5.073-13.048,7.754
		c-2.907,1.817-5.632,3.926-8.376,5.86c-1.387-1.068-2.524-2.054-3.767-2.883c-7.556-5.036-15.146-10.021-22.703-15.056
		c-5.976-3.98-10.051-9.415-12.61-16.131c-2.958-7.762-2.427-15.569-0.756-23.418c-3.152-0.753-6.214-1.484-9.621-2.299
		c-0.838,4.449-1.563,8.733-2.463,12.98c-1.976,9.329,0.496,17.536,5.747,25.275c5.629,8.297,13.717,13.429,22.166,18.228
		c9.139,5.19,18.17,10.548,24.652,19.671c5.332-8.219,12.798-13.55,21.271-17.632C271.978,477.491,272.034,478.784,272.092,480.076z
		 M75.187,184.314c1.123,0.027,2.245,0.053,3.368,0.08c-0.168,0.812-0.304,1.632-0.51,2.434c-0.912,3.551-1.841,4.014-5.225,2.634
		c-5.408-2.205-6.835-10.631-2.48-15.073c0.771-0.786,1.928-1.194,2.907-1.776c-0.438-0.182-0.877-0.365-1.315-0.547
		c-1.64-2.992-3.646-5.847-4.831-9.01c-1.604-4.283-0.813-6.337,2.489-7.307c3.118-0.917,6.389-1.567,9.625-1.743
		c2.104-0.114,3.104-0.637,3.849-2.609c1.718-4.547,6.365-6.935,11.117-5.998c3.96,0.781,4.885,2.771,2.906,6.251
		c-2.557,4.497-2.184,8.061,1.375,12.354c2.483-3.629,4.887-7.268,7.423-10.813c2.426-3.391,4.989-6.683,7.573-10.127
		c-0.742-0.541-1.524-1.045-2.234-1.636c-10.557-8.772-24.285-8.211-34.929-1.864c-6.409,3.821-12.091,8.852-18.184,13.222
		c-1.549,1.111-2.559,2.173-2.509,4.233c0.191,7.957-0.36,15.993,0.612,23.846c0.523,4.225,3.067,8.494,5.599,12.114
		c4.727,6.761,12.343,8.134,20.113,9.27c1.247-3.731,2.413-7.438,3.728-11.09c1.311-3.64,2.771-7.226,4.078-10.609
		c-4.046-1.171-7.674-0.577-10.494,2.802c-0.393-0.958-0.785-1.915-1.178-2.872c3.655-4.894,9.39-4.117,14.543-5.368
		c-3.461-1.131-6.881-2.08-10.347-2.305c-4.484-0.29-7.472,2.194-9.533,6.134c-1.648,3.15-0.403,5.457,1.529,7.953
		C74.607,185.909,74.897,185.112,75.187,184.314z M343.889,419.036c0.244-0.02,0.487-0.038,0.732-0.058
		c-0.1-0.119-0.198-0.239-0.297-0.358c-1.3-5.602-1.378-11.563-4.675-16.675c-0.675,0.472-1.144,0.798-1.611,1.124
		c0.281-0.02,0.563-0.038,0.843-0.059c0.154,2.574,0.58,5.166,0.404,7.719c-0.354,5.132-2.589,9.33-7.367,11.932
		c5.393,3.778,7.899,3.14,10.881-2.439C343.044,419.764,343.52,419.429,343.889,419.036z M138.03,119.354
		c0.234-0.287,0.468-0.574,0.702-0.861c0.016,0.068,0.033,0.135,0.049,0.203c0.019-0.134,0.039-0.268,0.058-0.401
		c0.871-0.937,1.631-2.018,2.634-2.781c3.692-2.812,7.465-5.518,11.424-8.422c-5.31-3.047-10.263-3.554-15.364-0.243
		c-2.781,1.804-4.603,1.082-5.777-1.999c-1.285-3.37-0.125-9.057,2.563-11.36c1.39-1.192,3.127-1.979,4.707-2.948
		c-0.255-0.042-0.51-0.083-0.765-0.125c0.495-3.651,0.729-7.363,1.558-10.937c0.851-3.671,2.287-4.359,6.017-3.455
		c2.973,0.722,5.885,1.693,8.811,2.549c3.872-6.244,12.632-6.033,17.345-0.081c1.996,2.521,1.48,4.569-1.46,5.562
		c-3.544,1.197-5.441,3.681-5.868,7.19c-0.301,2.482-0.058,5.031-0.058,7.94c8.506-3.727,16.664-7.299,24.997-10.95
		c-0.837-2.077-1.546-4.202-2.521-6.196c-4.528-9.263-10.796-16.741-21.774-17.816c-5.909-0.579-11.949,0.017-17.919,0.294
		c-6.585,0.305-12.189,2.063-15.985,8.424c-4.87,8.16-9.982,15.973-10.791,25.875c-0.797,9.763,3.229,17.971,11.494,24.005
		c1.717-1.137,3.417-2.263,5.118-3.389C137.491,119.406,137.761,119.379,138.03,119.354z M250.258,7.333
		c-4.773,8.041-11.33,13.695-18.967,18.145c-4.605,2.683-9.504,4.892-13.967,7.784c-18.939,12.274-23.996,30.507-15.339,51.444
		c2.864-0.782,5.786-1.58,8.753-2.39c-0.068-0.372-0.093-0.646-0.168-0.906c-3.838-13.177-1.368-24.912,8.452-34.658
		c7.323-7.267,16.87-11.414,25.216-17.245c4.268-2.98,7.459-2.855,11.687-0.038c7.086,4.721,14.74,8.582,21.892,13.211
		c9.291,6.015,13.705,15.03,13.925,25.914c0.092,4.592-0.954,9.207-1.518,14.117c3.071,0.594,6.676,1.291,10.735,2.075
		c0.895-4.945,1.868-9.592,2.556-14.281c1.525-10.407-1.608-19.431-8.375-27.345c-5.606-6.559-12.726-11.075-20.316-14.84
		C264.996,23.449,256.727,16.846,250.258,7.333z M119.49,135.389c-2.989-3.448-5.84-6.78-8.739-10.071
		c-3.379-3.836-6.802-7.765-12.463-7.832c-10.228-0.122-19.997,1.931-28.679,7.522c-5.262,3.39-10.083,7.456-15.226,11.039
		c-5.679,3.957-12.135,6.054-18.935,7.405c3.153,5.662,4.346,11.913,4.612,18.424c0.409,10.003-1.045,20.108,2.29,29.946
		c2.842,8.381,8.139,14.822,16.075,17.975c6.296,2.501,13.413,2.938,19.996,4.258c0.599-2.868,1.128-5.402,1.542-7.38
		c-4.565-1.538-9.49-2.51-13.733-4.765c-9.579-5.091-14.14-13.789-14.609-24.361c-0.357-8.04,0.109-16.124,0.447-24.177
		c0.05-1.198,1.179-2.627,2.206-3.455c2.77-2.231,5.858-4.067,8.633-6.292c6.829-5.479,13.881-10.478,22.73-12.148
		c8.482-1.6,16.609-1.103,23.942,4.07c2.117,1.494,4.245,2.97,6.435,4.501C117.326,138.288,118.487,136.732,119.49,135.389z
		 M115.554,363.934c-3.062,1.991-6.012,4.324-9.304,5.974c-11.862,5.948-23.294,4.132-34.116-2.745
		c-5.528-3.515-10.813-7.428-16.057-11.36c-1.458-1.094-3.287-2.838-3.393-4.39c-0.5-7.353-0.677-14.744-0.57-22.116
		c0.222-15.194,9.326-26.326,23.839-30.58c1.414-0.414,3.974-0.515,4.077-1.099c0.27-1.533-0.514-3.257-0.906-4.898
		c-0.063-0.262-0.267-0.49-0.566-1.021c-4.42,0.526-8.964,0.983-13.479,1.64c-2.206,0.321-4.699,0.48-6.478,1.623
		c-11.427,7.337-17.766,17.74-17.875,31.527c-0.038,4.746,0.572,9.507,0.382,14.24c-0.285,7.097-1.115,14.151-5.036,20.564
		c8.668,1.556,15.96,5.424,22.668,10.595c3.343,2.577,6.741,5.126,10.338,7.32c10.145,6.19,20.961,9.066,32.729,5.451
		c2.071-0.636,4.174-1.85,5.725-3.351c2.838-2.749,5.253-5.931,7.885-8.896c1.311-1.474,2.712-2.869,4.048-4.275
		C118.03,366.594,116.819,365.293,115.554,363.934z M123.447,456.581c0.551-0.16,0.901-0.233,1.229-0.362
		c7.306-2.874,14.806-3.927,22.618-2.667c6.851,1.105,13.682,2.801,20.699,1.248c8.872-1.964,17.282-4.89,23.654-11.805
		c0.886-0.963,1.776-2.41,1.769-3.627c-0.049-7.835,1.256-15.393,4.263-22.938c-1.523-0.331-2.836-0.618-3.814-0.831
		c-1.557,3.623-2.683,7.023-4.4,10.095c-6.052,10.828-15.178,17.354-27.751,17.747c-6.948,0.216-13.97-0.478-20.883-1.354
		c-3.092-0.392-7.123-1.393-8.778-3.587c-4.832-6.406-9.415-13.216-12.747-20.486c-5.23-11.413-5.068-22.945,3.077-33.381
		c1.984-2.542,4.303-4.821,6.548-7.31c-2.249-1.941-4.493-3.88-7.012-6.055c-2.84,3.026-5.667,5.938-8.376,8.956
		c-1.929,2.149-4.072,4.232-5.465,6.713c-3.946,7.031-4.182,14.774-3.045,22.489c1.205,8.175,4.889,15.444,9.299,22.368
		c3.317,5.207,6.662,10.421,7.671,16.704C122.428,451.152,122.945,453.791,123.447,456.581z M197.178,85.805
		c0.119-0.501,0.246-0.712,0.193-0.86c-2.716-7.579-3.809-15.414-3.843-23.439c-0.002-0.704-0.602-1.644-1.208-2.073
		c-10.743-7.591-22.104-12.589-35.879-10.756c-8.405,1.12-17.004,0.978-25.515,0.976c-2.573,0-5.146-1.431-8.052-2.307
		c-0.264,10.078-4.171,18.616-9.214,26.857c-2.713,4.434-4.974,9.212-6.881,14.055c-2.959,7.512-3.361,15.333-0.935,23.099
		c1.329,4.254,3.631,7.926,7.041,11.04c3.348,3.058,6.155,6.708,9.245,10.15c2.089-2.212,4.007-4.245,6.09-6.451
		c-0.937-1.059-2.13-2.338-3.247-3.682c-3.146-3.782-6.348-7.509-7.381-12.568c-2.293-11.223-0.358-21.722,5.262-31.602
		c1.571-2.762,3.399-5.378,4.952-8.148c2.478-4.42,6.042-7.313,11.042-8.348c1.555-0.321,3.11-0.641,4.674-0.917
		c8.826-1.562,17.633-2.572,26.44,0.242c6.386,2.04,12.259,4.747,15.793,10.873c2.738,4.747,5.436,9.518,8.313,14.563
		C194.828,86.336,196.073,86.055,197.178,85.805z M304.037,85.944c2.524,1.343,3.526,1.047,4.707-1.698
		c0.369-0.86,0.749-1.716,1.107-2.581c6.125-14.74,15.849-21.904,31.245-22.047c7.93-0.073,15.888,1.757,23.809,2.899
		c1.39,0.2,3.086,0.913,3.911,1.962c6.211,7.901,11.911,16.153,14.412,26.087c2.605,10.344,1.775,20.115-5.559,28.56
		c-1.918,2.208-3.912,4.35-5.903,6.558c2.521,2.404,4.859,4.635,7.373,7.033c4.356-4.676,8.48-9.03,12.502-13.476
		c0.922-1.02,1.647-2.291,2.194-3.562c3.148-7.309,3.404-14.883,1.836-22.583c-1.503-7.375-5.011-13.891-8.985-20.145
		c-4.903-7.714-8.229-15.938-8.992-25.262c-8.703,3.43-17.567,3.588-26.644,2.212c-9.617-1.459-19.267-1.783-28.515,2.07
		c-4.807,2.002-9.749,3.89-13.343,7.936c-0.615,0.694-1.076,1.71-1.198,2.632c-0.921,6.93-1.706,13.878-2.634,20.806
		C305.246,84.203,304.545,84.98,304.037,85.944z M370.957,377.878c1.635,1.893,3.126,3.69,4.692,5.422
		c9.794,10.825,11.2,23.056,5.157,35.937c-3.29,7.017-7.776,13.477-11.817,20.132c-0.477,0.785-1.463,1.501-2.354,1.759
		c-8.569,2.476-17.269,3.916-26.252,3.332c-9.122-0.593-17.104-3.603-23.649-10.183c-4.293-4.315-6.609-9.668-8.668-15.229
		c-1.276-3.449-1.369-3.414-4.593-1.87c2.073,7.859,4.584,15.618,4.223,23.905c-0.031,0.731,0.183,1.856,0.678,2.167
		c4.501,2.83,8.935,5.835,13.691,8.171c6.579,3.233,13.795,4.01,21.037,3.703c5.606-0.238,11.181-1.236,16.787-1.479
		c5.869-0.253,11.816-0.37,17.454,2.949c-0.423-8.979,3.516-16.256,8.031-23.162c5.018-7.671,9.266-15.525,10.34-24.808
		c1.121-9.691,0.036-18.605-7.465-25.877c-3.546-3.438-6.589-7.395-9.881-11.141C375.819,373.764,373.474,375.749,370.957,377.878z
		 M214.491,421.387c-0.192,0.629-0.514,1.402-0.667,2.209c-2.541,13.41,1.41,24.575,12.379,32.657
		c7.59,5.593,15.798,10.348,23.607,15.398c4.449-2.711,8.874-5.682,13.55-8.181c5.31-2.839,10.525-5.665,14.901-9.944
		c8.814-8.62,11.744-18.813,8.927-30.762c-0.385-1.631-1.164-2.087-2.798-1.826c-4.998,0.799-10.006,1.542-15.029,2.158
		c-3.269,0.398-6.569,0.538-9.949,0.801c3.724,7.878,6.585,9.196,13.807,8.509c0.706-0.067,2.01,0.613,2.163,1.182
		c1.019,3.766-0.906,8.057-4.132,10.352c-3.697,2.63-7.514,1.92-11.553,0.529c0.018,5.566-4.055,8.291-7.271,11.584
		c-1.391,1.423-2.686,1.349-4.122,0.039c-3.655-3.334-7.493-6.526-7.761-12.046c-9.336,3.461-13.715-1.757-15.023-7.317
		c-0.909-3.867-0.217-4.81,3.674-4.523c6.406,0.473,10.368-2.637,12.936-8.094C232.916,423.203,223.796,422.305,214.491,421.387z
		 M285.224,81.163c5.202-11.841,2.215-26.593-9.517-34.332c-8.444-5.57-17.245-10.599-25.524-15.648
		c-7.33,4.443-14.396,8.661-21.392,12.988c-7.893,4.883-13.146,11.797-15.47,20.824c-0.854,3.319-0.79,5.895,0.015,8.759
		c0.48,1.708,1.219,3.35,1.612,5.074c0.522,2.283,1.818,2.577,3.92,2.262c5.352-0.802,10.735-1.401,16.114-2.022
		c2.061-0.238,4.141-0.313,6.509-0.482c-0.588-1.069-0.89-1.617-1.189-2.166c-2.835-5.199-5.409-6.409-11.276-5.313
		c-0.554,0.104-1.143,0.086-1.67,0.26c-1.958,0.647-2.573-0.458-2.727-2.08c-0.296-3.139,0.577-5.954,2.648-8.326
		c3.455-3.956,7.24-4.396,13.653-1.586c0.471-5.466,2.397-10.176,6.901-13.544c1.699-1.271,3.5-1.741,4.977,0.062
		c2.191,2.674,4.246,5.477,6.158,8.358c0.781,1.178,1.037,2.704,1.577,4.195c4.578-2.02,8.682-2.23,12.533,1.544
		c3.181,3.119,3.401,6.598,2.696,10.263c-3.597,0.436-6.985,0.529-10.205,1.319c-3.74,0.917-4.828,4.492-6.363,7.658
		C267.912,79.878,276.542,80.519,285.224,81.163z M310.52,414.189c0.919,2.362,1.826,4.695,2.732,7.03
		c3.366,8.669,9.489,14.625,18.248,17.506c10.952,3.604,21.848,1.58,32.635-1.22c0.671-0.174,1.464-0.645,1.802-1.214
		c4.154-6.983,9.055-13.672,12.133-21.111c4.227-10.213,2.879-20.21-5.149-28.635c-1.737-1.824-3.31-3.806-4.859-5.6
		c-6.766,5.057-13.533,10.112-20.591,15.387c1.076,0.751,1.919,1.452,2.859,1.979c4.577,2.556,9.103,2.747,13.236-0.825
		c1.921-1.661,3.075-0.966,4.388,0.648c2.996,3.686,1.288,10.733-2.9,12.778c-1.478,0.722-3.014,1.848-2.857,4.183
		c0.179,2.671,0.015,5.39-0.266,8.06c-0.492,4.689-2.916,6.646-7.329,5.556c-3.481-0.859-6.806-2.355-10.271-3.594
		c-4.163,4.382-7.165,5.269-11.715,2.984c-4.269-2.143-6.675-5.076-5.591-8.635c7.817-1.889,10.845-7.765,8.043-15.673
		C326.836,407.279,318.607,410.765,310.52,414.189z M165.091,403.64c-0.176,2.959-0.67,5.635-0.409,8.236
		c0.369,3.678,3.157,5.56,6.365,6.778c2.167,0.823,2.313,2.34,1.761,4.26c-0.998,3.472-6.581,6.729-10.124,5.555
		c-2.614-0.868-5.048-2.28-7.72-3.524c-0.931,0.44-2.17,1.104-3.468,1.616c-1.379,0.544-2.861,0.837-4.217,1.428
		c-5.611,2.442-7.85-0.507-8.529-6.068c-0.379-3.105,0.256-6.336,0.445-9.691c-5.036-1.247-8.442-4.396-8.174-10.172
		c0.093-2.003,0.969-4.248,2.229-5.771c0.452-0.548,3.249,0.389,4.681,1.182c5.454,3.021,10.331,1.417,15.272-1.276
		c-6.927-5.311-13.672-10.481-20.366-15.611c-10.899,7.264-14.39,17.139-11.867,29.188c1.4,6.683,4.641,12.591,8.492,18.188
		c1.12,1.627,1.824,3.548,2.993,5.131c1.109,1.503,2.367,3.549,3.926,3.96c7.7,2.024,15.603,3.151,23.577,2.6
		c8.135-0.564,15.68-2.743,21.43-9.188c4.256-4.77,6.113-10.656,8.482-16.06C181.625,410.818,173.676,407.366,165.091,403.64z
		 M368.807,122.872c1.126-1.215,1.682-1.912,2.334-2.504c7.754-7.044,10.869-15.6,8.696-25.993
		c-2.139-10.227-7.952-18.465-14.172-26.479c-0.609-0.784-1.78-1.409-2.776-1.57c-5.407-0.877-10.821-1.879-16.273-2.291
		c-11.077-0.835-21.421,0.756-28.615,10.578c-3.338,4.557-6.203,9.339-6.899,15.428c2.053-1.351,17.226,4.984,24.335,9.804
		c-0.328,0.219-0.626,0.417-0.922,0.616c0.959-0.362,1.869-1.05,1.924-1.801c0.446-6.133,0.653-11.405-7.013-14.482
		c-0.669-0.268-1.583-1.425-1.449-1.919c0.492-1.835,0.923-4.038,2.191-5.251c4.307-4.118,13.047-2.763,15.902,1.642
		c4.073-0.984,7.91-1.952,11.768-2.828c2.023-0.46,3.002,0.644,3.778,2.45c1.817,4.223,1.711,8.469,0.481,12.725
		c8.443,3.463,10.124,12.021,5.142,18.077c-2.339-1.387-4.741-2.813-7.143-4.239c-1.66-0.485-3.809-0.546-5.855-0.121
		c-2.005,0.416-4.223,0.843-5.169,2.975C355.819,112.879,362.371,117.919,368.807,122.872z M90.951,325.604
		c-0.54-1.558-0.665-2.207-0.97-2.757c-3.515-6.337-6.15-12.99-7.605-20.113c-0.085-0.419-1.387-0.87-2.082-0.812
		c-0.84,0.071-1.608,0.891-2.457,1.001c-4.397,0.573-7.966,2.771-11.388,5.398c-5.676,4.357-8.986,10.197-9.767,17.141
		c-0.679,6.044-0.59,12.19-0.544,18.289c0.019,2.55,0.08,5.597,1.414,7.521c1.957,2.822,4.87,5.134,7.747,7.126
		c3.952,2.737,8.143,5.184,12.425,7.377c7.357,3.769,15.133,5.009,23.021,1.901c4.213-1.659,8.146-4.031,12.339-6.149
		c-4.942-7.318-9.569-14.17-14.359-21.264c-0.501,0.639-1.054,1.227-1.472,1.898c-2.615,4.2-2.306,8.353,0.388,12.37
		c1.154,1.721,0.93,3.113-0.984,3.761c-4.972,1.68-11.596,0.786-13.854-5.362c-0.704-1.917-1.604-2.82-3.605-2.419
		c-3.744,0.752-7.01-0.74-10.277-2.186c-1.917-0.848-3.062-2.212-2.28-4.435c1.401-3.982,2.869-7.941,4.309-11.909
		c0.284-0.324-0.216-0.889-0.649-1.501c-3.154-4.464-1.866-10.357,2.175-13.475c3.152-2.431,4.979-1.722,6.169,1.948
		c0.533,1.644,1.414,3.854,2.734,4.423C84.124,324.559,87.266,324.815,90.951,325.604z M76.867,280.483
		c-4.622,0-9.055,0.217-13.458-0.053c-5.763-0.354-11.269-2.143-14.951-6.709c-5.082-6.302-9.629-13.045-14.184-19.75
		c-0.619-0.912-0.435-2.992,0.202-4.023c2.606-4.216,5.462-8.284,8.357-12.313c4.317-6.007,9.954-10.543,17.17-12.145
		c4.38-0.971,9.11-0.31,13.675-0.544c0.975-0.05,2.471-0.58,2.755-1.282c0.629-1.562,0.645-3.371,1.015-5.754
		c-6.659-0.853-13.301-1.771-19.961-2.533c-5.194-0.594-10.038,0.763-13.771,4.337c-4.101,3.927-7.934,8.201-11.423,12.683
		c-5.058,6.498-8.965,13.922-15.938,19.133c6.103,4.381,10.116,10.304,13.632,16.674c1.58,2.863,3.504,5.55,5.424,8.207
		c4.627,6.405,10.325,11.423,18.3,13.144c6.771,1.46,13.394-0.206,20.003-1.348c3.985-0.688,3.937-0.868,3.301-4.778
		C76.879,282.601,76.924,281.743,76.867,280.483z M74.253,258.224c-4.18,1.315-6.491,3.974-7.97,7.426
		c-1.402,3.272-3.279,3.845-5.978,1.374c-1.056-0.968-2.092-2.4-2.301-3.751c-0.352-2.271-1.885-2.754-3.48-3.785
		c-2.447-1.58-4.517-3.772-6.615-5.838c-0.376-0.371-0.421-1.561-0.114-2.065c1.887-3.101,4.118-5.78,8.149-6.185
		c0.723-0.073,1.764-0.909,1.969-1.597c1.447-4.874,2.678-5.966,7.741-6.383c4.354,8.556,5.145,9.411,8.974,9.845
		c0.274-5.961,0.549-11.931,0.834-18.124c-1.796-0.189-3.46-0.364-5.124-0.54c-7.993-0.843-14.984,1.534-20.339,7.428
		c-4.514,4.968-8.395,10.512-12.406,15.61c1.72,2.723,3.321,5.118,4.78,7.596c4.933,8.384,10.783,15.754,21.207,17.16
		c3.997,0.539,8.126,0.087,12.432,0.087C75.399,270.132,74.852,264.438,74.253,258.224z M250.358,74.502
		c1.737-3.576,3.926-8.058,6.075-12.56c0.172-0.362,0.107-0.859,0.09-1.292c-0.187-5.095-2.734-8.834-6.512-11.63
		c-0.367,0.403-0.627,0.777-0.967,1.051c-4.728,3.817-5.603,7.876-3.117,13.52C247.635,67.47,249.124,71.445,250.358,74.502z
		 M250.688,428.495c-1.675,3.383-3.512,7.065-5.317,10.763c-0.559,1.145-1.638,2.449-1.437,3.477
		c0.646,3.303,2.039,6.407,4.985,8.354c0.735,0.486,2.476,0.642,2.913,0.17c1.439-1.555,2.736-3.353,3.641-5.269
		c1.338-2.843,0.3-5.387-1.176-8.093C252.608,434.798,251.715,431.266,250.688,428.495z M142.969,412.663
		c-0.321,2.37-0.775,4.54-0.867,6.725c-0.093,2.203,0.282,4.5,2.785,5.266c1.895,0.579,9.069-2.859,9.426-4.247
		c0.067-0.26,0.029-0.563-0.023-0.835c-0.953-4.976-0.401-9.838,1.078-14.759C152.046,408.706,148.201,411.645,142.969,412.663z
		 M411.793,170.75c2.821-0.206,6.566-1.052,10.13-0.567c3.206,0.436,5.049-0.451,6.429-2.986c0.698-1.284,1.09-2.73,1.688-4.073
		c0.741-1.667,0.216-2.842-1.472-3.221c-2.895-0.649-5.826-1.156-8.767-1.548c-0.497-0.066-1.317,0.623-1.637,1.169
		C415.853,163.479,413.632,167.487,411.793,170.75z M80.748,346.975c2.572-4.379,4.701-8.005,6.715-11.434
		c-1.792-0.199-4.017-0.49-6.25-0.684c-6.604-0.571-11.898,4.82-10.489,10.785C74.285,346.116,77.888,346.595,80.748,346.975z
		 M347.233,96.086c2.464-1.346,5.286-2.75,7.952-4.404c1.318-0.818,2.78-1.891,3.422-3.214c1.406-2.893,0.458-5.796-0.68-8.289
		c-1.646,0-3.027-0.047-4.405,0.008c-3.756,0.151-6.308,2.828-6.292,6.526C347.244,89.975,347.233,93.235,347.233,96.086z
		 M81.694,157.933c-2.693,0.288-5.947,0.572-9.175,1.034c-0.656,0.094-1.626,0.763-1.755,1.327
		c-0.833,3.631,3.668,9.025,7.358,9.009c3.706-0.016,7.412-0.004,10.546-0.004c-0.88-1.022-2.593-2.628-3.816-4.546
		C83.633,162.837,82.904,160.61,81.694,157.933z M346.344,408.598c0.266,2.079,0.813,4.572,0.858,7.074
		c0.124,6.699,0.039,6.698,6.654,8.592c0.541,0.155,1.096,0.31,1.593,0.564c1.839,0.942,2.572-0.358,2.662-1.661
		c0.177-2.577,0.105-5.194-0.156-7.765c-0.075-0.744-1.024-1.632-1.793-2.03C352.901,411.677,349.557,410.142,346.344,408.598z
		 M154.492,96.287c-0.197-3.225-0.501-6.837-0.607-10.456c-0.053-1.829-0.348-3.269-2.36-3.836c-2.725-0.768-5.43-1.607-9.015-2.677
		c0,3.145,0.115,5.461-0.037,7.759c-0.117,1.77,0.621,2.687,2.11,3.494C148.046,92.447,151.415,94.498,154.492,96.287z
		 M255.027,423.981c-0.886,0.539-1.968,1.058-1.922,1.192c0.953,2.798,1.911,5.606,3.119,8.302c1.746,3.895,3.299,7.86,8.596,8.501
		c3.145,0.38,6.724-2.241,6.45-5.707c-0.528-0.049-1.089-0.201-1.622-0.134c-3.919,0.491-6.967-0.996-9.201-4.138
		c-1.237-1.739-2.23-3.651-3.414-5.431C256.314,425.487,255.441,424.509,255.027,423.981z M340.271,102.266
		c3.061-6.036,4.559-11.847,3.275-17.919c-0.996-4.712-4.544-6.387-9.021-5.089c-0.943,0.274-1.878,0.578-2.654,0.818
		c2.495,3.096,5.823,5.788,7.135,9.246C340.402,93.003,339.891,97.409,340.271,102.266z M155.98,104.61
		c-2.212-5.099-8.91-10.178-13.536-10.676c-4.868-0.524-8.557,4.59-6.511,9.286C142.604,100.166,149.184,100.077,155.98,104.61z
		 M161.899,402.662c-4.213,3.67-5.904,14.855-3.431,19.112c0.488,0.838,1.525,1.524,2.462,1.904c3.355,1.36,6.37,0.715,8.617-1.727
		c-1.263-0.686-2.833-1.25-4.042-2.251c-3.732-3.085-4.65-7.214-4.016-11.854C161.724,406.133,161.769,404.392,161.899,402.662z
		 M168.537,81.162c-1.865-2.798-4.761-3.141-7.509-2.268c-2.511,0.799-3.343,3.394-3.725,5.879
		c-0.184,1.196-0.319,2.484-0.072,3.644c0.854,4.015,1.851,8.002,2.889,11.975c0.142,0.543,0.819,0.946,1.248,1.414
		C160.787,93.725,159.819,85.881,168.537,81.162z M93.802,355.411c-3.907-7.615-2.403-13.953,3.415-19.448
		c-0.307-0.555-0.693-1.251-1.145-2.065c-4.433,2.793-7.758,6.359-9.688,11.075C84.013,350.762,86.771,355.03,93.802,355.411z
		 M343.867,398.271c0.134,0.408,0.184,0.872,0.413,1.215c2.578,3.856,5.748,7.195,9.995,9.08c1.938,0.859,4.384,1.045,6.536,0.85
		c3.562-0.323,5.726-5.135,3.921-7.946C356.949,405.64,350.368,402.913,343.867,398.271z M229.196,67.449
		c4.454-1.537,8.293-0.505,11.157,2.59c1.839,1.988,2.724,4.836,4.175,7.215c0.454,0.745,1.358,1.214,2.057,1.809
		c0.298-0.234,0.596-0.47,0.894-0.705c-0.857-2.946-1.544-5.955-2.608-8.823c-1.612-4.341-4.709-7.314-9.424-7.743
		C230.711,61.36,229.131,63.164,229.196,67.449z M272.17,66.869c-0.244-3.045-1.906-4.667-4.576-5.463
		c-2.789-0.831-6.396,0.116-7.951,2.807c-1.849,3.2-3.16,6.721-4.57,10.159c-0.566,1.382-0.775,2.911-1.146,4.373
		c0.959-0.314,1.759-0.944,2.219-1.766c2.707-4.831,5.028-10.064,11.816-10.108C269.266,66.861,270.571,66.869,272.17,66.869z
		 M344.805,104.59c6.811-3.174,13.541-5.952,20.424-0.537c1.353-3.025,1.237-4.97-1.041-7.027c-1.886-1.704-4.122-3.048-7.018-2.178
		C351.796,96.463,348.513,100.668,344.805,104.59z M405.161,170.5c0.388,0.117,0.775,0.234,1.163,0.351
		c3.456-3.725,7.166-7.328,8.66-12.403c0.633-2.148,1.325-4.763-0.978-6.505c-2.099-1.589-4.382-3.108-7.179-1.681
		c0.779,1.709,1.728,3.227,2.178,4.88c1.266,4.646-0.91,8.544-2.983,12.454C405.56,168.471,405.439,169.528,405.161,170.5z
		 M229.28,435.517c2.746,5.985,7.337,7.281,11.56,3.151c2.15-2.104,3.643-5.004,4.981-7.764c0.952-1.967,1.151-4.3,1.686-6.469
		c-0.255-0.09-0.508-0.178-0.762-0.268c-2.203,2.866-4.181,5.948-6.666,8.545C237.292,435.623,233.674,436.749,229.28,435.517z
		 M92.623,328.915c-6.808-1.207-15.047,0.633-17.457-9.022c-3.852,4.913-3.388,9.715,1.137,11.367
		C82.018,333.346,87.375,331.59,92.623,328.915z M135.599,400.252c-1.63,4.556,2.362,8.763,7.513,8.095
		c5.33-0.689,8.726-4.327,12.029-8.06c0.279-0.316,0.302-0.858,0.612-1.815C148.986,402.747,142.514,404.877,135.599,400.252z
		 M92.96,149.603c-1.662-0.683-3.661-0.17-5.186,1.306c-2.146,2.078-2.485,4.871-1.565,7.578c1.625,4.788,5.13,8.096,9.298,10.824
		c-1.144-3.09-3.184-5.964-3.62-9.064C91.428,156.976,92.499,153.491,92.96,149.603z M426.397,185.456
		c2.745-3.367,2.85-5.624,0.65-8.734c-2.696-3.813-6.745-3.273-10.474-2.866c-2.474,0.271-5.249,0.675-7.768,3.333
		C416.902,176.166,423.422,176.984,426.397,185.456z M64.029,252.781c-3.925-2.807-7.816-5.571-11.902-0.533
		C56.375,258.116,59.695,257.051,64.029,252.781z M74.298,254.763c-4.301-0.47-8.173,0.587-11.836,2.957
		c-1.577,1.021-1.708,2.081-1.225,3.506c0.311,0.918,0.86,1.755,1.492,3.004C65.046,258.912,68.654,255.59,74.298,254.763z
		 M62.732,241.933c-0.232,1.977-3.194,4.097-0.434,5.8c3.128,1.932,6.781,3.013,10.206,4.465c0.213-0.37,0.426-0.739,0.64-1.108
		C67.784,250.129,65.016,246.506,62.732,241.933z M113.049,140.929c-0.112-0.051-0.222-0.125-0.339-0.141
		c-0.046-0.006-0.168,0.135-0.155,0.177c0.033,0.104,0.124,0.19,0.192,0.283C112.848,141.142,112.949,141.037,113.049,140.929z
		 M281.944,452.881l0.092-0.119l-0.141-0.023L281.944,452.881z"/>
	<path fill-rule="evenodd" clip-rule="evenodd" d="M408.303,184.427c1.003-0.831,2.005-1.663,3.007-2.495
		c0.331,0.537,0.771,1.034,0.977,1.615c2.115,6.003,4.134,12.041,6.344,18.008c0.306,0.823,1.635,1.978,2.259,1.851
		c2.862-0.585,5.86-1.162,8.397-2.514c3.624-1.932,6.889-4.538,10.307-6.855c0.929,0.785,1.856,1.57,2.783,2.354
		c-0.594,0.827-1.123,1.711-1.792,2.471c-3.904,4.425-9.203,6.183-14.685,7.536c-1.833,0.452-3.709,0.729-5.523,1.079
		c0.729,2.509,1.368,4.71,1.978,6.811c3.487-0.551,6.791-0.996,10.063-1.609c4.28-0.803,9.039-0.101,12.575-3.405
		c3.321-3.103,6.439-6.422,9.646-9.646c1.153,0.382,2.307,0.765,3.46,1.147c-2.761,3.667-5.523,7.333-8.242,10.942
		c7.896,2.366,13.639,8.479,19.045,15.068c5.224,6.365,10.473,12.712,15.888,18.912c1.512,1.733,3.549,3.079,5.526,4.312
		c1.851,1.154,1.261,2.448,0.057,3.022c-9.661,4.603-13.669,14.037-19.366,22.083c-3.004,4.239-6.271,8.469-10.17,11.828
		c-2.053,1.769-4.359,3.704-6.937,4.936c-1.625,0.776-3.432,1.175-5.098,1.724c11.162,9.807,17.081,21.811,16.364,36.79
		c-0.151,3.175-0.156,6.359-0.385,9.526c-0.083,1.153-0.622,2.273-0.952,3.41c-0.386-0.675-0.707-1.399-1.184-2.001
		c-0.256-0.323-0.779-0.436-1.183-0.643c-0.167-0.847-0.521-1.703-0.473-2.537c0.585-10.188,0.472-20.202-5.017-29.4
		c-3.81-6.385-8.467-12.109-15.639-14.259c-5.49-1.644-11.498-1.596-17.293-2.124c-0.712-0.064-2.011,0.835-2.187,1.509
		c-0.348,1.339-0.103,2.832-0.103,4.138c9.483,1.912,17.433,5.822,23.153,14.188c3.137,4.584,5.313,9.388,5.57,14.604
		c0.39,7.9-0.216,15.857-0.624,23.779c-0.065,1.271-1.039,2.765-2.037,3.665c-2.182,1.974-4.794,3.471-6.969,5.449
		c-7.041,6.408-14.516,11.985-24.162,13.785c-5.721,1.066-11.457,1.196-16.766-1.447c-4.249-2.115-8.201-4.822-12.319-7.208
		c-0.516-0.297-1.24-0.232-1.868-0.336c-1.187-0.835-2.373-1.67-3.56-2.505c0.051-0.18,0.052-0.397,0.156-0.534
		c4.428-5.731,9.124-11.276,13.213-17.238c2.928-4.269,5.229-9.003,7.487-13.687c5.61-11.645,11.64-23.172,14.387-35.927
		c1.986-9.221,4.121-18.513,4.845-27.877c0.819-10.616,0.604-21.376-0.048-32.021c-0.467-7.597-1.844-15.254-3.813-22.617
		C414.895,202.724,411.381,193.634,408.303,184.427z M417.907,344.229c0.598,1.001,1.228,2.878,1.785,2.856
		c3.165-0.12,6.329-0.607,9.455-1.182c0.706-0.129,1.728-1.051,1.798-1.695c0.296-2.711-3.983-8.007-6.636-8.248
		c-3.171-0.29-6.365-0.356-9.55-0.479c-0.923-0.036-1.853,0.071-3.095,0.127c2.869,2.695,5.879,4.696,6.257,8.58L417.907,344.229z
		 M388.127,360.713c1.335,0.989,2.802,2.123,4.317,3.188c4.827,3.393,9.979,5.902,16.041,6.124
		c8.079,0.295,14.992-2.604,21.227-7.496c4.649-3.65,9.351-7.237,13.934-10.969c0.747-0.608,1.36-1.804,1.418-2.765
		c0.341-5.597,0.634-11.204,0.688-16.811c0.123-12.944-5.644-22.308-17.546-27.552c-3.095-1.363-6.54-1.933-9.623-2.809
		c-1.487,4.311-2.664,8.044-4.065,11.693c-1.439,3.745-3.098,7.405-4.664,11.112c4.48,2.832,13.276-0.1,13.33-6.484
		c0.016-1.819,0.826-2.602,2.943-1.967c5.589,1.674,8.491,8.204,5.635,13.313c-0.808,1.444-1.953,2.697-3.009,4.124
		c3.791,2.192,4.777,6.078,5.891,9.973c0.787,2.76,0.012,4.864-2.577,5.587c-3.653,1.022-7.456,1.583-11.229,2.069
		c-1.397,0.18-2.058,0.33-2.481,1.885c-1.384,5.073-7.457,8.029-13.239,6.094c-2.381-0.798-2.817-2.35-1.624-4.664
		c3.272-6.345,2.639-11.564-1.546-15.064C397.388,346.362,392.8,353.473,388.127,360.713z M424.074,281.271
		c-0.453,2.023-1.009,4.505-1.578,7.052c5.726,0.476,11.146,0.805,16.537,1.4c9.456,1.047,17.066-2.555,23.041-9.501
		c3.633-4.224,6.76-8.937,9.696-13.688c3.604-5.831,7.854-11.042,13.287-15.567c-7.78-5.728-12.924-13.316-18.467-20.673
		c-3.53-4.685-8.27-8.667-13.072-12.12c-3.916-2.816-8.833-3.211-13.801-2.289c-5.382,1-10.85,1.532-16.562,2.307
		c0.649,2.958,1.196,5.439,1.748,7.946c10.09-2.125,19.389-1.373,26.776,5.623c5.112,4.842,9.19,10.776,13.734,16.218
		c2.245,2.688,2.012,5.346-0.005,8.045c-4.035,5.399-7.998,10.852-12.075,16.221c-3.448,4.542-8.201,7.238-13.711,8.05
		C434.602,281.034,429.46,280.967,424.074,281.271z M443.377,245.977c0.588,0.037,1.056,0.034,1.514,0.098
		c3.623,0.507,7.015,3.042,7.496,6.164c0.452,2.938-2.029,4.575-4.023,5.87c-3.171,2.056-5.708,4.301-7.404,7.856
		c-1.616,3.39-5.467,2.928-7.203-0.451c-1.685-3.28-3.999-5.903-7.236-7.12c-0.607,5.981-1.194,11.77-1.779,17.537
		c1.592,0.206,2.867,0.382,4.146,0.534c7.236,0.867,14.512,0.374,19.674-5.102c5.162-5.477,9.232-11.989,13.65-18.141
		c0.397-0.552,0.132-1.989-0.332-2.676c-2.511-3.722-4.977-7.508-7.861-10.934c-2.192-2.602-4.722-5.111-7.568-6.931
		c-5.289-3.381-11.242-4.355-17.495-3.229c-1.046,0.189-2.156,0.027-3.73,0.027c0.226,2.791,0.489,5.701,0.687,8.615
		c0.201,2.953,0.336,5.91,0.495,8.749c5.694-0.577,6.59-5.348,8.396-9.218c0.988,0.465,1.75,0.824,2.512,1.182
		c0.093-0.132,0.187-0.263,0.279-0.396c-0.565-0.268-1.131-0.536-1.696-0.804C440.646,237.037,441.896,238.56,443.377,245.977z
		 M407.326,329.166c0.103,0.335,0.205,0.671,0.309,1.006c5.623,2.386,11.354,3.611,17.302,1.18c4.559-1.863,5.24-6.827,1.485-10.015
		c-1.177,1.417-2.2,3.006-3.56,4.216c-3.772,3.355-8.427,3.168-13.07,2.98C408.98,328.5,408.149,328.942,407.326,329.166z
		 M407.174,354.971c3.709,2.772,8.367-2.107,8.182-6.597c-0.199-4.799-6.164-12.765-11.731-14.748
		c1.065,1.931,1.698,3.365,2.582,4.624C410.136,343.839,410.547,349.479,407.174,354.971z M435.197,252.65
		c6.893,5.521,8.199,5.392,13.397,0.059c-2.224-1.166-4.312-3.123-6.389-3.115C439.97,249.603,437.741,251.455,435.197,252.65z
		 M426.72,251.093c4.935,0.168,6.634-0.374,10.266-2.946c3.703-2.621,3.719-2.709,0.962-6.905
		C435.636,245.851,432.14,249.034,426.72,251.093z M437.846,264.19c2.455-4.169,2.371-4.593-1.539-6.862
		c-1.289-0.748-2.609-1.539-4.019-1.959c-1.429-0.426-2.986-0.418-4.487-0.601c1.914,1.757,4.005,2.71,5.654,4.165
		C435.131,260.41,436.37,262.381,437.846,264.19z"/>
	<path fill-rule="evenodd" clip-rule="evenodd" d="M188.207,34.012c1.134,1.398,2.659,2.643,3.283,4.24
		c0.538,1.378-2.14,4.001-3.6,4.044c-1.889,0.055-3.566-1.764-3.609-3.913C184.241,36.24,185.691,34.538,188.207,34.012z"/>
	<path fill-rule="evenodd" clip-rule="evenodd" d="M467.044,300.94c-1.627-0.08-2.682-1.288-2.671-3.534
		c0.013-2.378,1.524-4.306,3.564-4.105c1.927,0.189,3.19,1.313,3.203,3.483C471.157,299.364,469.927,300.891,467.044,300.94z"/>
	<path fill-rule="evenodd" clip-rule="evenodd" d="M33.207,293.457c1.917-0.146,2.967,0.968,2.949,3.146
		c-0.017,2.062-1.946,4.003-3.964,3.888c-2.28-0.13-3.234-1.62-3.262-3.717C28.901,294.651,30.434,293.435,33.207,293.457z"/>
	<path fill-rule="evenodd" clip-rule="evenodd" d="M308.817,38.606c1.335-1.597,2.228-3.624,3.384-3.786
		c1.196-0.168,3.091,1.203,3.831,2.418c0.518,0.85,0.003,2.931-0.783,3.793c-0.709,0.776-2.575,1.124-3.635,0.771
		C310.593,41.46,309.952,39.981,308.817,38.606z"/>
	<path fill-rule="evenodd" clip-rule="evenodd" d="M469.12,204.625c0.582,0.658,2.12,1.643,2.439,2.93
		c0.487,1.968-1.976,4.192-3.915,4.109c-2.42-0.104-3.3-1.692-3.211-3.741C464.527,205.756,465.97,204.681,469.12,204.625z"/>
	<path fill-rule="evenodd" clip-rule="evenodd" d="M309.433,463.358c0.688-0.517,1.771-1.772,3.123-2.227
		c1.423-0.479,4.413,2.284,3.881,3.6c-0.565,1.404-1.938,3.04-3.292,3.44C311.061,468.787,309.382,466.759,309.433,463.358z"/>
	<path fill-rule="evenodd" clip-rule="evenodd" d="M408.959,404.089c-0.109-2.266,0.985-3.352,3.107-3.451
		c2.36-0.111,3.505,1.313,3.495,3.402c-0.009,1.847-0.795,3.482-3.174,3.303C410.315,407.188,408.658,406.595,408.959,404.089z"/>
	<path fill-rule="evenodd" clip-rule="evenodd" d="M91.183,101.799c0.285,2.08-1.506,2.757-3.498,2.77
		c-2.044,0.014-2.851-1.465-2.891-3.391c-0.047-2.259,1.297-3.641,3.288-3.779C90.521,97.23,91.056,99.196,91.183,101.799z"/>
	<path fill-rule="evenodd" clip-rule="evenodd" d="M88.328,406.117c-1.959-0.061-3.456-1.703-3.231-3.734
		c0.215-1.946,1.274-3.513,3.316-3.461c1.743,0.045,3.169,1.102,3.197,3.188C91.638,404.209,90.016,406.169,88.328,406.117z"/>
	<path fill-rule="evenodd" clip-rule="evenodd" d="M409.483,102.728c0.124-3.143,1.142-4.694,3.312-4.767
		c1.927-0.065,3.47,1.489,3.058,3.189c-0.355,1.469-1.913,3.056-3.339,3.677C411.84,105.122,410.234,103.282,409.483,102.728z"/>
	<path fill-rule="evenodd" clip-rule="evenodd" d="M191.193,464.533c0.138,2.292-1.19,3.457-3.186,3.424
		c-1.875-0.031-3.049-1.229-2.977-3.337c0.073-2.136,1.2-3.519,3.227-3.396C189.972,461.328,191.52,462.316,191.193,464.533z"/>
	<path fill-rule="evenodd" clip-rule="evenodd" d="M36.826,207.337c-0.453,2.578-1.254,3.85-3.415,3.806
		c-2.196-0.044-3.479-1.174-3.578-3.426c-0.069-1.572,2.15-3.842,3.665-3.313C34.791,204.856,35.73,206.32,36.826,207.337z"/>
	<path fill-rule="evenodd" clip-rule="evenodd" d="M281.062,470.978c0.789,1.229,1.58,2.458,2.369,3.687
		c-2.248,1.151-4.495,2.303-6.743,3.453c-0.838-1.019-1.677-2.037-2.516-3.057C276.469,473.699,278.765,472.339,281.062,470.978z"/>
	<path fill-rule="evenodd" clip-rule="evenodd" d="M274.172,475.061c0.839,1.02,1.678,2.038,2.516,3.057
		c-1.531,0.653-3.063,1.307-4.596,1.959c-0.058-1.292-0.114-2.585-0.171-3.878C272.67,475.818,273.421,475.439,274.172,475.061z"/>
	<path fill-rule="evenodd" clip-rule="evenodd" d="M445.038,158.365c0.041-2.923-1.409-4.439-3.971-6.019
		c-4.037-2.49-7.476-5.952-11.16-9.011c-0.975-0.809-1.924-1.648-2.886-2.474c0.778-1.173,1.558-2.347,2.336-3.52
		c2.973,2.224,5.979,4.406,8.909,6.686c2.438,1.895,4.624,4.156,7.213,5.798c2.937,1.862,3.948,4.202,3.209,7.471
		C447.472,157.652,446.255,158.009,445.038,158.365z"/>
	<path fill-rule="evenodd" clip-rule="evenodd" d="M75.187,184.314c0.352-1.731,0.448-3.654,2.872-3.835
		c0.393,0.958,0.785,1.915,1.178,2.872c-0.227,0.348-0.454,0.695-0.682,1.043C77.432,184.368,76.309,184.341,75.187,184.314z"/>
	<path fill-rule="evenodd" clip-rule="evenodd" d="M445.038,158.365c1.217-0.356,2.434-0.713,3.65-1.069
		c0.304,5.13,0.721,10.257,0.885,15.392c0.253,7.88-2.011,15.155-5.768,22.004c-0.35,0.636-0.946,1.136-1.43,1.699
		c-0.927-0.785-1.854-1.57-2.783-2.354c1.482-3.28,3.815-6.446,4.27-9.862c0.934-7.007,0.875-14.148,1.191-21.236
		C445.121,161.417,445.047,159.89,445.038,158.365z"/>
	<path fill-rule="evenodd" clip-rule="evenodd" d="M117.644,163.468c1.769-2.205,3.592-4.369,5.29-6.628
		c1.358-1.809,2.442-3.829,3.854-5.589c7.922-9.872,16.986-18.597,27.275-25.947c6.886-4.92,13.913-9.71,21.239-13.929
		c10-5.759,20.571-10.355,31.923-12.88c3.831-0.853,7.653-1.762,11.511-2.474c5.271-0.972,10.543-2.139,15.868-2.566
		c6.899-0.555,13.868-0.86,20.777-0.57c15.681,0.658,31.252,2.488,45.951,8.381c10.578,4.24,21.242,8.491,31.216,13.93
		c7.212,3.931,13.354,9.82,19.975,14.837c-0.789,0.731-1.578,1.464-2.366,2.195c-0.86-0.502-1.775-0.929-2.569-1.518
		c-3.755-2.789-7.476-5.623-11.21-8.44c-0.232,0.898,0.119,1.26,0.116,1.62c-0.074,8.898,3.098,16.977,6.259,25.063
		c0.532,1.362,1.172,2.145,2.852,2.519c5.998,1.339,11.867,3.281,17.887,4.484c3.153,0.63,6.52,0.197,9.79,0.244
		c1.174-0.652,2.348-1.304,3.521-1.956c8.618,11.444,16.58,23.353,22.264,36.513c5.666,13.118,9.271,26.874,11.099,41.138
		c1.713,13.369,1.327,26.691-0.285,39.93c-1.539,12.64-4.761,24.998-9.563,36.85c-6.473,15.969-16.037,30.105-26.452,43.694
		c-1.104,1.44-2.963,2.299-4.472,3.429c-0.832-0.406-1.662-0.812-2.494-1.218c3.345-4.276,6.689-8.554,10.033-12.83
		c-0.154-0.259-0.31-0.516-0.465-0.773c-3.021,0.396-6.108,0.521-9.05,1.246c-6.119,1.508-12.177,3.275-18.217,5.084
		c-0.928,0.277-1.975,1.183-2.367,2.063c-3.729,8.372-7.649,16.694-8.955,25.902c-0.157,1.106-0.021,2.253-0.021,3.381
		c0.277,0.207,0.556,0.414,0.833,0.621c6.829-5.567,13.657-11.135,20.485-16.702c1.124,0.563,2.249,1.125,3.373,1.688
		c-1.951,1.869-3.827,3.825-5.864,5.594c-12.836,11.148-26.791,20.548-42.649,26.899c-10.169,4.074-20.602,7.283-31.426,9.112
		c-10.471,1.77-21.007,2.72-31.638,2.571c-5.703-0.08-11.407-0.014-17.229-0.014c-0.13-1.019-0.229-1.788-0.363-2.843
		c-0.186,0.927-0.313,1.56-0.592,2.954c-7.091-1.329-14.349-1.972-21.129-4.119c-11.747-3.722-23.544-7.642-34.666-12.87
		c-9.024-4.244-17.236-10.313-25.543-15.962c-11.701-7.956-21.289-18.263-29.828-29.385c-9.528-12.412-17.352-25.866-22.612-40.783
		c-4.19-11.883-7.262-23.952-8.709-36.444c-0.358-3.09-0.606-6.212-0.603-9.318c0.008-6.982-0.041-13.979,0.379-20.943
		c0.786-13.043,3.482-25.83,7.994-38.01c3.391-9.153,8.433-17.694,12.74-26.507c1.157,0.592,2.315,1.184,3.473,1.777
		c-2.061,3.675-4.123,7.349-6.326,11.277c1.296,0.201,2.384,0.688,3.284,0.455c4.872-1.267,9.703-2.698,14.53-4.129
		c0.4-0.119,0.943-0.652,0.964-1.019c0.434-7.668,1.693-15.401-1.574-23.086c-2.01,2.76-3.905,5.364-5.801,7.968
		C118.787,166.112,118.215,164.79,117.644,163.468z M325.923,192.889c-0.278,0.077-0.559,0.154-0.838,0.231
		c-0.091-0.255-0.183-0.509-0.274-0.764l0.151-0.077l-0.063,0.122c-0.971-0.696-2.038-1.289-2.894-2.106
		c-2.574-2.458-4.977-5.1-7.603-7.499c-12.998-11.872-28.283-19.081-45.565-22.191c-11.289-2.032-22.61-1.885-33.918-0.396
		c-9.528,1.254-18.815,3.785-27.257,8.323c-10.523,5.656-20.245,12.589-28.267,21.616c-11.096,12.483-17.945,26.987-21.116,43.387
		c-2.328,12.04-2.498,24.092-0.178,36.012c2.729,14.019,8.124,27.001,17.735,37.925c2.139,2.431,3.684,5.451,6.044,7.606
		c4.561,4.164,9.406,8.037,14.314,11.795c13.871,10.622,34.183,15.143,47.98,15.889c3.657,0.197,7.338,0.266,10.994,0.092
		c14.205-0.679,27.723-4.034,40.371-10.666c2.522-1.322,5.295-2.234,7.647-3.796c2.053-1.361,3.632-3.42,5.496-5.084
		c3.215-2.869,6.713-5.453,9.7-8.537c16.588-17.111,24.637-37.973,25.93-61.478c0.51-9.255-0.517-18.553-3.813-27.351
		c-3.193-8.523-6.721-16.922-10.103-25.376c-0.021-0.237-0.044-0.474-0.066-0.711c-1.747-2.272-3.494-4.544-5.241-6.816
		c0.305-0.067,0.611-0.133,0.9-0.186c-0.05-0.014-0.1-0.028-0.15-0.042c0.049-0.016,0.098-0.032,0.146-0.048
		C325.964,192.804,325.943,192.847,325.923,192.889z M102.235,253.265c-0.211,0.044-0.332,0.172-0.364,0.385
		c-0.018,0.296-0.036,0.591-0.054,0.886c-0.409,0.439-0.817,0.878-1.225,1.317c-2.132-1.554-4.265-3.108-6.734-4.908
		c-0.717,18.045,2.627,34.948,8.555,51.639c3.434-2.245,5.12-5.405,6.123-8.842c1.878-6.438,3.346-12.996,5.246-19.427
		c0.728-2.465,0.507-4.084-1.622-5.71c-1.27-0.97-1.977-2.677-2.936-4.052c1.499,0.04,2.996,0.079,4.494,0.118
		c0.841,0.797,1.682,1.595,2.753,2.608c3.303-8.084,7.125-15.44,13.398-21.225c-5.844-7.025-9.374-14.797-11.805-23.848
		c-3.23,5.249-5.82,10.143-9.072,14.549c-3.229,4.374-7.122,8.257-10.633,12.253c1.042,1.102,2.349,2.482,3.655,3.863
		C101.998,253.054,102.072,253.185,102.235,253.265z M144.87,367.497l0.071,0.092c0.232,0.185,0.465,0.369,0.696,0.554
		c0.217-0.366,0.433-0.733,0.65-1.1c1.952,1.417,3.881,2.866,5.859,4.247c3.316,2.314,6.664,4.586,10.493,7.217
		c-1.296-10.441-4.172-19.568-7.69-28.531c-0.717-1.829-1.629-2.825-3.797-2.859c-1.729-0.027-3.496-0.663-5.16-1.264
		c-7.115-2.568-14.327-4.414-22.396-3.507c1.542,1.755,2.866,3.339,4.269,4.848c5.014,5.388,10.082,10.724,15.057,16.146
		c0.817,0.892,1.266,2.121,1.885,3.194C144.828,366.854,144.849,367.176,144.87,367.497z M177.058,322.46
		c-0.142,0.164-0.283,0.327-0.424,0.491c-0.465,2.246-0.943,4.491-1.395,6.741c-0.988,4.925-0.691,9.819,0.063,14.969
		c9.042-1.256,16.858-4.299,23.339-10.203c-6.52-5.515-12.759-10.792-19.025-16.093C178.714,319.809,177.886,321.134,177.058,322.46
		z M127.252,279.289c1.746,0.759,3.49,1.519,5.487,2.385c4.425-7.078,9.819-13.555,17.162-18.953
		c-6.969-3.801-13.375-7.807-17.468-14.374c-0.897,1.024-1.854,1.848-2.476,2.875c-3.388,5.578-6.703,11.202-10.023,16.822
		c-0.847,1.434-0.863,2.612,0.559,3.938c2.299,2.145,4.314,4.596,6.45,6.916C127.045,279.029,127.149,279.159,127.252,279.289z
		 M237.891,376.675c-3.066,1.71-6.133,3.42-8.916,4.971c7.576,4.645,15.624,9.365,20.33,16.445c2.725-2.266,5.389-4.481,8.052-6.696
		c1.343,0.62,2.687,1.239,4.028,1.859c-3.26,3.277-6.796,6.343-8.795,11.404c18.687-1.097,36.846-2.304,54.08-10.591
		c-3.384-3.4-6.773-5.638-10.857-6.613c-4.003-0.956-8.19-1.316-12.047-2.657c-4.386-1.525-8.416-2.656-12.286,0.899
		c-0.806-0.95-1.609-1.901-2.415-2.852c0.646-0.592,1.291-1.185,1.451-1.332c-6.864-3.523-13.719-7.043-20.432-10.488
		c-3.269,1.523-6.777,3.159-10.284,4.793c-0.218,0.1-0.435,0.198-0.652,0.298c-0.283,0.146-0.565,0.292-0.848,0.438
		c-0.02-0.24-0.039-0.48-0.057-0.721C238.125,376.113,238.008,376.394,237.891,376.675z M285.459,128.932
		c0.174-0.166,0.348-0.332,0.521-0.498c-0.259-0.01-0.516-0.021-0.773-0.031c0.017,0.201,0.034,0.401,0.052,0.602
		c-0.86-0.419-1.82-0.712-2.562-1.286c-1.699-1.313-3.459-2.613-4.873-4.205c-1.133-1.276-2.164-1.048-3.395-0.579
		c-7.729,2.948-14.795,6.997-20.42,12.137c4.744,6.325,9.425,12.567,13.704,18.273c6.9-5.879,14.113-12.024,21.448-18.272
		c-0.206-0.285-0.855-1.063-1.368-1.922C286.969,131.773,286.232,130.342,285.459,128.932z M255.654,107.482
		c-1.793-1.992-3.586-3.984-5.316-5.908c-0.657,0.83-1.325,1.672-1.992,2.514c-1.726,1.13-2.921,0.312-3.961-1.078
		c1.161-1.979,2.322-3.956,3.812-6.494c-18.643,0.856-36.22,3.591-53.296,11.053c1.827,1.296,3.12,2.397,4.574,3.214
		c6.522,3.667,13.904,4.536,20.987,6.407c3.169,0.837,5.644-0.362,8.121-1.829c2.404-1.426,4.694-3.041,7.036-4.573
		c1.012,0.733,2.024,1.467,3.037,2.201c-3.164,2.211-6.326,4.422-8.849,6.185c7.018,4.256,14.225,8.627,21.117,12.807
		c6.728-4.196,13.703-8.548,20.44-12.75c-2.979-2.12-6.521-4.643-10.066-7.164c0.596-1.041,1.19-2.081,1.786-3.121
		c2.576,1.643,5.181,3.244,7.725,4.938c3.851,2.566,7.66,5.17,12.668,3.319c0.425-0.157,0.938-0.065,1.401-0.137
		c7.906-1.238,15.806-2.496,22.078-8.43c-12.166-5.886-24.977-9.336-38.295-10.819c0.188-0.815,0.284-1.235,0.237-1.029
		c-4.952,2.024-10.215-1.122-15.818,0.247c2.153,3.113,4.081,5.9,6.01,8.688C257.944,106.309,256.799,106.895,255.654,107.482z
		 M383.733,222.862c-0.486,0.656-1.154,1.244-1.432,1.979c-2.851,7.544-6.394,14.712-10.975,20.629
		c4.551,7.292,8.917,14.288,12.893,20.659c5.803-5.721,11.946-11.775,17.842-17.588c-3.024-3.476-6.533-6.922-9.329-10.874
		c-3.326-4.705-6.041-9.842-9.021-14.792c-0.013-0.146-0.024-0.291-0.037-0.435c-0.118,0.069-0.237,0.14-0.355,0.209
		C383.457,222.721,383.595,222.791,383.733,222.862z M193.168,393.712c5.385,5.448,46.291,13.014,54.793,10.385
		c-1.626-2.18-2.931-4.779-4.975-6.507c-5.628-4.759-11.522-9.208-17.428-13.625c-0.884-0.661-2.458-0.847-3.6-0.636
		c-4.789,0.882-9.578,1.832-14.283,3.072C202.434,387.784,197.35,389.638,193.168,393.712z M406.889,246.105
		c0.293-0.118,0.585-0.235,0.877-0.352c-0.727-6.088-1.475-12.173-2.172-18.264c-0.665-5.812-2.439-11.376-3.898-16.997
		c-1.528-5.891-3.581-11.645-5.482-17.701c-5.785,3.794-6.339,10.023-9.022,14.905c-1.611,2.933-1.53,6.805-2.158,10.264
		c-0.103,0.564-0.147,1.317,0.136,1.748c3.229,4.905,6.587,9.724,9.787,14.646C398.088,239.176,401.896,243.241,406.889,246.105z
		 M106.312,191.644c-5.537,7.464-13.772,44.026-12.032,54.626c3.512-3.344,7.188-5.959,9.69-9.423
		c4.321-5.98,7.936-12.473,11.767-18.797c0.308-0.508,0.14-1.427-0.043-2.09c-1.215-4.411-2.304-8.872-3.809-13.187
		C110.526,198.876,109.641,194.647,106.312,191.644z M397.712,302.02c1.477-3.954,2.956-7.16,3.862-10.521
		c1.313-4.87,2.496-9.812,3.22-14.797c1.111-7.65,1.828-15.361,2.563-23.06c0.056-0.587-1.187-1.902-1.61-1.815
		c-1.231,0.249-2.62,0.779-3.474,1.66c-5.022,5.169-9.936,10.444-14.823,15.741c-1.338,1.45-1.597,3.019-0.858,5.113
		c1.361,3.863,2.344,7.882,3.204,11.895C391.009,291.886,393.151,297.006,397.712,302.02z M211.317,136.715
		c8.744,3.964,15.031,10.328,20.837,16.546c5.204-6.155,10.129-11.982,15.056-17.811c-4.235-4.517-14.837-11.064-20.654-12.458
		c-1.027-0.247-2.625,0.198-3.409,0.92c-3.229,2.972-6.287,6.136-9.317,9.315C212.847,134.257,212.142,135.552,211.317,136.715z
		 M210.26,365.194c4.524,4.38,8.522,8.312,12.616,12.138c0.529,0.495,1.604,0.737,2.349,0.617
		c8.174-1.316,14.594-6.176,21.329-10.263c-5.181-6.559-10.132-12.826-15.271-19.332C225.532,355.227,219.082,361.22,210.26,365.194
		z M352.589,318.392c4.896-1.813,9.427-3.376,13.866-5.161c7.308-2.94,7.377-3.19,5.503-11.043c-0.131-0.548-0.194-1.111-0.34-1.654
		c-1.242-4.644-2.254-9.384-5.307-13.32c-6.754,4.61-14.306,6.133-22.472,7.144C349.275,301.427,351.401,309.383,352.589,318.392z
		 M289.869,365.411c-8.045-4.979-15.601-9.473-20.437-16.162c-5.161,6.146-10.368,12.347-15.615,18.598
		c1.665,1.01,3.573,2.378,5.656,3.388c4.775,2.32,9.593,4.569,14.497,6.593c0.974,0.401,2.744,0.064,3.583-0.62
		c2.898-2.37,5.572-5.02,8.282-7.612C287.207,368.283,288.475,366.863,289.869,365.411z M155.026,294.972
		c-6.401-2.149-12.645-4.298-18.936-6.294c-0.769-0.244-2.379,0.052-2.612,0.556c-2.917,6.295-4.708,12.919-5.165,19.863
		c-0.036,0.541,0.254,1.38,0.666,1.629c1.628,0.984,3.299,1.967,5.075,2.626c4.507,1.674,9.079,3.173,13.837,4.814
		C149.509,309.835,150.31,301.46,155.026,294.972z M325.294,348.165c-9.271-0.159-16.209-4.006-23.148-8.299
		c-0.293,8.668-2.075,16.588-6.435,23.59c1.088,0.59,2.104,1.142,3.121,1.694c0.655,0.565,1.746,0.625,2.787,0.884
		c3.726,0.929,7.481,1.776,11.132,2.946c2.509,0.804,4.135,0.399,5.129-2.138C320.23,360.847,322.629,354.87,325.294,348.165z
		 M205.006,363.976c-4.76-7.697-7.104-15.423-7.033-23.584c-3.619,1.779-7.022,3.752-10.646,5.152
		c-3.673,1.419-7.563,2.274-12.002,3.563c2.09,4.931,3.886,9.852,6.221,14.502c2.97,5.914,3.206,6.034,9.65,4.595
		C195.749,367.187,200.15,365.49,205.006,363.976z M164.681,122.75c-0.208-0.143-0.417-0.287-0.625-0.43
		c-6.171,4.971-12.561,9.698-18.454,14.979c-5.904,5.292-11.312,11.138-17.162,16.964c0.448,0.212,1.286,0.957,2.095,0.926
		c2.594-0.098,5.194-0.372,7.76-0.779c5.44-0.862,10.838-2.023,16.299-2.698c2.039-0.252,3.045-1.172,3.729-2.783
		c2.892-6.813,4.97-13.857,5.856-21.225C164.377,126.058,164.515,124.402,164.681,122.75z M149.581,230.38
		c-5.528-6.762-11.037-13.5-16.654-20.371c-2.735,1.827-5.943,3.917-9.094,6.089c-3.427,2.361-3.591,3.004-2.193,7.071
		c0.183,0.533,0.277,1.108,0.535,1.601c3.265,6.236,6.551,12.46,10.004,19.013C137.294,237.11,143.484,233.369,149.581,230.38z
		 M368.65,242.944c1.458-2,3.475-4.048,4.633-6.5c2.374-5.032,4.335-10.261,6.327-15.462c0.239-0.622-0.117-1.924-0.643-2.314
		c-3.758-2.796-7.632-5.439-10.853-7.698c-6.047,7.24-11.572,13.856-16.61,19.887C356.92,234.674,362.82,238.835,368.65,242.944z
		 M351.957,263.555c6.898,4.279,11.55,11.23,16.688,18.271c3.297-2.768,6.515-5.574,9.85-8.232c2.537-2.023,2.76-3.958,1.17-6.91
		c-3.372-6.262-7.27-12.071-11.733-17.119C362.451,254.363,357.224,258.941,351.957,263.555z M154.946,155.854
		c-8.417,1.325-16.795,2.644-24.729,3.893c0,7.331,0,14.696,0,22.143c0.694,0,1.066,0.078,1.393-0.011
		c6.116-1.66,12.208-3.42,18.354-4.96c1.645-0.412,2.096-0.997,2.245-2.698c0.507-5.813,0.148-11.811,3.088-17.207
		C155.445,156.743,155.052,156.178,154.946,155.854z M366.438,206.052c1.449-6.052,2.87-11.619,4.016-17.241
		c0.145-0.711-0.969-2.142-1.813-2.504c-2.654-1.137-5.427-2.038-8.213-2.815c-3.71-1.035-7.478-1.867-11.284-2.802
		c-1.841,7.743-2.54,15.279-8.015,21.548C349.967,201.262,358,202.474,366.438,206.052z M160.647,202.14
		c-5.852-6.046-7.341-12.972-8.518-20.049c-0.106-0.636-1.244-1.702-1.652-1.598c-6.307,1.618-12.587,3.344-18.82,5.223
		c-0.588,0.177-1.284,1.648-1.136,2.352c1.074,5.087,2.306,10.143,3.597,15.18c0.352,1.375,1.304,1.394,2.648,0.909
		C144.21,201.475,151.797,199.818,160.647,202.14z M200.788,155.899c-0.501-6.349,1.876-12.481,5.094-18.796
		c-7.041-3.687-14.138-6.218-21.525-7.707c-2.252,6.883-4.358,13.324-6.348,19.405C185.79,151.226,193.115,153.508,200.788,155.899z
		 M124.898,337.873c9.748-1.233,18.203,3.622,27.249,5.405c-2.403-6.016-4.047-12.01-3.955-18.327
		c0.034-2.309-1.001-3.229-2.954-3.669c-0.818-0.183-1.675-0.248-2.454-0.532c-5.328-1.942-10.64-3.929-15.254-5.641
		C128.05,322.209,128.688,330.005,124.898,337.873z M317.294,130.278c-7.71,2.299-14.632,4.362-21.29,6.349
		c-0.126,0.679-0.185,0.79-0.153,0.859c2.646,5.886,4.854,11.866,5.188,18.436c0.084,1.646,1.32,1.925,2.805,0.717
		c1.405-1.143,2.984-2.3,4.68-2.816c4.584-1.393,9.271-2.448,14.594-3.811C321.312,143.894,319.355,137.261,317.294,130.278z
		 M347.295,156.336c0.933,7.08,1.873,14.211,2.739,20.784c6.632,1.744,13.418,3.529,19.945,5.246
		c0.299-7.079,0.602-14.307,0.887-21.068C363.24,159.692,355.08,157.975,347.295,156.336z M373.089,315.287
		c-6.118,2.001-12.269,3.963-18.367,6.074c-0.74,0.256-1.715,1.323-1.711,2.01c0.039,6.847-1.003,13.468-3.814,19.667
		c8.755-2.285,17.332-4.523,25.817-6.738C371.983,329.794,373.664,322.14,373.089,315.287z M326.886,320.763
		c2.333,7.704,3.672,14.795,2.262,22.158c-0.402,2.104,0.437,2.971,2.578,2.739c3.811-0.41,7.633-0.707,11.437-1.163
		c0.577-0.069,1.323-0.625,1.579-1.155c2.877-5.958,4.503-12.209,4.311-18.889c-0.048-1.628-0.707-1.948-2.229-2.051
		c-5.793-0.389-11.572-0.974-17.357-1.479C328.714,320.857,327.959,320.827,326.886,320.763z M178.078,153.479
		c-1.326,9.928-0.358,18.718,3.966,26.492c6.429-4.078,12.742-8.029,18.965-12.117c0.582-0.382,0.958-1.699,0.812-2.464
		c-0.782-4.09-4.029-5.93-7.483-7.111C189.152,156.506,183.823,155.152,178.078,153.479z M324.588,177.852
		c6.011-0.251,12.64-0.47,19.255-0.896c0.655-0.042,1.771-1.366,1.755-2.075c-0.14-6.38-0.959-12.674-3.447-18.62
		c-0.243-0.58-1.185-1.212-1.815-1.229c-4.312-0.107-8.628-0.057-12.776-0.057c-0.237,4.137-0.241,8.072-0.749,11.94
		C326.312,170.711,325.302,174.438,324.588,177.852z M124.684,308.557c0.812-7.03,2.16-14.118,5.414-20.711
		c0.552-1.118,1.184-2.027-0.32-3.09c-4.265-3.015-8.413-6.193-12.686-9.365c-2.182,9.118-3.711,18.565-8.432,26.767
		C113.942,304.267,119.255,306.389,124.684,308.557z M173.516,320.5c-1.667,0.392-3.718,1.078-5.821,1.33
		c-5.098,0.612-10.222,1.022-15.398,1.52c-0.065,0.232-0.315,0.627-0.245,0.951c1.292,5.902,2.588,11.803,3.995,17.677
		c0.134,0.562,0.954,1.258,1.549,1.364c4.271,0.758,8.565,1.38,12.967,2.064c0.268-4.728,0.298-8.742,0.773-12.704
		C171.818,328.688,172.741,324.726,173.516,320.5z M298.806,166.359c5.784,4.062,11.398,7.783,16.738,11.863
		c2.173,1.661,3.07,1.289,4.251-0.864c3.823-6.968,3.956-14.481,3.656-22.08C315.155,153.883,300.648,159.409,298.806,166.359z
		 M370.079,285.892c4.588,7.277,5.271,15.681,6.755,23.69c4.604-3.959,9.744-6.474,14.762-7.412
		c-1.662-4.542-3.441-8.828-4.786-13.247c-1.35-4.441-2.268-9.016-3.472-13.932C378.729,278.78,374.486,282.27,370.079,285.892z
		 M280.195,379.26c9.954,3.261,19.75,3.478,26.751,9.916c2.517-5.603,4.885-10.871,7.117-15.84
		c-7.016-2.086-13.939-4.144-19.776-5.879C289.637,371.353,285.119,375.136,280.195,379.26z M272.063,345.506
		c0.091,0.294,0.096,1.308,0.604,1.792c5.128,4.881,10.119,9.896,16.557,13.211c2.298,1.183,3.613,0.879,4.307-1.288
		c1.642-5.139,3.254-10.306,4.443-15.56c0.553-2.438,0.095-5.104,0.095-7.611C289.25,339.256,280.794,342.332,272.063,345.506z
		 M202.509,336.376c-2,9.226,0.814,17.424,6.013,25.3c8.194-4.157,14.88-9.779,20.125-16.376
		C220.093,342.38,211.42,339.418,202.509,336.376z M155.459,175.481c7.213,0.577,13.903,1.113,20.821,1.667
		c-3.311-7.372-2.736-15.347-2.549-23.849c-4.322,0.323-8.394,0.539-12.437,1.007c-0.779,0.09-1.926,1.067-2.083,1.81
		C157.873,162.448,156.723,168.821,155.459,175.481z M270.128,156.047c8.97,2.973,17.478,5.792,26.131,8.66
		c1.52-9.113,0.792-17.618-4.792-26.042C284.228,144.561,277.175,150.306,270.128,156.047z M322.227,317.902
		c-7.396,5.768-13.998,10.918-20.677,16.125c6.22,5.498,13.481,8.705,21.514,10.23c0.685,0.131,2.188-0.621,2.227-1.06
		c0.329-3.674,0.925-7.443,0.427-11.045C325.063,327.438,323.485,322.851,322.227,317.902z M193.342,388.39
		c7.536-6.331,16.983-5.903,26.016-7.958c-4.756-4.104-9.328-8.049-14.362-12.393c-5.256,1.533-12.29,3.581-20.13,5.865
		C190.466,377.307,190.904,383.078,193.342,388.39z M207.983,133.501c3.539-3.95,7.371-8.226,11.374-12.695
		c-8.794-1.802-17.831-3.072-25.238-8.978c-2.573,4.839-4.975,9.355-7.354,13.827C193.9,128.294,200.958,130.904,207.983,133.501z
		 M161.231,292.642c-5.824,8.152-8.691,16.673-9.07,26.301c8.649,0.434,16.504-1.391,23.86-3.708
		C171.125,307.755,166.331,300.432,161.231,292.642z M208.871,139.602c-3.905,8.075-5.876,16.3-3.826,25.041
		c8.14-2.646,16.211-5.269,24.511-7.966C223.844,149.618,217.108,143.881,208.871,139.602z M333.272,318.757
		c0.017-0.079,0.034-0.159,0.053-0.238c5.172,0,10.343,0,15.544,0c-0.789-7.135-3.924-16.339-7.523-21.597
		c-0.862-1.258-2.309-2.118-3.035-2.762c-4.72,7.228-9.154,14.018-13.965,21.387c3.71,0.931,7.21,1.811,11.183,2.808
		C334.479,318.542,333.876,318.648,333.272,318.757z M337.773,206.985c2.695,7.402,5.376,14.763,8.069,22.16
		c6.984-5.776,13.699-11.828,18.107-20.193C355.033,205.662,346.301,204.694,337.773,206.985z M282.341,121.214
		c3.331,3.844,6.522,7.634,9.868,11.282c0.539,0.587,1.881,0.95,2.653,0.727c3.928-1.135,7.767-2.574,11.682-3.754
		c2.811-0.847,5.693-1.452,8.682-2.2c-2.565-4.769-4.949-9.201-7.505-13.955C300.063,118.979,291.024,119.727,282.341,121.214z
		 M163.24,206.478c-8.939-2.941-17.371-1.123-26.308,1.49c4.755,8.026,10.483,14.74,17.883,20.094
		C157.698,220.677,160.401,213.751,163.24,206.478z M364.85,283.599c-4.666-7.054-9.24-14.115-17.301-17.765
		c-2.496,8.208-4.902,16.12-7.256,23.861C350.595,289.906,357.876,288.182,364.85,283.599z M120.143,337.876
		c0.712-1.272,1.448-2.407,2.011-3.622c2.946-6.355,1.452-13.122,1.715-19.723c0.021-0.536-0.435-1.424-0.883-1.597
		c-5.562-2.151-11.155-4.224-16.765-6.25c-0.667-0.241-1.475-0.094-2.646-0.146C107.884,317.414,113.899,327.476,120.143,337.876z
		 M158.587,348.027c2.184,6.473,4.461,13.404,6.875,20.289c0.958,2.732-0.07,5.925,1.616,7.97c4.479-2.095,8.759-4.097,12.847-6.009
		c-2.761-6.633-5.721-13.744-8.757-21.038C167.088,348.847,162.465,348.4,158.587,348.027z M396.774,306.225
		c-0.181-0.27-0.361-0.539-0.543-0.808c-2.119,0.564-4.354,0.872-6.335,1.749c-3.83,1.697-7.58,3.608-11.223,5.677
		c-0.909,0.517-1.833,1.983-1.812,2.995c0.108,5.498,0.421,10.998,0.876,16.481c0.118,1.42,1.001,2.777,1.821,4.921
		C387.143,327.154,392.742,317.122,396.774,306.225z M320.642,370.162c3.882,1.53,8.162,3.218,12.018,4.737
		c3.171-8.658,6.295-17.186,9.375-25.596c-4.454,0-9.122,0-13.139,0C326.102,356.366,323.413,363.159,320.642,370.162z
		 M156.305,179.355c-0.023,0.353-0.045,0.706-0.068,1.058c-0.301,0.888-1.005,1.87-0.822,2.644c0.434,1.84,1.427,3.543,1.944,5.373
		c1.541,5.447,3.904,10.367,8.377,14.366c0.552-0.822,0.943-1.432,1.361-2.022c3.665-5.159,7.265-10.364,11.035-15.444
		c1.487-2.003,1.42-3.304-1.022-3.638C170.198,180.746,163.243,180.112,156.305,179.355z M136.111,283.491
		c6.446,4.472,16.576,6.965,23.149,5.814c-2.045-7.742-4.094-15.493-6.163-23.318C145.996,270.128,140.962,276.604,136.111,283.491z
		 M119.11,215.524c2.994-3.983,7.836-6.534,11.669-9.018c-1.62-6.619-3.13-12.794-4.588-18.752
		c-4.83,1.388-9.975,2.866-14.657,4.212C115.243,199.699,117.672,207.735,119.11,215.524z M381.562,215.366
		c1.896-7.92,3.905-15.762,8.499-22.646c-5.283-1.284-10.462-2.542-15.649-3.802c-0.19,0.388-0.413,0.631-0.415,0.875
		c-0.044,5.821-1.643,11.207-4.316,16.348c-0.228,0.438,0.476,1.751,1.084,2.17C374.22,210.689,377.778,212.918,381.562,215.366z
		 M235.098,346.354c1.26,1.825,2.262,3.487,3.467,4.984c2.88,3.575,5.935,7.012,8.769,10.622c2.274,2.896,2.234,2.93,5.145,0.688
		c5.654-4.357,9.45-10.157,13.06-16.401c-5.132,0.343-10.044,0.915-14.958,0.934C245.59,347.199,240.599,346.671,235.098,346.354z
		 M344.904,181.014c-8.07-0.145-15.917-0.376-23.282,2.071c4.915,6.682,9.635,13.096,14.323,19.469
		C341.184,196.776,343.734,190.398,344.904,181.014z M377.025,160.313c-3.548,6.074-3.197,12.288-2.856,18.32
		c0.365,6.45,0.708,6.428,7.123,7.872c0.816,0.184,1.616,0.446,2.435,0.618c3.252,0.681,6.509,1.339,10.576,2.172
		C388.291,179.209,382.763,169.938,377.025,160.313z M152.129,260.216c0.443-0.232,0.887-0.465,1.33-0.697
		c0-8.723,0-17.445,0-26.235c-0.762,0.287-1.728,0.459-2.469,0.964c-4.693,3.198-9.232,6.637-14.041,9.65
		c-2.473,1.549-2.126,2.756-0.307,4.202C141.772,252.178,146.963,256.182,152.129,260.216z M169.311,124.361
		c-2.18,8.522-4.368,17.077-6.473,25.306c3.253,0,7.176,0,10.961,0c2.359-7.306,4.659-14.426,6.987-21.634
		C176.879,126.783,172.805,125.479,169.311,124.361z M365.167,246.403c-5.527-5.094-11.028-9.803-17.835-12.561
		c0,9.19,0,17.951,0,26.939C354.256,257.074,360.19,252.744,365.167,246.403z M331.716,125.091c-2.886,1.123-5.766,2.25-8.652,3.362
		c-1.688,0.65-2.107,1.551-1.505,3.458c1.783,5.655,3.238,11.413,4.893,17.111c0.178,0.611,0.801,1.542,1.244,1.556
		c3.686,0.126,7.378,0.071,10.417,0.071C335.921,141.892,333.813,133.467,331.716,125.091z M236.235,154.583
		c0.072,0.274,0.143,0.549,0.215,0.823c9.157,0,18.314,0,28.159,0c-4.691-6.026-9.025-11.594-13.888-17.84
		C245.508,143.69,240.872,149.137,236.235,154.583z M310.359,393.729c3.592-1.537,6.527-2.669,9.353-4.029
		c4.535-2.185,9.004-4.51,13.49-6.795c1.421-0.722,1.779-2.016,0.321-2.683c-4.982-2.273-10.091-4.271-15.384-6.469
		C315.251,380.286,311.493,386.063,310.359,393.729z M166.807,382.087c7.855,3.742,15.32,7.3,22.805,10.866
		c0.068-0.208,0.121-0.293,0.121-0.377c-0.092-6.773-3.729-12.14-7.054-17.618c-0.177-0.29-0.994-0.411-1.426-0.295
		C176.294,376.009,171.272,377.25,166.807,382.087z M311.841,110.361c1.271,6.577,4.307,11.348,7.735,15.858
		c4.525-2.12,8.65-4.052,12.776-5.985c-0.067-0.334-0.137-0.668-0.205-1.003C325.563,116.333,319.478,112.295,311.841,110.361z
		 M169.283,118.913c0.024,0.411,0.048,0.823,0.072,1.234c4.023,1.451,8.015,3.01,12.101,4.255c0.742,0.226,2.28-0.586,2.75-1.35
		c1.149-1.866,1.9-3.978,2.789-6.001c0.863-1.966,1.729-3.931,2.521-5.926c0.172-0.434,0.036-0.992,0.042-1.493
		c-0.5,0.024-1.075-0.106-1.49,0.095C181.794,112.763,175.541,115.844,169.283,118.913z M335.258,119.536
		c-0.034-0.162-0.068-0.323-0.103-0.485c-0.081,0.038-0.211,0.058-0.234,0.119c-0.058,0.146-0.065,0.313-0.094,0.472
		C334.971,119.607,335.113,119.572,335.258,119.536z"/>
	<path fill-rule="evenodd" clip-rule="evenodd" d="M350.157,132.228c0.788-0.731,1.577-1.464,2.366-2.195
		c5.561,5.216,11.197,10.354,16.647,15.685c2.722,2.66,5.099,5.673,7.632,8.526c-1.174,0.652-2.348,1.304-3.521,1.956
		c-5.208-5.52-10.39-11.065-15.637-16.548C355.216,137.113,352.656,134.699,350.157,132.228z"/>
	<path fill-rule="evenodd" clip-rule="evenodd" d="M117.644,163.468c0.571,1.322,1.143,2.645,1.715,3.966
		c-1.693,2.846-3.384,5.69-5.077,8.536c-1.158-0.593-2.315-1.185-3.473-1.777C113.088,170.617,115.366,167.043,117.644,163.468z"/>
	<path fill-rule="evenodd" clip-rule="evenodd" d="M362.548,364.26c-1.124-0.563-2.249-1.125-3.373-1.688
		c2.575-2.663,5.149-5.327,7.724-7.992c0.832,0.406,1.662,0.812,2.494,1.218C367.877,359.238,365.598,362.061,362.548,364.26z"/>
	<path fill-rule="evenodd" clip-rule="evenodd" d="M257.356,391.395c3.902-2.85,7.806-5.7,11.708-8.55
		c0.806,0.95,1.609,1.901,2.415,2.852c-3.365,2.519-6.73,5.038-10.095,7.558C260.043,392.634,258.699,392.015,257.356,391.395z"/>
	<path fill-rule="evenodd" clip-rule="evenodd" d="M109.224,264.553c-1.521-1.54-3.038-3.084-4.562-4.62
		c-1.353-1.363-2.713-2.721-4.069-4.08c0.408-0.439,0.816-0.878,1.225-1.317c-0.011-0.268-0.021-0.534-0.031-0.801
		c3.182,0.048,4.727,2.522,6.541,4.517c1.879,2.065,3.6,4.274,5.39,6.42C112.22,264.632,110.722,264.593,109.224,264.553z"/>
	<path fill-rule="evenodd" clip-rule="evenodd" d="M248.346,104.089c-2.325,3.953-5.769,6.688-9.691,8.901
		c-1.012-0.734-2.025-1.468-3.037-2.201c2.923-2.593,5.845-5.186,8.767-7.778C245.425,104.4,246.62,105.219,248.346,104.089z"/>
	<path fill-rule="evenodd" clip-rule="evenodd" d="M261.297,112.067c-1.881-1.529-3.762-3.057-5.643-4.585
		c1.145-0.587,2.29-1.173,3.435-1.761c1.331,1.075,2.662,2.15,3.994,3.225C262.487,109.986,261.893,111.027,261.297,112.067z"/>
	<path fill-rule="evenodd" clip-rule="evenodd" d="M332.797,249.124c0.411,1.146,1.168,2.24,1.131,3.307
		c-0.555,16.432-5.57,31.351-14.6,45.15c-5.577,8.522-13.41,14.338-21.2,20.396c-6.85,5.326-14.658,8.665-22.831,11.103
		c-18.273,5.45-36.568,4.767-54.558-1.211c-4.85-1.61-9.418-4.434-13.694-7.323c-5.703-3.853-11.103-8.184-16.437-12.548
		c-6.498-5.317-10.779-12.404-14.699-19.677c-7.029-13.043-9.736-27.081-8.875-41.781c0.634-10.831,3.106-21.248,7.824-31.114
		c8.388-17.544,21.827-29.802,39.033-38.425c7.122-3.569,14.438-6.173,22.298-7.347c10.369-1.547,20.696-1.645,30.987,0.627
		c15.245,3.367,29.1,9.712,40.574,20.353c13.456,12.477,21.666,28.018,24.814,46.145c0.511,2.947,0.868,5.938,1.031,8.921
		C333.663,246.933,333.028,248.203,332.797,249.124z M229.616,226.916c1.2-0.244,2.4-0.49,3.6-0.735
		c3.853,4.239,7.708,8.479,11.562,12.718c-4.151-8.283-6.939-16.851-9.24-25.608c-0.174-0.66-0.586-1.285-0.995-1.849
		c-3.243-4.483-7.459-7.864-12.249-10.532c-6.116-3.408-12.917-3.844-19.884-4.718c0.242,3.277,0.493,6.156,0.662,9.042
		c0.631,10.75,4.685,19.565,14.293,25.194c6.637,3.888,13.281,7.772,20.042,11.438c1.185,0.642,3.21,1.91,4.144-0.268
		c-2.213-2.585-4.417-5.064-6.51-7.635C233.167,231.667,231.419,229.269,229.616,226.916z M238.088,250.04
		c0.02-1.111,0.039-2.221,0.057-3.333c-7.374-4.021-14.705-8.125-22.134-12.043c-8.847-4.667-17.573-3.832-25.706,1.598
		c-4.938,3.295-9.408,7.295-14.111,10.996c3.12,2.737,6.17,5.556,9.37,8.194c7.688,6.335,16.521,8.775,26.068,5.813
		c8.771-2.723,17.242-6.417,25.819-9.751C237.801,251.377,237.881,250.546,238.088,250.04z M294.823,247.782
		c-10.454,3.065-21.607,0.274-31.9,3.287c5.74,2.425,11.379,4.881,17.076,7.196c8.959,3.641,18.038,5.383,27.561,1.95
		c7.131-2.569,11.137-9.125,17.778-12.822c-6.439-4.558-12.093-9.33-18.441-12.849c-7.228-4.006-15.078-4.152-22.587-0.003
		c-3.69,2.038-7.257,4.299-10.954,6.325c-3.529,1.934-7.153,3.693-11.489,5.916C273.405,246.152,284.17,243.938,294.823,247.782z
		 M195.92,300.741c4.104-0.58,7.596-1.001,11.063-1.578c6.477-1.079,13.146-2.101,18.229-6.564c3.59-3.153,6.994-6.884,9.314-11.013
		c2.375-4.225,3.23-9.285,4.943-13.909c1.052-2.839,2.465-5.543,3.716-8.308c-8.46,6.558-14.521,15.692-24.88,19.74
		c5.727-9.019,15.278-14.721,20.881-23.606c-8.027,3.084-16.066,6.103-24.048,9.266c-4.902,1.942-8.792,5.378-11.701,9.644
		C198.214,282.068,197.669,291.151,195.92,300.741z M262.085,255.244c-0.157,0.121-0.314,0.243-0.472,0.365
		c0.46,0.656,0.849,1.379,1.391,1.959c3.455,3.698,6.898,7.41,10.438,11.025c1.771,1.809,3.809,3.355,5.593,5.151
		c1.325,1.333,2.466,2.854,3.618,4.348c0.217,0.28,0.097,0.818,0.187,1.873c-10.1-4.718-16.389-12.982-23.981-20.932
		c0.101,1.381-0.009,2.135,0.228,2.756c1.825,4.799,4.04,9.479,5.496,14.384c1.425,4.797,3.737,8.983,7.002,12.614
		c2.971,3.305,6.251,6.223,10.789,7.521c6.924,1.979,13.892,3.44,21.49,3.689c-0.422-3.548-0.783-6.871-1.217-10.185
		c-1.408-10.746-5.966-19.748-15.957-24.642C278.768,261.292,270.307,258.513,262.085,255.244z M280.631,218.135
		c-0.31,0.523-0.473,0.967-0.773,1.281c-3.354,3.501-6.793,6.922-10.08,10.485c-2.926,3.172-5.713,6.472-8.502,9.768
		c-0.584,0.69-0.903,1.605-1.346,2.417c0.891-0.024,1.936,0.253,2.645-0.116c5.878-3.058,11.688-6.243,17.536-9.359
		c0.439-0.234,0.999-0.241,2.208-0.511c4.73-4.167,10.745-8.63,13.647-15.649c2.662-6.434,3.638-13.18,3.076-20.144
		c-11.042-0.262-20.435,3.117-28.073,10.719c-3.224,3.208-5.932,6.808-7.485,11.314c-2.098,6.078-4.809,11.943-7.204,17.92
		c-0.195,0.488,0.004,1.133,0.02,1.706c0.506-0.107,1.071-0.112,1.5-0.356c0.379-0.216,0.583-0.718,0.9-1.062
		c5.02-5.438,9.966-10.947,15.114-16.261C275.511,218.535,277.655,217.034,280.631,218.135z M248.204,260.704
		c-0.945,1.104-1.785,1.789-2.246,2.672c-4.179,8.006-7.558,16.223-8.037,25.462c-0.32,6.18,0.123,12.217,2.831,17.729
		c2.74,5.574,6.188,10.8,9.23,16.016c6.332-9.406,13.136-18.506,13.112-30.617c-0.02-10.818-6.163-28.943-10.822-30.87
		c0,2.502,0.002,5.01-0.001,7.516c-0.004,5.965,0.061,11.932-0.074,17.894c-0.029,1.268-0.793,2.519-1.352,4.173
		c-0.756-0.713-1.331-0.995-1.346-1.307C249.045,280.087,248.646,270.802,248.204,260.704z M266.99,288.896
		c0.304,9.461-2.426,17.821-7.135,25.591c-2.215,3.655-4.723,7.142-6.815,10.863c-1.563,2.779-1.015,3.516,2.136,3.259
		c14.996-1.223,29.031-5.244,41.188-14.512c3.531-2.692,6.938-5.546,10.966-8.777c-1.67-0.519-2.416-0.856-3.195-0.978
		c-6.365-0.982-12.783-1.696-19.098-2.937C277.446,299.912,271.636,295.556,266.99,288.896z M194.463,305.083
		c0.862,1.099,1.319,1.889,1.964,2.471c7.983,7.219,16.574,13.558,26.871,17.06c7.379,2.509,15.024,3.892,22.858,4.03
		c1.994,0.034,2.689-0.802,1.768-2.59c-0.893-1.733-1.873-3.441-2.994-5.035c-3.766-5.353-7.757-10.603-9.26-17.139
		c-1.017-4.426-1.708-8.926-2.532-13.321C223.395,302.368,209.294,303.76,194.463,305.083z M208.085,227.597
		c-0.013-0.077,0.041-0.467-0.116-0.594c-5.35-4.318-7.654-10.128-8.344-16.771c-0.481-4.64-0.989-9.28-1.639-13.898
		c-0.116-0.825-0.838-1.91-1.549-2.19c-0.523-0.206-1.516,0.662-2.236,1.145c-0.265,0.179-0.27,0.714-0.524,0.941
		c-9.923,8.874-15.835,20.193-19.779,32.665c-1.65,5.218-2.616,10.584-2.119,16.405c3.04-2.032,5.809-4.255,8.418-6.651
		c4.163-3.822,8.41-7.591,14.066-8.872C198.752,228.761,203.373,228.318,208.085,227.597z M295.713,266.021
		c9.974,9.77,11.176,22.447,12.804,35.965c1.801-1.124,3.427-1.639,4.276-2.749c8.327-10.883,14.077-22.965,16.162-36.597
		c0.642-4.194,0.767-8.468,1.129-12.705c-0.283-0.203-0.566-0.409-0.85-0.613C319.306,257.229,310.115,266.677,295.713,266.021z
		 M328.593,244.719c4.704-7.442-10.129-39.476-23.161-50.768c-0.314,0.245-0.611,0.569-0.979,0.738
		c-0.48,0.22-1.019,0.316-1.494,0.455c0.373,12.297-0.658,24.014-10.725,33.366c1.774,0,2.884,0.04,3.988-0.007
		c8.03-0.336,14.712,2.732,20.783,7.783C320.664,239.33,324.706,241.916,328.593,244.719z M171.505,249.584
		c-0.372,0.277-0.743,0.556-1.115,0.833c1.082,6.714,1.748,13.531,3.339,20.123c2.653,10.994,7.348,21.077,15.456,29.264
		c0.468,0.474,1.239,1.123,1.695,1.006c0.508-0.128,0.924-0.995,1.182-1.623c0.24-0.585,0.185-1.284,0.317-1.92
		c1.08-5.18,1.799-10.473,3.361-15.504c1.701-5.475,3.941-10.86,9.696-14.703c-1.577-0.33-2.417-0.518-3.261-0.682
		c-2.368-0.46-4.771-0.779-7.099-1.393c-6.214-1.636-11.155-5.402-15.889-9.566C176.779,253.301,174.075,251.519,171.505,249.584z
		 M252.402,234.647c0.299,0.077,0.596,0.152,0.893,0.229c1.74-4.7,3.645-9.345,5.166-14.113c1.243-3.896,2.62-7.896,2.901-11.923
		c0.793-11.338-3.292-21.098-10.929-29.526c-0.178,0.129-0.426,0.242-0.577,0.432c-0.759,0.945-1.464,1.934-2.24,2.865
		c-8.11,9.736-9.979,21.091-7.322,32.984c1.549,6.934,4.845,13.477,7.355,20.197c1.159-9.648,0.282-19.387,2.938-28.833
		C253.895,216.02,251.797,225.434,252.402,234.647z M301.558,191.955c0.066-0.335,0.133-0.67,0.198-1.006
		c-2.609-1.907-5.065-4.081-7.853-5.674c-12.065-6.898-24.604-12.43-38.911-12.246c-0.802,0.01-1.6,0.24-2.4,0.367
		c0.19,0.944,0.141,2.041,0.62,2.802c1.196,1.898,2.624,3.652,3.977,5.45c3.721,4.945,6.232,10.406,7.046,16.58
		c0.38,2.888,0.683,5.787,1.098,9.333C274.891,195.469,287.901,192.96,301.558,191.955z M234.823,205.672
		c0.954-4.635,1.784-9.119,2.811-13.557c1.313-5.674,5.327-9.809,8.479-14.434c0.891-1.309,1.667-2.696,2.642-4.285
		c-19.11-0.773-34.671,6.487-49.669,17.842c1.727,0.492,2.758,0.903,3.828,1.07c4.432,0.693,8.915,1.115,13.306,2.003
		C223.75,195.836,229.606,200.295,234.823,205.672z M250.869,240.91c-3.958,0.125-8.326,4.586-8.221,8.394
		c0.096,3.506,4.591,8.11,7.805,7.996c4.217-0.149,8.297-4.653,8.064-8.9C258.307,244.538,254.484,240.795,250.869,240.91z"/>
	<path fill-rule="evenodd" clip-rule="evenodd" d="M238.088,250.04c-3.797-0.052-7.598-0.006-11.39-0.181
		c-5.427-0.251-10.85-0.631-16.269-1.034c-1.231-0.092-2.438-0.506-3.655-0.772c-0.024-0.401-0.048-0.8-0.071-1.201
		c1.956-0.425,3.893-1.018,5.872-1.245c6.617-0.758,13.196-0.413,19.751,0.817c1.891,0.356,3.877,0.203,5.819,0.283
		C238.127,247.819,238.108,248.929,238.088,250.04z"/>
	<path fill-rule="evenodd" clip-rule="evenodd" d="M229.616,226.916c-3.024-2.643-6.511-4.867-8.322-9.043
		c6.199-0.016,8.208,5.364,11.921,8.308C232.016,226.426,230.815,226.671,229.616,226.916z"/>
</g>
</svg>
