<?xml version="1.0" encoding="utf-8"?>
<!-- Generator: Adobe Illustrator 16.0.0, SVG Export Plug-In . SVG Version: 6.00 Build 0)  -->
<!DOCTYPE svg PUBLIC "-//W3C//DTD SVG 1.1//EN" "http://www.w3.org/Graphics/SVG/1.1/DTD/svg11.dtd">
<svg version="1.1" id="Layer_1" xmlns="http://www.w3.org/2000/svg" xmlns:xlink="http://www.w3.org/1999/xlink" x="0px" y="0px"
	 width="500px" height="500px" viewBox="0 0 500 500" enable-background="new 0 0 500 500" xml:space="preserve">
<g>
	<path fill-rule="evenodd" clip-rule="evenodd" d="M91.805,267.622c5.393-7.151,5.952-7.57,22.104-16.622
		c-8.463-3.897-16.499-8.203-20.066-17.439c-4.157,1.637-8.051,3.509-12.141,4.719c-13.542,4.006-25.639,1.024-36.416-7.977
		c-7.666-6.403-13.059-14.239-15.174-24.056c-1.629-7.561-1.361-15.09,1.828-22.29c0.498-1.124,1.512-2.019,2.288-3.02
		c0.36,0.167,0.721,0.332,1.082,0.498c-0.245,2.167-0.38,4.354-0.752,6.499c-2.64,15.201,11.196,30.524,29.22,24.846
		c13.733-4.327,21.694-22.966,13.107-37.604c-6.593-11.238-23.563-14.085-34.332-4.235c-1.933,1.768-3.655,3.765-5.542,5.587
		c-0.435,0.42-1.148,0.552-1.733,0.816c-0.1-0.653-0.49-1.448-0.25-1.935c1.429-2.904,2.703-5.952,4.577-8.558
		c9.879-13.736,23.566-19.139,40.213-18.334c14.428,0.696,24.196,8.261,31.292,20.152c0.324,0.542,0.627,1.097,0.959,1.632
		c0.092,0.149,0.254,0.254,0.521,0.51c8.965-4.439,18.438-5.385,28.62-2.769c-3.464-8.333-7.937-15.935-6.156-25.276
		c-23.473-2.58-38.048-15.213-42.71-38.299c-1.626-8.052-0.201-13.679,2.38-15.115c0.448,2.263,0.795,4.437,1.314,6.569
		c2.907,11.933,13.132,20.065,25.252,19.561c18.797-0.783,29.598-19.51,22.637-33.668c-4.019-8.173-11.075-11.946-19.696-13.557
		c-10.651-1.99-22.628,4.34-27.693,16.641c-0.172,0.417-0.262,0.912-0.547,1.229c-0.375,0.418-0.906,0.697-1.37,1.035
		c-0.265-0.524-0.818-1.095-0.744-1.566c0.291-1.853,0.505-3.792,1.236-5.489c6.34-14.729,17.527-24.012,33.013-27.483
		c13.655-3.06,27.211-2.172,38.647,6.904c13.637,10.822,19.011,25.262,16.226,42.852c9.314,1.59,17.59,5.242,24.452,13.066
		c-0.577-10.142,2.078-18.569,8.537-25.539c-2.424-3.23-5.167-6.174-7.096-9.579c-7.952-14.027-6.684-28.034,0.965-41.708
		c10.759-19.238,34.008-26.686,53.557-21.831c1.194,0.297,2.285,1.008,3.425,1.526c-0.073,0.324-0.146,0.649-0.22,0.974
		c-0.88,0.057-1.774,0.246-2.639,0.153c-14.235-1.528-29.44,8.115-32.638,21.396c-3.253,13.51,4.437,24.615,17.294,27.274
		c15.457,3.197,30.239-7.809,31.978-23.558c0.842-7.63-2.098-14.333-7.052-20.139c-0.562-0.657-1.063-1.364-1.593-2.048
		c0.111-0.262,0.223-0.524,0.334-0.787c0.923,0.158,1.917,0.147,2.757,0.502c4.306,1.822,7.968,4.481,10.935,8.174
		c4.846,6.034,9.196,12.272,10.485,20.148c2.417,14.76-1.644,27.66-11.116,39.024c-0.808,0.969-1.638,1.918-2.594,3.037
		c5.7,6.489,9.128,13.845,8.877,23.145c7.052-8.57,15.852-12.983,26.59-13.558c-0.176-3.18-0.297-5.97-0.49-8.754
		c-1.447-20.87,12.657-35.974,30.471-40.466c19.223-4.847,41.079,2.583,52.381,18.282c2.183,3.032,3.635,6.613,5.22,10.035
		c0.348,0.75-0.173,1.903-0.294,2.871c-0.724-0.519-1.594-0.915-2.147-1.576c-2.367-2.83-4.371-6.015-6.995-8.568
		c-11.986-11.667-33.909-9.886-41.471,9.523c-2.218,5.695-1.187,11.59,1.387,17.119c5.29,11.368,20.142,17.822,32.06,13.962
		c9.534-3.088,15.955-11.199,16.887-21.141c0.091-0.967,0.927-1.864,1.417-2.794c0.607,0.87,1.631,1.682,1.76,2.618
		c2.007,14.469-2.112,26.901-12.593,37.167c-7.395,7.242-19.745,11.884-29.944,13.179c0.3,9.268-3.226,17.429-8.644,25.268
		c10.332-2.856,20.198-3.559,29.941,2.067c7.112-12.244,17.036-20.718,31.346-22.585c10.514-1.372,20.553,0.744,29.615,6.345
		c14.972,9.253,23.402,26.381,20.768,36.934c-0.413-0.82-1.002-1.597-1.21-2.466c-1.917-8.006-5.468-14.829-12.902-19.175
		c-9.981-5.836-23.2-4.069-30.489,4.248c-7.3,8.331-7.265,21.243-0.419,30.572c8.449,11.515,28.322,15.391,39.76,1.547
		c2.006-2.428,2.987-5.696,4.494-8.548c0.448-0.85,1.072-1.608,1.616-2.409c0.398,0.964,1.182,1.945,1.136,2.887
		c-0.421,8.725-3.514,16.529-8.67,23.503c-6.633,8.972-15.278,15.018-26.271,17.435c-7.135,1.569-13.981-0.02-20.733-2.179
		c-2.568-0.821-5.075-1.838-7.337-2.666c-3.317,3.497-6.197,7.461-9.956,10.232c-3.699,2.727-8.29,4.244-12.568,6.332
		c9.563,2.731,17.403,8.195,22.881,16.999c12.951-7.692,26.165-8.046,39.651-2.521c8.993,3.685,15.013,10.507,19.154,19.066
		c5.695,11.77,4.807,34.145-2.023,38.45c0.087-1.558,0.031-2.718,0.231-3.831c2.373-13.182-3.862-26.708-17.923-29.887
		c-9.948-2.249-19.068,2.586-24.101,10.64c-7.255,11.611-4.013,28.078,6.796,34.329c8.26,4.777,16.594,4.242,24.542-0.901
		c2.41-1.56,4.437-3.702,6.706-5.492c0.791-0.623,1.784-0.988,2.913-1.082c-5.478,14.106-15.88,22.579-30.183,25.692
		c-20.888,4.547-36.619-2.97-46.765-22.221c-9.427,4.886-19.13,5.816-29.005,3.137c1.903,3.963,4.371,7.893,5.685,12.176
		c1.327,4.327,1.511,9.006,2.23,13.764c2.385,0.432,5.347,0.698,8.146,1.518c17.276,5.058,29.493,15.28,33.348,33.618
		c1.428,6.79,1.476,13.639-0.777,20.337c-0.314,0.935-0.608,1.957-1.216,2.686c-0.472,0.568-1.416,0.744-2.15,1.095
		c-0.196-0.702-0.536-1.4-0.563-2.109c-0.142-3.668,0.261-7.422-0.379-10.993c-1.849-10.329-13.549-16.837-22.397-17.499
		c-8.303-0.622-15.529,1.876-21.089,8.314c-7.202,8.341-7.319,24.202,2.703,32.507c12.95,10.729,28.642,7.536,38.813-4.652
		c0.521-0.623,1.511-0.854,2.282-1.27c-0.058,0.81,0.131,1.746-0.212,2.408c-4.377,8.48-10.981,14.718-19.524,18.875
		c-11.716,5.702-23.999,7.872-36.474,3.428c-14.644-5.217-24.816-15.208-28.646-30.699c-1.13-4.571-1.244-9.304,0.021-13.966
		c0.278-1.026,0.287-2.125,0.466-3.556c-5.328,0.442-10.175-0.523-14.741-2.99c-4.401-2.377-8.656-4.881-11.582-8.929
		c-0.645,4.252-0.813,8.688-2.081,12.782c-1.257,4.058-3.624,7.772-5.754,12.152c15.06,15.779,15.622,33.934,4.012,52.275
		c-10.333,16.325-26.203,22.247-45.159,19.879c-2.623-0.327-5.869-0.196-8.06-3.645c3.289,0,5.95,0.031,8.61-0.006
		c13.348-0.185,24.462-10.691,26.255-23.866c1.525-11.208-7.033-23.138-18.248-24.769c-13.039-1.896-26.802,5.229-29.632,21.057
		c-1.701,9.514,0.584,17.923,8.027,24.57c0.509,0.454,0.655,1.315,0.969,1.987c-0.736-0.013-1.552,0.18-2.198-0.068
		c-19.353-7.447-26.51-26.081-25.217-41.362c0.868-10.248,5.166-19.258,11.684-27.201c0.802-0.977,1.553-1.995,2.319-3.001
		c0.047-0.061,0.022-0.176-0.006,0.121c-2.436-3.813-5.292-7.137-6.809-10.986c-1.501-3.813-1.65-8.157-2.37-12.146
		c-6.998,8.19-15.023,12.523-27.268,14.481c0.244,2.164,0.439,4.362,0.744,6.545c1.759,12.586-2.497,23.117-11.748,31.363
		c-12.781,11.393-27.832,14.327-44.243,9.893c-12.015-3.247-21.448-10.141-27.651-21.094c-0.861-1.521-1.289-3.286-1.917-4.939
		c0.343-0.214,0.687-0.427,1.03-0.641c1.062,1.092,2.245,2.09,3.165,3.29c8.24,10.758,22.378,14.239,34.146,7.786
		c8.93-4.897,12.721-12.927,11.966-23.106c-0.969-13.063-12.27-22.514-26.431-22.046c-12.137,0.4-22.277,9.063-24.145,20.938
		c-0.368,2.337,0.345,4.833,0.444,7.26c0.031,0.766-0.315,1.546-0.488,2.319c-0.727-0.537-1.806-0.918-2.125-1.637
		c-2.4-5.396-3.2-11.098-2.572-16.952c1.988-18.521,12.243-30.545,29.436-36.909c3.344-1.237,6.921-1.859,10.408-2.694
		c1.477-0.354,2.813-0.63,2.735-2.631c-0.358-9.076,2.124-17.238,8.63-24.741c-10.584,3.404-20.377,3.532-29.907-0.927
		c-12.228,26.492-41.112,26.769-57.609,17.895c-10.724-5.768-21.815-19.346-18.889-24.849c0.396,0.811,0.65,1.739,1.211,2.413
		c5.892,7.069,13.776,10.577,22.666,10.32c8.132-0.235,15.699-4.531,18.698-13.92c4.594-14.384-3.186-29.479-17.388-33.204
		c-13.522-3.546-25.808,5.881-27.287,20.091c-0.257,2.474,0.284,5.027,0.422,7.547c0.053,0.957,0.009,1.919,0.009,2.88
		c-0.251,0.127-0.503,0.255-0.755,0.382c-0.626-0.934-1.429-1.795-1.85-2.814c-3.947-9.557-3.764-19.262-0.358-28.847
		c6.211-17.479,22.432-28.32,40.924-27.258C79.42,261.662,85.966,263.799,91.805,267.622z M239.608,226.373
		c0.285-0.021,0.57-0.041,0.855-0.061c0.205-0.578,0.741-1.3,0.562-1.711c-1.679-3.859-3.038-7.962-5.358-11.41
		c-2.832-4.208-6.238-8.037-6.736-13.323c-0.313-3.318-0.208-6.675-0.332-10.013c-0.405-10.897-5.353-19.01-14.823-24.46
		c-5.783-3.329-12.166-4.348-18.598-5.283c-6.94-1.009-13.745-2.55-19.186-7.306c-9.143-7.992-11.309-20.675-5.896-32.14
		c2.455-5.199,5.11-10.384,6.808-15.845c3.82-12.288,1.81-24.117-6.13-34.067c-11.837-14.833-32.766-18.603-49.584-9.854
		c-0.885,0.461-1.712,1.036-3.084,1.875c18.223-1.46,29.478,10.825,32.725,20.792c3.488,10.707-0.403,23.423-9.747,30.594
		c-5.173,3.969-11.216,6.258-17.728,6.747c-8.881,0.665-16.521-2.637-23.679-8.651c0.268,0.99,0.354,1.405,0.491,1.801
		c2.305,6.647,6.598,11.823,12.315,15.715c12.636,8.602,26.625,8.721,40.754,6.522c0.611-4.168,1.158-7.892,1.765-12.027
		c-5.944,4.645-12.445,7.132-19.738,7.605c-7.279,0.472-14.059-0.718-20.001-5.217c0.69,0.065,1.332,0.301,1.98,0.515
		c5.925,1.95,12.031,2.77,18.158,1.663c15.078-2.723,24.885-12.009,30.746-25.757c2.793-6.551,3.168-13.311,0.125-19.953
		c-1.354-2.954-2.956-5.795-4.42-8.638c7.251,4.972,10.862,15.449,8.948,25.305c-1.065,5.484-3.911,10.033-6.785,14.63
		c-4.322,6.911-7.202,14.385-5.678,22.58c2.636,14.184,11.661,22.859,25.245,26.84c7.163,2.1,14.52,3.526,21.724,5.498
		c8.459,2.315,13.873,8.079,16.152,16.34c1.106,4.008,0.941,8.4,1.104,12.628c0.155,4.023,1.624,7.483,4.432,10.158
		C232.392,213.608,237.695,218.742,239.608,226.373z M35.277,292.81c0.184,0.174,0.367,0.349,0.55,0.522
		c0.539-0.727,1.006-1.521,1.626-2.169c6.245-6.519,14.079-8.818,22.743-7.553c20.54,3.001,31.916,24.532,23.029,43.279
		c-4.864,10.262-14.983,16.712-26.998,14.243c-1.674-0.345-3.388-0.49-5.083-0.728c-0.105,0.326-0.21,0.652-0.314,0.979
		c4.617,1.927,9.121,4.211,13.874,5.708c10.962,3.45,21.594,2.833,31.227-4.103c9.508-6.846,13.547-16.797,15.282-27.923
		c0.845-5.422,0.92-11.025,2.325-16.284c2.364-8.852,8.333-14.566,17.383-16.729c5.552-1.326,10.788,0.085,15.747,2.438
		c5.533,2.627,10.807,5.814,16.396,8.306c11.464,5.109,22.479,4.599,32.48-3.676c3.407-2.819,6.645-5.845,9.964-8.771
		c2.64-2.326,5.65-4.346,7.849-7.031c3.795-4.636,7.379-9.365,13.032-11.922c0.104-0.047,0.107-0.316,0.27-0.848
		c-1.325,0.104-2.67-0.124-3.692,0.349c-3.323,1.537-6.859,2.902-9.71,5.112c-6.282,4.871-12.233,10.174-18.25,15.382
		c-9.94,8.602-20.771,9.665-32.407,3.933c-5.423-2.672-10.626-5.848-16.192-8.161c-9.646-4.01-19.446-4.984-28.701,1.206
		c-10.776,7.208-15.934,17.33-15.231,30.378c0.42,7.815,0.386,15.582-3.912,22.599c-3.375,5.507-7.41,10.146-13.557,11.024
		c2.531-2.479,5.993-4.971,8.28-8.276c6.862-9.915,7.422-20.879,3.826-32.113c-3.608-11.269-9.984-20.512-21.051-25.555
		c-3.783-1.724-8.111-2.253-12.411-3.387c8.476-1.96,15.833,0.081,22.198,5.606c6.091,5.287,11.038,11.486,13.349,19.215
		c1.366-3.261,2.764-6.366,3.937-9.555c0.305-0.831,0.268-2.211-0.235-2.841c-2.024-2.534-4.101-5.086-6.504-7.247
		c-9.328-8.394-19.597-13.971-32.898-11.705C51.232,268.604,38.073,280.513,35.277,292.81z M272.665,260.966
		c0.058,0.418,0.023,0.637,0.117,0.75c0.168,0.201,0.388,0.407,0.628,0.489c3.764,1.288,5.778,4.319,7.931,7.41
		c1.723,2.473,3.933,4.709,6.273,6.627c5.228,4.284,10.825,8.119,15.99,12.472c8.29,6.984,17.58,9.365,27.738,5.658
		c7.59-2.77,14.833-6.52,22.141-10.021c5.255-2.52,10.78-3.636,16.302-2.073c10.097,2.858,15.837,9.942,17.455,20.264
		c0.879,5.608,1.115,11.338,2.3,16.872c1.865,8.727,5.478,16.638,13.063,22.058c11.253,8.04,23.42,9.223,36.238,4.522
		c2.886-1.059,5.563-2.684,8.338-4.048c-16.115,2.953-27.55-6.301-32.139-18.405c-5.017-13.233,1.071-28.788,13.579-36.313
		c10.735-6.459,27.905-5.045,37.235,8.852c0.071-0.143,0.188-0.275,0.198-0.417c0.021-0.269,0.021-0.55-0.04-0.81
		c-2.504-10.705-8.363-19.017-18.24-23.945c-13.484-6.729-26.778-6.173-38.928,3.103c-4.396,3.355-7.845,7.958-11.662,12.051
		c-0.407,0.436-0.686,1.368-0.513,1.905c0.954,2.953,2.066,5.855,3.205,8.994c0.207-0.357,0.386-0.608,0.51-0.886
		c2.857-6.38,7.009-11.866,12.23-16.413c5.929-5.161,12.601-8.803,20.922-7.613c0.828,0.119,1.632,0.405,2.446,0.614
		c-1.825,0.452-3.553,0.47-5.213,0.814c-9.796,2.032-16.689,8.203-22.343,16.007c-6.912,9.542-8.537,20.311-6.851,31.702
		c1.174,7.936,4.731,14.523,11.687,18.959c0.542,0.346,1.051,0.745,1.574,1.119c-0.14,0.261-0.28,0.521-0.421,0.78
		c-2.046-1-4.416-1.626-6.08-3.067c-5.208-4.511-8.574-10.284-9.635-17.122c-1.27-8.188-2.025-16.455-3.295-24.643
		c-2.403-15.499-21.09-29.448-39.778-20.537c-6.182,2.948-12.165,6.325-18.398,9.152c-10.798,4.896-21.273,5.158-30.849-3.065
		c-1.573-1.352-3.193-2.666-4.9-3.839c-7.275-4.998-15.24-9.011-21.281-15.75C278.401,261.166,275.666,260.093,272.665,260.966z
		 M254.324,275.189c-0.211,0.104-0.422,0.21-0.633,0.315c-0.031,0.257-0.172,0.564-0.077,0.762
		c2.985,6.298,2.286,12.526,0.129,18.932c-1.444,4.291-1.206,8.761,0.992,12.892c1.694,3.185,3.559,6.278,5.283,9.448
		c5.263,9.676,5.239,19.368-1.271,28.277c-3.693,5.054-8.532,9.288-12.98,13.767c-8.978,9.04-13.014,19.529-8.925,32.043
		c2.521,7.717,7.113,13.957,15.175,16.919c4.646,1.707,9.314,3.377,13.868,5.31c7.562,3.212,13.732,8.006,16.636,16.055
		c0.777,2.153,1.179,4.442,1.753,6.67c-6.613-15.259-18.512-22.543-34.461-23.869c-17.087-1.42-27.391,8.579-35.771,21.65
		c4.287-14.627,14.033-23.126,28.7-25.487c-2.283-2.854-4.575-5.722-7.124-8.908c-2.594,2.126-5.178,4.341-7.862,6.427
		c-11.87,9.226-18.801,20.957-18.843,36.343c-0.025,9.387,2.586,17.715,9.419,25.193c-0.494-1.687-0.916-2.764-1.122-3.88
		c-2.715-14.786,5.424-32.313,23.041-37.1c13.24-3.599,24.072,1.46,30.299,10.104c8.076,11.212,6.901,25.768-2.455,36.434
		c-0.976,1.112-1.899,2.271-3.2,3.83c0.864-0.204,1.11-0.239,1.341-0.32c11.03-3.902,17.808-12.211,22.083-22.514
		c6.638-15.995,0.08-35.058-15.159-44.731c-4.845-3.075-10.207-5.331-15.31-8.006c-5.563-2.917-10.325-6.803-12.96-12.609
		c-3.765-8.292-1.295-15.822,4.039-22.429c4.082-5.056,8.847-9.558,13.25-14.358c7.23-7.883,9.796-16.955,7.356-27.523
		c-1.277-5.536-4.125-10.134-7.239-14.684c-3.605-5.271-5.446-10.886-3.931-17.392c0.605-2.6,0.724-5.376,0.639-8.059
		C258.883,280.841,256.576,277.987,254.324,275.189z M235.23,24.403c-0.595,0.042-0.878-0.011-1.093,0.087
		c-13.833,6.288-23.143,16.339-25.043,31.818c-1.934,15.751,5.15,27.261,18.479,35.033c5.81,3.388,12.307,5.601,18.097,9.016
		c13.29,7.838,15.524,23.792,5.14,35.098c-3.18,3.463-6.731,6.581-9.998,9.967c-7.54,7.817-11.469,17.038-10.062,28.018
		c0.769,6.004,3.263,11.429,6.996,16.211c4.429,5.672,5.998,12.146,4.9,19.102c-0.746,4.725,0.301,9.141,1.086,13.652
		c0.107,0.61,0.455,1.178,0.891,2.263c0.242-0.864,0.418-1.139,0.366-1.357c-1.368-5.61,0.067-10.916,1.697-16.211
		c1.79-5.813,1.221-11.423-1.616-16.788c-1.349-2.551-2.74-5.084-4.204-7.571c-5.875-9.97-4.623-19.661,1.782-28.678
		c3.053-4.297,7.116-7.911,10.91-11.642c12.249-12.042,14.892-25.428,7.529-39.758c-2.868-5.583-7.167-9.43-13.435-11.344
		c-6.166-1.883-12.411-4.01-18.011-7.128c-7.836-4.363-12.825-11.252-13.723-20.685c6.064,16.188,18.875,22.63,34.872,24.192
		c12.753,1.245,27.328-5.795,35.907-22.781c-0.834,5.036-2.771,9.66-6.106,13.515c-6.258,7.23-13.89,12.168-23.82,12.923
		c2.877,3.082,5.591,5.99,8.527,9.136c4.252-3.731,8.615-7.139,12.486-11.034c11.802-11.872,16.476-26.034,12.641-42.56
		c-0.942-4.061-2.452-8.027-5.84-11.444c0.05,0.832,0.04,1.183,0.096,1.524c1.897,11.692-1.129,21.61-10.413,29.359
		c-7.746,6.467-16.547,9.792-26.576,7.833c-14.71-2.874-25.864-16.5-21.794-33.279C227.415,34.646,230.357,29.116,235.23,24.403z
		 M345.109,122.866c0.716,4.245,1.325,8.021,2.027,11.779c0.075,0.401,0.643,0.893,1.075,1.017
		c3.367,0.963,6.706,2.256,10.149,2.683c12.913,1.602,23.961-2.806,33.669-11.113c4.35-3.722,8.955-11.264,9.517-15.625
		c-9.914,10.352-25.511,11.551-35.988,6.35c-13.171-6.539-19.795-19.295-17.302-33.55c1.312-7.5,5.447-13.467,11.926-17.685
		c6.321-4.115,13.353-5.374,20.818-5.164c-0.445-0.487-0.884-0.745-1.337-0.971c-7.141-3.564-14.773-4.503-22.633-4.26
		c-17.704,0.547-32.968,15.652-33.931,33.318c-0.432,7.924,1.53,15.163,5.044,22.132c3.901,7.742,6.86,15.733,5.928,24.641
		c-0.804,7.683-4.259,13.66-11.18,17.457c-6.512,3.572-13.767,4.147-20.881,5.101c-11.628,1.558-20.534,6.846-24.93,18.037
		c-1.995,5.079-3.28,10.489-4.379,15.854c-1.277,6.244-3.707,11.847-7.559,16.873c-1.265,1.65-2.687,3.196-3.806,4.938
		c-1.775,2.767-3.555,5.589-3.474,9.48c0.439-0.468,0.656-0.614,0.758-0.818c3.057-6.152,7.194-11.453,12.381-15.961
		c4.38-3.807,7.191-8.402,7.792-14.378c0.366-3.648,1.093-7.366,2.351-10.797c3.864-10.539,12.598-14.837,22.854-16.598
		c7.832-1.345,15.666-2.507,22.907-6.024c5.082-2.469,9.381-5.892,11.977-10.968c6.097-11.919,4.994-23.634-1.318-35.159
		c-2.114-3.859-4.338-7.727-5.842-11.835c-3.395-9.269-2.228-17.953,4.579-25.474c0.917-1.013,2.151-1.739,3.239-2.598
		c-5.506,6.646-7.856,14.305-6.313,22.422c2.931,15.41,19.163,36.879,43.755,33.152c1.16-0.176,2.323-0.348,3.465-0.61
		c1.11-0.255,2.195-0.624,3.291-0.942c0,0.247,0,0.495,0,0.742C369.892,135.427,357.087,133.664,345.109,122.866z M37.948,212.101
		c0.31,0.904,0.439,1.482,0.695,1.998c6.137,12.379,16.257,19.19,29.861,20.359c15.323,1.317,26.342-6.427,35.182-18.042
		c0.495-0.65,0.648-1.872,0.437-2.694c-0.891-3.472-1.979-6.893-3.003-10.36c-6.58,15.014-16.157,25.786-34.216,24.98
		c15.723-3.142,26.514-12.093,30.906-27.578c4.284-15.105,1.971-29.041-9.775-40.579c0.451,0.033,0.75,0.157,1.021,0.324
		c8.872,5.453,12.422,13.937,13.483,23.801c0.598,5.562,0.828,11.175,1.671,16.696c1.805,11.827,8.511,20.25,19.33,24.958
		c9.489,4.129,18.995,2.1,28.063-1.934c5.26-2.34,10.122-5.619,15.456-7.739c10.993-4.371,21.346-3.674,30.263,5.162
		c3.869,3.833,8.758,5.586,14.146,6.004c6.1,0.474,12.022,1.455,16.862,5.695c0.445,0.39,1.132,0.502,1.706,0.744
		c0.09-0.809-0.06-1.273-0.375-1.461c-4.62-2.751-8.973-6.361-13.968-7.973c-7.07-2.281-13.224-5.721-18.716-10.468
		c-9.929-8.58-21.028-8.188-32.307-3.983c-6.126,2.285-11.596,6.324-17.716,8.634c-14.701,5.551-31.551-1.3-33.642-19.641
		c-0.593-5.198-1.053-10.445-2.166-15.54c-1.821-8.343-5.361-15.964-11.847-21.78c-8.188-7.342-18.084-8.994-28.628-7.8
		c-5.969,0.675-11.517,2.607-16.495,6.616c13.856-1.949,24.507,3.921,30.018,16.335c5.636,12.698,1.947,26.855-9.931,36.271
		C64.824,220.589,50.891,222.118,37.948,212.101z M460.97,214.848c-15.312,7.285-29.376,5.975-38.829-3.317
		c-9.345-9.185-12.062-22.257-6.813-33.568c3.027-6.523,7.61-11.599,14.476-14.292c6.725-2.639,13.611-2.495,21.099-0.891
		c-6.487-5.566-13.31-8.826-21.324-9.551c-9.85-0.892-19.176,0.361-27.198,6.642c-9.5,7.438-13.833,17.554-14.558,29.374
		c-0.398,6.496-0.713,12.985-3.913,18.891c-4.739,8.748-11.896,13.491-22.026,12.771c-6.23-0.443-11.783-3.021-17.116-6.218
		c-3.772-2.262-7.614-4.657-11.746-6.026c-10.745-3.56-20.916-2.88-29.838,5.221c-5.107,4.636-10.778,8.452-17.872,9.625
		c-2.997,0.495-5.977,1.321-8.837,2.351c-3.415,1.229-5.628,3.807-6.757,7.382c5.175-3.71,11.022-5.126,17.172-5.55
		c7.076-0.488,13.348-2.766,18.522-7.818c4.755-4.643,10.676-6.036,17.159-6.045c7.474-0.011,13.895,2.984,19.913,6.851
		c7.392,4.75,15.28,7.052,24.071,6.872c11.188-0.229,22.399-7.551,26.656-17.861c2.666-6.458,3.188-13.303,3.349-20.17
		c0.148-6.408,1.104-12.563,4.314-18.238c2.948-5.211,7.344-8.438,13.569-10.252c-14.345,10.552-17.1,24.469-12.192,39.844
		c5.466,17.125,17.613,26.648,36.345,27.506c-9.297,2.761-17.258,0.583-24.683-4.748c-7.285-5.23-12.309-12.083-14.853-20.473
		c-1.268,3.884-2.551,7.684-3.715,11.52c-0.176,0.581-0.03,1.525,0.352,1.969c5.349,6.205,11.189,11.944,18.854,15.136
		c11.144,4.641,22.025,3.594,32.432-2.542C452.788,225.819,457.448,221.307,460.97,214.848z M402.799,395.129
		c0.269-0.139,0.538-0.276,0.807-0.414c-1.813-3.776-3.345-7.72-5.497-11.291c-4.21-6.983-10.139-12.265-17.639-15.517
		c-10.659-4.622-21.609-4.273-32.599-1.251c-0.554,0.152-1.248,0.979-1.307,1.551c-0.355,3.479-0.546,6.976-0.801,10.598
		c5.096-4.644,11.158-7.274,18.085-8.067c6.939-0.794,13.629-0.661,19.495,3.797c-0.532,0.064-1.021-0.068-1.499-0.227
		c-7.647-2.54-15.303-2.439-22.819,0.348c-12.155,4.507-19.231,13.971-23.905,25.482c-4.326,10.657-1.798,20.109,5.738,28.47
		c0.128,0.143,0.107,0.419,0.194,0.797c-7.379-4.441-10.785-10.812-10.897-19.186c-0.098-7.309,2.229-13.825,5.901-19.951
		c4.01-6.688,7.01-13.665,6.53-21.668c-0.755-12.597-7.557-21.488-18.448-26.677c-6.045-2.879-13.067-3.953-19.772-5.147
		c-14.271-2.541-24.52-8.991-27.646-24.499c-1.043-5.177-3.841-9.14-7.528-13.232c-0.135,1.628-0.496,2.913-0.29,4.1
		c0.567,3.266,1.152,6.558,2.128,9.717c2.021,6.549,4.065,13.139,8.901,18.334c6.391,6.866,14.59,10.002,23.616,11.528
		c6.044,1.022,11.981,2.306,17.272,5.803c9.46,6.255,15.245,16.652,11.463,28.66c-1.586,5.029-4.105,9.782-6.382,14.573
		c-4.939,10.399-4.693,21.026-0.134,31.186c7.507,16.726,26.211,25.253,44.026,20.752c3.182-0.805,6.249-2.06,9.369-3.106
		c-18.183-0.538-28.811-13.011-30.698-24.524c-1.87-11.404,2.969-25.31,15.756-31.346
		C374.226,379.997,392.097,381.27,402.799,395.129z M159.1,429.72c-0.009-0.085-0.057-0.195-0.02-0.248
		c0.15-0.216,0.32-0.419,0.495-0.617c5.645-6.443,8.046-13.854,7.164-22.449c-0.877-8.542-5.296-15.306-10.63-21.49
		c-8.995-10.429-20.56-14.276-34.072-11.901c-3.276,0.575-6.407,1.98-10.111,3.166c4.762-3.433,9.45-6.146,14.782-6.737
		c10.187-1.13,19.523,1.303,27.569,8.809c-0.485-3.786-0.793-7.009-1.381-10.179c-0.141-0.762-1.095-1.679-1.878-1.965
		c-7.022-2.559-14.474-3.664-21.611-1.924c-13.97,3.404-24.914,11.21-30.877,24.857c-0.528,1.209-0.847,2.51-1.264,3.768
		c0.231,0.136,0.463,0.271,0.694,0.405c0.301-0.445,0.574-0.912,0.905-1.333c8.811-11.188,24.038-13.412,36.438-8.252
		c10.798,4.494,17.036,13.006,17.566,24.877c0.51,11.427-4.15,20.528-13.871,26.791c-5.432,3.499-11.507,4.659-17.976,4.556
		c2.403,1.078,4.813,1.998,7.292,2.659c10.589,2.823,21.052,2.635,30.723-2.903c16.941-9.703,23.229-29.797,13.958-48.091
		c-2.436-4.807-4.861-9.692-6.548-14.788c-3.911-11.813,0.064-22.993,9.809-28.824c5.085-3.043,10.861-3.739,16.553-4.651
		c6.774-1.086,13.561-2.102,19.563-5.776c6.885-4.216,11.806-9.749,13.644-17.986c1.186-5.314,2.92-10.661,5.379-15.5
		c3.652-7.188,7.067-14.353,8.406-22.368c0.432-2.582,1.013-5.14,1.524-7.708c-0.294-0.091-0.589-0.182-0.884-0.272
		c-2.111,1.523-2.926,3.899-3.08,6.362c-0.445,7.11-2.791,13.276-7.643,18.634c-4.622,5.104-7.288,11.26-8.76,18.037
		c-1.465,6.74-5.703,11.521-11.71,14.846c-5.09,2.816-10.66,3.805-16.297,4.646c-6.853,1.022-13.833,1.523-20.116,4.916
		c-7.296,3.938-13.081,9.502-15.157,17.572c-2.497,9.712-0.798,19.24,4.345,27.905c3.723,6.271,6.7,12.733,7.713,20.022
		C171.11,416.465,167.253,424.938,159.1,429.72z M270.504,249.495c-0.017-11.481-9.365-21.02-20.497-20.89
		c-13.143,0.153-20.86,11.643-20.822,20.436c0.049,11.293,9.566,21.614,20.325,21.297
		C262.181,269.965,270.305,261.636,270.504,249.495z M350.422,357.019c-0.116-1.376-0.092-2.843-0.382-4.243
		c-2.142-10.345-8.833-16.584-18.349-20.321c-8.493-3.337-17.512-4.08-26.389-5.498c-11.259-1.799-15.873-5.665-16.171-15.351
		c-0.2-6.548-3.188-10.938-8.136-14.373c-3.891-2.699-6.438-6.225-7.887-10.646c-0.532-1.622-0.808-3.382-1.62-4.848
		c-1.727-3.112-3.674-6.109-5.674-9.057c-0.303-0.446-1.372-0.372-2.087-0.538c0.104,0.624,0.11,1.285,0.332,1.865
		c1.404,3.671,3.137,7.243,4.221,11.004c1.266,4.393,1.65,9.037,4.941,12.661c4.053,4.462,6.154,9.853,7.369,15.707
		c2.062,9.931,8.404,15.933,18.01,18.45c4.684,1.227,9.524,1.858,14.304,2.713c10.79,1.93,20.01,6.678,26.608,15.588
		c2.271,3.066,3.695,6.775,5.398,10.243c0.734,1.498,1.413,2.021,3.304,1.635C351.687,361.303,349.796,358.776,350.422,357.019z
		 M392.233,219.017c-0.396,0.364-0.669,0.579-0.9,0.831c-12.932,14.082-31.214,13.653-46.239,6.154
		c-3.715-1.854-7.346-3.875-11.035-5.781c-10.28-5.31-19.808-4.529-28.356,3.627c-5.125,4.889-11.297,6.772-18.259,6.981
		c-3.026,0.091-6.09,0.799-9.019,1.639c-1.758,0.505-3.361,1.705-4.878,2.806c-0.517,0.375-0.557,1.406-0.814,2.138
		c5.018-2.939,9.926-1.875,14.755-1.545c3.403,0.232,6.859,0.844,10.206,0.484c4.599-0.494,8.384-3.009,11.743-6.232
		c4.82-4.625,10.287-7.929,17.314-5.835c3.422,1.019,6.783,2.435,9.935,4.117c3.652,1.95,6.912,4.641,10.575,6.565
		c7.58,3.982,15.745,4.937,24.203,3.993c8.068-0.901,15.439-3.604,20.783-9.808C397.51,223.037,397.288,225.585,392.233,219.017z
		 M103.465,223.528c6.697,10.774,16.434,16.11,28.653,15.746c9.564-0.285,18.931-2.215,27.029-8.244
		c4.406-3.28,9.513-5.486,15.093-6.241c7.12-0.963,12.852,2.07,18.098,6.373c3.962,3.25,8.44,4.727,13.549,4.49
		c2.712-0.125,5.452-0.284,8.143-0.036c3.189,0.294,6.343,0.989,9.504,1.557c1.087,0.195,2.15,0.529,3.224,0.8
		c0.187-0.309,0.374-0.617,0.561-0.926c-1.455-1.171-2.738-2.875-4.397-3.408c-3.913-1.257-7.963-2.264-12.034-2.806
		c-5.65-0.752-11.055-1.735-15.199-6.125c-7.638-8.091-16.747-10.051-26.886-5.688c-5.86,2.522-11.312,5.971-17.079,8.728
		c-6.881,3.29-14.192,4.914-21.817,3.726c-9.02-1.406-16.81-5.251-22.49-12.796C106.041,220.365,104.802,221.886,103.465,223.528z
		 M236.432,226.331c-0.591-1.351-0.986-3.189-2.042-4.487c-3.071-3.775-6.157-7.604-9.706-10.907
		c-4.151-3.865-6.125-8.359-5.959-13.926c0.053-1.804,0.004-3.614,0.122-5.413c0.516-7.913-2.881-13.973-9.812-17.219
		c-5.216-2.443-11.054-3.715-16.734-4.973c-8.313-1.842-16.659-3.507-23.562-8.886c-6.433-5.012-11.597-11.057-13.832-19.258
		c-1.205,0.218-2.168,0.472-3.145,0.55c-1.725,0.139-2.518,1.198-2.155,2.689c0.904,3.724,1.419,7.734,3.214,11.014
		c5.059,9.244,13.501,14.449,23.446,16.989c7.403,1.891,15.026,2.906,22.52,4.459c5.878,1.218,9.521,4.943,10.864,10.753
		c0.441,1.908,0.455,3.941,0.464,5.918c0.03,6.457,1.937,12.183,6.882,16.477C223.364,215.641,229.94,220.932,236.432,226.331z
		 M236.521,271.326c-3.507,2.02-4.631,5.359-5.145,8.648c-1.335,8.544-6.077,14.467-13.287,18.736
		c-4.329,2.564-6.681,6.359-7.478,11.318c-0.633,3.938-1.745,7.731-4.787,10.662c-4.071,3.922-9.091,5.367-14.526,5.673
		c-10.924,0.614-21.656,2.004-30.686,8.908c-7.211,5.514-12.488,12.293-12.448,21.994c0.015,3.758,0.746,4.406,4.421,4.27
		c1.44-3.724,2.362-7.575,4.298-10.823c5.026-8.438,12.934-13.268,22.273-15.521c6.381-1.54,12.993-2.095,19.428-3.438
		c9.789-2.043,17.146-7.188,19.577-17.439c1.427-6.018,3.849-11.409,7.892-16.061c3.421-3.937,6.044-8.303,7.303-13.396
		C234.429,280.521,235.396,276.158,236.521,271.326z M394.125,283.458c0.923-1.478,1.797-2.645,2.395-3.938
		c0.27-0.582,0.259-1.604-0.088-2.112c-7.772-11.411-19.575-15.322-32.332-13.621c-8.33,1.11-15.82,4.754-23.073,8.868
		c-2.586,1.466-5.198,2.901-7.879,4.184c-8.015,3.832-16.25,2.532-22.685-3.729c-3.341-3.253-6.911-5.955-11.271-7.781
		c-4.969-2.081-9.655-4.836-14.615-6.945c-2.597-1.104-5.501-1.525-8.301-2.09c-0.633-0.128-1.403,0.431-2.11,0.674
		c4.786,1.271,8.155,4.283,11.777,6.912c3.501,2.54,7.224,4.772,10.752,7.276c3.377,2.397,6.957,4.64,9.871,7.531
		c7.417,7.355,15.969,9.442,25.523,5.625c6.754-2.699,13.195-6.218,19.657-9.599c8.036-4.206,16.32-5.598,25.121-2.997
		C383.767,273.753,389.122,278.105,394.125,283.458z M106.519,282.924c0.346-0.412,0.666-0.816,1.008-1.2
		c5.783-6.486,12.896-10.381,21.658-10.896c8.125-0.479,15.733,1.347,22.86,5.315c4.014,2.235,8.087,4.376,12.217,6.387
		c9.417,4.584,18.544,4.324,26.912-2.372c5.648-4.521,11.055-9.344,16.511-14.099c4.826-4.206,9.957-7.774,16.486-8.76
		c0.347-0.053,0.642-0.443,1.364-0.972c-0.997-0.275-1.582-0.634-2.093-0.547c-3.075,0.521-6.421,0.538-9.143,1.84
		c-9.5,4.546-19.174,8.796-26.814,16.548c-4.095,4.154-9.75,5.203-15.399,3.953c-3.455-0.765-6.827-2.258-9.996-3.89
		c-7.117-3.663-13.862-8.005-21.895-9.722c-12.949-2.768-24.602-1.448-33.811,9.267
		C102.991,277.723,102.912,278.737,106.519,282.924z M346.307,140.251c-1.994,10.102-7.833,17.526-16.959,22.058
		c-7.533,3.741-15.467,5.811-23.834,6.54c-5.459,0.476-10.526,2.219-14.993,5.592c-6.156,4.651-8.337,11.107-8.711,18.441
		c-0.36,7.084-2.479,13.263-8.637,17.499c-5.45,3.75-8.911,9.139-11.956,14.84c-0.195,0.366-0.109,0.88-0.155,1.326
		c1.017-0.275,1.47-0.848,1.959-1.388c2.525-2.784,4.87-5.77,7.647-8.275c2.394-2.161,5.244-3.831,7.96-5.615
		c6.935-4.556,11.141-10.528,11.081-19.226c-0.065-9.544,6.729-14.956,13.796-16.326c5.654-1.097,11.421-1.602,17.096-2.612
		c8.678-1.544,16.774-4.383,22.852-11.278c4.401-4.994,7.729-10.48,7.88-17.363c0.02-0.909-0.458-2.167-1.142-2.674
		C349.161,141.027,347.745,140.784,346.307,140.251z M230.133,265.38c-0.104-0.269-0.208-0.537-0.313-0.806
		c-1.321,0.336-2.71,0.511-3.95,1.037c-4.311,1.83-6.923,5.442-9.104,9.333c-1.987,3.548-4.597,6.384-7.828,8.85
		c-8.207,6.265-15.484,13.23-18.304,23.777c-1.444,5.399-5.653,8.469-10.846,10.064c-3.01,0.925-6.118,1.538-9.19,2.252
		c-10.033,2.333-18.844,6.791-25.251,15.093c-4.698,6.085-7.632,12.891-6.89,20.814c0.089,0.944,0.571,2.392,1.232,2.639
		c1.779,0.666,3.754,0.81,5.502,1.133c0-2.272-0.188-4.253,0.033-6.187c0.818-7.156,4.457-12.849,9.511-17.771
		c6.88-6.697,15.495-9.521,24.637-11.452c9.123-1.929,16.735-6.181,18.017-16.474c1.263-10.146,6.204-16.962,15.607-20.932
		c3.841-1.621,6.25-4.785,7.705-8.942c1.098-3.135,3.226-5.967,5.207-8.708C226.981,267.618,228.704,266.604,230.133,265.38z
		 M249.346,275.496c-0.146,0.193-0.292,0.386-0.438,0.578c0,3.766,0.353,7.573-0.098,11.283c-0.463,3.813-1.721,7.528-2.61,11.292
		c-0.29,1.225-0.586,2.455-0.754,3.7c-0.947,7.026,2.032,12.92,5.817,18.372c4.71,6.785,3.555,15.837-1.184,21.403
		c-2.969,3.485-6.456,6.568-9.93,9.579c-10.134,8.78-16.411,19.36-15.847,33.188c0.202,4.956,1.508,9.58,4.987,13.311
		c4.562-1.819,4.598-1.844,3.619-5.986c-3.165-13.378,0.354-24.782,10.13-34.329c3.297-3.221,6.84-6.21,9.946-9.603
		c8.967-9.792,9.831-21.973,2.45-32.122c-5.194-7.141-7.196-14.741-4.181-23.416c1.619-4.656,2.124-9.534,0.13-14.29
		C250.93,277.375,250.037,276.479,249.346,275.496z M248.998,223.926c0.216-0.087,0.431-0.174,0.646-0.262
		c0.3-2.04,0.396-4.136,0.942-6.107c1.129-4.071,2.42-8.103,3.787-12.102c2.531-7.407,2.438-14.487-2.063-21.221
		c-1.294-1.936-2.344-4.051-3.353-6.157c-4.4-9.186-0.874-18.042,5.833-24.175c3.728-3.408,7.747-6.549,11.129-10.271
		c6.932-7.628,10.849-16.569,9.936-27.123c-0.438-5.058-1.754-9.877-4.966-14.124c-1.538,0.94-2.903,1.774-4.412,2.696
		c2.442,5.999,2.517,12.067,1.656,18.223c-1.075,7.689-5.102,13.794-10.32,19.226c-3.569,3.717-7.474,7.125-10.896,10.968
		c-4.843,5.44-7.052,11.785-5.971,19.235c0.737,5.085,3.034,9.337,5.708,13.562c4.649,7.344,5.941,15.149,2.723,23.469
		c-1.455,3.761-2.073,7.666-1.284,11.684C248.26,222.299,248.689,223.101,248.998,223.926z M101.815,225.939
		c-0.348-0.173-0.695-0.345-1.042-0.517c-0.984,1.292-2.073,2.52-2.901,3.905c-0.352,0.587-0.482,1.696-0.159,2.239
		c3.483,5.86,8.022,10.654,14.276,13.642c12.452,5.95,24.95,4.93,37.62,0.612c4.891-1.667,9.983-3.045,15.093-3.688
		c5.433-0.683,9.987,2.572,14.636,4.944c7.832,3.997,15.89,6.054,24.765,3.826c6.41-1.609,12.743-4.07,19.589-3.063
		c0.137,0.02,0.332-0.35,0.604-0.654c-0.452-0.377-0.817-0.77-1.259-1.036c-3.478-2.099-7.153-1.664-10.726-0.502
		c-11.71,3.809-22.288,2.693-32.25-5.373c-5.532-4.479-12.673-5.724-19.799-4.108c-4.363,0.989-8.563,2.701-12.833,4.099
		c-11.779,3.857-23.287,3.44-34.256-2.604C108.279,234.964,104.486,230.952,101.815,225.939z M354.737,360.203
		c2.062-0.298,3.787-0.37,5.38-0.867c0.625-0.194,1.371-1.352,1.354-2.053c-0.34-13.318-6.215-23.401-17.669-30.326
		c-6.996-4.229-14.87-5.874-22.546-8.074c-7.205-2.065-11.188-6.729-12.84-13.879c-0.578-2.503-1.297-5.361-2.938-7.155
		c-4.317-4.722-8.875-9.332-13.903-13.265c-5.114-4-9.82-8.144-13.354-13.663c-1.362-2.127-3.58-3.728-5.516-5.448
		c-0.359-0.318-1.232-0.057-1.868-0.063c0.225,0.661,0.303,1.432,0.7,1.964c1.916,2.563,4.427,4.819,5.778,7.64
		c2.489,5.197,6.011,9.152,11.049,11.834c8.876,4.723,13.761,12.119,15.083,22.06c1.124,8.451,6.143,13.572,14.239,15.859
		c4.415,1.247,8.872,2.377,13.218,3.835c8.693,2.915,16.169,7.479,20.635,15.946C354.04,349.29,355,354.334,354.737,360.203z
		 M275.226,247.215c0.105,0.25,0.212,0.499,0.317,0.748c0.505,0.055,1.041,0.25,1.51,0.145c6.086-1.366,11.471,0.68,16.989,2.941
		c2.704,1.108,6,1.293,8.978,1.101c6.397-0.413,12.329-2.71,17.714-6.123c8.197-5.198,16.502-5.38,25.211-1.45
		c10.794,4.873,22.082,5.884,33.633,3.522c10.302-2.106,18.109-7.958,24.114-16.608c-1.96-1.808-3.805-3.508-5.744-5.297
		c-7.448,12.095-18.881,16.198-32.096,16.447c-6.734,0.126-13.163-1.79-19.454-4.16c-5.054-1.904-10.145-3.44-15.753-3.005
		c-5.178,0.402-9.256,2.646-13.095,5.829c-7.43,6.161-15.584,9.798-25.477,6.806c-2.418-0.731-4.785-1.69-7.247-2.207
		c-1.998-0.419-4.125-0.564-6.153-0.381C277.482,245.632,276.372,246.622,275.226,247.215z M400.331,275.192
		c0.781-0.685,1.691-1.561,2.684-2.331c1.232-0.958,1.331-1.972,0.533-3.281c-4.349-7.132-10.194-12.396-18.404-14.614
		c-7.08-1.914-14.374-2.307-21.504-1.016c-6.78,1.229-13.417,3.369-20.023,5.412c-5.327,1.647-10.545,2.497-15.809,0.084
		c-2.211-1.014-4.41-2.1-6.47-3.385c-4.396-2.744-8.769-2.718-12.663-0.603c3.851,2.503,7.868,5.322,12.094,7.783
		c2.45,1.428,5.143,2.712,7.889,3.304c6.96,1.5,13.726,0.298,20.502-1.808c5.891-1.829,11.971-3.261,18.072-4.14
		c8.095-1.166,15.904,0.367,22.61,5.286C393.503,268.57,396.681,271.916,400.331,275.192z M100.097,275.114
		c0.359-0.433,0.644-0.768,0.921-1.108c8.979-11.064,20.712-15.532,34.598-13.365c6.788,1.06,13.392,3.454,19.992,5.521
		c5.981,1.872,12.055,2.613,17.676-0.235c6.079-3.08,11.696-7.072,17.504-10.683c0.071-0.045,0.009-0.304,0.009-0.05
		c-5.569-3.213-10.116-0.373-14.711,2.188c-0.237,0.133-0.482,0.248-0.716,0.384c-7.13,4.109-14.238,3.897-21.74,0.663
		c-12.287-5.296-25.094-6.504-38.14-3.182c-8.976,2.285-15.068,8.374-20.303,15.783C96.981,272.523,98.5,273.786,100.097,275.114z
		 M201.276,211.305c-2.729-5.329-3.895-10.984-4.397-16.856c-0.165-1.927-0.892-3.866-1.663-5.671
		c-2.943-6.88-9.027-9.623-15.605-11.864c-5.179-1.764-10.383-3.62-15.259-6.066c-6.579-3.3-12.13-8.139-15.317-14.86
		c-1.915-4.038-2.61-8.655-3.881-13.111c-1.49,0-3.509,0-5.619,0c-0.887,10.085,2.031,18.63,8.774,25.754
		c7.284,7.694,16.617,11.55,26.78,13.769c8.823,1.926,14.444,7.234,15.991,16.24C192.146,204.849,196.186,208.388,201.276,211.305z
		 M266.928,197.481c2.312-6.291,4.258-12.542,2.005-19.23c-0.746-2.212-1.242-4.507-1.918-6.746
		c-2.186-7.242-1.436-13.785,3.841-19.681c3.119-3.485,6.069-7.243,8.42-11.271c5.332-9.136,9.464-18.715,7.517-29.745
		c-0.998-5.654-3.497-10.484-7.809-14.431c-1.867,1.495-3.545,2.838-5.208,4.17c4.135,4.261,5.477,9.576,5.858,15.128
		c0.858,12.498-4.298,22.804-12.822,31.342c-8.209,8.222-9.37,18.248-5.146,27.792C264.861,182.029,267.814,189.273,266.928,197.481
		z M296.225,213.237c6.27-4.109,10.248-9.829,12.24-16.933c1.804-6.427,5.861-10.635,12.236-12.573
		c1.803-0.548,3.647-0.971,5.49-1.379c12.505-2.771,22.673-9.124,29.979-19.742c3.958-5.753,5.925-12.073,4.621-19.255
		c-2.119-0.298-4.249-0.598-6.469-0.912c-0.075,0.497-0.188,0.846-0.17,1.188c0.407,7.934-2.995,14.324-8.168,19.953
		c-6.625,7.209-15.254,10.645-24.522,12.844c-6.166,1.462-12.174,3.417-15.43,9.405c-1.373,2.525-2.019,5.537-2.549,8.409
		C302.231,201.031,300.064,207.417,296.225,213.237z M233.612,308.629c-0.21,0.473-0.438,0.938-0.627,1.419
		c-2.246,5.684-1.654,11.411,0.26,16.951c3.144,9.101,0.858,16.716-5.296,23.746c-6.12,6.991-10.892,14.808-13.261,23.941
		c-2.846,10.971-0.986,20.857,6.573,29.866c1.813-1.487,3.526-2.893,5.213-4.276c-4.885-6.089-6.14-13.036-5.571-20.289
		c0.81-10.322,5.542-18.864,12.672-26.256c8.27-8.573,10.407-18.296,4.903-29.237C235.985,319.538,233.996,314.436,233.612,308.629z
		 M234.27,146.461c0.632-0.718,1.436-1.836,2.439-2.728c1.608-1.429,1.713-2.813,0.284-4.383c-1.455-1.6-2.778-3.336-4.352-4.806
		c-4.668-4.36-6.346-9.969-6.723-16.048c-0.435-6.998,1.106-13.508,5.768-19.068c-1.328-0.617-2.533-1.044-3.595-1.702
		c-1.7-1.053-2.83-0.717-3.664,1.073c-1.176,2.527-2.546,4.973-3.568,7.559c-0.72,1.821-1.172,3.792-1.423,5.739
		c-0.236,1.836-0.05,3.726-0.05,5.592c-3.184-8.257-0.42-15.503,3.843-22.454c-1.448-1.087-2.726-2.046-4.285-3.217
		c-1.529,2.135-3.049,4.031-4.327,6.078c-7.76,12.436-1.172,30.78,8.137,37.86C226.725,138.979,230.173,142.687,234.27,146.461z
		 M276.443,405.938c1.532,1.096,2.912,2.084,4.469,3.197c0.749-0.897,1.485-1.67,2.099-2.529
		c9.081-12.717,5.666-28.757-4.136-39.737c-3.957-4.433-9.523-7.373-11.925-13.287c-2.082,2.38-3.961,4.529-6.146,7.027
		c13.726,11.474,18.927,24.736,8.356,41.002c1.872,0.906,3.559,1.723,5.211,2.522c3.781-4.33,6.81-10.986,7.265-19.184
		C283.781,392.755,281.129,399.457,276.443,405.938z M116.959,181.567c11.16-4.143,21.446-3.392,31.013,3.919
		c4.558,3.483,7.661,8.08,10.805,12.719c4.285,6.322,7.342,7.205,14.691,4.333c-5.69-3.142-9.073-8.159-12.149-13.534
		c-3.22-5.627-7.355-10.524-13.178-13.646c-8.47-4.542-17.281-5.6-26.641-2.826C114.34,174.655,114.134,174.658,116.959,181.567z
		 M321.62,389.798c-2.37-0.467-4.425-0.749-6.412-1.283c-12.307-3.307-19.383-14.123-20.766-26.278
		c-0.527-4.641-0.02-9.395-0.096-14.095c-0.014-0.854-0.331-2.143-0.927-2.472c-2.597-1.436-5.349-2.589-8.026-3.836
		c0.288,3.064,0.763,6.021,0.804,8.983c0.099,7.217,0.513,14.343,2.765,21.3c2.169,6.703,5.551,12.553,11.243,16.777
		c5.75,4.267,12.068,7.103,19.361,6.427C320.266,393.44,320.886,391.771,321.62,389.798z M328.873,300.231
		c2.608,2.595,5.556,5.189,8.089,8.14c2.399,2.796,4.359,5.97,6.522,8.97c9.782,13.571,27.624,16.73,40.739,9.619
		c0.748-0.405,1.661-1.47,1.618-2.174c-0.094-1.549-0.751-3.063-1.147-4.481c-0.327-0.057-0.423-0.104-0.491-0.08
		c-0.508,0.186-1.002,0.407-1.514,0.577c-8.008,2.666-15.887,2.625-23.678-0.921c-6.166-2.806-10.339-7.668-14.198-12.996
		C339.475,299.514,336.291,298.378,328.873,300.231z M178.072,389.818c0.813,4.831,1.782,5.725,6.147,5.021
		c5.229-0.843,10.047-2.841,14.306-6.001c11.154-8.277,13.653-20.043,13.022-32.975c-0.201-4.115-0.723-8.215-1.102-12.364
		c-0.928,0.413-2.014,1.127-3.196,1.371c-2.029,0.418-2.872,1.721-2.921,3.535c-0.106,3.872-0.172,7.754-0.027,11.623
		c0.192,5.123-1.108,9.739-3.628,14.202C195.639,383.148,187.693,387.639,178.072,389.818z M214.072,160.282
		c-0.213-5.266-0.206-10.495-0.701-15.676c-0.434-4.54-0.998-9.153-2.262-13.514c-4.368-15.069-15.327-22.517-29.485-24.01
		c-0.651,1.957-1.309,3.934-1.979,5.948c1.481,0.31,2.613,0.568,3.753,0.781c12.23,2.282,24.605,16.676,22.643,32.014
		c-0.417,3.265,0.033,6.656,0.269,9.976c0.049,0.69,0.781,1.613,1.438,1.926C209.85,158.728,212.066,159.492,214.072,160.282z
		 M288.98,158.315c6.551-3.027,6.481-1.643,6.491-9.339c0.001-0.181-0.021-0.362-0.017-0.543c0.097-4.513-0.37-9.124,0.397-13.521
		c2.352-13.464,13.619-21.376,24.114-22.081c1.542-0.104,1.771-0.882,1.455-2.186c-0.874-3.605-1.478-3.963-5.488-3.808
		c-9.801,0.377-24.066,9.104-26.664,23.19C287.511,139.561,289.099,148.857,288.98,158.315z M327.312,202.532
		c7.301,3.145,11.431-0.849,15.095-5.934c0.266-0.366,0.517-0.742,0.785-1.106c3.656-4.956,7.232-10.028,12.912-12.921
		c9.062-4.616,18.291-5.842,27.687-0.788c0.533-1.793,0.883-3.484,1.542-5.046c0.713-1.688,0.558-2.806-1.371-3.226
		c-4.101-0.894-8.193-2.397-12.317-2.499c-13.105-0.325-23.479,5.012-30.254,16.456C337.814,193.508,334.184,199.38,327.312,202.532
		z M114.489,326.18c3.275,1.182,6.314,2.993,9.499,3.3c11.898,1.145,22.666-1.895,31.008-10.834
		c5.604-6.004,10.635-12.542,16.104-19.058c-2.448,0.199-5.195,0.169-7.833,0.692c-4.913,0.976-7.116,5.2-9.807,8.787
		c-6.596,8.794-15.354,13.557-26.384,13.473c-3.771-0.029-7.532-1.103-11.573-1.742C115.246,322.157,114.919,323.892,114.489,326.18
		z M337.635,205.269c6.26,4.118,9.219,3.649,13.523-1.942c0.772-1.002,1.509-2.031,2.29-3.024c3.254-4.134,7.248-7.12,12.3-8.905
		c5.524-1.952,10.961-1.595,16.796-0.258c0.177-1.482,0.123-2.856,0.536-4.072c0.668-1.968-0.071-2.713-1.867-3.348
		c-5.988-2.118-11.953-2.337-18.011-0.36c-8.154,2.662-13.758,8.366-18.323,15.297C343.04,201.446,341.42,204.412,337.635,205.269z
		 M161.283,206.376c-2.246-2.823-4.662-5.372-6.519-8.279c-8.138-12.742-17.401-17.399-30.694-15.16
		c-6.815,1.149-7.367,1.858-6.736,8.694c0.012,0.133,0.194,0.251,0.364,0.457c0.635-0.2,1.307-0.414,1.98-0.623
		c10.143-3.145,21.016,0.21,27.372,8.55c1.355,1.778,2.278,3.885,3.625,5.671c2.616,3.469,4.401,3.795,8.206,1.847
		C159.839,207.042,160.822,206.597,161.283,206.376z M325.522,381.64c-2.582-0.962-5.339-1.593-7.689-2.935
		c-9.436-5.386-13.205-13.799-12.675-24.467c0.345-6.93,0.229-6.938-6.695-7.53c-0.152-0.014-0.319,0.144-0.842,0.397
		c0,4.913-0.67,10.118,0.137,15.083c1.815,11.17,7.217,19.922,18.797,23.492c5.935,1.83,5.965,1.813,8.847-3.602
		C325.483,381.925,325.497,381.734,325.522,381.64z M305.424,154.16c-1.247-7.706-1.348-14.849,2.787-21.523
		c4.236-6.838,10.72-9.818,18.442-11.226c-0.872-1.753-1.55-3.318-2.426-4.762c-0.293-0.483-1.099-0.948-1.658-0.934
		c-11.94,0.303-22.119,9.005-23.72,19.25c-1.031,6.598-0.74,13.402-1.049,20.276C300.321,154.884,302.692,154.547,305.424,154.16z
		 M203.227,156.557c0-3.744-0.541-7.257,0.1-10.542c2.106-10.815-6.245-25.997-20.773-29.195c-4.398-0.968-5.788-0.122-6.752,4.497
		c1.006,0.352,2.012,0.723,3.031,1.059c11.329,3.736,17.953,13.553,17.233,25.412c-0.156,2.578-0.023,5.173-0.023,7.838
		C198.442,155.938,200.554,156.211,203.227,156.557z M116.312,309.614c-1.21,7.289-1,7.623,6.012,9.339
		c0.867,0.213,1.772,0.326,2.665,0.365c11.151,0.479,20.024-3.608,26.381-12.977c2.403-3.544,4.756-7.236,9.234-8.962
		c-1.028-0.525-1.755-0.885-2.472-1.264c-3.816-2.018-5.348-1.849-8.41,1.159c-1.283,1.261-2.521,2.605-3.566,4.064
		C138.605,311.877,126.103,313.568,116.312,309.614z M173.626,380.658c1.392,5.687,2.563,6.395,7.496,4.872
		c0.428-0.133,0.847-0.293,1.266-0.453c9.611-3.661,16.814-9.913,18.641-20.309c1.023-5.823,0.184-11.975,0.184-17.979
		c-6.535-0.463-7.795,0.779-7.172,7.083c0.009,0.09,0.042,0.179,0.044,0.268c0.13,6.866-1.182,13.261-5.992,18.536
		C184.219,376.926,179.663,379.966,173.626,380.658z M339.042,297.021c5.683,2.397,8.023,7.117,11.074,11.185
		c7.929,10.57,20.135,14.244,31.585,9.496c0.672-0.279,1.704-0.867,1.723-1.345c0.09-2.275-0.113-4.563-0.225-7.15
		c-1.572,0.507-2.587,0.841-3.604,1.161c-11.331,3.566-20.342,0.21-26.777-9.846c-1.107-1.729-2.433-3.437-4.018-4.703
		c-1.045-0.836-2.801-1.328-4.119-1.141C342.975,294.921,341.388,295.995,339.042,297.021z M191.673,322.944
		c8.947-0.763,13.785-4.757,15.252-13.089c1.176-6.674,4.18-11.804,10.242-15.011c5.945-3.146,8.825-8.327,10.478-14.692
		c0.902-3.473,3.08-6.61,4.642-9.919c0.219-0.463,0.203-1.038,0.295-1.562c-0.479-0.013-0.998-0.145-1.429-0.007
		c-0.498,0.159-0.923,0.551-1.372,0.854c-3.814,2.579-5.698,6.365-6.734,10.703c-1.029,4.307-3.417,7.493-7.631,9.188
		c-1.082,0.435-2.083,1.073-3.121,1.617c-6.445,3.378-10.258,8.653-11.379,15.847C199.913,313.315,197.631,319.034,191.673,322.944z
		 M307.865,178.943c-0.315-0.173-0.45-0.311-0.586-0.313c-7.092-0.119-13.369,5.329-13.645,12.659
		c-0.438,11.676-6.153,19.642-16.028,25.223c-2.73,1.543-5.289,3.476-7.672,5.526c-2.273,1.956-4.24,4.282-5.13,7.907
		c0.937-0.611,1.426-0.838,1.799-1.189c4.883-4.587,10.572-7.767,16.872-9.989c1.665-0.587,3.208-1.653,4.655-2.707
		c7.893-5.742,10.986-14.073,12.15-23.297c0.528-4.184,1.876-7.868,4.737-10.964C305.916,180.829,306.885,179.924,307.865,178.943z
		 M242.38,345.09c7.423-4.393,10.076-14.907,6.115-22.55c-1.119-2.159-2.403-4.234-3.502-6.402
		c-2.884-5.69-3.608-11.535-1.821-17.806c1.25-4.388,2.106-8.938,2.601-13.476c0.346-3.175-0.216-6.449-0.372-9.68
		c-0.284-0.016-0.568-0.031-0.852-0.047c-0.245,1.097-0.461,2.2-0.741,3.287c-1.434,5.562-2.294,11.363-4.465,16.622
		c-3.434,8.314-3.647,16.323,0.298,24.288C243.655,327.438,245.824,335.648,242.38,345.09z M268.059,269.248
		c-0.184,0.304-0.368,0.607-0.552,0.911c4.421,2.97,5.939,7.54,7.354,12.267c1.48,4.948,4.061,9.301,8.644,12.039
		c6.672,3.989,9.616,9.918,9.852,17.544c0.106,3.449,0.604,7.136,4.136,8.872c2.877,1.415,6.089,2.148,9.152,3.184
		c0.098-0.228,0.194-0.456,0.291-0.684c-3.271-3.621-5.75-7.671-6.283-12.593c-1.096-10.117-6.456-17.119-15.318-21.792
		c-4.813-2.538-7.932-6.593-10.039-11.635c-1.016-2.431-2.788-4.586-4.442-6.688C270.265,269.928,269.009,269.708,268.059,269.248z
		 M257.984,155.704c-6.876,4.995-10.572,14.769-4.688,23.251c0.719,1.037,1.348,2.139,1.971,3.238
		c3.509,6.197,4.921,12.83,3.233,19.786c-1.161,4.788-3.072,9.389-4.441,14.134c-0.641,2.22-0.794,4.582-1.169,6.879
		c0.306,0.091,0.611,0.181,0.917,0.271c0.295-0.441,0.669-0.85,0.871-1.33c1.044-2.474,1.942-5.014,3.084-7.44
		c1.605-3.414,3.847-6.599,4.988-10.147c2.498-7.77,1.566-15.481-1.661-22.939c-2.625-6.065-5.057-12.186-4.204-19.012
		C257.149,160.268,257.576,158.161,257.984,155.704z M233.03,230.81c0.226-0.286,0.451-0.571,0.676-0.857
		c-1.24-1.717-2.21-3.749-3.774-5.086c-3.413-2.918-6.997-5.682-10.745-8.154c-8.765-5.783-13.488-13.567-12.865-24.276
		c0.42-7.218-3.542-12.468-13.977-12.747c5.057,4.307,7.625,9.568,8.114,16.168c0.863,11.629,6.506,20.279,17.418,24.988
		c5.123,2.21,9.867,4.846,13.562,9.131C231.804,230.399,232.492,230.54,233.03,230.81z M275.549,252.53
		c0.7,0.257,1,0.473,1.286,0.456c4.756-0.27,8.728,1.749,12.64,4.119c1.989,1.204,4.098,2.355,6.306,3.026
		c6.885,2.093,12.779,5.574,17.863,10.75c6.588,6.705,17.602,6.399,23.144-0.284c-7.176,0.555-12.686-0.368-18.563-4.79
		c-3.018-2.27-5.849-5.113-9.253-6.476c-7.487-2.996-15.254-5.315-22.97-7.706C282.659,250.591,279.188,250.366,275.549,252.53z
		 M334.89,231.372c-7.783-5.086-13.986-5.303-20.266-0.918c-2.138,1.493-4.065,3.316-5.95,5.132
		c-2.729,2.629-6.01,4.042-9.685,4.315c-2.686,0.201-5.414-0.075-8.119-0.227c-3.952-0.221-7.9-0.729-11.85-0.72
		c-2.836,0.006-4.086,1.533-3.839,3.998c5.206-2.531,10.031-0.469,14.918,1.115c6.343,2.057,12.603,2.297,18.527-1.317
		c2.844-1.736,5.673-3.527,8.337-5.521C322.077,233.402,327.513,230.662,334.89,231.372z M341.873,180.468
		c-3.125,1.177-5.588,2.227-8.128,3.033c-4.021,1.278-8.195,2.13-12.124,3.634c-8.087,3.095-9.448,10.864-12.033,17.63
		c3.155-0.983,6.174-2.04,9.256-2.86c5.646-1.503,10.603-4.031,14.095-8.903C335.775,189.044,338.593,185.071,341.873,180.468z
		 M247.207,132.939c-11.097-8.013-12.497-18.234-7.116-29.851c-3.399-2.508-4.5-2.644-6.12-0.845
		c-6.333,7.035-6.761,20.025-0.811,27.352c2.495,3.073,5.178,5.993,7.916,9.146C242.917,136.999,244.913,135.11,247.207,132.939z
		 M164.463,232.186c1.185,0.064,2.138,0.168,3.089,0.157c4.547-0.057,8.734,1.144,12.546,3.598c2.275,1.465,4.529,2.97,6.732,4.541
		c5.51,3.927,11.648,4.679,18.09,3.471c6.426-1.206,12.741-3.645,19.399-1.293c0.114,0.04,0.304-0.134,1.101-0.517
		c-0.845-0.676-1.387-1.323-2.08-1.63c-4.185-1.855-8.551-1.672-13.024-1.399c-4.356,0.265-8.966,0.602-13.07-0.525
		c-3.648-1.002-6.941-3.729-10.068-6.115C179.752,226.808,171.267,226.495,164.463,232.186z M340.474,320.382
		c-2.349-3.561-4.319-7.03-6.775-10.114c-1.929-2.422-4.107-5.124-6.793-6.364c-5.253-2.425-10.937-3.915-16.843-5.93
		c0.845,2.46,1.689,4.111,1.961,5.853c1.061,6.831,5.644,10.2,11.695,12.019C329.198,317.491,334.766,318.849,340.474,320.382z
		 M226.359,169.209c0.081-0.965,0.18-1.823,0.221-2.684c0.241-5.074,0.921-10.074,3.551-14.521c1.063-1.798,0.973-3.256-0.411-4.571
		c-4.318-4.103-8.715-8.123-13.383-12.456c0.174,3.311,0.298,5.899,0.446,8.487c0.309,5.396,0.491,10.804,1.031,16.176
		c0.154,1.534,1.056,3.255,2.146,4.374C221.805,165.909,224.072,167.395,226.359,169.209z M349.179,291.707
		c1.542,1.288,2.908,2.209,3.984,3.394c1.078,1.186,1.91,2.607,2.771,3.975c5.934,9.425,16.979,10.667,25.753,6.633
		c0.515-0.236,1.19-1.068,1.109-1.495c-0.39-2.065-1.012-4.088-1.562-6.16c-10.753,2.178-19.141-0.746-25.005-9.651
		C353.73,289.573,351.548,290.596,349.179,291.707z M151.361,211.372c-1.874-2.329-3.81-4.167-5.06-6.392
		c-4.63-8.243-11.773-11.826-20.909-11.083c-8.69,0.707-7.892,1.498-6.069,8.935c0.059,0.238,0.236,0.446,0.364,0.677
		c7.775-2.278,14.648-0.902,20.484,4.796c1.356,1.325,2.707,2.665,3.958,4.087c1.518,1.725,3.083,2.01,4.93,0.547
		C149.815,212.342,150.654,211.85,151.361,211.372z M259.965,398.25c1.692,0.615,3.152,1.298,4.688,1.634
		c0.657,0.144,1.803-0.2,2.166-0.716c5.405-7.657,6.845-17.179,1.563-25.044c-2.686-3.997-6.149-7.473-9.104-10.995
		c-1.946,1.688-3.615,3.138-5.423,4.706C264.014,376.426,266.321,386.371,259.965,398.25z M381.271,203.546
		c2.368-8.615,1.99-9.122-6.404-9.664c-8.542-0.552-14.972,3.559-20.184,10.091c-2.102,2.632-4.722,4.85-7.073,7.223
		c0.612,0.267,1.668,0.705,2.705,1.184c4.628,2.135,4.627,2.139,7.792-1.854C364.229,202.802,371.821,200.473,381.271,203.546z
		 M228.197,326.324c-0.883,1.462-1.411,2.759-2.298,3.727c-2.99,3.26-6.219,6.307-9.125,9.636c-1.23,1.408-2.665,3.318-2.663,4.998
		c0.006,5.602,0.622,11.202,1.04,17.337c3.912-5.523,7.235-10.697,11.049-15.481C231.249,340.204,231.353,333.62,228.197,326.324z
		 M273.56,175.489c2.296-5.624,5.973-9.994,10.379-13.816c0.411-0.355,0.486-1.107,0.697-1.682
		c2.447-6.672-0.449-13.278,0.115-20.275c-3.406,4.567-6.339,8.873-9.653,12.86C269.239,159.623,268.516,165.465,273.56,175.489z
		 M163.798,271.219c7.582,4.953,16.49,5.033,22.279-0.809c8.916-8.999,20.291-13.786,32.123-17.542
		c2.033-0.646,4.336-0.438,6.515-0.626c0.031-0.328,0.062-0.656,0.092-0.984c-1.724-0.173-3.536-0.772-5.157-0.439
		c-5.886,1.206-11.715,2.696-17.553,4.133c-6.76,1.664-12.717,4.854-18.187,9.18c-4.336,3.428-9.146,6.123-14.844,6.665
		C167.417,270.953,165.764,271.063,163.798,271.219z M274.205,334.517c-0.61,2.538-1.081,7.061-2.806,11.04
		c-2.244,5.179-0.485,8.971,2.856,12.426c2.78,2.874,5.988,5.332,9.304,8.234c-0.22-3.45-0.488-6.405-0.574-9.366
		c-0.095-3.238,0.202-6.501-0.087-9.715c-0.229-2.551-0.381-5.602-1.831-7.428C279.122,337.26,275.959,335.776,274.205,334.517z
		 M160.593,318.865c5.027-1.285,10.133-2.648,15.268-3.886c4.414-1.063,8.082-3.175,10.127-7.343
		c1.577-3.214,2.818-6.592,4.083-9.598C176.296,299.354,167.039,307.382,160.593,318.865z M152.229,292.347
		c-2.267-1.109-4.045-1.938-5.786-2.843c-1.604-0.833-2.519-0.64-3.701,1.05c-4.984,7.119-11.568,11.062-20.625,9.233
		c-1.276-0.258-2.512-0.718-3.913-1.126c-0.36,1.026-0.723,1.851-0.94,2.712c-1.151,4.579-0.439,5.729,4.325,6.44
		c8.518,1.271,15.689-1.11,21.153-8.021C145.174,296.718,147.495,293.463,152.229,292.347z M173.153,124.866
		c-2.524,5.099-2.485,5.295,2.386,7.74c4.949,2.483,8.447,6.15,9.591,11.7c0.489,2.375,0.872,4.79,1.047,7.205
		c0.106,1.466,0.423,2.393,1.998,2.686c1.285,0.239,2.534,0.672,3.766,1.011C196.704,141.83,187.649,127.196,173.153,124.866z
		 M355.073,251.514c-5.505-1.82-10.829-3.711-16.236-5.328c-4.575-1.368-9.06-1.085-13.228,1.604
		c-1.923,1.242-3.955,2.315-5.587,3.263C331.25,260.846,343.058,256.477,355.073,251.514z M188.972,204.154
		c-0.708-2.404-1.215-5.058-2.261-7.48c-1.841-4.265-4.765-7.756-9.295-9.276c-4.988-1.675-10.107-2.959-14.963-4.354
		C167.456,194.646,175.701,202.507,188.972,204.154z M308.86,153.576c1.072-0.208,1.855-0.469,2.646-0.491
		c2.479-0.068,3.625-0.927,3.451-3.749c-0.238-3.872,0.202-7.721,2.592-11.095c2.846-4.017,6.987-5.742,11.788-6.858
		c-0.268-1.631-0.514-3.211-0.788-4.786c-0.229-1.312-0.857-1.781-2.287-1.425c-4.509,1.121-8.838,2.589-12.298,5.854
		C307.313,137.305,307.119,145.082,308.86,153.576z M178.583,252.193c-0.061-0.34-0.121-0.678-0.181-1.018
		c-1.535-0.912-3.104-1.773-4.598-2.747c-5.421-3.529-11.07-3.882-17.03-1.491c-3.728,1.495-7.535,2.789-11.353,4.191
		c3.334,1.271,6.555,2.662,9.881,3.719c3.213,1.02,6.713,2.774,9.768,2.271C169.719,256.354,174.093,253.919,178.583,252.193z
		 M170.366,372.202c0.524,4.988,1.647,5.686,6.45,3.871c12.459-4.705,15.233-14.885,13.815-27.915
		c-0.519-0.028-1.055-0.106-1.585-0.077c-4.072,0.228-4.207,0.553-4.234,4.614c-0.034,4.828-1.261,9.462-4.91,12.786
		C177.143,367.995,173.775,369.842,170.366,372.202z M329.034,372.187c-0.847-0.311-1.535-0.512-2.181-0.808
		c-7.061-3.229-11.573-8.41-12.364-16.364c-0.486-4.887-0.448-4.891-5.959-6.302c0,3.671-0.49,7.301,0.101,10.745
		c1.34,7.823,5.386,13.889,13.126,16.823C327.142,378.322,327.556,378.032,329.034,372.187z M251.613,370.563
		c-6.574,8.779-3.773,21.217,6.144,25.211C262.714,389.358,259.669,376.715,251.613,370.563z M243.311,104.759
		c-4.78,8.678-2.048,21.342,6.076,24.891C255.642,121.915,252.721,109.71,243.311,104.759z M140.623,288.089
		c-8.364-4.923-18.569,0.935-20.684,7.341C127.02,298.579,135.501,295.625,140.623,288.089z M379.435,207.003
		c-8.152-3.301-17.101,0.495-20.987,8.902C366.597,217.889,375.81,213.981,379.435,207.003z M121.028,206.609
		c2.429,7.143,13.169,11.537,20.681,8.457C136.388,208.463,130.241,204.061,121.028,206.609z M359.494,287.469
		c5.453,7.188,11.175,9.341,19.989,7.649C378.404,288.661,368.188,284.688,359.494,287.469z M265.218,307.085
		c0.287-0.034,0.574-0.068,0.861-0.103c0-5.936,0.218-11.883-0.061-17.807c-0.283-6.044-2.368-11.428-7.267-15.64
		c-0.157,0.501-0.267,0.67-0.244,0.82c0.039,0.261,0.1,0.555,0.255,0.754c4.048,5.23,4.218,11.157,3.021,17.279
		C260.719,297.836,260.788,302.956,265.218,307.085z M317.519,150.768c6.05-1.215,12.725-10.004,11.751-15.474
		C320.995,136.272,316.636,141.743,317.519,150.768z M170.04,367.592c7.752-2.432,12.29-9.033,11.513-16.505
		C173.641,354.492,169.539,360.309,170.04,367.592z M182.502,151.8c0.328-8.449-1.036-12.305-10.567-16.946
		C172.256,141.807,176.003,147.892,182.502,151.8z M328.394,367.419c0.238-5.543-5.641-13.817-10.518-14.808
		C317.356,359.351,321.668,365.42,328.394,367.419z M238.639,210.354c2.514-7.588-0.549-13.523-5.444-18.935
		C232.137,200.052,233.849,206.05,238.639,210.354z"/>
	<path fill-rule="evenodd" clip-rule="evenodd" d="M409.194,363.057c1.165,1.745,2.3,2.722,2.349,3.75
		c0.039,0.802-1.273,1.668-1.984,2.505c-0.902-0.899-2.22-1.67-2.554-2.746C406.796,365.894,408.072,364.762,409.194,363.057z"/>
	<path fill-rule="evenodd" clip-rule="evenodd" d="M85.213,77.672c-1.692,1.156-2.666,2.341-3.476,2.238
		c-0.925-0.118-1.704-1.381-2.546-2.147c0.795-0.781,1.524-2.082,2.404-2.192C82.445,75.464,83.45,76.583,85.213,77.672z"/>
	<path fill-rule="evenodd" clip-rule="evenodd" d="M54.734,250.283c-1.703,1.13-2.653,2.206-3.673,2.277
		c-0.659,0.046-2.163-1.766-2.001-2.074c0.541-1.036,1.541-2.078,2.607-2.485C52.155,247.814,53.207,249.099,54.734,250.283z"/>
	<path fill-rule="evenodd" clip-rule="evenodd" d="M449.513,246.43c1.128,1.661,2.328,2.657,2.226,3.493
		c-0.104,0.849-1.492,2.127-2.321,2.129c-0.768,0.002-2.063-1.377-2.157-2.251C447.173,248.99,448.368,248.041,449.513,246.43z"/>
	<path fill-rule="evenodd" clip-rule="evenodd" d="M90.992,138.206c-1.11-1.791-2.175-2.787-2.215-3.823
		c-0.027-0.708,1.375-1.472,2.138-2.21c0.795,0.904,1.959,1.707,2.248,2.75C93.335,135.55,92.141,136.553,90.992,138.206z"/>
	<path fill-rule="evenodd" clip-rule="evenodd" d="M405.752,134.925c1.395-1.199,2.349-2.524,2.889-2.373
		c0.981,0.275,2.269,1.354,2.386,2.237c0.097,0.725-1.22,2.156-2.095,2.328C408.216,137.26,407.225,136.004,405.752,134.925z"/>
	<path fill-rule="evenodd" clip-rule="evenodd" d="M422.999,79.824c-1.353,1.096-2.337,2.347-2.797,2.177
		c-1.061-0.392-1.866-1.473-2.774-2.275c0.74-0.741,1.485-2.08,2.22-2.073C420.567,77.66,421.479,78.771,422.999,79.824z"/>
	<path fill-rule="evenodd" clip-rule="evenodd" d="M395.452,355.481c-1.61,0.971-2.531,1.967-3.182,1.814
		c-1.014-0.238-1.844-1.257-2.751-1.945c0.706-0.775,1.471-2.229,2.104-2.174C392.683,353.27,393.657,354.326,395.452,355.481z"/>
	<path fill-rule="evenodd" clip-rule="evenodd" d="M102.367,140.699c-1.494,0.842-2.413,1.758-2.937,1.571
		c-1.044-0.374-1.872-1.353-2.789-2.083c0.696-0.744,1.588-2.214,2.049-2.089C99.799,138.398,100.706,139.445,102.367,140.699z"/>
	<path fill-rule="evenodd" clip-rule="evenodd" d="M111.067,146.04c-1.44,1.185-2.223,2.243-3.193,2.459
		c-0.514,0.114-2.044-1.47-1.906-1.881c0.327-0.971,1.249-1.992,2.188-2.401C108.623,144.014,109.658,145.114,111.067,146.04z"/>
	<path fill-rule="evenodd" clip-rule="evenodd" d="M213.463,17.011c-1.025-1.507-2.162-2.448-2.053-3.212
		c0.119-0.833,1.392-1.5,2.162-2.24c0.7,0.744,1.924,1.465,1.956,2.237C215.564,14.633,214.488,15.516,213.463,17.011z"/>
	<path fill-rule="evenodd" clip-rule="evenodd" d="M462.246,145.138c-1.551,1.119-2.415,2.227-3.207,2.177
		c-0.772-0.049-1.471-1.281-2.201-1.994c0.764-0.694,1.443-1.76,2.318-1.958C459.804,143.217,460.707,144.201,462.246,145.138z"/>
	<path fill-rule="evenodd" clip-rule="evenodd" d="M81.534,425.928c-0.923-1.587-1.925-2.546-1.76-3.22
		c0.208-0.847,1.369-1.462,2.119-2.177c0.708,0.81,1.835,1.551,1.982,2.452C83.979,423.618,82.752,424.472,81.534,425.928z"/>
	<path fill-rule="evenodd" clip-rule="evenodd" d="M337.884,42.367c-1.581,0.944-2.536,1.972-3.308,1.849
		c-0.818-0.13-1.463-1.354-2.184-2.099c0.783-0.706,1.529-1.908,2.361-1.972C335.526,40.086,336.392,41.243,337.884,42.367z"/>
	<path fill-rule="evenodd" clip-rule="evenodd" d="M22.634,285.015c-1.583,1.069-2.441,2.089-3.303,2.093
		c-0.687,0.003-1.922-1.232-1.923-1.92c-0.001-0.746,1.105-2.053,1.797-2.099C20.059,283.032,20.983,284.021,22.634,285.015z"/>
	<path fill-rule="evenodd" clip-rule="evenodd" d="M483.766,312.303c-1.005-1.57-2.024-2.472-1.878-3.103
		c0.201-0.87,1.282-1.537,1.986-2.292c0.681,0.688,1.88,1.354,1.907,2.065C485.812,309.804,484.818,310.672,483.766,312.303z"/>
	<path fill-rule="evenodd" clip-rule="evenodd" d="M93.567,368.301c-0.861,0.341-1.92,1.16-2.535,0.906
		c-0.842-0.349-1.346-1.513-1.996-2.327c0.688-0.527,1.501-1.59,2.038-1.465c0.969,0.227,1.772,1.162,2.645,1.802
		C93.669,367.578,93.618,367.939,93.567,368.301z"/>
	<path fill-rule="evenodd" clip-rule="evenodd" d="M337.779,457.571c-1.483,0.955-2.371,1.963-2.978,1.814
		c-0.899-0.219-1.6-1.257-2.384-1.946c0.715-0.735,1.388-1.996,2.156-2.06C335.353,455.317,336.227,456.442,337.779,457.571z"/>
	<path fill-rule="evenodd" clip-rule="evenodd" d="M345.996,464.961c-1.063-1.461-2.149-2.307-2.047-2.969
		c0.14-0.901,1.186-1.661,1.844-2.482c0.78,0.713,2.058,1.342,2.195,2.162C348.115,462.425,347.014,463.385,345.996,464.961z"/>
	<path fill-rule="evenodd" clip-rule="evenodd" d="M55.073,362.124c-1.439,0.851-2.409,1.857-2.997,1.669
		c-0.866-0.276-1.879-1.339-2.017-2.197c-0.089-0.554,1.335-1.938,1.978-1.875C52.896,359.804,53.655,360.927,55.073,362.124z"/>
	<path fill-rule="evenodd" clip-rule="evenodd" d="M87.875,430.908c0.971,1.516,1.953,2.396,1.966,3.293
		c0.01,0.636-1.491,1.943-1.957,1.798c-0.865-0.271-1.885-1.309-2.041-2.171C85.725,433.176,86.851,432.298,87.875,430.908z"/>
	<path fill-rule="evenodd" clip-rule="evenodd" d="M90.536,66.137c-1.583,1.02-2.546,2.117-3.261,1.974
		c-0.813-0.163-1.754-1.357-1.95-2.254c-0.104-0.476,1.259-1.8,1.943-1.789C88.124,64.083,88.963,65.077,90.536,66.137z"/>
	<path fill-rule="evenodd" clip-rule="evenodd" d="M224.526,4.414c0.877,1.363,1.854,2.208,1.767,2.925
		c-0.096,0.805-1.154,1.493-1.793,2.232c-0.786-0.686-2.146-1.328-2.202-2.069C222.239,6.721,223.425,5.846,224.526,4.414z"/>
	<path fill-rule="evenodd" clip-rule="evenodd" d="M413.422,64.504c0.991,1.701,1.922,2.603,1.891,3.471
		c-0.023,0.66-1.307,1.815-1.962,1.771c-0.741-0.05-1.96-1.191-1.968-1.867C411.374,67.013,412.368,66.138,413.422,64.504z"/>
	<path fill-rule="evenodd" clip-rule="evenodd" d="M129.497,157.311c-1.361,1.048-2.286,2.254-2.904,2.113
		c-0.818-0.187-1.768-1.356-1.934-2.24c-0.096-0.512,1.195-1.759,1.934-1.82C127.313,155.303,128.124,156.331,129.497,157.311z"/>
	<path fill-rule="evenodd" clip-rule="evenodd" d="M478.897,164.892c-1.299,1.066-2.267,2.307-2.723,2.142
		c-0.96-0.349-1.652-1.436-2.455-2.22c0.797-0.658,1.53-1.698,2.412-1.845C476.771,162.862,477.606,163.942,478.897,164.892z"/>
	<path fill-rule="evenodd" clip-rule="evenodd" d="M300.247,23.496c-1.563,0.915-2.497,1.894-3.141,1.731
		c-0.856-0.217-1.487-1.325-2.215-2.05c0.718-0.69,1.441-1.934,2.152-1.927C297.883,21.259,298.711,22.349,300.247,23.496z"/>
	<path fill-rule="evenodd" clip-rule="evenodd" d="M19.431,175.213c0.987,1.47,2.064,2.388,1.918,3.025
		c-0.201,0.879-1.326,1.546-2.055,2.303c-0.681-0.694-1.898-1.384-1.903-2.083C17.384,177.608,18.399,176.751,19.431,175.213z"/>
	<path fill-rule="evenodd" clip-rule="evenodd" d="M425.486,134.15c-1.305,0.91-2.194,2-2.862,1.878
		c-0.827-0.152-1.471-1.308-2.193-2.03c0.766-0.699,1.465-1.828,2.318-1.958C423.391,131.941,424.228,133.123,425.486,134.15z"/>
	<path fill-rule="evenodd" clip-rule="evenodd" d="M44.692,355.156c-1.369,1.015-2.244,2.143-2.885,2.021
		c-0.864-0.162-1.946-1.185-2.161-2.033c-0.132-0.521,1.165-1.967,1.852-1.988C42.336,353.13,43.208,354.162,44.692,355.156z"/>
	<path fill-rule="evenodd" clip-rule="evenodd" d="M23.611,169.738c-0.978-1.493-1.993-2.36-1.883-3.051
		c0.129-0.819,1.158-1.963,1.924-2.071c0.635-0.089,2.059,1.132,2.045,1.75C25.677,167.258,24.675,168.129,23.611,169.738z"/>
	<path fill-rule="evenodd" clip-rule="evenodd" d="M408.661,253.588c-1.003-1.301-2.022-2.101-2.182-3.045
		c-0.081-0.48,1.482-1.807,2.131-1.702c0.876,0.143,2.015,1.193,2.221,2.05C410.97,251.467,409.684,252.384,408.661,253.588z"/>
	<path fill-rule="evenodd" clip-rule="evenodd" d="M55.085,138.972c-1.445,0.854-2.362,1.82-3.146,1.722
		c-0.616-0.077-1.636-1.638-1.458-2.236c0.255-0.857,1.352-1.721,2.268-2C53.128,136.342,53.966,137.726,55.085,138.972z"/>
	<path fill-rule="evenodd" clip-rule="evenodd" d="M31.458,159.367c-1.128-1.328-2.306-2.124-2.227-2.765
		c0.109-0.887,1.166-1.658,1.816-2.479c0.727,0.706,1.856,1.317,2.053,2.148C33.26,156.945,32.297,157.883,31.458,159.367z"/>
	<path fill-rule="evenodd" clip-rule="evenodd" d="M376.915,158.195c-1.45,1.014-2.304,2.062-2.925,1.938
		c-0.9-0.178-1.634-1.202-2.438-1.866c0.778-0.725,1.464-1.815,2.368-2.045C374.514,156.07,375.424,157.16,376.915,158.195z"/>
	<path fill-rule="evenodd" clip-rule="evenodd" d="M375.096,38.327c-1.47,1.104-2.267,2.117-3.182,2.241
		c-0.602,0.081-1.376-1.124-2.073-1.752c0.76-0.706,1.421-1.728,2.313-2.005C372.734,36.63,373.651,37.535,375.096,38.327z"/>
	<path fill-rule="evenodd" clip-rule="evenodd" d="M444.022,138.532c1.582-0.835,2.483-1.636,3.426-1.686
		c0.555-0.03,1.781,1.412,1.647,1.705c-0.412,0.897-1.255,2.017-2.088,2.166C446.351,140.834,445.46,139.644,444.022,138.532z"/>
	<path fill-rule="evenodd" clip-rule="evenodd" d="M189.966,425.292c1.248-1.016,2.139-2.218,2.681-2.076
		c0.874,0.228,1.921,1.25,2.112,2.111c0.127,0.569-1.136,2.058-1.735,2.034C192.165,427.329,191.344,426.293,189.966,425.292z"/>
	<path fill-rule="evenodd" clip-rule="evenodd" d="M250.932,5.642c-1.001-1.208-2.191-2.06-2.069-2.635
		c0.183-0.865,1.283-1.536,1.993-2.29c0.711,0.799,1.689,1.506,2.013,2.439C253.018,3.588,251.891,4.462,250.932,5.642z"/>
	<path fill-rule="evenodd" clip-rule="evenodd" d="M78.744,86.812c0.95,1.517,1.96,2.423,1.89,3.236
		c-0.06,0.683-1.508,1.864-2.103,1.733c-0.804-0.176-1.785-1.332-1.919-2.188C76.514,88.968,77.662,88.149,78.744,86.812z"/>
	<path fill-rule="evenodd" clip-rule="evenodd" d="M41.549,149.451c-1.124-1.312-2.368-2.155-2.272-2.801
		c0.125-0.848,1.305-1.541,2.031-2.3c0.664,0.691,1.767,1.325,1.866,2.089C43.271,147.188,42.347,148.07,41.549,149.451z"/>
	<path fill-rule="evenodd" clip-rule="evenodd" d="M206.398,21.823c-1.227,1.064-2.096,2.321-2.669,2.198
		c-0.865-0.186-1.525-1.333-2.271-2.071c0.69-0.677,1.323-1.804,2.086-1.899C204.257,19.96,205.106,20.966,206.398,21.823z"/>
	<path fill-rule="evenodd" clip-rule="evenodd" d="M67.692,366.685c-1.561,0.985-2.397,1.885-3.29,1.944
		c-0.589,0.038-1.896-1.363-1.768-1.716c0.335-0.922,1.163-2.004,2.026-2.271C65.22,364.469,66.188,365.617,67.692,366.685z"/>
	<path fill-rule="evenodd" clip-rule="evenodd" d="M412.664,431.379c0.849,1.469,1.771,2.348,1.655,3.057
		c-0.129,0.786-1.207,1.416-1.871,2.114c-0.732-0.796-1.821-1.5-2.062-2.424C410.251,433.601,411.504,432.716,412.664,431.379z"/>
	<path fill-rule="evenodd" clip-rule="evenodd" d="M407.531,444.059c-1.422,1.137-2.203,2.227-3.056,2.285
		c-0.606,0.041-1.821-1.309-1.82-2.036c0.002-0.714,1.115-1.856,1.895-2.005C405.226,442.173,406.117,443.171,407.531,444.059z"/>
	<path fill-rule="evenodd" clip-rule="evenodd" d="M153.949,36.071c1.072,1.248,2.209,1.994,2.189,2.706
		c-0.022,0.755-1.146,1.478-1.788,2.214c-0.782-0.688-1.93-1.255-2.213-2.108C151.957,38.341,153.063,37.372,153.949,36.071z"/>
	<path fill-rule="evenodd" clip-rule="evenodd" d="M482.891,207.765c-0.99-1.336-2.157-2.302-1.983-2.811
		c0.297-0.873,1.353-1.826,2.247-2.021c0.489-0.106,1.777,1.243,1.829,1.996C485.033,205.64,483.937,206.432,482.891,207.765z"/>
	<path fill-rule="evenodd" clip-rule="evenodd" d="M75.26,409.822c1.447-0.94,2.42-1.986,2.9-1.794
		c0.85,0.339,1.837,1.384,1.926,2.222c0.063,0.599-1.252,1.877-1.951,1.876C77.381,412.125,76.628,410.988,75.26,409.822z"/>
	<path fill-rule="evenodd" clip-rule="evenodd" d="M32.236,265.572c-0.869-1.164-1.923-1.988-1.794-2.537
		c0.209-0.894,1.189-1.607,1.845-2.396c0.763,0.683,2.122,1.356,2.132,2.05C34.43,263.492,33.256,264.314,32.236,265.572z"/>
	<path fill-rule="evenodd" clip-rule="evenodd" d="M80.855,111.457c0.958,1.418,2.038,2.326,1.91,3.008
		c-0.15,0.802-1.347,1.409-2.089,2.1c-0.663-0.723-1.802-1.415-1.852-2.178C78.774,113.645,79.842,112.829,80.855,111.457z"/>
	<path fill-rule="evenodd" clip-rule="evenodd" d="M154.403,464.731c-0.945-1.499-1.86-2.317-1.849-3.122
		c0.01-0.706,1.06-1.397,1.65-2.096c0.759,0.648,2.059,1.241,2.132,1.96C156.418,462.272,155.384,463.187,154.403,464.731z"/>
	<path fill-rule="evenodd" clip-rule="evenodd" d="M438.317,134.457c-1.154,0.961-1.913,2.08-2.623,2.05
		c-0.73-0.031-1.413-1.183-2.117-1.844c0.768-0.737,1.435-1.729,2.352-2.092C436.321,132.414,437.232,133.563,438.317,134.457z"/>
	<path fill-rule="evenodd" clip-rule="evenodd" d="M439.374,366.801c-1.325,0.957-2.277,2.015-2.648,1.84
		c-0.875-0.413-1.757-1.317-2.06-2.217c-0.145-0.429,1.2-1.944,1.564-1.846C437.169,364.834,437.938,365.716,439.374,366.801z"/>
	<path fill-rule="evenodd" clip-rule="evenodd" d="M202.515,95.364c-1.188,1.058-2.029,2.294-2.566,2.174
		c-0.871-0.195-1.9-1.174-2.155-2.032c-0.14-0.471,1.106-1.852,1.838-1.943C200.352,93.472,201.211,94.493,202.515,95.364z"/>
	<path fill-rule="evenodd" clip-rule="evenodd" d="M227.581,492.126c-1.472,1.072-2.325,2.148-2.926,2.021
		c-0.856-0.179-1.771-1.13-2.155-1.979c-0.153-0.339,1.052-1.838,1.628-1.831C225.02,490.347,225.902,491.194,227.581,492.126z"/>
	<path fill-rule="evenodd" clip-rule="evenodd" d="M35.081,237.051c-1.544,0.928-2.43,1.889-3.164,1.784
		c-0.756-0.108-1.364-1.255-2.036-1.947c0.726-0.677,1.402-1.807,2.193-1.896C32.78,234.914,33.615,235.987,35.081,237.051z"/>
	<path fill-rule="evenodd" clip-rule="evenodd" d="M144.566,36.604c-1.352,0.969-2.146,1.983-2.893,1.95
		c-0.762-0.035-1.478-1.1-2.214-1.713c0.708-0.749,1.32-1.922,2.154-2.11C142.259,34.583,143.182,35.67,144.566,36.604z"/>
	<path fill-rule="evenodd" clip-rule="evenodd" d="M300.437,99.471c-0.87-1.467-1.725-2.26-1.639-2.934
		c0.101-0.796,1.013-1.49,1.574-2.229c0.704,0.624,1.967,1.237,1.979,1.874C302.365,97.033,301.413,97.902,300.437,99.471z"/>
	<path fill-rule="evenodd" clip-rule="evenodd" d="M483.396,188.334c0.99,1.289,2.053,2.097,1.933,2.65
		c-0.18,0.833-1.187,1.488-1.842,2.218c-0.713-0.677-1.851-1.271-2.003-2.057C481.362,190.518,482.441,189.658,483.396,188.334z"/>
	<path fill-rule="evenodd" clip-rule="evenodd" d="M467.614,235.301c1.04,1.333,2.148,2.141,2.094,2.862
		c-0.051,0.683-1.291,1.717-2.065,1.771c-0.661,0.046-1.947-1.059-1.972-1.692C465.642,237.474,466.648,236.667,467.614,235.301z"/>
	<path fill-rule="evenodd" clip-rule="evenodd" d="M421.754,423.571c-1.325,1.022-2.11,2.096-2.868,2.077
		c-0.725-0.018-1.422-1.171-2.132-1.825c0.67-0.718,1.265-1.891,2.034-2.02C419.49,421.686,420.383,422.699,421.754,423.571z"/>
	<path fill-rule="evenodd" clip-rule="evenodd" d="M145.274,463.071c-1.506,0.881-2.451,1.869-3.123,1.71
		c-0.737-0.176-1.592-1.365-1.69-2.196c-0.068-0.57,1.238-1.913,1.632-1.808C143.035,461.032,143.8,461.938,145.274,463.071z"/>
	<path fill-rule="evenodd" clip-rule="evenodd" d="M85.564,373.166c0.887,1.641,1.717,2.524,1.721,3.412
		c0.002,0.602-1.156,1.208-1.796,1.813c-0.653-0.806-1.603-1.531-1.846-2.446C83.505,375.426,84.526,374.599,85.564,373.166z"/>
	<path fill-rule="evenodd" clip-rule="evenodd" d="M120.729,458.275c-1.24,0.983-2.02,2.05-2.587,1.947
		c-0.841-0.153-1.531-1.135-2.285-1.764c0.644-0.716,1.222-1.912,1.95-2.012C118.517,456.351,119.38,457.375,120.729,458.275z"/>
	<path fill-rule="evenodd" clip-rule="evenodd" d="M423.372,364.749c0.485,0.914,1.34,1.832,1.326,2.737
		c-0.011,0.614-1.24,1.209-1.925,1.813c-0.604-0.739-1.619-1.439-1.693-2.229c-0.069-0.743,0.854-1.579,1.34-2.374
		C422.737,364.715,423.055,364.731,423.372,364.749z"/>
	<path fill-rule="evenodd" clip-rule="evenodd" d="M279.915,8.017c-1.5,0.791-2.455,1.715-3.203,1.571
		c-0.745-0.145-1.282-1.361-1.91-2.108c0.743-0.571,1.518-1.63,2.221-1.584C277.833,5.948,278.581,6.976,279.915,8.017z"/>
	<path fill-rule="evenodd" clip-rule="evenodd" d="M81.219,134.103c-1.569,0.833-2.446,1.681-3.225,1.599
		c-0.698-0.073-1.289-1.171-1.926-1.816c0.708-0.675,1.377-1.824,2.136-1.887C78.927,131.938,79.745,133.012,81.219,134.103z"/>
	<path fill-rule="evenodd" clip-rule="evenodd" d="M407.768,57.293c-1.361,0.943-2.164,1.918-2.733,1.797
		c-0.912-0.194-1.671-1.114-2.495-1.727c0.699-0.671,1.346-1.793,2.112-1.883C405.398,55.394,406.269,56.363,407.768,57.293z"/>
	<path fill-rule="evenodd" clip-rule="evenodd" d="M303.997,31.435c0.974,1.19,2.108,1.978,2.088,2.734
		c-0.018,0.678-1.317,1.845-2.033,1.831c-0.691-0.014-1.744-1.181-1.908-1.989C302.025,33.429,303.106,32.604,303.997,31.435z"/>
	<path fill-rule="evenodd" clip-rule="evenodd" d="M128.333,40.307c-0.912-1.335-1.923-2.17-1.824-2.842
		c0.11-0.749,1.266-1.912,1.9-1.87c0.78,0.051,1.998,1.102,2.082,1.83C130.569,38.112,129.422,38.938,128.333,40.307z"/>
	<path fill-rule="evenodd" clip-rule="evenodd" d="M359.792,34.013c0.986,1.521,2.067,2.514,1.875,3.044
		c-0.3,0.825-1.396,1.543-2.307,1.854c-0.288,0.098-1.515-1.259-1.507-1.942C357.861,36.208,358.786,35.458,359.792,34.013z"/>
	<path fill-rule="evenodd" clip-rule="evenodd" d="M346.789,41.305c-0.986-1.456-2.009-2.305-1.901-2.975
		c0.133-0.833,1.198-1.517,1.861-2.265c0.695,0.649,1.931,1.282,1.951,1.951C348.726,38.862,347.763,39.739,346.789,41.305z"/>
	<path fill-rule="evenodd" clip-rule="evenodd" d="M117.184,45.424c-0.972-1.585-2.003-2.542-1.833-3.172
		c0.214-0.791,1.342-1.589,2.225-1.821c0.371-0.098,1.583,1.245,1.579,1.928C119.149,43.139,118.215,43.913,117.184,45.424z"/>
	<path fill-rule="evenodd" clip-rule="evenodd" d="M165.599,40.096c0.993,1.512,1.99,2.367,1.894,3.074
		c-0.094,0.691-1.253,1.612-2.038,1.712c-0.599,0.076-1.965-1.076-1.894-1.495C163.718,42.461,164.567,41.653,165.599,40.096z"/>
	<path fill-rule="evenodd" clip-rule="evenodd" d="M397.878,452.065c-1.429,1.002-2.226,1.993-3.011,1.983
		c-0.729-0.009-1.446-1.085-2.168-1.691c0.672-0.718,1.269-1.896,2.037-2.021C395.472,450.216,396.387,451.188,397.878,452.065z"/>
	<path fill-rule="evenodd" clip-rule="evenodd" d="M448.528,358.06c1.08,1.325,2.301,2.244,2.148,2.765
		c-0.256,0.881-1.378,1.511-2.137,2.246c-0.663-0.694-1.765-1.333-1.86-2.098C446.592,360.275,447.596,359.44,448.528,358.06z"/>
	<path fill-rule="evenodd" clip-rule="evenodd" d="M237.486,6.811c-0.967-1.599-1.893-2.448-1.834-3.224
		c0.056-0.75,1.125-1.424,1.75-2.132c0.683,0.718,1.786,1.366,1.919,2.174C239.438,4.334,238.46,5.221,237.486,6.811z"/>
	<path fill-rule="evenodd" clip-rule="evenodd" d="M196.16,469.797c-0.826-1.464-1.775-2.421-1.582-2.982
		c0.263-0.76,1.458-1.733,2.15-1.659c0.709,0.076,1.728,1.271,1.794,2.044C198.574,467.809,197.382,468.522,196.16,469.797z"/>
	<path fill-rule="evenodd" clip-rule="evenodd" d="M295.119,476.271c0.955,1.316,2.009,2.176,1.861,2.696
		c-0.248,0.879-1.153,1.74-2.004,2.184c-0.272,0.142-1.832-1.132-1.771-1.634C293.317,478.585,294.188,477.745,295.119,476.271z"/>
	<path fill-rule="evenodd" clip-rule="evenodd" d="M463.019,353.972c-1.466,0.889-2.376,1.856-3.259,1.832
		c-0.62-0.016-1.203-1.384-1.803-2.148c0.793-0.572,1.551-1.513,2.393-1.597C460.996,351.994,461.75,353.01,463.019,353.972z"/>
	<path fill-rule="evenodd" clip-rule="evenodd" d="M236.814,494.378c0.522,0.875,1.475,1.771,1.435,2.619
		c-0.033,0.693-1.25,1.331-1.941,1.993c-0.647-0.746-1.686-1.428-1.821-2.257c-0.113-0.693,0.833-1.558,1.31-2.347
		C236.136,494.384,236.475,494.381,236.814,494.378z"/>
	<path fill-rule="evenodd" clip-rule="evenodd" d="M248.971,494.459c0.952,1.535,1.793,2.318,1.835,3.143
		c0.034,0.678-0.878,1.404-1.371,2.109c-0.79-0.668-1.977-1.213-2.239-2.048C247.005,497.053,248.03,496.062,248.971,494.459z"/>
	<path fill-rule="evenodd" clip-rule="evenodd" d="M303.122,471.444c-1.081-1.617-2.032-2.454-2.086-3.344
		c-0.031-0.526,1.323-1.515,2.115-1.582c0.549-0.047,1.659,1.102,1.689,1.755C304.877,469.054,304.029,469.875,303.122,471.444z"/>
	<path fill-rule="evenodd" clip-rule="evenodd" d="M423.055,89.269c0.885,1.353,1.823,2.178,1.679,2.704
		c-0.246,0.891-1.176,1.593-1.818,2.375c-0.658-0.697-1.773-1.353-1.843-2.104C421.007,91.528,422.033,90.712,423.055,89.269z"/>
	<path fill-rule="evenodd" clip-rule="evenodd" d="M476.609,330.372c1.041,1.268,2.155,2.101,2.019,2.568
		c-0.271,0.93-1.232,1.657-1.908,2.468c-0.668-0.685-1.784-1.313-1.876-2.067C474.756,332.615,475.728,331.762,476.609,330.372z"/>
	<path fill-rule="evenodd" clip-rule="evenodd" d="M386.103,458.737c-0.843,0.429-1.766,1.293-2.506,1.159
		c-0.704-0.128-1.22-1.301-1.817-2.014c0.672-0.54,1.354-1.524,2.012-1.508c0.801,0.02,1.581,0.882,2.37,1.38
		C386.142,458.082,386.122,458.41,386.103,458.737z"/>
	<path fill-rule="evenodd" clip-rule="evenodd" d="M27.649,227.096c-1.331,1.043-2.095,2.105-2.863,2.108
		c-0.702,0.003-1.409-1.14-2.113-1.777c0.638-0.704,1.202-1.863,1.935-1.982C25.329,225.329,26.221,226.267,27.649,227.096z"/>
	<path fill-rule="evenodd" clip-rule="evenodd" d="M96.681,441.816c0.503,0.804,1.491,1.685,1.378,2.389
		c-0.121,0.753-1.279,1.339-1.984,1.999c-0.596-0.661-1.63-1.297-1.671-1.991c-0.046-0.772,0.811-1.599,1.275-2.402
		C96.012,441.813,96.347,441.815,96.681,441.816z"/>
	<path fill-rule="evenodd" clip-rule="evenodd" d="M45.141,255.917c-1.395,0.93-2.177,1.844-2.984,1.866
		c-0.661,0.019-1.352-1.024-2.03-1.597c0.745-0.722,1.387-1.744,2.273-2.046C42.895,253.972,43.797,255.002,45.141,255.917z"/>
	<path fill-rule="evenodd" clip-rule="evenodd" d="M129.773,459.677c0.529,0.789,1.518,1.616,1.457,2.357
		c-0.063,0.764-1.149,1.442-1.788,2.158c-0.637-0.694-1.658-1.319-1.798-2.102c-0.127-0.712,0.705-1.594,1.113-2.401
		C129.096,459.686,129.435,459.681,129.773,459.677z"/>
	<path fill-rule="evenodd" clip-rule="evenodd" d="M81.334,367.323c-1.551,0.974-2.336,1.832-3.141,1.85
		c-0.576,0.013-1.752-1.244-1.644-1.682c0.214-0.863,1.024-1.966,1.801-2.174C78.927,365.163,79.84,366.264,81.334,367.323z"/>
	<path fill-rule="evenodd" clip-rule="evenodd" d="M285.93,484.239c0.94,1.452,1.901,2.28,1.831,3.008
		c-0.074,0.763-1.138,1.431-1.769,2.14c-0.657-0.682-1.76-1.313-1.845-2.061C284.063,486.589,285.01,485.734,285.93,484.239z"/>
	<path fill-rule="evenodd" clip-rule="evenodd" d="M261.818,500c-0.451-0.81-1.27-1.629-1.247-2.425
		c0.02-0.705,0.975-1.384,1.516-2.073c0.718,0.68,1.851,1.269,2.026,2.067c0.15,0.683-0.797,1.607-1.259,2.425
		C262.509,499.996,262.164,499.998,261.818,500z"/>
	<path fill-rule="evenodd" clip-rule="evenodd" d="M108.851,48.492c-1.29,0.872-2.181,1.881-2.674,1.714
		c-0.803-0.272-1.822-1.291-1.856-2.034c-0.029-0.639,1.19-1.857,1.864-1.862C106.903,46.306,107.628,47.425,108.851,48.492z"/>
	<path fill-rule="evenodd" clip-rule="evenodd" d="M371.11,465.491c-0.835-1.357-1.785-2.237-1.623-2.794
		c0.238-0.819,1.271-1.407,1.964-2.094c0.642,0.696,1.782,1.389,1.789,2.091C373.247,463.434,372.17,464.184,371.11,465.491z"/>
	<path fill-rule="evenodd" clip-rule="evenodd" d="M383.9,40.063c1.011,1.349,2.076,2.155,2.01,2.854
		c-0.068,0.716-1.228,1.82-1.939,1.844c-0.691,0.023-1.919-1.056-1.995-1.751C381.896,42.295,382.927,41.459,383.9,40.063z"/>
	<path fill-rule="evenodd" clip-rule="evenodd" d="M425.2,411.094c-1.59,0.873-2.463,1.74-3.244,1.665
		c-0.687-0.066-1.874-1.32-1.765-1.812c0.172-0.78,1.208-1.842,1.939-1.893C422.876,409.003,423.695,410.031,425.2,411.094z"/>
	<path fill-rule="evenodd" clip-rule="evenodd" d="M109.587,452.942c-1.411,0.856-2.392,1.845-2.846,1.644
		c-0.857-0.38-1.41-1.444-2.088-2.224c0.696-0.527,1.435-1.521,2.078-1.462C107.525,450.974,108.24,451.919,109.587,452.942z"/>
	<path fill-rule="evenodd" clip-rule="evenodd" d="M192.038,452.646c0.472,0.801,1.332,1.62,1.298,2.399
		c-0.029,0.667-1.242,1.906-1.65,1.801c-0.821-0.211-1.898-1.09-2.026-1.838c-0.119-0.691,0.864-1.571,1.361-2.369
		C191.36,452.642,191.699,452.645,192.038,452.646z"/>
	<path fill-rule="evenodd" clip-rule="evenodd" d="M361.058,463.66c-0.782,0.435-1.601,1.257-2.337,1.189
		c-0.666-0.063-1.841-1.261-1.729-1.668c0.223-0.813,1.092-1.849,1.847-1.993c0.634-0.121,1.484,0.892,2.239,1.402
		C361.07,462.947,361.064,463.304,361.058,463.66z"/>
	<path fill-rule="evenodd" clip-rule="evenodd" d="M277.392,493.776c-1.542,0.761-2.429,1.564-3.187,1.458
		c-0.651-0.091-1.157-1.223-1.728-1.894c0.752-0.597,1.454-1.555,2.272-1.666C275.329,491.596,276.063,492.664,277.392,493.776z"/>
	<path fill-rule="evenodd" clip-rule="evenodd" d="M478.273,227.548c-1.531,1.113-2.277,2.07-3.049,2.091
		c-0.679,0.019-1.386-1.008-2.081-1.574c0.61-0.739,1.11-1.894,1.863-2.092C475.67,225.799,476.615,226.694,478.273,227.548z"/>
	<path fill-rule="evenodd" clip-rule="evenodd" d="M16.887,187.679c0.959,1.434,1.962,2.294,1.82,2.872
		c-0.201,0.817-1.249,1.425-1.934,2.122c-0.58-0.637-1.62-1.272-1.622-1.911C15.148,189.961,15.998,189.158,16.887,187.679z"/>
	<path fill-rule="evenodd" clip-rule="evenodd" d="M481.065,180.286c-0.9-1.431-1.849-2.273-1.774-3.013
		c0.07-0.69,1.313-1.846,1.885-1.761c0.806,0.122,1.971,1.144,2.047,1.88C483.296,178.085,482.158,178.905,481.065,180.286z"/>
	<path fill-rule="evenodd" clip-rule="evenodd" d="M483.287,298.722c-0.849-1.124-1.967-2.02-1.813-2.536
		c0.241-0.812,1.323-1.856,2.082-1.884c0.663-0.023,1.928,1.233,1.911,1.899C485.448,296.94,484.278,297.65,483.287,298.722z"/>
	<path fill-rule="evenodd" clip-rule="evenodd" d="M16.299,294.423c1.04,1.299,2.156,2.208,1.998,2.594
		c-0.356,0.868-1.344,1.477-2.075,2.19c-0.607-0.636-1.673-1.252-1.7-1.912C14.491,296.558,15.402,295.781,16.299,294.423z"/>
	<path fill-rule="evenodd" clip-rule="evenodd" d="M16.681,307.749c1.012,1.268,2.085,2.033,2.012,2.665
		c-0.095,0.818-1.104,1.531-1.719,2.29c-0.634-0.597-1.751-1.169-1.782-1.795C15.15,310.069,15.95,309.188,16.681,307.749z"/>
	<path fill-rule="evenodd" clip-rule="evenodd" d="M22.919,322.967c-1.377,1.008-2.125,1.926-2.973,2.028
		c-0.465,0.057-1.511-1.248-1.533-1.962c-0.021-0.672,0.994-1.958,1.496-1.931C20.737,321.148,21.517,322.034,22.919,322.967z"/>
	<path fill-rule="evenodd" clip-rule="evenodd" d="M27.944,335.646c-1.627,0.787-2.516,1.576-3.314,1.493
		c-0.684-0.07-1.263-1.142-1.889-1.77c0.725-0.636,1.422-1.729,2.183-1.775C25.661,333.55,26.464,334.58,27.944,335.646z"/>
	<path fill-rule="evenodd" clip-rule="evenodd" d="M192.181,65.337c-1.426,0.95-2.341,1.937-2.756,1.758
		c-0.861-0.369-1.457-1.357-2.161-2.09c0.656-0.584,1.314-1.632,1.968-1.63C189.982,63.377,190.73,64.312,192.181,65.337z"/>
	<path fill-rule="evenodd" clip-rule="evenodd" d="M94.304,250.27c-1.297,1.038-2.093,2.098-2.58,1.971
		c-0.845-0.221-1.498-1.175-2.23-1.821c0.729-0.659,1.368-1.587,2.222-1.871C92.17,248.397,92.995,249.357,94.304,250.27z"/>
	<path fill-rule="evenodd" clip-rule="evenodd" d="M80.32,388.2c-0.418-0.791-1.197-1.605-1.147-2.366
		c0.044-0.683,1.094-1.896,1.534-1.826c0.815,0.13,2.082,0.994,2.114,1.608c0.044,0.836-0.893,1.723-1.409,2.589
		C81.049,388.203,80.685,388.201,80.32,388.2z"/>
	<path fill-rule="evenodd" clip-rule="evenodd" d="M80.061,398.258c-1.185,0.892-2.078,1.998-2.582,1.842
		c-0.811-0.25-1.366-1.332-2.029-2.063c0.733-0.624,1.41-1.624,2.217-1.743C78.235,396.21,78.981,397.322,80.061,398.258z"/>
	<path fill-rule="evenodd" clip-rule="evenodd" d="M313.278,436.02c-1.386,0.896-2.238,1.848-2.762,1.691
		c-0.786-0.233-1.646-1.157-1.871-1.958c-0.118-0.419,1.094-1.736,1.625-1.692C311.089,434.128,311.838,435.019,313.278,436.02z"/>
	<path fill-rule="evenodd" clip-rule="evenodd" d="M287.661,11.959c1.08,1.347,2.04,2.049,2.163,2.874
		c0.082,0.552-1.142,1.881-1.58,1.799c-0.791-0.148-1.787-0.986-2.021-1.745C286.044,14.306,286.905,13.403,287.661,11.959z"/>
	<path fill-rule="evenodd" clip-rule="evenodd" d="M99.241,56.387c-1.527,0.818-2.423,1.683-2.98,1.503
		c-0.779-0.252-1.305-1.286-1.939-1.985c0.641-0.58,1.331-1.672,1.913-1.618C97.043,54.363,97.772,55.298,99.241,56.387z"/>
	<path fill-rule="evenodd" clip-rule="evenodd" d="M394.637,51.625c-0.885-1.227-1.926-2.071-1.789-2.625
		c0.193-0.778,1.229-1.803,1.963-1.854c0.624-0.042,1.877,1.155,1.864,1.784C396.66,49.691,395.604,50.43,394.637,51.625z"/>
	<path fill-rule="evenodd" clip-rule="evenodd" d="M216.796,486.162c-1.631,0.924-2.474,1.784-3.242,1.723
		c-0.684-0.056-1.914-1.324-1.793-1.719c0.257-0.844,1.154-1.909,1.937-2.047C214.358,484.002,215.227,485.066,216.796,486.162z"/>
	<path fill-rule="evenodd" clip-rule="evenodd" d="M111.159,355.6c-1.291,0.867-2.184,1.822-2.561,1.649
		c-0.894-0.408-1.543-1.352-2.292-2.079c0.573-0.569,1.286-1.697,1.692-1.596C108.946,353.811,109.748,354.637,111.159,355.6z"/>
	<path fill-rule="evenodd" clip-rule="evenodd" d="M80.949,102.631c-1.586,0.788-2.471,1.595-3.243,1.499
		c-0.667-0.083-1.205-1.194-1.8-1.851c0.706-0.636,1.39-1.74,2.125-1.775C78.749,100.469,79.519,101.526,80.949,102.631z"/>
	<path fill-rule="evenodd" clip-rule="evenodd" d="M207.405,477.839c-1.331,0.919-2.122,1.878-2.69,1.76
		c-0.807-0.168-1.449-1.128-2.162-1.75c0.632-0.693,1.217-1.877,1.909-1.943C205.177,475.837,205.997,476.854,207.405,477.839z"/>
	<path fill-rule="evenodd" clip-rule="evenodd" d="M418.928,388.093c-0.446-0.694-1.346-1.481-1.228-2.059
		c0.164-0.794,0.992-1.772,1.743-2.006c0.467-0.146,1.895,0.968,1.869,1.464c-0.045,0.892-0.86,1.744-1.353,2.613
		C419.616,388.101,419.271,388.097,418.928,388.093z"/>
	<path fill-rule="evenodd" clip-rule="evenodd" d="M168.711,457.229c-1.511,0.833-2.368,1.686-3.132,1.609
		c-0.643-0.064-1.178-1.209-1.76-1.876c0.729-0.627,1.394-1.607,2.212-1.759C166.588,455.101,167.36,456.155,168.711,457.229z"/>
	<path fill-rule="evenodd" clip-rule="evenodd" d="M102.761,361.556c-1.162,0.873-1.904,1.824-2.389,1.707
		c-0.814-0.196-1.803-0.957-2.057-1.705c-0.152-0.446,1.027-1.926,1.484-1.873C100.662,359.785,101.435,360.656,102.761,361.556z"/>
	<path fill-rule="evenodd" clip-rule="evenodd" d="M425.158,398.649c-1.479,0.823-2.4,1.731-2.956,1.547
		c-0.737-0.246-1.448-1.283-1.648-2.107c-0.091-0.377,1.168-1.578,1.633-1.486C423.038,396.771,423.755,397.622,425.158,398.649z"/>
	<path fill-rule="evenodd" clip-rule="evenodd" d="M22.264,215.944c-1.457,0.897-2.309,1.83-2.901,1.687
		c-0.798-0.193-1.396-1.215-2.08-1.88c0.663-0.615,1.313-1.703,1.99-1.72C20.034,214.013,20.819,214.96,22.264,215.944z"/>
	<path fill-rule="evenodd" clip-rule="evenodd" d="M469.119,341.885c1.049,1.407,1.819,2.192,2.199,3.134
		c0.089,0.222-1.265,1.487-1.729,1.371c-0.855-0.213-1.856-0.967-2.18-1.749C467.222,344.187,468.237,343.236,469.119,341.885z"/>
	<path fill-rule="evenodd" clip-rule="evenodd" d="M318.867,62.348c-0.961-1.125-1.949-1.802-2.077-2.615
		c-0.075-0.474,1.307-1.711,1.892-1.627c0.831,0.12,1.532,1.141,2.289,1.777C320.391,60.562,319.812,61.241,318.867,62.348z"/>
	<path fill-rule="evenodd" clip-rule="evenodd" d="M175.408,51.663c-0.945-1.235-1.895-1.962-1.991-2.789
		c-0.061-0.524,1.261-1.768,1.768-1.671c0.826,0.158,1.849,1.037,2.097,1.828C177.438,49.53,176.336,50.424,175.408,51.663z"/>
	<path fill-rule="evenodd" clip-rule="evenodd" d="M312.291,76.258c-1.558,0.901-2.5,1.839-2.998,1.644
		c-0.785-0.308-1.434-1.312-1.778-2.167c-0.095-0.236,1.149-1.463,1.672-1.396C310.021,74.445,310.764,75.255,312.291,76.258z"/>
	<path fill-rule="evenodd" clip-rule="evenodd" d="M196.822,35.501c-0.966-1.264-1.954-2.104-1.803-2.449
		c0.363-0.835,1.177-1.582,1.992-2.037c0.201-0.112,1.604,1.065,1.562,1.576C198.506,33.404,197.689,34.154,196.822,35.501z"/>
	<path fill-rule="evenodd" clip-rule="evenodd" d="M377.108,344.214c-1.165,0.988-1.988,2.126-2.473,1.996
		c-0.801-0.213-1.383-1.244-2.056-1.931c0.634-0.599,1.22-1.594,1.917-1.68C375.14,342.521,375.902,343.419,377.108,344.214z"/>
	<path fill-rule="evenodd" clip-rule="evenodd" d="M34.441,346.668c-1.138,0.923-1.913,1.973-2.402,1.853
		c-0.812-0.197-1.44-1.147-2.146-1.781c0.67-0.697,1.24-1.7,2.052-1.97C32.388,344.622,33.244,345.716,34.441,346.668z"/>
	<path fill-rule="evenodd" clip-rule="evenodd" d="M126.25,341.098c0.877,1.501,1.646,2.286,1.706,3.122
		c0.035,0.489-1.276,1.611-1.61,1.482c-0.823-0.316-1.764-1.09-2.003-1.878C124.193,343.333,125.234,342.48,126.25,341.098z"/>
	<path fill-rule="evenodd" clip-rule="evenodd" d="M27.788,272.54c-1.415,0.816-2.259,1.699-2.88,1.563
		c-0.784-0.171-1.385-1.174-2.065-1.818c0.646-0.61,1.313-1.729,1.933-1.705C25.587,270.613,26.362,271.551,27.788,272.54z"/>
	<path fill-rule="evenodd" clip-rule="evenodd" d="M307.703,422.906c0.898,1.458,1.842,2.316,1.702,2.928
		c-0.186,0.808-1.218,1.422-1.886,2.119c-0.509-0.732-1.362-1.437-1.425-2.205C306.04,425.064,306.861,424.309,307.703,422.906z"/>
	<path fill-rule="evenodd" clip-rule="evenodd" d="M471.505,154.55c-1.393,0.869-2.155,1.726-2.81,1.649
		c-0.7-0.082-1.297-1.044-1.938-1.621c0.682-0.69,1.266-1.699,2.082-1.95C469.318,152.481,470.167,153.54,471.505,154.55z"/>
	<path fill-rule="evenodd" clip-rule="evenodd" d="M64.407,250.051c-1.544,0.725-2.428,1.508-3.025,1.329
		c-0.804-0.24-1.386-1.221-2.063-1.884c0.724-0.57,1.462-1.607,2.167-1.584C62.251,247.936,62.985,248.946,64.407,250.051z"/>
	<path fill-rule="evenodd" clip-rule="evenodd" d="M85.384,121.498c0.922,1.374,1.829,2.151,1.862,2.964
		c0.023,0.587-1.115,1.22-1.736,1.833c-0.675-0.687-1.711-1.287-1.901-2.088C83.474,123.639,84.482,122.799,85.384,121.498z"/>
	<path fill-rule="evenodd" clip-rule="evenodd" d="M191.71,47.429c-0.993-1.321-2.036-2.135-1.911-2.679
		c0.18-0.779,1.128-1.688,1.918-1.897c0.441-0.117,1.72,1.054,1.735,1.667C193.472,45.285,192.58,46.072,191.71,47.429z"/>
	<path fill-rule="evenodd" clip-rule="evenodd" d="M194.436,75.129c-1.141,0.877-1.955,1.884-2.366,1.74
		c-0.801-0.281-1.606-1.111-1.936-1.91c-0.139-0.334,1.044-1.735,1.423-1.658C192.425,73.478,193.168,74.267,194.436,75.129z"/>
	<path fill-rule="evenodd" clip-rule="evenodd" d="M267.153,3.601c-1.479,0.857-2.308,1.719-2.872,1.572
		c-0.79-0.208-1.384-1.167-2.063-1.804c0.636-0.636,1.265-1.772,1.907-1.78C264.887,1.58,265.658,2.544,267.153,3.601z"/>
	<path fill-rule="evenodd" clip-rule="evenodd" d="M19.799,204.26c-1.435,0.766-2.273,1.578-3.012,1.496
		c-0.63-0.069-1.738-1.419-1.593-1.762c0.342-0.808,1.228-1.693,2.045-1.878C17.737,202.003,18.516,203.134,19.799,204.26z"/>
	<path fill-rule="evenodd" clip-rule="evenodd" d="M192.67,435.291c-1.489,0.771-2.348,1.592-3.002,1.453
		c-0.703-0.149-1.714-1.233-1.673-1.85c0.044-0.673,1.195-1.834,1.764-1.776C190.569,433.199,191.29,434.193,192.67,435.291z"/>
	<path fill-rule="evenodd" clip-rule="evenodd" d="M310.753,456.329c-1.088,0.803-1.853,1.768-2.346,1.644
		c-0.864-0.217-1.562-1.1-2.329-1.704c0.594-0.667,1.261-1.932,1.766-1.87C308.719,454.505,309.495,455.433,310.753,456.329z"/>
	<path fill-rule="evenodd" clip-rule="evenodd" d="M191.902,56.036c-1.218,0.9-1.971,1.873-2.754,1.898
		c-0.589,0.02-1.218-1.177-1.83-1.832c0.735-0.647,1.385-1.538,2.242-1.836C189.96,54.127,190.759,55.134,191.902,56.036z"/>
	<path fill-rule="evenodd" clip-rule="evenodd" d="M414.344,379.483c-0.803-1.409-1.539-2.145-1.545-2.885
		c-0.005-0.611,0.854-1.229,1.33-1.845c0.729,0.647,1.779,1.183,2.063,1.987C416.359,377.216,415.309,378.119,414.344,379.483z"/>
	<path fill-rule="evenodd" clip-rule="evenodd" d="M199.869,407.41c-0.912-1.456-1.744-2.229-1.787-3.043
		c-0.031-0.577,1.006-1.21,1.566-1.818c0.737,0.688,1.761,1.264,2.092,2.111C201.913,405.1,200.86,406.018,199.869,407.41z"/>
	<path fill-rule="evenodd" clip-rule="evenodd" d="M299.922,402.483c0.924,1.599,1.78,2.438,1.749,3.242
		c-0.022,0.566-1.296,1.55-1.932,1.49c-0.604-0.056-1.464-1.188-1.539-1.916C298.133,404.658,298.993,403.919,299.922,402.483z"/>
	<path fill-rule="evenodd" clip-rule="evenodd" d="M64.744,137.701c-0.902-1.427-1.892-2.334-1.722-2.883
		c0.237-0.767,1.264-1.498,2.107-1.769c0.333-0.107,1.59,1.134,1.52,1.633C66.528,135.536,65.693,136.289,64.744,137.701z"/>
	<path fill-rule="evenodd" clip-rule="evenodd" d="M44.587,245.37c-1.451,0.771-2.289,1.47-3.194,1.574
		c-0.377,0.043-1.346-1.268-1.244-1.812c0.131-0.695,1.105-1.757,1.657-1.722C42.568,243.459,43.275,244.383,44.587,245.37z"/>
	<path fill-rule="evenodd" clip-rule="evenodd" d="M324.877,448.413c0.732,1.31,1.509,2.073,1.461,2.782
		c-0.051,0.745-0.889,1.438-1.384,2.153c-0.719-0.773-1.724-1.45-2.034-2.362C322.766,450.535,323.895,449.648,324.877,448.413z"/>
	<path fill-rule="evenodd" clip-rule="evenodd" d="M477.65,272.361c-1.119,0.838-2.047,1.868-2.367,1.705
		c-0.807-0.41-1.339-1.358-1.981-2.091c0.625-0.523,1.298-1.51,1.864-1.452C475.905,270.599,476.561,271.501,477.65,272.361z"/>
	<path fill-rule="evenodd" clip-rule="evenodd" d="M422.059,102.165c0.997,1.249,1.973,1.956,2.069,2.768
		c0.065,0.553-1.097,1.253-1.709,1.887c-0.668-0.711-1.576-1.33-1.902-2.174C420.354,104.228,421.257,103.396,422.059,102.165z"/>
	<path fill-rule="evenodd" clip-rule="evenodd" d="M484.605,321.766c-1.141,0.905-1.819,1.855-2.546,1.894
		c-0.627,0.032-1.865-1.005-1.837-1.513c0.045-0.784,0.915-2.109,1.48-2.134C482.494,319.979,483.326,320.933,484.605,321.766z"/>
	<path fill-rule="evenodd" clip-rule="evenodd" d="M422.136,116.708c-1.103,0.9-1.882,1.939-2.324,1.812
		c-0.811-0.233-1.559-1.075-2.021-1.848c-0.121-0.202,0.978-1.613,1.384-1.555C420.051,115.242,420.842,115.962,422.136,116.708z"/>
	<path fill-rule="evenodd" clip-rule="evenodd" d="M470.984,263.295c-1.361,0.802-2.221,1.704-2.808,1.552
		c-0.691-0.181-1.582-1.279-1.571-1.967c0.009-0.584,1.167-1.583,1.835-1.6C469.089,261.265,469.761,262.268,470.984,263.295z"/>
	<path fill-rule="evenodd" clip-rule="evenodd" d="M311.643,63.184c0.797,1.47,1.515,2.29,1.598,3.169
		c0.04,0.42-1.291,1.46-1.712,1.324c-0.756-0.243-1.729-1.122-1.795-1.813C309.671,65.219,310.669,64.471,311.643,63.184z"/>
	<path fill-rule="evenodd" clip-rule="evenodd" d="M458.254,252.977c0.836,1.289,1.771,2.104,1.661,2.73
		c-0.127,0.714-1.19,1.262-1.846,1.882c-0.589-0.645-1.615-1.271-1.645-1.938C456.395,254.963,457.34,254.233,458.254,252.977z"/>
	<path fill-rule="evenodd" clip-rule="evenodd" d="M326.894,49.199c-1.312,0.922-2.026,1.821-2.663,1.769
		c-0.75-0.061-1.432-0.946-2.143-1.474c0.641-0.688,1.183-1.73,1.956-1.947C324.605,47.391,325.472,48.327,326.894,49.199z"/>
	<path fill-rule="evenodd" clip-rule="evenodd" d="M117.429,352.705c-0.943-1.248-1.891-1.954-1.867-2.625
		c0.024-0.672,1.019-1.309,1.588-1.96c0.649,0.584,1.713,1.098,1.83,1.774C119.091,350.544,118.221,351.362,117.429,352.705z"/>
	<path fill-rule="evenodd" clip-rule="evenodd" d="M183.005,61.359c-1.333,0.773-2.098,1.567-2.793,1.51
		c-0.572-0.046-1.588-1.239-1.473-1.679c0.205-0.783,1.038-1.78,1.759-1.922C181.023,59.166,181.791,60.293,183.005,61.359z"/>
	<path fill-rule="evenodd" clip-rule="evenodd" d="M482.302,217.117c-0.816,0.446-1.623,1.207-2.452,1.232
		c-0.589,0.018-1.208-0.957-1.813-1.489c0.69-0.643,1.296-1.607,2.101-1.82c0.582-0.154,1.429,0.689,2.157,1.088
		C482.297,216.458,482.299,216.788,482.302,217.117z"/>
	<path fill-rule="evenodd" clip-rule="evenodd" d="M311.988,47.091c-1.313,0.76-2.161,1.643-2.786,1.506
		c-0.709-0.154-1.22-1.221-1.817-1.891c0.672-0.578,1.335-1.595,2.019-1.608C310.075,45.085,310.767,46.09,311.988,47.091z"/>
	<path fill-rule="evenodd" clip-rule="evenodd" d="M418.088,248c0.982,1.112,2.01,1.764,2.044,2.465
		c0.031,0.634-1.022,1.32-1.599,1.983c-0.634-0.612-1.594-1.134-1.795-1.863C416.587,250.036,417.41,249.219,418.088,248z"/>
	<path fill-rule="evenodd" clip-rule="evenodd" d="M382.985,154.619c-0.943-1.019-2.031-1.681-2.026-2.334
		c0.005-0.64,1.121-1.272,1.75-1.908c0.623,0.626,1.555,1.168,1.759,1.909C384.603,152.78,383.699,153.559,382.985,154.619z"/>
	<path fill-rule="evenodd" clip-rule="evenodd" d="M74.341,250.272c-1.242,0.761-1.981,1.556-2.717,1.553
		c-0.561-0.002-1.656-1.143-1.56-1.556c0.179-0.77,1.013-1.87,1.645-1.918C72.373,248.3,73.118,249.321,74.341,250.272z"/>
	<path fill-rule="evenodd" clip-rule="evenodd" d="M394.324,146.994c-1.124,0.73-1.849,1.542-2.61,1.58
		c-0.538,0.026-1.129-0.997-1.696-1.551c0.762-0.602,1.454-1.394,2.319-1.71C392.663,145.193,393.391,146.173,394.324,146.994z"/>
	<path fill-rule="evenodd" clip-rule="evenodd" d="M480.56,281.393c0.813,1.262,1.707,2.102,1.54,2.508
		c-0.309,0.75-1.236,1.248-1.906,1.851c-0.534-0.606-1.514-1.233-1.487-1.814C478.737,283.243,479.631,282.589,480.56,281.393z"/>
	<path fill-rule="evenodd" clip-rule="evenodd" d="M176.751,447.856c0.888,1.351,1.708,2.069,1.745,2.826
		c0.027,0.578-0.938,1.204-1.462,1.809c-0.586-0.63-1.489-1.187-1.656-1.913C175.246,450.004,176.018,449.222,176.751,447.856z"/>
	<path fill-rule="evenodd" clip-rule="evenodd" d="M313.454,56.758c-1.028,0.812-1.796,1.797-2.217,1.666
		c-0.716-0.224-1.572-1.09-1.687-1.796c-0.087-0.544,0.875-1.257,1.371-1.895C311.626,55.296,312.331,55.86,313.454,56.758z"/>
	<path fill-rule="evenodd" clip-rule="evenodd" d="M400.823,363.717c-0.973-1.188-1.864-1.82-1.971-2.565
		c-0.075-0.526,0.912-1.205,1.425-1.816c0.637,0.585,1.57,1.071,1.81,1.788C402.256,361.63,401.481,362.45,400.823,363.717z"/>
	<path fill-rule="evenodd" clip-rule="evenodd" d="M414.31,123.402c0.818,1.343,1.611,2.063,1.532,2.669
		c-0.089,0.691-0.957,1.282-1.487,1.916c-0.547-0.558-1.52-1.104-1.537-1.677C412.796,125.57,413.538,124.808,414.31,123.402z"/>
	<path fill-rule="evenodd" clip-rule="evenodd" d="M198.45,85.036c-1.328,0.836-2.019,1.548-2.798,1.666
		c-0.53,0.08-1.185-0.673-1.784-1.054c0.647-0.719,1.183-1.67,1.99-2.059C196.247,83.401,197.146,84.271,198.45,85.036z"/>
	<path fill-rule="evenodd" clip-rule="evenodd" d="M458.172,242.942c0.797,1.252,1.625,2.08,1.463,2.389
		c-0.44,0.838-1.3,1.456-1.993,2.16c-0.469-0.54-1.405-1.191-1.31-1.598C456.535,245.03,457.277,244.294,458.172,242.942z"/>
	<path fill-rule="evenodd" clip-rule="evenodd" d="M306.74,416.077c-1.317,0.821-2.087,1.67-2.61,1.539
		c-0.764-0.191-1.351-1.088-2.013-1.684c0.615-0.554,1.22-1.531,1.851-1.548C304.677,414.365,305.41,415.212,306.74,416.077z"/>
	<path fill-rule="evenodd" clip-rule="evenodd" d="M441.983,250.245c-1.429,0.839-2.192,1.631-2.94,1.615
		c-0.572-0.012-1.125-1.041-1.687-1.618c0.644-0.52,1.242-1.362,1.943-1.46C439.906,248.699,440.63,249.462,441.983,250.245z"/>
	<path fill-rule="evenodd" clip-rule="evenodd" d="M310.248,447.444c-0.803-1.102-1.72-1.813-1.646-2.4
		c0.089-0.7,1.026-1.293,1.596-1.933c0.514,0.595,1.396,1.163,1.438,1.791C311.683,445.563,310.928,446.28,310.248,447.444z"/>
	<path fill-rule="evenodd" clip-rule="evenodd" d="M383.096,352.638c-0.854-1.036-1.824-1.739-1.72-2.196
		c0.164-0.712,0.997-1.655,1.657-1.752c0.562-0.083,1.82,0.911,1.801,1.391C384.806,350.804,383.933,351.492,383.096,352.638z"/>
	<path fill-rule="evenodd" clip-rule="evenodd" d="M180.891,438.01c0.981,1.204,1.863,1.823,1.946,2.537
		c0.062,0.529-0.912,1.18-1.424,1.776c-0.58-0.626-1.368-1.172-1.659-1.913C179.592,440.001,180.262,439.265,180.891,438.01z"/>
	<path fill-rule="evenodd" clip-rule="evenodd" d="M198.406,415.466c-0.648,0.415-1.361,1.229-1.926,1.137
		c-0.61-0.099-1.616-1.209-1.5-1.589c0.223-0.732,1.04-1.631,1.749-1.773c0.72-0.145,1.607,0.539,2.421,0.86
		C198.902,414.556,198.654,415.011,198.406,415.466z"/>
	<path fill-rule="evenodd" clip-rule="evenodd" d="M189.566,446.744c-0.813-1.267-1.625-1.971-1.565-2.593
		c0.06-0.628,0.982-1.174,1.527-1.755c0.53,0.614,1.383,1.177,1.491,1.858C191.109,444.82,190.322,445.525,189.566,446.744z"/>
	<path fill-rule="evenodd" clip-rule="evenodd" d="M307.737,85.886c-1.134,0.712-1.849,1.515-2.443,1.435
		c-0.613-0.083-1.11-1.026-1.658-1.593c0.596-0.545,1.16-1.47,1.797-1.523C306.011,84.156,306.669,85.057,307.737,85.886z"/>
	<path fill-rule="evenodd" clip-rule="evenodd" d="M119.597,152.025c-1.217,0.746-1.967,1.563-2.508,1.442
		c-0.605-0.135-1.273-1.068-1.416-1.756c-0.071-0.35,0.978-1.329,1.476-1.299C117.81,150.453,118.425,151.204,119.597,152.025z"/>
	<path fill-rule="evenodd" clip-rule="evenodd" d="M81.756,247.908c0.856,1.068,1.782,1.73,1.709,2.254
		c-0.09,0.65-0.967,1.588-1.578,1.647c-0.528,0.051-1.523-0.888-1.633-1.509C80.157,249.754,81,249.04,81.756,247.908z"/>
	<path fill-rule="evenodd" clip-rule="evenodd" d="M400.509,143.946c-0.867-0.968-1.833-1.682-1.717-1.99
		c0.285-0.761,1.065-1.337,1.647-1.987c0.505,0.487,1.419,0.976,1.417,1.462C401.854,142.113,401.172,142.792,400.509,143.946z"/>
	<path fill-rule="evenodd" clip-rule="evenodd" d="M428.175,252.996c-0.719-1.205-1.506-1.945-1.431-2.584
		c0.061-0.516,1.146-1.221,1.807-1.255c0.514-0.027,1.605,1.044,1.517,1.292C429.78,251.241,429.062,251.876,428.175,252.996z"/>
	<path fill-rule="evenodd" clip-rule="evenodd" d="M318.385,444.217c-0.61-1.229-1.252-1.937-1.191-2.577
		c0.052-0.539,0.923-0.999,1.431-1.493c0.484,0.62,1.26,1.198,1.357,1.875C320.052,442.51,319.221,443.128,318.385,444.217z"/>
	<path fill-rule="evenodd" clip-rule="evenodd" d="M250.497,260.636c-6.311-0.013-11.497-5.166-11.413-11.341
		c0.081-5.965,5.181-11.063,11.103-11.098c6.455-0.038,11.664,5.314,11.523,11.842C261.585,255.835,256.492,260.648,250.497,260.636
		z"/>
</g>
</svg>
