<?xml version="1.0" encoding="utf-8"?>
<!-- Generator: Adobe Illustrator 16.0.0, SVG Export Plug-In . SVG Version: 6.00 Build 0)  -->
<!DOCTYPE svg PUBLIC "-//W3C//DTD SVG 1.1//EN" "http://www.w3.org/Graphics/SVG/1.1/DTD/svg11.dtd">
<svg version="1.1" id="Layer_1" xmlns="http://www.w3.org/2000/svg" xmlns:xlink="http://www.w3.org/1999/xlink" x="0px" y="0px"
	 width="1024px" height="1024px" viewBox="0 0 1024 1024" enable-background="new 0 0 1024 1024" xml:space="preserve">
<path fill-rule="evenodd" clip-rule="evenodd" d="M693.507,692.646c0,9.848-0.16,19.308,0.026,28.761
	c1.158,58.778-44.047,115.058-105.358,124.135c-7.049,1.044-14.213,1.82-21.326,1.843c-48.989,0.156-97.979-0.005-146.968,0.104
	c-32.876,0.073-62.186-9.682-86.851-31.671c-24.807-22.116-39.38-49.746-42.586-83.03c-0.621-6.45-0.896-12.958-0.9-19.439
	c-0.057-83.148,0.086-166.297-0.178-249.444c-0.036-11.167,5.878-16.183,15.689-17.146c2.81-0.276,5.66-0.181,8.491-0.181
	c119.141-0.002,238.281-0.004,357.422,0.053c3.967,0.002,8.031,0.187,11.881,1.046c6.87,1.534,10.603,6.684,10.65,13.702
	c0.028,4.165,0.031,8.33,0.065,12.495c0.003,0.312,0.161,0.622,0.482,1.791c40.894-2.996,75.836,9.4,101.104,43.29
	c15.86,21.272,23.131,45.518,21.165,72.054C812.246,645.969,765.013,696.538,693.507,692.646z M693.756,515.727
	c0,45.469,0,90.543,0,135.831c28.803,2.066,53.52-5.446,70.118-30.153c15.29-22.759,16.355-47.213,2.805-71.055
	C750.795,522.402,724.878,513.688,693.756,515.727z"/>
<path fill-rule="evenodd" clip-rule="evenodd" d="M471.914,391.199c0.976-2.362,1.673-4.893,2.984-7.052
	c2.693-4.437,5.636-8.729,8.616-12.983c5.819-8.309,5.627-16.559-0.095-24.763c-2.459-3.527-5.151-6.893-7.647-10.395
	c-8.393-11.773-8.629-24.167-2.217-36.743c2.298-4.508,5.624-8.481,8.323-12.797c2.7-4.317,5.218-8.75,7.787-13.148
	c1.985-3.398,5.483-5.297,8.684-4.654c3.49,0.7,6.346,3.641,6.438,7.326c0.051,2.01-0.382,4.3-1.371,6.018
	c-3.381,5.872-6.993,11.621-10.733,17.273c-3.436,5.192-6.961,10.223-6.938,16.872c0.018,5.111,2.327,9.171,5.114,13.145
	c3.326,4.743,6.982,9.318,9.747,14.375c5.584,10.214,5.452,20.818-0.164,30.95c-4.156,7.498-9.017,14.613-13.712,21.802
	c-1.931,2.956-5.509,3.954-8.722,2.893C474.26,398.078,472.414,395.466,471.914,391.199z"/>
<path fill-rule="evenodd" clip-rule="evenodd" d="M570.189,276.867c5.921-0.01,9.693,5.506,7.042,11.485
	c-2.771,6.25-6.521,12.075-9.975,18.009c-1.654,2.845-3.771,5.423-5.399,8.281c-4.131,7.253-3.954,14.501,0.671,21.483
	c2.373,3.582,5.069,6.948,7.489,10.5c9.508,13.948,9.86,28.025,0.501,42.222c-2.967,4.502-5.831,9.072-8.763,13.596
	c-2.296,3.542-6.46,4.779-10.225,3.076c-3.539-1.601-5.502-5.649-4.148-9.535c0.973-2.795,2.458-5.444,3.962-8.015
	c1.815-3.102,3.88-6.059,5.856-9.065c5.344-8.124,4.5-16.02-0.921-23.704c-2.19-3.106-4.539-6.101-6.762-9.183
	c-9.645-13.377-9.421-27.124-1.221-40.977c4.824-8.151,9.97-16.112,14.993-24.145C564.874,278.364,567.065,276.798,570.189,276.867z
	"/>
<path fill-rule="evenodd" clip-rule="evenodd" d="M416.095,367.501c-0.537-6.543-4.031-11.43-7.734-16.194
	c-4.125-5.306-8.139-10.701-10.076-17.235c-3.173-10.697-0.647-20.556,4.969-29.807c4.764-7.847,9.651-15.62,14.514-23.406
	c2.34-3.747,6.751-5.119,10.433-3.323c3.794,1.852,5.744,6.303,3.763,10.453c-2.826,5.919-6.2,11.585-9.504,17.263
	c-1.656,2.845-3.851,5.378-5.498,8.228c-4.623,7.999-4.609,15.957,0.79,23.643c2.128,3.029,4.529,5.87,6.619,8.923
	c10.244,14.962,10.312,28.659,0.336,43.771c-2.641,4.002-5.269,8.014-7.808,12.082c-2.545,4.077-6.429,5.534-10.476,3.775
	c-3.878-1.685-5.841-5.95-4.2-10.317c1.144-3.04,2.98-5.833,4.625-8.668c2.353-4.056,4.998-7.954,7.149-12.11
	C415.108,372.433,415.421,369.874,416.095,367.501z"/>
</svg>
