<?xml version="1.0" encoding="utf-8"?>
<!-- Generator: Adobe Illustrator 16.0.0, SVG Export Plug-In . SVG Version: 6.00 Build 0)  -->
<!DOCTYPE svg PUBLIC "-//W3C//DTD SVG 1.1//EN" "http://www.w3.org/Graphics/SVG/1.1/DTD/svg11.dtd">
<svg version="1.1" id="Layer_1" xmlns="http://www.w3.org/2000/svg" xmlns:xlink="http://www.w3.org/1999/xlink" x="0px" y="0px"
	 width="1024px" height="1024px" viewBox="0 0 1024 1024" enable-background="new 0 0 1024 1024" xml:space="preserve">
<path fill-rule="evenodd" clip-rule="evenodd" d="M512.292,326.069c65.509-0.001,131.018,0.115,196.526-0.113
	c11.399-0.04,21.996,7.904,19.609,23.402c-1.703,11.056-2.508,22.25-3.692,33.385c-1.237,11.646-2.468,23.293-3.668,34.944
	c-0.871,8.451-1.671,16.91-2.535,25.361c-1.217,11.907-2.489,23.81-3.69,35.718c-0.878,8.707-1.645,17.426-2.519,26.133
	c-1.17,11.659-2.398,23.31-3.595,34.964c-1.131,11.007-2.245,22.018-3.381,33.024c-1.188,11.522-2.406,23.043-3.591,34.566
	c-1.144,11.135-2.242,22.275-3.395,33.409c-1.151,11.139-2.349,22.273-3.517,33.409c-1.156,11.017-2.294,22.036-3.456,33.053
	c-1.188,11.259-2.422,22.515-3.585,33.776c-0.912,8.832-1.722,17.675-2.622,26.508c-1.174,11.525-2.381,23.046-3.596,34.567
	c-0.58,5.506-1.01,11.036-1.856,16.502c-1.985,12.824-13.725,23.58-26.665,23.756c-22.865,0.313-45.736,0.146-68.605,0.149
	c-69.771,0.009-139.546-0.258-209.315,0.197c-16.185,0.106-30.124-11.596-31.215-29.921c-0.711-11.938-2.399-23.816-3.604-35.725
	c-1.127-11.137-2.164-22.283-3.3-33.418c-1.138-11.139-2.364-22.268-3.526-33.404c-1.163-11.143-2.284-22.289-3.442-33.432
	c-1.171-11.263-2.377-22.521-3.547-33.782c-1.156-11.138-2.275-22.28-3.433-33.417c-1.184-11.389-2.401-22.771-3.589-34.158
	c-0.882-8.449-1.729-16.901-2.609-25.351c-1.226-11.771-2.495-23.536-3.693-35.311c-1.134-11.142-2.164-22.295-3.304-33.436
	c-1.167-11.4-2.432-22.789-3.621-34.187c-1.135-10.883-2.206-21.774-3.349-32.656c-1.198-11.397-2.512-22.781-3.66-34.182
	c-1.199-11.91-2.597-23.814-3.284-35.757c-0.614-10.679,7.5-18.57,18.248-18.572C380.241,326.065,446.266,326.07,512.292,326.069z
	 M316.146,346.44c0.657,6.192,1.304,12.184,1.928,18.178c1.159,11.14,2.315,22.281,3.455,33.424
	c0.864,8.452,1.674,16.91,2.558,25.361c1.191,11.391,2.449,22.774,3.642,34.165c1.139,10.88,2.22,21.766,3.344,32.647
	c1.204,11.646,2.441,23.29,3.636,34.938c0.881,8.578,1.694,17.165,2.579,25.742c1.188,11.52,2.42,23.034,3.627,34.551
	c1.207,11.521,2.413,23.04,3.609,34.56c1.129,10.883,2.262,21.765,3.366,32.648c1.145,11.274,2.239,22.553,3.39,33.826
	c1.176,11.523,2.404,23.043,3.59,34.565c1.16,11.271,2.282,22.547,3.445,33.818c1.163,11.267,2.313,22.535,3.552,33.793
	c0.886,8.05,1.578,16.142,2.968,24.108c1.303,7.473,4.479,9.647,12.031,9.647c45.101,0.002,90.202,0.007,135.303,0.008
	c45.102,0.001,90.203-0.088,135.303,0.079c7.469,0.027,11.695-3.576,12.758-10.583c0.79-5.214,1.155-10.493,1.695-15.745
	c1.133-11.015,2.255-22.028,3.385-33.042c1.195-11.658,2.386-23.318,3.597-34.975c1.156-11.138,2.337-22.273,3.506-33.41
	c1.156-11.01,2.313-22.02,3.468-33.03c1.222-11.65,2.463-23.299,3.651-34.952c0.889-8.71,1.705-17.428,2.557-26.142
	c0.851-8.715,1.673-17.431,2.566-26.141c1.183-11.524,2.424-23.044,3.635-34.565c0.943-8.962,1.887-17.923,2.813-26.886
	c1.139-11.017,2.29-22.032,3.381-33.053c1.142-11.537,2.184-23.083,3.336-34.619c1.176-11.786,2.427-23.564,3.656-35.345
	c1.163-11.14,2.361-22.276,3.508-33.417c1.027-9.97,2.006-19.947,3.03-30.154C577.276,346.44,446.821,346.44,316.146,346.44z"/>
<path fill-rule="evenodd" clip-rule="evenodd" d="M676.063,472.781c-0.682,7.256-1.305,14.159-1.986,21.058
	c-0.925,9.357-1.893,18.71-2.845,28.064c-1.2,11.781-2.403,23.563-3.605,35.346c-1.124,11.013-2.238,22.025-3.375,33.037
	c-1.202,11.651-2.463,23.297-3.633,34.951c-1.157,11.528-2.182,23.07-3.363,34.597c-1.142,11.138-2.431,22.26-3.615,33.393
	c-1.143,10.749-2.199,21.507-3.358,32.255c-0.98,9.085-1.874,18.186-3.145,27.232c-0.974,6.933-7.836,13.486-14.816,14.483
	c-3.566,0.509-7.194,0.811-10.795,0.813c-73.523,0.045-147.047,0.049-220.57-0.017c-3.313-0.003-6.729-0.349-9.918-1.203
	c-8.312-2.23-12.974-8.853-13.752-17.52c-1.209-13.455-2.903-26.865-4.344-40.299c-1.152-10.741-2.201-21.493-3.352-32.235
	c-1.192-11.127-2.501-22.242-3.668-33.371c-0.913-8.708-1.636-17.435-2.535-26.144c-1.137-11.001-2.374-21.991-3.551-32.988
	c-0.89-8.319-1.77-16.638-2.625-24.96c-1.131-11.001-2.207-22.008-3.359-33.007c-0.872-8.321-1.891-16.627-2.726-24.952
	c-0.913-9.094-1.691-18.203-2.518-27.305c-0.032-0.351,0.042-0.712,0.078-1.228C457.649,472.781,566.529,472.781,676.063,472.781z
	 M480.313,492.776c-6.304,0.609-10.455,3.736-13.555,8.557c-11.746,18.27-23.482,36.543-35.186,54.838
	c-5.175,8.091-3.955,15.364,4.145,20.627c19.392,12.601,38.923,24.987,58.535,37.243c7.677,4.798,15.458,2.84,20.387-4.709
	c11.937-18.285,23.816-36.608,35.652-54.96c5.819-9.022,4.144-16.512-4.928-22.306c-18.732-11.966-37.461-23.938-56.293-35.746
	C486.443,494.674,483.245,493.936,480.313,492.776z M475.432,741.48c7.25-0.366,11.301-4.502,14.189-10.26
	c9.057-18.056,18.117-36.109,27.127-54.189c4.86-9.752,2.442-16.592-7.474-21.393c-18.355-8.887-36.717-17.758-55.078-26.632
	c-9.911-4.789-16.923-2.454-21.928,7.454c-9.077,17.969-17.875,36.083-27.193,53.926c-4.913,9.408-0.432,16.899,6.896,20.527
	c18.334,9.076,36.591,18.312,54.928,27.383C469.605,739.636,472.581,740.433,475.432,741.48z M519.89,628.972
	c-0.312,0.149-0.624,0.298-0.936,0.446c1.614,3.379,2.835,7.026,4.912,10.094c9.812,14.488,19.868,28.811,29.815,43.206
	c5.574,8.068,14.014,9.801,22.101,4.232c15.049-10.361,30.034-20.816,44.989-31.312c7.116-4.993,8.563-12.786,3.618-19.913
	c-10.567-15.233-21.203-30.418-31.935-45.535c-6.111-8.61-14.157-9.962-22.7-3.886c-14.58,10.369-29.092,20.836-43.603,31.303
	C522.31,620.38,519.807,623.983,519.89,628.972z"/>
</svg>
