<?xml version="1.0" encoding="utf-8"?>
<!-- Generator: Adobe Illustrator 16.0.0, SVG Export Plug-In . SVG Version: 6.00 Build 0)  -->
<!DOCTYPE svg PUBLIC "-//W3C//DTD SVG 1.1//EN" "http://www.w3.org/Graphics/SVG/1.1/DTD/svg11.dtd">
<svg version="1.1" id="Layer_1" xmlns="http://www.w3.org/2000/svg" xmlns:xlink="http://www.w3.org/1999/xlink" x="0px" y="0px"
	 width="1024px" height="1024px" viewBox="0 0 1024 1024" enable-background="new 0 0 1024 1024" xml:space="preserve">
<g>
	<path fill-rule="evenodd" clip-rule="evenodd" d="M693.507,692.646c0,9.848-0.16,19.308,0.026,28.761
		c1.158,58.778-44.047,115.058-105.358,124.135c-7.049,1.044-14.213,1.82-21.326,1.843c-48.989,0.156-97.979-0.005-146.968,0.104
		c-32.876,0.073-62.186-9.682-86.851-31.671c-24.807-22.116-39.38-49.746-42.586-83.03c-0.621-6.45-0.896-12.958-0.9-19.439
		c-0.057-83.148,0.086-166.297-0.178-249.444c-0.036-11.167,5.878-16.183,15.689-17.146c2.81-0.276,5.66-0.181,8.491-0.181
		c119.141-0.002,238.281-0.004,357.422,0.053c3.967,0.002,8.031,0.187,11.881,1.046c6.87,1.534,10.603,6.684,10.65,13.702
		c0.028,4.165,0.031,8.33,0.065,12.495c0.003,0.312,0.161,0.622,0.482,1.791c40.894-2.996,75.836,9.4,101.104,43.29
		c15.86,21.272,23.131,45.518,21.165,72.054C812.246,645.969,765.013,696.538,693.507,692.646z M693.756,515.727
		c0,45.469,0,90.543,0,135.831c28.803,2.066,53.52-5.446,70.118-30.153c15.29-22.759,16.355-47.213,2.805-71.055
		C750.795,522.402,724.878,513.688,693.756,515.727z"/>
	<path fill-rule="evenodd" clip-rule="evenodd" d="M473.356,379.224c1.62-3.924,2.779-8.128,4.956-11.714
		c4.473-7.37,9.361-14.5,14.311-21.566c9.666-13.801,9.347-27.505-0.157-41.133c-4.085-5.858-8.556-11.448-12.702-17.266
		c-13.94-19.556-14.334-40.144-3.682-61.032c3.817-7.487,9.342-14.088,13.825-21.257c4.485-7.172,8.667-14.534,12.935-21.84
		c3.298-5.644,9.108-8.798,14.425-7.73c5.797,1.162,10.54,6.047,10.692,12.168c0.084,3.338-0.634,7.143-2.277,9.996
		c-5.616,9.753-11.615,19.303-17.827,28.691c-5.707,8.625-11.563,16.981-11.524,28.024c0.029,8.489,3.865,15.233,8.495,21.835
		c5.523,7.878,11.598,15.478,16.189,23.878c9.276,16.967,9.056,34.581-0.272,51.409c-6.903,12.455-14.978,24.273-22.777,36.215
		c-3.207,4.909-9.15,6.567-14.487,4.805C477.253,390.65,474.187,386.312,473.356,379.224z"/>
	<path fill-rule="evenodd" clip-rule="evenodd" d="M619.985,189.313c9.835-0.016,16.102,9.146,11.697,19.077
		c-4.604,10.381-10.832,20.057-16.567,29.914c-2.749,4.725-6.266,9.007-8.97,13.754c-6.861,12.048-6.568,24.087,1.114,35.686
		c3.941,5.949,8.42,11.541,12.44,17.44c15.793,23.168,16.379,46.551,0.833,70.134c-4.929,7.478-9.686,15.068-14.557,22.583
		c-3.813,5.884-10.729,7.938-16.983,5.109c-5.878-2.658-9.138-9.383-6.891-15.838c1.616-4.644,4.083-9.044,6.581-13.313
		c3.015-5.152,6.444-10.063,9.729-15.057c8.875-13.495,7.475-26.609-1.529-39.374c-3.639-5.159-7.54-10.133-11.232-15.254
		c-16.02-22.22-15.648-45.053-2.028-68.064c8.014-13.539,16.561-26.763,24.905-40.105
		C611.156,191.801,614.797,189.199,619.985,189.313z"/>
	<path fill-rule="evenodd" clip-rule="evenodd" d="M397.248,339.861c-0.893-10.868-6.695-18.985-12.848-26.899
		c-6.851-8.813-13.519-17.774-16.737-28.628c-5.271-17.769-1.075-34.145,8.254-49.511c7.913-13.034,16.031-25.945,24.108-38.879
		c3.887-6.223,11.214-8.502,17.329-5.519c6.302,3.075,9.542,10.469,6.25,17.362c-4.694,9.832-10.298,19.243-15.786,28.675
		c-2.751,4.727-6.396,8.934-9.133,13.667c-7.679,13.287-7.655,26.505,1.313,39.271c3.535,5.032,7.523,9.75,10.995,14.822
		c17.016,24.854,17.128,47.604,0.559,72.707c-4.387,6.647-8.752,13.312-12.969,20.067c-4.228,6.772-10.679,9.192-17.401,6.271
		c-6.441-2.799-9.703-9.884-6.976-17.137c1.899-5.05,4.95-9.689,7.682-14.398c3.908-6.737,8.303-13.212,11.876-20.115
		C395.609,348.053,396.129,343.803,397.248,339.861z"/>
</g>
</svg>
