<?xml version="1.0" encoding="utf-8"?>
<!-- Generator: Adobe Illustrator 16.0.0, SVG Export Plug-In . SVG Version: 6.00 Build 0)  -->
<!DOCTYPE svg PUBLIC "-//W3C//DTD SVG 1.1//EN" "http://www.w3.org/Graphics/SVG/1.1/DTD/svg11.dtd">
<svg version="1.1" id="Layer_1" xmlns="http://www.w3.org/2000/svg" xmlns:xlink="http://www.w3.org/1999/xlink" x="0px" y="0px"
	 width="500px" height="500px" viewBox="0 0 500 500" enable-background="new 0 0 500 500" xml:space="preserve">
<g>
	<path fill-rule="evenodd" clip-rule="evenodd" d="M177.769,431.26c-6.954,8.087-15.385,12.8-25.556,14.301
		c-7.174,1.061-14.225,0.014-21.209-1.537c-8.402-1.866-16.743-2.448-24.969,0.754c-2.122,0.826-2.903,0.001-2.648-2.022
		c1.391-11.036-2.78-20.513-7.865-29.899c-2.513-4.64-4.596-9.671-5.887-14.774c-2.012-7.95,0.353-15.316,4.847-22.03
		c0.297-0.443,0.625-0.867,0.917-1.314c0.08-0.122,0.081-0.295,0.096-0.355c-15.106,3.805-28.003-0.914-39.611-10.416
		c-5.151-4.217-9.635-9.444-16.407-11.181c-3.321-0.853-6.774-1.192-10.37-1.798c0.1-0.525,0.057-1.3,0.383-1.859
		c5.748-9.889,5.616-20.754,5.551-31.683c-0.055-9.178,1.872-17.938,7.829-25.263c2.221-2.729,5.023-4.986,7.623-7.521
		c-1.835-0.766-3.928-1.55-5.945-2.495c-11.784-5.523-18.752-15.271-23.424-26.964c-3.429-8.583-8.168-16.195-15.587-21.931
		c-0.572-0.443-1.018-1.049-1.755-1.823c10.535-4.034,15.559-12.477,19.957-21.643c2.913-6.072,5.817-12.293,9.765-17.687
		c5.017-6.854,11.795-11.889,20.395-13.808c1.63-0.364,3.317-0.469,5.239-0.728c-1.046-1.047-2.04-1.986-2.97-2.982
		c-7.488-8.022-8.909-17.959-8.801-28.325c0.037-3.563,0.355-7.128,0.662-10.682c0.656-7.599-0.253-14.924-3.517-21.89
		c-0.688-1.468-0.989-2.986,1.422-2.782c10.315,0.877,18.836-3.463,27.091-8.915c5.857-3.868,11.743-7.676,18.764-9.417
		c6.629-1.643,12.853-0.822,19.011,1.706c1.043,0.428,2.059,0.927,3.084,1.392c-0.479-3.702-1.229-7.278-1.353-10.876
		c-0.324-9.421,3.491-17.458,8.762-24.994c2.64-3.774,5.286-7.607,7.334-11.71c1.264-2.533,1.414-5.623,2.047-8.468
		c0.188-0.845,0.316-1.703,0.5-2.709c0.641,0.083,1.106,0.03,1.459,0.205c8.47,4.198,17.391,3.676,26.442,2.859
		c12.6-1.138,25.032-0.671,35.89,7.046c3.067,2.179,5.706,4.961,8.495,7.427c0.712-2.374,1.337-5.438,2.531-8.26
		c4.056-9.586,11.402-16.203,20.054-21.569c6.827-4.235,13.685-8.457,19.006-14.621c1.554-1.799,2.798-3.886,4.037-5.93
		c0.965-1.591,2.029-1.986,2.897-0.207c4.967,10.182,14.279,15.311,23.53,20.575c8.73,4.967,15.699,11.696,19.976,20.918
		c0.968,2.087,1.53,4.361,2.318,6.534c0.353,0.974,0.802,1.912,1.346,3.188c1.371-1.701,2.444-3.175,3.661-4.518
		c6.016-6.633,13.771-9.817,22.477-10.311c6.545-0.371,13.145,0.055,19.713,0.317c7.769,0.31,15.521,0.781,22.746-2.98
		c0.612-0.319,1.318-0.46,2.378-0.818c0.272,2.08,0.508,3.97,0.77,5.857c0.771,5.548,3.284,10.339,6.662,14.675
		c4.87,6.25,8.881,12.894,10.539,20.765c1.26,5.979,0.427,11.821-1.222,17.979c2.027-0.859,3.712-1.712,5.485-2.303
		c10.89-3.627,20.893-1.156,30.362,4.6c4.64,2.819,9.109,5.936,13.857,8.554c5.286,2.915,11.066,4.376,17.151,4.427
		c1.051,0.008,2.102,0.001,3.333,0.001c-0.138,0.825-0.092,1.4-0.324,1.824c-4.564,8.314-4.485,17.29-3.684,26.331
		c0.816,9.207,1.274,18.422-2.9,26.982c-1.993,4.087-4.936,7.711-7.509,11.638c0.82,0.128,2.164,0.274,3.48,0.554
		c12.274,2.609,20.872,9.925,26.521,20.914c3.091,6.013,5.776,12.249,9.124,18.109c3.513,6.148,8.625,10.842,15.111,13.904
		c0.312,0.146,0.572,0.4,1.113,0.788c-0.479,0.579-0.797,1.253-1.327,1.561c-8.401,4.882-13,12.613-16.442,21.354
		c-2.655,6.745-6.134,13.063-11.386,18.23c-5.342,5.256-11.544,9.12-19.166,11.614c0.975,0.915,1.653,1.662,2.438,2.272
		c10.791,8.388,14.972,19.556,13.802,32.929c-0.684,7.812-0.372,15.503,2.466,22.906c0.759,1.981,1.862,3.83,2.813,5.736
		c0.804,1.61,0.531,2.477-1.482,2.566c-8.503,0.381-15.474,4.088-21.725,9.7c-9.929,8.914-21.155,14.82-35.041,13.747
		c-2.194-0.17-4.368-0.601-6.444-0.896c1.505,3.4,3.35,6.728,4.478,10.283c2.739,8.635,0.989,16.904-2.88,24.822
		c-1.876,3.838-4.07,7.521-5.958,11.353c-3.486,7.079-5.649,14.433-4.095,22.452c0.115,0.594,0.016,1.229,0.016,2.299
		c-1.135-0.162-2.265-0.143-3.265-0.493c-7.707-2.706-15.54-2.781-23.481-1.341c-7.883,1.43-15.704,3.05-23.857,1.96
		c-9.103-1.219-16.494-5.289-22.572-12.01c-0.269-0.297-0.546-0.587-0.858-0.922c-3.118,19.682-15.603,31.234-32.65,38.947
		c-7.534,3.41-15.207,6.543-22.587,10.257c-7.033,3.541-12.794,8.696-16.792,15.646c-1.219,2.119-2.139,2.193-3.138,0.176
		c-5.324-10.755-15.062-15.97-25.336-20.66c-8.724-3.983-17.694-7.624-25.883-12.534c-10.759-6.451-17.588-16.198-19.562-28.903
		C177.894,434.214,177.891,432.962,177.769,431.26z M251.626,490.756c5.93-7.969,15.091-13.145,25.044-17.491
		c8.857-3.869,17.969-7.665,25.877-13.084c12.888-8.831,19.601-21.225,16.221-37.508c-0.779-3.754-1.729-7.474-2.482-10.705
		c-2.35,0-3.941,0.131-5.505-0.024c-4.334-0.433-8.722-5.076-8.544-8.935c0.096-2.085,1.079-3.721,3.116-4.167
		c2.086-0.456,4.367-0.067,5.298,2.06c0.497,1.134-0.176,2.78-0.349,4.468c-1.567-0.64-2.372-0.969-3.176-1.297
		c0.967,2.408,2.287,4.248,4.968,4.289c2.867,0.044,5.241-1.001,6.791-3.503c3.184-5.141,2.703-9.305-1.53-13.794
		c-5.502-5.835-14.598-6.867-22.402-2.527c-6.13,3.41-11.367,11.231-5.962,19.626c0.54,0.839,0.81,1.852,1.094,2.521
		c-4.673-1.24-9.312-2.472-13.95-3.703c-0.063,0.219-0.128,0.438-0.192,0.658c2.074,1.36,4.288,2.548,6.199,4.108
		c13.089,10.688,10.297,32.766-5.082,40.102c-3.104,1.479-6.777,2.003-9.536,3.909c-5.146,3.555-10.588,5.429-16.757,5.047
		c-7.102-0.439-14.039-1.442-19.354-6.986c-0.592-0.616-1.704-0.782-2.608-1.045c-3.902-1.135-8.168-1.575-11.659-3.46
		c-9.581-5.173-13.996-14.032-13.868-24.518c0.135-11.074,5.252-19.857,15.502-24.994c2.403-1.203,5.034-1.953,7.049-2.718
		c-5.371-2.234-11.075-4.631-16.797-6.98c-7.13-2.926-14.252-2.777-21.272,0.332c-5.644,2.5-8.293,8.064-6.862,14.079
		c0.946,3.979,2.976,5.661,7.011,5.318c1.579-0.134,3.095-1.013,4.639-1.552c-0.658-1.327-1.315-2.653-2.029-4.092
		c1.692-1.695,3.972-2.171,5.914-0.913c1.708,1.107,2.433,2.942,1.583,4.641c-0.815,1.631-2.183,3.327-3.752,4.147
		c-1.717,0.898-3.995,0.652-5.926,1.241c-1.217,0.37-2.881,1.11-3.265,2.102c-5.78,14.952-4.071,29.453,8.631,40.979
		c7.075,6.421,15.777,9.944,24.425,13.516c8.571,3.539,17.076,7.147,24.245,13.248C245.41,485.737,248.536,488.223,251.626,490.756z
		 M108.01,440.068c6.869-2.536,14.094-1.835,21.344-0.563c4.549,0.799,9.095,1.719,13.683,2.179
		c16.055,1.61,33.632-6.696,37.882-27.062c0.28-1.343,0.331-3.38-0.45-4.187c-3.303-3.415-4.251-7.427-4.305-11.968
		c-0.125-10.524,7.828-18.501,18.263-18.619c6.107-0.068,11.15,2.318,16.267,5.186c5.871,3.289,11.882,6.385,18.054,9.054
		c4.45,1.925,8.519-0.351,12.531-2.702c-6.991-2.984-13.803-5.999-17.915-12.779c-4.028-6.645-4.762-13.884-4.032-21.71
		c-9.447,13.476-21.966,18.85-37.948,14.733c-12.778-3.291-19.532-12.179-22.075-24.924c-4.332,2.677-8.688,1.197-13.031,0.352
		c-5.843-1.14-11.775-1.12-16.944,1.816c-9.62,5.466-17.087,15.654-14.739,28.694c1.206,6.7,4.722,11.966,9.656,16.512
		c3.642,3.355,7.969,2.591,12.18,2.418c3.966-0.164,7.282-1.654,8.892-5.674c1.258-3.14,0.149-4.698-3.178-4.263
		c-5.02,0.659-8.311-1.893-10.816-5.78c-2.582-4.004-2.846-8.166-0.195-12.277c4.45-6.899,14.112-9.252,21.533-5.345
		c6.015,3.168,10.047,8.103,12.991,14.104c3.327,6.781,5.6,13.711,3.542,21.365c-2.37,8.813-8.743,18.687-20.489,19.166
		c-8.404,0.343-18.806-4.727-21.469-12.216c-1.406-3.956-3.364-6.737-6.582-9.432c-6.893-5.771-10.036-13.633-10.274-22.641
		c-0.056-2.137-0.313-4.27-0.51-6.817c-2.213,1.638-4.041,2.773-5.614,4.192c-7.049,6.358-11.663,13.775-10.741,23.836
		c0.57,6.225,3.178,11.574,5.933,16.996c2.487,4.895,5.015,9.857,6.654,15.064C107.413,430.927,107.407,435.488,108.01,440.068z
		 M385.864,221.12c0.541,0.5,0.831,0.826,1.176,1.079c14.513,10.649,18.637,25.38,16.532,42.461
		c-1.144,9.287-6.122,16.741-11.787,23.876c-5.419,6.824-9.126,14.543-9.695,23.322c-0.836,12.902,8.803,25.475,22.316,29.52
		c8.682,2.599,16.877,1.439,23.161-5.317c6.447-6.933,9.631-15.133,5.982-24.776c-2.401-6.348-6.679-10.434-13.496-11.51
		c-4.904-0.773-9.107,1.819-10.376,6.245c-1.136,3.965,0.471,6.534,5.535,8.869c0.564,0.261,1.21,0.459,1.643,0.87
		c0.617,0.584,1.34,1.266,1.55,2.033c1.046,3.84-1.855,8.311-5.792,9.122c-5.873,1.209-13.019-2.682-15.502-8.437
		c-3.168-7.344-1.303-13.854,3.162-20.024c3.377-4.664,8.03-7.786,12.674-10.95c4.302-2.931,5.322-5.924,3.674-10.787
		c-2.594-7.653-0.451-14.5,5.849-18.868c3.682-2.554,7.906-3.057,12.189-3.328c6.983-0.441,12.979-2.156,16.34-9.341
		c6.97-14.907,0.514-33.671-14.377-40.747c-4.634-2.202-9.393-2.684-14.228-0.627c-8.429,3.584-12.466,11.313-11.451,21.874
		c0.833,8.686,6.864,15.522,14.749,16.723c3.958,0.603,8.038-1.41,10.156-5.012c1.552-2.639,1.3-6.372-0.595-8.818
		c-1.859-2.402-4.035-2.302-5.177,0.501c-0.762,1.872-1.677,3.123-3.763,3.105c-2.436-0.021-4.575-0.692-5.854-3.019
		c-1.636-2.977-1.901-6.074,0.158-8.814c2.317-3.08,5.767-4.177,9.504-3.55c7.253,1.215,12.889,9.155,11.623,17.07
		c-1.341,8.394-9.905,14.05-18.037,12.329c-9.932-2.102-19-16.077-16.679-26.078c0.878-3.784,2.31-7.462,3.729-11.095
		c5.504-14.076-2.328-29.51-16.91-33.072c-1.44-0.352-2.967-0.349-4.871-0.556c6.108,8.148,10.663,16.217,10.146,26.151
		C398.62,211.248,395.836,217.286,385.864,221.12z M249.106,176.008c-4.976,0.88-11.945,1.532-18.57,3.404
		c-15.497,4.375-27.098,14.311-36.184,27.303c-10.886,15.566-16.311,32.708-14.453,51.868c0.789,8.133,2.517,15.991,6.496,23.209
		c3.337,6.054,6.011,12.67,10.298,17.97c20.187,24.954,57.895,32.633,86.32,17.667c15.465-8.142,26.791-20.185,33.262-36.833
		c5.925-15.247,7.96-30.672,4.066-46.551c-2.663-10.859-7.335-20.92-14.278-29.866C292.101,186.189,273.567,177.382,249.106,176.008
		z M142.237,160.48c-0.055-0.598-0.08-0.858-0.103-1.119c-0.677-7.821-0.896-15.628,3.989-22.386
		c8.131-11.249,19.125-17.552,33.057-18.629c0.888-0.068,2.286-0.81,2.477-1.504c2.197-7.993,6.116-14.927,12.061-20.722
		c0.405-0.395,0.675-1.084,0.726-1.662c0.505-5.782-0.629-11.164-4.072-15.943c-9.171-12.728-25.918-13.651-36.985-7.757
		c-7.261,3.868-11.788,12.91-10.249,20.188c1.885,8.915,9.961,15.258,19.949,14.57c4.59-0.317,8.731-4.063,9.373-8.573
		c0.206-1.44-0.343-3.325-1.222-4.5c-1.178-1.575-2.637-0.366-3.973,0.458c-2.307,1.426-6.286,0.818-8.227-1.093
		c-1.913-1.883-2.063-4.517-0.419-7.378c3.025-5.264,10.712-6.241,16.162-2.053c6.572,5.052,6.052,16.493-0.891,22.351
		c-5.981,5.046-13.243,7.582-20.291,10.456c-10.465,4.267-18.639,10.728-22.455,21.722c-3.013,8.682-7.597,15.993-16.155,20.283
		c-3.853,1.932-7.796,2.985-12.077,2.532c-6.844-0.724-12.152-7.147-11.65-14.002c0.484-6.604,6.653-12.09,13.251-11.786
		c4.091,0.189,6.59,2.795,5.957,6.726c-1.667-0.827-3.289-1.489-4.753-2.402c-1.163-0.725-1.852-0.536-2.717,0.442
		c-3.384,3.826-2.589,12.527,4.245,13.524c2.311,0.337,4.903,0.545,7.053-0.151c6.94-2.249,9.887-5.175,10.153-10.759
		c0.733-15.47-14.416-26.082-28.675-20.055c-6.294,2.66-10.764,7.376-13.951,13.146c-4.892,8.855-5.463,18.212-0.013,26.922
		c6.913,11.048,20.278,14.74,32.467,9.877C123.501,167.526,131.885,161.713,142.237,160.48z M359.32,160.651
		c8.321,0.626,15.763,3.348,22.765,7.503c2.431,1.442,5.032,2.75,7.723,3.573c11.889,3.638,22.317,0.695,28.942-8.412
		c5.94-8.166,6.279-17.237,2.837-26.452c-4.562-12.211-20.414-20.08-31.922-15.276c-6.655,2.779-10.988,7.382-11.922,14.485
		c-0.937,7.136,1.92,12.889,8.012,16.866c3.892,2.541,8.785,2.543,12.082,0.12c1.854-1.364,2.685-4.056,1.79-6.22
		c-0.835-2.021-2.357-2.559-4.551-2.325c-0.875,0.094-2.323-0.883-2.761-1.75c-1.828-3.624,1.329-8.028,5.906-8.318
		c5.221-0.331,9.271,1.84,11.642,6.467c2.349,4.582,2.339,9.422-0.661,13.692c-4.341,6.181-13.627,8.038-21.284,4.515
		c-8.191-3.768-13.402-10.201-15.908-18.748c-2.957-10.086-9.322-17.335-18.406-22.148c-5.796-3.07-11.981-5.395-17.916-8.214
		c-6.656-3.162-12.128-7.439-13.505-15.334c-1.009-5.787,1.686-11.426,7.127-14.601c4.062-2.369,9.608-1.758,13.449,1.482
		c2.677,2.259,3.215,5.72,1.339,8.608c-1.68,2.584-2.938,2.712-4.879,0.229c-1.76-2.25-4.129-1.855-6.341-1.574
		c-2.227,0.283-3.536,1.905-4.041,4.109c-0.776,3.388,1.046,7.271,4.347,9.658c4.914,3.553,9.949,2.836,15.229,0.913
		c7.012-2.554,11.579-10.537,9.83-17.776c-4.041-16.729-18.853-21.538-32.983-18.009c-12.647,3.158-17.498,12.9-18.344,24.153
		c-0.093,1.225,0.609,2.824,1.475,3.755c5.084,5.468,8.664,11.785,10.631,18.926c0.713,2.589,1.964,3.522,4.479,3.802
		c10.097,1.122,19.217,4.662,26.507,11.928C358.359,138.601,363.913,147.942,359.32,160.651z M412.875,295.222
		c2.014,0,3.269-0.116,4.496,0.021c6.076,0.675,11.745,2.39,15.794,7.329c8.304,10.129,7.295,26.513-2.339,36.153
		c-10.306,10.313-25.914,10.613-38.396,0.932c-3.196-2.479-6.026-5.432-8.977-8.123c-2.639,5.501-7.499,9.475-13.792,12.639
		c6.577,1.076,11.521,3.783,15.585,8.191c3.416,3.704,5.934,8.12,10.253,11.14c7.219,5.047,14.586,8.59,23.783,7.477
		c9.628-1.165,17.58-5.563,24.774-11.622c6.403-5.393,13.118-10.055,21.702-11.244c-0.087-0.458-0.083-0.841-0.23-1.15
		c-3.481-7.261-4.319-14.972-3.948-22.898c0.146-3.115,0.368-6.236,0.302-9.351c-0.131-6.182-1.596-12.049-5.203-17.154
		c-7.094-10.043-17.181-12.894-28.884-11.746C421.505,286.43,417.058,289.87,412.875,295.222z M248.335,81.061
		c-2.333,0-4.364,0.264-6.306-0.043c-11.194-1.768-17.119-16.99-10.39-26.723c5.024-7.266,12.504-9.811,20.873-9.846
		c7.467-0.031,13.639,2.979,17.875,9.39c5.739,8.683,5.683,17.905,2.474,27.375c-0.746,2.2-1.828,4.285-2.794,6.511
		c2.184-0.933,4.159-1.745,6.108-2.615c4.129-1.844,8.416-3.404,11.547-6.942c7.529-8.505,8.988-20.79,3.963-31.472
		c-4.41-9.375-12.243-15.077-20.79-20.085c-7.71-4.518-15.37-9.077-20.31-17.125c-4.977,6.999-11.667,11.703-18.616,16.078
		c-8.763,5.517-16.874,11.705-21.761,21.164c-4.799,9.286-5.035,18.746,0.272,27.803c4.956,8.459,13.029,11.871,22.57,11.646
		C238.499,86.048,243.577,84.268,248.335,81.061z M10.734,232.752c5.125,4.019,8.652,8.757,11.11,14.318
		c1.978,4.474,3.842,9.007,6.033,13.375c7.866,15.687,23.875,23.564,41.126,20.318c4.596-0.864,8.657-2.734,11.289-6.872
		c2.192-3.447,0.549-8.514-3.083-9.234c-1.727,4.171-5.062,5.72-9.402,5.396c-4.249-0.317-7.176-4.337-5.494-8.148
		c0.906-2.054,3.036-3.569,4.581-5.291c0.224,0.107-0.063-0.095-0.378-0.172c-1.291-0.313-2.601-0.546-3.884-0.882
		c-8.558-2.239-15.181-6.818-17.515-15.781c-2.841-10.907-0.861-21.08,6.022-30.057c5.667-7.389,13.067-12.002,22.658-11.371
		c3.637,0.239,7.172,2.025,11.158,3.228c-0.909-2.407-1.508-5.315-2.981-7.68c-8.178-13.117-25.915-16.007-38.003-6.387
		c-5.981,4.76-10.344,10.729-13.525,17.646C25.682,215.518,21.291,226.158,10.734,232.752z M416.82,200.919
		c0.502-0.03,0.694,0.001,0.854-0.057c1.002-0.368,2-0.747,2.992-1.137c7.883-3.109,15.247-1.869,21.97,2.994
		c11.418,8.259,17.442,25.43,13.802,39.126c-2.004,7.54-6.208,13.094-14.272,14.939c-1.485,0.341-2.899,0.991-3.892,1.34
		c0.637,2.295,1.526,4.194,1.619,6.134c0.148,3.064-2.338,5.367-5.582,5.741c-2.631,0.303-3.929-0.912-4.753-4.449
		c-0.568-2.434-2.486-3.463-4.849-2.539c-3.125,1.224-4.808,3.64-5.165,6.88c-0.464,4.205,2.584,8.296,7.024,9.928
		c6.583,2.419,13.354,1.851,20.077,1.183c4.354-0.435,8.419-1.961,12.186-4.377c8.281-5.309,13.662-12.814,17.354-21.771
		c2.579-6.259,5.332-12.466,10.052-17.501c1.435-1.531,3.05-2.893,4.67-4.412c-0.567-0.475-0.887-0.776-1.24-1.033
		c-5.191-3.773-9.518-8.288-12.463-14.074c-2.866-5.631-5.918-11.167-8.796-16.792c-3.384-6.614-8.084-11.996-14.795-15.281
		c-9.98-4.886-19.9-5.457-29.096,1.815C420.346,190.874,417.042,194.94,416.82,200.919z M361.449,367.866
		c-0.401-3.817,0.548-5.527,3.446-6.388c2.925-0.869,5.965,0.386,7.396,3.297c1.737,3.535,1.859,7.228,0.344,10.883
		c-1.938,4.676-5.733,7.008-10.546,7.519c-5.428,0.576-9.87-1.702-12.894-6.106c-6.85-9.98-4.685-29.456,11.562-32.735
		c8.853-1.787,16.265-6.822,19.976-15.793c0.258-0.623,0.425-1.548,0.151-2.088c-4.781-9.427-4.126-18.83,0.517-27.961
		c3.69-7.259,7.931-14.237,11.927-21.341c-6.955,3.318-13.22,8.808-21.771,6.77c-0.081,0.524-0.18,0.724-0.123,0.856
		c4.79,11.383,2.865,22.263-3.042,32.517c-5.814,10.09-16.288,15.912-28.285,10.797c-1.802-0.768-3.761-1.166-6.018-1.848
		c7.155,11.169,8.995,22.343,3.653,34.387c-1.6,3.606-2.926,7.558-3.271,11.45c-0.804,9.032,4.011,15.632,10.744,20.924
		c5.96,4.684,12.754,7.057,20.43,5.849c11.095-1.745,23.735-15.507,23.027-29.968c-0.687-13.998-15.997-22.897-25.577-21.264
		c-11.792,2.011-14.842,12.936-13.093,20.557c0.9,3.925,3.446,6.731,7.646,7.772c3.283,0.815,5.576-0.683,7.46-2.978
		c0.729-0.89,1.429-2.418,1.138-3.337c-0.237-0.749-1.953-1.072-3.05-1.487C362.644,367.941,362.009,367.95,361.449,367.866z
		 M87.046,294.608c-2.165-3.228-4.403-6.064-8.216-6.988c-3.345-0.811-6.691-1.811-10.094-2.155
		c-9.278-0.94-17.292,1.608-22.96,9.491c-5.204,7.237-6.628,15.559-6.756,24.245c-0.074,5.075,0.111,10.205-0.577,15.207
		c-0.618,4.494-2.268,8.846-3.5,13.399c8.699,0.914,15.426,6.044,21.98,11.717c9.248,8.005,19.661,13.316,32.385,11.795
		c10.786-1.289,19.223-6.693,25.486-14.767c-3.354-0.595-6.859-0.769-10.026-1.895c-3.679-1.31-4.445-4.949-4.803-8.604
		c-1.354,0.398-2.535,0.779-3.734,1.095c-14.537,3.822-26.156-2.518-32.332-15.373c-2.688-5.595-2.455-11.686-1.65-17.59
		c1.298-9.52,8.375-17.731,17.521-18.65C82.139,295.299,84.494,294.938,87.046,294.608z M134.122,42.353
		c-0.829,7.502-4.441,13.271-8.587,18.812c-6.039,8.071-9.859,16.823-8.831,27.256c1.116,11.31,8.688,23.023,21.178,24.948
		c6.854,1.056,12.775-1.33,19.199-4.195c-1.09-0.339-1.597-0.5-2.105-0.654c-16.795-5.052-20.955-24.997-8.704-37.022
		c7.803-7.659,17.296-9.498,27.681-7.521c8.593,1.636,15.857,5.757,20.157,13.573c2.108,3.832,2.963,8.354,4.335,12.415
		c4.604-3.332,7.261-10.047,6.362-16.235c-1.049-7.219-2.388-14.248-7.922-19.66c-7.549-7.383-16.956-9.906-27.096-10.104
		c-4.781-0.093-9.574,0.758-14.37,1.006C148.266,45.341,141.208,44.623,134.122,42.353z M392.453,366.874
		c-0.218,3.587,0.059,6.958-0.705,10.074c-1.972,8.048-6.592,14.549-13.094,19.631c-2.085,1.629-3.749,3.202-4.242,6.022
		c-0.324,1.85-1.312,3.749-2.477,5.261c-10.171,13.19-26.461,15.558-39.755,4.902c-3.311-2.653-5.576-6.607-8.184-9.794
		c-0.548,1.095-1.582,2.699-2.166,4.453c-0.68,2.044-1.587,4.304-1.312,6.322c1.027,7.535,4.207,14.359,9.794,19.44
		c8.899,8.094,19.692,10.167,31.418,8.136c7.622-1.321,15.146-3.573,23.005-2.91c2.963,0.251,5.896,0.843,8.929,1.293
		c-0.106-8.146,1.699-15.758,5.771-22.819c1.732-3.005,3.456-6.045,4.829-9.223c4.66-10.781,5.796-21.487-1.436-31.75
		C400.151,372.113,396.956,368.881,392.453,366.874z M49.664,115.158c0.073,0.702,0.035,1.08,0.158,1.395
		c2.065,5.325,2.79,10.83,2.439,16.521c-0.367,5.95-1.062,11.926-0.81,17.857c0.414,9.764,3.427,18.562,11.786,24.655
		c8.064,5.877,16.732,8.789,26.561,4.951c2.449-0.957,4.671-2.493,6.998-3.763c-0.712-0.808-1.119-0.923-1.525-1.036
		c-6.374-1.771-11.788-4.98-15.674-10.472c-12.73-17.997-1.482-45.234,20.29-48.873c9.488-1.585,20.446,1.972,25.164,12.422
		c0.64,1.417,1.47,2.747,2.212,4.117c0.675-2.513,1.013-4.96,0.847-7.373c-0.599-8.725-5.08-15.565-10.813-21.8
		c-7.838-8.526-19.649-9.945-29.187-5.632c-4.272,1.933-8.302,4.518-12.178,7.188C68.035,110.756,59.782,115.072,49.664,115.158z
		 M366.901,42.192c-8.636,3.471-17.475,2.96-26.392,2.321c-5.567-0.399-11.321-0.867-16.752,0.075
		c-12.188,2.116-21.896,7.897-25.387,20.892c-0.368,1.373-0.623,2.791-1.136,4.108c-2.8,7.196,0.413,15.867,6.963,20.089
		c0.137-1.359,0.172-2.676,0.413-3.954c2.236-11.886,11.229-20.446,23.387-22.076c10.938-1.467,20.807,0.701,28.347,9.41
		c8.153,9.417,7.679,22.86-1.361,30.63c-2.956,2.54-6.923,3.904-10.282,5.728c2.029,0.783,4.52,1.709,6.982,2.702
		c4.95,1.996,9.954,1.736,14.916,0.211c11.086-3.407,17.536-15.02,18.055-25.417c0.482-9.661-3.105-17.881-9.169-25.24
		C370.886,56.089,367.568,49.854,366.901,42.192z M257.451,96.625c1.181-0.967,2.057-1.706,2.954-2.417
		c9.371-7.436,12.396-17.363,10.579-28.759c-0.91-5.7-3.481-11.271-8.664-14.199c-7.645-4.32-15.698-4.315-23.257,0.761
		c-6.891,4.627-8.619,12.648-4.373,19.667c2.37,3.916,8.4,6.173,12.365,4.182c1.543-0.775,3.16-2.602,3.492-4.208
		c0.259-1.25-1.24-3.052-2.3-4.325c-0.816-0.98-2.209-1.458-3.265-2.267c-2.301-1.761-2.159-3.42,0.354-4.915
		c3.402-2.022,8.541-1.063,11.122,2.251c3.515,4.511,3.829,9.427,1.443,14.56c-2.863,6.163-8.466,9.123-14.064,12.165
		c-10.544,5.729-21.133,11.395-31.471,17.48c-4.449,2.619-7.634,6.757-8.499,12.107c-0.418,2.587-0.823,5.338,1.735,7.353
		c4.358,3.431,8.668,6.921,12.552,10.028c0.763-2.781,1.523-6.217,2.649-9.528c2.534-7.452,8.737-10.78,15.474-8.085
		c2.101-3.391,4.114-6.943,6.433-10.282c1.661-2.392,3.675-4.55,5.645-6.711c1.074-1.178,2.271-1.393,3.593-0.028
		c2.099,2.166,4.355,4.177,6.662,6.362c8.089-10.736,18.241-14.793,31.027-9.113c4.369,1.94,8.519,4.292,10.398,9.349
		c1.707,4.593,2.295,9.169,1.408,13.678c5.062-1.426,10.069-2.835,15.142-4.264c-0.166-0.578-0.318-1.264-0.558-1.918
		c-3.903-10.7-9.36-20.216-19.803-25.923c-4.307-2.354-8.783-3.624-13.813-3.065c-6.348,0.705-11.771,3.164-16.581,7.298
		C263.627,95.756,261.199,97.488,257.451,96.625z M404.021,176.581c1.341,1.014,2.169,1.832,3.152,2.354
		c7.425,3.938,15.011,4.581,22.853,1.162c10.074-4.393,16.985-11.575,18.676-22.607c0.923-6.018,1.006-12.27,0.606-18.358
		c-0.528-8.035-1.367-15.977,2.079-23.861c-6.024-0.173-11.59-1.4-16.571-4.241c-5.485-3.128-10.593-6.915-16.063-10.071
		c-10.456-6.032-21.273-6.805-31.6-0.075c-6.955,4.533-11.459,11.466-14.084,19.314c-1.358,4.062-1.286,8.382,1.628,12.263
		c3.256-6.932,7.833-12.319,15.1-14.536c12.832-3.914,26.364,1.456,33.063,13.125c6.473,11.275,6.854,22.774-0.493,33.792
		C418.204,171.081,411.711,174.386,404.021,176.581z M370.121,403.077c-2.777,0-5.516-0.072-8.25,0.013
		c-14.819,0.457-26.308-7.817-30.197-22.072c-1.035-3.794-1.381-7.775-2.09-11.945c-7.886,3.842-16.274,5.085-25.001,2.941
		c-8.482-2.083-16.245-5.351-21.091-13.517c-0.297,3.882-0.234,7.581-0.92,11.135c-1.564,8.099-6.736,13.582-13.844,17.286
		c-5.868,3.06-11.649,6.235-16.371,10.935c-1.65,1.644-2.667,1.188-3.884-0.238c-1.202-1.407-2.416-2.805-3.607-4.186
		c-3.679,1.998-7.117,3.856-10.547,5.73c-6.59,3.599-12.01,8.178-14.317,15.763c-3.012,9.905,1.965,18.498,12.023,20.041
		c1.886,0.29,3.906-0.294,6.349-0.52c-1.115-2.056-2.012-3.372-2.583-4.816c-3.198-8.091,2.349-18.344,11.595-20.753
		c3.855-1.005,7.856-1.47,11.804-2.107c10.192-1.648,18.652-6.078,24.868-14.621c3.632-4.989,8.586-8.61,14.359-10.801
		c14.307-5.427,26.451,4.61,27.947,15.09c0.258,1.806,0.961,3.629,1.815,5.255c5.393,10.262,14.349,14.146,25.458,13.596
		C360.866,414.929,368.103,409.368,370.121,403.077z M89.254,223.042c0.291-0.038,0.583-0.077,0.874-0.115
		c-1.419-4.631-2.569-9.368-4.35-13.854c-1.255-3.16-4.087-5.078-7.409-6.087c-7.126-2.166-13.513-0.157-19.059,4.141
		c-9.215,7.14-12.327,17.063-10.978,28.298c0.963,8.019,5.402,13.656,13.552,15.704c3.098,0.779,6.266,1.308,9.424,1.815
		c7.349,1.18,12.679,5.336,13.675,11.958c0.591,3.93,0.42,8.293-0.693,12.085c-1.763,6.007,0.17,9.825,4.988,13.09
		c5.996,4.063,12.075,8.093,15.639,14.277c1.482-4.58,2.709-9.219,4.487-13.636c1.875-4.654,5.689-7.737,10.095-10.132
		c-3.069-1.267-5.906-2.316-8.641-3.587c-9.247-4.298-15.748-10.964-17.688-21.303c-1.001-5.331-1.818-10.701-2.559-16.075
		c-0.742-5.382-4-9.015-8.131-12.006c-0.961-0.695-2.412-0.714-3.638-1.044c-0.222,1.227-0.677,2.464-0.621,3.677
		c0.132,2.822-0.261,5.384-2.702,7.148c-2.195,1.587-4.596,1.326-6.866,0.236c-3.581-1.721-5.857-6.352-5.248-10.321
		c1.334-8.69,9.487-12.947,17.731-9.084C83.971,219.556,86.555,221.422,89.254,223.042z M194.168,200.196
		c-3.61-3.306-7.147-6.566-10.706-9.802c-11.02-10.022-23.409-13.654-37.612-7.617c-11.805,5.019-18.823,16.651-14.333,29.275
		c8.25,23.194,34.384,23.396,46.62,13.347c2.691-2.21,4.839-4.911,5.215-8.426c1.104-10.333-7.76-21.102-18.133-21.744
		c-5.056-0.313-7.665,1.005-8.414,5.693c-0.42,2.634,0.558,4.958,2.659,6.292c2.642,1.678,5.643,2.791,8.49,4.146
		c2.287,1.088,2.855,3.369,1.091,5.17c-0.892,0.91-2.108,1.693-3.321,2.061c-5.505,1.664-9.951-0.257-13.598-4.424
		c-3.108-3.554-4.178-7.703-2.713-12.167c1.7-5.183,5.208-8.88,10.797-9.559c11.385-1.382,22.979,5.324,25.706,16.921
		c0.131,0.559,0.439,1.076,0.718,1.738c2.493-3.489,4.868-6.81,7.236-10.135C193.966,200.828,193.997,200.644,194.168,200.196z
		 M315.77,211.226c1.182-5.36,2.531-7.934,6.246-12.024c7.253-7.986,16.959-9.525,25.194-3.993
		c7.203,4.838,9.104,14.323,4.165,20.783c-3.503,4.581-11.721,5.625-16.192,2.101c-1.838-1.449-2.447-3.241-1.729-5.437
		c0.693-2.122,2.329-2.766,4.418-2.632c1.068,0.069,2.144,0.026,3.212,0.099c2.517,0.171,4.594-0.359,5.637-3.013
		c1.027-2.614,1.462-5.076-0.541-7.506c-4.451-5.398-12.182-6.491-17.639-2.059c-2.52,2.046-4.832,4.542-6.634,7.238
		c-4.825,7.214-3.194,15.942,3.42,21.54c9.106,7.706,31.311,9.261,41.256-6.762c5.703-9.188,6.244-19.069,0.882-26.633
		c-9.457-13.34-24.311-15.866-37.746-10.701c-6.016,2.313-10.652,6.751-15.266,11.097c-2.307,2.172-4.478,4.488-6.575,6.604
		C310.634,203.873,313.119,207.431,315.77,211.226z M221.266,403.898c-1.258,0.428-1.946,0.578-2.555,0.889
		c-0.952,0.483-1.909,0.994-2.758,1.634c-6.751,5.082-9.872,12.015-9.016,20.271c0.918,8.857,5.292,15.929,13.598,19.754
		c6.836,3.147,14.026,5.461,20.942,8.506c7.534,3.317,15.428,3.104,22.711-1.731c1.649-1.095,3.622-1.72,5.48-2.476
		c2.611-1.063,5.488-1.67,7.846-3.129c10.677-6.604,14.238-22.896,2.488-32.242c-8.502-6.762-17.551-7.061-27.08-2.646
		c-6.955,3.221-9.155,10.864-5.929,17.415c1.556,3.156,4.154,5.099,7.494,5.246c1.897,0.083,4.293-0.791,5.673-2.081
		c1.53-1.429,1.625-3.794,0.329-5.905c-0.405-0.658-0.696-2.11-0.393-2.338c0.774-0.582,2.035-1.107,2.879-0.868
		c1.282,0.363,2.664,1.155,3.498,2.179c2.959,3.628,1.929,9.268-2.098,12.572c-5.787,4.751-15.801,4.913-21.655,0.125
		c-1.717-1.405-3.127-1.569-5.25-1.093c-13.833,3.11-23.921-7.075-22.755-19.889C215.196,412.814,217.677,408.45,221.266,403.898z
		 M308.786,301.165c9.337,12.822,23.019,22.288,40.383,20.939c8.414-0.653,14.502-4.696,17.827-12.433
		c4.865-11.315,2.252-22.67-7.149-31.956c-7.732-7.638-16.924-11.307-27.872-9.896c-5.242,0.676-9.254,2.811-10.413,8.613
		c-0.795,3.98-2.836,7.878-2.842,11.814c-0.013,8.702,7.543,15.437,16.285,15.342c3.467-0.037,6.521-0.946,8.047-4.561
		c1.182-2.796,0.646-6.465-1.331-8.489c-1.969-2.016-3.841-0.887-5.803,0.056c-1.883,0.904-3.44,0.315-4.661-1.355
		c-2.869-3.928-0.44-8.828,4.916-9.854c3.364-0.644,6.404,0.463,9.168,2.14c5.189,3.148,7.702,7.879,7.064,13.955
		c-0.613,5.841-3.716,9.856-9.451,11.695c-6.533,2.096-12.63,1.166-18.411-2.414c-4.626-2.864-7.712-6.923-9.333-12.512
		C312.91,295.442,310.896,298.236,308.786,301.165z M186.799,292.048c-1.826,6.3-5.805,10.399-11.118,13.325
		c-6.564,3.615-13.187,3.361-19.631-0.146c-6.295-3.427-7.796-12.783-3.355-19.575c3.563-5.451,9.233-7.548,15.003-5.529
		c2.463,0.86,3.332,2.647,3.163,5.192c-0.16,2.406-1.715,2.411-3.533,2.583c-3.705,0.351-5.279,1.992-5.724,5.513
		c-0.534,4.231,0.819,7.016,4.075,8.384c4.979,2.091,10.624,0.64,14.361-3.965c2.712-3.343,4.55-7.275,3.364-11.599
		c-1.289-4.697-3.293-9.199-4.978-13.788c-1.452-3.956-4.457-5.372-8.48-5.668c-6.359-0.468-12.063,1.448-17.79,3.88
		c-8.764,3.722-19.196,15.611-17.776,29.468c1.159,11.302,9.697,20.138,21.045,20.97c16.489,1.209,27.731-8.049,38.032-18.998
		C191.196,298.682,189.108,295.531,186.799,292.048z M280.824,179.263c-0.418-7.64,1.698-14.16,5.508-19.987
		c3.692-5.65,7.73-11.116,12.043-16.31c4.844-5.832,11.339-8.368,18.981-7.937c12.906,0.727,18.24,12.572,13.805,21.421
		c-1.553,3.097-3.214,6.158-4.49,9.37c-3.779,9.511-9.963,16.787-19.271,21.209c-2.762,1.312-5.666,2.322-8.605,3.511
		c2.454,2.385,4.769,4.633,6.607,6.419c6.391-5.355,12.883-10.729,19.301-16.191c5.687-4.839,11.843-9.281,16.792-14.794
		c6.104-6.798,8.408-15.198,5.814-24.367c-4.266-15.086-21.348-21.774-33.209-19.379c-16.716,3.375-27.786,13.845-33.934,29.456
		c-3.117,7.914-4.597,16.469-9.481,23.876C273.98,176.763,277.188,177.935,280.824,179.263z M203.746,190.438
		c-4.438-1.937-9.192-3.607-13.549-6.001c-7.486-4.113-12.329-10.73-15.464-18.53c-1.81-4.503-3.514-9.125-4.529-13.851
		c-1.292-6.014,1.507-11.286,6.806-14.481c6.588-3.972,17.389-2.934,23.054,3.14c10.15,10.882,20.045,22.098,20.354,38.561
		c3.168-1.281,6.088-2.463,8.837-3.574c-1.618-4.432-3.475-8.511-4.583-12.785c-1.825-7.031-4.287-13.742-8.208-19.863
		c-8.67-13.535-20.471-21.631-37.14-20.972c-13.848,0.548-24.786,12.167-24.481,26.011c0.222,10.124,5.056,18.108,12.454,24.508
		c9.758,8.441,19.818,16.535,29.089,24.229C198.927,194.623,201.606,192.296,203.746,190.438z M282.494,322.139
		c-0.806,0.363-1.8,1.05-2.884,1.254c-2.592,0.487-2.985,2.126-2.539,4.285c1.006,4.87,1.75,9.82,3.141,14.58
		c4.833,16.543,20.599,31.854,41.612,25.968c7.428-2.081,13.275-7.527,14.431-15.073c1.547-10.103-1.188-19.366-7.857-26.836
		c-6.947-7.779-14.854-14.702-22.317-21.977c-3.038,2.841-5.921,5.535-8.792,8.22c7.506,2.418,13.528,6.822,17.636,13.447
		c3.383,5.456,6.185,11.306,5.899,17.984c-0.409,9.626-6.641,13.773-15.621,10.415c-7.005-2.619-12.104-7.524-15.226-14.24
		C287.285,334.379,285.06,328.375,282.494,322.139z M196.44,305.207c-5.802,5.015-11.583,9.89-17.227,14.919
		c-7.732,6.89-13.175,14.941-12.657,25.913c0.413,8.72,4.245,15.694,11.888,19.608c8.617,4.413,17.671,3.706,26.104-1.07
		c15.631-8.854,19.819-23.649,20.769-40.121c-1.344-0.521-2.328-0.935-3.333-1.287c-4.02-1.41-3.667-1.275-5.141,2.817
		c-1.975,5.483-4.194,10.95-6.998,16.044c-2.779,5.049-6.961,9.021-12.555,11.106c-6.487,2.419-11.333,0.557-13.85-5.809
		c-1.003-2.537-1.41-5.605-1.079-8.309c0.616-5.046,2.351-9.842,5.412-14.049c4.357-5.987,10.279-9.657,17.406-11.707
		C202.133,310.455,199.208,307.759,196.44,305.207z M65.866,324.309c2.61,17.558,20.812,24.072,32.894,17.671
		c1.72-0.911,3.291-2.111,5.039-2.954c0.671-0.323,2.028-0.349,2.384,0.072c0.479,0.567,0.513,1.745,0.332,2.572
		c-0.222,1.012-0.869,1.928-1.321,2.891c-0.943,2.009-1.105,4.031,0.497,5.738c1.688,1.797,3.925,2.671,6.288,1.827
		c2.979-1.063,5.811-2.537,8.714-3.813c2.906-1.278,5.745-2.781,8.758-3.713c2.219-0.686,4.672-0.61,7.021-0.873
		c-14.892-5.431-25.134-15.202-30.495-30.148c-2.543-7.091-7.761-11.816-14.919-14.279c-9.002-3.097-19.608,1.527-19.729,12.415
		c-0.048,4.341,3.042,9.836,6.859,11.152c2.865,0.987,4.685-0.429,4.357-3.394c-0.346-3.136,1.217-5.28,4.381-6.012
		c3.463-0.8,6.886,0.822,7.782,3.922c1.074,3.714,0.585,7.238-1.988,10.29c-4.885,5.795-14.127,7.06-20.274,2.586
		C70.109,328.56,68.126,326.378,65.866,324.309z M251.964,378.237c-3.185-3-6.074-5.51-8.72-8.256
		c-6.36-6.604-10.293-14.474-9.997-23.713c0.171-5.35,1.593-10.697,2.83-15.957c0.483-2.056,0.486-2.878-1.797-3.131
		c-1.787-0.198-3.526-0.84-5.335-1.296c-1.432,7.63-2.908,15.218-4.271,22.825c-1.943,10.856-0.241,20.995,7.625,29.082
		c5.72,5.88,12.258,10.964,18.529,16.489c0.053-0.035,0.379-0.197,0.634-0.436c6.115-5.731,12.363-11.33,18.286-17.254
		c4.905-4.904,8.519-10.837,8.31-17.954c-0.194-6.631-1.369-13.245-2.322-19.836c-0.631-4.351-1.635-8.647-2.471-12.966
		c-3.115,0.867-5.894,1.641-8.551,2.38c0.979,3.035,2.015,5.783,2.75,8.61c2.124,8.17,3.412,16.476-1.771,23.944
		C261.499,366.811,256.615,372.37,251.964,378.237z M169.666,323.845c-4.424,0.635-9.21,1.874-14.005,1.904
		c-13.807,0.088-23.917-7.169-27.917-19.724c-1.977-6.207-1.424-12.543,0.42-18.697c0.678-2.261-0.274-2.914-2.041-3.349
		c-3.688-0.907-6.504,0.566-9.125,3.075c-9.461,9.051-8.464,24.815-3.562,33.008c7.907,13.211,19.873,20.335,34.92,22.276
		c6.83,0.88,12.44-1.52,15.768-8.024C166.023,330.601,168.025,326.938,169.666,323.845z M355.86,269.091
		c2.205,1.972,5.148,4.393,7.841,7.067c3.402,3.38,7.214,5.085,12.033,3.909c17.858-4.356,29.418-21.407,21.227-39.937
		c-4.271-9.662-11.372-16.227-21.849-18.741c-2.399-0.576-4.486-0.287-6.235,1.816c-3.536,4.254-7.383,8.185-12.838,10.162
		c0.381,0.255,0.681,0.297,0.979,0.352c5.225,0.969,10.624,1.405,15.634,3.035c7.371,2.398,11.453,9.456,10.886,17.16
		c-0.533,7.241-5.714,13.161-13.475,14.403C365.129,269.107,360.035,268.895,355.86,269.091z M249.756,122.44
		c8.381,6.437,14.652,13.478,17.045,23.202c2.419,9.83,1.191,19.06-5.453,27.29c1.226,0.327,2.125,0.459,2.935,0.803
		c2.263,0.961,3.594,0.317,4.511-2.001c1.373-3.468,3.153-6.775,4.504-10.25c4.488-11.546,4.057-22.671-3.489-32.916
		c-3.481-4.728-7.237-9.258-10.974-13.791c-2.692-3.267-5.56-6.39-8.487-9.735c-5.447,6.909-10.593,13.262-15.534,19.771
		c-2.672,3.521-5.813,7.001-7.327,11.032c-5.046,13.438-0.593,25.663,6.068,37.359c0.291,0.511,1.318,0.922,1.949,0.857
		c1.478-0.151,2.923-0.62,4.421-0.97c-1.318-2.532-2.693-4.825-3.746-7.257c-4.177-9.652-4.508-19.276,1.564-28.234
		C241.357,132.267,245.741,127.456,249.756,122.44z M375.189,217.354c0.699,0.19,1.206,0.343,1.719,0.465
		c7.456,1.775,14.217-0.765,17.02-6.99c2.581-5.732,3.585-12.108,1.181-17.951c-5.201-12.64-13.495-22.609-27.068-27.034
		c-7.765-2.531-15.44-2.95-22.449,2.121c-2.554,1.847-4.745,4.193-7.102,6.313c-0.036,0.25-0.071,0.5-0.107,0.749
		c12.508-2.878,22.966,0.804,31.152,9.969C377.921,194.382,379.273,205.41,375.189,217.354z M291.479,184.612
		c2.262,2.719,4.721,3.249,8.101,2.061c9.828-3.454,17.651-9.144,22.381-18.621c2.599-5.208,3.896-10.663,2.738-16.5
		c-0.484-2.438-1.368-4.856-3.878-5.705c-6.848-2.316-13.86-2.021-19.771,2.015c-10.359,7.073-16.045,17.139-16.53,29.908
		c-0.111,2.954,0.83,4.962,3.825,5.703c5.394-9.399,11.917-17.866,18.679-26.153c0.411,0.279,0.821,0.557,1.232,0.835
		C304.634,168.108,296.421,175.288,291.479,184.612z M144.206,232.868c-1.606-1.041-4.314-2.579-6.764-4.455
		c-1.821-1.395-3.571-3.041-4.875-4.908c-1.673-2.394-3.68-2.52-6.035-1.707c-1.757,0.606-3.512,1.278-5.16,2.132
		c-11.933,6.177-17.395,18.747-14.567,33.388c2.093,10.837,9.802,18.067,20.989,20.959c5.219,1.349,9.13,1.175,12.316-3.527
		c0.812-1.198,2.295-1.944,3.48-2.885c1.071-0.849,2.158-1.68,3.826-2.975c-1.208,0.151-1.627,0.189-2.042,0.258
		c-9.306,1.533-19.683-1.799-22.76-13.159c-2.114-7.806-0.12-16.14,7.415-19.365C134.743,234.605,140.031,233.929,144.206,232.868z
		 M163.394,175.138c-0.274-0.621-0.322-0.916-0.494-1.09c-9.505-9.692-20.697-12.175-33.03-6.055
		c-9.727,4.827-16.308,12.916-21.067,22.405c-4.606,9.185-2.938,18.945,3.757,25.628c3.315,3.31,8.082,4.078,11.838,1.708
		c-3.832-12.079-1.225-23.021,7.216-32.379C140.013,176.042,150.289,171.599,163.394,175.138z M192.428,158.542
		c0.426-0.301,0.852-0.602,1.278-0.903c1.688,1.723,3.612,3.274,5.022,5.2c4.682,6.393,9.162,12.933,13.777,19.377
		c0.39,0.544,1.372,1.232,1.781,1.075c0.78-0.299,1.439-1.092,1.959-1.815c0.268-0.373,0.155-1.037,0.17-1.572
		c0.328-11.319-3.623-21.01-12.426-28c-5.715-4.538-12.148-8.574-20.316-6.823c-3.933,0.843-6.698,3.178-6.745,7.28
		c-0.043,3.873-0.021,8.01,1.238,11.584c4.662,13.229,14.726,20.295,28.149,22.968c1.174,0.233,2.496-0.273,4.397-0.521
		c-1.136-1.913-1.839-3.317-2.743-4.579c-4.462-6.232-9.027-12.391-13.436-18.66C193.578,161.797,193.116,160.09,192.428,158.542z
		 M178.224,230.036c-1.551,0.808-3.212,1.788-4.964,2.563c-6.262,2.773-12.88,3.021-19.602,2.816
		c-7.463-0.229-13.87,2.243-17.446,9.12c-3.9,7.501-3.118,12.977,3.828,17.882c4.95,3.497,10.212,3.502,15.583,2.116
		c7.171-1.85,14.162-2.181,21.06,0.98c0.064-0.321,0.15-0.501,0.125-0.664c-0.299-1.936-0.623-3.866-0.924-5.801
		c-0.637-4.094-0.938-4.365-5.182-4.583c-0.445-0.022-0.896,0.022-1.338-0.021c-5.486-0.523-10.98-0.987-16.449-1.656
		c-0.913-0.112-1.714-1.124-2.567-1.72c0.141-0.291,0.282-0.581,0.422-0.872c8.305-2.138,16.531-0.66,24.477,0.813
		C176.241,244.009,177.236,236.997,178.224,230.036z M324.535,266.288c6.457-3.261,12.788-3.138,19.225-2.381
		c3.771,0.444,7.6,1.095,11.348,0.843c4.843-0.325,9.087-2.513,10.815-7.423c1.804-5.126,1.64-10.302-2.362-14.499
		c-4.038-4.234-9.271-6.18-15.035-6.584c-9.1-0.638-18.496-0.13-25.434-7.251c1.146,7.491,2.302,15.053,3.445,22.527
		c7.248-2.644,14.77-2.729,22.352-1.73c0.907,0.12,1.716,0.992,2.57,1.516c-0.085,0.271-0.17,0.543-0.255,0.814
		c-2.61,0.435-5.208,0.967-7.832,1.28c-5.12,0.611-10.261,1.044-15.374,1.703c-0.712,0.092-1.747,0.954-1.891,1.62
		C325.459,259.75,325.075,262.835,324.535,266.288z M103.269,263.313c-5.556-16.988,0.468-30.455,12.93-42.275
		c-1.047-0.558-1.876-0.978-2.685-1.436c-2.951-1.672-6.103-3.225-7.52-6.543c-3.925-9.193-4.664-18.457,0.265-27.54
		c2.017-3.717,4.456-7.205,6.748-10.87c-2.758,0.616-5.795,0.822-8.426,1.964c-10.484,4.55-17.309,16.924-14.973,28.446
		c2.648,13.061,4.578,26.267,6.813,39.412C97.554,251.133,99.046,257.662,103.269,263.313z M252.546,328.865
		c-0.833,10.242,0.746,19.906-1.611,29.352c-3.153-9.528-1.18-19.368-2.078-29.036c-2.614-0.156-5.092-0.374-7.571-0.4
		c-0.531-0.006-1.41,0.573-1.555,1.056c-2.05,6.829-3.978,13.679-2.677,20.952c1.703,9.514,6.943,16.741,14.868,22.901
		c3.167-4.13,6.607-8.107,9.478-12.462c6.804-10.32,5.263-20.762-0.243-31.06c-0.316-0.594-1.192-1.198-1.848-1.244
		C257.11,328.769,254.895,328.865,252.546,328.865z M251.885,172.323c4.792,2.1,6.95-0.774,9.114-4.288
		c5.592-9.083,4.806-18.363,0.292-27.262c-2.623-5.169-6.77-9.565-9.637-13.496c-2.243,1.771-4.232,3.047-5.862,4.682
		c-5.055,5.072-7.863,11.304-9.104,18.322c-1.3,7.361,1.785,13.591,5.028,19.747c1.81,3.435,2.606,3.69,6.318,2.651
		c0.657-0.185,1.496-1.205,1.529-1.875c0.123-2.576-0.124-5.166-0.094-7.748c0.09-7.793,0.245-15.585,0.375-23.378
		c0.327-0.001,0.653-0.002,0.98-0.003C252.218,150.579,252.59,161.53,251.885,172.323z M281.975,137.965
		c4.932-4.36,9.902-8.745,14.853-13.154c0.383-0.341,0.777-0.809,0.896-1.286c1.707-6.838,0.651-15.432-6.472-19.5
		c-3.014-1.72-6.478-3.024-9.891-3.594c-8.126-1.356-14.893,1.503-19.943,8.037c-0.575,0.744-0.76,2.36-0.348,3.184
		c0.979,1.966,2.522,3.642,3.652,5.546c0.928,1.563,1.947,1.613,3.424,0.867c3.345-1.691,5.462-1.127,7.574,1.868
		C279.604,125.442,281.777,131.537,281.975,137.965z M131.825,402.57c1.557,8.684,13.785,13.82,21.037,10.874
		c6.883-2.797,10.567-8.114,12.438-15.025c2.696-9.961-2.981-23.881-11.907-28.676c-3.433-1.845-7.184-2.433-10.703-0.268
		c-2.716,1.671-3.232,4.528-3.032,7.534c0.203,3.045,1.8,3.92,4.637,2.912c1.5-0.532,3.362-0.951,4.815-0.544
		c6.438,1.804,9.513,10.651,5.822,16.199c-2.546,3.827-6.014,6.483-10.605,6.914C140.277,402.871,136.163,402.57,131.825,402.57z
		 M184.792,117.697c5.3,1.533,10.208,2.953,15.004,4.34c-0.299-8.777,3.986-15.882,11.095-20.895
		c6.24-4.4,13.277-7.671,20.142-11.541c-3.827-0.592-7.402-1.365-11.016-1.65c-5.062-0.399-10.089-0.429-14.838,2.116
		C193.862,96.133,189.032,106.793,184.792,117.697z M217.319,320.92c-1.411-0.743-2.496-1.078-3.271-1.763
		c-3.964-3.503-8.1-2.617-12.443-0.848c-7.373,3.005-15.381,11.898-14.196,20.652c0.683,5.044,4.631,8.305,9.734,7.548
		c6.099-0.905,8.513-4.021,7.205-9.662c-0.569-2.457-0.028-4.411,1.663-6.102c1.575-1.575,3.21-3.098,4.896-4.555
		C212.909,324.461,214.993,322.824,217.319,320.92z M284.872,320.997c3.583,3.285,6.873,6.278,10.135,9.302
		c2.564,2.377,4.159,5.103,3.099,8.791c-0.161,0.562-0.044,1.238,0.071,1.837c0.865,4.489,7.132,6.722,11.699,4.186
		c4.367-2.426,6.06-6.146,4.419-11.335c-3.013-9.533-9.96-15.05-19.336-17.767c-0.694-0.201-1.667-0.176-2.269,0.168
		C290.077,317.673,287.554,319.324,284.872,320.997z"/>
	<path fill-rule="evenodd" clip-rule="evenodd" d="M319.177,269.307c-4.143,2.211-8.023,4.182-11.784,6.358
		c-0.944,0.547-1.778,1.642-2.206,2.675c-3.839,9.279-9.674,17.036-17.785,22.928c-1.836,1.334-2.766,2.775-3.248,4.819
		c-0.833,3.526-1.755,7.031-2.766,11.044c-3.733-1.682-7.075-3.069-10.304-4.684c-2.086-1.044-3.966-1.326-6.333-0.685
		c-9.364,2.54-18.759,3.01-28.146-0.22c-1.128-0.388-2.772,0.176-3.994,0.715c-3.784,1.671-7.479,3.541-11.475,5.463
		c-1.316-4.636-2.354-8.757-3.706-12.772c-0.424-1.259-1.498-2.514-2.609-3.293c-8.887-6.237-15.263-14.326-18.798-24.642
		c-0.29-0.846-1.14-1.74-1.958-2.121c-2.9-1.351-5.909-2.464-8.854-3.722c-0.708-0.303-1.324-0.818-2.414-1.51
		c2.026-3.237,3.667-6.52,5.935-9.286c1.983-2.419,2.114-4.935,1.936-7.707c-0.589-9.151,0.67-18.057,5.259-26.027
		c2.176-3.778,2.143-7.03,0.837-10.782c-0.8-2.297-1.341-4.685-2.164-7.623c3.56,0,6.57-0.223,9.528,0.073
		c2.259,0.226,3.765-0.225,5.307-2.013c8.418-9.763,19.334-14.837,31.95-16.643c0.914-0.131,2.001-0.787,2.531-1.536
		c1.747-2.47,3.244-5.113,4.895-7.654c1.357-2.091,2.369-2.169,3.864-0.168c1.921,2.569,3.64,5.289,5.57,7.85
		c0.52,0.689,1.461,1.423,2.26,1.486c12.766,1.01,22.716,7.294,30.953,16.614c1.454,1.646,2.704,2.377,4.873,2.237
		c3.277-0.212,6.578-0.056,10.295-0.056c-0.2,1.237-0.268,2.25-0.539,3.205c-0.824,2.903-1.879,5.752-2.53,8.69
		c-0.285,1.282-0.222,2.959,0.388,4.07c5.037,9.172,7.005,18.939,6.333,29.338c-0.076,1.175,0.471,2.544,1.114,3.584
		C313.858,261.299,316.482,265.186,319.177,269.307z M250.326,184c-3.641,5.884-7.308,11.142-10.283,16.764
		c-5.204,9.834-5.87,19.632,1.391,29.044c2.367,3.066,2.158,3.227,5.81,1.662c-0.324-10.365-1.073-20.831,3.75-31.12
		c2.454,5.243,4.126,10.146,4.032,15.382c-0.094,5.199-0.676,10.391-1.066,15.911c1.065,0.161,2.517,0.455,3.982,0.562
		c0.505,0.037,1.314-0.242,1.527-0.628c3.855-6.998,6.365-14.287,5.022-22.485C262.888,199.309,257.137,191.912,250.326,184z
		 M299.375,263.4c-8.855,2.334-17.174,1.935-25.412-1.23c-4.324-1.661-4.376-1.531-6.46,2.484c-0.073,0.141-0.067,0.321-0.098,0.476
		c13.856,13.663,30.63,12.926,46.113,2.922c-2.508-5.816-6.258-10.807-11.13-14.744c-2.764-2.232-6.136-3.879-9.467-5.206
		c-7.039-2.804-13.627-0.155-20.064,2.499c-0.803,0.33-1.09,1.915-1.896,3.455C281.869,254.218,290.865,257.392,299.375,263.4z
		 M229.39,254.506c1.017-2.722,0.162-4.054-2.404-4.575c-1.816-0.369-3.551-1.113-5.349-1.59
		c-15.182-4.025-28.151,6.449-32.905,20.183c4.239,1.798,8.457,3.663,12.732,5.386c10.881,4.387,20.53,2.414,28.958-5.733
		c3.089-2.985,3.155-3.367,0.616-7.106c-8.525,3.096-17.156,5.476-26.445,3.288C211.397,257.426,219.688,254.257,229.39,254.506z
		 M250.411,235.152c-9.229-0.409-16.911,9.138-16.636,16.792c0.394,10.964,7.127,17.993,17.285,17.404
		c9.497-0.551,17.091-6.997,16.547-17.827C267.105,241.56,259.775,234.864,250.411,235.152z M278.986,311.411
		c0.689-2.359,1.434-4.709,2.063-7.089c3.926-14.879-0.71-26.624-13.518-34.33c-3.535-2.126-3.807-2.091-5.963,0.784
		c6.095,5.594,11.634,20.116,10.535,28.817c-3.04-3.979-6.075-7.237-8.256-10.991c-2.613-4.496-4.595-9.375-6.644-14.176
		c-0.744-1.744-1.773-1.779-3.32-1.646c-1.719,0.148-1.66,1.112-1.608,2.376c0.102,2.493-0.07,5.002,0.131,7.484
		C253.676,298.369,263.554,306.799,278.986,311.411z M245.012,272.85c-2.893,9.802-6.752,18.841-15.199,25.095
		c0.52-10.308,2.917-19.861,10.54-28.112c-1.791-0.347-3.613-1.316-4.5-0.77c-5.4,3.33-10.669,7.062-13.386,13.039
		c-4.58,10.081-3.038,20.096,1.199,30.313c1.913-0.757,3.851-1.339,5.617-2.254c8.504-4.407,16.121-9.862,18.523-19.796
		c1.113-4.604,1.277-9.477,1.509-14.244C249.47,272.899,248.939,272.694,245.012,272.85z M211.075,221.673
		c10.214,3.242,17.851,9.188,24.568,16.223c3.591-2.457,4.042-2.927,3.242-4.294c-2.962-5.06-5.678-10.304-10.313-14.172
		c-8.426-7.032-18.418-7.419-28.674-7.032c4.18,22.579,9.694,30.62,30.486,34.795c0.55-1.431,1.109-2.887,1.73-4.503
		C223.174,237.95,216.09,231.318,211.075,221.673z M266.527,237.831c5.128-8.812,13.584-12.351,23.058-15.482
		c-0.386,0.937-0.485,1.265-0.647,1.558c-4.013,7.253-9.439,13.075-16.85,16.994c-3.216,1.702-3.25,2.314-1.267,5.614
		c18.787-2.063,27.993-15.027,30.771-34.417c-6.277-0.355-12.41,0.309-18.443,1.931c-7.502,2.017-13.864,5.549-17.247,13.051
		c-0.618,1.372-1.483,2.637-2.283,3.921c-1.85,2.969-1.71,3.811,1.118,5.823C265.301,237.225,265.948,237.509,266.527,237.831z
		 M232.681,218.102c-0.789-8.879,1.538-16.594,6.644-24.047c-10.665,2.167-19.669,6.095-26.67,14.657
		C220.519,209.877,226.55,213.789,232.681,218.102z M288.46,208.472c-6.665-7.795-15.108-12.851-25.906-14.52
		c4.617,6.98,6.619,14.395,6.372,22.08C275.438,213.512,281.843,211.033,288.46,208.472z M200.214,277.575
		c3.805,8.464,8.619,15.135,16.297,20.401c-0.379-7.456,0.764-13.811,4.338-20.059C213.955,280.255,207.435,279.737,200.214,277.575
		z M301.072,278.153c-6.525,0-12.771,0-18.848,0c0.976,3.193,2.27,6.309,2.823,9.551c0.57,3.337,0.419,6.798,0.587,10.302
		C292.386,292.618,297.627,286.023,301.072,278.153z M199.765,227.109c-4.335,8.271-6.104,16.366-5.237,25.314
		c5.412-4.417,10.949-7.63,18.261-8.647C205.674,240.175,202.761,233.986,199.765,227.109z M306.447,251.899
		c0.073-8.973-1.301-17.049-5.514-24.941c-2.863,6.865-6.551,12.517-13.175,16.555C295.243,244.291,300.931,247.355,306.447,251.899
		z M238.701,308.362c8.522,1.611,16.115,2.175,24.303-0.074c-5.788-4.145-9.366-9.194-12.142-15.44
		C248.289,299.301,244.698,304.29,238.701,308.362z M251.186,209.82c-1.64,3.738-1.854,19.197-0.388,21.604
		C252.45,224.047,252.165,216.927,251.186,209.82z M233.997,289.423c3.72-5.377,6.735-11.033,8.104-17.421
		C238.617,277.465,234.819,282.78,233.997,289.423z M271.751,257.09c-0.117,0.345-0.235,0.689-0.354,1.034
		c5.889,2.906,12.251,3.475,18.742,3.406c0.057-0.282,0.112-0.564,0.169-0.847C284.122,259.485,277.938,258.287,271.751,257.09z
		 M212.616,261.055c0.104,0.306,0.207,0.61,0.31,0.916c6.491-0.017,16.707-3.052,17.019-5.754
		C223.992,257.879,218.304,259.467,212.616,261.055z M218.752,227.315c-0.186,0.236-0.371,0.473-0.555,0.709
		c3.441,4.947,12.232,11.547,16.06,11.701C228.877,235.42,223.814,231.368,218.752,227.315z M260.212,273.166
		c-0.229,0.136-0.459,0.273-0.688,0.41c2.662,5.493,5.324,10.985,7.985,16.479c0.286-0.139,0.573-0.278,0.859-0.417
		C266.819,283.574,264.793,277.744,260.212,273.166z M282.535,227.954c-0.154-0.177-0.308-0.354-0.461-0.531
		c-3.92,3.086-7.839,6.171-11.759,9.257c0.19,0.239,0.38,0.479,0.57,0.719C275.848,235.625,279.484,232.163,282.535,227.954z"/>
	<path fill-rule="evenodd" clip-rule="evenodd" d="M258.79,252.233c0.005,4.629-3.603,8.064-8.409,8.008
		c-3.869-0.045-7.527-3.689-7.556-7.525c-0.033-4.521,3.744-8.295,8.335-8.329C255.488,244.355,258.785,247.746,258.79,252.233z"/>
</g>
</svg>
