<?xml version="1.0" encoding="utf-8"?>
<!-- Generator: Adobe Illustrator 16.0.0, SVG Export Plug-In . SVG Version: 6.00 Build 0)  -->
<!DOCTYPE svg PUBLIC "-//W3C//DTD SVG 1.1//EN" "http://www.w3.org/Graphics/SVG/1.1/DTD/svg11.dtd">
<svg version="1.1" id="Layer_1" xmlns="http://www.w3.org/2000/svg" xmlns:xlink="http://www.w3.org/1999/xlink" x="0px" y="0px"
	 width="500px" height="500px" viewBox="0 0 500 500" enable-background="new 0 0 500 500" xml:space="preserve">
<g>
	<path fill-rule="evenodd" clip-rule="evenodd" d="M97.034,168.861c-8.229-4.441-16.315-8.78-24.373-13.172
		c-1.644-0.896-3.537-1.72-3.078-4.218c0.355-1.933,1.789-2.59,3.462-1.639c8.652,4.918,17.318,9.814,26.3,14.9
		c1.826-3.096,3.592-6.088,5.665-9.602c-13.713-9.723-27.561-19.537-41.4-29.362c-1.007-0.715-2.278-1.334-2.835-2.329
		c-0.553-0.987-0.848-2.695-0.338-3.52c0.407-0.657,2.54-1.025,3.309-0.551c4.12,2.537,8.136,5.264,12.032,8.136
		c9.409,6.934,18.732,13.985,28.088,20.991c1.275,0.954,2.539,1.922,3.892,2.946c2.401-3.156,4.687-6.159,7.083-9.308
		c-6.703-5.534-13.415-11.075-20.129-16.615c-0.808-0.667-1.6-1.356-2.443-1.976c-1.496-1.099-2.394-2.774-1.104-4.067
		c0.677-0.679,3.161-0.48,4.157,0.246c4.145,3.018,8.035,6.386,12.018,9.626c3.54,2.88,7.078,5.761,10.917,8.887
		c5.306-5.547,10.688-11.174,15.936-16.659c-6.289,0.133-12.259-2.129-17.962-5.629c-7.945-4.878-12.059-12.453-15.09-20.751
		c-4.664-12.762-4.465-25.83-1.766-38.966c0.391-1.902,1.792-2.413,3.459-2.102c6.89,1.288,13.92,2.132,20.605,4.125
		c8.361,2.492,16.234,6.272,22.944,12.145c9.305,8.143,13.942,18.027,11.985,30.551c-0.098,0.621-0.013,1.27-0.013,1.705
		c6.275-3.298,12.53-6.586,19.216-10.1c-4.302-7.867-8.804-16.107-13.314-24.343c-0.319-0.583-0.73-1.117-1.041-1.705
		c-0.876-1.658-0.837-3.447,0.984-4.071c0.874-0.299,2.761,0.645,3.355,1.564c1.946,3.011,3.531,6.257,5.214,9.435
		c3.098,5.849,6.167,11.713,9.282,17.636c2.465-0.921,5-1.867,7.533-2.815c1.899-0.711,1.5-1.977,0.964-3.448
		c-2.556-7.029-4.995-14.101-7.562-21.126c-2.989-8.184-6.102-16.323-9.079-24.511c-0.689-1.893-1.913-4.393,0.564-5.556
		c2.872-1.348,3.765,1.465,4.483,3.421c2.572,7,4.956,14.069,7.427,21.106c3.191,9.089,6.397,18.172,9.701,27.555
		c3.499-1.075,6.893-2.119,10.398-3.196c-1.829-8.324-3.613-16.441-5.396-24.559c-0.142-0.644-0.305-1.285-0.411-1.935
		c-0.319-1.951,0.369-3.647,2.278-4.018c2.227-0.433,2.448,1.688,2.792,3.198c1.593,7.005,3.091,14.033,4.658,21.045
		c0.369,1.647,0.875,3.263,1.352,5.023c7.254-1.277,14.499-2.553,22.108-3.892c-4.69-3.59-8.104-7.904-10.144-13.199
		c-3.808-9.887-3.147-19.701,0.602-29.449c3.683-9.577,9.52-17.677,16.83-24.793c2.524-2.457,4.953-5.013,7.428-7.521
		c1.038-1.051,2.096-1.666,3.408-0.337c7.991,8.093,16.844,15.476,22.03,25.923c7.34,14.782,8.39,29.378-1.794,43.455
		c-0.882,1.217-1.989,2.289-3.084,3.33c-1.016,0.965-2.156,1.799-3.458,2.868c4.024,0.534,7.882,1.009,11.728,1.567
		c3.101,0.451,6.205,0.914,9.272,1.542c1.737,0.356,2.518,0.08,2.949-1.856c1.711-7.678,3.591-15.319,5.502-22.951
		c0.452-1.801,0.52-4.539,3.296-4.026c2.736,0.504,2.17,3.194,1.762,4.99c-1.59,7.015-3.449,13.969-5.206,20.947
		c-0.346,1.373-0.679,2.748-1.112,4.51c3.556,1.18,7.06,2.343,10.871,3.608c5.413-15.699,10.823-31.412,16.26-47.116
		c0.525-1.52,0.976-3.166,1.915-4.412c0.702-0.931,2.214-1.929,3.226-1.802c1.858,0.235,2.467,1.706,1.749,3.657
		c-2.879,7.818-5.645,15.677-8.525,23.494c-3.305,8.963-6.688,17.896-10.14,27.118c3.255,1.435,6.425,2.832,9.825,4.33
		c1.359-2.672,2.74-5.358,4.096-8.057c2.937-5.847,5.84-11.709,8.808-17.541c0.51-1.001,1.102-2.108,1.967-2.733
		c0.68-0.491,2.027-0.685,2.736-0.329c0.705,0.354,1.374,1.567,1.354,2.387c-0.025,1.053-0.673,2.13-1.191,3.125
		c-3.983,7.636-7.979,15.266-12.024,22.868c-0.654,1.231-1.12,2.2,0.485,3.042c5.834,3.064,11.647,6.169,17.179,9.104
		c0-2.869-0.146-6.139,0.027-9.392c0.566-10.572,5.391-18.989,13.92-24.994c12.638-8.899,26.879-13.392,42.314-14.187
		c2.347-0.122,3.242,0.553,3.642,3.03c2.541,15.769,1.553,31.069-6.088,45.38c-4.908,9.195-12.397,15.484-22.785,17.814
		c-2.168,0.486-4.43,0.565-7.188,0.897c5.79,5.398,11.276,10.514,16.724,15.592c6.409-5.233,13.478-11.007,20.55-16.776
		c0.514-0.419,1.035-0.839,1.599-1.186c1.449-0.893,2.868-1.064,4.018,0.475c1.235,1.657,0.252,2.985-0.95,3.94
		c-4.242,3.371-8.626,6.564-12.875,9.926c-3.126,2.474-6.126,5.105-9.497,7.931c2.446,3.216,4.878,6.413,7.305,9.602
		c7.249-5.402,14.347-10.804,21.565-16.038c7.078-5.132,14.298-10.068,21.414-15.149c1.734-1.238,3.38-1.558,4.601,0.365
		c1.114,1.755,0.269,3.088-1.419,4.237c-9.271,6.305-18.527,12.633-27.688,19.095c-5.192,3.663-10.193,7.596-15.524,11.588
		c1.861,3.182,3.646,6.238,5.589,9.56c9.309-5.402,18.357-10.653,27.301-15.842c3.27,2.74,3.047,4.391-0.492,6.332
		c-7.396,4.057-14.783,8.134-22.164,12.222c-0.657,0.364-1.241,0.862-1.912,1.334c2.952,6.509,5.873,12.95,8.866,19.549
		c3.309-5.21,6.869-10.113,12.16-13.349c11.023-6.741,22.768-7.034,34.83-3.553c9.572,2.762,18.083,7.732,26.449,12.99
		c1.578,0.992,1.762,2.18,0.958,3.592c-8.114,14.265-17.068,27.774-33.013,34.515c-10.19,4.308-20.246,4.657-29.873-1.71
		c-0.937-0.62-1.9-1.199-3.082-1.943c0.959,7.505,1.888,14.76,2.879,22.516c6.462-0.562,12.874-1.115,19.283-1.679
		c3.024-0.266,6.042-0.628,9.071-0.803c1.639-0.094,3.393,0.098,3.324,2.39c-0.06,2.026-1.47,2.62-3.277,2.756
		c-9.186,0.69-18.368,1.419-27.888,2.16c0,3.645,0,7.486,0,11.663c0.5,0.09,1.298,0.322,2.105,0.361
		c8.562,0.421,17.128,0.739,25.685,1.23c7.691,0.442,15.372,1.056,23.055,1.62c1.512,0.112,2.429,0.777,2.407,2.528
		c-0.022,1.823-0.823,2.68-2.582,2.611c-3.896-0.152-7.796-0.307-11.688-0.548c-8.351-0.517-16.7-1.067-25.047-1.647
		c-4.729-0.328-9.454-0.743-14.359-1.135c-0.326,4.19-0.641,8.22-0.938,12.035c8.977,1.517,17.729,3.059,26.507,4.435
		c2.032,0.318,3.509,1.244,3.219,3.16c-0.278,1.827-1.881,2.017-3.806,1.66c-8.847-1.635-17.737-3.036-26.742-4.543
		c-1.816,7.643-3.607,15.174-5.273,22.184c3.679-1.09,7.567-2.901,11.599-3.314c12.313-1.261,22.281,3.869,30.925,12.292
		c9.604,9.358,14.521,21.335,19.488,34.039c-2.868,1.377-5.668,2.892-8.596,4.098c-9.186,3.784-18.61,6.71-28.698,6.15
		c-13.879-0.771-25.804-5.379-33.253-18.034c-1.287-2.187-2.148-4.624-3.256-7.051c-3.549,6.126-7.082,12.227-10.717,18.5
		c7.455,5.317,14.863,10.6,22.269,15.885c0.852,0.607,2.032,1.054,2.461,1.885c0.568,1.103,1.102,2.768,0.655,3.729
		c-0.811,1.747-2.321,0.945-3.567,0.039c-8.132-5.92-16.272-11.826-24.633-17.897c-2.076,2.609-4.411,5.546-6.931,8.713
		c2.835,2.47,5.639,4.873,8.399,7.322c8.616,7.643,17.217,15.301,25.821,22.957c2.061,1.833,4.087,3.705,6.17,5.513
		c1.354,1.173,1.833,2.359,0.519,3.881c-1.344,1.559-2.661,1.421-4.092,0.129c-4.802-4.34-9.635-8.646-14.431-12.992
		c-8.462-7.671-16.905-15.362-25.408-23.092c-2.693,2.823-5.484,5.748-8.45,8.856c2.838,3.026,5.578,6.012,8.39,8.929
		c3.308,3.432,6.674,6.805,10.017,10.203c0.333,0.339,0.782,0.615,0.991,1.018c0.793,1.526,3.042,2.88,0.859,4.872
		c-2.233,2.036-3.432-0.131-4.669-1.394c-5.868-5.986-11.72-11.99-17.456-18.102c-1.361-1.449-2.163-1.537-3.662-0.2
		c-4.597,4.099-9.345,8.03-13.834,11.856c3.584,1.424,7.516,2.481,10.928,4.441c7.795,4.478,12.561,11.613,16.058,19.729
		c6.028,13.986,5.582,28.248,2.04,42.675c-0.204,0.826-0.059,1.95-0.561,2.442c-0.87,0.857-2.271,2.049-3.186,1.854
		c-15.211-3.255-29.747-8.406-41.016-19.55c-9.862-9.753-13.203-21.834-9.021-35.677c-6.962,2.982-13.698,5.869-20.383,8.732
		c3.241,8.424,6.461,16.606,9.502,24.855c0.613,1.66,2.376,4.029-0.265,5.208c-2.745,1.226-3.528-1.428-4.248-3.338
		c-2.705-7.178-5.311-14.393-7.964-21.591c-0.42-1.141-0.894-2.264-1.5-3.792c-3.454,1.08-6.845,2.141-10.561,3.302
		c0.492,2.215,0.874,4.415,1.476,6.552c3.828,13.587,7.719,27.155,11.556,40.738c0.803,2.839-0.572,4.67-3.163,3.968
		c-0.962-0.262-1.992-1.654-2.297-2.728c-1.908-6.74-3.626-13.535-5.399-20.313c-2.345-8.967-4.685-17.933-7.048-26.979
		c-7.588,1.179-15.382,2.388-23.703,3.681c7.416,5.423,11.45,12.363,12.828,20.78c1.352,8.253,0.005,16.201-2.885,24.031
		c-3.535,9.582-10.373,16.71-17.05,23.996c-2.566,2.8-5.231,5.511-8.012,8.43c-11.603-11.31-22.924-22.251-27.232-38.109
		c-3.316-12.206-2.475-23.923,5.701-34.255c1.544-1.95,3.665-3.442,5.54-5.166c-7.644-1.034-15.537-2.101-23.825-3.223
		c-0.878,3.713-1.845,7.912-2.868,12.098c-2.899,11.862-5.836,23.716-8.721,35.582c-0.471,1.936-1.384,3.657-3.528,3.044
		c-2.071-0.591-2.113-2.393-1.581-4.465c3.836-14.933,7.54-29.898,11.269-44.858c0.25-1.003,0.358-2.041,0.54-3.101
		c-3.399-0.971-6.644-1.896-10.13-2.892c-0.878,2.264-1.717,4.428-2.556,6.591c-2.53,6.531-5.045,13.069-7.602,19.591
		c-0.613,1.563-1.439,3.146-3.529,2.308c-2.032-0.815-1.67-2.366-0.998-4.048c3.437-8.599,6.808-17.224,10.225-25.897
		c-6.805-2.977-13.552-5.929-20.442-8.943c2.117,5.471,2.085,11.128,1.194,16.872c-1.303,8.406-5.747,15.03-11.895,20.52
		c-11.309,10.098-25.072,14.942-39.646,17.961c-1.609,0.333-2.301-0.029-2.648-1.516c-4.063-17.363-5.611-34.588,3.772-50.9
		c4.866-8.46,11.312-15.25,21.314-17.609c1.007-0.237,2.014-0.47,3.444-0.802c-5.383-4.559-10.615-8.989-15.887-13.454
		c-6.645,6.923-13.218,13.747-19.755,20.604c-1.146,1.202-2.537,2.268-3.705,0.665c-0.657-0.898-0.74-3.194-0.065-3.937
		c6.508-7.164,13.233-14.132,19.948-21.209c-2.639-2.884-5.327-5.821-8.12-8.874c-2.975,2.694-5.843,5.293-8.712,7.89
		c-10.302,9.32-20.617,18.624-30.889,27.975c-1.424,1.297-2.858,1.634-4.253,0.321c-1.509-1.42-0.544-2.839,0.602-3.891
		c4.278-3.928,8.625-7.778,12.958-11.647c9.02-8.053,18.045-16.099,27.241-24.302c-2.363-2.935-4.771-5.927-7.394-9.186
		c-4.354,3.372-8.589,6.715-12.893,9.966c-3.714,2.806-7.516,5.495-11.259,8.264c-1.311,0.971-2.649,1.864-3.907,0.1
		c-1.237-1.735-0.208-3.009,1.18-4.062c8.017-6.078,16.04-12.148,24.099-18.248c-3.567-6.016-7.076-11.931-10.657-17.969
		c-2.188,7.034-6.168,12.778-12.001,17.318c-6.389,4.974-13.765,7.139-21.61,7.854c-12.996,1.186-24.958-2.746-36.584-7.968
		c-3.125-1.404-3.497-2.453-2.011-5.615c3.498-7.442,6.472-15.246,10.878-22.122c6.875-10.725,16.78-18.127,29.468-20.721
		c6.361-1.301,12.914-0.847,18.826,2.635c0.47,0.276,1.01,0.433,1.87,0.793c-1.904-7.507-3.725-14.689-5.631-22.206
		c-3.633,0.576-7.42,1.173-11.205,1.779c-5.243,0.84-10.511,1.55-15.713,2.594c-2.352,0.472-3.064-0.925-3.166-2.456
		c-0.047-0.71,1.436-2.046,2.382-2.215c8.872-1.581,17.778-2.971,27.16-4.494c-0.432-3.741-0.893-7.73-1.412-12.232
		c-4.494,0.259-9.006,0.482-13.512,0.786c-7.777,0.524-15.552,1.077-23.324,1.662c-3.505,0.264-6.998,0.712-10.505,0.921
		c-1.578,0.094-3.287,0.104-4.726-0.422c-0.835-0.305-1.589-1.704-1.725-2.699c-0.072-0.527,1.188-1.688,1.96-1.804
		c3.563-0.529,7.159-0.929,10.756-1.127c12.075-0.659,24.156-1.197,36.232-1.829c1.594-0.084,3.174-0.446,4.583-0.653
		c0-3.766,0-7.427,0-11.158c-8.625-0.646-16.938-1.259-25.249-1.903c-1.323-0.102-2.63-0.41-3.954-0.512
		c-1.887-0.146-2.035-1.379-1.912-2.832c0.14-1.632,1.153-1.982,2.599-1.854c7.958,0.704,15.919,1.376,23.879,2.061
		c1.505,0.129,3.01,0.264,4.591,0.402c0.899-7.52,1.774-14.836,2.628-21.972c-4.024,1.696-8.104,3.934-12.468,5.138
		c-7.616,2.102-14.907,0.03-21.743-3.375c-9.403-4.685-16.726-11.764-22.431-20.549c-2.691-4.144-5.356-8.304-8.101-12.412
		c-1.038-1.554-1.389-2.858,0.416-4.092c9.218-6.301,18.988-11.475,29.896-14.15c8.989-2.205,18.073-2.021,26.555,1.659
		c7.245,3.144,13.189,8.255,16.637,15.715c0.103,0.223,0.309,0.397,0.538,0.683C90.965,181.964,93.962,175.493,97.034,168.861z
		 M250.531,420.265c7.016-0.517,14.037-0.955,21.045-1.566c15.935-1.394,31.06-6.016,45.718-12.132
		c19.367-8.082,36.031-20.289,51.202-34.631c16.672-15.762,29.212-34.456,38.277-55.407c8.903-20.576,13.09-42.223,13.129-64.669
		c0.03-17.901-2.971-35.286-8.363-52.325c-4.4-13.906-10.174-27.207-18.272-39.31c-10.642-15.903-23.464-29.869-38.515-41.836
		c-13.491-10.728-28.283-18.976-44.268-25.242c-15.94-6.248-32.52-9.772-49.541-10.798c-12.999-0.783-25.939,0.282-38.856,2.436
		c-18.701,3.117-36.423,8.998-53.018,17.945c-15.925,8.585-29.691,20.13-42.189,33.208c-9.057,9.477-16.896,19.868-23.188,31.328
		c-6.339,11.547-11.633,23.561-15.596,36.202c-4.061,12.952-6.333,26.151-7.039,39.628c-0.887,16.93,1.232,33.584,5.473,49.97
		c7.057,27.267,20.217,51.297,39.407,71.813c7.444,7.959,15.753,15.231,24.315,21.999c19.29,15.247,41.379,24.635,65.389,29.742
		C227.158,419.07,238.78,419.866,250.531,420.265z M228.218,41.739c-4.596,17.531,5.383,34.921,19.268,34.932
		c0.633-5.245-0.013-10.318-3.222-14.595C239.223,55.356,233.871,48.87,228.218,41.739z M272.703,42.167
		c-1.343,1.582-2.581,3.015-3.792,4.47c-3.887,4.67-8.013,9.169-11.572,14.077c-3.395,4.681-4.92,10.092-4.05,16.012
		C268.649,74.991,277.708,55.692,272.703,42.167z M248.315,425.908c-14.113-0.778-24.746,16.823-20.433,33.234
		C238.233,446.295,248.371,435.259,248.315,425.908z M272.585,459.199c5.492-16.227-7.216-33.605-19.666-33.244
		c-0.135,3.786,1.94,9.595,4.787,13.394C262.651,445.949,267.599,452.548,272.585,459.199z M359.477,73.757
		c-8.013,5.525-10.974,12.805-11.671,21.285c-0.517,6.292,2.155,13.707,6.516,16.092C360.251,99.488,358.516,86.854,359.477,73.757z
		 M141.923,73.952c0.376,16.303-0.666,27.77,4.821,37.003C157.321,102.137,155.126,83.578,141.923,73.952z M444.237,175.618
		c-0.208-0.267-0.415-0.533-0.622-0.8c-10.041,0.06-17.795,4.64-23.451,12.672c-1.789,2.541-2.677,5.823-3.527,8.892
		c-0.852,3.073,0.707,4.38,3.65,3.278c1.75-0.655,3.765-1.315,4.959-2.616C431.697,190.013,437.93,182.781,444.237,175.618z
		 M57.164,174.598c0.512,0.696,0.967,1.39,1.496,2.023c5.298,6.339,10.5,12.763,15.967,18.953c2.31,2.617,5.262,4.569,9.06,4.49
		C85.596,190.126,75.906,175.187,57.164,174.598z M453.751,216.965c-21.378-11.46-26.4-11.902-34.689-10.998
		C422.856,218.398,440.575,224.106,453.751,216.965z M82.033,206.395c-8.048-3.241-24.559,4.826-34.752,11.067
		c6.311,2.333,12.762,4.202,19.527,1.921C73.508,217.123,79.016,213.334,82.033,206.395z M68.577,348.223
		c14.206-2.36,24.633-18.982,21.245-29.284C76.626,324.204,74.458,337.276,68.577,348.223z M52.922,308.663
		c4.316,1.464,8.446,2.986,12.652,4.252c3.337,1.006,6.733,1.913,10.167,2.469c4.126,0.668,8.264,0.552,12.025-1.759
		C82.136,303.357,64.923,299.74,52.922,308.663z M431.972,348.094c-1.97-4.602-3.679-9.168-5.859-13.499
		c-1.564-3.109-3.577-6.041-5.716-8.8c-2.462-3.175-5.574-5.584-9.814-6.151C409.531,331.945,416.731,343.729,431.972,348.094z
		 M413.169,313.609c6.05,3.94,28.21,0.23,34.7-5.81C431.957,299.153,418.821,305.012,413.169,313.609z M109.526,100.568
		c5.547,13.711,26.174,19.858,33.75,12.948C134.123,103.95,121.171,104.809,109.526,100.568z M125.333,414.866
		c6.072-2.333,12.241-4.593,18.319-7.072c5.07-2.068,9.959-4.5,13.242-9.222C146.894,391.707,129.824,400.634,125.333,414.866z
		 M358.067,113.662c6.623,7.471,29.546-0.885,32.585-13.074c-8.067,2.313-15.808,4.422-23.474,6.775
		C363.616,108.457,360.373,110.271,358.067,113.662z M376.086,414.979c-9.599-16.398-21.387-22.661-31.627-16.803
		C348.379,404.341,356.717,408.771,376.086,414.979z M159.159,436.898c9.831-9.384,11.251-28.176,1.681-36.23
		c-0.913,3.401-2.435,6.527-2.465,9.67C158.292,418.939,158.837,427.548,159.159,436.898z M341.658,436.792
		c-0.265-12.212,3.298-24.067-1.649-35.677C330.743,406.536,331.614,425.764,341.658,436.792z M248.167,441.317
		c-5.705,7.318-11.26,14.394-16.736,21.527c-0.686,0.895-1.585,2.305-1.317,3.126c0.88,2.703,2.253,5.243,3.578,8.156
		c4.111-5.443,7.624-10.643,11.732-15.318c2.307-2.627,2.95-5.242,2.777-8.476C248.042,447.348,248.167,444.346,248.167,441.317z
		 M134.072,101.896c-3.549-5.49-7.118-10.74-14.241-12.354c-5.266-1.193-10.349-3.193-16.054-5.004
		c0.77,3.174,1.18,5.707,2.042,8.075c0.441,1.214,1.517,2.798,2.603,3.082C116.914,97.912,125.479,99.855,134.072,101.896z
		 M40.11,177.415c3.56,3.717,7.16,6.891,10.043,10.618c4.913,6.351,11.731,8.052,18.978,9.049
		c-4.469-5.295-8.836-10.606-13.353-15.788C49.002,173.52,51.457,174.04,40.11,177.415z M74.569,325.263
		c-4.31,1.512-8.94,2.216-11.724,6.009c-4.224,5.757-8.068,11.79-12.42,18.216c3.657,0,6.508-0.101,9.349,0.037
		c1.834,0.09,2.917-0.449,3.759-2.184C67.083,340.035,70.783,332.803,74.569,325.263z M432.334,196.688
		c4.952-0.286,9.743-0.613,13.115-3.456c5.634-4.75,10.545-10.357,16.051-15.896c-2.521-0.748-4.454-1.576-6.461-1.846
		c-1.986-0.267-3.883-0.844-5.739,1.496C444.048,183.599,438.306,189.823,432.334,196.688z M366.351,102.467
		c1.885-0.61,3.688-1.333,5.56-1.773c6.339-1.494,12.708-2.855,19.047-4.351c0.937-0.221,2.266-0.685,2.559-1.392
		c1.232-2.973,2.141-6.081,3.167-9.139c-0.252-0.278-0.503-0.556-0.755-0.833c-6.502,2.171-13.04,4.246-19.484,6.575
		c-1.804,0.652-3.694,1.747-4.915,3.177C369.538,97.063,368.066,99.838,366.351,102.467z M66.385,202.565
		c0.039-0.247,0.077-0.492,0.116-0.738c-4.168-0.575-8.435-2.005-12.481-1.537c-7.193,0.833-14.009,3.508-21.001,7.105
		c2.355,1.881,4.446,3.471,6.442,5.172c1.572,1.34,3.013,1.403,4.903,0.475C51.658,209.457,59.037,206.042,66.385,202.565z
		 M449.746,349.422c-2.597-4.305-5.349-8.182-7.385-12.401c-3.279-6.794-8.962-9.839-15.98-11.41
		c0.578,1.002,1.172,1.908,1.644,2.872c3.041,6.21,5.995,12.464,9.139,18.621c0.501,0.983,1.754,2.12,2.749,2.213
		C443.007,349.603,446.145,349.422,449.746,349.422z M461.731,320.162c-2.153-2.35-3.755-3.962-5.197-5.706
		c-1.828-2.212-3.872-2.55-6.566-1.613c-7.342,2.553-14.757,4.894-22.508,7.438c4.759,1.431,8.857,4.425,14.073,3.473
		C448.021,322.567,454.521,321.441,461.731,320.162z M266.942,473.522c1.1-1.817,1.954-3.258,2.837-4.683
		c1.327-2.145,1.221-3.927-0.486-6.053c-4.808-5.99-9.333-12.205-13.976-18.327c-0.633-0.834-1.3-1.642-2.146-2.706
		c0,2.703,0.064,4.94-0.016,7.173c-0.11,3.133-0.154,6.128,1.984,8.846C259.059,462.759,262.761,467.914,266.942,473.522z
		 M355.188,447.363c0.079-12.307,1.076-24.146-7.818-33.778c-0.375,8.389-0.819,16.632-1.04,24.881
		c-0.038,1.429,0.447,3.372,1.43,4.221C349.798,444.444,352.331,445.624,355.188,447.363z M380.692,431.318
		c-0.662-3.108-1.255-5.461-1.642-7.849c-0.296-1.816-1.214-2.697-2.958-3.316c-4.904-1.739-9.74-3.677-14.569-5.617
		c-3.021-1.214-5.98-2.575-9.762-4.213c2.121,3.213,3.691,5.77,5.448,8.19c1.133,1.56,2.264,3.498,3.873,4.27
		C367.215,425.72,373.54,428.25,380.692,431.318z M434.6,202.415c6.44,3.024,12.934,5.943,19.306,9.103
		c5.401,2.68,6.084,2.69,10.605-1.381c0.817-0.736,1.811-1.276,2.897-2.028C457.384,201.961,442.174,197.334,434.6,202.415z
		 M253.339,56.87c4.54-5.15,8.707-9.916,12.916-14.643c5.417-6.085,5.433-6.074,1.715-13.176c-0.164-0.313-0.411-0.583-0.712-1.001
		c-0.509,0.444-0.98,0.76-1.331,1.178c-3.532,4.219-7.153,8.372-10.5,12.735c-1.077,1.404-1.816,3.333-1.998,5.097
		C253.108,50.15,253.339,53.298,253.339,56.87z M153.105,413.445c-8.743,9.878-7.42,21.263-6.715,32.721
		c7.236-2.687,8.856-4.648,8.457-10.234C154.317,428.536,153.705,421.146,153.105,413.445z M39.184,319.977
		c7.041,1.342,13.625,2.618,20.218,3.845c4.928,0.917,8.603-2.277,13.186-3.707c-7.941-2.642-15.437-4.996-22.811-7.688
		c-1.684-0.615-2.65-0.432-3.741,0.661C43.954,315.172,41.88,317.264,39.184,319.977z M247.476,57.128
		c0.174-1.509,0.62-3.022,0.46-4.47c-0.358-3.257-0.131-7.035-1.737-9.606c-3.324-5.323-7.686-9.997-11.807-15.171
		c-1.183,2.146-2.069,3.918-3.109,5.596c-1.22,1.969-1.042,3.419,0.603,5.268C237.187,44.706,242.227,50.897,247.476,57.128z
		 M148.719,410.388c-1.565,0.864-2.427,1.474-3.381,1.844c-6.7,2.601-13.428,5.134-20.125,7.742
		c-0.92,0.358-2.241,0.839-2.491,1.567c-1.02,2.965-1.697,6.049-2.668,9.728c4.834-2.042,8.782-3.905,12.867-5.388
		c5.703-2.072,10.531-4.961,12.89-10.957C146.376,413.487,147.492,412.267,148.719,410.388z M137.843,97.464
		c-0.232-7.91-0.45-16.168-0.75-24.424c-0.035-0.953-0.235-2.365-0.859-2.747c-2.341-1.432-4.889-2.524-7.569-3.848
		C127.987,78.471,128.59,89.484,137.843,97.464z M372.272,66.346c-2.218,1.124-4.049,2.34-6.063,2.992
		c-1.961,0.634-2.351,1.759-2.38,3.582c-0.088,5.601-0.353,11.199-0.491,16.8c-0.068,2.739-0.012,5.481-0.012,7.518
		C372.624,89.316,372.109,77.982,372.272,66.346z M121.754,84.942c-5.616-7.932-11.219-15.325-18.48-21.526
		c-0.4,4.474-0.416,8.813-0.394,13.151c0.01,2.076,0.657,3.361,3.078,3.918C111.084,81.666,116.102,83.315,121.754,84.942z
		 M236.783,478.596c3.611,4.372,7.107,8.605,10.604,12.839c0.201-0.133,0.401-0.267,0.602-0.4c0-9.28,0-18.56,0-28.156
		C244.118,468.306,240.466,473.43,236.783,478.596z M398.351,63.876c-0.396-0.182-0.791-0.363-1.188-0.544
		c-6,7.12-12,14.241-18.45,21.896c6.38-1.745,12.094-3.27,17.77-4.925c0.503-0.147,1.041-1.129,1.082-1.755
		C397.894,73.663,398.104,68.768,398.351,63.876z M253.154,491.786c3.915-4.61,7.393-8.659,10.777-12.785
		c0.226-0.275-0.103-1.221-0.42-1.688c-1.437-2.112-2.955-4.169-4.459-6.234c-1.744-2.396-3.506-4.778-5.259-7.166
		c-0.214,0.088-0.427,0.175-0.64,0.264C253.154,473.031,253.154,481.886,253.154,491.786z M54.774,328.104
		c-5.241-1.34-9.884-2.575-14.556-3.691c-1.349-0.323-2.898-1.272-3.951,0.741c-2.277,4.356-4.643,8.667-6.972,12.995
		c0.257,0.237,0.515,0.473,0.772,0.709C38.148,335.341,46.228,331.823,54.774,328.104z M445.933,328.048
		c8.824,3.704,16.843,7.068,24.862,10.434c0.195-0.271,0.392-0.544,0.587-0.816c-1.93-3.751-3.947-7.461-5.756-11.27
		c-1.014-2.131-2.495-2.495-4.563-1.983C456.306,325.587,451.536,326.705,445.933,328.048z M363.593,429.204
		c5.236,7.838,10.242,15.331,15.249,22.823c1.157-4.396,1.64-8.619,2.229-12.827c0.295-2.107-0.77-2.994-2.556-3.711
		C373.667,433.541,368.876,431.442,363.593,429.204z M248.056,11.332c-0.225-0.114-0.448-0.228-0.672-0.341
		c-3.001,3.647-6.044,7.261-8.958,10.978c-0.406,0.518-0.532,1.787-0.183,2.284c3.059,4.356,6.257,8.615,9.812,13.445
		C248.056,28.352,248.056,19.842,248.056,11.332z M446.64,333.716c-0.214,0.293-0.428,0.587-0.642,0.882
		c2.893,4.778,5.785,9.559,8.73,14.424c5.061-1.767,9.702-3.387,14.343-5.007c0.004-0.243,0.006-0.486,0.01-0.73
		C461.601,340.096,454.12,336.905,446.64,333.716z M264.319,23.238c-3.495-4.141-6.911-8.187-10.327-12.233
		c-0.182,0.13-0.362,0.261-0.544,0.392c0,8.168,0,16.337,0,24.975C257.229,31.803,260.694,27.617,264.319,23.238z M54.989,334.207
		c-0.108-0.208-0.217-0.417-0.326-0.625c-7.792,3.419-15.584,6.839-24.188,10.613c4.978,1.479,9.2,2.749,13.434,3.98
		c1.463,0.427,2.505,0.252,3.417-1.381C49.723,342.512,52.415,338.393,54.989,334.207z M121.841,451.75
		c0.25,0.007,0.499,0.015,0.748,0.021c4.583-7.331,9.166-14.662,14.122-22.591c-5.607,2.533-10.667,4.757-15.645,7.154
		c-0.606,0.291-1.146,1.567-1.061,2.312C120.51,443.026,121.208,447.385,121.841,451.75z M45.902,196.768
		c-8.142-2.164-16.165-4.297-24.914-6.623c2.67,4.037,5.037,7.448,7.216,10.975c1.19,1.926,2.41,2.035,4.382,1.14
		C36.765,200.363,41.07,198.74,45.902,196.768z M455.542,196.958c5.347,2.491,10.247,4.773,15.311,7.132
		c3.014-4.352,5.919-8.544,9.194-13.271C471.335,193.001,463.515,194.96,455.542,196.958z M127.263,453.998
		c0.165,0.169,0.33,0.339,0.495,0.508c4.047-1.517,8.075-3.084,12.149-4.522c1.561-0.551,1.892-1.499,1.801-3.021
		c-0.252-4.263-0.359-8.534-0.557-12.8c-0.018-0.386-0.272-0.762-0.685-1.848C135.847,439.901,131.555,446.949,127.263,453.998z
		 M478.973,186.398c-1.367-0.952-2.126-1.604-2.988-2.059c-2.755-1.452-5.581-2.772-8.316-4.26
		c-1.538-0.838-2.576-0.548-3.638,0.793c-1.294,1.632-2.765,3.125-4.163,4.675c-1.821,2.02-3.646,4.035-5.884,6.509
		C462.507,190.126,470.312,188.359,478.973,186.398z M376.323,80.126c5.942-6.987,11.317-13.309,16.691-19.63
		c-4.979,0.853-9.761,2.26-14.502,3.787c-0.573,0.185-1.3,0.986-1.344,1.548C376.817,70.34,376.614,74.859,376.323,80.126z
		 M373.363,454.782c0.262-0.273,0.524-0.547,0.787-0.82c-4.389-6.637-8.777-13.273-13.368-20.216
		c-0.36,0.771-0.565,1.01-0.572,1.255c-0.127,4.521-0.284,9.044-0.272,13.567c0.003,0.604,0.774,1.516,1.395,1.761
		C365.311,451.895,369.346,453.314,373.363,454.782z M45.842,191.531c0.133-0.234,0.267-0.467,0.4-0.701
		c-3.42-3.628-6.811-7.285-10.299-10.847c-0.392-0.399-1.492-0.568-1.999-0.314c-3.578,1.788-7.086,3.714-11.443,6.036
		C30.862,187.792,38.352,189.662,45.842,191.531z M109.435,60.516c-0.109,0.178-0.218,0.355-0.327,0.534
		c4.813,5.773,9.626,11.547,14.627,17.546c0-3.797-0.004-7.271,0.002-10.745c0.003-2.538-1.425-3.889-3.728-4.508
		C116.486,62.394,112.96,61.457,109.435,60.516z"/>
	<path fill-rule="evenodd" clip-rule="evenodd" d="M414.711,102.342c0.052-3.604,2.912-6.532,6.256-6.406
		c2.755,0.104,5.308,3.215,5.267,6.418c-0.038,2.968-2.53,5.452-5.472,5.45C417.518,107.803,414.669,105.232,414.711,102.342z"/>
	<path fill-rule="evenodd" clip-rule="evenodd" d="M46.666,145.694c0.038-4.007,2.076-6.159,5.858-6.041
		c3.689,0.115,5.029,2.122,5.485,6.582c0.278,2.717-3.04,5.202-6.343,5.117C48.665,151.276,46.635,148.979,46.666,145.694z"/>
	<path fill-rule="evenodd" clip-rule="evenodd" d="M448.686,151.345c-2.973,0.034-5.515-2.502-5.609-5.596
		c-0.111-3.638,2.498-6.316,6.145-6.309c2.617,0.005,5.242,3.076,5.343,6.249C454.657,148.65,451.894,151.309,448.686,151.345z"/>
	<path fill-rule="evenodd" clip-rule="evenodd" d="M85.597,101.875c-0.002,3.487-2.27,5.98-5.401,5.938
		c-3.033-0.042-5.521-2.724-5.551-5.98c-0.032-3.549,2.185-6.008,5.402-5.993C83.436,95.854,85.599,98.207,85.597,101.875z"/>
	<path fill-rule="evenodd" clip-rule="evenodd" d="M410.27,413.567c0.004,3.404-2.461,6.257-5.316,6.15
		c-3.263-0.121-5.642-2.416-5.646-5.447c-0.004-3.802,2.308-6.432,5.645-6.423C407.958,407.856,410.266,410.339,410.27,413.567z"/>
	<path fill-rule="evenodd" clip-rule="evenodd" d="M436.58,383.786c-3.514-0.014-5.774-2.189-5.779-5.561
		c-0.005-3.023,2.733-5.696,5.863-5.724c2.969-0.028,5.592,2.792,5.591,6.008C442.254,381.653,439.947,383.798,436.58,383.786z"/>
	<path fill-rule="evenodd" clip-rule="evenodd" d="M69.573,377.896c0.019,3.116-2.639,5.896-5.642,5.901
		c-2.854,0.005-5.759-2.771-5.819-5.561c-0.07-3.281,2.573-5.92,5.921-5.91C67.208,372.337,69.553,374.695,69.573,377.896z"/>
	<path fill-rule="evenodd" clip-rule="evenodd" d="M300.644,26.582c3.373,0.064,5.646,2.264,5.646,5.47
		c0.002,3.244-2.689,6.009-5.717,5.874c-3.459-0.154-5.553-2.414-5.5-5.937C295.122,28.625,297.294,26.518,300.644,26.582z"/>
	<path fill-rule="evenodd" clip-rule="evenodd" d="M353.535,47.443c0.039,3.877-1.547,5.425-5.556,5.424
		c-3.153-0.001-5.381-2.063-5.384-4.98c-0.003-3.386,2.862-6.501,5.934-6.449C351.587,41.489,353.497,43.781,353.535,47.443z"/>
	<path fill-rule="evenodd" clip-rule="evenodd" d="M206.897,32.508c-0.079,2.934-2.859,5.562-5.778,5.46
		c-3.349-0.118-5.473-2.332-5.397-5.625c0.079-3.395,2.513-5.865,5.684-5.766C204.527,26.675,206.981,29.326,206.897,32.508z"/>
	<path fill-rule="evenodd" clip-rule="evenodd" d="M154.172,52.879c-3.242,0.012-6.104-2.571-6.128-5.529
		c-0.024-3.1,2.967-5.919,6.187-5.833c2.468,0.066,5.179,3.46,5.088,6.369C159.229,50.706,157.001,52.869,154.172,52.879z"/>
	<path fill-rule="evenodd" clip-rule="evenodd" d="M95.815,419.344c-2.858-0.002-5.014-2.417-5.043-5.649
		c-0.028-3.166,2.467-5.432,5.953-5.407c3.134,0.021,4.931,2.079,4.902,5.614C101.598,417.299,99.412,419.348,95.815,419.344z"/>
	<path fill-rule="evenodd" clip-rule="evenodd" d="M31.731,293.91c-3.576-0.024-5.733-2.212-5.59-5.667
		c0.106-2.575,2.754-4.737,5.831-4.762c3.662-0.029,5.51,1.748,5.523,5.314C37.507,292.09,35.427,293.936,31.731,293.91z"/>
	<path fill-rule="evenodd" clip-rule="evenodd" d="M474.908,288.526c-0.034,3.156-2.528,5.471-5.783,5.366
		c-2.923-0.095-5.195-2.59-5.19-5.697c0.006-3.141,2.363-5.498,5.381-5.38C472.323,282.934,474.941,285.605,474.908,288.526z"/>
	<path fill-rule="evenodd" clip-rule="evenodd" d="M473.698,234.349c3.346,0.044,5.742,2.33,5.669,5.409
		c-0.078,3.302-2.04,5.103-5.517,5.059c-3.333-0.042-5.829-2.354-5.788-5.363C468.104,236.373,470.387,234.306,473.698,234.349z"/>
	<path fill-rule="evenodd" clip-rule="evenodd" d="M168.006,462.149c-0.032-3.143,2.365-5.607,5.502-5.66
		c2.783-0.047,5.371,2.377,5.444,5.099c0.086,3.174-2.329,5.74-5.397,5.737C170.346,467.323,168.037,465.168,168.006,462.149z"/>
	<path fill-rule="evenodd" clip-rule="evenodd" d="M27.806,244.691c-3.988-0.085-5.885-1.724-5.776-4.992
		c0.109-3.276,2.418-5.463,5.669-5.369c3.303,0.096,5.514,2.617,5.466,6.231C33.13,243.082,30.954,244.759,27.806,244.691z"/>
	<path fill-rule="evenodd" clip-rule="evenodd" d="M322.004,462.087c0.062-3.142,2.442-5.66,5.286-5.59
		c2.837,0.07,5.293,2.763,5.188,5.687c-0.111,3.087-2.479,5.227-5.655,5.109C323.964,467.188,321.945,465.009,322.004,462.087z"/>
	<path fill-rule="evenodd" clip-rule="evenodd" d="M390.75,250.948c0.07,80.773-66.741,142.192-143.655,140.44
		c-74.543-1.699-137.373-62.553-136.884-139.974c0.475-75.15,60.662-139.611,139.152-140.029
		C330.13,110.956,390.358,176.896,390.75,250.948z M251.13,160.315c-46.312-0.44-88.583,35.338-91.53,86.01
		c-3.165,54.416,36.558,95.112,88.095,97.052c46.736,1.76,90.546-33.234,93.839-85.906
		C344.822,204.86,303.249,160.687,251.13,160.315z M131.292,315.153c1.58-15.036,8.81-26.276,20.965-34.999
		c-7.633-0.783-14.315-2.646-20.602-6.029c-6.318-3.399-11.203-8.43-16.168-13.897C115.626,276.136,124.34,306.665,131.292,315.153z
		 M369.988,314.357c9.473-16.632,14.324-34.366,14.94-53.349c-9.482,11.05-21.09,17.854-35.698,19.196
		C360.438,289.102,368.331,299.757,369.988,314.357z M367.108,184.072c-1.585,14.062-8.548,24.896-19.831,33.997
		c16.214,0.805,28.421,7.73,37.875,20.541C382.95,218.844,377.05,200.831,367.108,184.072z M133.889,183.938
		c-9.75,16.674-15.969,34.407-17.865,53.691c9.354-12.113,21.618-18.5,37.176-19.429
		C142.209,209.042,135.109,198.206,133.889,183.938z M258.555,385.931c19.711-0.933,37.779-6.274,55.639-15.14
		c-7.976-0.081-14.58-2.173-20.676-5.911c-6.057-3.714-11.323-8.337-15.794-14.681C276.523,365.299,269.944,376.782,258.555,385.931
		z M222.973,350.411c-9.047,11.884-20.457,18.651-34.998,21.06c17.242,8.445,34.885,13.55,54.602,14.252
		C230.168,376.953,224.507,365.134,222.973,350.411z M117.179,246.853c12.402,0,24.732,0,36.861,0
		c1.384-7.865,2.749-15.615,4.107-23.336C140.61,221.648,123.226,231.83,117.179,246.853z M383.979,246.823
		c-4.412-10.862-19.261-25.418-41.064-23.306c1.367,7.709,2.735,15.423,4.132,23.306
		C359.256,246.823,371.605,246.823,383.979,246.823z M256.449,117.188c12.026,7.549,16.908,19.251,19.49,32.843
		c9.109-12.06,21.259-17.47,36.251-19.003C294.066,122.201,275.818,117.623,256.449,117.188z M244.131,116.61
		c-19.167,0.974-37.232,5.735-54.289,14.37c14.463,1.468,26.159,7.812,35.326,19.691C226.467,136,233.328,125.233,244.131,116.61z
		 M138.737,327.588c9.87,14.231,21.492,25.89,35.754,35.765c-5.017-14.368-3.659-27.737,3.17-40.377
		c-6.29,1.937-12.406,4.216-18.713,5.652C152.435,330.11,145.784,329.68,138.737,327.588z M327.299,362.602
		c13.709-9.653,25.162-21.151,34.947-34.749c-6.953,1.348-13.705,2.462-20.352,0.85c-6.4-1.552-12.606-3.902-18.737-5.851
		C332.025,340.584,329.679,351.055,327.299,362.602z M344.464,274.892c14.864,1.596,32.475-7.947,39.729-22.937
		c-12.4,0-24.837,0-37.2,0C346.166,259.466,345.328,267.058,344.464,274.892z M153.974,252.223c-12.203,0-24.525,0-37.071,0
		c8.703,16.264,26.192,24.316,39.487,22.614C155.59,267.355,154.792,259.875,153.974,252.223z M358.896,171.218
		c-11.114-14.229-25.034-27.368-32.969-30.678c5.036,12.936,2.205,24.917-3.969,36.597
		C333.665,171.534,345.484,168.516,358.896,171.218z M142.347,171.522c13.059-3.184,24.922,0.062,36.796,6.533
		c-7.688-12.155-8.822-24.491-5.084-37.492C165.987,144.451,148.711,161.296,142.347,171.522z M181.003,138.58
		c-6.896,11.861-4.62,30.356,5.457,41.032c5.192-3.864,10.355-7.706,15.625-11.627C195.211,158.396,188.201,148.619,181.003,138.58z
		 M276.242,158.588c6.294,2.413,12.409,4.757,18.154,6.959c6.68-9.628,13.287-19.15,19.986-28.806
		C300.219,135.808,284.982,142.78,276.242,158.588z M224.026,158.844c-3.739-6.942-8.776-13.041-15.972-16.969
		c-7.032-3.837-14.478-6.215-22.597-5.292c7.155,9.833,14.21,19.529,21.089,28.982C212.57,163.249,218.285,161.051,224.026,158.844z
		 M298.707,167.846c5.438,3.955,10.535,7.665,15.514,11.287c8.405-12.404,13.189-25.258,5.863-39.654
		c-0.39-0.156-0.779-0.312-1.17-0.467C312.234,148.542,305.556,158.073,298.707,167.846z M252.92,348.818
		c0,11.492,0,23.116,0,34.791c14.449-8.295,20.858-25.95,19.695-37.552C266.1,346.971,259.572,347.886,252.92,348.818z
		 M184.209,322.621c-8.392,9.812-10.372,33.941-3.284,41.363c6.232-9.976,12.434-19.903,18.523-29.649
		C194.201,330.3,189.2,326.457,184.209,322.621z M302.154,333.808c2.945,5.067,5.915,10.243,8.949,15.382
		c2.996,5.073,6.058,10.109,9.146,15.256c6.871-10.065,5.119-31.836-3.648-41.759C311.874,326.325,307.15,329.961,302.154,333.808z
		 M315.179,365.703c-5.778-9.812-11.578-19.659-17.323-29.417c-5.984,2.542-11.779,5.005-17.569,7.463
		C285.396,356.346,303.475,367.613,315.179,365.703z M228.337,346.409c-1.611,13.275,8.556,32.651,19.109,36.578
		c0-11.501,0-23.06,0-34.259C240.947,347.939,234.745,347.187,228.337,346.409z M364.54,318.945
		c1.083-15.395-8.252-28.657-22.15-37.004c-2.214,5.259-4.434,10.53-6.618,15.723C345.213,304.647,354.72,311.681,364.54,318.945z
		 M185.401,365.89c16.438-0.279,27.272-9.25,35.761-22.08c-5.899-2.376-11.56-4.654-17.431-7.02
		C197.657,346.434,191.561,356.111,185.401,365.89z M247.956,121.055c-11.703,4.645-20.937,27.17-17.14,35.814
		c5.687-0.608,11.318-1.21,17.14-1.833C247.956,143.795,247.956,132.52,247.956,121.055z M136.158,318.915
		c9.865-7.346,19.303-14.374,28.834-21.472c-2.06-5.01-4.17-10.143-6.305-15.334C144.821,290.224,136.395,301.683,136.158,318.915z
		 M168.104,201.462c-4.783-3.411-9.519-6.919-14.39-10.227c-4.776-3.243-9.688-6.283-14.823-9.594
		c0.75,17.25,12.4,31.478,21.888,34.867C163.224,211.488,165.662,206.479,168.104,201.462z M361.423,181.343
		c-9.418,6.815-18.836,13.631-28.251,20.444c2.624,5.152,5.175,10.158,7.72,15.153C353.108,208.249,361.256,197.288,361.423,181.343
		z M253.348,155.179c5.913,0.658,11.481,1.278,17.151,1.91c0.786-15.021-4.431-26.916-17.151-35.899
		C253.348,132.836,253.348,143.911,253.348,155.179z M330.589,197.564c9.665-6.905,19.393-13.854,29.063-20.763
		c-14.536-3.622-27.668-0.603-39.741,7.943C323.49,189.042,326.888,193.121,330.589,197.564z M139.326,322.758
		c14.315,3.2,26.778,0.707,38.443-6.25c-3.503-4.941-6.917-9.758-10.517-14.838C158.165,308.532,149.037,315.426,139.326,322.758z
		 M180.711,184.925c-10.952-8.659-28.99-12.241-39.556-7.892c9.917,6.788,19.807,13.558,29.663,20.304
		C174.225,193.062,177.404,189.074,180.711,184.925z M360.935,322.127c-9.563-6.922-18.694-13.531-27.883-20.181
		c-3.495,5.026-6.551,9.418-9.589,13.788C332.879,323.682,350.895,326.388,360.935,322.127z"/>
	<path fill-rule="evenodd" clip-rule="evenodd" d="M99.115,225.206c-2.91,0.003-5.598-2.883-5.548-5.958
		c0.055-3.404,2.75-6.038,6.194-6.054c3.491-0.016,5.981,2.369,6.037,5.782C105.853,222.331,102.773,225.202,99.115,225.206z"/>
	<path fill-rule="evenodd" clip-rule="evenodd" d="M90.209,242.775c-0.014-3.892,2.158-6.196,5.81-6.16
		c3.139,0.031,6.089,2.876,6.164,5.945c0.08,3.259-2.566,6.028-5.828,6.1C92.6,248.743,90.223,246.467,90.209,242.775z"/>
	<path fill-rule="evenodd" clip-rule="evenodd" d="M407.303,219.723c-0.126,3.174-3.098,5.987-6.154,5.826
		c-3.207-0.17-5.967-3.441-5.826-6.907c0.133-3.292,2.882-5.602,6.37-5.353C404.766,213.509,407.429,216.562,407.303,219.723z"/>
	<path fill-rule="evenodd" clip-rule="evenodd" d="M143.067,146.18c-3.11,0.045-5.375-2.171-5.421-5.304
		c-0.054-3.648,2.658-6.441,6.375-6.566c2.99-0.101,5.385,2.653,5.48,6.373C149.596,144.312,147.56,145.723,143.067,146.18z"/>
	<path fill-rule="evenodd" clip-rule="evenodd" d="M394.815,190.793c3.555,0.056,6.408,2.883,6.288,6.231
		c-0.098,2.72-3.387,5.784-6.077,5.659c-3.448-0.159-5.999-2.677-5.984-5.908C389.057,193.302,391.529,190.741,394.815,190.793z"/>
	<path fill-rule="evenodd" clip-rule="evenodd" d="M250.195,103.273c-3.113,0.003-5.873-2.474-5.834-5.237
		c0.045-3.136,3.06-6.15,6.214-6.213c3.229-0.063,6.211,2.859,6.176,6.054C256.714,101.267,254.281,103.268,250.195,103.273z"/>
	<path fill-rule="evenodd" clip-rule="evenodd" d="M399.335,242.592c-0.007-3.657,2.288-6.012,5.795-5.946
		c3.134,0.058,5.669,3.07,5.61,6.662c-0.051,2.969-2.599,5.307-5.82,5.339C401.448,248.681,399.342,246.398,399.335,242.592z"/>
	<path fill-rule="evenodd" clip-rule="evenodd" d="M100.746,282.982c3.117-0.031,5.994,3.019,5.997,6.356
		c0.003,2.84-2.682,5.267-5.891,5.325c-3.709,0.066-6.129-2.279-6.094-5.909C94.791,285.308,97.167,283.019,100.746,282.982z"/>
	<path fill-rule="evenodd" clip-rule="evenodd" d="M110.082,174.726c0.201-2.979,3.002-5.524,5.88-5.343
		c3.586,0.226,5.895,3.038,5.575,6.789c-0.261,3.057-2.98,5.591-5.83,5.434C112.487,181.428,109.848,178.199,110.082,174.726z"/>
	<path fill-rule="evenodd" clip-rule="evenodd" d="M209.203,104.937c-0.006,3.173-2.782,5.689-6.245,5.663
		c-2.954-0.022-5.773-2.996-5.703-6.015c0.072-3.104,2.802-5.818,5.887-5.853C206.44,98.696,209.209,101.529,209.203,104.937z"/>
	<path fill-rule="evenodd" clip-rule="evenodd" d="M90.441,265.971c-0.078-3.133,2.437-5.762,5.597-5.853
		c3.115-0.088,6.67,3.105,6.716,6.002c0.044,2.813-4.022,5.432-6.255,5.578C93.234,271.912,90.525,269.304,90.441,265.971z"/>
	<path fill-rule="evenodd" clip-rule="evenodd" d="M399.947,294.521c-3.34,0.01-5.708-2.514-5.694-6.067
		c0.013-3.213,2.327-5.463,5.647-5.488c3.567-0.028,6.367,2.919,6.275,6.606C406.108,292.275,403.297,294.511,399.947,294.521z"/>
	<path fill-rule="evenodd" clip-rule="evenodd" d="M106.287,190.79c3.415-0.014,5.692,2.412,5.648,6.014
		c-0.036,3.025-2.791,5.968-5.637,6.025c-3.118,0.063-5.867-2.827-5.804-6.1C100.563,193.202,102.903,190.803,106.287,190.79z"/>
	<path fill-rule="evenodd" clip-rule="evenodd" d="M356.963,146.131c-3.392-0.122-5.837-2.591-5.693-5.746
		c0.169-3.686,2.558-5.801,6.381-5.652c3.138,0.123,5.768,3.21,5.647,6.629C363.202,144.121,360.368,146.253,356.963,146.131z"/>
	<path fill-rule="evenodd" clip-rule="evenodd" d="M392.601,305.214c3.239-0.029,6.054,2.667,6.146,5.888
		c0.08,2.81-2.747,5.66-5.62,5.669c-3.58,0.012-6.188-2.443-6.279-5.91C386.765,307.757,389.327,305.242,392.601,305.214z"/>
	<path fill-rule="evenodd" clip-rule="evenodd" d="M107.781,305.333c3.653,0.08,5.94,2.364,5.882,5.872
		c-0.051,3.126-2.945,5.777-6.244,5.724c-3.39-0.057-5.281-2.13-5.177-5.673C102.362,307.21,104.192,305.254,107.781,305.333z"/>
	<path fill-rule="evenodd" clip-rule="evenodd" d="M385.228,169.655c3.171-0.037,5.759,2.636,5.844,6.035
		c0.066,2.652-2.925,5.648-5.681,5.689c-3.266,0.049-5.971-2.708-6.085-6.2C379.213,172.325,382.034,169.692,385.228,169.655z"/>
	<path fill-rule="evenodd" clip-rule="evenodd" d="M336.42,385.56c-3.324-0.022-6.355-2.804-6.262-5.743
		c0.102-3.177,2.993-5.797,6.304-5.712c3.182,0.083,5.414,2.262,5.458,5.324C341.975,383.303,339.93,385.583,336.42,385.56z"/>
	<path fill-rule="evenodd" clip-rule="evenodd" d="M180.995,107.288c2.901-0.016,5.871,2.896,5.942,5.827
		c0.078,3.189-2.37,6.105-5.339,5.73c-4.167-0.525-6.225-1.236-6.319-4.63C175.182,110.733,178.068,107.304,180.995,107.288z"/>
	<path fill-rule="evenodd" clip-rule="evenodd" d="M404.889,271.602c-3.129-0.017-5.948-2.716-5.907-5.656
		c0.045-3.258,2.829-5.898,6.144-5.828c2.904,0.063,5.641,3.128,5.67,6.353C410.821,269.384,408.249,271.62,404.889,271.602z"/>
	<path fill-rule="evenodd" clip-rule="evenodd" d="M112.447,331.821c0.1-3.803,2.307-5.35,6.041-5.746
		c2.399-0.256,5.404,2.852,5.454,5.291c0.066,3.255-2.607,6.543-5.368,6.603C115.382,338.038,112.433,335.079,112.447,331.821z"/>
	<path fill-rule="evenodd" clip-rule="evenodd" d="M167.447,125.587c0.033,2.914-2.563,5.655-5.295,5.591
		c-4.053-0.094-6.571-2.361-6.592-5.935c-0.014-2.546,2.872-5.223,5.724-5.309C164.563,119.836,167.412,122.448,167.447,125.587z"/>
	<path fill-rule="evenodd" clip-rule="evenodd" d="M303.654,104.837c-0.098,2.597-3.309,5.828-5.755,5.792
		c-3.222-0.047-6.234-3.195-6.065-6.338c0.188-3.536,2.542-5.286,6.702-5.17C301.896,99.214,303.276,101.674,303.654,104.837z"/>
	<path fill-rule="evenodd" clip-rule="evenodd" d="M354.863,359.733c3.242,0.106,5.549,2.44,5.514,5.577
		c-0.035,3.133-2.832,5.712-6.178,5.696c-3.32-0.017-5.673-2.504-5.534-5.853C348.808,361.686,351.177,359.612,354.863,359.733z"/>
	<path fill-rule="evenodd" clip-rule="evenodd" d="M302.079,398.647c0.039,3.125-2.6,5.502-6.22,5.603
		c-2.62,0.073-5.235-2.529-5.301-5.272c-0.086-3.612,2.351-6.185,5.891-6.222C299.548,392.725,302.038,395.33,302.079,398.647z"/>
	<path fill-rule="evenodd" clip-rule="evenodd" d="M183.86,384.877c3.409,0.014,6.187,2.76,6.145,6.076
		c-0.039,3.043-2.571,5.356-5.784,5.285c-3.532-0.078-5.887-2.285-5.869-5.5C178.372,387.272,180.634,384.865,183.86,384.877z"/>
	<path fill-rule="evenodd" clip-rule="evenodd" d="M274.717,104.947c-3.587-0.057-5.916-2.19-5.917-5.418
		c-0.001-3.052,2.548-5.754,5.466-5.794c3.704-0.05,6.044,2.426,5.974,6.321C280.179,103.369,278.333,105.004,274.717,104.947z"/>
	<path fill-rule="evenodd" clip-rule="evenodd" d="M137.083,349.269c0.029,3.671-2.45,5.948-6.423,5.904
		c-2.812-0.033-5.209-2.598-5.07-5.68c0.181-3.971,2.18-5.277,6.044-5.683C134.247,343.537,137.061,346.561,137.083,349.269z"/>
	<path fill-rule="evenodd" clip-rule="evenodd" d="M141.102,365.658c-0.003-3.397,2.341-5.832,5.648-5.862
		c2.974-0.026,5.881,2.972,5.951,6.14c0.061,2.789-2.42,5.036-5.667,5.135C143.482,371.178,141.105,369.01,141.102,365.658z"/>
	<path fill-rule="evenodd" clip-rule="evenodd" d="M316.525,396.268c-2.447,0.038-4.923-2.603-4.954-5.286
		c-0.039-3.373,2.492-6.006,5.808-6.039c3.076-0.033,5.786,2.666,5.784,5.759C323.161,393.775,320.257,396.21,316.525,396.268z"/>
	<path fill-rule="evenodd" clip-rule="evenodd" d="M226.552,105.041c-3.117-0.015-5.335-2.41-5.268-5.691
		c0.066-3.245,2.552-5.333,6.348-5.331c2.917,0.001,5.099,2.249,5.086,5.238C232.702,102.881,230.38,105.06,226.552,105.041z"/>
	<path fill-rule="evenodd" clip-rule="evenodd" d="M382.259,325.97c3.082-0.078,6.069,2.753,6.163,5.844
		c0.088,2.885-2.312,5.461-5.215,5.597c-2.988,0.143-6.123-2.554-6.23-5.354C376.846,328.62,379.075,326.051,382.259,325.97z"/>
	<path fill-rule="evenodd" clip-rule="evenodd" d="M165.107,374.557c3.679,0.017,5.491,1.695,5.406,5.01
		c-0.086,3.389-2.505,5.959-5.577,5.926c-3.62-0.039-6.167-2.296-6.052-5.361C159.013,376.716,161.442,374.54,165.107,374.557z"/>
	<path fill-rule="evenodd" clip-rule="evenodd" d="M339.854,120.409c3.71,0.034,6.183,2.16,6.195,5.327
		c0.013,3.285-2.671,5.671-6.257,5.564c-3.331-0.1-5.435-2.302-5.407-5.658C334.414,122.467,336.596,120.379,339.854,120.409z"/>
	<path fill-rule="evenodd" clip-rule="evenodd" d="M205.063,393.282c3.083,0.039,5.845,2.824,5.856,5.904
		c0.008,2.334-3.026,5.13-5.594,5.153c-3.294,0.031-6.413-2.943-6.33-6.037C199.07,395.535,201.842,393.242,205.063,393.282z"/>
	<path fill-rule="evenodd" clip-rule="evenodd" d="M279.188,404.037c-0.019,3.171-2.235,5.818-4.917,5.874
		c-3.246,0.066-6.071-2.682-6.037-5.871c0.035-3.302,2.41-5.725,5.676-5.789C276.958,398.191,279.207,400.656,279.188,404.037z"/>
	<path fill-rule="evenodd" clip-rule="evenodd" d="M320.342,118.761c-3.765,0.052-6.333-2.15-6.293-5.395
		c0.035-2.764,3.153-5.507,6.243-5.491c2.945,0.015,5.448,2.843,5.456,6.162C325.754,116.802,323.563,118.717,320.342,118.761z"/>
	<path fill-rule="evenodd" clip-rule="evenodd" d="M369.271,355.107c-3.635-0.166-5.617-2.27-5.458-5.79
		c0.137-3.031,2.653-5.18,5.934-5.066c3.429,0.12,5.304,2.143,5.15,5.553C374.728,353.562,372.909,355.275,369.271,355.107z"/>
	<path fill-rule="evenodd" clip-rule="evenodd" d="M227.655,409.014c-3.379-0.052-5.8-2.103-5.804-4.914
		c-0.004-3.779,2.338-6.12,6.007-6.001c3.02,0.098,5.533,2.963,5.404,6.162C233.147,407.133,230.871,409.063,227.655,409.014z"/>
	<path fill-rule="evenodd" clip-rule="evenodd" d="M250.649,399.779c3.27-0.004,5.748,2.307,5.703,5.315
		c-0.045,3.005-2.639,5.712-5.526,5.769c-2.805,0.053-5.889-2.688-5.97-5.304C244.749,402.056,247.027,399.782,250.649,399.779z"/>
	<path fill-rule="evenodd" clip-rule="evenodd" d="M134.551,156.634c-0.204,3.113-2.684,5.588-5.44,5.429
		c-3.099-0.179-5.961-3.168-5.708-5.959c0.282-3.103,3.189-5.587,6.227-5.32C132.59,151.044,134.749,153.611,134.551,156.634z"/>
	<path fill-rule="evenodd" clip-rule="evenodd" d="M371.74,161.673c-3.344-0.011-5.067-1.824-5.079-5.338
		c-0.011-3.429,1.843-5.483,4.997-5.538c3.526-0.06,5.912,2.409,5.88,6.088C377.512,159.797,375.227,161.685,371.74,161.673z"/>
	<path fill-rule="evenodd" clip-rule="evenodd" d="M250.859,333.468c-44.649,0.246-80.12-35.458-81.18-79.5
		c-1.115-46.354,36.609-83.432,79.913-83.71c45.857-0.295,80.229,36.065,81.785,78.864
		C333.097,296.396,295.168,334.1,250.859,333.468z M174.824,251.528c0.117,43.508,32.351,76.145,74.371,76.975
		c45.151,0.894,76.851-34.297,77.188-76.563c0.329-40.979-31.938-74.79-72.072-76.584
		C210.331,173.39,174.767,209.337,174.824,251.528z"/>
	<path fill-rule="evenodd" clip-rule="evenodd" d="M201.24,251.806c-0.458-27.13,22.441-50.459,50.213-49.995
		c26.632,0.446,48.132,22.662,48.205,50.789c0.068,26.332-22.574,49.388-48.196,49.288C222.57,301.776,201.206,278.3,201.24,251.806
		z M294.559,252.346c0.001-25.188-19.588-45.198-43.027-45.494c-25.106-0.317-44.257,19.387-45.157,42.75
		c-1.058,27.48,20.47,46.778,44.541,47.28C274.298,297.372,295.449,275.092,294.559,252.346z"/>
	<path fill-rule="evenodd" clip-rule="evenodd" d="M313.316,252.257c-2.813-0.042-5.043-2.338-5.013-5.163
		c0.026-2.358,2.601-4.717,5.144-4.712c2.909,0.007,5.203,2.583,5.065,5.689C318.403,250.514,316.187,252.3,313.316,252.257z"/>
	<path fill-rule="evenodd" clip-rule="evenodd" d="M246.481,314.195c0.033,2.953-1.739,4.82-4.637,4.89
		c-3.145,0.075-5.13-1.88-5.134-5.054c-0.003-2.837,1.74-4.654,4.494-4.686C244.518,309.308,246.447,311.081,246.481,314.195z"/>
	<path fill-rule="evenodd" clip-rule="evenodd" d="M303.712,228.383c0.034-3.067,2.145-5.241,5.095-5.251
		c2.642-0.009,4.714,2.333,4.725,5.339c0.009,2.543-2.086,4.622-4.707,4.67C305.728,233.197,303.678,231.29,303.712,228.383z"/>
	<path fill-rule="evenodd" clip-rule="evenodd" d="M299.379,206.879c2.753,0.041,4.829,2.404,4.849,5.517
		c0.012,2.214-2.35,4.521-4.628,4.521c-2.785-0.001-5.457-2.498-5.49-5.128C294.078,209.286,296.703,206.84,299.379,206.879z"/>
	<path fill-rule="evenodd" clip-rule="evenodd" d="M285.752,204.022c-3.185-0.051-5.185-2.078-5.081-5.147
		c0.089-2.632,2.15-4.602,4.801-4.587c2.741,0.015,5.168,2.585,5.075,5.376C290.455,202.43,288.651,204.068,285.752,204.022z"/>
	<path fill-rule="evenodd" clip-rule="evenodd" d="M182.787,246.461c0.025-2.855,1.932-4.667,4.885-4.644
		c2.829,0.022,4.978,2.089,4.922,4.733c-0.061,2.925-2.037,5.045-4.638,4.98C184.688,251.447,182.759,249.556,182.787,246.461z"/>
	<path fill-rule="evenodd" clip-rule="evenodd" d="M189.04,261.098c3.172-0.063,5.274,1.908,5.338,5.005
		c0.055,2.673-1.924,4.817-4.478,4.854c-2.525,0.035-5.178-2.271-5.275-4.586C184.486,263.081,186.098,261.157,189.04,261.098z"/>
	<path fill-rule="evenodd" clip-rule="evenodd" d="M277.822,313.934c-3.277-0.031-5.426-2.225-5.287-5.399
		c0.098-2.235,2.346-4.266,4.623-4.175c3.009,0.118,5.362,2.051,5.373,4.411C282.546,311.96,280.722,313.961,277.822,313.934z"/>
	<path fill-rule="evenodd" clip-rule="evenodd" d="M201.204,284.039c0.008,2.347-2.413,4.621-4.858,4.564
		c-2.816-0.066-5.059-1.944-5.128-4.297c-0.092-3.126,1.777-5.295,4.591-5.328C198.71,278.942,201.195,281.272,201.204,284.039z"/>
	<path fill-rule="evenodd" clip-rule="evenodd" d="M228.147,309.029c0.062,2.73-2.031,4.857-4.78,4.859
		c-2.539,0.004-4.748-2.126-4.809-4.637c-0.065-2.678,2.325-5.394,4.741-5.387C226.08,303.873,228.079,306.003,228.147,309.029z"/>
	<path fill-rule="evenodd" clip-rule="evenodd" d="M191.613,232.641c-2.859-0.071-4.765-1.915-4.693-4.542
		c0.08-2.959,2.215-5.2,4.928-5.171c2.681,0.029,4.937,2.458,4.835,5.208C196.578,230.955,194.596,232.715,191.613,232.641z"/>
	<path fill-rule="evenodd" clip-rule="evenodd" d="M304.856,288.816c-3.126-0.002-5.154-2.022-5.169-5.147
		c-0.009-2.033,2.541-4.558,4.629-4.583c3.133-0.038,5.143,1.978,5.133,5.147C309.438,287.146,307.763,288.818,304.856,288.816z"/>
	<path fill-rule="evenodd" clip-rule="evenodd" d="M259.439,319.09c-3.479-0.07-5.109-1.722-4.994-5.059
		c0.102-2.969,1.885-4.335,5.471-4.194c2.497,0.099,4.313,2.204,4.304,4.99C264.212,317.475,262.334,319.147,259.439,319.09z"/>
	<path fill-rule="evenodd" clip-rule="evenodd" d="M206.986,211.403c-0.089,2.657-2.402,5.127-4.789,5.112
		c-2.945-0.019-5.124-2.396-4.965-5.417c0.136-2.591,2.215-4.382,5.011-4.317C204.926,206.841,207.069,208.931,206.986,211.403z"/>
	<path fill-rule="evenodd" clip-rule="evenodd" d="M311.497,271.158c-2.997-0.149-4.8-2.181-4.662-5.257
		c0.116-2.595,2.549-4.645,5.275-4.441c2.511,0.188,4.341,2.549,4.242,5.476C316.258,269.771,314.492,271.307,311.497,271.158z"/>
	<path fill-rule="evenodd" clip-rule="evenodd" d="M215.438,194.851c2.98,0.033,5.217,2.049,5.264,4.747
		c0.047,2.64-2.494,4.855-5.591,4.875c-2.164,0.014-4.184-2.518-4.135-5.182C211.023,196.737,212.945,194.824,215.438,194.851z"/>
	<path fill-rule="evenodd" clip-rule="evenodd" d="M207.877,303.063c-3.277,0.005-4.981-1.534-4.921-4.447
		c0.061-2.968,1.985-5.021,4.646-4.958c3.212,0.077,5.12,1.845,5.139,4.764C212.76,301.286,210.906,303.057,207.877,303.063z"/>
	<path fill-rule="evenodd" clip-rule="evenodd" d="M268.661,186.851c2.706,0.112,4.851,2.414,4.67,5.01
		c-0.18,2.593-2.492,4.606-5.215,4.541c-2.842-0.068-4.662-1.962-4.508-4.688C263.782,188.646,265.772,186.731,268.661,186.851z"/>
	<path fill-rule="evenodd" clip-rule="evenodd" d="M292.801,293.886c2.764,0.008,4.765,1.86,4.802,4.45
		c0.044,3.093-1.928,5.298-4.704,5.26c-2.843-0.039-4.858-2.232-4.793-5.215C288.164,295.738,290.107,293.878,292.801,293.886z"/>
	<path fill-rule="evenodd" clip-rule="evenodd" d="M250.117,183.97c2.817,0.005,5.479,2.307,5.449,4.708
		c-0.03,2.327-2.686,4.803-5.123,4.775c-2.428-0.028-4.556-2.325-4.539-4.898C245.925,185.758,247.571,183.965,250.117,183.97z"/>
	<path fill-rule="evenodd" clip-rule="evenodd" d="M232.646,195.522c-3.021-0.157-4.934-1.883-4.886-4.408
		c0.052-2.681,2.351-4.982,4.896-4.903c2.953,0.093,4.808,2.191,4.634,5.244C237.17,193.573,234.816,195.635,232.646,195.522z"/>
	<path fill-rule="evenodd" clip-rule="evenodd" d="M251.651,273.52c-11.08,0.482-21.258-6.604-22.545-20.034
		c-1.121-11.698,8.126-20.971,17.952-22.534c14.462-2.3,23.926,7.69,24.99,19.826C272.989,261.496,263.405,273.338,251.651,273.52z
		 M267.122,251.944c0.475-7.558-6.672-16.558-15.97-16.292c-9.877,0.281-16.928,6.293-17.24,16.682
		c-0.248,8.231,7.787,16.325,15.893,16.35C259.114,268.713,267.118,260.976,267.122,251.944z"/>
	<path fill-rule="evenodd" clip-rule="evenodd" d="M246.878,283.605c-0.074,2.147-1.853,3.649-4.231,3.568
		c-2.255-0.075-3.658-1.548-3.629-3.812c0.03-2.462,1.54-3.914,3.918-3.77C245.157,279.728,246.949,281.552,246.878,283.605z"/>
	<path fill-rule="evenodd" clip-rule="evenodd" d="M217.808,266.958c-0.031-2.339,1.371-3.931,3.518-3.993
		c2.022-0.059,4.314,1.934,4.322,3.759c0.006,1.635-2.501,4.154-4.167,4.188C219.463,270.951,217.837,269.201,217.808,266.958z"/>
	<path fill-rule="evenodd" clip-rule="evenodd" d="M271.911,232.626c-1.794-0.039-3.559-1.952-3.524-3.822
		c0.041-2.176,1.865-4.021,3.98-4.026c1.938-0.005,3.769,1.939,3.709,3.937C276.017,230.739,273.959,232.67,271.911,232.626z"/>
	<path fill-rule="evenodd" clip-rule="evenodd" d="M213.84,252.983c0.017-1.998,1.823-3.608,3.974-3.543
		c2.012,0.06,3.958,1.88,3.772,3.78c-0.2,2.041-1.16,3.637-3.505,3.696C215.582,256.979,213.82,255.292,213.84,252.983z"/>
	<path fill-rule="evenodd" clip-rule="evenodd" d="M229.277,273.672c1.87,0.056,3.903,2.124,3.796,3.861
		c-0.104,1.716-2.335,3.716-4.099,3.676c-1.98-0.045-3.765-1.968-3.661-3.945C225.427,275.145,227.123,273.606,229.277,273.672z"/>
	<path fill-rule="evenodd" clip-rule="evenodd" d="M280.557,235.535c1.992-0.052,4.005,1.662,4.138,3.525
		c0.127,1.785-1.824,3.791-3.772,3.879c-1.916,0.086-3.955-1.89-4.062-3.935C276.766,237.163,278.44,235.59,280.557,235.535z"/>
	<path fill-rule="evenodd" clip-rule="evenodd" d="M223.556,239.513c-0.057,2.212-1.613,3.661-3.873,3.513
		c-2.153-0.14-3.584-1.092-3.553-3.49c0.027-2.071,1.962-4.008,3.965-3.973C222.262,235.6,223.617,237.147,223.556,239.513z"/>
	<path fill-rule="evenodd" clip-rule="evenodd" d="M257.621,287.14c-2.099-0.205-3.288-1.576-3.466-3.694
		c-0.171-2.038,1.825-3.873,3.834-3.777c2.021,0.097,3.837,1.959,3.833,3.934C261.819,285.514,259.941,287.156,257.621,287.14z"/>
	<path fill-rule="evenodd" clip-rule="evenodd" d="M271.276,281.377c-2.139,0.048-3.77-1.489-3.849-3.629
		c-0.08-2.124,1.467-3.771,3.644-3.88c1.847-0.092,4.025,1.89,4.002,3.641C275.049,279.389,273.137,281.335,271.276,281.377z"/>
	<path fill-rule="evenodd" clip-rule="evenodd" d="M283.158,266.941c-0.05,2.135-1.83,4.005-3.679,3.867
		c-1.997-0.148-3.73-2.019-3.531-4.028c0.208-2.092,1.281-3.636,3.55-3.733C281.463,262.963,283.205,264.949,283.158,266.941z"/>
	<path fill-rule="evenodd" clip-rule="evenodd" d="M283.015,249.839c1.854,0.302,3.432,1.127,3.528,3.504
		c0.095,2.344-1.549,4.026-3.922,3.884c-2.123-0.127-3.255-1.539-3.464-3.488C278.936,251.671,280.791,249.853,283.015,249.839z"/>
	<path fill-rule="evenodd" clip-rule="evenodd" d="M234.301,221.083c-0.149-2.237,1.52-3.069,3.505-3.271
		c2.077-0.211,4.156,1.96,3.838,3.974c-0.325,2.065-1.579,3.546-3.829,3.339C235.684,224.929,234.076,223.895,234.301,221.083z"/>
	<path fill-rule="evenodd" clip-rule="evenodd" d="M247.29,219.33c-0.028-2.619,1.603-4.513,3.535-4.385
		c2.049,0.136,3.371,1.289,3.541,3.363c0.155,1.884-1.829,4.02-3.693,3.975C248.57,222.232,247.416,221.016,247.29,219.33z"/>
	<path fill-rule="evenodd" clip-rule="evenodd" d="M227.675,225.085c2.367-0.081,3.498,1.305,3.722,3.43
		c0.196,1.867-1.929,3.89-3.838,3.737c-2.197-0.175-3.467-1.334-3.456-3.675C224.114,226.452,225.461,225.109,227.675,225.085z"/>
	<path fill-rule="evenodd" clip-rule="evenodd" d="M262.614,218.326c2.529-0.345,3.382,1.262,3.672,3.14
		c0.263,1.697-1.819,3.677-3.588,3.728c-2.026,0.059-3.847-1.542-3.748-3.411C259.073,219.438,260.145,218.017,262.614,218.326z"/>
	<path fill-rule="evenodd" clip-rule="evenodd" d="M253.808,243.847c-1.713,1.121-2.789,2.371-3.806,2.324
		c-0.871-0.04-2.526-1.92-2.341-2.364c0.495-1.184,1.654-2.425,2.832-2.842C251.04,240.772,252.245,242.435,253.808,243.847z"/>
	<path fill-rule="evenodd" clip-rule="evenodd" d="M242.403,248.08c1.117,1.837,2.303,2.918,2.18,3.821
		c-0.13,0.947-1.489,2.36-2.356,2.393c-0.831,0.032-2.436-1.471-2.408-2.254C239.856,250.963,241.112,249.931,242.403,248.08z"/>
	<path fill-rule="evenodd" clip-rule="evenodd" d="M250.81,257.397c0.644,1.028,1.753,2.049,1.77,3.085
		c0.011,0.744-1.378,2.036-2.259,2.146c-1.42,0.176-2.887-0.76-2.603-2.466c0.166-0.997,1.234-1.844,1.896-2.759
		C250.012,257.402,250.411,257.4,250.81,257.397z"/>
	<path fill-rule="evenodd" clip-rule="evenodd" d="M262.71,252.296c-1.649,1.109-2.649,2.282-3.316,2.115
		c-0.999-0.25-2.447-1.44-2.447-2.23c0-0.922,1.366-2.593,2.116-2.58C260.051,249.619,261.017,250.958,262.71,252.296z"/>
</g>
</svg>
