<?xml version="1.0" encoding="utf-8"?>
<!-- Generator: Adobe Illustrator 16.0.0, SVG Export Plug-In . SVG Version: 6.00 Build 0)  -->
<!DOCTYPE svg PUBLIC "-//W3C//DTD SVG 1.1//EN" "http://www.w3.org/Graphics/SVG/1.1/DTD/svg11.dtd">
<svg version="1.1" id="Layer_1" xmlns="http://www.w3.org/2000/svg" xmlns:xlink="http://www.w3.org/1999/xlink" x="0px" y="0px"
	 width="500px" height="500px" viewBox="0 0 500 500" enable-background="new 0 0 500 500" xml:space="preserve">
<g>
	<path fill-rule="evenodd" clip-rule="evenodd" d="M63.568,226.32c-11.694,3.678-22.574,8.997-33.236,14.842
		c-1.43,0.784-3.429,3.261-5.034,0.336c-1.44-2.625,1.083-3.412,2.75-4.346c9.281-5.202,18.686-10.146,28.881-13.375
		c1.433-0.454,2.878-0.869,4.67-1.408c-0.378-1.484-0.761-2.988-1.108-4.353c-6.372,0-12.583-0.416-18.718,0.098
		c-9.166,0.767-18.27,2.256-27.421,3.24c-1.103,0.118-2.992-0.709-3.375-1.593c-0.811-1.871,0.697-2.396,2.436-2.781
		c13.161-2.919,26.497-3.83,39.933-3.729c2.091,0.016,4.183,0.002,6.434,0.002c1.142-2.136,1.036-3.455-1.931-4.276
		c-17.45-4.831-34.843-9.871-52.278-14.756c-1.95-0.547-3.348-1.326-2.649-3.464c0.661-2.024,2.221-1.646,3.971-1.124
		c18.094,5.396,36.216,10.696,54.549,16.087c0.442-0.92,0.865-1.801,1.076-2.241c-10.107-7.61-20.006-14.994-29.817-22.492
		c-3.025-2.312-5.792-4.959-8.726-7.396c-1.32-1.096-2.227-2.198-0.792-3.782c1.393-1.538,2.629-0.827,3.94,0.271
		c6.863,5.748,13.618,11.641,20.699,17.107c5.565,4.296,11.55,8.047,17.528,12.164c1.295-1.372,2.565-2.716,3.501-3.707
		c-5.655-7.553-11.396-14.859-16.708-22.467c-2.701-3.868-4.68-8.25-6.88-12.455c-0.79-1.509-1.646-3.409,0.566-4.412
		c2.255-1.022,3.125,1.066,3.75,2.524c4.318,10.076,10.672,18.83,17.451,27.318c0.832,1.041,1.75,2.016,2.666,2.986
		c3.797,4.022,3.803,4.018,8.433,1.688c-2.923-9.061-5.907-17.998-8.663-27.005c-1.172-3.83-0.753-4.235,3.299-5.107
		c0.712,2.686,1.328,5.43,2.171,8.103c2.195,6.961,4.484,13.893,6.75,20.832c0.573,1.754,1.593,3.108,3.653,2.78
		c0.857-0.136,2.047-0.615,2.374-1.285c4.482-9.193,8.839-18.446,13.39-28.027c-4.039-2.687-8.521-5.672-13.009-8.649
		c-0.475-0.314-1.254-0.478-1.417-0.896c-0.499-1.278-0.765-2.647-1.122-3.981c1.271,0.133,2.798-0.142,3.77,0.468
		c4.902,3.075,9.661,6.38,14.31,9.497c7.005-8.505,13.866-16.835,20.868-25.337c-0.623-1.31-1.424-2.995-2.426-5.104
		c-8.977,1.631-18.009,3.275-27.044,4.905c-1.026,0.185-2.142,0.575-3.078,0.334c-0.791-0.204-1.816-1.118-1.929-1.844
		c-0.095-0.613,0.864-1.9,1.537-2.044c6.962-1.486,13.949-2.867,20.955-4.13c2.787-0.503,5.64-0.64,8.784-0.979
		c0-1.486,0.211-3.108-0.088-4.63c-0.152-0.771-1.123-1.774-1.899-1.967c-8.737-2.166-17.495-4.259-26.28-6.223
		c-2.866-0.642-5.842-0.771-8.739-1.296c-1.639-0.297-3.293-0.963-2.883-3.144c0.392-2.081,2.096-1.527,3.441-1.368
		c12.463,1.476,24.683,4.067,36.597,8.1c0.9-2.039,1.796-4.067,2.891-6.548c-9.528-5.845-19.068-11.732-28.65-17.551
		c-2.84-1.725-5.745-3.367-8.725-4.832c-1.833-0.901-2.087-2.054-1.228-3.658c0.914-1.706,2.182-1.442,3.593-0.579
		c11.993,7.338,23.99,14.671,36.02,21.951c0.822,0.497,1.91,0.556,2.875,0.817c-0.29-0.91-0.364-1.979-0.902-2.708
		c-7.861-10.651-15.797-21.249-23.687-31.88c-2.555-3.442-5.037-6.937-7.531-10.423c-0.819-1.146-1.328-2.256,0.161-3.393
		c1.433-1.095,2.511-0.592,3.401,0.591c3.601,4.789,7.147,9.62,10.72,14.431c7.32,9.856,14.642,19.71,21.976,29.557
		c0.142,0.19,0.434,0.27,1.307,0.783c-0.814-3.215-1.506-5.859-2.153-8.517c-2.942-12.075-5.873-24.154-8.797-36.234
		c-0.111-0.458-0.306-1.051-0.119-1.396c0.523-0.968,1.226-1.838,1.857-2.747c0.861,0.712,2.28,1.283,2.499,2.155
		c3.447,13.722,6.74,27.481,10.063,41.233c0.243,1.007,0.434,2.026,0.727,3.405c1.556-0.181,3.094-0.36,4.143-0.482
		c1.198-10.342,2.317-20.447,3.567-30.536c0.373-3.007,1.1-5.971,1.689-8.949c0.346-1.754,0.423-3.983,3.085-3.43
		c2.604,0.541,1.504,2.683,1.313,4.222c-1.411,11.402-3.053,22.779-4.284,34.2c-0.59,5.476,0.029,5.817,5.212,6.19
		c4.775-8.463,9.443-16.705,14.078-24.966c1.194-2.129,2.72-2.763,5.109-1.285c-5.072,9.527-10.119,19.006-15.183,28.52
		c1.658,1.32,2.833,2.255,3.543,2.82c10.487-5.078,20.757-10.053,31.056-15.04c-1.16-4.102-2.484-8.543-3.641-13.028
		c-0.33-1.278-0.912-3.1,1.239-3.451c1.826-0.298,2.261,1.12,2.675,2.637c1.17,4.283,2.51,8.521,3.669,12.394
		c11.558-2.596,22.678-5.093,34.079-7.653c0.61-1.608-0.34-2.91-2.193-3.771c-7.812-3.628-15.61-7.288-23.457-10.842
		c-1.462-0.662-3.371-0.752-2.65-3.083c0.707-2.287,2.516-2.148,4.193-1.433c5.315,2.267,10.622,4.563,15.836,7.049
		c3.169,1.511,6.161,3.394,9.339,5.169c1.221-2.047,2.515-4.215,4.26-7.138c-7.746-7.873-15.731-15.979-23.698-24.103
		c-0.852-0.869-1.841-1.74-2.3-2.811c-0.324-0.758-0.181-2.175,0.347-2.701c0.461-0.459,2.088-0.476,2.623-0.017
		c3.902,3.35,7.854,6.68,11.413,10.379c5.138,5.342,9.956,10.991,15.07,16.687c1.545-0.879,3.421-1.944,5.706-3.24
		c-2.608-6.144-5.07-12.384-7.894-18.456c-2.563-5.51-5.522-10.835-8.296-16.248c-0.434-0.848-0.759-1.752-1.22-2.583
		c-0.884-1.594-0.791-3.024,0.908-3.871s2.703,0.374,3.41,1.684c2.03,3.762,4.167,7.481,5.933,11.367
		c3.809,8.377,7.41,16.847,11.099,25.277c0.223,0.509,0.474,1.004,1.012,2.135c0.157-1.226,0.301-1.809,0.297-2.391
		c-0.096-16.988-0.211-33.976-0.303-50.964c-0.008-1.473,0.075-2.933,2.189-2.931c2.082,0.001,2.471,1.16,2.449,2.961
		c-0.191,16.787-0.336,33.573-0.476,50.36c-0.007,0.812,0.16,1.626,0.247,2.438c0.258,0.022,0.515,0.045,0.771,0.067
		c0.275-0.524,0.637-1.021,0.814-1.576c4.097-12.791,10.316-24.626,16.382-36.533c0.811-1.594,1.831-2.832,3.759-1.865
		c1.977,0.991,1.516,2.68,0.72,4.183c-2.93,5.533-6.212,10.899-8.832,16.572c-3.094,6.698-5.638,13.65-8.475,20.625
		c2.132,1.143,3.948,2.116,5.675,3.041c6.251-6.64,12.48-13.295,18.758-19.903c2.102-2.212,4.361-4.271,6.485-6.465
		c1.297-1.34,2.721-2.012,4.157-0.517c1.353,1.406,0.575,2.73-0.649,3.945c-5.075,5.037-10.165,10.061-15.13,15.205
		c-2.905,3.01-5.521,6.298-8.393,9.343c-1.231,1.305-1.317,2.283-0.16,3.653c0.968,1.145,1.666,2.518,2.591,3.958
		c5.701-2.756,11.456-5.619,17.286-8.322c2.833-1.313,5.802-2.34,8.719-3.471c1.744-0.677,3.033-0.1,3.645,1.636
		c0.673,1.91-0.929,2.143-2.132,2.659c-8.959,3.84-17.912,7.694-26.457,11.367c-0.457,3.359,0.704,4.244,3.055,4.757
		c9.867,2.151,19.685,4.529,29.522,6.815c0.171,0.039,0.37-0.038,0.942-0.108c1.253-3.549,2.562-7.267,3.879-10.982
		c0.286-0.807,0.422-1.764,0.953-2.363c0.699-0.791,1.72-1.298,2.602-1.927c0.412,1.096,1.386,2.343,1.138,3.26
		c-0.987,3.646-2.364,7.187-3.577,10.772c-0.296,0.873-0.518,1.771-0.661,2.266c10.647,5.081,20.997,10.021,31.531,15.047
		c0.737-0.631,1.808-1.547,2.879-2.462c0.24-0.146,0.48-0.293,0.722-0.438c-4.661-8.128-9.346-16.241-13.959-24.395
		c-0.79-1.396-3.041-3.032-0.568-4.541c2.254-1.375,3.467,0.853,4.362,2.396c4.697,8.092,9.264,16.261,14,24.62
		c1.353-0.399,3.229-0.954,5.601-1.654c-0.739-7.668-1.359-15.333-2.253-22.966c-0.651-5.562-1.644-11.084-2.524-16.617
		c-0.274-1.729,0.087-3.325,1.92-3.454c0.704-0.05,2.068,1.557,2.217,2.547c1.358,9.021,2.584,18.065,3.697,27.121
		c0.451,3.676,0.593,7.396,0.751,11.1c0.066,1.576,0.525,2.491,2.242,2.531c1.532,0.036,2.918,0.346,3.455-1.859
		c2.553-10.499,5.313-20.949,7.88-31.444c0.835-3.413,1.326-6.911,1.941-10.376c0.298-1.683,1.029-3.196,2.904-2.579
		c0.746,0.246,1.555,2.098,1.384,3.048c-1.259,7.002-2.614,13.994-4.221,20.924c-1.756,7.574-3.82,15.076-5.728,22.614
		c-0.146,0.576-0.105,1.198,0.434,2.086c1.414-1.958,2.79-3.943,4.246-5.87c8.957-11.852,17.938-23.685,26.895-35.537
		c0.916-1.212,1.699-2.523,2.583-3.762c0.917-1.285,2.117-1.664,3.433-0.679c1.321,0.989,1.213,2.126,0.237,3.428
		c-6.113,8.152-12.157,16.356-18.268,24.512c-4.961,6.622-9.983,13.197-15.046,19.883c0.699,0.541,1.289,0.998,1.887,1.46
		c0.312-0.164,0.569-0.275,0.804-0.424c11.133-7.107,22.259-14.223,33.398-21.318c1.2-0.765,2.408-1.725,3.738-2.009
		c0.941-0.201,2.389,0.319,3.036,1.037c0.358,0.398-0.151,2.279-0.807,2.763c-1.899,1.399-4.116,2.357-6.129,3.616
		c-9.67,6.05-19.313,12.142-28.968,18.218c-0.721,0.453-1.444,0.9-2.344,1.461c0.829,2.019,1.675,4.075,2.545,6.192
		c5.656-1.505,11.254-3.23,16.96-4.45c6.402-1.368,12.894-2.335,19.366-3.341c1.326-0.206,2.994-0.229,3.279,1.801
		c0.292,2.087-1.12,2.597-2.738,2.862c-6.274,1.026-12.575,1.917-18.819,3.104c-4.362,0.83-8.67,1.981-12.964,3.133
		c-4.842,1.299-4.981,1.592-4.938,7.14c6.126,1.003,12.299,1.958,18.45,3.044c3.446,0.607,6.863,1.396,10.278,2.172
		c2.93,0.665,2.919,0.708,2.401,4.664c-10.67-1.896-21.322-3.788-32.116-5.705c-0.791,1.419-1.623,2.685-2.201,4.058
		c-0.235,0.559-0.183,1.57,0.183,2.004c6.784,8.056,13.636,16.056,20.756,24.398c4.315-2.869,8.995-6.046,13.754-9.101
		c1.264-0.812,2.802-2.987,4.26-0.691c1.313,2.067-0.381,3.37-2.133,4.495c-4.714,3.028-9.343,6.189-14.212,9.437
		c6.069,8.612,10.288,17.987,14.172,27.56c0.36,0.887,2.727,0.96,4.828,1.62c2.84-8.771,5.508-16.931,8.106-25.111
		c0.482-1.522,0.701-3.13,1.014-4.704c0.303-1.528,0.773-2.831,2.765-2.34c1.858,0.458,2.097,1.906,1.707,3.365
		c-0.953,3.573-1.973,7.138-3.174,10.635c-2.117,6.165-4.39,12.278-6.549,18.278c1.952,0.543,4.213,1.173,7.163,1.994
		c3.809-5.213,8.059-10.573,11.796-16.27c3.898-5.941,7.222-12.258,11.004-18.28c0.639-1.016,2.327-1.371,3.531-2.031
		c0.132,1.175,0.672,2.487,0.331,3.505c-2.643,7.87-7.693,14.378-12.377,21.058c-3.435,4.898-7.246,9.532-11.072,14.521
		c0.83,0.895,1.892,2.038,3.266,3.519c6.807-4.695,13.727-9.206,20.353-14.113c6.109-4.525,11.906-9.473,17.833-14.243
		c1.073-0.863,2.059-2.341,3.558-0.765c1.47,1.545,0.861,2.972-0.601,4.136c-7.442,5.926-14.786,11.986-22.396,17.689
		c-5.22,3.911-10.819,7.316-16.321,10.997c0.478,0.964,0.93,1.875,1.438,2.901c12.079-3.586,24.054-7.163,36.042-10.691
		c6.362-1.872,12.761-3.615,19.113-5.515c1.76-0.526,3.059-0.402,3.562,1.537c0.48,1.854-0.663,2.376-2.271,2.834
		c-17.957,5.118-35.89,10.316-53.829,15.498c-0.452,0.131-0.888,0.321-1.474,0.537c0.134,0.99,0.266,1.977,0.49,3.646
		c4.042,0,8.195-0.271,12.302,0.052c10.907,0.86,21.795,1.971,32.688,3.005c0.649,0.062,1.468,0.133,1.879,0.535
		c0.849,0.832,1.475,1.891,2.192,2.856c-1.06,0.565-2.183,1.705-3.167,1.596c-3.677-0.408-7.305-1.254-10.959-1.885
		c-11.701-2.021-23.497-2.256-35.418-1.905c-0.345,1.463-0.68,2.881-1.033,4.377c3.886,1.396,7.824,2.48,11.47,4.189
		c8.063,3.781,16.009,7.822,23.913,11.925c0.841,0.437,1.742,2.188,1.498,2.989c-0.558,1.827-2.204,1.363-3.56,0.685
		c-5.86-2.936-11.624-6.074-17.579-8.798c-5.766-2.637-11.722-4.855-17.376-7.169c-1.696,1.95-2.975,3.422-4.228,4.862
		c4.589,4.457,9.293,8.981,13.941,13.563c1.559,1.536,3.224,3.062,4.361,4.889c0.648,1.042,0.329,2.686,0.445,4.058
		c-1.206-0.381-2.771-0.404-3.563-1.198c-6.181-6.2-12.214-12.547-18.035-18.583c-2.562,0.828-4.353,1.408-5.95,1.925
		c0.563,7.995,1.113,15.831,1.704,24.236c3.977,0,8.396,0.002,12.814,0c1.139-0.002,2.388-0.309,3.386,0.063
		c0.919,0.342,2.098,1.326,2.224,2.168c0.234,1.572-0.869,2.145-2.562,2.107c-5.358-0.125-10.722-0.047-16.091-0.047
		c-0.526,4.992-1.046,9.967-1.576,14.939c-0.363,3.404-0.319,6.926-1.239,10.176c-0.84,2.967,0.106,4.217,2.762,4.99
		c7.857-4.869,14.999-10.818,21.503-17.574c0.654-0.68,2.456-1.342,2.834-1.008c1.354,1.201,1.972,2.971,0.336,4.457
		c-3.871,3.518-7.745,7.045-11.816,10.32c-2.923,2.354-6.166,4.307-9.199,6.395c1.285,1.896,2.602,3.84,4.175,6.162
		c4.021-1.217,8.379-2.201,12.469-3.85c7.113-2.867,14.034-6.207,21.108-9.174c0.921-0.387,2.805-0.141,3.324,0.527
		c1.156,1.482,0.193,2.943-1.329,3.703c-3.821,1.91-7.596,3.982-11.581,5.473c-7.43,2.781-14.997,5.195-22.637,7.807
		c0.13,1.422,0.298,3.246,0.504,5.488c5.753,0,11.441,0.209,17.108-0.049c8.654-0.391,17.294-1.111,25.941-1.676
		c1.234-0.082,2.537-0.32,3.692-0.027c0.858,0.217,1.528,1.174,2.283,1.801c-0.678,0.729-1.279,1.994-2.043,2.1
		c-5.266,0.734-10.553,1.494-15.855,1.738c-8.646,0.396-17.311,0.43-25.968,0.563c-1.791,0.027-3.585-0.18-5.602-0.289
		c-0.126,0.973-0.243,1.871-0.379,2.914c9.463,3.451,18.77,6.951,28.151,10.234c8.404,2.941,16.886,5.666,25.351,8.434
		c1.881,0.615,2.359,2.072,1.854,3.555c-0.212,0.621-2.029,1.285-2.825,1.027c-10.735-3.475-21.454-7.006-32.104-10.734
		c-7.242-2.535-14.37-5.4-21.734-8.189c-0.499,0.824-1.011,1.668-1.434,2.365c7.41,6.27,14.813,12.262,21.889,18.615
		c4.594,4.125,8.697,8.793,13.053,13.186c1.139,1.15,1.46,2.223,0.098,3.375c-1.271,1.074-2.318,0.727-3.455-0.385
		c-5.316-5.197-10.554-10.49-16.092-15.445c-5.671-5.072-11.634-9.82-17.549-14.613c-0.511-0.414-1.68-0.305-2.426-0.066
		c-0.871,0.275-1.612,0.961-2.768,1.695c2.83,4.432,5.871,8.752,8.448,13.332c4.371,7.77,8.452,15.701,12.646,23.57
		c0.801,1.502,1.026,2.902-0.897,3.764c-2.003,0.898-2.52-0.49-3.319-1.922c-6.292-11.273-12.694-22.484-19.011-33.742
		c-1.137-2.027-2.429-2.938-4.746-1.762c-0.894,0.453-2.012,0.463-3.177,0.705c1.178,4.365,2.498,8.576,3.429,12.869
		c1.284,5.922,2.338,11.896,3.306,17.879c0.111,0.688-1.144,2.297-1.437,2.221c-1.03-0.27-2.451-0.895-2.753-1.734
		c-0.728-2.027-0.899-4.254-1.311-6.396c-1.622-8.449-3.25-16.896-4.839-25.158c-1.739-0.328-2.746-0.518-3.791-0.715
		c-5.749,9.082-11.524,18.207-17.391,27.473c4.021,3.379,8.408,6.98,12.674,10.719c0.946,0.83,1.463,2.15,2.178,3.246
		c-0.233,0.313-0.467,0.625-0.7,0.938c-1.125-0.375-2.422-0.51-3.347-1.168c-4.115-2.926-8.074-6.072-12.22-8.951
		c-0.699-0.488-2.503-0.51-3.008,0.016c-7.12,7.395-14.104,14.92-21.404,22.717c1.126,3.645,1.13,3.814,5.818,3.703
		c7.042-0.166,14.077-0.6,21.115-0.92c0.096-0.004,0.191-0.021,0.286-0.014c1.65,0.115,4.106-0.965,4.203,1.873
		c0.083,2.461-2.283,2.514-4.004,2.594c-8.552,0.398-17.109,0.666-25.883,0.988c0,2.109,0,4.438,0,7.5
		c11.5,3.23,23.244,6.529,34.988,9.826c0.641,0.18,1.478,0.156,1.882,0.564c0.748,0.754,1.242,1.758,1.841,2.656
		c-1.014,0.553-2.17,1.744-3.02,1.557c-5.825-1.289-11.655-2.643-17.349-4.412c-6.676-2.074-13.214-4.59-19.855-6.93
		c-0.906,1.453-1.853,2.971-2.777,4.453c11.571,10.279,23.996,19.197,37.011,27.316c0.725,0.451,1.747,0.811,2.041,1.475
		c0.393,0.889,0.65,2.445,0.164,2.965c-0.618,0.662-2.445,1.15-3.055,0.723c-9.883-6.938-19.705-13.967-29.427-21.127
		c-3.354-2.471-6.396-5.361-9.725-8.184c-0.577,0.738-1.083,1.385-1.542,1.971c9.915,15.395,19.746,30.66,29.582,45.926
		c0.617,0.957,1.556,1.822,1.813,2.863c0.252,1.012-0.179,2.195-0.31,3.301c-1.083-0.195-2.425-0.064-3.185-0.668
		c-0.978-0.779-1.484-2.146-2.202-3.254c-7.284-11.264-14.578-22.523-21.852-33.795c-2.165-3.354-4.24-6.768-6.437-10.102
		c-0.473-0.717-1.289-1.209-1.947-1.805c-0.269,0.162-0.538,0.324-0.808,0.486c0.497,2.76,0.988,5.52,1.491,8.277
		c2.202,12.053,4.415,24.102,6.595,36.158c0.169,0.93,0.352,1.969,0.101,2.832c-0.248,0.859-1.035,1.564-1.586,2.336
		c-0.796-0.648-2.144-1.188-2.296-1.963c-0.767-3.908-1.099-7.9-1.809-11.822c-2.061-11.385-4.229-22.748-6.395-34.332
		c-2.027,0.309-3.477,0.529-4.295,0.652c-2.408,13.145-4.728,25.943-7.116,38.73c-0.532,2.852-1.819,3.5-3.818,2.418
		c-1.563-0.85-1.038-1.863-0.704-3.094c3.407-12.572,5.495-25.379,6.882-38.412c-2.097-0.686-4.052-1.324-6.22-2.031
		c-0.345,0.59-0.723,1.219-1.081,1.857c-4.255,7.6-8.486,15.213-12.784,22.789c-0.63,1.109-1.454,2.613-3.082,1.436
		c-1.579-1.141-1.054-2.654-0.212-4.07c3.586-6.037,7.199-12.057,10.727-18.129c1.047-1.799,1.844-3.746,2.884-5.889
		c-1.454-1.354-2.956-2.752-4.236-3.943c-9.377,3.596-18.553,7.111-27.964,10.719c1.341,4.082,2.725,8.496,4.262,12.855
		c0.469,1.328,0.797,2.408-0.798,3.035c-1.649,0.648-2.486-0.275-2.978-1.713c-1.532-4.479-3.06-8.961-4.535-13.285
		c-7.235,1.498-14.449,2.994-21.905,4.539c-0.521,2.203-1.122,4.75-1.591,6.732c4.591,3.572,9.079,7.025,13.519,10.543
		c1.184,0.939,2.5,1.912,3.206,3.178c0.429,0.766-0.196,2.121-0.349,3.211c-0.906-0.168-2.04-0.047-2.682-0.551
		c-5.161-4.051-10.23-8.221-15.45-12.455c-1.63,1.789-3.021,3.313-4.741,5.199c6.332,9.461,12.67,18.92,18.997,28.389
		c1.048,1.568,3.296,3.375,0.934,5.045c-2.468,1.744-3.289-1.146-4.309-2.641c-6.373-9.342-12.683-18.727-19.055-28.16
		c-3.714,1.535-3.94,1.584-3.043,5.65c2.86,12.955,5.937,25.861,8.818,38.811c0.242,1.09,0.035,3.049-0.626,3.42
		c-1.756,0.984-2.88-0.557-3.343-2.043c-1.321-4.252-2.639-8.521-3.611-12.861c-2.058-9.178-3.899-18.402-5.81-27.611
		c-0.152-0.73-0.157-1.492-0.24-2.334c-1.22-0.166-2.406-0.326-3.771-0.512c-0.755,4.527-1.339,9.127-2.314,13.643
		c-2.183,10.1-4.606,20.148-6.816,30.242c-0.383,1.746-1.501,2.068-2.656,1.615c-0.692-0.271-1.498-1.68-1.359-2.406
		c0.831-4.365,1.976-8.672,2.915-13.02c2.223-10.291,4.389-20.596,6.581-30.906c-1.608-0.863-2.673-1.436-3.723-1.998
		c-4.514,7.207-8.862,14.307-13.383,21.297c-2.008,3.105-4.34,6.006-6.577,8.959c-0.823,1.088-1.803,2.189-3.297,0.93
		c-1.458-1.229-0.845-2.355,0.073-3.705c6.724-9.871,13.363-19.801,20.043-29.732c-1.545-1.879-2.793-3.396-4.018-4.889
		c-5.49,4.002-10.953,7.938-16.357,11.953c-1.527,1.135-2.991,1.506-4.192-0.141c-1.243-1.705,0.344-2.58,1.46-3.398
		c5.589-4.1,11.208-8.156,16.853-12.254c-0.587-2.443-1.18-4.908-1.77-7.361c-7.353-1.447-14.675-2.889-22.189-4.367
		c-1.272,3.76-2.603,7.697-3.937,11.633c-0.212,0.627-0.285,1.393-0.699,1.836c-0.625,0.672-1.494,1.115-2.259,1.654
		c-0.392-0.832-1.157-1.693-1.095-2.49c0.124-1.58,0.661-3.137,1.103-4.682c0.883-3.09,1.815-6.166,2.686-9.107
		c-9.023-3.363-18.078-6.738-27.439-10.229c-1.148,0.982-2.646,2.264-4.326,3.703c2.924,7.275,6.386,14.309,10.943,20.779
		c0.932,1.322,2.038,2.584,2.649,4.047c0.34,0.814-0.176,1.986-0.307,2.998c-0.965-0.191-2.433-0.047-2.816-0.623
		c-3.357-5.053-6.621-10.176-9.702-15.402c-1.68-2.852-2.953-5.945-4.54-9.195c-1.852,0.449-3.736,0.906-6.169,1.496
		c2.082,13.582,4.147,27.059,6.245,40.756c-2.674,1.768-3.939,1.395-4.508-2.184c-2-12.564-3.854-25.152-5.847-38.287
		c-0.175-0.053-1.038-0.342-1.92-0.557c-1.935-0.469-2.746,0.111-3.154,2.293c-2.027,10.82-4.362,21.584-6.46,32.395
		c-0.668,3.441-0.92,6.963-1.399,10.443c-0.207,1.506-0.669,2.801-2.617,2.695c-2.225-0.119-1.593-1.674-1.518-2.932
		c0.872-14.588,4.486-28.684,7.722-42.846c0.105-0.463,0.39-0.934,0.342-1.373c-0.097-0.889-0.366-1.758-0.563-2.635
		c-0.696,0.512-1.615,0.877-2.055,1.555c-6.101,9.406-12.156,18.84-18.179,28.297c-3.775,5.928-7.471,11.906-11.214,17.854
		c-0.78,1.24-1.347,3.07-3.398,1.826c-2.008-1.217-0.971-2.961-0.237-4.203c3.824-6.471,7.708-12.91,11.766-19.234
		c6.16-9.6,12.48-19.096,18.783-28.715c-0.757-1.678-1.64-1.768-3.156-0.631c-12.258,9.191-24.563,18.322-36.871,27.449
		c-1.514,1.121-3.133,1.145-4.267-0.477c-1.195-1.709,0.012-2.719,1.375-3.678c11.196-7.869,22.379-15.758,33.534-23.682
		c1.689-1.199,3.218-2.625,4.786-3.916c-1.017-1.674-1.937-3.188-2.823-4.646c-6.071,2.131-12.06,4.484-18.203,6.318
		c-6.168,1.842-12.471,3.254-18.77,4.6c-0.809,0.174-1.943-1.18-2.927-1.826c0.666-0.836,1.186-2.193,2.02-2.426
		c8.509-2.367,17.093-4.463,25.603-6.83c3.64-1.012,7.153-2.477,10.863-3.785c0-2.229,0-4.479,0-7.107
		c-4.251,0-8.505,0.148-12.744-0.039c-4.935-0.219-9.854-0.754-14.783-1.111c-1.689-0.123-2.854-0.803-2.519-2.631
		c0.31-1.693,1.499-2.012,3.225-1.883c8.44,0.635,16.893,1.094,25.341,1.617c1.815,0.111,2.678-0.986,2.805-2.553
		c0.086-1.059,0.073-2.545-0.559-3.174c-7.281-7.246-14.688-14.363-22.336-21.781c-3.348,2.59-7.234,5.6-11.123,8.602
		c-0.603,0.467-1.16,1.123-1.845,1.316c-1.022,0.291-2.138,0.248-3.214,0.346c0.262-1.053,0.178-2.486,0.845-3.092
		c3.026-2.744,6.239-5.289,9.434-7.844c3.621-2.895,3.55-2.807,1.142-6.598c-4.635-7.295-9.101-14.699-13.787-21.961
		c-0.564-0.873-2.088-1.605-3.12-1.549c-0.826,0.049-2.083,1.277-2.287,2.18c-1.871,8.227-3.563,16.492-5.279,24.754
		c-0.27,1.299-0.153,2.729-0.657,3.912c-0.451,1.059-1.51,1.859-2.3,2.775c-0.574-1.162-1.731-2.383-1.621-3.475
		c0.488-4.82,1.172-9.639,2.108-14.395c1.006-5.107,2.373-10.145,3.631-15.418c-1.808-0.527-3.659-1.166-5.561-1.555
		c-0.489-0.1-1.38,0.449-1.679,0.945c-6.767,11.225-13.78,22.314-18.658,34.566c-0.573,1.439-0.675,4.178-3.328,3.268
		c-2.737-0.938-1.375-3.221-0.751-4.83c4.702-12.113,11.248-23.246,18.399-34.045c0.42-0.635,0.814-1.287,1.213-1.92
		c-3.258-3.467-3.21-3.404-7.064-0.373c-11.025,8.676-21.466,17.984-31.126,28.17c-0.662,0.697-1.944,1.416-2.752,1.246
		c-2.187-0.463-2.415-2.264-0.377-4.385c4.948-5.154,9.823-10.414,15.133-15.178c6.364-5.711,13.15-10.949,20.452-16.967
		c-1.494-0.24-2.586-0.766-3.418-0.494c-7.843,2.561-15.66,5.203-23.447,7.93c-9.478,3.32-18.905,6.785-28.403,10.045
		c-0.834,0.285-2.705-0.221-2.922-0.799c-0.551-1.469-0.54-3.041,1.639-3.791c12.013-4.133,23.988-8.379,35.968-12.607
		c5.629-1.986,11.242-4.025,17.023-6.098c0.377-2.068-0.119-3.084-2.744-3.053c-9.711,0.113-19.431,0.176-29.135-0.119
		c-5.401-0.162-10.79-0.99-16.155-1.73c-0.756-0.104-1.346-1.416-2.013-2.168c0.852-0.654,1.742-1.914,2.55-1.863
		c5.697,0.354,11.368,1.293,17.063,1.439c9.867,0.256,19.745,0.072,29.792,0.072c0.22-1.885,0.433-3.701,0.611-5.225
		c-6.61-2.16-13.259-4.045-19.681-6.521c-4.932-1.9-9.581-4.535-14.348-6.859c-1.534-0.748-2.655-1.871-1.498-3.584
		c1.045-1.549,2.489-1.295,4-0.35c10.171,6.375,21.457,9.891,32.965,12.861c1.419-1.873,2.775-3.664,4.117-5.434
		c-4.876-3.766-9.839-7.434-14.604-11.342c-2.495-2.047-4.772-4.406-6.868-6.863c-0.611-0.717-0.737-2.557-0.24-3.355
		c0.89-1.428,2.172-0.828,3.344,0.232c6.96,6.301,13.977,12.541,20.775,18.625c2.015-1.164,3.324-1.92,4.501-2.6
		c-1.229-9.236-2.453-18.422-3.759-28.238c-4.755,0-9.941-0.002-15.128,0.006c-0.377,0-0.897,0.26-1.106,0.094
		c-0.9-0.719-2.177-1.422-2.444-2.373c-0.439-1.566,0.77-1.984,2.276-1.965c5.492,0.072,10.985,0.029,16.439,0.029
		c0.478-8.13,0.95-16.165,1.423-24.224c-3.097-2.333-5.841-1.768-8.558,1.074c-4.669,4.885-9.519,9.599-14.292,14.385
		c-0.605,0.607-1.104,1.491-1.833,1.765c-0.909,0.342-2.005,0.182-3.021,0.238c0.061-0.948-0.257-2.243,0.242-2.792
		c6.06-6.652,12.24-13.195,18.59-19.979C66.146,229.187,64.853,227.75,63.568,226.32z M248.985,83.513
		c-10.463-0.186-23.073,1.192-35.588,3.971c-14.651,3.251-28.69,8.241-41.815,15.35c-18.36,9.942-34.482,22.828-48.658,38.307
		c-14.629,15.973-25.197,34.16-32.824,54.305c-4.424,11.687-7.478,23.696-9.231,35.988c-1.633,11.451-2.466,23.035-1.307,34.611
		c0.86,8.588,1.703,17.211,3.275,25.686c2.753,14.83,8.287,28.748,15.009,42.23c6.925,13.885,15.737,26.447,26.228,37.818
		c7.959,8.625,16.818,16.234,26.448,23.012c16.749,11.787,34.487,21.318,54.291,27.09c20.175,5.877,40.608,7.967,61.44,6.002
		c19.722-1.861,38.599-6.965,56.376-15.869c22.067-11.055,41.968-24.914,58.183-43.807c13.596-15.84,24.258-33.445,31.396-52.953
		c6.981-19.076,10.797-38.834,10.259-59.377c-0.333-12.687-1.539-25.222-4.165-37.583c-3.491-16.433-9.373-32.089-17.651-46.694
		c-10.856-19.155-24.841-35.722-42.149-49.506c-18.043-14.368-37.559-25.782-59.949-31.916
		C283.087,85.941,267.423,83.203,248.985,83.513z M424.578,230.759c10.259-2.77,13.561-11.308,12.283-19.514
		c-1.68-10.801-10.396-17.161-20.83-15.828C420.546,206.721,423.487,218.405,424.578,230.759z M75.947,230.085
		c3.02-11.744,6.038-23.485,9.047-35.19c-9.916-0.794-18.91,6.417-20.249,16.47C63.532,220.466,69.544,228.469,75.947,230.085z
		 M409.953,331.335c7.88,3.035,17.796-2.254,20.967-10.898c3.581-9.764-0.432-20.896-8.688-23.66
		C419.729,308.782,415.884,320.313,409.953,331.335z M140.662,393.884c-3.875,7.049-1.282,16.689,7.748,22.951
		c5.997,4.158,16.698,4.793,23.322-2.789C161.445,407.372,151.121,400.671,140.662,393.884z M91.763,331.95
		c-2.471-5.893-5.063-11.566-7.233-17.396c-2.173-5.838-3.925-11.832-5.864-17.764c-7.26,4.082-11.084,14.014-8.478,21.947
		C73.229,327.993,81.666,333.146,91.763,331.95z M361.243,393.835c-10.486,6.785-20.852,13.492-31.188,20.18
		c6.257,6.916,14.905,7.475,22.067,3.557C360.296,413.099,365.021,403.954,361.243,393.835z M268.015,79.257
		c-0.664-9.323-8.437-16.052-18.201-16.146c-8.026-0.079-16.746,8.982-16.385,16.146C244.903,79.257,256.372,79.257,268.015,79.257z
		 M127.959,128.688c9.326-7.561,18.521-15.015,27.707-22.461c-5.972-6.132-16.153-6.574-23.544-0.927
		C125.152,110.626,123.267,121.171,127.959,128.688z M373.852,128.421c5.162-10.311,2.137-19.283-6.468-24.568
		c-6.772-4.159-16.808-2.784-21.45,2.707C355.184,113.804,364.446,121.058,373.852,128.421z M266.68,432.925
		c-10.736,0-21.466,0-32.174,0c1.523,9.977,10.424,16.83,18.667,15.568C260.352,447.392,267.318,439.374,266.68,432.925z"/>
	<path fill-rule="evenodd" clip-rule="evenodd" d="M317.645,41.774c-2.896-2.869-5.507-5.233-7.804-7.871
		c-0.623-0.716-0.301-2.254-0.413-3.415c1.151,0.075,2.628-0.279,3.396,0.302c2.884,2.18,5.535,4.665,7.896,6.709
		c0-2.652-0.002-6.385,0.001-10.117c0.002-1.706-0.295-3.788,2.181-3.86c2.429-0.069,2.406,1.877,2.387,3.679
		c-0.037,3.422-0.011,6.845,0.563,10.721c1.691-1.8,3.32-3.667,5.097-5.38c1.44-1.39,2.844-4.369,5.209-1.839
		c2.187,2.339-0.853,3.527-2.091,4.943c-1.677,1.917-3.491,3.715-5.811,6.156c3.313,0,5.919-0.007,8.525,0.005
		c0.665,0.003,1.568-0.193,1.944,0.154c0.829,0.768,1.393,1.822,2.064,2.76c-0.858,0.541-1.688,1.489-2.577,1.547
		c-3.01,0.195-6.039,0.075-9.688,0.075c2.634,2.828,4.846,5.239,7.101,7.611c1.174,1.235,2.002,2.756,0.361,3.834
		c-0.747,0.492-2.756-0.004-3.583-0.739c-2.467-2.189-4.632-4.721-7.2-7.417c0,3.087,0.013,5.854-0.006,8.623
		c-0.008,1.238-0.137,2.478-0.103,3.713c0.044,1.585-0.625,2.9-2.187,2.531c-0.899-0.213-2.047-1.724-2.11-2.712
		c-0.243-3.859-0.1-7.744-0.1-12.017c-2.393,2.357-4.516,4.458-6.65,6.548c-0.611,0.599-1.176,1.493-1.901,1.663
		c-0.85,0.2-2.386,0.044-2.661-0.472c-0.414-0.776-0.389-2.322,0.144-2.977c2.33-2.866,4.91-5.529,7.384-8.249
		c-2.653,0-5.823-0.025-8.992,0.01c-1.612,0.019-3.252,0.035-3.252-2.152c0-2.056,1.497-2.386,3.185-2.374
		C311.004,41.79,314.055,41.774,317.645,41.774z"/>
	<path fill-rule="evenodd" clip-rule="evenodd" d="M172.96,46.332c-2.832,0-5.681,0.178-8.486-0.093
		c-1.042-0.101-1.981-1.254-2.968-1.927c0.931-0.855,1.793-2.339,2.806-2.449c3.013-0.329,6.084-0.118,9.807-0.118
		c-2.422-2.261-4.516-4.072-6.433-6.054c-1.396-1.443-4.171-2.925-1.723-5.271c2.242-2.149,3.48,0.698,4.792,1.892
		c2.017,1.832,3.802,3.918,5.878,6.099c0-4.075-0.016-7.824,0.008-11.572c0.009-1.507-0.224-3.357,2.036-3.346
		c2.244,0.011,2.333,1.717,2.311,3.463c-0.05,4.056-0.016,8.111-0.016,12.659c2.41-2.758,4.365-5.152,6.499-7.377
		c1.247-1.301,2.429-3.986,4.74-1.781c2.142,2.044-0.268,3.392-1.462,4.655c-1.953,2.065-4.089,3.957-6.148,5.921
		c0.081,0.241,0.162,0.482,0.243,0.723c2.887,0,5.775,0.063,8.66-0.022c1.843-0.055,3.453,0.358,3.416,2.434
		c-0.035,1.957-1.577,2.172-3.32,2.08c-2.925-0.155-5.864-0.043-8.797-0.043c-0.221,0.306-0.442,0.611-0.663,0.918
		c2.433,2.193,4.878,4.374,7.295,6.585c1.206,1.104,2.109,2.438,0.655,3.86c-1.465,1.434-2.622,0.404-3.878-0.718
		c-2.476-2.211-5.131-4.221-7.229-5.922c0,2.578-0.034,6.426,0.017,10.271c0.02,1.527-0.008,3.151-1.924,3.17
		c-1.911,0.019-2.331-1.433-2.282-3.205c0.104-3.77,0.032-7.544,0.032-10.337c-2.172,1.84-4.763,3.989-7.299,6.2
		c-1.27,1.107-2.594,1.879-3.988,0.436c-1.429-1.48-0.151-2.689,0.838-3.629c2.349-2.23,4.829-4.323,7.257-6.472
		C173.408,47.018,173.184,46.675,172.96,46.332z"/>
	<path fill-rule="evenodd" clip-rule="evenodd" d="M434.629,128.276c-2.743-2.674-4.898-4.801-7.083-6.897
		c-1.099-1.054-2.136-2.208-0.774-3.621c1.353-1.402,2.56-0.905,3.795,0.533c2.076,2.415,4.374,4.64,7.022,7.409
		c0-3.934-0.016-7.229,0.008-10.525c0.011-1.458-0.021-2.978,2.127-2.951c2.039,0.025,1.884,1.476,1.889,2.822
		c0.01,3.134,0.003,6.267,0.003,8.887c2.051-1.786,4.306-3.708,6.51-5.687c1.169-1.051,2.391-2.351,3.887-0.855
		c1.426,1.426,0.47,2.782-0.765,3.88c-2.255,2.005-4.523,3.995-6.786,5.992c0.222,0.325,0.444,0.65,0.666,0.976
		c3.191,0,6.383,0.034,9.572-0.014c1.665-0.026,2.968,0.515,2.872,2.314c-0.091,1.701-1.282,2.231-3.024,2.147
		c-3.219-0.153-6.45-0.043-10.178-0.043c1.976,2.117,3.885,4.117,5.734,6.17c0.82,0.911,1.815,1.833,2.174,2.932
		c0.237,0.728-0.285,2.035-0.907,2.59c-0.392,0.349-1.884,0.076-2.388-0.42c-2.372-2.336-4.573-4.846-7.336-7.833
		c0,3.775,0.004,7.009-0.003,10.241c-0.001,0.763,0.24,1.731-0.132,2.236c-0.475,0.645-1.593,1.394-2.187,1.226
		c-0.708-0.201-1.604-1.308-1.637-2.055c-0.163-3.867-0.075-7.744-0.075-12.479c-2.915,3.01-5.171,5.551-7.684,7.804
		c-0.756,0.679-2.229,0.559-3.374,0.804c0.163-1.193-0.079-2.707,0.563-3.521c2.1-2.656,4.521-5.057,7.295-8.071
		c-3.955,0-7.245,0.016-10.535-0.008c-1.335-0.01-2.909,0.12-2.891-1.856c0.02-1.981,1.521-2.129,3.043-2.127
		C427.265,128.28,430.499,128.276,434.629,128.276z"/>
	<path fill-rule="evenodd" clip-rule="evenodd" d="M67.259,133.102c2.449,2.364,4.864,4.765,7.36,7.078
		c1.185,1.098,2.043,2.404,0.576,3.508c-0.634,0.477-2.515,0.044-3.327-0.604c-2.665-2.128-5.098-4.545-7.811-7.024
		c0,3.343-0.012,6.887,0.005,10.43c0.007,1.558,0.116,3.473-1.958,3.419c-1.917-0.049-2.041-1.834-2.007-3.482
		c0.07-3.48,0.021-6.963,0.021-9.761c-2.237,2.013-4.669,4.395-7.334,6.479c-0.79,0.618-2.577,0.926-3.307,0.451
		c-1.509-0.979-1.02-2.352,0.271-3.53c2.559-2.337,5.03-4.769,8.174-7.768c-4.331,0-7.721-0.015-11.11,0.008
		c-1.418,0.009-3.051-0.065-2.714-1.907c0.155-0.85,1.661-1.981,2.625-2.056c3.316-0.255,6.664-0.098,10.741-0.098
		c-1.312-1.343-2.235-2.288-3.16-3.231c-1.602-1.633-3.362-3.146-4.722-4.959c-0.475-0.634-0.334-2.341,0.208-2.935
		c0.432-0.473,2.199-0.384,2.858,0.125c2.759,2.129,5.324,4.51,7.471,6.375c0-2.376-0.004-5.768,0.002-9.158
		c0.002-1.536-0.165-3.362,2.069-3.301c1.976,0.054,1.923,1.719,1.917,3.194c-0.014,3.596-0.004,7.191-0.004,11.011
		c2.709-2.612,5.173-5.032,7.693-7.392c0.983-0.922,2.006-2.498,3.55-1.011c1.53,1.474,0.436,2.788-0.713,3.894
		c-2.325,2.235-4.693,4.426-7.043,6.636c0.117,0.258,0.234,0.516,0.352,0.773c3.083,0,6.176-0.148,9.241,0.084
		c1.015,0.076,2.699,1.046,2.782,1.759c0.199,1.703-1.167,2.262-2.87,2.206c-3.12-0.104-6.245-0.029-9.368-0.029
		C67.572,132.557,67.416,132.83,67.259,133.102z"/>
	<path fill-rule="evenodd" clip-rule="evenodd" d="M305.563,465.501c0-2.818-0.096-6.602,0.073-10.371
		c0.039-0.85,1.003-1.656,1.541-2.484c0.711,0.801,1.981,1.568,2.033,2.41c0.226,3.686,0.097,7.393,0.097,11.627
		c2.471-2.604,4.589-4.844,6.716-7.074c0.459-0.48,0.891-1.223,1.438-1.332c0.991-0.197,2.061-0.012,3.098,0.014
		c-0.1,0.926,0.136,2.123-0.357,2.727c-1.687,2.059-3.596,3.941-5.492,5.818c-0.591,0.586-1.408,0.943-2.123,1.404
		c0.169,0.309,0.338,0.617,0.506,0.926c3.179,0,6.358,0.061,9.534-0.025c1.62-0.043,3.038,0.268,3.153,2.063
		c0.139,2.131-1.588,1.955-3.037,1.951c-3.406-0.004-6.813,0-10.219,0c-0.22,0.285-0.438,0.572-0.658,0.859
		c2.511,2.254,5.018,4.51,7.532,6.762c1.205,1.076,1.896,2.354,0.495,3.627c-1.391,1.264-2.589,0.373-3.62-0.795
		c-2.104-2.381-4.231-4.744-6.84-7.664c0,4.426-0.036,8.088,0.019,11.75c0.021,1.455-0.069,2.828-1.886,2.885
		c-1.95,0.061-2.206-1.354-2.193-2.936c0.033-3.789,0.011-7.58,0.011-10.904c-2.313,2.088-4.86,4.293-7.293,6.619
		c-1.175,1.123-2.348,2.301-3.812,0.824c-1.423-1.438-0.107-2.576,0.921-3.59c2.347-2.309,4.705-4.607,7.572-7.412
		c-4.271,0-7.767,0.104-11.246-0.078c-0.815-0.041-1.581-1.049-2.37-1.611c0.765-0.77,1.483-2.137,2.303-2.199
		c3.304-0.254,6.639-0.105,10.421-0.719c-1.895-1.77-3.796-3.529-5.679-5.311c-0.622-0.588-1.505-1.137-1.717-1.865
		c-0.293-1.004-0.063-2.16-0.057-3.254c1.006,0.158,2.267-0.016,2.974,0.529C300.329,460.927,303.089,463.401,305.563,465.501z"/>
	<path fill-rule="evenodd" clip-rule="evenodd" d="M189.067,468.431c-2.22-2.061-4.48-4.082-6.643-6.201
		c-1.088-1.066-2.347-2.385-0.79-3.889c1.706-1.65,2.939-0.148,4.044,1.029c2.137,2.281,4.215,4.615,6.783,7.438
		c0-3.898-0.023-7.158,0.01-10.418c0.016-1.582-0.275-3.621,2.115-3.561c2.2,0.057,1.866,1.963,1.864,3.473
		c-0.005,3.119-0.002,6.236-0.002,9.209c2.354-2.203,4.713-4.332,6.974-6.561c1.122-1.107,2.354-2.008,3.667-0.764
		c1.347,1.279,0.449,2.578-0.633,3.689c-2.32,2.379-4.611,4.787-7.037,7.309c3.545,0,7.084-0.146,10.598,0.096
		c0.982,0.068,2.578,1.189,2.682,1.984c0.214,1.633-1.226,1.963-2.753,1.924c-3.411-0.09-6.825-0.029-10.865-0.029
		c2.644,2.693,5.046,4.926,7.155,7.408c0.668,0.787,1.147,2.664,0.687,3.301c-1.141,1.58-2.46,0.488-3.571-0.551
		c-2.283-2.139-4.599-4.24-6.917-6.371c0,3.338-0.059,6.994,0.027,10.648c0.037,1.568-0.405,2.816-2.025,2.84
		c-1.642,0.023-2.077-1.211-2.038-2.791c0.092-3.678,0.03-7.359,0.03-11.041c-0.299-0.238-0.598-0.475-0.897-0.713
		c-2.241,2.541-4.388,5.174-6.788,7.555c-0.618,0.613-2.03,0.426-3.078,0.607c0.167-1.063-0.039-2.467,0.567-3.123
		c2.302-2.492,4.867-4.742,7.333-7.082c-0.109-0.236-0.219-0.473-0.329-0.709c-3.564,0-7.129-0.008-10.693,0.006
		c-1.297,0.006-2.664,0.021-2.616-1.766c0.043-1.619,0.994-2.223,2.667-2.162c3.324,0.121,6.655,0.035,9.983,0.035
		C188.741,468.978,188.904,468.704,189.067,468.431z"/>
	<path fill-rule="evenodd" clip-rule="evenodd" d="M23.858,271.075c-2.599,2.568-4.692,4.77-6.944,6.795
		c-0.934,0.84-1.964,2.609-3.545,1.033c-1.442-1.436-0.5-2.818,0.625-3.959c2.259-2.289,4.575-4.523,7.53-7.432
		c-4.135,0-7.398,0.01-10.662-0.008c-0.755-0.004-1.646,0.119-2.229-0.227c-0.711-0.424-1.163-1.283-1.727-1.953
		c0.72-0.428,1.429-1.199,2.164-1.225c3.704-0.125,7.416-0.057,11.896-0.057c-2.659-2.643-4.834-4.902-7.123-7.041
		c-1.264-1.182-2.115-2.627-0.771-3.838c0.575-0.518,2.792-0.051,3.601,0.691c2.263,2.076,4.18,4.527,6.234,6.832
		c0.301-0.213,0.603-0.426,0.904-0.641c0-3.01-0.033-6.02,0.014-9.03c0.022-1.41-0.109-3.084,2.067-2.993
		c1.995,0.084,2.082,1.52,2.063,3.063c-0.041,3.321-0.012,6.642-0.012,9.571c2.051-1.953,4.321-4.346,6.858-6.412
		c0.983-0.799,3.155-1.592,3.774-1.104c1.716,1.35,0.761,2.881-0.666,4.244c-2.133,2.039-4.083,4.27-6.339,6.662
		c2.905,0,5.85,0,8.794,0c0.763,0,1.697-0.273,2.247,0.068c0.752,0.469,1.212,1.406,1.797,2.143
		c-0.601,0.414-1.193,1.168-1.806,1.186c-3.785,0.111-7.574,0.055-11.654,0.055c2.488,2.594,4.73,4.971,7.022,7.301
		c1.134,1.152,2.265,2.316,0.766,3.865c-1.464,1.512-2.741,0.537-3.909-0.578c-2.181-2.08-4.359-4.166-6.806-6.504
		c0,3.398-0.052,6.59,0.022,9.779c0.038,1.635-0.335,3.039-2.165,2.98c-1.765-0.055-2.146-1.365-2.064-3.068
		C23.968,278.079,23.858,274.87,23.858,271.075z"/>
	<path fill-rule="evenodd" clip-rule="evenodd" d="M480.852,264.046c3.251,0,6.304-0.092,9.346,0.041
		c1.304,0.059,3.455-0.938,3.5,1.607c0.044,2.445-1.979,1.77-3.388,1.789c-3.124,0.045-6.249,0.014-10.041,0.014
		c2.821,2.885,5.266,5.309,7.613,7.822c0.988,1.059,2.467,2.26,0.699,3.803c-1.596,1.395-2.748,0.227-3.887-0.895
		c-2.211-2.174-4.464-4.305-6.985-6.729c0,3.451,0.038,6.648-0.016,9.844c-0.027,1.604,0.629,3.9-2.04,3.838
		c-2.313-0.053-1.964-2.115-1.964-3.717c-0.001-3.217,0-6.432-0.662-10.137c-2.091,2.242-4.185,4.482-6.27,6.729
		c-1.11,1.197-2.328,2.273-3.847,0.738c-1.521-1.539-0.35-2.705,0.772-3.859c2.324-2.389,4.597-4.828,7.047-7.41
		c-3.333,0-6.76,0.027-10.187-0.014c-1.415-0.018-3.417,0.625-3.374-1.826c0.045-2.605,2.201-1.525,3.482-1.576
		c3.395-0.135,6.798-0.045,10.11-0.045c-2.282-2.41-4.636-4.607-6.592-7.113c-0.751-0.961-0.597-2.631-0.854-3.977
		c1.24,0.33,2.767,0.314,3.667,1.057c2.315,1.91,4.354,4.156,6.713,6.477c0-3.293,0.098-6.391-0.036-9.478
		c-0.08-1.827,0.822-2.877,2.357-2.8c0.6,0.03,1.527,1.685,1.594,2.648c0.209,2.997,0.077,6.019,0.077,9.931
		c2.897-2.822,5.229-4.975,7.412-7.27c1.146-1.203,2.438-2.028,3.522-0.537c0.487,0.67,0.085,2.58-0.575,3.381
		C485.884,258.997,483.416,261.36,480.852,264.046z"/>
	<path fill-rule="evenodd" clip-rule="evenodd" d="M82.311,398.071c2.396,2.25,4.75,4.443,7.077,6.66
		c0.616,0.588,1.395,1.17,1.661,1.912c0.274,0.764,0.253,1.85-0.119,2.533c-0.171,0.316-1.728,0.326-2.233-0.068
		c-1.481-1.156-2.75-2.582-4.1-3.904c-1.557-1.523-3.113-3.049-4.999-4.896c0,3.953-0.024,7.59,0.011,11.225
		c0.015,1.504,0.043,3.154-1.958,3.088c-1.759-0.059-2.158-1.49-2.125-3.113c0.067-3.287,0.02-6.578,0.02-9.988
		c-2.414,2.328-4.692,4.447-6.871,6.662c-1,1.018-1.855,2.105-3.271,0.688c-1.394-1.395-0.347-2.393,0.636-3.35
		c2.568-2.498,5.153-4.979,8.11-7.834c-4.684,0-8.727,0.096-12.76-0.076c-0.85-0.035-1.657-1.049-2.484-1.611
		c0.839-0.639,1.65-1.779,2.524-1.832c3.578-0.209,7.175-0.086,11.164-0.693c-1.901-1.787-3.806-3.572-5.702-5.367
		c-0.619-0.586-1.463-1.096-1.758-1.82c-0.356-0.875-0.239-1.945-0.327-2.93c1.09,0.01,2.514-0.42,3.211,0.109
		c2.645,2.006,5.053,4.322,7.564,6.535c0-1.945,0-4.43,0-6.914c0-0.953-0.313-2.08,0.086-2.816c0.491-0.904,1.581-1.48,2.411-2.199
		c0.506,0.75,1.416,1.48,1.449,2.25c0.156,3.566,0.069,7.145,0.069,11.422c2.546-2.566,4.636-4.668,6.72-6.773
		c0.531-0.537,0.959-1.371,1.59-1.566c0.948-0.291,2.033-0.141,3.059-0.18c-0.131,1.006,0.11,2.387-0.458,2.953
		c-2.484,2.48-5.203,4.725-7.836,7.055c0.211,0.199,0.423,0.4,0.634,0.6c3.425,0,6.858-0.117,10.27,0.096
		c0.716,0.047,1.793,1.26,1.892,2.039c0.079,0.621-1.047,1.977-1.692,2.012C90.116,398.173,86.437,398.071,82.311,398.071z"/>
	<path fill-rule="evenodd" clip-rule="evenodd" d="M429.212,394.085c3.466,0,6.939-0.121,10.394,0.08
		c0.898,0.053,2.306,0.969,2.489,1.729c0.422,1.74-0.956,2.162-2.479,2.15c-3.423-0.027-6.847-0.01-10.479-0.01
		c3.118,3.09,6.1,6.041,8.981,8.895c-1.895,3.207-2.484,3.314-4.65,1.236c-2.466-2.367-4.928-4.738-7.722-7.424
		c0,4.74,0,9.285,0,13.764c-2.83,0.578-3.75-0.396-3.668-2.811c0.116-3.416,0.029-6.84,0.029-10.895
		c-2.762,2.707-5.117,5.203-7.701,7.434c-0.779,0.674-2.64,1.205-3.234,0.764c-1.468-1.088-0.683-2.445,0.493-3.561
		c2.547-2.418,5.04-4.893,7.549-7.338c-3.542,0-6.887-0.004-10.23,0.002c-1.489,0.002-2.973,0.07-2.895-2.121
		c0.07-1.98,1.416-1.932,2.812-1.926c3.316,0.014,6.633,0.004,10.304,0.004c-2.473-2.525-4.684-4.797-6.913-7.049
		c-1.098-1.109-2.507-2.387-1.03-3.844c1.376-1.357,2.64-0.195,3.8,0.979c2.255,2.281,4.665,4.412,7.063,6.654
		c0-3.318-0.126-6.791,0.088-10.242c0.054-0.869,1.097-2.266,1.852-2.389c1.841-0.297,1.911,1.174,1.872,2.652
		c-0.087,3.285-0.027,6.576-0.027,10.146c2.22-2.15,4.426-4.287,6.631-6.424c0.548-0.531,1.024-1.385,1.656-1.52
		c0.87-0.186,1.855,0.172,2.792,0.295c-0.132,0.818,0.03,1.932-0.445,2.402c-2.542,2.52-5.243,4.879-7.89,7.293
		C428.839,393.37,429.025,393.728,429.212,394.085z"/>
	<path fill-rule="evenodd" clip-rule="evenodd" d="M90.976,257.28c-0.326-19.022,2.829-35.379,8.055-51.396
		c5.073-15.547,12.122-30.067,21.824-43.314c8.889-12.14,18.813-23.264,30.615-32.618c13.192-10.458,27.586-18.919,43.398-24.75
		c11.873-4.379,24.152-7.146,36.767-8.609c20.564-2.386,40.849-1.074,60.815,4.207c15.87,4.197,30.714,10.876,44.507,19.843
		c25.513,16.587,44.804,38.697,58.238,65.911c6.856,13.889,11.23,28.65,13.633,43.921c2.27,14.428,2.684,28.992,1.189,43.533
		c-2.225,21.643-9.058,41.787-19.963,60.633c-7.382,12.754-15.751,24.744-26.348,34.998c-14.238,13.781-30.2,25.059-48.33,33.373
		c-14.931,6.846-30.491,11.299-46.655,13.205c-16.116,1.902-32.304,1.436-48.281-2.098c-23.286-5.148-44.761-14.361-63.886-28.695
		c-24.442-18.322-42.858-41.33-54.031-69.961C94.953,296.058,90.415,276.118,90.976,257.28z M406.313,257.698
		c-0.367-46.24-17.123-85.542-51.023-116.939c-34.088-31.571-74.939-44.388-120.97-39.858
		c-81.099,7.98-145.757,80.415-138.121,169.542c7.119,83.084,81.444,147.807,165.508,141.58
		C345.57,405.813,406.749,333.577,406.313,257.698z"/>
	<path fill-rule="evenodd" clip-rule="evenodd" d="M396.234,258.657c-0.732,83.148-74.556,149.533-155.511,143.381
		c-78.587-5.973-137.096-74.768-135.261-147.848c2.145-85.373,72.804-145.981,148.011-144.091
		c39.551,0.992,72.807,15.684,100.423,43.371C382.45,182.098,396.242,217.026,396.234,258.657z M250.128,341.681
		c3.067-0.217,7.091-0.223,11.024-0.824c20.642-3.16,38.271-11.973,51.936-28.094c9.544-11.258,15.629-24.26,18.379-38.633
		c3.183-16.627,1.215-32.937-5.089-48.652c-5.902-14.716-15.19-26.971-27.936-36.374c-17.304-12.765-36.708-17.568-58.124-14.923
		c-12.974,1.603-24.654,6.241-35.228,13.632c-14.511,10.142-24.781,23.61-30.898,40.326c-5.534,15.121-7.252,30.594-3.84,46.258
		c4.277,19.637,13.533,36.494,29.526,49.373C214.35,335.425,230.652,341.479,250.128,341.681z M320.895,205.071
		c8.391-6.866,14.144-15.445,15.306-26.7c1.045-10.124-0.608-20.019-2.447-29.979c-5.349,0.367-10.564,0.624-15.759,1.104
		c-10.864,1.005-21.097,3.669-29.355,11.447c-3.898,3.672-7.282,7.657-9.009,12.096c7.355,3.989,14.396,7.809,21.601,11.717
		c4.16-5.371,8.514-11.012,12.894-16.632c1.166-1.497,2.233-3.164,3.699-4.297c0.767-0.594,2.298-0.197,3.483-0.248
		c-0.141,1.154,0.123,2.62-0.486,3.415c-5.363,6.982-10.882,13.847-16.13,20.463C310.243,193.494,315.497,199.204,320.895,205.071z
		 M180.339,205.029c5.51-5.778,10.996-11.533,16.723-17.54c-1.144-1.451-2.483-3.157-3.831-4.857
		c-4.021-5.073-8.135-10.076-11.988-15.274c-0.718-0.969-0.388-2.715-0.542-4.103c1.373,0.517,3.238,0.632,4.04,1.614
		c5.454,6.689,10.684,13.563,15.706,20.016c7.112-3.921,14.056-7.748,21.184-11.676c-2.784-5.928-7.231-10.801-12.593-14.856
		c-8.406-6.356-18.089-9.005-28.483-9.455c-4.153-0.18-8.304-0.397-12.778-0.612c-0.813,6.854-1.684,13.617-2.407,20.396
		C163.771,183.646,168.741,195.907,180.339,205.029z M166.65,235.413c-4.146-1.146-8.349-2.304-12.55-3.469
		c-4.292-1.19-8.613-2.297-12.851-3.659c-0.837-0.27-1.354-1.536-2.02-2.342c0.898-0.504,1.762-1.33,2.703-1.43
		c1.168-0.123,2.427,0.257,3.599,0.589c7.473,2.109,14.934,4.267,22.223,6.358c3.243-7.343,6.376-14.435,9.583-21.695
		c-7.392-4.58-15.684-6.221-24.524-5.124c-6.228,0.772-11.809,3.344-17.066,6.667c-5.431,3.434-10.849,6.889-16.241,10.314
		c1.525,2.671,2.827,4.993,4.168,7.292c4.917,8.432,10.414,16.371,18.625,22.023c6.571,4.521,13.88,6.659,21.508,7.114
		C164.769,250.412,165.688,243.088,166.65,235.413z M381.622,221.892c-4.27-2.884-8.312-5.712-12.451-8.387
		c-6.408-4.139-12.973-7.954-20.783-8.82c-8.862-0.981-17.132,0.731-24.595,5.018c3.378,7.329,6.647,14.425,9.912,21.508
		c7.913-2.143,15.955-4.371,24.032-6.461c1.545-0.399,3.834-1.791,4.522,0.866c0.624,2.409-1.93,2.584-3.437,3.375
		c-0.082,0.043-0.184,0.047-0.275,0.07c-8.148,2.157-16.296,4.315-24.089,6.379c1.15,7.481,2.269,14.757,3.441,22.389
		c8.661-0.314,16.767-3.063,23.668-8.564C370.605,242.062,376.317,232.244,381.622,221.892z M333.782,284.708
		c8.2,2.807,16.706,5.719,25.212,8.629c1.396,0.477,3.037,1.088,2.302,2.838c-0.294,0.697-2.239,1.264-3.206,1.014
		c-4.021-1.039-7.987-2.324-11.916-3.688c-4.703-1.631-9.348-3.434-13.797-5.08c-3.103,6.594-6.118,13.01-9.187,19.533
		c0.117,0.131,0.323,0.488,0.632,0.682c10.92,6.834,22.549,9.205,34.776,4.336c7.471-2.975,14.569-6.883,21.796-10.355
		c-2.295-4.9-4.465-9.406-6.528-13.963c-5.257-11.602-13.188-20.389-25.688-24.254c-3.445-1.064-7.032-1.674-10.202-2.41
		C336.52,269.878,335.203,277.011,333.782,284.708z M121.015,301.978c2.55,1.418,4.474,2.648,6.527,3.602
		c6.258,2.906,12.367,6.338,18.9,8.404c11.798,3.729,22.543,0.209,32.354-6.256c-3.259-6.592-6.421-12.988-9.547-19.311
		c-8.133,2.82-16.611,5.82-25.141,8.662c-1.421,0.475-3.559,1.729-4.305-0.848c-0.645-2.223,1.424-2.529,2.917-3.053
		c3.396-1.193,6.806-2.344,10.2-3.541c5.146-1.814,10.283-3.652,14.92-5.303c-1.357-7.553-2.634-14.664-3.95-21.992
		c-2.902,0.545-5.824,0.918-8.65,1.654c-8.657,2.262-16.238,6.672-21.131,14.117C129.144,285.671,125.335,293.985,121.015,301.978z
		 M279.244,341.565c0.37,0.766,0.826,1.805,1.36,2.803c5.554,10.389,13.744,17.93,25.255,20.645
		c7.703,1.816,15.776,2.09,23.699,2.896c0.604,0.063,1.847-1.07,1.932-1.756c1.09-8.742,2.796-17.5,2.802-26.258
		c0.009-11.492-5.669-20.77-12.791-27.068c-5.934,5.484-11.682,10.797-17.33,16.02c5,6.928,10.363,14.303,15.611,21.76
		c0.37,0.525,0.037,2.318-0.223,2.377c-1.065,0.234-2.477,0.41-3.294-0.115c-1.046-0.674-1.656-2.035-2.43-3.117
		c-4.47-6.26-8.932-12.523-13.216-18.533C293.48,334.675,286.521,338.044,279.244,341.565z M181.659,311.274
		c-8.601,7.6-13.583,17.037-14.528,28.422c-0.783,9.443,1.448,18.605,3.1,28.168c6.264-0.574,12.386-1.232,18.524-1.678
		c11.576-0.838,20.467-6.492,27.518-15.318c2.199-2.752,3.871-5.926,5.567-8.568c-7.339-3.908-14.131-7.525-20.984-11.176
		c-2.047,2.818-4.316,6.084-6.732,9.234c-3.113,4.063-6.279,8.09-9.595,11.984c-0.513,0.605-1.945,0.426-2.953,0.609
		c-0.015-1.027-0.37-2.221,0.033-3.043c0.653-1.33,1.83-2.396,2.739-3.609c4.491-5.988,8.966-11.988,13.441-17.977
		c-3.046-2.77-6.016-5.164-8.609-7.914C186.515,317.585,184.218,314.417,181.659,311.274z M252.984,168.455
		c7.322,1.096,14.937,2.236,22.721,3.401c2.261-10.512,0.696-20.839-5.454-29.697c-5.522-7.951-12.491-14.898-18.81-22.274
		c-17.94,14.688-29.856,32.335-25.521,52.143c7.478-1.158,14.937-2.313,22.602-3.499c0-3.078-0.005-6.403,0.001-9.729
		c0.011-5.977-0.056-11.955,0.142-17.925c0.026-0.804,1.397-1.563,2.146-2.343c0.754,0.827,1.574,1.604,2.221,2.507
		c0.215,0.299-0.043,0.92-0.045,1.395C252.982,151.066,252.984,159.698,252.984,168.455z M225.775,343.438
		c-1.914,11.455-0.759,22.711,6.653,32.26c5.267,6.783,11.711,12.652,17.774,19.084c3.047-2.838,5.752-5.227,8.309-7.766
		c6.365-6.318,12.575-12.768,15.624-21.508c2.571-7.369,2.546-14.861,1.4-22.424c-7.645,1.215-14.985,2.383-22.397,3.563
		c0,3.322,0,6.748,0,10.174c0,5.432,0.07,10.863-0.065,16.291c-0.023,0.934-0.774,1.992-1.481,2.699
		c-0.32,0.322-1.785,0.17-1.984-0.186c-0.521-0.928-0.858-2.086-0.867-3.154c-0.064-8.637-0.035-17.273-0.035-25.689
		C240.96,345.653,233.493,344.563,225.775,343.438z M339.21,146.122c-0.278,0.105-0.557,0.212-0.835,0.318
		c0.535,4.237,1.09,8.472,1.6,12.712c1.514,12.589,1.89,25.029-5.432,37.053c1.057-0.632,1.514-0.88,1.946-1.166
		c6.337-4.201,12.699-8.367,18.985-12.645c1.458-0.992,2.917-1.519,3.981-0.011c1.137,1.608-0.098,2.806-1.484,3.71
		c-2.633,1.716-5.272,3.422-7.876,5.18c-4.766,3.217-9.508,6.468-14.899,10.14c10.346-1.807,19.565-1.509,28.1,3.612
		c4.65,2.789,9.254,5.657,13.855,8.527c3.076,1.919,6.111,3.902,9.166,5.858c0.189-0.202,0.379-0.403,0.568-0.605
		C378.831,189.437,362.581,165.444,339.21,146.122z M115.117,219.081c3.206-1.958,6.022-3.692,8.852-5.402
		c5.688-3.438,11.172-7.299,17.129-10.182c7.704-3.729,16.018-3.938,24.835-1.891c-0.66-0.6-0.903-0.887-1.206-1.086
		c-6.353-4.186-12.722-8.347-19.063-12.551c-1.256-0.833-2.627-1.652-3.528-2.805c-0.546-0.699-0.289-2.025-0.392-3.069
		c1.035-0.02,2.28-0.421,3.067,0.012c2.494,1.371,4.815,3.055,7.205,4.615c4.404,2.876,8.809,5.75,13.213,8.625
		c-7.852-16.159-3.325-32.691-1.763-49.328C144.119,158.868,121.852,190.935,115.117,219.081z M335.407,143.483
		c-18.474-16.913-70.721-34.313-82.862-27.694c12.32,11.287,24.988,22.309,27.92,40.198c2.983-8.036,5.693-15.979,8.296-23.956
		c0.476-1.454,0.725-2.857,2.7-2.542c2.151,0.343,2.149,1.953,1.782,3.493c-0.526,2.211-1.204,4.396-1.96,6.543
		c-2.092,5.95-4.258,11.875-6.7,18.655c11.064-9.324,23.091-13.326,36.584-13.432C325.762,144.713,330.351,143.955,335.407,143.483z
		 M220.838,156.403c0.187-0.017,0.374-0.032,0.561-0.049c0.118-0.497,0.233-0.996,0.354-1.492c1.654-6.76,3.574-13.519,7.995-18.99
		c4.412-5.462,9.44-10.427,14.235-15.575c1.497-1.606,3.113-3.103,4.675-4.649c-30.565,0.087-57.844,9.043-82.011,27.608
		c18.412,0.791,36.881,1.218,51.101,16.912c-1.075-2.876-1.883-4.884-2.579-6.93c-2.349-6.903-4.654-13.821-6.984-20.731
		c-0.524-1.558-0.418-2.846,1.393-3.428c1.927-0.62,2.54,0.676,3.001,2.128c0.373,1.172,0.675,2.367,1.061,3.534
		C216.032,141.964,218.438,149.183,220.838,156.403z M355.727,258.313c8.579,0,17.158,0.02,25.736-0.02
		c1.501-0.008,2.378,0.447,2.416,2.061c0.04,1.699-0.866,1.945-2.376,1.932c-8.53-0.074-17.062-0.035-26.546-0.035
		c16.734,7.881,22.735,23,29.3,38.592c8.867-26.107,9.803-51.748,3.308-77.753c-2.957-0.22-2.844,2.462-3.645,3.947
		C377.082,239.719,369.492,251.66,355.727,258.313z M145.661,262.302c-0.835,0-1.672-0.002-2.508,0
		c-7.442,0.006-14.885-0.006-22.328,0.029c-1.65,0.008-3.263-0.064-3.174-2.23c0.089-2.156,1.903-1.736,3.256-1.762
		c2.958-0.051,5.918-0.014,8.877-0.012c5.532,0,11.064,0,16.596,0c-7.352-2.748-12.9-7.751-17.355-13.678
		c-4.722-6.285-8.56-13.234-12.842-19.856c-0.398-0.615-1.215-0.96-1.837-1.431c-0.339,0.59-0.882,1.146-0.984,1.772
		c-0.99,6.09-2.194,12.162-2.785,18.293c-1.347,13.974-0.622,27.894,2.273,41.646c1.046,4.969,2.514,9.852,3.789,14.771
		c0.249,0.035,0.498,0.07,0.747,0.105C124.369,285.626,129.78,270.089,145.661,262.302z M280.382,358.761
		c-2.227,11.748-7.724,21.381-15.994,29.475c-3.28,3.211-6.669,6.311-10.466,9.893c28.33-1.223,53.523-9.475,76.479-25.531
		c-3.959-0.307-7.467-0.5-10.957-0.865c-6.88-0.721-14.007-0.734-20.236-4.109c-5.124-2.773-9.827-6.328-14.586-9.449
		c0.211,0.684,0.538,1.818,0.911,2.939c2.034,6.127,4.092,12.244,6.113,18.375c0.384,1.162,0.91,2.377,0.864,3.549
		c-0.032,0.83-0.762,2.039-1.472,2.307c-0.542,0.203-1.693-0.662-2.286-1.314c-0.456-0.502-0.438-1.418-0.676-2.137
		C285.548,374.271,283.01,366.653,280.382,358.761z M171.218,372.36c26.523,19.225,58.119,25.836,76.627,25.416
		c-12.396-10.258-24.448-20.621-26.614-38.027c-2.726,7.076-5.166,14.123-7.595,21.174c-0.629,1.826-0.295,4.984-3.213,4.322
		c-3.324-0.754-1.525-3.496-0.889-5.393c2.612-7.791,5.341-15.543,8.027-23.311c-0.281-0.264-0.563-0.529-0.845-0.793
		c-0.736,1.096-1.286,2.398-2.239,3.254c-7.137,6.408-14.91,11.373-24.986,11.721C183.542,370.931,177.614,371.767,171.218,372.36z
		 M334.735,323.63c2.906,6.941,4.788,14.379,4.087,22.131c-0.688,7.598-1.946,15.143-3.02,23.195
		c20.944-16.908,36.322-37.486,46.295-62.176c-3.099,1.24-5.804,2.951-8.68,4.299c-5.482,2.57-10.905,5.426-16.643,7.258
		c-7.035,2.246-14.338,1.869-22.15-0.627c2.444,2.09,4.275,3.721,6.176,5.266c4.727,3.842,9.555,7.561,14.159,11.541
		c0.782,0.676,0.653,2.404,0.945,3.646c-1.162-0.105-2.654,0.217-3.435-0.385C346.46,333.147,340.588,328.335,334.735,323.63z
		 M166.889,323.397c-6.031,4.852-11.879,9.559-17.733,14.26c-1.209,0.971-2.467,1.574-3.728,0.096
		c-1.333-1.563,0.011-2.475,0.983-3.283c3.065-2.549,6.24-4.967,9.318-7.502c3.446-2.836,6.833-5.746,10.285-8.656
		c-3.321,0.451-6.383,1.105-9.468,1.244c-9.095,0.404-17.382-2.404-25.246-6.746c-3.918-2.162-7.888-4.232-12.284-6.584
		c10.628,24.672,25.076,45.711,46.742,62.008C163.349,352.964,159.781,338.167,166.889,323.397z"/>
	<path fill-rule="evenodd" clip-rule="evenodd" d="M304.547,257.972c8.872,4.545,14.058,11.74,17.684,20.295
		c1.05,2.473,0.71,4.041-1.896,5.516c-6.732,3.809-13.591,6.824-21.563,6.035c-1.308-0.129-2.605-0.359-4.501-0.629
		c6.924,9.594,4.266,19.641,2.807,29.693c-10.959,0.078-21.931,0.459-30.087-10.066c0.103,6.08-1.676,10.961-5.07,14.975
		c-3.291,3.893-7.151,7.303-10.881,11.045c-8.74-6.898-16.303-13.92-16.884-24.941c-3.917,2.359-7.742,5.691-12.172,7.061
		c-5.046,1.561-10.629,1.408-15.99,1.881c-0.47,0.041-1.361-0.729-1.478-1.25c-1.561-6.967-2.747-14.01-1.093-21.102
		c0.567-2.43,1.989-4.66,3.053-7.055c-9.913,3.107-18.187-1.256-26.216-6.402c-0.758-0.486-1.587-1.982-1.369-2.703
		c2.769-9.162,8.021-16.514,16.336-21.488c0.606-0.363,1.326-0.537,2.586-1.031c-11.105-4.348-15.29-13.909-19.482-23.67
		c7.884-5.684,16.394-9.935,27.169-8.145c-4.745-9.411-2.353-18.727-1.337-27.967c0.081-0.739,1.373-1.966,2.034-1.922
		c5.19,0.344,10.441,0.554,15.518,1.575c4.791,0.964,8.848,3.715,12.386,8.003c0.444-11.88,8.354-18.556,16.178-25.282
		c9.34,5.85,16.448,15.289,17.223,26.031c1.075-1.354,1.697-2.26,2.44-3.053c4.553-4.857,10.315-6.817,16.828-6.91
		c2.761-0.04,5.528-0.118,8.281,0.031c0.705,0.038,1.842,0.772,1.976,1.367c1.667,7.435,3.331,14.918,0.901,22.497
		c-0.613,1.911-1.717,3.665-2.798,5.915c10.007-2.122,18.28,0.708,25.853,6.316c1.527,1.131,2.194,2.046,1.333,4.196
		C318.735,245.722,313.379,253.079,304.547,257.972z M251.208,235.882c-9.725,0.047-21.213,7.592-21.522,21.634
		c-0.236,10.756,9.024,21.596,20.249,21.73c12.348,0.148,20.967-7.516,21.938-20.479C272.804,246.333,263.3,236.303,251.208,235.882
		z M221.801,216.18c1.846,1.718,3.588,3.049,4.972,4.685c3.255,3.848,6.446,7.761,9.445,11.81c1.449,1.956,2.638,2.132,4.457,0.316
		c-1.365-4.48-2.59-9.05-4.146-13.503c-4.735-13.563-12.548-18.983-26.245-18.49c-1.287,0.047-2.291,0.132-2.365,1.71
		c-0.204,4.355-0.685,8.721-0.542,13.065c0.124,3.749,1.268,7.513,4.338,9.915c5.672,4.438,11.668,8.461,17.419,12.802
		c2.183,1.647,3.502,1.093,4.731-1.011c-3.686-5.006-7.376-9.945-10.977-14.947C221.708,220.89,220.291,219.195,221.801,216.18z
		 M270.059,240.115c5.446-3.707,10.807-7.254,16.042-10.977c1.674-1.19,3.219-2.689,4.477-4.315
		c5.864-7.58,3.768-15.949,2.429-24.479c-2.331,0.245-4.396,0.451-6.46,0.681c-7.428,0.828-14.154,3.358-17.534,10.433
		c-3.319,6.948-5.689,14.35-8.48,21.566c1.431,0.912,2.208,1.408,3.247,2.07c5.154-6.455,8.974-14.056,16.609-18.238
		c-1.861,8.408-8.598,13.869-12.691,21.012C268.362,238.5,269.031,239.136,270.059,240.115z M280.324,299.419
		c-1.364-1.102-2.509-1.756-3.294-2.705c-3.991-4.836-7.919-9.725-11.796-14.652c-0.791-1.004-1.234-2.117-2.873-1.314
		c-1.53,0.75-1.35,1.703-0.898,3.029c1.736,5.109,3.219,10.311,5.08,15.373c4.32,11.762,14.479,16.275,26.482,15.004
		c0.408-2.283,0.965-4.582,1.207-6.914c0.674-6.498-0.584-12.607-4.977-17.58c-5.528-6.258-12.518-10.631-20.002-14.498
		c-0.614,0.756-1.141,1.402-1.695,2.086c3.639,4.889,7.331,9.586,10.701,14.504C279.623,293.741,281.128,295.983,280.324,299.419z
		 M221.764,299.257c-0.35-0.305-0.701-0.609-1.051-0.914c2.143-8.418,9.664-13.621,13.515-21.213
		c-0.819-1.111-1.487-2.252-3.317-1.029c-4.499,3.004-9.284,5.611-13.604,8.846c-7.521,5.633-11.51,12.949-9.992,22.758
		c1.043,6.738,0.832,6.77,7.592,6.066c0.379-0.039,0.76-0.059,1.14-0.084c5.414-0.354,9.779-2.807,13.429-6.699
		c6.718-7.166,8.864-16.303,11.173-25.369c-1.001-0.545-1.813-0.986-2.524-1.373c-4.152,5.365-8.159,10.682-12.344,15.854
		C224.736,297.39,223.119,298.218,221.764,299.257z M276.635,255.964c3.508,0,7.371,0.25,11.188-0.063
		c4.707-0.387,9.666-0.457,13.997-2.063c8.109-3.009,12.825-9.645,15.68-17.622c-7.862-6.192-17.804-8.569-27.774-3.293
		c-5.998,3.174-11.508,7.271-17.38,11.045c0.963,1.462,1.674,2.539,2.335,3.541c5.701-1.858,11.164-3.736,16.693-5.392
		c2.09-0.625,4.389-1.381,6.885,0.73c-1.589,1.077-2.839,2.313-4.341,2.872c-5.055,1.886-10.16,3.656-15.324,5.21
		C276.21,251.648,275.127,252.647,276.635,255.964z M225.091,259.37c-6.478,0.412-12.81,0.789-19.137,1.221
		c-10.165,0.691-17.8,8.313-21.294,16.969c-0.315,0.783,0.041,2.484,0.66,2.898c7.184,4.795,14.81,7.305,23.326,3.607
		c2.086-0.906,4.226-1.775,6.134-2.986c4.92-3.125,9.726-6.434,14.62-9.697c-0.999-1.479-1.625-2.406-2.305-3.412
		c-4.931,1.648-9.738,3.336-14.6,4.844c-2.238,0.695-4.572,1.129-6.893,1.486c-0.584,0.09-1.605-0.428-1.836-0.934
		c-0.218-0.477,0.135-1.611,0.597-1.926c1.301-0.883,2.722-1.701,4.213-2.174c5.67-1.799,11.387-3.451,17.156-5.178
		C225.519,262.522,225.342,261.222,225.091,259.37z M251.77,329.272c2.023-2.557,4.188-5.088,6.121-7.783
		c3.658-5.1,5.902-10.682,4.559-17.092c-1.264-6.029-2.715-12.02-4.164-18.01c-0.93-3.844-0.994-3.828-5.181-2.502
		c0,5.916,0.126,11.912-0.066,17.896c-0.071,2.186-0.899,4.348-1.382,6.52c-0.367-0.059-0.734-0.119-1.102-0.178
		c-3.572-7.797-0.949-16.227-2.215-24.373c-1.071-0.256-2.22-0.529-3.592-0.857c-1.634,5.861-3.383,11.568-4.777,17.363
		c-0.766,3.184-1.464,6.543-1.264,9.766C239.213,318.204,244.583,323.485,251.77,329.272z M244.612,231.583
		c3.69,0.373,4.173-1.445,4.014-4.118c-0.187-3.132-0.104-6.286-0.021-9.428c0.071-2.743,0.222-5.492,0.524-8.217
		c0.077-0.687,0.873-1.293,1.338-1.936c0.621,0.611,1.64,1.14,1.789,1.851c0.446,2.118,0.712,4.306,0.758,6.472
		c0.103,4.929,0.032,9.861,0.032,14.778c1.462,0.406,2.614,0.727,4.026,1.118c1.391-5.212,2.938-10.272,4.051-15.426
		c0.813-3.771,1.424-7.66,1.479-11.506c0.122-8.637-6.15-13.392-11.728-18.499c-10.868,7.886-13.753,15.57-11.472,25.86
		C240.834,218.991,242.876,225.313,244.612,231.583z M203.695,244.312c0.777-3.656,2.731-2.813,4.255-2.405
		c5.403,1.447,10.881,2.737,16.101,4.702c3.002,1.129,4.184,0.418,4.849-2.541c-5.246-3.497-10.579-7.138-15.997-10.648
		c-8.911-5.775-20.781-2.955-28.383,2.188c0.152,0.526,0.273,1.075,0.466,1.597c3.125,8.445,8.146,15.493,17.35,17.29
		c7.336,1.432,14.999,1.191,21.994,1.66c2.189-3.207,1.002-4.44-1.459-5.167c-2.64-0.779-5.284-1.558-7.878-2.474
		C211.198,247.174,207.447,245.713,203.695,244.312z M317.306,279.671c-0.985-6.873-9.761-17.375-16.331-18.277
		c-8.13-1.117-16.39-1.285-24.496-1.857c-0.804,4.217-0.797,4.197,2.444,5.219c4.783,1.506,9.581,2.977,14.323,4.605
		c2.161,0.742,3.935,2.051,4.316,5.045c-1.409-0.141-2.45-0.096-3.405-0.361c-5.746-1.604-11.538-3.088-17.176-5.018
		c-2.545-0.871-3.591-0.289-4.365,2.66c6.282,3.906,12.55,8.012,19.041,11.721c2.054,1.174,4.676,1.543,7.092,1.854
		C305.715,286.155,311.819,283.882,317.306,279.671z"/>
	<path fill-rule="evenodd" clip-rule="evenodd" d="M239.964,257.991c-0.104-6.864,3.047-11.792,12.004-11.655
		c6.057,0.093,10.264,5.171,10.311,12.543c0.033,5.381-5.038,10.168-10.834,10.229C244.305,269.181,240.009,265.021,239.964,257.991
		z M257.758,257.706c0.076-3.959-2.709-6.784-6.75-6.845c-3.979-0.061-6.944,2.759-6.996,6.653
		c-0.055,4.234,2.536,6.934,6.806,7.088C254.988,264.755,257.673,262.087,257.758,257.706z"/>
</g>
</svg>
