<?xml version="1.0" encoding="utf-8"?>
<!-- Generator: Adobe Illustrator 16.0.0, SVG Export Plug-In . SVG Version: 6.00 Build 0)  -->
<!DOCTYPE svg PUBLIC "-//W3C//DTD SVG 1.1//EN" "http://www.w3.org/Graphics/SVG/1.1/DTD/svg11.dtd">
<svg version="1.1" xmlns="http://www.w3.org/2000/svg" xmlns:xlink="http://www.w3.org/1999/xlink" x="0px" y="0px" width="1024px"
	 height="1024px" viewBox="0 0 1024 1024" enable-background="new 0 0 1024 1024" xml:space="preserve">
<g id="Layer_1" display="none">
	<path display="inline" fill-rule="evenodd" clip-rule="evenodd" d="M700.29,337.519c55.732,87.883,111.593,175.685,167.452,263.487
		c21.24,33.386,42.795,66.574,63.718,100.158c22.815,36.622,4.173,81.982-38.931,91.049c-2.899,0.609-5.971,0.545-8.962,0.549
		c-29.665,0.037-59.33,0.022-88.995,0.022c0-0.006,0-0.012,0-0.018c-30.499,0-60.997,0.055-91.495-0.06l-361.859,0.069
		c-65.663,0.011-131.326-0.041-196.989,0.089c-24.093,0.048-42.862-9.763-54.159-30.93c-11.075-20.751-9.03-42.013,3.421-61.657
		c31.511-49.713,63.545-99.094,95.246-148.687c46.741-73.122,93.461-146.259,139.793-219.64l63.959-90.916
		c16.837-26.534,33.911-52.919,50.735-79.462c16.295-25.708,39.892-38.659,69.947-38.838c26.772-0.159,49.159,10.511,64.305,32.92
		c18.891,27.952,36.699,56.638,54.828,85.1L700.29,337.519z"/>
</g>
<g id="Layer_2">
	<g>
		<path fill-rule="evenodd" clip-rule="evenodd" d="M174.023,572.979c-6.767-6.342-14.046-11.69-19.332-18.401
			c-14.237-18.082-18.791-38.318-9.583-59.514c7.766-17.877,24.23-26.148,43.809-29.535c10.989-1.901,21.972-1.513,32.886,0.802
			c1.351,0.286,2.832,0.039,4.261,0.039c0.708-5.431,0.903-10.923,2.212-16.175c3.356-13.466,11.884-23.953,24.678-30.446
			c11.733-5.956,24.492-10.143,36.684-15.342c2.687-1.146,5.685-2.802,7.203-5.018c34.064-49.738,67.883-99.622,101.97-149.348
			c2.636-3.846,2.879-6.411-0.196-9.957c-6.831-7.879-9.494-16.876-7.123-26.984c2.915-12.428,20.062-26.099,38.742-20.133
			c7.475,2.388,7.49,2.06,11.826-4.346c9.586-14.16,18.639-28.684,29.075-42.281c12.813-16.693,31.442-21.258,52.508-18.51
			c16.284,2.124,27.381,10.604,36.081,23.635c44.89,67.231,90.335,134.142,135.527,201.198
			c10.495,15.574,20.649,31.35,31.257,46.856c1.516,2.216,4.457,4.181,7.174,4.989c14.054,4.18,28.125,8.192,40.464,16.112
			c15.879,10.191,24.814,23.842,24.562,42.169c-0.011,0.831,0.016,1.667,0.096,2.495c0.03,0.309,0.268,0.6,0.497,1.081
			c6.425-0.685,12.896-1.535,19.398-2.037c16.256-1.254,31.769,1.554,45.145,10.293c15.857,10.358,23.053,25.165,22.181,43.33
			c-1.225,25.453-14.936,43.551-38.329,56.638c4.326,6.378,8.653,12.773,12.997,19.159c26.658,39.187,53.336,78.363,79.976,117.562
			c10.979,16.155,12.393,32.939,2.563,49.882c-8.684,14.97-22.69,23.685-40.831,24.127c-38.773,0.947-77.579,0.737-116.365,1.31
			c-5.552,0.082-11.44,1.049-16.554,3.01c-71.82,27.543-143.512,55.379-215.29,83.021c-17.083,6.579-35.012,6.702-53.109,5.222
			c-20.401-1.668-37.641-11.429-55.685-18.902c-53.646-22.221-107.052-44.941-160.527-67.515c-7.898-3.334-15.966-5.031-24.76-4.995
			c-46.3,0.188-92.608,0.52-138.899-0.106c-42.876-0.58-62.746-41.848-45.173-71.013c12.253-20.34,26.52-39.636,40.098-59.271
			C135.489,628.09,155.037,600.216,174.023,572.979z M267.49,570.928c0,25.262-0.248,50.249,0.094,75.229
			c0.201,14.771,0.644,29.595,2.238,44.275c1.748,16.105,9.561,29.953,21.487,41.81c17.968,17.86,40.537,28.354,65.24,35.184
			c36.047,9.965,73.279,13.575,110.577,14.733c34.96,1.087,70.013-0.237,105.021-0.79c8.346-0.132,16.72-1.106,24.995-2.237
			c14.564-1.991,29.085-4.289,43.584-6.663c19.951-3.266,39.63-7.645,57.91-16.006c37.784-17.281,58.825-45.44,60.173-84.874
			c1.11-32.465,0.673-64.978,0.796-97.469c0.012-3.008,0.788-4.082,4.2-4.9c20.894-5.011,41.817-9.991,62.437-15.876
			c13.028-3.717,23.382-11.362,28.631-23.631c8.118-18.969-1.636-34.894-22.966-38.344c-13.93-2.253-27.188,1.316-40.617,3.477
			c-1.03,0.166-2.493,1.607-2.594,2.563c-0.486,4.575-0.573,9.187-0.825,14.258c2.313-0.273,3.858-0.512,5.415-0.631
			c11.307-0.862,22.608-2.218,33.927-2.369c7.95-0.105,11.629,6.07,9.368,13.301c-1.849,5.914-6.391,9.569-11.789,12.268
			c-20.146,10.069-41.718,15.758-65.01,17.901c0-12.019,0-23.72,0-35.827c-5.045,2.231-9.349,4.556-13.962,6.051
			c-4.08,1.323-5.19,3.342-5.178,7.292c0.147,46.991,0.185,93.983-0.019,140.974c-0.057,13.164-4.29,25.379-11.86,36.555
			c-14.02,20.7-34.856,33.161-59.225,40.025c-18.06,5.088-36.787,8.473-55.452,11.245c-21.067,3.129-42.354,6.124-63.625,6.702
			c-50.304,1.366-100.65,0.964-150.401-7.715c-19.13-3.337-38.232-6.869-56.36-13.918c-25.039-9.737-43.312-25.768-53.268-49.433
			c-5.06-12.029-4.109-24.776-4.017-37.416c0.32-43.488,0.419-86.978,0.548-130.467c0.003-1.204-0.248-3.194-0.989-3.49
			c-5.881-2.344-11.91-4.366-18.661-6.76c0,12.86,0,24.631,0,37.032c-6.277-1.234-12.001-2.25-17.667-3.495
			c-16.746-3.681-33.187-8.161-48.445-15.848c-5.976-3.011-10.15-7.171-11.604-13.452c-1.126-4.863,1.489-10.021,6.719-10.651
			c7.335-0.884,14.873-0.843,22.284-0.48c6.588,0.321,13.121,1.619,19.616,2.478c0.219-2.629-0.245-4.888,0.658-6.469
			c2.848-4.983,0.745-9.567-5.28-10.562c-3.144-0.52-6.29-1.027-9.434-1.548c-11.303-1.869-22.649-2.739-33.978-0.412
			c-10.625,2.182-20.743,11.096-21.3,19.369c-0.872,12.951,3.353,24.075,14.624,32.543c9.665,7.261,21.05,10.889,32.638,13.937
			C233.114,562.859,250.256,566.752,267.49,570.928z M521.852,411.979c-0.008,0.508-0.015,1.015-0.022,1.522
			c-22.87,0-45.759-0.536-68.604,0.152c-22.451,0.677-44.959,1.788-67.26,4.188c-25.025,2.691-49.912,6.684-74.729,10.8
			c-14.835,2.46-29.534,6.079-42.334,14.024c-17.501,10.864-18.302,31.607-1.147,42.873c8.471,5.563,17.915,10.234,27.568,13.768
			c29.594,10.833,60.506,17.125,91.757,22.456c32.504,5.545,65.267,8.543,98.152,9.502c51.759,1.511,103.43-0.035,154.766-7.626
			c32.332-4.78,63.95-11.781,94.271-23.332c10.558-4.021,20.36-9.449,28.175-17.508c9.818-10.124,10.082-23.348,0.892-33.904
			c-9.258-10.636-22.437-14.276-35.731-17.278c-42.442-9.581-85.759-13.854-129.175-16.882
			C572.972,412.958,547.382,412.842,521.852,411.979z M321.118,611.489c-0.227,0-0.452,0-0.677,0c0,2.997-0.028,5.993,0.005,8.99
			c0.2,18.128-0.193,36.284,0.785,54.376c1.099,20.34,15.813,31.239,34.029,39.045c1.23,0.527,2.787,0.718,4.144,0.597
			c3.18-0.284,5.107-3.906,3.116-6.19c-10.059-11.545-11.996-25.344-12.018-39.359c-0.055-36.318,0.435-72.639,0.681-108.958
			c0.046-6.694-3.652-10.211-11.065-10.452c-4.466-0.145-8.956,0.177-13.406-0.098c-4.166-0.256-5.699,1.082-5.666,5.07
			C321.206,573.502,321.118,592.496,321.118,611.489z M394.799,336.247c0.341,15.171,10.291,35.038,22.818,45.693
			c3.699,3.146,8.449,2.482,13.692-1.91c3.022-2.534,3.069-6.919,0.112-10.264c-1.694-1.917-3.495-3.762-5.057-5.77
			c-14.932-19.197-14.524-37.468,0.977-56.018c4.806-5.752,9.42-11.667,13.72-17.755c5.837-8.266,9.401-17.421,9.884-27.356
			c0.928-19.108-10.095-33.662-21.746-47.837c-2.298-2.797-6.279-3.078-9.239-1.249c-2.04,1.261-4.16,4.086-4.124,6.181
			c0.05,2.852,1.583,6.023,3.41,8.451c15.28,20.312,15.387,37.066,0.079,57.156c-3.401,4.463-6.931,8.852-10.097,13.456
			C401.413,310.394,394.325,322.053,394.799,336.247z M474.572,340.29c0.725,14.204,9.401,28.722,21.9,41.517
			c3.881,3.974,10.777,2.479,13.446-2.376c2.969-5.401-0.024-9.465-3.277-13.604c-15.904-20.234-16.617-37.202-2.334-56.069
			c4.307-5.69,9.108-11.066,13.235-16.863c10.598-14.886,16.59-30.881,10.568-48.79c-3.999-11.893-9.368-23.371-19.412-32.063
			c-2.075-1.796-6.372-2.693-9.128-2.059c-2.246,0.517-4.931,3.813-5.214,6.111c-0.315,2.559,1.264,5.809,3.057,8.028
			c18.035,22.322,18.247,41.844,0.664,64.106c-4.634,5.867-8.927,11.994-13.001,18.215
			C479.01,315.703,474.541,325.531,474.572,340.29z M605.768,270.773c0.74-8.57-2.061-16.339-8.83-22.787
			c-3.34-3.183-7.314-4.521-11.524-1.948c-3.988,2.436-4.331,6.052-2.506,10.107c5.294,11.778,3.835,22.938-3.726,33.546
			c-5.014,7.035-9.852,14.18-14.726,21.301c-17.704,25.862-6.89,52.977,11.848,71.465c1.882,1.857,6.833,2.562,9.559,1.671
			c2.47-0.807,5.449-4.592,5.333-6.94c-0.179-3.607-2.112-7.609-4.535-10.567c-9.906-12.095-14.145-25.578-9.764-40.158
			c2.02-6.719,7.438-12.633,11.722-18.661C596.65,296.496,606.077,285.822,605.768,270.773z M601.59,674.04
			c2.437-0.544,3.752-0.47,4.436-1.046c8.06-6.779,16.144-13.54,23.961-20.559c3.593-3.225,2.308-6.18-1.192-9.211
			c-3.575-3.098-7.566-4.177-10.91-1.297c-7.452,6.423-14.426,13.363-21.142,20.464c-1.325,1.401-1.519,4.86-0.617,6.673
			C597.212,671.253,600.021,672.697,601.59,674.04z M540.348,701.919c2.55-1.888,5.944-3.213,6.856-5.426
			c0.837-2.028-0.565-5.22-1.79-7.524c-1.232-2.317-3.731-4.02-5.203-6.261c-4.062-6.187-7.873-12.516-11.79-18.785
			c-2.616-4.188-6.59-4.27-10.132-0.981c-3.663,3.399-3.432,6.554-0.97,10.177c5.785,8.514,11.481,17.082,17.44,25.489
			C535.677,699.901,537.797,700.456,540.348,701.919z M588.328,600.365c0.137-5.241-1.522-7.922-5.643-8.73
			c-4.309-0.847-6.902,0.883-8.663,4.716c-3.608,7.857-7.425,15.651-11.639,23.238c-1.541,2.774-2.82,5.292-0.353,7.621
			c2.084,1.966,5.162,4.585,7.468,4.327c2.197-0.245,4.441-3.597,5.831-6.001c4.076-7.048,7.772-14.289,11.536-21.491
			C587.693,602.463,588.186,600.73,588.328,600.365z M433.234,658.938c1.834-0.578,2.819-0.653,3.467-1.129
			c9.492-6.969,19.068-13.847,28.316-21.089c2.67-2.091,2.816-5.568,0.338-8.092c-2.57-2.617-5.881-2.961-9.081-0.568
			c-9.021,6.746-18.16,13.367-26.915,20.402c-1.417,1.138-2.075,4.505-1.345,6.183C428.845,656.548,431.633,657.71,433.234,658.938z
			"/>
		<path fill-rule="evenodd" clip-rule="evenodd" d="M523.749,428.756c28.793,1.291,56.662,2.088,84.454,3.9
			c34.931,2.279,69.713,6.064,103.779,13.955c9.391,2.175,18.759,5.02,27.527,8.789c9.771,4.2,10.303,10.067,2.801,17.166
			c-10.556,9.988-23.928,15.873-37.861,19.67c-20.693,5.64-41.724,10.632-62.954,14.042c-47.931,7.7-96.316,10.745-144.965,8.353
			c-22.263-1.095-44.585-1.976-66.72-4.293c-40.185-4.206-80.211-9.637-118.418-22.869c-10.359-3.588-20.436-7.773-28.096-15.704
			c-6.456-6.687-6.261-12.327,2.594-15.774c12.831-4.996,26.142-9.459,39.704-12.157c18.715-3.724,37.795-6.082,56.83-8.114
			c18.76-2.004,37.637-3.288,56.502-4.141C467.48,430.288,496.068,429.646,523.749,428.756z M459.568,461.811
			c0.084-5.735-1.956-7.781-7.406-8.254c-4.171-0.361-5.893,1.673-6.648,5.405c-1.01,4.993-2.667,9.874-4.11,14.787
			c-1.512,5.144-5.291,7.522-10.908,7.771c-5.337,0.237-10.669,0.599-15.998,0.99c-5.664,0.415-8.085,2.873-7.462,7.414
			c0.578,4.205,4.96,7.709,9.292,7.036c6.796-1.057,13.627-2.096,20.286-3.704c8.791-2.123,15.083-6.897,17.356-15.641
			c1.113-4.281,3.046-8.376,4.57-12.566C459.042,463.668,459.43,462.251,459.568,461.811z M552.827,464.187
			c-2.446,1.368-5.967,2.219-7.084,4.229c-1.61,2.901-2.406,6.993,1.57,9.386c5.346,3.217,10.8,6.366,16.549,8.862
			c1.916,0.832,5.469,0.276,7.188-0.958c1.464-1.051,2.197-4.129,1.815-6.063C571.476,472.61,561.301,465.326,552.827,464.187z
			 M621.673,497.497c5.581,0.008,8.188-2.008,8.145-6.298c-0.049-4.937-3.769-7.802-10.044-7.682
			c-5.376,0.102-5.44,3.926-5.604,7.364C613.937,495.763,616.049,497.489,621.673,497.497z M488.497,493.616
			c0.135-7.4-2.441-10.07-7.62-10.109c-4.679-0.035-7.317,2.544-7.339,7.176c-0.021,4.437,2.661,6.863,7.706,6.795
			C485.466,497.42,488.368,495.829,488.497,493.616z"/>
	</g>
</g>
</svg>
