<?xml version="1.0" encoding="utf-8"?>
<!-- Generator: Adobe Illustrator 16.0.0, SVG Export Plug-In . SVG Version: 6.00 Build 0)  -->
<!DOCTYPE svg PUBLIC "-//W3C//DTD SVG 1.1//EN" "http://www.w3.org/Graphics/SVG/1.1/DTD/svg11.dtd">
<svg version="1.1" xmlns="http://www.w3.org/2000/svg" xmlns:xlink="http://www.w3.org/1999/xlink" x="0px" y="0px" width="1024px"
	 height="1024px" viewBox="0 0 1024 1024" enable-background="new 0 0 1024 1024" xml:space="preserve">
<g id="Layer_1" display="none">
	<path display="inline" fill-rule="evenodd" clip-rule="evenodd" d="M700.29,337.519c55.732,87.883,111.593,175.685,167.452,263.487
		c21.24,33.386,42.795,66.574,63.718,100.158c22.815,36.622,4.173,81.982-38.931,91.049c-2.899,0.609-5.971,0.545-8.962,0.549
		c-29.665,0.037-59.33,0.022-88.995,0.022c0-0.006,0-0.012,0-0.018c-30.499,0-60.997,0.055-91.495-0.06l-361.859,0.069
		c-65.663,0.011-131.326-0.041-196.989,0.089c-24.093,0.048-42.862-9.763-54.159-30.93c-11.075-20.751-9.03-42.013,3.421-61.657
		c31.511-49.713,63.545-99.094,95.246-148.687c46.741-73.122,93.461-146.259,139.793-219.64l63.959-90.916
		c16.837-26.534,33.911-52.919,50.735-79.462c16.295-25.708,39.892-38.659,69.947-38.838c26.772-0.159,49.159,10.511,64.305,32.92
		c18.891,27.952,36.699,56.638,54.828,85.1L700.29,337.519z"/>
</g>
<g id="Layer_2">
	<g>
		<path fill-rule="evenodd" clip-rule="evenodd" d="M424.662,196.865c-6.544-5.36-12.033-11.483-13.479-20.188
			c-0.323-1.95-0.645-3.931-0.653-5.899c-0.059-12.997-0.041-25.996-0.031-38.994c0.017-21.401,15.083-39.992,35.988-44.222
			c3.386-0.686,6.9-1.027,10.356-1.034c38.494-0.067,76.989-0.125,115.483-0.001c23.813,0.076,44.002,18.483,45.395,42.217
			c0.856,14.6,0.304,29.304-0.084,43.948c-0.251,9.499-4.863,17.044-12.434,22.753c-0.66,0.497-1.423,0.857-2.086,1.251
			c34.934,54.059,69.462,107.422,103.921,160.829c54.817,84.958,109.598,169.939,164.374,254.925
			c21.493,33.348,42.819,66.805,64.431,100.076c17.939,27.617,4,63.133-29.019,72.788c-6.094,1.781-12.773,2.154-19.185,2.17
			c-64.823,0.149-129.647,0.09-194.471,0.09c-1.647,0-3.295,0-5.674,0c0,5.366,0.132,10.463-0.022,15.551
			c-0.79,25.911-10.159,47.854-30.557,64.399c-15.692,12.729-34.046,18.554-54.034,18.613c-58.657,0.174-117.315,0.1-175.973-0.063
			c-21.768-0.061-41.654-6.221-58.343-20.619c-17.153-14.799-26.43-33.748-28.066-56.368c-0.504-6.957-0.839-13.926-1.287-21.505
			c-1.712,0-3.479,0-5.247,0c-65.99-0.006-131.981,0.118-197.972-0.101c-18.052-0.06-32.743-7.764-43.446-22.426
			c-11.078-15.177-11.572-35.064-1.354-50.902c28.616-44.354,57.333-88.642,85.95-132.994
			c64.453-99.896,128.884-199.804,193.289-299.73C388.504,253.395,406.447,225.278,424.662,196.865z M555.638,200.67
			c0,11.489-0.435,22.479,0.094,33.422c1,20.681,6.734,39.983,19.952,56.262c10.274,12.653,20.82,25.179,32.227,36.799
			c23.126,23.561,34.295,51.24,33.757,84.386c-0.687,42.315-0.162,84.651-0.162,126.979c0,85.987,0.009,171.976-0.009,257.963
			c-0.005,19.528-10.292,33.949-28.824,39.442c-5.793,1.717-12.08,2.437-18.145,2.458c-52.158,0.187-104.318,0.138-156.478,0.064
			c-5.469-0.008-11.036-0.085-16.388-1.06c-15.984-2.909-28.266-11.147-32.987-27.284c-2.198-7.51-2.714-15.722-2.75-23.621
			c-0.232-51.157-0.207-102.316-0.104-153.475c0.156-77.814,0.139-155.632,0.889-233.441c0.187-19.337,6.054-37.894,17.966-53.422
			c10.512-13.704,22.24-26.53,34.022-39.193c18.121-19.478,31.717-41.058,33.213-68.374c0.687-12.547,0.117-25.163,0.117-37.73
			c-6.454,0-12.691,0-19.523,0c0,5.631,0.182,10.938-0.042,16.228c-0.358,8.47-0.544,16.982-1.587,25.38
			c-2.47,19.861-13.305,35.375-26.451,49.708c-11.479,12.514-23.296,24.822-33.671,38.222
			c-18.622,24.052-25.194,52.293-25.214,82.205c-0.084,128.648-0.044,257.297-0.024,385.944c0.001,9.606,2.172,18.809,6.444,27.367
			c11.509,23.053,31.58,32.912,56.045,33.167c57.484,0.6,114.979,0.315,172.469,0.064c15.84-0.068,30.377-4.703,42.509-15.558
			c14.776-13.222,19.416-30.357,19.409-49.349c-0.014-38.326,0.021-76.653-0.076-114.979c-0.236-93.809-0.298-187.619-0.988-281.424
			c-0.164-22.293-6.501-43.64-19.992-61.543c-12.284-16.3-26.58-31.091-40.072-46.474c-11.649-13.283-21.742-27.511-23.85-45.579
			c-1.441-12.354-1.579-24.86-2.292-37.299c-0.118-2.072-0.195-4.147-0.293-6.255C568.197,200.67,562.23,200.67,555.638,200.67z
			 M571.592,484.575c-0.318-2.567-0.505-7.595-1.609-12.412c-7.024-30.637-24.488-54.258-50.235-71.573
			c-7.805-5.25-17.215-8.21-26.081-11.735c-3.657-1.454-6.735-0.931-7.55,4.529c-1.167,7.823-2.849,15.697-5.454,23.15
			c-5.179,14.815-11.313,29.293-16.728,44.03c-6.419,17.474-8.229,35.103-0.678,52.836c7.061,16.58,18.718,29.632,33.07,39.811
			c8.351,5.921,10.865,12.492,10.331,22.129c-0.72,13.01-0.187,13.129,12.69,12.016c1.271-0.109,3.255-2.083,3.391-3.354
			c0.44-4.118,0.387-8.325,0.127-12.474c-0.319-5.097,1.618-8.866,5.345-12.252c7.02-6.379,14.132-12.721,20.555-19.679
			C562.437,524.79,571.387,507.747,571.592,484.575z M513.172,601.489c-28.819,0-57.638-0.01-86.457,0.009
			c-5.026,0.003-7.621,2.32-7.202,7.183c0.193,2.25,1.451,4.753,2.97,6.492c20.688,23.698,41.559,47.237,62.197,70.978
			c1.646,1.893,2.681,4.976,2.703,7.518c0.202,23.486,0.072,46.975,0.141,70.463c0.031,10.423,6.794,14.925,16.162,10.488
			c9.582-4.537,18.888-9.652,28.347-14.45c5.48-2.778,7.836-7.052,7.761-13.274c-0.212-17.322-0.225-34.651,0.067-51.971
			c0.052-3.063,1.2-6.723,3.129-9.031c8.213-9.832,16.944-19.229,25.422-28.841c12.221-13.855,24.385-27.76,36.573-41.643
			c2.629-2.995,3.512-6.413,2.034-10.153c-1.526-3.865-4.932-3.787-8.391-3.781C570.143,601.526,541.657,601.504,513.172,601.489z
			 M513.976,172.905c18.984,0,37.969-0.003,56.953,0.002c11.996,0.003,14.786-2.732,14.799-14.533
			c0.008-6.995,0.084-13.989,0.014-20.983c-0.107-10.736-5.911-16.565-16.698-16.702c-8.158-0.104-16.319-0.019-24.479-0.02
			c-27.978-0.001-55.955-0.046-83.932,0.016c-11.964,0.026-18.016,6.188-18.106,18.197c-0.053,6.827-0.015,13.655-0.003,20.483
			c0.018,9.968,3.465,13.486,13.503,13.513C475.342,172.93,494.659,172.894,513.976,172.905z M408.54,407.51
			c0,1.666-0.152,3.349,0.029,4.994c0.513,4.66,3.558,8.024,7.421,7.95c4.496-0.086,6.898-2.764,7.647-7.057
			c0.313-1.796,0.515-3.613,0.864-5.401c1.488-7.615,2.109-15.548,4.698-22.773c7.476-20.865,22.514-36.175,38.977-50.226
			c5.354-4.571,6.335-7.726,3.415-11.756c-2.7-3.726-6.719-3.65-12.266,0.236c-0.408,0.285-0.823,0.573-1.181,0.917
			c-9.323,8.981-19.414,17.31-27.78,27.109C416.749,367.451,409.62,386.431,408.54,407.51z"/>
		<path fill-rule="evenodd" clip-rule="evenodd" d="M543.511,463.083c4.311,7.986,3.765,14.754,1.313,21.159
			c-2.947,7.704-6.112,15.479-10.39,22.486c-7.345,12.031-10.092,25.343-13.085,38.743c-1.062,4.755-0.603,10.396-5.453,13.965
			c-4.8-2.927-8.41-6.263-7.426-12.413c0.13-0.812-0.109-1.688,0.046-2.49c3.152-16.318-5.995-28.13-14.666-40.115
			c-4.478-6.188-9.109-12.272-13.367-18.608c-0.986-1.469-1.561-4.984-0.881-5.45c1.634-1.119,4.805-2.042,6.148-1.175
			c5.2,3.357,10.401,6.986,14.691,11.399c3.858,3.969,6.523,9.099,10.353,14.639c3.306-29.49-4.6-57.41-6.607-86.968
			c2.264,1.548,3.811,2.313,4.988,3.457c9.081,8.818,13.517,20.026,15.198,32.201c1.519,10.987,1.972,22.121,2.926,33.571
			C532.448,479.734,537.64,471.921,543.511,463.083z"/>
		<path fill-rule="evenodd" clip-rule="evenodd" d="M505.453,752.574c0-21.556-0.145-42.376,0.103-63.192
			c0.063-5.206-1.446-9.227-4.842-13.053c-15.136-17.051-30.122-34.234-45.149-51.382c-1.3-1.482-2.504-3.049-4.16-5.076
			c41.834,0,83.104,0,125.131,0c-6.979,8.045-13.552,15.674-20.182,23.254c-10.079,11.522-20.369,22.869-30.165,34.627
			c-2.116,2.539-3.477,6.487-3.546,9.821c-0.347,16.649-0.272,33.312-0.058,49.965c0.058,4.476-1.631,7.188-5.525,9.028
			C513.344,748.321,509.75,750.336,505.453,752.574z"/>
	</g>
</g>
</svg>
