<?xml version="1.0" encoding="utf-8"?>
<!-- Generator: Adobe Illustrator 16.0.0, SVG Export Plug-In . SVG Version: 6.00 Build 0)  -->
<!DOCTYPE svg PUBLIC "-//W3C//DTD SVG 1.1//EN" "http://www.w3.org/Graphics/SVG/1.1/DTD/svg11.dtd">
<svg version="1.1" xmlns="http://www.w3.org/2000/svg" xmlns:xlink="http://www.w3.org/1999/xlink" x="0px" y="0px" width="1024px"
	 height="1024px" viewBox="0 0 1024 1024" enable-background="new 0 0 1024 1024" xml:space="preserve">
<g id="Layer_1" display="none">
	<path display="inline" fill-rule="evenodd" clip-rule="evenodd" d="M700.29,337.519c55.732,87.883,111.593,175.685,167.452,263.487
		c21.24,33.386,42.795,66.574,63.718,100.158c22.815,36.622,4.173,81.982-38.931,91.049c-2.899,0.609-5.971,0.545-8.962,0.549
		c-29.665,0.037-59.33,0.022-88.995,0.022c0-0.006,0-0.012,0-0.018c-30.499,0-60.997,0.055-91.495-0.06l-361.859,0.069
		c-65.663,0.011-131.326-0.041-196.989,0.089c-24.093,0.048-42.862-9.763-54.159-30.93c-11.075-20.751-9.03-42.013,3.421-61.657
		c31.511-49.713,63.545-99.094,95.246-148.687c46.741-73.122,93.461-146.259,139.793-219.64l63.959-90.916
		c16.837-26.534,33.911-52.919,50.735-79.462c16.295-25.708,39.892-38.659,69.947-38.838c26.772-0.159,49.159,10.511,64.305,32.92
		c18.891,27.952,36.699,56.638,54.828,85.1L700.29,337.519z"/>
</g>
<g id="Layer_2">
	<g>
		<path fill-rule="evenodd" clip-rule="evenodd" d="M641.664,252.65c2.374,6.343,6.093,10.233,12.916,12.404
			c15.903,5.061,30.874,12.271,42.653,24.687c8.18,8.622,12.927,18.752,13.383,30.767c0.164,4.326,1.21,8.722,0.714,12.952
			c-1.605,13.694,3.434,24.886,10.645,36.212c54.224,85.18,108.041,170.619,162.002,255.968
			c16.154,25.551,32.579,50.934,48.495,76.633c22.554,36.419,4.163,78.707-33.039,89.374c-6.712,1.924-14.11,2.003-21.192,2.008
			c-68.156,0.049-136.313-0.102-204.47-0.189c-0.825-0.001-1.651,0.076-2.822,0.135c-0.811,9.066-1.544,18.114-2.447,27.145
			c-0.909,9.093-1.583,18.236-3.106,27.231c-1.573,9.29-7.761,15.998-14.486,22.107c-17.403,15.808-38.617,23.658-61.102,28.349
			c-28.388,5.92-57.111,9.569-86.163,7.938c-29.008-1.629-58.077-3.537-85.932-12.921c-16.532-5.569-31.779-13.6-44.486-25.78
			c-9.801-9.395-14.376-20.903-14.934-34.663c-0.529-13.049-2.782-26.028-4.331-39.512c-2.56,0-4.352,0-6.144,0
			c-68.49-0.007-136.981-0.028-205.472-0.011c-21.863,0.006-38.655-9.715-49.756-27.979c-12.756-20.988-11.443-43.275,1.26-63.326
			c55.202-87.133,111.206-173.758,166.899-260.579c17.936-27.96,35.644-56.066,53.853-83.847c3.931-5.997,4.074-11.848,3.546-18.422
			c-0.717-8.908-2.083-18.048-0.863-26.765c2.119-15.155,12.853-24.894,24.581-33.64c10.479-7.813,22.515-11.863,34.795-15.405
			c3.93-1.134,6.46-3.278,8.625-6.749c20.482-32.832,40.805-65.771,61.857-98.235c13.003-20.053,32.076-31.137,55.932-34.155
			c22.56-2.854,42.942,2.035,60.658,16.407c4.859,3.943,9.218,8.703,13.05,13.672c7.511,9.735,14.631,19.784,21.601,29.918
			c2.063,3.001,3.637,3.081,6.815,1.781c18.366-7.51,36.407-16.367,55.434-21.557c18.26-4.98,37.533-6.494,56.457-8.709
			c17.298-2.025,22.851,2.873,23.24,20.48c0.344,15.466-0.425,30.963-0.927,46.438c-0.164,5.052-4.797,9.654-11.005,10.63
			c-12.294,1.933-24.661,3.396-36.996,5.063c-14.974,2.022-29.775,4.741-43.714,10.908c-1.665,0.737-3.303,1.542-4.929,2.362
			C642.327,251.992,641.986,252.386,641.664,252.65z M515.46,277.342c-8.19-0.627-16.127-1.637-24.078-1.771
			c-31.546-0.531-62.709,2.997-93.431,10.051c-14.871,3.414-29.416,7.802-42.269,16.674c-8.427,5.815-12.744,13.37-12.158,23.525
			c0.995,17.268,2.103,34.53,3.314,51.784c1.118,15.932,2.453,31.849,3.658,47.774c1.167,15.431,2.175,30.875,3.464,46.296
			c1.386,16.566,3.073,33.107,4.523,49.669c1.263,14.418,2.365,28.851,3.563,43.273c1.471,17.733,2.962,35.465,4.454,53.197
			c1.479,17.569,2.934,35.142,4.463,52.708c1.472,16.895,3.008,33.784,4.547,50.674c1.434,15.732,2.736,31.48,4.408,47.188
			c2.022,18.997,5.016,37.913,6.383,56.951c1.149,16.004,8.729,26.577,22.642,33.58c20.131,10.134,41.494,15.697,63.854,17.497
			c21.745,1.752,43.472,2.609,65.348,1.31c27.661-1.643,54.07-7.37,79.41-18.7c11.199-5.008,19.093-12.485,20.91-24.556
			c3.159-20.984,5.631-42.082,7.959-63.18c1.805-16.359,2.959-32.791,4.386-49.191c1.57-18.055,3.156-36.107,4.673-54.167
			c1.225-14.589,2.33-29.188,3.536-43.778c1.466-17.734,3.003-35.464,4.467-53.198c1.465-17.736,2.858-35.478,4.319-53.213
			c1.543-18.73,3.139-37.456,4.691-56.186c1.141-13.759,2.206-27.523,3.381-41.279c1.5-17.565,3.068-35.125,4.621-52.686
			c1.128-12.755,1.937-25.551,3.562-38.242c0.815-6.365,0.235-12.174-3.909-16.85c-3.578-4.035-7.708-8.037-12.398-10.554
			c-20.633-11.068-42.706-17.834-66.017-20.475c-2.848-0.323-4.625,0.259-5.687,3.217c-1.609,4.483-3.641,8.815-5.487,13.201
			c6.278,0.906,12.309,1.177,17.998,2.712c15.938,4.303,31.789,8.953,47.524,13.942c2.231,0.707,4.972,4.019,5.037,6.198
			c0.068,2.302-2.262,5.606-4.463,6.857c-4.993,2.839-10.411,5.128-15.903,6.86c-27.546,8.694-55.946,12.373-84.68,14.236
			c-34.115,2.212-68.165,3.04-102.226-1.069c-28.2-3.402-56.188-7.581-82.744-18.25c-2.151-0.864-5.358-3.235-5.253-4.705
			c0.206-2.898,1.721-6.488,3.925-8.268c2.971-2.397,6.981-3.778,10.756-4.868c36.253-10.458,73.181-16.332,111.004-16.06
			c17.281,0.124,17.283,0.021,23.656-16.214C515.309,278.968,515.288,278.623,515.46,277.342z M713.914,183.049
			c-14.901,2.628-28.778,4.186-42.176,7.618c-30.013,7.69-58.876,18.284-83.107,38.588c-20.507,17.184-36.26,38.393-50.615,60.682
			c-8.246,12.804-11.455,27.617-15.91,42.401c4.791,0.72,9.042,1.274,13.261,2.014c5.13,0.897,8.234-0.952,10.719-5.726
			c5.654-10.863,11.57-21.629,18.065-32.005c7.747-12.376,15.916-24.516,24.479-36.34c4.93-6.808,10.086-14.047,16.742-18.888
			c14.998-10.908,31.02-20.378,48.979-25.963c17.357-5.397,35.112-8.419,53.271-8.871c3.462-0.087,5.236-0.972,5.323-4.688
			C713.074,196.262,713.504,190.658,713.914,183.049z"/>
		<path fill-rule="evenodd" clip-rule="evenodd" d="M364.566,347.639c12.731,3.674,25.031,8.29,37.75,10.636
			c18.08,3.335,36.412,5.672,54.739,7.209c23.209,1.946,46.522,3.697,69.789,3.685c44.403-0.025,88.058-5.648,129.696-22.337
			c1.065-0.427,2.203-0.673,4.124-1.248c-0.401,3.057-0.875,5.705-1.08,8.375c-1.731,22.554-3.39,45.113-5.12,67.667
			c-1.526,19.901-3.216,39.791-4.653,59.699c-1.547,21.408-2.766,42.84-4.347,64.246c-1.409,19.072-3.135,38.121-4.688,57.183
			c-1.12,13.758-2.137,27.523-3.288,41.278c-1.498,17.893-3.06,35.78-4.639,53.667c-1.417,16.061-2.877,32.118-4.354,48.173
			c-0.669,7.285-1.173,14.6-2.22,21.832c-0.819,5.658-4.076,10.073-8.68,13.498c-10.896,8.106-23.573,12.053-36.481,15.155
			c-32.496,7.808-65.373,8.968-98.557,5.382c-19.553-2.112-38.607-6.009-56.925-13.208c-3.382-1.329-6.56-3.172-9.849-4.742
			c-9.866-4.711-13.983-12.434-14.508-23.436c-0.688-14.417-2.99-28.752-4.418-43.14c-1.248-12.571-2.228-25.169-3.361-37.751
			c-1.567-17.385-3.228-34.76-4.736-52.148c-1.495-17.228-2.814-34.47-4.279-51.698c-1.479-17.394-3.053-34.777-4.566-52.168
			c-1.485-17.063-2.901-34.132-4.433-51.191c-1.515-16.882-3.19-33.749-4.692-50.632c-1.827-20.532-3.555-41.072-5.304-61.61
			C365.113,355.62,364.831,351.219,364.566,347.639z M615.513,569.512c-5.082,0-9.71,0.037-14.337-0.01
			c-4.898-0.05-6.359-1.851-4.677-6.565c1.096-3.073,2.925-5.919,4.653-8.727c6.51-10.578,11.854-21.513,11.606-34.375
			c-0.224-11.661,0.052-23.348-0.654-34.978c-0.67-11.041-2.326-22.023-3.526-32.825c-9.559-1.372-47.293,12.022-72.542,25.417
			c1.775,9.483-0.728,18.571-4.048,27.468c-0.627,1.68-2.3,3.927-3.697,4.085c-1.34,0.151-3.518-1.77-4.334-3.307
			c-2.768-5.206-5.094-10.647-7.632-16.09c-0.015-0.005-0.224-0.145-0.318-0.09c-18.572,10.813-34.173,24.146-39.637,46.246
			c-0.427,1.727-2.087,3.148-3.174,4.712c-1.533-1.112-3.53-1.919-4.51-3.397c-2.445-3.695-4.429-7.696-6.775-11.894
			c-11.716,10.102-22.327,20.806-24.299,36.686c-1.489,11.989-1.456,24.167-2.097,36.261c-0.131,2.487,0.097,5.051-0.436,7.447
			c-1.377,6.207-4.819,7.525-10.129,4.046c-2.016-1.321-3.857-2.906-6.153-4.657c-1.022,10.927,0.194,21.032,3.295,30.923
			c4.745,15.135,11.114,29.437,21.185,41.913c6.666,8.258,6.492,17.361,2.668,26.779c-1.493,3.678-3.35,7.339-4.017,11.186
			c-0.771,4.453-0.924,9.163-0.39,13.648c0.44,3.698,3.468,5.301,7.37,5.228c3.788-0.071,5.816-2.027,6.838-5.376
			c0.966-3.164,1.685-6.411,2.777-9.528c4.977-14.184,13.028-19.591,27.959-18.231c8.238,0.751,16.383,2.496,24.614,3.375
			c12.423,1.327,24.25-0.646,35.435-7.334c-1.418-1.08-2.577-1.761-3.479-2.69c-2.242-2.308-4.366-4.728-6.538-7.103
			c2.815-1.482,5.487-3.409,8.47-4.372c14.021-4.524,26.503-11.499,36.506-22.438c5.295-5.791,9.399-12.291,10.199-20.754
			c-2.052,0.12-3.677,0.282-5.303,0.298c-5.351,0.052-7.583-2.687-5.64-7.636c1.059-2.696,3.208-4.985,4.971-7.381
			c8.063-10.954,16.388-21.725,24.167-32.876C614.571,585.875,614.922,577.797,615.513,569.512z M516.837,384.112
			c-7.013,1.241-12.107,3.422-15.461,8.374c-3.253,4.802-6.577,9.658-9.017,14.889c-12.218,26.199-34.129,41.93-58.768,54.585
			c-5.352,2.749-11.482,4.285-17.436,5.474c-6.378,1.273-12.97,1.477-19.761,2.178c2.043,6.659,7.646,8.629,13.268,9.772
			c18.649,3.792,36.163-0.741,52.175-9.829c28.963-16.438,45.568-42.343,53.559-74.165
			C516.226,392.088,516.287,388.594,516.837,384.112z M411.887,426.157c-0.822-10.985-1.594-21.433-2.393-31.878
			c-0.435-5.677-2.726-8.004-7.563-7.768c-5.498,0.27-8.409,3.042-8.321,8.438c0.073,4.481,0.529,8.961,0.92,13.432
			c0.983,11.262,1.964,22.524,3.117,33.769c0.15,1.466,0.946,3.507,2.073,4.113c3.71,1.998,9.838-0.928,10.644-5.269
			C411.297,435.967,411.444,430.794,411.887,426.157z"/>
		<path fill-rule="evenodd" clip-rule="evenodd" d="M404.203,797.512c7.48,4.027,13.594,8.109,20.273,10.764
			c17.993,7.15,36.997,10.352,56.158,12.084c14.56,1.316,29.28,2.591,43.833,1.888c25.824-1.249,51.682-3.549,76.194-12.851
			c7.537-2.859,14.713-6.673,23.717-10.814c-1.558,9.318-2.967,17.324-4.221,25.354c-1.832,11.729-7.939,18.85-19.729,22.677
			c-20.948,6.801-42.165,11.333-64.104,13.08c-34.852,2.773-69.059-0.681-102.413-10.871c-26.489-8.094-23.457-9.516-28.327-35.131
			C404.634,808.688,404.685,803.493,404.203,797.512z"/>
	</g>
</g>
</svg>
