<?xml version="1.0" encoding="utf-8"?>
<!-- Generator: Adobe Illustrator 16.0.0, SVG Export Plug-In . SVG Version: 6.00 Build 0)  -->
<!DOCTYPE svg PUBLIC "-//W3C//DTD SVG 1.1//EN" "http://www.w3.org/Graphics/SVG/1.1/DTD/svg11.dtd">
<svg version="1.1" xmlns="http://www.w3.org/2000/svg" xmlns:xlink="http://www.w3.org/1999/xlink" x="0px" y="0px" width="1024px"
	 height="1024px" viewBox="0 0 1024 1024" enable-background="new 0 0 1024 1024" xml:space="preserve">
<g id="Layer_1" display="none">
	<path display="inline" fill-rule="evenodd" clip-rule="evenodd" d="M700.29,337.519c55.732,87.883,111.593,175.685,167.452,263.487
		c21.24,33.386,42.795,66.574,63.718,100.158c22.815,36.622,4.173,81.982-38.931,91.049c-2.899,0.609-5.971,0.545-8.962,0.549
		c-29.665,0.037-59.33,0.022-88.995,0.022c0-0.006,0-0.012,0-0.018c-30.499,0-60.997,0.055-91.495-0.06l-361.859,0.069
		c-65.663,0.011-131.326-0.041-196.989,0.089c-24.093,0.048-42.862-9.763-54.159-30.93c-11.075-20.751-9.03-42.013,3.421-61.657
		c31.511-49.713,63.545-99.094,95.246-148.687c46.741-73.122,93.461-146.259,139.793-219.64l63.959-90.916
		c16.837-26.534,33.911-52.919,50.735-79.462c16.295-25.708,39.892-38.659,69.947-38.838c26.772-0.159,49.159,10.511,64.305,32.92
		c18.891,27.952,36.699,56.638,54.828,85.1L700.29,337.519z"/>
</g>
<g id="Layer_2">
	<g>
		<path fill-rule="evenodd" clip-rule="evenodd" d="M614.641,786.647c-2.083,34.494-4.36,68.167-6.05,101.871
			c-0.853,17.034-8.754,28.502-23.351,35.225c-17.702,8.154-36.306,13.291-55.403,16.394c-29.178,4.74-58.603,3.973-87.944,3.125
			c-28.417-0.822-56.053-6.923-82.566-17.64c-6.25-2.526-12.068-6.699-17.416-11.012c-6.218-5.012-9.332-12.448-9.928-20.478
			c-1.364-18.381-2.125-36.81-3.316-55.205c-1.071-16.564-2.379-33.112-3.612-49.665c-0.052-0.692-0.392-1.361-0.811-2.743
			c-13.104,0-26.279-0.009-39.454,0.001c-58.078,0.04-116.157,0.263-174.232-0.121c-6.512-0.042-13.646-2.306-19.383-5.613
			c-17.541-10.111-22.443-28.896-12.024-46.679c8.659-14.775,18.455-28.848,28.003-43.047
			c61.342-91.221,122.754-182.389,184.146-273.574c1.107-1.644,2.007-3.527,3.392-4.867c6.843-6.62,7.764-14.917,7.228-24.019
			c-0.591-10.022-0.141-20.113-0.738-30.135c-1.256-21.094,9.133-34.942,26.25-43.287c11.622-5.664,24.411-8.729,36.618-13.138
			c1.957-0.707,4.16-1.952,5.298-3.641c36.461-54.092,72.896-108.203,109.111-162.472c11.109-16.648,34.701-24.738,52.541-16.315
			c5.14,2.427,9.922,7.098,13.284,11.928c25.93,37.259,51.541,74.757,77.109,112.286c23.007,33.77,45.834,67.671,68.82,101.633
			c3.415-1.089,3.285-3.862,2.96-7.186c-2.866-29.212-5.761-58.424-8.314-87.667c-2.411-27.599-5.608-55.204-6.277-82.865
			c-0.681-28.106,25.925-60.98,64.789-49.51c18.899,5.58,30.355,20.762,34.225,41.375c2.656,14.143-0.393,27.993-1.581,41.929
			c-1.781,20.895-3.888,41.758-5.854,62.636c-1.982,21.056-3.898,42.119-5.987,63.165c-0.537,5.415,2.531,9.757,7.822,9.523
			c3.477-0.153,5.744,1.191,6.124,4.458c1.073,9.25,6.454,16.375,10.442,24.197c7.015,13.759,10.056,28.304,4.674,43.171
			c-4.528,12.51-13.086,22.372-23.572,30.163c-4.117,3.059-8.651,5.515-13.611,8.634c7.455,10.845,14.919,21.58,22.262,32.405
			C833.638,561.45,888.814,643.12,944.36,724.521c9.966,14.604,10.732,29.086,3.506,44.648c-6.154,13.25-17.35,17.313-30.441,17.331
			c-40.829,0.052-81.66-0.09-122.49-0.066c-58.253,0.03-116.506,0.139-174.757,0.214
			C618.626,786.649,617.075,786.647,614.641,786.647z M578.584,397.847c13.002-2.684,13.002-2.684,13.092,9.571
			c0.002,0.365,0.006,0.731,0.006,1.096c0,15.107,0,30.213,0,46.634c7.934-3.854,15.214-6.925,21.977-10.939
			c2.225-1.319,4.257-5.006,4.416-7.732c1.009-17.318,1.49-34.67,2.089-52.012c0.128-3.715,0.019-7.439,0.019-11.488
			c-1.462,0.318-2.169,0.361-2.79,0.625c-36.054,15.278-74.246,18.555-112.447,20.114c-28.78,1.174-57.703,0.38-86.489-1.083
			c-19.215-0.977-38.465-3.758-57.389-7.45c-13.78-2.688-27.053-8.181-40.625-12.445c0.086-0.418-0.111,0.066-0.098,0.545
			c0.621,22.639,1.206,45.281,2.014,67.914c0.056,1.568,1.442,3.728,2.796,4.493c6.144,3.472,12.277,7.169,18.815,9.646
			c26.915,10.197,55.222,12.24,83.423,12.996c29.502,0.79,59.093,0.335,88.571-1.156c18.143-0.919,36.146-4.808,54.213-7.347
			c4.732-0.666,6.625-2.96,6.688-8.367C577.074,433.612,577.957,415.772,578.584,397.847z M320.28,468.52
			c-2.203,22.954-1.453,45.557,1.667,67.981c2.829,20.337,7.625,40.401,9.983,60.78c2.934,25.343,4.418,50.874,6.223,76.347
			c1.407,19.848,2.279,39.736,3.513,59.597c1.596,25.69,3.279,51.376,4.994,77.058c1.751,26.223,3.555,52.441,5.407,78.657
			c0.498,7.069,3.755,12.471,9.892,15.744c3.26,1.741,6.569,3.464,10.012,4.746c25.372,9.45,51.865,12.709,78.521,13.99
			c30.958,1.487,61.942,0.487,92.329-6.531c11.865-2.739,23.372-7.376,34.806-11.805c6.417-2.485,9.56-8.113,9.956-15.41
			c0.614-11.3,1.476-22.586,2.266-33.876c1.645-23.484,3.405-46.961,4.942-70.452c1.645-25.137,3.052-50.29,4.625-75.432
			c1.607-25.687,3.086-51.384,5.017-77.047c1.229-16.353,2.696-32.721,4.926-48.953c2.989-21.775,7.881-43.316,9.953-65.163
			c1.661-17.497,0.336-35.299,0.336-53.76c-3.141,0.738-6.102,1.549-9.106,2.107c-3.126,0.582-4.631,2.133-4.062,5.602
			c0.294,1.788,0.156,3.649,0.309,5.467c1.862,22.172-0.148,44.046-4.157,65.849c-3.581,19.474-7.452,38.955-9.654,58.619
			c-2.474,22.096-3.293,44.394-4.7,66.613c-2.09,32.979-4.122,65.962-6.07,98.952c-1.732,29.341-3.643,58.681-4.745,88.05
			c-0.283,7.565-3.303,11.204-9.412,13.459c-0.989,0.366-1.936,0.854-2.918,1.246c-23.134,9.234-47.315,13.319-71.851,15.4
			c-23.933,2.03-47.798,0.927-71.468-3.269c-17.822-3.159-35.312-7.517-51.7-15.955c-5.538-2.851-7.538-6.814-7.658-12.874
			c-0.172-8.76-0.793-17.513-1.314-26.263c-1.281-21.505-2.638-43.006-3.921-64.511c-1.283-21.504-2.468-43.016-3.779-64.518
			c-1.51-24.777-2.809-49.576-4.775-74.317c-1.385-17.423-2.621-34.993-5.89-52.091c-5.861-30.643-11.719-61.118-9.955-92.633
			C333.494,467.88,332.974,467.849,320.28,468.52z M455.051,375.455c48.899-0.997,85.307-1.246,121.287-7.818
			c13.873-2.534,27.343-6.482,39.223-14.792c4.603-3.221,5.143-5.319,1.008-8.958c-4.488-3.95-9.536-7.531-14.87-10.074
			c-27.439-13.075-57.059-16.254-86.577-18.452c-23.46-1.746-47.102-1.677-70.643-1.235c-30.758,0.579-61.312,3.921-91.17,12.125
			c-9.819,2.698-19.669,5.7-27.057,13.7c-7.227,7.824-6.806,10.953,2.481,15.45c18.32,8.871,37.948,13.264,57.802,15.299
			C413.444,373.458,440.517,374.498,455.051,375.455z M412.826,858.54c-0.972-22.911-1.907-44.785-2.825-66.659
			c-0.819-19.525-1.584-39.055-2.437-58.578c-1.266-29.01-2.873-58.006-3.812-87.025c-1.052-32.511-4.381-64.731-9.994-96.708
			c-3.555-20.257-7.995-40.382-6.524-61.24c0.093-1.325-2.111-3.755-3.587-4.1c-5.116-1.197-10.398-1.589-15.584-2.5
			c-3.747-0.659-5.348,0.624-5.738,4.687c-1.948,20.282-1.759,40.56,1.854,60.549c4.862,26.894,8.942,53.867,10.8,81.158
			c2.306,33.869,4.467,67.751,6.423,101.643c1.967,34.08,3.624,68.178,5.378,102.271c0.491,9.539,4.306,16.827,12.91,20.867
			C403.809,854.836,408.043,856.499,412.826,858.54z M720.326,299.157c-0.304-5.232-0.614-9.951-0.849-14.675
			c-1.001-20.234-2.011-40.467-2.956-60.704c-0.825-17.687-1.889-35.37-2.244-53.067c-0.285-14.13,11.713-22.598,24.641-18.049
			c8.802,3.098,13.329,11.148,12.555,22.679c-1.089,16.198-2.336,32.385-3.433,48.582c-1.639,24.208-3.254,48.418-4.701,72.638
			c-0.102,1.707,1.259,3.509,1.938,5.268c0.568-0.16,1.136-0.318,1.704-0.478c1.384-14.837,2.804-29.673,4.143-44.516
			c1.653-18.335,3.313-36.669,4.829-55.017c0.99-11.984,2.328-23.988,2.393-35.989c0.052-9.555-2.964-18.775-11.569-23.802
			c-11.251-6.575-23.212-7.153-34.571-0.186c-11.519,7.067-15.44,18.321-14.205,31.761c1.819,19.785,3.778,39.556,5.565,59.344
			c1.559,17.244,2.932,34.506,4.452,51.753c0.472,5.337,1.159,10.654,1.73,15.815C713.591,300.021,716.68,299.625,720.326,299.157z
			 M640.528,427.509c0.776,0.238,1.103,0.427,1.428,0.424c11.083-0.093,22.165-0.184,33.247-0.317
			c18.485-0.222,30.117,7.513,35.962,25.631c6.105,18.93,11.235,38.202,16.688,57.356c3.653,12.835,3.572,12.856,16.28,11.777
			c1.554-0.132,3.111-0.211,4.898-0.33c0-0.939,0.169-1.692-0.024-2.325c-7.916-25.963-15.377-52.093-24.018-77.794
			c-4.313-12.828-14.535-20.36-27.149-23.729c-18.803-5.022-37.988-2.923-57.312-3.372
			C640.528,419.362,640.528,423.306,640.528,427.509z M703.341,397.394c-0.579-2.082-1.182-3.794-1.523-5.562
			c-2.104-10.91,1.417-16.539,11.759-18.613c3.083-0.619,6.237-0.994,9.375-1.149c10.358-0.512,20.736-0.67,31.08-1.396
			c3.893-0.273,6.123,1.144,8.259,4.308c10.364,15.352,4.622,43.615-20.416,49.514c0.359,0.672,0.621,1.324,1.02,1.869
			c0.738,1.009,1.557,1.957,2.194,2.747c11.677-3.615,18.22-9.23,23.985-20.333c8.986-17.307,5.664-35.225-8.708-46.959
			c-14.24-11.629-44.121-11.159-57.809,1.122c-8.073,7.245-11.378,16.111-8.572,27.383
			C695.331,395.735,697.708,398.116,703.341,397.394z M676.104,372.542c-12.167,0-23.833,0-35.283,0c0,6.927,0,13.427,0,20.127
			c11.411,0,22.419,0,33.17,0C674.701,385.909,675.383,379.423,676.104,372.542z M745.619,319.159
			c-12.01,3.215-23.188,3.66-34.723-0.502c0.365,5.825,0.687,10.949,0.957,15.274c11.32-0.797,22.031-1.55,32.758-2.305
			C744.916,327.861,745.235,323.919,745.619,319.159z"/>
		<path fill-rule="evenodd" clip-rule="evenodd" d="M575.315,886.969c-2.55,2.046-4.822,5.121-7.7,5.96
			c-13.775,4.014-27.59,8.105-41.625,10.906c-30.558,6.1-61.506,6.225-92.444,4.413c-20.342-1.191-40.385-4.709-59.901-10.939
			c-10.023-3.2-11.806-6.118-10.708-16.292c19.014,12.949,40.564,17.702,62.379,21.242c23.7,3.847,47.559,4.208,71.478,2.127
			c21.029-1.832,41.754-5.132,61.714-12.507c5.252-1.94,10.354-4.315,15.526-6.492C574.461,885.914,574.889,886.441,575.315,886.969
			z"/>
	</g>
</g>
</svg>
