<?xml version="1.0" encoding="utf-8"?>
<!-- Generator: Adobe Illustrator 16.0.0, SVG Export Plug-In . SVG Version: 6.00 Build 0)  -->
<!DOCTYPE svg PUBLIC "-//W3C//DTD SVG 1.1//EN" "http://www.w3.org/Graphics/SVG/1.1/DTD/svg11.dtd">
<svg version="1.1" xmlns="http://www.w3.org/2000/svg" xmlns:xlink="http://www.w3.org/1999/xlink" x="0px" y="0px" width="1024px"
	 height="1024px" viewBox="0 0 1024 1024" enable-background="new 0 0 1024 1024" xml:space="preserve">
<g id="Layer_1" display="none">
	<path display="inline" fill-rule="evenodd" clip-rule="evenodd" d="M700.29,337.519c55.732,87.883,111.593,175.685,167.452,263.487
		c21.24,33.386,42.795,66.574,63.718,100.158c22.815,36.622,4.173,81.982-38.931,91.049c-2.899,0.609-5.971,0.545-8.962,0.549
		c-29.665,0.037-59.33,0.022-88.995,0.022c0-0.006,0-0.012,0-0.018c-30.499,0-60.997,0.055-91.495-0.06l-361.859,0.069
		c-65.663,0.011-131.326-0.041-196.989,0.089c-24.093,0.048-42.862-9.763-54.159-30.93c-11.075-20.751-9.03-42.013,3.421-61.657
		c31.511-49.713,63.545-99.094,95.246-148.687c46.741-73.122,93.461-146.259,139.793-219.64l63.959-90.916
		c16.837-26.534,33.911-52.919,50.735-79.462c16.295-25.708,39.892-38.659,69.947-38.838c26.772-0.159,49.159,10.511,64.305,32.92
		c18.891,27.952,36.699,56.638,54.828,85.1L700.29,337.519z"/>
</g>
<g id="Layer_2">
	<g>
		<path fill-rule="evenodd" clip-rule="evenodd" d="M677.647,790.501c11.703,34.027-6.899,61.329-31.834,77.115
			c-20.473,12.961-43.215,19.962-66.675,24.829c-35.608,7.387-71.651,8.681-107.779,5.877c-32.523-2.523-64.526-8.006-94.502-21.815
			c-17.194-7.922-32.425-18.409-42.634-34.845c-9.609-15.472-12.683-31.905-6.307-49.482c0.159-0.438,0.147-0.938,0.255-1.678
			c-2.124,0-4.115,0-6.106,0c-60.161-0.001-120.324,0.025-180.486-0.021c-16.775-0.014-32.37-3.915-45.094-15.53
			c-21.908-20-25.565-49.358-9.195-74.53c26.717-41.082,53.702-81.989,80.446-123.054c60.645-93.118,121.234-186.271,181.8-279.441
			c33.764-51.939,67.425-103.945,101.147-155.911c11.758-18.118,27.146-31.336,48.959-35.564
			c25.93-5.027,48.419,2.076,65.803,21.666c9.965,11.229,18.002,24.256,26.271,36.891
			C670.119,284.815,748.348,404.74,826.71,524.576c37.363,57.139,74.889,114.172,112.384,171.224
			c7.43,11.305,12.609,23.189,12.477,37.122c-0.251,26.478-19.685,50.607-45.705,55.463c-7.796,1.455-15.861,2.01-23.806,2.028
			c-65.994,0.155-131.989,0.088-197.984,0.088C682.084,790.501,680.093,790.501,677.647,790.501z M511.627,485.224
			c-32.444,1.486-61.922,2.228-91.297,4.369c-24.482,1.785-48.907,4.75-73.235,8.087c-14.44,1.98-28.567,5.899-41.236,13.719
			c-10.18,6.284-16.344,14.451-15.479,27.339c1.437,21.4,1.298,42.929,3.3,64.266c2.636,28.096,7.943,55.742,18.885,82.049
			c11.769,28.295,24.732,55.915,44.926,79.371c10.638,12.356,21.966,24.116,32.77,36.333c1.848,2.09,3.596,5.102,3.669,7.735
			c0.114,4.123,1.378,7.286,4.593,9.384c3.858,2.519,7.862,5.062,12.157,6.621c19.443,7.061,39.63,10.67,60.227,12.189
			c30.961,2.285,61.869,2.506,92.514-3.246c14.992-2.813,29.757-6.614,43.181-14.346c3.27-1.884,5.018-4.284,5.448-8.222
			c0.354-3.23,1.361-6.771,3.21-9.371c3.065-4.309,6.947-8.062,10.646-11.892c18.98-19.655,37.41-39.721,50.099-64.296
			c0.668-1.295,2.604-2.51,4.086-2.701c4.612-0.597,9.309-1.102,13.938-0.891c17.653,0.806,34.011-4.03,50.29-10.204
			c24.43-9.265,42.246-26.344,56.025-47.608c11.384-17.568,12.899-37.927,10.689-58.162c-1.778-16.28-9.663-29.883-23.334-39.575
			c-10.009-7.096-21.578-9.343-33.46-9.554c-11.641-0.206-23.304,0.402-34.944,0.934c-3.918,0.179-4.935-1.267-4.615-4.896
			c0.481-5.465,0.484-10.971,0.931-16.439c0.619-7.573-2.36-13.589-7.614-18.711c-10.102-9.848-22.869-14.474-36.09-17.948
			c-21.771-5.724-44.09-7.791-66.479-9.094C573.191,488.587,540.951,486.854,511.627,485.224z M446.503,449.577
			c0,0.287,0,1.787-0.001,3.286c-0.001,7.373,2.966,11.014,9.467,11.615c7.375,0.682,12.174-2.229,12.477-9.521
			c0.368-8.875-0.235-17.925-1.629-26.707c-2.188-13.795-9.791-25.159-18.139-36.065c-18.125-23.678-18.316-46.884-0.763-70.856
			c3.534-4.826,7.414-9.422,10.666-14.429c19.127-29.453,16.371-55.783-3.769-83.485c-1.439-1.979-3.366-3.756-5.407-5.113
			c-4.737-3.148-10.084-2.179-14.408,2.252c-3.79,3.885-3.897,7.736-0.322,12.901c0.756,1.091,1.593,2.128,2.418,3.17
			c14.79,18.668,15.675,38.587,2.43,58.37c-3.326,4.969-7.029,9.686-10.583,14.5c-12.891,17.46-18.579,36.763-15.522,58.516
			c2.064,14.686,9.208,26.777,18.188,38.101C441.404,418.469,447.037,432.345,446.503,449.577z M612.584,267.592
			c0.487-18.889-9.188-35.141-18.778-47.104c-1.276-1.592-3.821-2.799-5.897-3.01c-9.447-0.963-15.041,6.701-11.258,15.467
			c2.031,4.705,4.871,9.055,7.212,13.634c9.003,17.611,7.823,34.514-3.73,50.611c-3.102,4.32-6.316,8.56-9.51,12.813
			c-22.135,29.483-23.231,64.401,0.232,93.069c6.968,8.514,13.231,17.661,15.061,28.8c1.098,6.688,1.104,13.562,1.48,20.358
			c0.418,7.543,4.591,11.549,12.546,11.845c5.224,0.194,10.503-5.017,10.121-11.459c-0.607-10.233-1.594-20.519-3.483-30.583
			c-2.53-13.473-11.208-23.858-19.396-34.307c-9.746-12.436-13.015-26.32-9.639-41.684c2.839-12.917,10.978-22.915,18.932-32.923
			C607.099,299.755,612.141,284.5,612.584,267.592z M483.443,357.741c-0.047,17.3,4.486,31.864,14.783,43.778
			c13.383,15.486,20.712,32.659,19.306,53.284c-0.302,4.434,2.453,7.082,6.128,8.811c3.875,1.822,7.524,0.922,10.734-1.644
			c3.975-3.178,5.039-7.655,5.088-12.477c0.221-21.922-5.712-41.716-20.739-58.137c-18.789-20.532-16.141-50.332,0.088-69.736
			c3.095-3.701,6.235-7.371,9.18-11.19c9.573-12.417,16.206-26.108,15.271-42.156c-0.924-15.865-6.683-30.33-15.25-43.63
			c-1.484-2.304-3.585-4.454-5.878-5.941c-5.063-3.286-9.51-2.865-13.229,0.619c-3.769,3.53-4.623,8.653-2.001,13.688
			c2.222,4.268,4.774,8.362,7.084,12.586c9.718,17.768,9.034,34.921-3.209,51.308c-2.389,3.197-4.889,6.322-7.509,9.332
			C490.071,321.423,483.895,339.215,483.443,357.741z"/>
		<path fill-rule="evenodd" clip-rule="evenodd" d="M313.29,563.254c11.776,2.919,22.865,6.382,34.215,8.317
			c18.623,3.176,37.359,5.892,56.146,7.854c41.134,4.294,82.448,4.909,123.748,3.939c25.95-0.609,51.884-2.278,77.799-3.893
			c25.722-1.603,51.079-5.676,75.837-13.023c3.627-1.076,7.138-2.547,11.43-4.098c0,4.559,0.508,8.963-0.086,13.214
			c-3.139,22.508-5.48,45.202-10.107,67.413c-8.592,41.24-26.271,78.654-53.473,110.901c-14.864,17.621-30.453,34.804-50.04,47.782
			c-10.868,7.202-22.876,9.732-35.298,10.678c-15.917,1.212-31.938,2.446-47.854,1.904c-17.553-0.597-35.088-2.812-52.532-5.076
			c-9.652-1.253-17.349-7.376-24.677-13.39c-51.882-42.575-83.228-97.624-96.695-162.813c-4.552-22.031-5.922-44.721-8.712-67.114
			C312.895,565.079,313.164,564.262,313.29,563.254z M360.692,607.496c-9.011-0.055-13.826,5.852-11.874,14.688
			c1.143,5.172,2.525,10.291,3.678,15.461c5.772,25.907,13.918,50.86,30.411,72.186c7.619,9.853,15.713,19.363,24.016,28.65
			c4.711,5.269,11.831,5.527,16.608,1.574c5.107-4.229,5.967-11.037,1.87-17.011c-1.776-2.591-4.053-4.841-6.127-7.225
			c-13.702-15.75-26.252-32.315-32.951-52.368c-5.078-15.199-9.335-30.678-13.808-46.075
			C370.531,610.546,367.171,607.535,360.692,607.496z"/>
		<path fill-rule="evenodd" clip-rule="evenodd" d="M499.137,562.47c-29.923-1.808-63.497-3.609-97.035-5.938
			c-24.518-1.701-48.868-4.887-72.475-12.123c-4.369-1.34-8.516-3.559-12.568-5.737c-3.32-1.785-3.552-4.867-0.401-6.659
			c6.124-3.483,12.352-7.785,19.05-9.069c18.546-3.555,37.281-6.573,56.08-8.25c26.179-2.335,52.466-3.875,78.738-4.611
			c25.961-0.727,51.967-0.3,77.943,0.138c17.475,0.294,34.974,1.004,52.394,2.391c25.28,2.014,50.756,3.327,74.996,11.872
			c4.596,1.62,9.088,4.08,12.974,7.02c4.126,3.122,3.859,6.304-0.853,8.431c-6.738,3.042-13.792,5.704-20.979,7.378
			c-28.206,6.568-56.869,9.943-85.792,11.251C555.097,559.741,528.99,561.043,499.137,562.47z"/>
		<path fill-rule="evenodd" clip-rule="evenodd" d="M689.916,696.425c3.097-9.107,5.842-17.739,8.957-26.236
			c7.554-20.605,9.365-42.326,12.591-63.771c1.012-6.729,1.62-13.52,2.384-20.286c0.315-2.788,1.282-4.612,4.616-4.539
			c12.649,0.277,25.313,0.127,37.952,0.638c19.456,0.787,30.959,15.602,30.61,34.769c-0.141,7.729-1.767,15.474-3.165,23.129
			c-2.479,13.563-11.402,22.955-21.266,31.629c-19.882,17.483-43.41,24.989-69.538,25.316
			C692.27,697.083,691.479,696.758,689.916,696.425z"/>
	</g>
</g>
</svg>
