<?xml version="1.0" encoding="utf-8"?>
<!-- Generator: Adobe Illustrator 16.0.0, SVG Export Plug-In . SVG Version: 6.00 Build 0)  -->
<!DOCTYPE svg PUBLIC "-//W3C//DTD SVG 1.1//EN" "http://www.w3.org/Graphics/SVG/1.1/DTD/svg11.dtd">
<svg version="1.1" xmlns="http://www.w3.org/2000/svg" xmlns:xlink="http://www.w3.org/1999/xlink" x="0px" y="0px" width="1024px"
	 height="1024px" viewBox="0 0 1024 1024" enable-background="new 0 0 1024 1024" xml:space="preserve">
<g id="Layer_1" display="none">
	<path display="inline" fill-rule="evenodd" clip-rule="evenodd" d="M700.29,337.519c55.732,87.883,111.593,175.685,167.452,263.487
		c21.24,33.386,42.795,66.574,63.718,100.158c22.815,36.622,4.173,81.982-38.931,91.049c-2.899,0.609-5.971,0.545-8.962,0.549
		c-29.665,0.037-59.33,0.022-88.995,0.022c0-0.006,0-0.012,0-0.018c-30.499,0-60.997,0.055-91.495-0.06l-361.859,0.069
		c-65.663,0.011-131.326-0.041-196.989,0.089c-24.093,0.048-42.862-9.763-54.159-30.93c-11.075-20.751-9.03-42.013,3.421-61.657
		c31.511-49.713,63.545-99.094,95.246-148.687c46.741-73.122,93.461-146.259,139.793-219.64l63.959-90.916
		c16.837-26.534,33.911-52.919,50.735-79.462c16.295-25.708,39.892-38.659,69.947-38.838c26.772-0.159,49.159,10.511,64.305,32.92
		c18.891,27.952,36.699,56.638,54.828,85.1L700.29,337.519z"/>
</g>
<g id="Layer_2">
	<path fill-rule="evenodd" clip-rule="evenodd" d="M434.088,792.443c-4.061,0-8.218,0-12.375,0
		c-83.828-0.013-167.656-0.049-251.484-0.021c-21.312,0.007-38.178-7.904-46.881-28.104c-6.364-14.771-5.46-29.663,3.371-43.768
		c43.333-69.209,86.555-138.488,129.821-207.74c3.157-5.055,6.343-10.093,9.733-15.486c-10.325-4.996-14.67-14.26-16.488-24.886
		c-1.37-8.003,1.031-15.438,5.073-22.359c7.947-13.613,27.477-22.774,48.993-11.497c4.218-6.6,8.529-13.208,12.704-19.9
		c22.315-35.773,44.698-71.506,66.806-107.406c4.639-7.532,10.414-11.534,19.474-11.074c8.242,0.419,16.522,0.089,25.309,0.089
		c-2.396-4.6-4.518-8.867-6.858-13.012c-0.468-0.828-1.726-1.604-2.689-1.7c-26.371-2.643-43.282-17.903-53.857-41.016
		c-4.114-8.994-6.54-18.746-10.32-27.911c-3.649-8.847-6.752-18.373-12.428-25.825c-8.768-11.513,0.806-25.032,11.156-25.984
		c9.231-0.849,18.674-0.614,27.921,0.242c10.435,0.967,16.995,8.158,22.587,16.428c4.535,6.708,9.48,13.139,14.156,19.571
		c5.631-7.905,10.91-15.219,16.059-22.623c1.117-1.605,1.956-3.472,2.598-5.33c7.363-21.35,22.645-34.694,43.218-42.533
		c3.593-1.369,5.05-2.352,4.178-6.888c-2.293-11.932,8.179-24.992,21.635-28.194c16.116-3.836,35.129,2.9,38.807,27.438
		c0.206,1.379-0.415,2.881-0.734,4.837c3.59,1.612,7.337,3.228,11.027,4.963c14.889,7.001,26.856,17.106,33.839,32.348
		c1.616,3.527,3.21,4.219,7.655,3.992c14.85-0.757,29.934-2.539,44.526,2.475c18.062,6.206,28.598,22.834,27.432,43.341
		c-1.826,32.101-24.58,58.863-55.756,65.625c-0.896,0.194-2.104,0.516-2.508,1.179c-2.816,4.64-5.459,9.386-8.396,14.517
		c5.887,0,11.336,0.489,16.663-0.104c10.18-1.134,17.082,2.917,22.438,11.429c15.292,24.302,31.003,48.34,46.392,72.581
		c12.002,18.908,23.769,37.966,35.633,56.945c5.325-1.254,10.538-2.994,15.884-3.643c14.845-1.8,26.434,4.093,34.023,16.746
		c7.506,12.515,6.978,25.4-1.262,37.482c-2.337,3.428-6.131,5.863-9.861,9.313c13.496,21.495,27.452,43.725,41.571,66.213
		c19.611-1.954,33.294,18.948,26.764,36.392c-1.393,3.721-0.569,6.508,1.39,9.632c23.549,37.546,47.003,75.15,70.509,112.724
		c17.345,27.725-1.108,65.928-33.69,69.515c-5.938,0.654-11.948,0.915-17.926,0.92c-83.995,0.074-167.989,0.072-251.984,0.089
		c-1.643,0-3.284,0-5.231,0c-0.196,2.753-0.368,5.16-0.567,7.959c2.223,0.535,4.254,1.116,6.322,1.508
		c20.705,3.92,32.95,22.449,35.077,40.36c0.37,3.111,1.027,6.223,1.898,9.233c1.226,4.233,3.312,6.977,8.641,7.181
		c7.726,0.297,13.675,8.737,13.454,17.642c-0.189,7.637-7.644,16.085-15.05,16.063c-16.302-0.047-32.612-0.361-48.9-1.038
		c-7.504-0.312-13.015-4.086-15.768-11.626c-2.967-8.123-3.496-8.232-11.925-8.232c-35.498,0-70.996,0.086-106.493-0.102
		c-5.302-0.027-8.478,1.627-10.021,6.764c-2.426,8.062-8.213,12.711-16.402,13.032c-16.434,0.646-32.902,0.956-49.344,0.668
		c-8.395-0.147-12.872-5.701-13.521-14.184c-0.922-12.054,5.162-18.847,14.916-19.521c2.31-0.159,5.306-3.845,6.313-6.535
		c2.013-5.377,2.526-11.296,4.269-16.798c4.469-14.113,11.411-26.251,26.924-30.771c2.064-0.602,4.166-1.093,6.271-1.541
		C435.311,801.138,436.341,799.292,434.088,792.443z M454.89,480.746c-2.313-0.146-3.073-0.235-3.835-0.236
		c-23.499-0.008-47.001,0.166-70.497-0.137c-5.615-0.072-8.557,2.185-10.729,6.928c-10.424,22.763-17.995,46.15-18.989,71.522
		c-1.048,26.738,1.939,52.608,12.281,77.486c15.027,36.151,38.546,65.543,69.328,89.57c9.407,7.343,19.499,6.451,31.603,6.425
		c-2.109-2.914-3.155-4.911-4.695-6.395c-8.032-7.741-15.994-15.571-24.337-22.969c-33.881-30.039-56.159-66.274-61.771-112.011
		c-2.467-20.106-1.314-39.803,3.551-59.302c3.082-12.357,10.875-15.906,23.196-11.093c-1.606,11.209-3.653,22.459-4.765,33.801
		c-3.74,38.152,4.714,73.29,27.398,104.493c4.26,5.858,9.74,10.902,15.113,15.825c1.351,1.236,4.91,1.381,6.621,0.467
		c1.268-0.677,1.854-3.983,1.553-5.935c-0.471-3.052-1.835-5.994-3.019-8.902c-9.772-24.014-15.499-48.884-16.44-74.86
		c-1.074-29.685,5.466-57.984,15.415-85.621C444.359,492.896,445.439,484.756,454.89,480.746z M563.45,294.757
		c11.119-3.748,18.272-11.106,23.814-20.156c14.106-23.037,9.636-54.354-9.823-75.931c-6.726-7.458-14.111-10.731-23.973-10.263
		c-14.587,0.693-29.202,0.891-43.809,1.055c-11.652,0.13-23.348,0.451-34.951-0.352c-9.432-0.653-16.26,3.354-22.586,9.323
		c-2.542,2.399-5.117,4.792-7.413,7.418c-16.969,19.402-21.824,48.069-3.521,70.505c8.641,10.59,19.9,16.195,33.303,17.943
		c-2.636-7.419-5.344-14.349-7.565-21.431c-6.145-19.592-4.448-38.281,6.953-55.734c3.371-5.159,8.071-7.715,14.23-7.569
		c4.16,0.098,8.319,0.324,12.479,0.305c17.316-0.084,34.633-0.292,51.949-0.342c6.319-0.019,12.429,1.02,16.259,6.819
		c8.319,12.596,12.479,26.35,10.108,41.493C576.832,271.077,571.202,282.975,563.45,294.757z M625.858,872.496
		c0.025,0.423,0.081,0.202-0.005,0.099c-0.527-0.631-1.047-1.276-1.64-1.843c-5.087-4.865-8.407-10.128-8.115-17.853
		c0.273-7.245-1.435-14.517-6.265-20.545c-6.082-7.589-14.741-8.627-23.435-8.735c-10.136-0.127-20.28,0.796-30.422,0.84
		c-29.665,0.128-59.331,0.046-88.997,0.044c-1.5,0-3-0.029-4.5-0.029c-10.424,0.005-20.881-0.502-31.26,0.187
		c-8.195,0.543-14.395,5.461-17.308,13.152c-1.902,5.023-3.237,10.619-3.168,15.937c0.079,5.948-1.842,10.301-6.021,14.022
		c-1.717,1.529-3.578,2.895-5.872,4.733c7.895,0,14.481,0.071,21.065-0.016c11.644-0.155,9.317,1.907,13.501-9.329
		c3.866-10.383,11.011-17.122,22.326-17.697c11.626-0.592,23.301-0.251,34.954-0.301c24.83-0.104,49.661-0.382,74.489-0.228
		c16.112,0.101,23.964,5.866,29.825,20.721c0.486,1.232,0.774,2.776,1.685,3.557c1.573,1.351,3.527,3.058,5.386,3.139
		C610.006,872.693,617.951,872.496,625.858,872.496z M513.989,442.443c0,0.046,0,0.091,0,0.137
		c-34.659,0-69.318-0.049-103.978,0.022c-14.994,0.031-29.988,0.342-44.982,0.453c-4.056,0.03-7.133,1.147-8.274,5.536
		c-1.881,7.23,2.041,11.933,10.215,11.894c62.976-0.302,125.95-0.576,188.925-0.98c35.974-0.23,71.946-0.723,107.92-1.002
		c4.655-0.036,6.64-2.162,6.72-6.63c0.121-6.693-2.427-9.423-9.078-9.424C612.301,442.438,563.145,442.443,513.989,442.443z
		 M567.696,731.269c0.286,0.472,0.571,0.944,0.857,1.416c4.572-0.286,9.245-0.088,13.686-1.007c3.715-0.77,7.686-2.163,10.644-4.445
		c35.41-27.319,60.603-62.185,74.986-104.499c9.945-29.258,12.85-59.214,5.607-89.701c-3.752-15.793-7.962-31.405-14.92-46.168
		c-1.908-4.051-3.688-8.102-8.805-8.296c-6.736-0.256-13.489-0.063-20.418-0.063c1.563,1.904,3.188,3.74,4.648,5.699
		c1.582,2.12,3.202,4.249,4.479,6.555c18.575,33.564,23.847,69.433,16.724,106.826c-8.303,43.586-32.469,78.207-63.75,108.546
		C583.17,714.147,575.591,722.87,567.696,731.269z M393.596,420.601c19.031,0,37.312,0.085,55.592-0.016
		c59.426-0.328,118.852-0.713,178.276-1.147c1.664-0.013,3.322-0.83,4.982-1.272c-0.005-0.513-0.01-1.024-0.016-1.536
		c-1.991-1.055-3.93-2.231-5.985-3.142c-8.924-3.952-17.805-8.023-26.867-11.633c-3.602-1.435-7.634-2.512-11.472-2.518
		c-42.634-0.068-85.305,1.203-127.887-0.231c-22.506-0.758-42.198,3.631-60.127,16.834
		C398.019,417.467,395.907,418.944,393.596,420.601z M413.501,334.243c2.426,0,4.561,0.011,6.694-0.001
		c44.458-0.248,88.915-0.521,133.373-0.734c15.825-0.076,31.651-0.012,47.478-0.017c2.498,0,5.03,0.229,7.487-0.097
		c4.271-0.567,6.997-2.987,7.228-7.511c0.19-3.751-2.983-6.895-7.294-7.339c-1.319-0.136-2.663-0.046-3.995-0.04
		c-58.968,0.269-117.936,0.537-176.902,0.812C413.517,319.382,413.517,319.393,413.501,334.243z M336.979,516.768
		c-12.454-1.395-17.637-6.021-20.474-18.19c-2.019-8.661-3.151-17.642-6.198-25.921c-3.759-10.215-11-17.622-22.438-19.709
		c-6.382-1.164-14.396,3.27-17.462,9.785c-2.182,4.637-0.117,11.18,5.023,15.424c5.635,4.652,11.974,4.894,19.378,2.103
		c0,4.985,0.438,9.448-0.079,13.798c-1.901,15.98,0.231,30.561,13.434,41.557c6.045,5.034,12.67,8.869,20.693,8.817
		C331.626,534.997,334.271,525.989,336.979,516.768z M700.416,543.354c0.164,0.013,0.675,0.17,1.131,0.072
		c20.554-4.415,33.554-23.773,30.586-44.642c-0.883-6.215-0.136-12.661-0.136-19.258c2.465,0.715,4.175,1.314,5.931,1.702
		c8.079,1.784,16.857-3.813,19.09-12.119c1.657-6.161-3.522-13.427-11.321-15.806c-7.872-2.401-14.444,0.604-20.043,5.651
		c-9.55,8.606-12.554,20.203-14.274,32.461c-0.812,5.782-2.197,11.761-4.75,16.949c-2.842,5.777-8.952,7.148-15.444,6.595
		C694.362,524.734,697.362,533.96,700.416,543.354z M788.964,684.946c0-3.896-0.104-7.217,0.019-10.529
		c0.393-10.638-4.145-18.822-12.183-25.459c-9.312-7.689-20.644-9.002-31.849-9.217c-19.623-0.377-39.266,0.313-58.899,0.622
		c-1.431,0.021-3.606,0.092-4.154,0.954c-2.92,4.599-5.431,9.457-8.616,15.182c3.711,0,5.693,0.003,7.676-0.001
		c23.301-0.04,46.604-0.294,69.9-0.023c9.92,0.115,15.191,5.833,15.649,15.655c0.206,4.419,0.035,8.855,0.035,13.235
		c6.77,0,12.579,0.023,18.388-0.019C786.237,685.337,787.544,685.094,788.964,684.946z M445.717,754.602
		c-0.543,1.75-1.009,3.166-1.423,4.597c-1.868,6.448,0.233,9.297,6.854,9.297c41.936,0.002,83.872-0.054,125.808,0.078
		c4.552,0.015,5.774-1.894,5.692-5.976c-0.14-6.941-0.74-8.029-5.732-8.039c-12.148-0.024-24.297,0.037-36.444,0.041
		C509.027,754.607,477.584,754.602,445.717,754.602z M560.079,167.396c-19.372-28.252-75.871-27.319-93.848,2.285
		C497.604,168.557,528.798,171.404,560.079,167.396z M409.522,257.396c0-9.044,0.071-17.76-0.068-26.473
		c-0.024-1.478-0.668-3.139-1.519-4.377c-6.667-9.7-14.426-18.802-19.908-29.118c-4.743-8.925-13.419-13.178-23.224-11.62
		c5.848,12.347,11.743,24.862,17.701,37.349c3.848,8.064,7.499,16.242,11.778,24.073
		C397.499,253.112,402.66,256.801,409.522,257.396z M723.987,594.463c5.096,0.341,9.874,0.772,14.663,0.951
		c5.816,0.217,11.641,0.211,17.461,0.315c15.78,0.283,31.56,0.628,47.341,0.783c1.687,0.017,4.002-0.572,4.925-1.746
		c1.29-1.641,1.878-4.078,1.993-6.216c0.026-0.495-3.064-1.624-4.743-1.671c-15.97-0.45-31.947-0.651-47.914-1.185
		c-1.573-0.053-3.425-1.554-4.566-2.882c-3.037-3.532-6.331-6.258-11.272-6.41C731.666,576.087,725.588,581.939,723.987,594.463z
		 M607.112,192.913c7.245,11.405,11.268,22.775,12.735,35.155c0.581,4.906,2.378,9.668,3.677,14.71
		c10.926-5.144,15.682-14.367,17.17-28.18c0.911-8.459-0.987-14.768-8.556-18.813C624.492,191.699,616.278,192.193,607.112,192.913z
		 M482.222,355.956c-13.862-0.583-27.187-1.144-40.674-1.71c-0.732,7.651-1.454,15.182-2.25,23.492c14.61,0,28.745,0,42.924,0
		C482.222,370.573,482.222,363.464,482.222,355.956z M456.412,804.142c12.762,0,25.319,0,37.771,0
		c-0.435-6.256-0.848-12.182-1.269-18.238c-10.122-0.703-19.987-1.388-29.451-2.044C461.111,790.627,458.798,797.28,456.412,804.142
		z M571.971,352.404c-0.867,8.791-1.656,16.799-2.46,24.946c4.655-0.271,9.615-0.795,14.573-0.765
		c3.336,0.021,4.541-1.31,4.364-4.407c-0.349-6.086-0.687-12.173-1.037-18.392C581.94,353.298,577.035,352.858,571.971,352.404z
		 M752.412,609.951c-9.595,0-18.856,0-28.14,0c-0.749,7.877,6.869,16.061,15.103,15.549
		C746.6,625.051,752.543,618.402,752.412,609.951z M555.932,784.909c-0.733,6.048-1.44,11.872-2.119,17.47c4.946,0,9.767,0,15.04,0
		c-1.223-4.593-2.746-8.498-3.189-12.522c-0.403-3.669-1.957-4.871-5.316-4.731C558.9,785.186,557.442,784.991,555.932,784.909z
		 M504.479,120.898c0,3.426,0,6.456,0,9.683c6.349,0,12.556,0,18.814,0c0-3.419,0-6.5,0-9.683
		C516.931,120.898,510.877,120.898,504.479,120.898z"/>
</g>
</svg>
