<?xml version="1.0" encoding="utf-8"?>
<!-- Generator: Adobe Illustrator 16.0.0, SVG Export Plug-In . SVG Version: 6.00 Build 0)  -->
<!DOCTYPE svg PUBLIC "-//W3C//DTD SVG 1.1//EN" "http://www.w3.org/Graphics/SVG/1.1/DTD/svg11.dtd">
<svg version="1.1" id="Layer_1" xmlns="http://www.w3.org/2000/svg" xmlns:xlink="http://www.w3.org/1999/xlink" x="0px" y="0px"
	 width="1024px" height="1024px" viewBox="0 0 1024 1024" enable-background="new 0 0 1024 1024" xml:space="preserve">
<g id="Layer_1_1_" display="none">
	<path display="inline" d="M700.29,337.519c55.731,87.883,111.593,175.685,167.452,263.487
		c21.24,33.386,42.795,66.574,63.718,100.158c22.815,36.622,4.173,81.981-38.931,91.049c-2.899,0.609-5.972,0.545-8.962,0.549
		c-29.665,0.037-59.33,0.022-88.995,0.022c0-0.006,0-0.012,0-0.019c-30.499,0-60.997,0.056-91.495-0.06l-361.859,0.069
		c-65.663,0.011-131.326-0.041-196.989,0.089c-24.093,0.048-42.862-9.764-54.159-30.931c-11.075-20.751-9.03-42.013,3.421-61.656
		c31.511-49.714,63.545-99.095,95.246-148.688c46.741-73.122,93.461-146.259,139.793-219.64l63.959-90.916
		c16.837-26.534,33.911-52.919,50.734-79.462c16.295-25.708,39.893-38.659,69.947-38.838c26.772-0.159,49.159,10.511,64.305,32.92
		c18.892,27.952,36.699,56.638,54.828,85.1L700.29,337.519z"/>
</g>
<g>
	<path fill-rule="evenodd" clip-rule="evenodd" d="M593.515,171.321c5.616,8.564,10.874,16.623,16.171,24.651
		c6.58,9.972,13.032,20.054,19.93,29.761c1.348,1.897,4.435,3.094,6.797,3.252c9.133,0.613,18.324,0.289,27.445,1.023
		c17.646,1.421,35.495,19.577,32.451,44.253c-2.136,17.32-2.24,34.948-2.937,52.453c-0.104,2.625,1.006,5.705,2.406,7.947
		c76.874,123.112,153.449,246.447,231.048,369.021c21.539,34.022,3.264,76.405-30.512,84.986
		c-5.281,1.341-10.925,1.354-16.402,1.371c-35.489,0.113-70.98-0.058-106.469,0.198c-4.463,0.031-9.301,1.141-13.313,3.227
		c-61.228,31.858-122.422,42.796-183.447,75.106c-19.273,10.204-39.072,17.109-60.712,16.498
		c-21.345-0.603-41.72-5.304-61.103-15.509c-62.599-32.959-125.33-44.621-188.076-77.248c-2.863-1.489-6.364-2.134-9.572-2.147
		c-39.321-0.146-78.645,0.083-117.965-0.173c-24.282-0.158-44.362-17.014-50.985-42.146c-3.702-14.047-1.344-27.324,5.938-39.254
		c19.652-32.197,39.645-64.147,59.5-96.198c51.386-82.95,102.775-165.898,154.148-248.858c3.431-5.541,6.876-11.083,10.018-16.816
		c1.021-1.866,1.643-4.38,1.518-6.536c-1.017-17.488-2.319-34.958-3.398-52.442c-0.556-9.003-1.932-18.164-0.996-27.012
		c1.747-16.521,14.129-28.975,30.509-31.712c6.179-1.031,12.585-0.66,18.885-0.594c9.66,0.102,19.325,0.802,28.971,0.521
		c2.182-0.064,4.863-2.66,6.344-4.86c14.517-21.583,28.814-43.34,43.203-65.025c11.942-17.999,26.713-32.218,47.494-35.659
		c10.677-1.77,21.816-0.574,32.729-0.155c4.266,0.163,7.896,0.134,11.734-2.613c33.997-24.333,71.357-39.326,111.809-43.513
		c23.3-2.411,46.873-1.91,70.329-2.224c8.98-0.121,16.084,8.239,16.294,18.383c0.276,13.379,0.127,26.77,0.104,40.156
		c-0.013,7.949-6.881,16.599-15.858,16.458c-19.973-0.312-40.018-0.394-59.929,1.091
		C635.432,152.638,614.322,159.662,593.515,171.321z M359.068,276.663c2.344,0,3.816-0.013,5.288,0.002
		c19.663,0.194,39.327,0.328,58.989,0.612c12.434,0.18,14.948-1.491,19.389-12.357c1.404-3.437,0.609-5.348-2.301-6.146
		c-3.348-0.918-6.83-1.614-10.271-1.721c-24.299-0.758-48.6-1.618-72.904-1.846c-10.558-0.1-18.677,4.508-17.814,18.314
		c0.574,9.196,1.056,18.398,1.66,27.591c1.101,16.761,2.366,33.511,3.367,50.28c0.915,15.331,1.394,30.694,2.379,46.019
		c1.726,26.86,3.794,53.695,5.528,80.554c1.874,29.025,3.405,58.076,5.312,87.099c2.463,37.49,5.184,74.96,7.731,112.442
		c2.082,30.627,3.985,61.268,6.135,91.89c1.42,20.222,14.397,34.266,33.113,34.917c17.141,0.597,34.316,0.138,51.476,0.016
		c49.994-0.354,99.99-0.645,149.982-1.241c16.527-0.198,28.975-11.388,32.262-28.864c1.521-8.088,1.88-16.461,2.438-24.729
		c1.961-29.02,3.816-58.047,5.641-87.076c1.473-23.44,2.76-46.892,4.28-70.328c1.485-22.892,3.215-45.765,4.737-68.655
		c1.523-22.894,2.831-45.804,4.399-68.693c1.755-25.594,3.863-51.159,5.515-76.759c2.151-33.356,3.698-66.763,6.119-100.094
		c1.169-16.087-7.5-20.556-16.833-20.572c-43.33-0.074-86.66,0.454-129.989,0.849c-1.348,0.013-3.802,0.835-3.854,1.466
		c-0.409,4.885-0.956,9.917-0.265,14.701c0.632,4.375,4.56,4.548,8.034,4.523c38.497-0.28,76.994-0.542,115.491-0.804
		c2.415-0.017,4.831-0.002,7.222-0.002c-0.624,7.646-1.334,14.817-1.773,22.009c-1.586,25.974-3.027,51.958-4.624,77.931
		c-1.741,28.317-3.678,56.622-5.373,84.942c-1.556,25.976-2.792,51.975-4.368,77.951c-2.113,34.817-4.372,69.627-6.654,104.433
		c-2.318,35.345-4.569,70.699-7.244,106.013c-0.641,8.459-1.409,17.277-7.229,24.127c0.853,0.405,1.496,0.713,2.14,1.02
		c0.073,0.435,0.146,0.869,0.219,1.303c-4.139,1.562-8.267,4.44-12.419,4.483c-65.326,0.67-130.656,0.986-195.986,1.348
		c-7.59,0.043-12.38-2.949-14.233-10.791c-2.21-9.351-3.756-19.001-4.502-28.62c-1.914-24.675-3.235-49.4-4.777-74.109
		c-1.125-18.041-2.158-36.089-3.349-54.123c-1.831-27.765-3.797-55.519-5.638-83.283c-1.171-17.669-2.17-35.352-3.332-53.021
		c-1.517-23.064-3.183-46.116-4.667-69.183c-1.602-24.886-3.039-49.784-4.602-74.673
		C361.689,316.342,360.386,296.887,359.068,276.663z M623.074,399.34c0.579-4.027,0.922-6.154,1.185-8.292
		c1.015-8.24-0.204-11.202-7.652-13.137c-13.06-3.391-26.262-8.106-39.481-8.417c-34.916-0.826-70.167-3.419-104.142,9.394
		c-4.041,1.524-8.412,2.261-12.688,2.735c-4.116,0.457-8.309,0.099-11.979,0.099c5.384-10.928,11.518-20.588,15.102-31.258
		c6.805-20.26,12.213-41.075,18.087-61.698c11.778-41.352,30.129-78.458,59.574-108.309c36.738-37.246,81.301-54.043,130.581-57.934
		c10.107-0.798,20.313-0.044,30.467-0.272c1.969-0.045,5.424-1.012,5.613-2.088c0.91-5.18,1.865-10.728,1.008-15.787
		c-0.801-4.725-5.771-4.06-9.333-4.184c-36.107-1.26-71.298,4.095-105.148,18.094c-41.047,16.975-75.1,43.84-99.327,84.235
		c-18.51,30.859-30.11,64.839-38.496,100.31c-4.33,18.315-9.019,36.533-18.106,52.981c-9.085,16.439-21.159,25.096-39.778,20.85
		c-12.584-2.87-13.027-1.804-13.063,12.174c-0.019,6.834,1.112,8.8,7.491,9.596c6.923,0.864,13.942,0.852,20.922,1.133
		c22.802,0.915,45.622,2.196,68.334-1.347c6.837-1.066,13.541-3.14,20.377-4.22c7.563-1.193,15.203-1.814,22.816-2.618
		c23.93-2.526,47.759-3.393,71.417,3.05C605.272,396.724,614,397.683,623.074,399.34z M531.588,600.72
		c0.46-0.231,0.92-0.461,1.38-0.692c-2.315-4.792-3.779-10.478-7.103-14.215c-11.633-13.084-24.2-25.19-35.858-38.249
		c-12.042-13.489-30.399-14.095-43.111-1.467c-12.233,12.151-23.096,25.96-34.26,39.337c-4.353,5.213-5.423,11.914-4.181,18.832
		c1.943,10.82,8.016,18.772,15.448,25.781c7.661,7.226,15.569,14.197,22.75,21.955c10.189,11.006,32.527,15.782,45.113,1.717
		c10.788-12.058,21.924-23.75,32.674-35.846C528.587,613.207,532.553,608.101,531.588,600.72z M542.34,431.072
		c-3.309,1.611-7.939,2.726-11.203,5.644c-17.274,15.444-32.639,33.025-46.237,52.28c-6.72,9.516-5.36,17.993,2.853,26.386
		c8.24,8.422,16.604,16.7,24.897,25.063c5.976,6.026,11.722,12.342,17.935,18.063c8.22,7.569,19.298,8.184,25.43,1.231
		c15.643-17.734,31.144-35.62,46.409-53.736c6.129-7.273,6.786-16.849,1.692-24.951c-3.016-4.797-7.234-8.805-11.281-12.716
		c-8.539-8.251-17.435-16.067-25.966-24.327C560.11,437.464,552.299,433.641,542.34,431.072z M599.523,672.321
		c-2.028-5.025-3.725-10.251-6.155-15.036c-5.049-9.937-11.188-19.287-15.582-29.531c-5.097-11.882-18.628-15.317-26.769-5.965
		c-10.953,12.586-22.101,24.971-33.118,37.488c-5.159,5.864-10.765,11.395-15.17,17.876c-5.538,8.146-4.268,16.61,2.2,23.96
		c5.518,6.269,10.908,12.669,16.428,18.937c2.979,3.38,5.801,7.06,9.236,9.805c8.467,6.766,17.183,5.782,24.719-2.155
		c11.576-12.195,23.2-24.337,34.751-36.558C594.812,686.118,598.57,680.482,599.523,672.321z M421.362,488.269
		c1.996-1.573,6.333-3.792,9.099-7.421c5.581-7.326,10.445-15.319,15.337-23.232c3.016-4.878,1.6-12.284-2.526-15.604
		c-4.138-3.328-9.992-2.469-13.814,2.346c-5.942,7.484-11.763,15.085-17.525,22.734c-1.239,1.644-2.219,3.607-2.969,5.58
		C405.511,481.749,409.834,488.482,421.362,488.269z"/>
	<path fill-rule="evenodd" clip-rule="evenodd" d="M473.48,637.468c-5.2,2.07-9.261,0.776-12.761-1.855
		c-13.012-9.783-25.414-20.332-34.984-36.208c1.092-0.735,2.6-1.328,3.563-2.466c6.831-8.061,13.515-16.269,20.32-24.355
		c3.017-3.585,6.013-7.245,9.399-10.389c1.785-1.658,4.304-2.855,6.639-3.261c8.583-1.488,10.679,1.656,8.627,10.735
		c-1.834,8.114-7.341,13.139-11.993,18.887c-7.032,8.689-7.387,10.366-2.513,20.469C464.222,618.236,468.656,627.454,473.48,637.468
		z"/>
	<path fill-rule="evenodd" clip-rule="evenodd" d="M552.878,541.109c-4.471,1.235-8.304,3.305-12.53-1.209
		c-12.324-13.163-25.031-25.906-38.002-39.241c1.604-2.656,2.915-5.594,4.857-7.907c9.633-11.477,19.328-22.9,29.252-34.08
		c2.344-2.638,5.465-4.725,8.569-6.25c5.598-2.75,8.238-1.021,9.563,5.434c0.21,1.025,0.558,2.017,0.82,2.947
		c-8.775,6.326-12.021,16.674-16.427,25.941c-1.491,3.136-1.179,8.009-0.238,11.646c3.087,11.94,6.768,23.704,10.397,35.472
		C549.857,536.186,551.36,538.225,552.878,541.109z"/>
	<path fill-rule="evenodd" clip-rule="evenodd" d="M529.512,670.183c8.729,9.901,16.174,18.382,23.662,26.818
		c2.401,2.705,2.23,4.917-0.641,7.084c-2.314,1.748-4.622,3.571-6.63,5.699c-0.892,0.944-1.037,2.721-1.987,5.466
		c-8.25-7.694-15.46-17.182-23.426-25.974C523.434,683.048,526.242,677.103,529.512,670.183z"/>
</g>
</svg>
