<?xml version="1.0" encoding="utf-8"?>
<!-- Generator: Adobe Illustrator 16.0.0, SVG Export Plug-In . SVG Version: 6.00 Build 0)  -->
<!DOCTYPE svg PUBLIC "-//W3C//DTD SVG 1.1//EN" "http://www.w3.org/Graphics/SVG/1.1/DTD/svg11.dtd">
<svg version="1.1" id="Layer_1" xmlns="http://www.w3.org/2000/svg" xmlns:xlink="http://www.w3.org/1999/xlink" x="0px" y="0px"
	 width="1024px" height="1024px" viewBox="0 0 1024 1024" enable-background="new 0 0 1024 1024" xml:space="preserve">
<g id="Layer_1_1_" display="none">
	<path display="inline" d="M700.29,337.519c55.731,87.883,111.593,175.685,167.452,263.487
		c21.24,33.386,42.795,66.574,63.718,100.158c22.815,36.622,4.173,81.981-38.931,91.049c-2.899,0.609-5.972,0.545-8.962,0.549
		c-29.665,0.037-59.33,0.022-88.995,0.022c0-0.006,0-0.012,0-0.019c-30.499,0-60.997,0.056-91.495-0.06l-361.859,0.069
		c-65.663,0.011-131.326-0.041-196.989,0.089c-24.093,0.048-42.862-9.764-54.159-30.931c-11.075-20.751-9.03-42.013,3.421-61.656
		c31.511-49.714,63.545-99.095,95.246-148.688c46.741-73.122,93.461-146.259,139.793-219.64l63.959-90.916
		c16.837-26.534,33.911-52.919,50.734-79.462c16.295-25.708,39.893-38.659,69.947-38.838c26.772-0.159,49.159,10.511,64.305,32.92
		c18.892,27.952,36.699,56.638,54.828,85.1L700.29,337.519z"/>
</g>
<g>
	<path fill-rule="evenodd" clip-rule="evenodd" d="M856.001,789.016c-3.165,0-6.364,0.303-9.487-0.048
		c-22.945-2.573-43.258,4.057-63.834,13.912c-64.191,30.746-129.042,60.175-193.739,89.898
		c-17.925,8.235-37.18,10.859-56.837,10.946c-28.071,0.123-54.599-5.027-80.252-17.324c-67.941-32.57-136.475-63.95-204.837-95.673
		c-2.71-1.257-6.066-1.631-9.124-1.641c-33.575-0.108-67.154-0.361-100.725,0.031c-29.825,0.349-50.55-20.015-55.571-41.632
		c-4.233-18.223,0.727-34.214,10.902-49.313c49.603-73.602,99.152-147.238,148.697-220.878
		c20.567-30.569,40.745-61.399,61.836-91.615c5.634-8.072,6.78-15.719,5.708-24.916c-2.766-23.757-4.89-47.586-7.259-71.387
		c-1.141-11.471-2.352-22.937-3.357-34.419c-1.029-11.753,3.06-21.911,10.379-31.052c1.689-2.11,3.266-4.458,4.239-6.944
		c14.011-35.818,41.678-57.288,77.139-70.39c15.501-5.728,31.83-7.917,48.253-9.472c3.261-0.309,6.576-1.17,9.623-2.37
		c26.06-10.261,53.016-14.277,80.911-10.848c18.671,2.295,36.188,8.143,51.429,19.27c12.796,9.342,26.506,15.737,42.77,16.72
		c8.317,0.503,16.729,1.87,24.77,4.021c32.448,8.679,52.289,29.224,58.988,61.732c0.296,1.433,1.252,2.795,2.117,4.046
		c6.433,9.309,9.099,19.222,7.741,30.698c-2.447,20.675-3.867,41.466-5.74,62.207c-1.16,12.853-2.468,25.694-3.446,38.56
		c-0.177,2.313,0.267,5.151,1.534,7.022c50.675,74.742,101.487,149.395,152.259,224.073c24.605,36.191,49.146,72.426,73.752,108.617
		c12.105,17.807,15.698,36.848,6.722,56.717c-8.597,19.026-24.442,29.501-45.5,31.052c-13.283,0.979-26.702,0.183-40.06,0.183
		C856.001,788.874,856.001,788.944,856.001,789.016z M638.297,577.211c7.16-3.016,13.948-5.715,20.548-8.801
		c1.146-0.535,1.983-2.649,2.145-4.121c1.521-13.851,2.82-27.725,4.271-41.583c3.524-33.689,7.28-67.357,10.591-101.067
		c2.741-27.922,4.938-55.895,7.456-83.839c2.302-25.531,4.655-51.059,7.11-76.577c0.689-7.163-2.279-12.75-9.189-14.915
		c-3.432-1.075-7.226-1.45-10.854-1.45c-85.246,0.008-170.491,0.108-255.736,0.202c-7.342,0.008-14.684,0.144-22.026,0.129
		c-17.73-0.036-35.46-0.159-53.191-0.142c-1.708,0.002-3.462,0.602-5.112,1.158c-6.595,2.223-9.991,6.8-9.542,13.628
		c0.564,8.581,1.507,17.14,2.356,25.701c2.33,23.456,4.752,46.904,7.031,70.365c1.946,20.038,3.677,40.096,5.625,60.134
		c2.631,27.055,5.443,54.093,8.057,81.149c2.284,23.636,4.326,47.294,6.612,70.93c2.635,27.231,5.468,54.445,8.127,81.676
		c3.581,36.65,6.965,73.318,10.655,109.958c2.248,22.32,20.465,38.239,43.352,38.257c40.78,0.03,81.561,0.01,122.34-0.005
		c1.646,0,3.293-0.166,5.326-0.275c-1.285-2.863-2.385-5.164-3.361-7.514c-4.505-10.85-7.475-12.873-19.229-12.876
		c-32.343-0.008-64.698-0.493-97.023,0.242c-13.526,0.308-27.926-10.055-30.127-23.816c-2.578-16.115-3.816-32.442-5.438-48.696
		c-1.983-19.864-3.717-39.753-5.639-59.623c-2.303-23.807-4.721-47.602-7.034-71.406c-1.932-19.867-3.764-39.742-5.679-59.61
		c-1.949-20.211-3.942-40.418-5.921-60.626c-1.994-20.377-4.011-40.751-5.984-61.13c-0.908-9.375-1.736-18.759-2.673-28.925
		c9.43-0.448,18.313-1.202,27.198-1.228c21.416-0.063,42.909,0,63.555,6.6c13.451,4.3,26.447,9.997,39.956,14.086
		c30.319,9.182,61.346,10.809,92.641,6.085c17.532-2.647,34.539-7.32,50.125-15.95c1.678-0.929,3.545-3.108,3.705-4.852
		c1.732-18.854,3.259-37.73,4.578-56.618c0.517-7.389-6.119-14.196-13-12.785c-3.979,0.817-8.105,3.398-11.037,6.286
		c-26.718,26.325-59.642,34.304-96.036,30.86c-17.925-1.698-35.666-5.261-53.495-7.943c-29.265-4.403-58.423-3.479-87.48,1.813
		c-7.674,1.397-15.341,2.833-23.665,4.371c-2.411-23.411-4.727-45.888-7.059-68.52c107.988,0,215.412,0,323.258,0
		C659.031,369.605,648.695,473.1,638.297,577.211z M785.358,691.826c-0.251-0.001-0.502-0.001-0.753-0.001
		c0-18.778,0.131-37.558-0.058-56.333c-0.089-8.935-6.892-17.053-14.828-18.321c-34.751-5.555-69.499-11.121-104.275-16.524
		c-4.214-0.654-9.202-1.754-12.785-0.25c-26.865,11.274-53.502,23.077-80.128,34.893c-6.415,2.848-9.7,7.829-9.717,15.127
		c-0.083,34.63-0.396,69.259-0.657,103.888c-0.104,13.843,9.38,26.021,23.366,29.269c30.124,6.993,60.311,13.726,90.441,20.692
		c7.934,1.834,15.865,3.709,23.624-0.018c24.365-11.701,48.773-23.327,72.88-35.524c8.893-4.499,12.999-12.575,12.927-22.626
		C785.266,728.007,785.358,709.916,785.358,691.826z M678.017,219.625c-4.517-13.073-11.928-23.215-24.294-29.493
		c-11.309-5.743-23.781-7.094-36.069-8.261c-15.437-1.466-29.895-4.551-42.834-13.623c-7.354-5.155-15.264-10.046-23.65-13.196
		c-27.516-10.333-55.582-10.294-83.332-0.887c-11.354,3.848-22.758,6.583-34.647,7.898c-22.977,2.543-44.483,9.27-63.353,22.771
		c-12.741,9.117-23.153,20.27-30.276,34.792C452.602,219.625,565.077,219.625,678.017,219.625z M394.355,414.343
		c0.559,5.97,1.334,14.021,2.066,22.077c1.619,17.82,3.222,35.644,4.821,53.465c1.923,21.423,3.826,42.849,5.756,64.272
		c1.513,16.794,3.045,33.586,4.585,50.378c1.981,21.589,3.979,43.177,5.966,64.766c1.404,15.256,2.712,30.521,4.253,45.764
		c0.528,5.229,5.311,9.83,10.199,10.498c4.217,0.575,9.705-2.596,11.091-7.083c0.778-2.514,0.655-5.406,0.433-8.089
		c-0.811-9.777-1.888-19.532-2.767-29.305c-1.927-21.424-3.756-42.854-5.695-64.275c-2.279-25.194-4.672-50.377-6.942-75.572
		c-1.916-21.252-3.687-42.518-5.593-63.771c-1.968-21.938-4.115-43.861-5.992-65.807c-0.689-8.054-5.061-13.079-11.933-12.857
		C398.033,399.013,394.043,404.215,394.355,414.343z"/>
	<path fill-rule="evenodd" clip-rule="evenodd" d="M674.892,783.054c-13.396-3.149-26.297-6.144-39.178-9.223
		c-12.234-2.925-24.436-5.988-36.675-8.895c-10.448-2.479-16.055-9.286-16.03-19.854c0.063-26.884,0.16-53.768,0.251-80.651
		c0.028-8.559,0.521-8.882,9.055-7.223c21.635,4.205,43.32,8.167,64.913,12.565c12.879,2.623,17.187,8.236,17.264,21.286
		c0.17,28.949,0.271,57.9,0.399,86.851C674.897,779.44,674.892,780.97,674.892,783.054z"/>
	<path fill-rule="evenodd" clip-rule="evenodd" d="M695.078,782.864c0-22.31,0.012-43.634-0.005-64.958
		c-0.009-10.499,0-21-0.125-31.498c-0.098-8.233,3.456-14.121,11.061-17.719c17.015-8.048,33.987-16.182,51.003-24.227
		c5.539-2.618,7.148-1.599,7.157,4.52c0.022,14.626-0.098,29.251-0.044,43.876c0.058,15.833,0.193,31.665,0.404,47.494
		c0.08,5.892-2.154,10.443-7.552,13.103c-19.058,9.39-38.166,18.677-57.274,27.965C698.524,781.992,697.174,782.222,695.078,782.864
		z"/>
	<path fill-rule="evenodd" clip-rule="evenodd" d="M736.657,633.028c-16.179,6.864-31.129,13.57-46.411,19.449
		c-4.089,1.572-9.332,1.439-13.801,0.688c-21.696-3.652-43.311-7.781-66.164-11.963c3.6-1.733,6.243-3.108,8.971-4.3
		c10.386-4.541,20.663-9.37,31.268-13.36c4.531-1.707,9.934-2.8,14.651-2.15c22.706,3.125,45.313,6.936,67.953,10.526
		C733.975,632.054,734.784,632.431,736.657,633.028z"/>
</g>
</svg>
