<?xml version="1.0" encoding="utf-8"?>
<!-- Generator: Adobe Illustrator 16.0.0, SVG Export Plug-In . SVG Version: 6.00 Build 0)  -->
<!DOCTYPE svg PUBLIC "-//W3C//DTD SVG 1.1//EN" "http://www.w3.org/Graphics/SVG/1.1/DTD/svg11.dtd">
<svg version="1.1" id="Layer_1" xmlns="http://www.w3.org/2000/svg" xmlns:xlink="http://www.w3.org/1999/xlink" x="0px" y="0px"
	 width="1024px" height="1024px" viewBox="0 0 1024 1024" enable-background="new 0 0 1024 1024" xml:space="preserve">
<g id="Layer_1_1_" display="none">
	<path display="inline" d="M700.29,337.519c55.731,87.883,111.593,175.685,167.452,263.487
		c21.24,33.386,42.795,66.574,63.718,100.158c22.815,36.622,4.173,81.981-38.931,91.049c-2.899,0.609-5.972,0.545-8.962,0.549
		c-29.665,0.037-59.33,0.022-88.995,0.022c0-0.006,0-0.012,0-0.019c-30.499,0-60.997,0.056-91.495-0.06l-361.859,0.069
		c-65.663,0.011-131.326-0.041-196.989,0.089c-24.093,0.048-42.862-9.764-54.159-30.931c-11.075-20.751-9.03-42.013,3.421-61.656
		c31.511-49.714,63.545-99.095,95.246-148.688c46.741-73.122,93.461-146.259,139.793-219.64l63.959-90.916
		c16.837-26.534,33.911-52.919,50.734-79.462c16.295-25.708,39.893-38.659,69.947-38.838c26.772-0.159,49.159,10.511,64.305,32.92
		c18.892,27.952,36.699,56.638,54.828,85.1L700.29,337.519z"/>
</g>
<g>
	<path fill-rule="evenodd" clip-rule="evenodd" d="M426.14,191.911c-10.532-2.439-14.381-7.383-14.25-17.961
		c0.137-11,0.406-21.998,0.539-32.998c0.237-19.62,15.803-36.062,35.46-36.227c41.779-0.351,83.564-0.401,125.343-0.102
		c18.772,0.135,35.919,18.195,36.295,36.864c0.218,10.824,0.417,21.659,1.101,32.46c0.627,9.893-2.121,15.29-14.133,18.032
		c0.319,6.911,1.558,13.542,7.004,18.462c6.875,6.209,13.583,12.708,21.044,18.146c25.297,18.44,43.121,42.167,51.181,72.485
		c2.613,9.831,2.639,20.342,3.982,30.524c0.279,2.11,0.691,4.453,1.831,6.162c56.333,84.466,112.759,168.872,169.159,253.293
		c26.102,39.071,52.327,78.062,78.194,117.287c13.928,21.121,13.603,41.912-0.798,60.691c-10.101,13.172-24.34,19.915-40.556,20.337
		c-33.849,0.879-67.748,1.454-101.585,0.566c-22.239-0.582-42.414,3.163-62.748,12.953
		c-50.878,24.496-102.804,46.802-154.021,70.607c-34.038,15.82-68.291,16.684-102.636,2.743
		c-26.77-10.866-52.94-23.219-79.301-35.077c-36.355-16.354-72.625-32.896-108.99-49.229c-2.392-1.074-5.276-1.472-7.932-1.477
		c-43.328-0.09-86.657,0.106-129.983-0.128c-26.601-0.145-46.813-14.887-54.076-38.658c-4.809-15.742-0.382-29.877,8.198-42.932
		c34.56-52.581,69.161-105.137,104.023-157.518c47.593-71.51,95.458-142.838,143.083-214.327c1.582-2.374,2.604-5.667,2.536-8.5
		c-0.345-14.364,0.774-28.506,6.041-41.972c8.912-22.788,23.399-41.317,43.293-55.656c7.792-5.617,15.41-11.489,22.916-17.486
		C423.174,207.829,424.311,199.725,426.14,191.911z M653.188,531.021c-0.212-0.002-0.425-0.003-0.636-0.005
		c0.781-67.905,1.609-135.809,2.311-203.713c0.159-15.395-3.766-29.836-11.352-43.255c-11.497-20.338-28.824-34.857-48.136-47.084
		c-14.057-8.899-22.69-20.415-23.207-37.549c-0.232-7.72-0.732-7.776-8.509-7.764c-34.899,0.054-69.801,0.398-104.694,0.001
		c-6.152-0.071-7.558,2.228-8.193,7.166c-2.226,17.286-11.116,29.782-25.805,39.385c-10.542,6.892-20.098,15.556-29.17,24.376
		c-19.953,19.398-30.307,42.753-30.152,71.267c0.504,93.7,0.215,187.404,0.265,281.105c0.02,39.372-0.139,78.748,0.286,118.115
		c0.252,23.274,20.61,49.85,43.036,55.549c10.518,2.674,21.726,3.533,32.633,3.612c43.839,0.322,87.683,0.083,131.524-0.106
		c10.469-0.045,21.19,0.619,31.353-1.341c23.937-4.616,49.127-27.105,48.688-61.709
		C652.596,663.063,653.188,597.038,653.188,531.021z M579.898,166.985c0-8.454,0.155-16.81-0.044-25.158
		c-0.191-8.039-3.035-10.606-11.216-10.532c-21.812,0.195-43.622,0.467-65.434,0.672c-17.002,0.16-34.007,0.204-51.009,0.441
		c-4.056,0.056-9.14-0.18-9.846,5.206c-1.255,9.565-1.666,19.241-2.468,29.372C487.346,166.985,533.468,166.985,579.898,166.985z"/>
	<path fill-rule="evenodd" clip-rule="evenodd" d="M635.33,528.528c0,67.905-0.474,135.816,0.325,203.711
		c0.206,17.485-19.973,40.252-40.109,39.944c-52.929-0.807-105.875-0.458-158.814-0.572c-4.799-0.01-9.722,0.652-14.377-0.175
		c-20.197-3.591-35.891-22.503-35.883-43.057c0.055-130.307,0.133-260.612,0.325-390.919c0.024-16.18,1.039-32.282,9.586-46.806
		c7.752-13.172,18.854-23.03,31.029-31.878c6.107-4.439,12.08-9.066,18.244-13.425c11.261-7.961,18.555-18.609,21.906-31.933
		c0.818-3.252,2.1-4.724,5.882-4.695c25.441,0.197,50.887,0.149,76.33,0.021c3.359-0.017,4.71,0.75,5.196,4.389
		c2.102,15.721,12.033,26.49,23.709,35.996c11.975,9.749,24.324,19.066,35.928,29.236c13.571,11.893,19.284,27.586,19.293,45.426
		c0.032,68.246,0.013,136.493,0.013,204.738C634.384,528.528,634.857,528.528,635.33,528.528z M446.902,410.378
		c-1.682,3.585-3.163,6.996-4.852,10.3c-6.409,12.534-4.996,21.132,5.667,30.185c3.197,2.715,7.101,4.814,10.993,6.459
		c16.067,6.793,32.227,13.375,48.408,19.893c11.067,4.458,25.665,2.977,31.404-10.688c0.86-2.05,1.998-3.983,3.002-5.975
		c8.479-16.826,16.902-33.683,25.556-50.419c0.611-1.183,2.907-2.085,4.437-2.111c10.975-0.187,21.979,0.35,32.924-0.24
		c13.007-0.701,11.771,0.538,11.688-13.815c-0.024-4.318-2.296-5.738-6.761-5.37c-11.964,0.983-23.97,1.448-35.958,2.134
		c-4.422,0.254-8.265-0.682-11.8-3.768c-2.656-2.318-5.953-4.156-9.264-5.433c-19.013-7.332-38.075-14.536-57.201-21.566
		c-10.342-3.801-22.028,0.562-27.538,10.073c-2.834,4.891-5.153,10.08-8.019,14.951c-0.815,1.385-2.696,2.966-4.144,3.022
		c-9.213,0.358-18.441,0.328-27.665,0.399c-4.806,0.036-9.657-0.4-14.407,0.114c-7.8,0.842-8.543,2.002-8.446,9.842
		c0.071,5.739,1.582,7.344,9.31,8.35C424.906,408.106,435.622,409.132,446.902,410.378z M453.667,737.138
		c4.037-1.676,7.982-3.632,12.125-4.979c15.641-5.087,31.427-9.731,46.997-15.021c11.224-3.812,22.365-12.782,16.392-29.676
		c-6.053-17.113-11.234-34.531-16.97-51.759c-1.126-3.381-2.703-6.723-4.664-9.692c-5.164-7.818-17.393-12.702-24.072-9.978
		c-7.433,3.031-14.794,6.265-22.335,8.999c-10.147,3.679-20.333,7.319-30.689,10.327c-11.608,3.372-17.313,11.676-20.447,22.46
		c-0.504,1.733-0.735,3.862-0.209,5.529c5.733,18.156,11.533,36.294,17.544,54.359C431.085,728.968,441.331,736.067,453.667,737.138
		z M521.383,501.868c-12.794,1.068-21.599,7.769-25.709,20c-0.599,1.779-1.449,3.485-2.288,5.172
		c-6.189,12.436-12.588,24.771-18.49,37.341c-1.592,3.389-3.016,7.782-2.221,11.178c1.786,7.639,5.961,14.238,13.356,18.059
		c3.197,1.65,6.417,3.267,9.7,4.733c12.366,5.524,24.55,11.545,37.207,16.303c11.956,4.495,25.542,3.794,32.942-12.552
		c7.414-16.372,18.782-30.7,24.487-48.046c2.9-8.813,0.327-15.505-5.53-21.464c-2.339-2.38-5.559-4.024-8.604-5.558
		c-14.995-7.549-30.024-15.038-45.148-22.326C528.091,503.265,524.631,502.79,521.383,501.868z M405.643,339.971
		c0.151,0.024,0.301,0.049,0.451,0.073c0,1.889-0.047,3.78,0.013,5.667c0.061,1.886,0.054,3.8,0.382,5.648
		c0.925,5.207,3.019,6.643,8.183,6.136c4.272-0.419,6.99-2.568,8.018-6.731c0.778-3.151,1.477-6.323,2.154-9.498
		c3.482-16.328,10.139-30.835,23.34-41.775c3.143-2.605,5.968-5.656,8.628-8.768c3.983-4.66,4.145-9.64,0.642-14.547
		c-3.101-4.343-7.491-2.92-11.214-1.599c-20.311,7.202-33.042,21.493-37.747,42.471
		C406.814,324.525,406.552,332.321,405.643,339.971z M418.499,513.888c0.367,2.5,0.638,5.759,1.349,8.92
		c1.701,7.562,10.548,13.153,18.138,11.643c8.846-1.762,14.286-8.873,13.172-17.31c-1.311-9.922-5.591-18.639-11.297-26.672
		c-4.199-5.912-9.142-5.993-13.857-0.383C420.418,496.732,419.151,504.832,418.499,513.888z M554.435,294.649
		c-0.659-2.791-0.897-5.418-1.896-7.715c-2.503-5.749-9.494-7.992-14.102-4.056c-8.961,7.653-14.808,17.377-16.73,29.168
		c-0.869,5.327,2.135,8.697,6.271,11.372c3.931,2.543,7.604,1.292,11.014-0.964C549.001,315.83,551.437,305.072,554.435,294.649z
		 M565.919,682.901c-0.012,7.712,2.699,12.754,7.724,14.275c4.215,1.277,11.342-2.144,14.635-7.524
		c5.371-8.779,7.38-18.392,5.774-28.591c-0.926-5.889-5.846-8.842-11.37-6.626c-2.92,1.171-6.172,2.922-7.904,5.377
		C569.935,666.678,566.179,674.187,565.919,682.901z M604.604,480.383c0.361-0.133,0.724-0.266,1.085-0.4
		c-2.245-6.915-4.278-13.907-6.788-20.725c-3.272-8.893-13.369-7.414-17.338-1.128c-6.308,9.986-5.289,20.929,3.78,32.068
		c2.663,3.271,5.632,6.311,10.347,5.286c4.964-1.081,7.063-5.101,8.363-9.503C604.574,484.215,604.439,482.255,604.604,480.383z"/>
	<path fill-rule="evenodd" clip-rule="evenodd" d="M514.856,402.047c-11.358-1.329-20.836,0.821-26.869,10.841
		c-2.374,3.942-4.289,8.183-6.165,12.398c-1.807,4.064-3.388,8.238-4.891,12.427c-1.049,2.919-2.526,3.497-5.483,2.305
		c-13.498-5.438-13.578-5.994-6.946-19.217c6.063-12.088,11.555-24.462,17.353-36.683c3.303-6.96,5.791-7.746,13.031-4.798
		c10.011,4.075,20.176,7.79,30.072,12.121c2.193,0.961,3.54,3.856,5.276,5.86c-2.566,1.713-4.934,4.057-7.759,4.949
		C520.021,403.027,517.047,402.16,514.856,402.047z"/>
	<path fill-rule="evenodd" clip-rule="evenodd" d="M480.656,689.292c1.777-0.199,5.216-0.429,8.597-1.001
		c6.2-1.05,11.035,2.017,15.611,5.329c0.852,0.617,0.792,3.986-0.087,5.14c-1.245,1.633-3.51,2.816-5.568,3.447
		c-15.085,4.628-30.216,9.11-45.359,13.546c-5.027,1.473-6.922-2.151-8.081-5.849c-3.328-10.622-6.36-21.337-9.519-32.011
		c-1.556-5.263-3.07-10.54-4.725-15.771c-1.371-4.332-0.167-7.52,4.05-9.208c5.565-2.229,11.158-4.435,16.872-6.23
		c2.982-0.938,5.706,0.097,5.655,3.888c-0.08,5.992-0.593,11.979-0.686,17.973C457.194,682.868,464.663,690.008,480.656,689.292z"/>
	<path fill-rule="evenodd" clip-rule="evenodd" d="M492.413,572.561c1.081-2.822,1.655-4.813,2.57-6.631
		c6.158-12.236,12.314-24.475,18.62-36.637c4.482-8.646,11.223-9.532,17.551-2.267c0.767,0.88,0.571,3.242-0.016,4.538
		c-2.111,4.661-5.119,8.971-6.809,13.758c-3.954,11.209,2.141,19.922,8.29,28.26c3.66,4.965,5.383,10.124,4.942,16.263
		c-0.275,3.832-2.265,4.2-5.156,3.316c-2.122-0.65-4.197-1.501-6.219-2.427c-9.947-4.558-19.922-9.068-29.756-13.864
		C494.72,576.036,493.635,573.916,492.413,572.561z"/>
</g>
</svg>
