<?xml version="1.0" encoding="utf-8"?>
<!-- Generator: Adobe Illustrator 16.0.0, SVG Export Plug-In . SVG Version: 6.00 Build 0)  -->
<!DOCTYPE svg PUBLIC "-//W3C//DTD SVG 1.1//EN" "http://www.w3.org/Graphics/SVG/1.1/DTD/svg11.dtd">
<svg version="1.1" xmlns="http://www.w3.org/2000/svg" xmlns:xlink="http://www.w3.org/1999/xlink" x="0px" y="0px" width="1024px"
	 height="1024px" viewBox="0 0 1024 1024" enable-background="new 0 0 1024 1024" xml:space="preserve">
<g id="Layer_1" display="none">
	<path display="inline" fill-rule="evenodd" clip-rule="evenodd" d="M700.29,337.519c55.732,87.883,111.593,175.685,167.452,263.487
		c21.24,33.386,42.795,66.574,63.718,100.158c22.815,36.622,4.173,81.982-38.931,91.049c-2.899,0.609-5.971,0.545-8.962,0.549
		c-29.665,0.037-59.33,0.022-88.995,0.022c0-0.006,0-0.012,0-0.018c-30.499,0-60.997,0.055-91.495-0.06l-361.859,0.069
		c-65.663,0.011-131.326-0.041-196.989,0.089c-24.093,0.048-42.862-9.763-54.159-30.93c-11.075-20.751-9.03-42.013,3.421-61.657
		c31.511-49.713,63.545-99.094,95.246-148.687c46.741-73.122,93.461-146.259,139.793-219.64l63.959-90.916
		c16.837-26.534,33.911-52.919,50.735-79.462c16.295-25.708,39.892-38.659,69.947-38.838c26.772-0.159,49.159,10.511,64.305,32.92
		c18.891,27.952,36.699,56.638,54.828,85.1L700.29,337.519z"/>
</g>
<g id="Layer_2">
	<g>
		<path fill-rule="evenodd" clip-rule="evenodd" d="M264.256,409.433c7.191-9.254,13.572-18.222,20.735-26.514
			c11.854-13.726,26.097-24.664,41.928-33.488c5.63-3.14,9.736-7.466,13.175-13c43.214-69.539,86.594-138.974,129.969-208.411
			c11.824-18.93,30.148-23.059,50.521-21.049c17.536,1.73,29.859,11.461,39.042,26.485
			c49.422,80.858,99.167,161.519,148.807,242.244c0.907,1.474,1.904,2.891,3.123,4.733c6.329-4.693,9.947-10.792,11.623-18.059
			c0.701-3.042,0.764-6.232,1.101-9.357c0.392-3.62-0.45-5.911-3.93-8.462c-3.195-2.343-5.924-7.41-6.107-11.404
			c-0.724-15.677-0.754-31.417-0.234-47.106c0.26-7.804,9.28-14.588,18.551-14.615c34.43-0.1,68.861-0.099,103.29,0.197
			c12.795,0.109,19.465,6.586,19.631,19.399c0.192,14.971-0.482,29.96-1.116,44.928c-0.194,4.598-2.896,7.902-7.278,10.063
			c-1.381,0.682-2.428,3.418-2.465,5.238c-0.463,21.977,10.43,38.707,24.772,54.062c16.982,18.181,30.702,38.459,35.669,63.367
			c1.762,8.835,2.687,17.978,2.746,26.987c0.347,52.607,0.295,105.216,0.453,157.825c0.023,7.861,0.197,15.739,0.813,23.571
			c0.215,2.755,1.549,5.65,3.067,8.04c8.399,13.222,18.229,25.688,25.313,39.563c16.154,31.644-3.779,68.688-39.095,72.881
			c-15.186,1.803-30.679,1.123-46.034,1.333c-30.056,0.41-60.113,0.744-90.171,0.923c-13.395,0.079-25.745,2.58-38.204,8.491
			c-44.901,21.304-90.309,41.548-135.616,61.99c-27.174,12.261-55.168,11.439-82.64,2.092
			c-45.897-15.617-91.375-32.465-137.063-48.703c-20.122-7.151-40.21-14.433-60.551-20.909c-7.006-2.23-14.726-3.006-22.131-3.065
			c-42.119-0.343-84.242-0.108-126.361-0.429c-12.718-0.096-25.753,0.226-38.077-2.35c-32.384-6.767-49.359-45.321-32.516-73.812
			c14.265-24.127,30.012-47.378,45.106-71.014c4.22-6.608,8.189-13.401,12.791-19.734c2.416-3.325,1.567-4.857-1.152-7.201
			c-21.093-18.179-38.234-39.442-46.798-66.241c-13.065-40.885-11.553-80.687,14.211-116.715
			c21.021-29.395,50.201-44.83,86.625-46.381C222.579,394.855,243.991,399.816,264.256,409.433z M664.328,641.492
			c1.131-0.146,1.523-0.098,1.808-0.252c0.917-0.498,1.822-1.027,2.681-1.62c9.997-6.897,15.941-16.923,20.832-27.617
			c8.037-17.568,8.371-36.592,9.366-55.333c1.193-22.475,5.3-44.213,13.715-65.067c9.993-24.764,23.016-47.379,45.894-62.773
			c1.11-0.747,2.373-1.901,2.674-3.091c0.734-2.916,1.912-6.313,1.006-8.828c-0.541-1.499-4.685-2.358-7.213-2.371
			c-14.497-0.08-29.008-0.109-43.485,0.503c-4.271,0.18-9.539,1.323-12.479,4.047c-11.656,10.797-22.815,22.166-33.68,33.77
			c-8.106,8.658-15.38,18.089-23.212,27.011c-4.651,5.3-10.495,4.313-13.405-1.572c-6.239-12.61-12.342-25.319-19.29-37.537
			c-6.385-11.226-13.713-21.95-24.645-29.493c-5.48-3.783-11.033-6.99-17.516-1.739c-0.998,0.808-2.594,1.087-3.95,1.21
			c-16.135,1.468-32.254,3.627-48.424,4.135c-59.927,1.886-119.863,2.083-179.71-2.279c-8.901-0.648-18.097-1.082-26.204-6.211
			c-1.466-0.929-5.301-0.054-6.78,1.333c-4.689,4.4-9.225,9.111-13.036,14.279c-37.462,50.82-61.197,106.93-65.586,170.534
			c-2.082,30.179,1.065,59.454,12.901,87.551c11.077,26.298,27.998,48.05,50.096,66c2.754,2.237,5.585,5.803,6.103,9.11
			c1.797,11.474,5.562,15.223,17.411,15.228c82.684,0.042,165.369-0.042,248.051,0.264c11.896,0.044,16.941-5.565,17.953-15.749
			c0.349-3.514,1.816-5.52,4.569-7.56c29.848-22.129,50.307-50.83,60.065-86.868c2.159-7.974,2.69-15.995-0.275-24.651
			c-2.916,2.714-5.144,5.478-7.978,7.29c-8.269,5.29-12.383,12.609-15.665,22.022c-13.117,37.607-40.052,63.448-74.234,82.366
			c-2.916,1.614-6.599,2.597-9.928,2.603c-64.678,0.116-129.357,0.104-194.035-0.119c-4.361-0.016-9.266-0.941-12.986-3.07
			c-23.332-13.355-43.491-30.35-57.977-53.358c-24.612-39.096-28.286-81.964-22.151-126.408
			c3.279-23.747,11.553-46.082,20.435-68.228c9.03-22.511,23.359-41.927,35.717-62.498c4.284-7.131,5.094-6.678,13.405-5.954
			c24.326,2.117,48.686,4.495,73.073,5.119c34.587,0.884,69.213,0.44,103.821,0.281c24.781-0.115,49.654-0.09,73.993-5.484
			c8.606-1.908,13.176,1.498,17.817,7.847c16.013,21.899,27.185,46.009,34.642,72.011c0.934,3.258,3.243,6.612,5.85,8.819
			c14.259,12.068,28.51,24.182,43.345,35.521c13.735,10.498,17.247,28.45,10.868,43.313c-3.698,8.619-10.329,15.977-15.624,23.915
			c-0.823,1.235-2.377,2.675-2.188,3.778C661.665,630.875,663.054,636.044,664.328,641.492z M466.28,547.977
			c0-0.042,0-0.085,0-0.127c-18.353,0-36.706-0.047-55.059,0.021c-8.953,0.034-12.027,3.282-11.878,12.005
			c0.291,17.122,0.553,34.247,0.794,51.371c0.119,8.486,2.857,11.326,11.279,11.34c35.833,0.056,71.665,0.074,107.497,0.121
			c8.081,0.011,10.257,2.153,10.299,10.261c0.062,11.71,0.024,23.422,0.063,35.133c0.024,7.15,3.898,10.095,10.485,7.725
			c1.888-0.68,3.494-2.235,5.121-3.528c32.8-26.066,65.572-52.17,98.38-78.229c10.389-8.25,10.405-10.615,0.254-18.869
			c-25.878-21.036-51.69-42.154-77.555-63.209c-7.174-5.841-14.228-11.862-21.719-17.272c-7.265-5.247-13.687-2.136-13.979,6.448
			c-0.44,12.92-0.713,25.846-0.977,38.773c-0.133,6.529-1.546,8.039-7.947,8.039C502.986,547.976,484.633,547.977,466.28,547.977z
			 M703.874,630.534c-6.62,8.94-12.442,16.693-18.099,24.563c-0.841,1.171-1.251,2.892-1.276,4.368
			c-0.262,14.677-1.003,29.383-0.365,44.025c0.441,10.16,1.434,20.703,4.63,30.254c7.412,22.141,23.005,35.36,46.989,36.754
			c9.563,0.557,19.188-0.021,28.786-0.038c22.023-0.039,44.047,0.044,66.069-0.102c17.304-0.113,31.429-7.023,41.972-20.788
			c9.33-12.181,12.204-26.395,12.136-41.354c-0.318-68.863-0.61-137.727-1.166-206.587c-0.073-9.206-0.894-18.53-2.575-27.575
			c-3.977-21.406-15.098-39.324-30.058-54.623c-17.419-17.812-29.493-37.822-30.867-63.303c-0.188-3.489,0.054-8.426-1.988-10.018
			c-2.335-1.82-7.004-0.597-10.653-0.797c-3.014-0.164-4.34,0.892-4.449,4.174c-0.858,25.652,6.659,48.422,23.165,68.121
			c7.845,9.362,16.251,18.278,23.721,27.924c13.21,17.059,15.073,37.188,15.005,58.433c-2.52,0-4.395,0.003-6.27,0
			c-37.753-0.067-75.508-0.166-113.261-0.12c-2.001,0.003-5.228,0.698-5.776,1.977c-1.946,4.529-2.978,9.449-4.485,14.672
			c7.441,0.479,14.192,1.251,20.948,1.294c33.025,0.212,66.053,0.247,99.079,0.307c9.316,0.017,9.46-0.043,9.49,9.154
			c0.145,42.473,0.319,84.946,0.241,127.418c-0.038,20.434-0.063,40.894-1.113,61.288c-0.914,17.712-14.729,30.335-31.809,30.521
			c-30.404,0.333-60.809,0.702-91.214,0.787c-14.155,0.04-25.101-6.159-30.929-19.282c-2.703-6.086-4.957-12.906-5.177-19.467
			c-0.762-22.872-0.55-45.778-0.697-68.671C703.852,639.72,703.874,635.594,703.874,630.534z M564.208,385.055
			c0.345-0.744,0.691-1.487,1.037-2.231c-4.935-5.025-9.459-10.552-14.877-14.987c-19.562-16.011-42.67-23.604-67.289-27.456
			c-6.196-0.97-11.429,0.126-17.347,2.779c-17.307,7.76-34.993,8.133-52.352-0.863c-2.481-1.287-5.655-2.195-8.372-1.922
			c-25.087,2.511-47.921,11.372-68.607,25.633c-5.126,3.535-9.82,7.845-14.15,12.34c-3.737,3.879-2.765,6.52,2.442,7.396
			c7.204,1.214,14.469,2.458,21.746,2.762c23.542,0.983,47.099,2.068,70.654,2.151c43.63,0.154,87.313,1.484,130.833-3.116
			C553.38,386.965,558.781,385.896,564.208,385.055z M200.446,636.223c0.49-0.443,0.979-0.887,1.469-1.332
			c0-7.603,0.128-15.21-0.108-22.806c-0.048-1.531-1.092-3.795-2.328-4.409c-12.949-6.421-22.94-16.233-32.446-26.852
			c-18.114-20.233-29.089-43.122-28.459-70.86c0.732-32.258,17.541-55.324,46.982-64.075c18.117-5.384,35.494-2.079,52.485,4.681
			c3.32,1.32,5.008,1.087,6.394-2.362c1.682-4.188,3.678-8.272,5.841-12.236c1.757-3.216,1.165-4.84-2.312-6.252
			c-14.538-5.901-29.519-8.957-45.274-8.649c-30.156,0.59-53.953,13.472-70.698,38.076c-20.244,29.746-19.226,62.159-7.875,94.616
			c8.33,23.818,24.667,42.412,43.651,58.452C178.068,620.918,189.516,628.264,200.446,636.223z M303.856,539.687
			c-0.054-10.172-5.739-15.984-13.137-14.611c-6.021,1.116-8.127,6.252-9.983,11.11c-13.278,34.754-14.545,70.237-5.639,106.143
			c3.459,13.944,9.135,27.02,18.638,38.061c4.813,5.592,9.918,6.652,14.683,3.591c5.082-3.266,6.169-8.514,2.908-15.217
			c-16.851-34.633-18.217-71.018-12.141-108.188C300.413,553.066,302.492,545.697,303.856,539.687z M439.69,275.763
			c-5.173,0.599-10.438,0.782-15.502,1.887c-9.754,2.127-16.799,10.313-17.586,19.653c-0.694,8.236,3.882,16.601,12.044,19.57
			c14.535,5.288,29.457,5.634,43.82-0.444c13.793-5.837,16.141-21.162,5.422-31.635C459.991,277.078,450.026,276.094,439.69,275.763
			z M784.748,300.358c0-0.075,0-0.15,0-0.226c-14.674,0-29.348,0.065-44.019-0.057c-2.773-0.024-4.261,0.433-4.167,3.622
			c0.174,5.935,0.13,11.878,0.066,17.818c-0.03,2.834,1.02,4.048,4.021,4.042c29.174-0.063,58.349-0.056,87.522,0.032
			c3.125,0.009,4.414-1.034,4.403-4.222c-0.016-5.413,0.111-10.836,0.473-16.235c0.247-3.704-1.183-4.868-4.8-4.833
			C813.749,300.442,799.248,300.358,784.748,300.358z M738.306,388.631c4.908,0,8.833-0.016,12.76,0.004
			c5.363,0.028,9.111-2.153,10.087-7.721c1.554-8.87,3.188-17.738,4.278-26.669c0.317-2.608-0.635-7.517-1.809-7.78
			c-4.647-1.041-9.615-0.714-14.462-0.678c-0.34,0.003-0.975,1.775-0.953,2.712C748.537,362.437,746.517,375.827,738.306,388.631z"
			/>
	</g>
</g>
</svg>
