<?xml version="1.0" encoding="utf-8"?>
<!-- Generator: Adobe Illustrator 16.0.0, SVG Export Plug-In . SVG Version: 6.00 Build 0)  -->
<!DOCTYPE svg PUBLIC "-//W3C//DTD SVG 1.1//EN" "http://www.w3.org/Graphics/SVG/1.1/DTD/svg11.dtd">
<svg version="1.1" xmlns="http://www.w3.org/2000/svg" xmlns:xlink="http://www.w3.org/1999/xlink" x="0px" y="0px" width="1024px"
	 height="1024px" viewBox="0 0 1024 1024" enable-background="new 0 0 1024 1024" xml:space="preserve">
<g id="Layer_1" display="none">
	<g id="Layer_1_1_">
		<path display="inline" d="M700.29,337.519c55.731,87.883,111.593,175.685,167.452,263.487
			c21.24,33.386,42.795,66.574,63.718,100.158c22.815,36.622,4.173,81.981-38.931,91.049c-2.899,0.609-5.972,0.545-8.962,0.549
			c-29.665,0.037-59.33,0.022-88.995,0.022c0-0.006,0-0.012,0-0.019c-30.499,0-60.997,0.056-91.495-0.06l-361.859,0.069
			c-65.663,0.011-131.326-0.041-196.989,0.089c-24.093,0.048-42.862-9.764-54.159-30.931c-11.075-20.751-9.03-42.013,3.421-61.656
			c31.511-49.714,63.545-99.095,95.246-148.688c46.741-73.122,93.461-146.259,139.793-219.64l63.959-90.916
			c16.837-26.534,33.911-52.919,50.734-79.462c16.295-25.708,39.893-38.659,69.947-38.838c26.772-0.159,49.159,10.511,64.305,32.92
			c18.892,27.952,36.699,56.638,54.828,85.1L700.29,337.519z"/>
	</g>
	<g id="Layer_2" display="inline">
		<g>
			<path d="M174.023,572.979c-6.767-6.343-14.046-11.69-19.332-18.401c-14.237-18.082-18.791-38.318-9.583-59.514
				c7.766-17.878,24.23-26.148,43.809-29.535c10.989-1.901,21.972-1.514,32.886,0.802c1.351,0.286,2.832,0.039,4.261,0.039
				c0.708-5.431,0.903-10.923,2.212-16.175c3.356-13.466,11.884-23.953,24.678-30.446c11.733-5.956,24.492-10.143,36.684-15.342
				c2.687-1.146,5.685-2.802,7.203-5.018c34.064-49.738,67.883-99.622,101.97-149.348c2.637-3.846,2.88-6.411-0.195-9.957
				c-6.831-7.879-9.494-16.876-7.123-26.984c2.915-12.428,20.062-26.099,38.742-20.133c7.475,2.388,7.489,2.06,11.825-4.346
				c9.587-14.16,18.64-28.684,29.075-42.281c12.813-16.693,31.442-21.258,52.508-18.51c16.284,2.124,27.382,10.604,36.081,23.635
				c44.891,67.231,90.335,134.142,135.527,201.198c10.495,15.574,20.649,31.35,31.257,46.856c1.517,2.216,4.457,4.181,7.174,4.989
				c14.055,4.18,28.125,8.192,40.465,16.112c15.879,10.191,24.813,23.842,24.562,42.169c-0.011,0.831,0.016,1.667,0.096,2.495
				c0.03,0.309,0.269,0.6,0.497,1.081c6.425-0.686,12.896-1.535,19.398-2.037c16.256-1.254,31.769,1.554,45.145,10.293
				c15.857,10.358,23.054,25.165,22.182,43.33c-1.226,25.453-14.937,43.551-38.329,56.638c4.326,6.378,8.652,12.773,12.997,19.159
				c26.658,39.187,53.336,78.363,79.976,117.562c10.979,16.155,12.394,32.939,2.563,49.883c-8.685,14.97-22.69,23.685-40.831,24.127
				c-38.773,0.947-77.579,0.736-116.365,1.31c-5.552,0.082-11.44,1.049-16.554,3.01c-71.82,27.544-143.513,55.38-215.29,83.021
				c-17.083,6.579-35.013,6.702-53.109,5.222c-20.401-1.668-37.641-11.429-55.685-18.901
				c-53.646-22.222-107.053-44.941-160.527-67.516c-7.898-3.334-15.966-5.03-24.76-4.995c-46.3,0.188-92.608,0.521-138.899-0.105
				c-42.876-0.58-62.746-41.849-45.173-71.014c12.253-20.34,26.52-39.636,40.098-59.271
				C135.489,628.09,155.037,600.216,174.023,572.979z M267.49,570.928c0,25.263-0.248,50.249,0.094,75.229
				c0.201,14.771,0.644,29.595,2.238,44.274c1.748,16.105,9.561,29.953,21.487,41.811c17.968,17.859,40.537,28.354,65.24,35.184
				c36.047,9.965,73.279,13.575,110.577,14.733c34.96,1.087,70.013-0.237,105.021-0.79c8.347-0.132,16.721-1.106,24.995-2.237
				c14.564-1.991,29.085-4.289,43.584-6.663c19.951-3.266,39.63-7.645,57.91-16.006c37.784-17.281,58.825-45.439,60.173-84.874
				c1.11-32.465,0.673-64.978,0.796-97.469c0.013-3.008,0.788-4.082,4.2-4.9c20.895-5.011,41.817-9.991,62.438-15.876
				c13.027-3.717,23.382-11.361,28.631-23.631c8.118-18.969-1.636-34.894-22.966-38.344c-13.931-2.253-27.188,1.315-40.617,3.477
				c-1.03,0.166-2.493,1.607-2.594,2.563c-0.486,4.575-0.573,9.187-0.825,14.258c2.313-0.273,3.857-0.512,5.415-0.631
				c11.307-0.862,22.607-2.218,33.927-2.369c7.95-0.105,11.629,6.07,9.368,13.301c-1.85,5.914-6.392,9.569-11.789,12.269
				c-20.146,10.068-41.718,15.758-65.01,17.9c0-12.019,0-23.72,0-35.827c-5.045,2.231-9.35,4.557-13.962,6.052
				c-4.08,1.322-5.19,3.342-5.179,7.292c0.147,46.99,0.186,93.982-0.019,140.974c-0.057,13.164-4.29,25.379-11.86,36.555
				c-14.02,20.7-34.855,33.161-59.225,40.025c-18.061,5.088-36.787,8.473-55.452,11.245c-21.067,3.129-42.354,6.124-63.625,6.702
				c-50.304,1.366-100.65,0.964-150.401-7.715c-19.13-3.337-38.231-6.869-56.359-13.919c-25.039-9.736-43.313-25.768-53.268-49.433
				c-5.06-12.029-4.109-24.776-4.017-37.416c0.32-43.488,0.419-86.978,0.548-130.467c0.003-1.204-0.248-3.194-0.989-3.49
				c-5.881-2.344-11.91-4.366-18.661-6.76c0,12.86,0,24.631,0,37.032c-6.277-1.234-12.001-2.25-17.667-3.495
				c-16.746-3.682-33.187-8.161-48.445-15.849c-5.976-3.011-10.15-7.171-11.604-13.451c-1.126-4.863,1.489-10.021,6.719-10.651
				c7.335-0.884,14.873-0.843,22.284-0.48c6.588,0.321,13.121,1.619,19.616,2.479c0.219-2.629-0.245-4.888,0.658-6.469
				c2.848-4.983,0.745-9.567-5.28-10.563c-3.144-0.52-6.29-1.027-9.434-1.548c-11.303-1.869-22.649-2.739-33.978-0.412
				c-10.625,2.182-20.743,11.096-21.3,19.369c-0.872,12.951,3.353,24.075,14.624,32.543c9.665,7.261,21.05,10.889,32.638,13.938
				C233.114,562.859,250.256,566.752,267.49,570.928z M521.852,411.979c-0.008,0.508-0.015,1.015-0.021,1.522
				c-22.87,0-45.759-0.536-68.604,0.152c-22.45,0.677-44.959,1.788-67.26,4.188c-25.024,2.691-49.912,6.685-74.729,10.8
				c-14.835,2.46-29.534,6.079-42.334,14.024c-17.501,10.864-18.302,31.607-1.147,42.873c8.471,5.563,17.915,10.234,27.568,13.768
				c29.594,10.833,60.506,17.125,91.757,22.456c32.504,5.545,65.267,8.543,98.152,9.502c51.759,1.512,103.43-0.034,154.766-7.626
				c32.332-4.779,63.95-11.78,94.271-23.332c10.559-4.021,20.36-9.448,28.176-17.508c9.817-10.124,10.082-23.348,0.892-33.904
				c-9.258-10.636-22.437-14.275-35.73-17.277c-42.442-9.581-85.76-13.854-129.176-16.882
				C572.972,412.958,547.382,412.842,521.852,411.979z M321.118,611.489c-0.228,0-0.452,0-0.677,0c0,2.997-0.028,5.993,0.005,8.99
				c0.2,18.128-0.193,36.283,0.785,54.375c1.099,20.341,15.813,31.239,34.028,39.046c1.23,0.526,2.787,0.718,4.145,0.597
				c3.18-0.284,5.106-3.906,3.115-6.19c-10.059-11.545-11.995-25.344-12.018-39.358c-0.055-36.318,0.436-72.64,0.681-108.958
				c0.046-6.694-3.651-10.211-11.064-10.452c-4.466-0.146-8.956,0.177-13.406-0.099c-4.166-0.256-5.699,1.082-5.666,5.07
				C321.206,573.502,321.118,592.496,321.118,611.489z M394.799,336.247c0.341,15.171,10.291,35.038,22.818,45.693
				c3.699,3.146,8.449,2.482,13.691-1.91c3.022-2.534,3.069-6.919,0.112-10.264c-1.694-1.917-3.495-3.762-5.057-5.77
				c-14.933-19.197-14.524-37.468,0.977-56.018c4.806-5.752,9.42-11.667,13.72-17.755c5.838-8.266,9.401-17.421,9.885-27.356
				c0.928-19.108-10.096-33.662-21.746-47.837c-2.298-2.797-6.279-3.078-9.239-1.249c-2.04,1.261-4.16,4.086-4.124,6.181
				c0.05,2.852,1.583,6.023,3.41,8.451c15.28,20.312,15.387,37.066,0.079,57.156c-3.401,4.463-6.932,8.852-10.098,13.456
				C401.413,310.394,394.325,322.053,394.799,336.247z M474.572,340.29c0.725,14.204,9.4,28.722,21.899,41.517
				c3.881,3.974,10.777,2.479,13.446-2.376c2.969-5.401-0.024-9.465-3.277-13.604c-15.903-20.234-16.616-37.202-2.334-56.069
				c4.308-5.69,9.108-11.066,13.235-16.863c10.598-14.886,16.59-30.881,10.568-48.79c-3.999-11.893-9.368-23.371-19.412-32.063
				c-2.075-1.796-6.372-2.693-9.128-2.059c-2.246,0.517-4.932,3.813-5.214,6.111c-0.315,2.559,1.264,5.809,3.057,8.028
				c18.035,22.322,18.247,41.844,0.664,64.106c-4.634,5.867-8.927,11.994-13.001,18.215
				C479.01,315.703,474.541,325.531,474.572,340.29z M605.768,270.773c0.74-8.57-2.061-16.339-8.83-22.787
				c-3.34-3.183-7.313-4.521-11.523-1.948c-3.988,2.436-4.331,6.052-2.506,10.107c5.294,11.778,3.835,22.938-3.727,33.546
				c-5.014,7.035-9.852,14.18-14.726,21.301c-17.704,25.862-6.89,52.977,11.848,71.465c1.882,1.857,6.833,2.562,9.56,1.671
				c2.47-0.807,5.449-4.592,5.333-6.94c-0.18-3.607-2.112-7.609-4.535-10.567c-9.906-12.095-14.146-25.578-9.764-40.158
				c2.02-6.719,7.438-12.633,11.722-18.661C596.65,296.496,606.077,285.822,605.768,270.773z M601.59,674.04
				c2.438-0.544,3.752-0.47,4.437-1.046c8.06-6.779,16.144-13.54,23.961-20.56c3.593-3.225,2.308-6.18-1.192-9.211
				c-3.575-3.098-7.566-4.177-10.91-1.297c-7.452,6.423-14.426,13.363-21.142,20.464c-1.325,1.401-1.52,4.86-0.617,6.673
				C597.212,671.253,600.021,672.697,601.59,674.04z M540.348,701.919c2.551-1.888,5.944-3.213,6.856-5.426
				c0.837-2.028-0.565-5.22-1.79-7.524c-1.232-2.316-3.731-4.02-5.203-6.261c-4.062-6.188-7.873-12.516-11.79-18.785
				c-2.616-4.188-6.59-4.27-10.132-0.98c-3.663,3.398-3.432,6.554-0.97,10.177c5.785,8.514,11.48,17.082,17.439,25.489
				C535.677,699.901,537.797,700.456,540.348,701.919z M588.328,600.365c0.137-5.241-1.522-7.922-5.644-8.73
				c-4.309-0.847-6.901,0.883-8.663,4.716c-3.607,7.857-7.425,15.651-11.639,23.238c-1.541,2.774-2.82,5.292-0.353,7.621
				c2.084,1.966,5.162,4.585,7.468,4.327c2.197-0.245,4.441-3.597,5.831-6.001c4.076-7.048,7.771-14.289,11.536-21.491
				C587.693,602.463,588.186,600.729,588.328,600.365z M433.234,658.938c1.834-0.578,2.818-0.653,3.467-1.13
				c9.492-6.969,19.067-13.847,28.315-21.089c2.671-2.091,2.816-5.567,0.339-8.092c-2.57-2.617-5.882-2.961-9.081-0.568
				c-9.021,6.746-18.16,13.367-26.915,20.402c-1.417,1.138-2.075,4.505-1.346,6.183C428.845,656.548,431.633,657.71,433.234,658.938
				z"/>
			<path d="M523.749,428.756c28.793,1.291,56.662,2.088,84.454,3.9c34.931,2.278,69.713,6.063,103.779,13.955
				c9.391,2.175,18.759,5.02,27.526,8.789c9.771,4.199,10.303,10.066,2.801,17.166c-10.556,9.987-23.928,15.872-37.86,19.67
				c-20.693,5.64-41.725,10.632-62.954,14.042c-47.931,7.699-96.316,10.745-144.965,8.353c-22.264-1.095-44.585-1.976-66.721-4.293
				c-40.185-4.206-80.211-9.637-118.418-22.869c-10.358-3.588-20.436-7.772-28.096-15.704c-6.456-6.687-6.261-12.326,2.594-15.773
				c12.831-4.996,26.142-9.459,39.704-12.157c18.715-3.724,37.795-6.082,56.83-8.114c18.76-2.004,37.637-3.288,56.502-4.141
				C467.48,430.288,496.068,429.646,523.749,428.756z M459.568,461.811c0.084-5.734-1.956-7.78-7.406-8.254
				c-4.171-0.36-5.894,1.674-6.648,5.405c-1.01,4.993-2.667,9.874-4.109,14.787c-1.513,5.144-5.291,7.521-10.908,7.771
				c-5.337,0.237-10.669,0.6-15.998,0.99c-5.664,0.415-8.085,2.873-7.462,7.414c0.578,4.205,4.96,7.709,9.292,7.036
				c6.796-1.057,13.627-2.096,20.286-3.704c8.791-2.123,15.083-6.896,17.355-15.641c1.113-4.281,3.046-8.376,4.57-12.566
				C459.042,463.668,459.43,462.251,459.568,461.811z M552.827,464.187c-2.446,1.368-5.967,2.22-7.084,4.229
				c-1.61,2.901-2.406,6.993,1.57,9.386c5.346,3.217,10.8,6.366,16.549,8.862c1.916,0.832,5.469,0.276,7.188-0.958
				c1.464-1.051,2.197-4.129,1.815-6.063C571.476,472.61,561.301,465.326,552.827,464.187z M621.673,497.497
				c5.581,0.008,8.188-2.008,8.146-6.298c-0.05-4.938-3.77-7.802-10.044-7.683c-5.376,0.103-5.44,3.927-5.604,7.364
				C613.938,495.763,616.049,497.489,621.673,497.497z M488.497,493.616c0.135-7.4-2.441-10.07-7.62-10.109
				c-4.679-0.035-7.317,2.544-7.339,7.176c-0.021,4.438,2.661,6.863,7.706,6.795C485.466,497.42,488.368,495.829,488.497,493.616z"
				/>
		</g>
	</g>
</g>
<g id="Layer_2_1_">
	<g>
		<path fill-rule="evenodd" clip-rule="evenodd" d="M618.17,100.344c27.278-23.475,58.216-36.75,92.985-40.954
			c7.403-0.896,14.929-0.783,22.607-1.146c1.869,40.336-1.241,77.989-23.933,111.202c-15.385,22.516-35.711,38.732-62.542,45.729
			c-4.98,1.298-10.177,1.769-15.812,2.711c1.531,12.515,3.021,24.967,4.586,37.412c2.04,16.219,3.99,32.453,6.322,48.63
			c0.559,3.866,1.713,8.063,3.884,11.221c84.065,122.326,168.28,244.549,252.479,366.784c6.646,9.65,13.123,19.427,20.023,28.892
			c6.963,9.555,11.274,20.192,12.71,31.738c0.617,4.96-0.491,10.433-2,15.307c-6.532,21.095-18.871,37.334-41.149,43.005
			c-8.658,2.204-18.159,2.547-27.116,1.809c-17.207-1.417-31.801,3.677-46.838,11.888
			c-77.594,42.369-125.368,62.434-203.737,103.346c-44.991,23.486-151.5,22.417-196.67-0.243
			c-32.688-16.399-169.622-85.653-221.206-113.28c-1.852-0.991-4.224-1.387-6.361-1.411c-11.738-0.134-23.478-0.056-35.217-0.068
			c-33.67-0.039-55.811-24.139-59.882-54.89c-1.748-13.198,4.091-25.112,11.524-35.895c19.741-28.634,39.585-57.194,59.391-85.782
			c55.291-79.81,110.572-159.625,165.881-239.423c14.621-21.096,29.16-42.252,44.112-63.112c3.645-5.085,5.388-10.365,6.039-16.334
			c3.41-31.231,6.417-62.515,10.407-93.672c5.497-42.927,11.748-85.757,17.674-128.628c0.077-0.553,0.1-1.116,0.22-1.658
			c3.466-15.715,6.557-17.817,25.698-20.921c30.124-4.882,60.458-5.293,90.788-4.378c23.026,0.694,46.079,2.233,68.983,4.671
			c18.618,1.982,21.259,5.579,24.401,24.634C617.055,91.368,617.48,95.245,618.17,100.344z M598.594,142.744
			c0.121-1.498,0.261-2.018,0.188-2.506c-2.346-15.98-4.61-31.974-7.237-47.908c-0.249-1.507-2.689-3.629-4.28-3.788
			c-18.494-1.849-36.994-3.838-55.543-4.881c-31.871-1.793-63.628,0.667-95.33,3.85c-3.31,0.333-5.923,1.053-6.447,5.23
			c-1.341,10.683-3.18,21.302-4.575,31.979c-3.177,24.316-6.262,48.646-9.284,72.984c-3.297,26.559-6.661,53.111-9.657,79.704
			c-2.955,26.228-5.515,52.501-8.196,78.76c-2.803,27.445-4.766,54.883-0.896,82.429c4.322,30.757,14.482,59.194,34.16,83.479
			c13.94,17.205,29.132,33.388,43.396,50.338c15.248,18.121,22.869,39.262,23.136,62.967c0.615,54.585,1.139,109.171,1.773,163.755
			c0.266,22.856-10.779,40.994-31.12,49.641c-7.471,3.176-15.29,5.813-23.196,7.617c-9.56,2.182-19.374,3.268-29.092,4.737
			c-6.061,0.917-9.285,4.45-8.918,10.034c0.331,5.028,3.376,7.739,8.92,7.747c62.23,0.088,124.461,0.132,186.692,0.28
			c4.023,0.008,6.865-1.208,8.339-5.05c1.594-4.155,0.717-8.163-2.707-10.514c-2.893-1.983-6.694-3.117-10.234-3.602
			c-16.184-2.218-32.438-3.821-47.433-11.215c-20.239-9.979-31.1-25.438-30.785-48.62c0.745-54.77,0.743-109.549,1.713-164.313
			c0.396-22.374,6.523-43.141,21.666-60.68c13.863-16.058,26.88-32.845,40.637-48.998c22.261-26.14,34.95-56.424,38.746-90.276
			c3.797-33.863,0.391-67.689-2.482-101.453c-1.45-17.047-3.327-34.059-5.128-51.073c-2.016-19.038-4.262-38.054-6.169-57.103
			c-0.36-3.592-2.016-4.824-5.171-5.908c-11.379-3.91-22.845-7.693-33.886-12.438c-20.455-8.789-36.597-22.646-46.735-42.822
			c-7.667-15.255-11.304-31.713-14.101-48.405c-0.708-4.228,2.24-4.8,5.089-4.695c7.976,0.292,16.069,0.186,23.882,1.562
			C560.728,117.536,580.791,126.792,598.594,142.744z M631.931,196.725c55.898-16.521,77.492-56.644,76.493-111.524
			c-18.965,0.209-36.555,5.228-52.917,14.664c-17.333,9.999-28.947,24.692-32.834,44.289c-2.734,13.784-3.404,27.978-4.939,41.995
			c-0.116,1.057,0.228,2.164,0.359,3.249c6.591-17.995,15.265-34.495,26.911-49.362c11.688-14.92,25.477-27.379,43.62-36.355
			c-0.599,5.468-0.77,10.07-1.718,14.504c-0.519,2.427-1.768,5.443-3.674,6.716C657.287,142.23,642.296,167.266,631.931,196.725z
			 M539.194,135.181c3.956,33.67,19.264,46.557,56.702,59.12C583.319,168.472,568.04,145.804,539.194,135.181z"/>
		<path fill-rule="evenodd" clip-rule="evenodd" d="M591.731,242.027c1.963,23.302,3.947,46.259,5.815,69.226
			c1.75,21.507,3.599,43.01,5.007,64.541c2.302,35.188,0.923,70.129-14.228,102.699c-6.441,13.85-14.566,27.378-24.24,39.152
			c-13.912,16.934-29.738,32.325-45.143,47.986c-8.025,8.159-11.345,8.281-18.878-0.23c-19.452-21.98-42.037-41.303-57.469-66.724
			c-16.874-27.8-26.096-57.876-25.026-90.532c0.833-25.47,2.425-50.926,4.178-76.354c2.058-29.88,4.616-59.728,7.038-89.582
			c0.993-12.239,2.295-24.452,3.241-36.694c0.241-3.124,1.535-3.879,4.462-4.255c27.269-3.491,53.123,1.233,78.301,11.969
			c21.117,9.003,42.624,17.099,64.03,25.413C582.767,240.174,587.054,240.827,591.731,242.027z M555.058,335.649
			c0.005-13.606-11.202-24.766-24.822-24.715c-13.189,0.048-24.423,11.725-24.359,25.322c0.063,13.372,11.28,24.86,24.25,24.838
			C543.777,361.07,555.053,349.562,555.058,335.649z M486.531,437.284c13.312,0.001,24.493-11.013,24.728-24.357
			c0.235-13.478-11.052-25.065-24.542-25.194c-13.609-0.131-24.474,10.96-24.458,24.964
			C462.274,426.25,473.166,437.282,486.531,437.284z M490.01,257.034c-8.395,0.016-14.795,6.754-14.713,15.492
			c0.077,8.236,6.785,14.961,14.854,14.895c7.58-0.063,14.57-7.45,14.585-15.413C504.751,263.722,498.158,257.018,490.01,257.034z
			 M533.812,476.599c0.033-8.491-6.296-15.141-14.449-15.185c-8.11-0.044-14.689,6.729-14.614,15.045
			c0.077,8.347,6.638,14.929,14.832,14.878C527.526,491.287,533.78,484.811,533.812,476.599z"/>
		<path fill-rule="evenodd" clip-rule="evenodd" d="M530.187,346.724c-5.984,0.005-10.79-4.595-10.864-10.4
			c-0.08-6.366,4.891-11.183,11.426-11.072c5.937,0.102,10.667,4.814,10.697,10.66C541.476,341.632,536.178,346.719,530.187,346.724
			z"/>
		<path fill-rule="evenodd" clip-rule="evenodd" d="M497.112,412.627c0,6.123-4.852,10.895-10.948,10.767
			c-5.468-0.115-10.454-5.29-10.49-10.888c-0.039-5.955,4.949-11.014,10.854-11.009C492.45,401.501,497.112,406.404,497.112,412.627
			z"/>
	</g>
</g>
</svg>
