<?xml version="1.0" encoding="utf-8"?>
<!-- Generator: Adobe Illustrator 16.0.0, SVG Export Plug-In . SVG Version: 6.00 Build 0)  -->
<!DOCTYPE svg PUBLIC "-//W3C//DTD SVG 1.1//EN" "http://www.w3.org/Graphics/SVG/1.1/DTD/svg11.dtd">
<svg version="1.1" xmlns="http://www.w3.org/2000/svg" xmlns:xlink="http://www.w3.org/1999/xlink" x="0px" y="0px" width="1024px"
	 height="1024px" viewBox="0 0 1024 1024" enable-background="new 0 0 1024 1024" xml:space="preserve">
<g id="Layer_1" display="none">
	<path display="inline" fill-rule="evenodd" clip-rule="evenodd" d="M700.29,337.519c55.732,87.883,111.593,175.685,167.452,263.487
		c21.24,33.386,42.795,66.574,63.718,100.158c22.815,36.622,4.173,81.982-38.931,91.049c-2.899,0.609-5.971,0.545-8.962,0.549
		c-29.665,0.037-59.33,0.022-88.995,0.022c0-0.006,0-0.012,0-0.018c-30.499,0-60.997,0.055-91.495-0.06l-361.859,0.069
		c-65.663,0.011-131.326-0.041-196.989,0.089c-24.093,0.048-42.862-9.763-54.159-30.93c-11.075-20.751-9.03-42.013,3.421-61.657
		c31.511-49.713,63.545-99.094,95.246-148.687c46.741-73.122,93.461-146.259,139.793-219.64l63.959-90.916
		c16.837-26.534,33.911-52.919,50.735-79.462c16.295-25.708,39.892-38.659,69.947-38.838c26.772-0.159,49.159,10.511,64.305,32.92
		c18.891,27.952,36.699,56.638,54.828,85.1L700.29,337.519z"/>
</g>
<g id="Layer_2">
	<g>
		<path fill-rule="evenodd" clip-rule="evenodd" d="M604.938,196.554c16.483-29.28,32.728-57.696,48.501-86.37
			c6.705-12.189,16.349-19.739,29.932-22.192c9.52-1.719,18.907-0.276,27.812,2.999c34.298,12.614,66.883,28.715,96.953,49.574
			c5.369,3.724,10.179,8.599,14.311,13.701c11.361,14.026,11.712,29.153,1.996,44.502c-22.664,35.809-45.243,71.669-67.843,107.519
			c-2.604,4.129-4.787,8.567-7.725,12.438c-11.286,14.87-14.369,32.559-17.76,50.178c-0.657,3.413-0.896,7.071-2.35,10.129
			c-3.414,7.179-1.111,12.637,2.872,18.964c65.516,104.059,130.769,208.285,196.104,312.457
			c6.532,10.413,11.92,21.083,12.654,33.789c1.337,23.092-14.979,43.019-36.718,49.512c-4.938,1.476-10.294,2.161-15.461,2.176
			c-57.984,0.16-115.97,0.118-173.954,0.13c-1.37,0-2.739,0-4.283,0.741c7.351,2.893,14.966,5.261,21.992,8.799
			c10.365,5.221,21.325,10.026,30.206,17.253c14.493,11.792,14.421,27.414,1.417,40.978c-11.291,11.777-25.759,18.371-40.862,23.538
			c-24.125,8.252-49.046,12.908-74.324,16.02c-32.008,3.94-64.11,6.411-96.316,4.526c-26.654-1.561-53.372-3.432-79.796-7.09
			c-29.325-4.058-58.128-11.126-84.667-25.042c-16.557-8.682-30.353-20.178-35.173-39.333c-1.301-5.173-1.646-10.66-1.796-16.021
			c-0.085-2.993-1.081-4.625-3.44-6.266c-7.595-5.281-14.917-10.959-22.55-16.184c-2.118-1.449-4.949-2.616-7.457-2.624
			c-59.736-0.179-119.474-0.349-179.209-0.119c-18.751,0.072-33.254-7.156-43.187-22.819c-11.272-17.774-10.803-35.941,0.292-53.671
			c34.422-55.009,68.98-109.93,103.469-164.896c78.514-125.132,157-250.282,235.544-375.395
			c12.52-19.944,24.552-40.251,38.095-59.486c22.127-31.426,62.8-27.771,82.651,0.003c17.219,24.091,32.227,49.761,48.212,74.733
			C603.535,194.422,604.007,195.129,604.938,196.554z M743.085,275.927c0.894-1.16,1.48-1.81,1.943-2.538
			c18.613-29.276,37.222-58.557,55.818-87.846c4.438-6.99,4.4-9.057-0.729-15.565c-1.378-1.749-3.119-3.407-5.038-4.507
			c-18.854-10.807-37.461-22.111-56.793-31.992c-13.711-7.008-28.305-12.375-42.749-17.825c-7.48-2.823-13.884-0.452-17.022,5.132
			c-16.724,29.739-33.35,59.535-50.205,89.664C671.346,223.747,709.646,245.207,743.085,275.927z M438.553,431.375
			c-2.354,0-4.501-0.366-6.479,0.057c-24.124,5.16-48.518,9.37-72.254,15.947c-30.609,8.482-58.357,22.821-80.685,46.304
			c-22.414,23.571-23.519,53.293-2.905,78.331c15.448,18.765,35.622,30.685,57.485,39.98
			c55.545,23.614,114.174,31.921,173.944,33.561c30.806,0.845,61.415-2.272,91.867-7.085c30.856-4.876,61.033-12.193,89.847-24.383
			c23.996-10.15,46.484-22.74,62.936-43.775c14.232-18.199,18.897-38.052,8.014-59.472c-9.397-18.492-25.051-30.982-42.858-42.022
			c-1.774,4.974-3.647,9.467-4.883,14.129c-0.385,1.448,0.442,3.958,1.598,4.943c4.784,4.07,10.201,7.415,14.853,11.616
			c21.859,19.74,24.588,45.543,2.952,67.144c-13.867,13.846-30.447,23.293-48.302,30.628
			c-52.533,21.584-107.767,29.139-164.047,30.398c-27.643,0.617-55.13-1.957-82.524-5.949
			c-31.107-4.533-61.525-11.505-90.664-23.425c-19.635-8.033-38.319-17.681-53.16-33.462c-15.115-16.073-16.652-37.548-3.687-55.348
			c8.531-11.712,20.107-19.78,32.495-26.809c27.469-15.586,57.577-23.299,88.225-29.35c9.46-1.868,18.942-3.626,28.233-5.4
			C438.553,441.906,438.553,436.708,438.553,431.375z M258.06,577.534c0,1.304-0.03,2.466,0.004,3.626
			c0.742,25.342,2.701,50.567,8.437,75.331c14.894,64.298,49.633,114.219,107.437,147.185
			c39.079,22.288,81.417,32.813,126.179,34.432c35.665,1.291,70.907-1.512,104.928-12.784
			c79.018-26.181,131.671-78.097,153.81-159.35c6.413-23.538,8.692-47.64,10.03-71.87c0.299-5.41,0.044-10.853,0.044-16.836
			c-4.926,6.63-9.478,12.387-13.578,18.448c-1.863,2.753-3.55,5.989-4.091,9.212c-2.737,16.305-4.096,32.898-7.725,48.986
			c-11.883,52.678-39.367,95.264-84.078,126.261c-40.808,28.291-86.958,39.093-135.643,40.938
			c-31.227,1.184-62.036-2.614-92.048-11.511c-43.284-12.832-80.257-35.537-108.485-71.277
			c-29.083-36.822-41.518-79.873-46.344-125.702c-0.562-5.333-0.254-11.451-2.821-15.722
			C269.905,589.893,263.669,584.104,258.06,577.534z M733.263,292.156c-34.063-29.572-72.171-51.076-115.688-62.394
			c-6.698,11.265-13.075,21.989-19.539,32.859c42.737,14.522,82.108,34.511,116.172,63.585
			C720.622,314.743,726.808,303.689,733.263,292.156z M635.169,300.737c-2.207,3.309-4.313,6.468-6.421,9.626
			c-33.604,50.337-64.821,102.093-91.363,156.525c-6.591,13.514-11.191,27.999-16.641,42.064c-1.409,3.639-0.505,6.902,3.28,8.163
			c4.01,1.334,5.907-1.544,7.356-4.882c3.249-7.489,6.155-15.188,10.094-22.309c26.73-48.308,53.697-96.485,80.58-144.711
			c7.35-13.184,14.67-26.386,22.183-39.902C640.919,303.638,638.178,302.255,635.169,300.737z M591.518,282.552
			c-3.138-1.067-5.659-2.236-8.305-2.707c-1.523-0.271-3.748,0.038-4.811,1.011c-28.812,26.379-57.341,53.064-82.856,82.731
			c-17.348,20.172-32.456,41.598-35.235,69.219c-1.586,15.766,1.05,30.597,10.114,43.93c2.118,3.115,4.942,3.886,8.144,2.038
			c3.29-1.899,3.053-4.941,1.468-7.75c-6.984-12.375-7.586-25.426-4.785-39.025c4.253-20.647,15.087-37.916,28.564-53.391
			c21.262-24.413,43.319-48.134,65.124-72.072C576.224,298.539,583.763,290.775,591.518,282.552z M659.953,313.943
			c-0.528,0.662-0.938,1.021-1.156,1.472c-20.157,41.846-39.926,83.884-60.572,125.487c-14.42,29.055-29.795,57.663-52.516,81.476
			c-1.098,1.152-1.57,4.166-0.837,5.474c0.896,1.601,3.433,3.277,5.151,3.17c2.136-0.132,4.504-1.689,6.178-3.263
			c16.941-15.922,30.941-34.356,42.198-54.492c26.016-46.533,47.64-95.174,66.692-144.955
			C668.579,319.201,668.527,319.181,659.953,313.943z M618.258,292.36c-4.914-0.305-8.208-6.572-13.218-0.511
			c-24.947,30.179-50.245,60.078-71.74,92.916c-16.361,24.995-32.089,50.429-36.904,80.538c-1.711,10.695-0.728,21.853-0.586,32.795
			c0.047,3.676,2.985,5.733,6.517,5.087c3.456-0.631,5.301-3.095,4.377-6.998c-0.397-1.682-0.467-3.454-0.558-5.192
			c-1.065-20.577,5.042-39.45,15.558-56.595c16.049-26.168,32.72-51.985,49.96-77.386
			C586.361,335.358,602.233,314.499,618.258,292.36z M683.723,328.14c-12.376,33.653-24.315,66.988-36.904,100.076
			c-10.02,26.337-20.668,52.488-36.858,75.819c-8.182,11.792-17.192,22.989-30.666,29.374c-3.257,1.543-6,3.552-4.176,7.583
			c1.718,3.792,4.956,4.918,8.685,2.88c5.479-2.995,11.165-5.788,16.143-9.5c17.526-13.068,29.012-31,38.631-50.163
			c22.636-45.091,37.883-92.899,51.689-141.252c1.815-6.361,1.334-10.495-4.668-13.472
			C684.996,329.188,684.49,328.698,683.723,328.14z M311.376,649.316c-0.279,0.088-0.559,0.177-0.838,0.265
			c2.141,7.302,3.927,14.73,6.484,21.884c10.724,29.993,25.854,57.207,51.242,77.448c6.494,5.178,13.655,9.636,20.923,13.681
			c4.371,2.434,8.916,0.916,12.058-3.212c2.935-3.855,2.428-8.056-1.394-12.306c-1.276-1.418-2.768-2.669-4.275-3.851
			c-13.151-10.31-24.54-22.267-34.455-35.737c-12.564-17.071-19.101-36.998-27.522-56.065c-2.011-4.554-5.233-9.075-9.053-12.202
			c-4.894-4.006-11.739-0.431-12.833,5.917C311.476,646.509,311.482,647.922,311.376,649.316z M704.809,345.656
			c-3.459,13.861-6.938,27.969-10.505,42.055c-7.75,30.618-14.726,61.481-26.427,90.931c-7.383,18.581-16.423,36.275-31.579,49.971
			c-6.504,5.878-13.526,11.209-22.38,12.912c-4.309,0.828-6.632,2.896-5.58,7.008c1.011,3.958,4.221,4.935,8.254,3.969
			c18.351-4.396,32.256-15.506,43.877-29.628c14.072-17.104,21.87-37.466,28.551-58.266c10.504-32.705,16.549-66.406,22.014-100.224
			C712.193,357.201,714.542,349.558,704.809,345.656z M314.22,556.982c5.697,4.588,9.866,7.944,14.294,11.51
			c14.449-13.283,31.252-21.554,49.044-28c22.665-8.212,46.091-13.095,70.023-15.669c4.908-0.527,8.762-4.045,9.146-8.467
			c0.42-4.817-2.306-7.672-6.387-9.024c-2.205-0.731-4.875-0.516-7.257-0.177c-8.439,1.201-16.882,2.441-25.255,4.023
			c-28.694,5.42-56.438,13.706-81.483,29.184C328.881,544.975,322.232,550.905,314.22,556.982z M377.583,828.314
			c1.62,3.552,2.855,7.351,4.933,10.609c5.476,8.586,14.159,13.38,22.903,17.763c10.624,5.326,21.679,9.628,33.837,9.765
			c5.975,0.066,9.453-2.458,10.091-6.954c0.703-4.959-1.976-8.383-7.773-9.957c-0.843-0.229-1.65-0.601-2.501-0.781
			C418.077,844.287,397.769,837.843,377.583,828.314z M478.369,308.12c2.013-2.081,5.058-3.877,5.723-6.321
			c0.583-2.142-0.735-6.17-2.54-7.37c-11.731-7.801-23.76-15.166-35.833-22.438c-4.823-2.905-9.291-1.9-11.43,1.896
			c-2.27,4.028-0.685,8.373,4.182,11.271c11.217,6.681,22.442,13.351,33.691,19.977C473.78,306.087,475.553,306.776,478.369,308.12z
			 M520.787,270.549c2.338-1.764,5.311-2.875,5.954-4.777c0.807-2.38,0.654-6.088-0.74-8.043
			c-7.283-10.213-15.036-20.096-22.746-29.998c-2.649-3.402-5.983-4.862-9.934-1.835c-3.409,2.612-4.159,7.495-1.341,11.154
			c7.656,9.947,15.444,19.794,23.327,29.562C516.5,268.091,518.484,268.932,520.787,270.549z M448.312,355.523
			c6.992,0.337,10.187-1.556,10.757-5.384c0.655-4.386-1.765-7.229-7.362-8.23c-11.453-2.048-22.92-4.021-34.4-5.911
			c-4.793-0.789-9.159,2.183-9.861,6.418c-0.63,3.808,2.642,8.142,7.25,8.792C426.39,352.861,438.124,354.233,448.312,355.523z
			 M373.089,587.272c1.808-0.217,3.008-0.049,3.863-0.513c7.468-4.058,15.032-7.979,22.224-12.489
			c2.929-1.836,3.796-5.291,2.227-8.855c-1.792-4.068-5.261-6.221-9.226-5.212c-10.595,2.694-20.08,7.881-27.843,15.64
			c-3.258,3.256-1.845,7.926,2.44,9.697C368.992,586.457,371.434,586.833,373.089,587.272z"/>
	</g>
</g>
</svg>
