<?xml version="1.0" encoding="utf-8"?>
<!-- Generator: Adobe Illustrator 16.0.0, SVG Export Plug-In . SVG Version: 6.00 Build 0)  -->
<!DOCTYPE svg PUBLIC "-//W3C//DTD SVG 1.1//EN" "http://www.w3.org/Graphics/SVG/1.1/DTD/svg11.dtd">
<svg version="1.1" xmlns="http://www.w3.org/2000/svg" xmlns:xlink="http://www.w3.org/1999/xlink" x="0px" y="0px" width="1024px"
	 height="1024px" viewBox="0 0 1024 1024" enable-background="new 0 0 1024 1024" xml:space="preserve">
<g id="Layer_1" display="none">
	<path display="inline" fill-rule="evenodd" clip-rule="evenodd" d="M700.29,337.519c55.732,87.883,111.593,175.685,167.452,263.487
		c21.24,33.386,42.795,66.574,63.718,100.158c22.815,36.622,4.173,81.982-38.931,91.049c-2.899,0.609-5.971,0.545-8.962,0.549
		c-29.665,0.037-59.33,0.022-88.995,0.022c0-0.006,0-0.012,0-0.018c-30.499,0-60.997,0.055-91.495-0.06l-361.859,0.069
		c-65.663,0.011-131.326-0.041-196.989,0.089c-24.093,0.048-42.862-9.763-54.159-30.93c-11.075-20.751-9.03-42.013,3.421-61.657
		c31.511-49.713,63.545-99.094,95.246-148.687c46.741-73.122,93.461-146.259,139.793-219.64l63.959-90.916
		c16.837-26.534,33.911-52.919,50.735-79.462c16.295-25.708,39.892-38.659,69.947-38.838c26.772-0.159,49.159,10.511,64.305,32.92
		c18.891,27.952,36.699,56.638,54.828,85.1L700.29,337.519z"/>
</g>
<g id="Layer_2">
	<g>
		<path fill-rule="evenodd" clip-rule="evenodd" d="M818.953,789.749c-18.814,0-37.633,0.207-56.443-0.104
			c-7.467-0.122-14.237,1.658-20.915,4.607c-63.917,28.215-127.674,56.803-191.861,84.391c-23.869,10.259-48.874,9.83-72.748-0.893
			c-61.712-27.719-123.148-56.048-184.834-83.826c-5.609-2.526-12.21-3.949-18.364-3.995c-45.396-0.337-90.794-0.172-136.192-0.213
			c-12.513-0.013-24.104-3.048-34.42-10.5c-19.913-14.382-25.705-42.759-12.639-63.566c27.073-43.115,54.321-86.122,81.374-129.251
			c39.117-62.36,78.119-124.793,117.181-187.188c6.846-10.935,13.87-21.763,20.513-32.821c1.393-2.318,2.272-5.498,2.034-8.16
			c-2.182-24.522-4.822-49.003-7.003-73.525c-1.572-17.677-3.011-35.38-3.828-53.104c-0.616-13.359,6.55-23.05,18.29-28.024
			c9.5-4.026,19.856-7.004,30.089-8.138c26.015-2.883,52.18-4.404,78.262-6.712c1.917-0.169,4.348-1.856,5.383-3.547
			c11.949-19.496,23.771-39.071,35.438-58.739c19.804-33.381,65.773-33.337,87.574-0.219c12.757,19.38,24.442,39.469,36.383,59.376
			c1.948,3.249,4.102,4.175,7.754,4.506c31.849,2.896,64.009,3.59,95.217,11.412c14.278,3.578,25.755,11.498,28.222,27.315
			c1.015,6.511-0.103,13.401-0.606,20.092c-1.86,24.743-3.879,49.476-5.817,74.214c-1.4,17.866-2.924,35.727-3.972,53.615
			c-0.149,2.555,1.713,5.485,3.25,7.847c32.359,49.759,65.053,99.303,97.172,149.216c38.63,60.027,76.87,120.307,115.112,180.583
			c18.952,29.873,2.463,67.547-32.631,73.039c-15.386,2.407-31.271,1.743-46.938,2.19c-10.002,0.286-20.021,0.053-30.032,0.053
			C818.953,789.703,818.953,789.726,818.953,789.749z M513.475,801.229c36.685-0.651,73.069-3.062,108.98-10.5
			c19.278-3.994,33.555-14.344,36.3-34.974c3.152-23.703,5.028-47.588,7.068-71.428c1.778-20.777,3.022-41.601,4.486-62.405
			c1.646-23.383,3.284-46.767,4.902-70.152c1.154-16.68,2.252-33.364,3.408-50.044c1.265-18.226,2.567-36.45,3.851-54.674
			c1.164-16.506,2.333-33.011,3.48-49.518c1.268-18.226,2.504-36.454,3.77-54.68c1.219-17.541,2.462-35.079,3.685-52.619
			c1.198-17.194,2.343-34.392,3.604-51.581c0.436-5.95-2.494-9.739-7.344-12.507c-6.534-3.729-13.624-4.485-20.961-3.978
			c-15.649,1.085-31.289,2.402-46.954,3.194c-29.451,1.49-58.913,3.534-88.381,3.762c-34.146,0.265-68.309-0.992-102.453-1.975
			c-12.731-0.366-25.425-1.935-38.15-2.75c-13.929-0.891-27.868-1.979-41.815-2.194c-17.476-0.268-24.566,8.076-22.993,25.159
			c1.376,14.928,2.277,29.899,3.345,44.854c1.228,17.196,2.42,34.394,3.606,51.592c1.575,22.873,3.162,45.745,4.681,68.622
			c1.178,17.719,2.2,35.448,3.395,53.166c1.576,23.387,3.315,46.763,4.868,70.15c1.2,18.062,2.117,36.14,3.345,54.198
			c1.906,28.031,3.858,56.059,5.999,84.073c1.93,25.248,3.922,50.495,6.296,75.705c1.987,21.097,13.033,35.175,34,40.223
			c10.49,2.524,21.156,4.905,31.872,5.783C457.364,798.024,485.434,799.455,513.475,801.229z"/>
		<path fill-rule="evenodd" clip-rule="evenodd" d="M344.109,240.366c4.952-0.239,9.754-0.964,14.476-0.615
			c21.467,1.589,42.881,4.238,64.371,5.097c39.293,1.572,78.626,2.909,117.943,2.885c28.425-0.017,56.866-2.12,85.269-3.83
			c15.104-0.91,30.128-3.062,45.211-4.398c2.536-0.225,5.188,0.849,8.012,1.365c-0.851,12.765-1.615,24.954-2.487,37.134
			c-1.208,16.85-2.501,33.695-3.75,50.543c-1.593,21.485-3.184,42.971-4.768,64.457c-1.18,15.987-2.342,31.975-3.521,47.962
			c-1.242,16.843-2.509,33.684-3.744,50.527c-1.183,16.157-2.3,32.319-3.521,48.474c-1.572,20.798-3.41,41.578-4.779,62.39
			c-1.391,21.157-2.236,42.35-3.531,63.514c-1.253,20.475-2.354,40.975-4.361,61.38c-0.943,9.584-7.612,16.395-15.223,21.869
			c-12.02,8.645-25.953,12.3-40.255,14.718c-35.443,5.995-71.222,4.465-106.878,3.856c-22.491-0.383-45.083-1.845-66.982-8.001
			c-10.55-2.966-20.301-7.398-28.08-15.499c-5.869-6.112-8.999-13.4-9.497-21.716c-1.873-31.327-3.367-62.679-5.427-93.992
			c-2.037-30.954-4.686-61.867-6.879-92.811c-1.949-27.511-3.56-55.044-5.473-82.559c-1.876-27-3.952-53.986-5.926-80.98
			c-1.823-24.925-3.551-49.856-5.462-74.773C347.427,278.837,345.778,260.328,344.109,240.366z M476.124,396.277
			c-16.274-11.843-34.303-14.125-53.014-13.609c-6.114,0.169-7.513,1.411-6.866,7.427c0.733,6.811,1.74,13.627,3.176,20.323
			c8.311,38.736,29.909,65.758,68.825,77.254c5.338,1.577,10.773,2.828,16.865,4.412c0,28.793,0,57.212,0,85.415
			c-4.048-6.56-7.876-13.482-12.38-19.934c-18.978-27.185-43.988-43.106-78.332-41.312c-6.34,0.332-7.075,0.938-6.091,6.872
			c0.898,5.417,1.577,10.888,2.822,16.225c7.068,30.302,23.735,52.656,53.641,63.703c9.157,3.384,18.46,6.388,27.772,9.326
			c8.523,2.69,11.662,8.604,11.871,17.167c0.18,7.387,1.044,14.78,2.014,22.116c0.65,4.914,4.111,6.849,9.519,6.126
			c4.337-0.581,6.484-2.217,6.243-7.38c-0.554-11.886,0.008-23.819-0.386-35.718c-0.34-10.26,3.774-17.199,13.373-20.896
			c2.399-0.925,4.734-2.021,7.093-3.051c11.166-4.869,22.658-9.112,33.427-14.74c23.839-12.461,38.54-32.125,43.646-58.707
			c1.491-7.761-0.039-9.786-8.029-10.293c-12.169-0.773-24.063,0.584-35.421,5.272c-18.961,7.827-32.263,21.895-42.684,39.052
			c-3.324,5.473-6.399,11.097-9.589,16.652c-0.358-0.092-0.716-0.184-1.073-0.276c0-25.267,0-50.535,0-75.846
			c2.211-0.536,4.202-1.012,6.188-1.503c55.59-13.749,77.582-52.858,82.311-100.805c0.444-4.507-1.614-6.645-5.624-6.733
			c-6.883-0.151-13.827-0.303-20.653,0.417c-12.211,1.287-23.573,5.501-34.616,12.406c1.894-34.735-13.928-60.422-38.099-82.2
			C487.974,338.208,477.606,360.178,476.124,396.277z M629.316,672.14c-78.061,0-155.771,0-233.768,0
			c0,2.467-0.006,4.69,0.001,6.914c0.027,8.696,1.529,10.116,10.228,10.227c28.996,0.369,57.991,1.161,86.985,1.118
			c40.55-0.061,81.117-0.135,121.636-1.468C627.939,688.485,630.81,691.152,629.316,672.14z M376.903,285.022
			c0.81,13.659,1.444,24.318,2.074,34.978c0.741,12.555,1.367,25.117,2.264,37.66c0.492,6.882,3.897,9.239,11.326,8.432
			c5.988-0.65,8.251-3.77,7.759-10.404c-0.319-4.296-0.468-8.605-0.638-12.912c-0.729-18.432-1.367-36.868-2.187-55.296
			c-0.306-6.871-4.021-10.354-10.35-10.276C380.505,277.284,376.911,281.08,376.903,285.022z"/>
		<path fill-rule="evenodd" clip-rule="evenodd" d="M587.074,403.617c0.455,33.742-29.61,64.865-64.454,66.722
			C520.194,437.279,558.856,404.125,587.074,403.617z"/>
		<path fill-rule="evenodd" clip-rule="evenodd" d="M512.707,342.055c14.339,21.75,23.084,43.576,15.294,68.748
			c-1.686,5.451-5.82,10.293-9.418,14.959c-3.114,4.04-7.061,3.243-10.839,0.267c-7.218-5.684-10.228-13.575-11.711-22.206
			C492.144,381.18,500.739,361.856,512.707,342.055z"/>
		<path fill-rule="evenodd" clip-rule="evenodd" d="M440.406,405.558c36.811,5.949,64.846,35.651,61.511,64.85
			C458.46,463.365,441.887,433.322,440.406,405.558z"/>
		<path fill-rule="evenodd" clip-rule="evenodd" d="M490.903,590.877c-32.403-5.148-53.62-16.843-61.052-52.014
			C451.455,533.378,479.429,557.063,490.903,590.877z"/>
		<path fill-rule="evenodd" clip-rule="evenodd" d="M539.971,574.993c7.822-15.179,14.719-30.026,28.766-39.749
			c7.628-5.281,16.609-7.782,26.87-7.425C585.864,553.631,565.124,566.153,539.971,574.993z"/>
	</g>
</g>
</svg>
