<?xml version="1.0" encoding="utf-8"?>
<!-- Generator: Adobe Illustrator 16.0.0, SVG Export Plug-In . SVG Version: 6.00 Build 0)  -->
<!DOCTYPE svg PUBLIC "-//W3C//DTD SVG 1.1//EN" "http://www.w3.org/Graphics/SVG/1.1/DTD/svg11.dtd">
<svg version="1.1" id="Layer_1" xmlns="http://www.w3.org/2000/svg" xmlns:xlink="http://www.w3.org/1999/xlink" x="0px" y="0px"
	 width="1024px" height="1024px" viewBox="0 0 1024 1024" enable-background="new 0 0 1024 1024" xml:space="preserve">
<path fill-rule="evenodd" clip-rule="evenodd" d="M794.572,792.767c-30.499,0-60.997,0.055-91.495-0.06
	c-4.485-0.017-7.815,1.298-10.954,4.651c-12.298,13.137-24.904,25.986-37.322,39.012c-4.133,4.335-8.309,8.671-12.014,13.362
	c-17.101,21.661-40.139,33.253-66.324,39.69c-29.35,7.217-59.201,9.049-89.168,6.812c-22.189-1.656-44.222-5.366-64.701-14.848
	c-13.6-6.295-25.259-15.38-35.153-26.654c-6.937-7.905-11.621-16.798-13.041-27.468c-1.452-10.919-6.641-20.079-15.041-27.334
	c-5.218-4.507-11.163-7.155-18.141-7.154c-65.663,0.011-131.326-0.041-196.989,0.089c-24.093,0.048-42.862-9.763-54.159-30.93
	c-11.075-20.751-9.03-42.013,3.421-61.657c31.511-49.713,63.545-99.094,95.246-148.687c46.741-73.122,93.461-146.259,139.793-219.64
	c2.24-3.548,1.55-9.655,0.731-14.309c-4.108-23.351,6.002-40.239,24.282-52.818c9.359-6.44,19.871-11.277,30.124-16.307
	c3.751-1.841,6.581-3.952,8.821-7.482c16.837-26.534,33.911-52.919,50.735-79.462c16.295-25.708,39.892-38.659,69.947-38.838
	c26.772-0.159,49.159,10.511,64.305,32.92c18.891,27.952,36.699,56.638,54.828,85.1c2.192,3.441,4.854,5.443,8.66,6.83
	c15.751,5.737,30.431,13.404,42.443,25.414c9.871,9.87,15.286,21.58,14.599,35.812c-0.314,6.489-0.652,13.005-0.375,19.483
	c0.134,3.125,1.002,6.611,2.659,9.224c55.732,87.883,111.593,175.685,167.452,263.487c21.24,33.386,42.795,66.574,63.718,100.158
	c22.815,36.622,4.173,81.982-38.931,91.049c-2.899,0.609-5.971,0.545-8.962,0.549c-29.665,0.037-59.33,0.022-88.995,0.022
	C794.572,792.778,794.572,792.772,794.572,792.767z M515.739,259.468c-12.483,0-24.976-0.302-37.448,0.065
	c-23.503,0.691-46.626,4.422-69.373,10.226c-14.631,3.732-29.03,8.32-41.585,17.18c-8.185,5.776-12.728,13.413-11.894,23.771
	c0.909,11.287,1.615,22.591,2.574,33.873c2.103,24.712,4.34,49.413,6.462,74.124c1.48,17.233,2.825,34.479,4.297,51.712
	c1.87,21.89,3.847,43.77,5.706,65.66c2.127,25.047,4.107,50.106,6.278,75.15c1.81,20.873,3.857,41.726,5.697,62.597
	c1.841,20.883,3.484,41.784,5.343,62.666c2.154,24.208,5.082,48.367,6.47,72.617c1.012,17.667,8.832,30.205,23.602,39.038
	c17.094,10.223,35.869,15.563,55.384,18.24c26.245,3.602,52.476,2.841,78.551-1.932c18.092-3.312,35.403-8.771,50.817-19.193
	c8.113-5.486,14.373-12.468,16.369-22.341c0.983-4.861,1.222-9.879,1.692-14.835c1.966-20.703,3.9-41.409,5.831-62.116
	c1.792-19.224,3.521-38.454,5.357-57.674c1.82-19.033,3.777-38.054,5.606-57.086c1.876-19.535,3.649-39.08,5.505-58.617
	c2.142-22.539,4.391-45.068,6.47-67.614c1.849-20.042,3.457-40.106,5.306-60.148c1.802-19.542,3.877-39.058,5.646-58.603
	c2.042-22.546,3.365-45.171,5.982-67.647c1.878-16.127-3.562-27.793-17.8-35.032c-8.242-4.191-16.76-8.137-25.563-10.881
	C590.809,261.374,553.527,257.785,515.739,259.468z"/>
<path fill-rule="evenodd" clip-rule="evenodd" d="M393.572,508.802c79.467,29.384,158.39,28.572,237.936-0.294
	c-0.329,4.565-0.582,9.461-1.048,14.336c-2.217,23.183-4.457,46.364-6.754,69.539c-2.03,20.5-4.179,40.988-6.216,61.487
	c-2.188,22.022-4.301,44.052-6.458,66.077c-0.795,8.112-1.989,16.205-2.345,24.336c-0.524,12.038-6.956,20.05-16.488,26.27
	c-12.481,8.146-26.513,12.224-40.951,14.661c-33.76,5.699-67.229,4.202-100.1-5.793c-10.543-3.205-20.533-7.702-28.729-15.437
	c-4.462-4.211-6.502-9.273-6.998-15.434c-1.672-20.733-3.726-41.436-5.601-62.153c-1.47-16.231-2.849-32.471-4.348-48.699
	c-1.529-16.552-3.195-33.091-4.729-49.643c-1.457-15.73-2.81-31.472-4.228-47.206c-0.808-8.953-1.654-17.901-2.481-26.853
	C393.872,512.226,393.72,510.452,393.572,508.802z M451.518,730.721c-0.699-7.774-1.406-15.057-2.001-22.348
	c-1.622-19.896-3.174-39.799-4.799-59.695c-1.381-16.895-2.754-33.79-4.265-50.673c-1.229-13.732-2.485-27.467-4.085-41.158
	c-0.595-5.087-2.949-9.557-8.114-11.739c-4.658-1.969-8.733,0.701-8.249,5.671c1.884,19.333,3.959,38.647,5.936,57.972
	c1.878,18.363,3.74,36.728,5.573,55.095c2.013,20.172,3.73,40.379,6.21,60.492c0.444,3.606,3.33,7.56,6.213,10.054
	C447.497,737.472,451.466,734.942,451.518,730.721z"/>
<path fill-rule="evenodd" clip-rule="evenodd" d="M647.551,341.107c-0.793,8.849-1.565,17.938-2.431,27.021
	c-1.513,15.883-2.987,31.77-4.652,47.636c-1.976,18.839-4.114,37.66-6.226,56.483c-0.698,6.228-4.923,9.996-9.712,13.211
	c-12.179,8.176-25.936,12.598-40.006,15.875c-31.985,7.45-64.4,9.743-97.176,7.299c-25.797-1.923-51.187-5.578-75.133-16.062
	c-2.43-1.063-4.831-2.207-7.174-3.448c-8.608-4.561-15.009-10.186-15.263-21.327c-0.298-13.11-2.103-26.187-3.279-39.275
	c-1.487-16.56-3.063-33.111-4.48-49.678c-1.104-12.901-2.021-25.819-2.982-38.209C468.602,369.589,557.658,368.382,647.551,341.107z
	 M430.041,468.246c-0.304-0.119-0.606-0.237-0.909-0.356c-0.883-10.941-1.809-21.88-2.638-32.825
	c-1.055-13.932-1.701-27.906-3.259-41.779c-0.423-3.761-3.054-7.583-5.549-10.667c-1.161-1.436-4.854-2.168-6.604-1.402
	c-1.728,0.756-2.93,3.685-3.48,5.881c-0.545,2.174-0.135,4.64,0.109,6.95c2.251,21.332,4.528,42.662,6.869,63.985
	c0.585,5.327,1.383,10.808,6.265,14.047c1.665,1.104,4.513,1.397,6.432,0.806C428.555,472.49,429.144,469.87,430.041,468.246z"/>
<path fill-rule="evenodd" clip-rule="evenodd" d="M511.655,340.543c-34.821,0.344-69.465-1.828-103.019-12.157
	c-7.885-2.427-15.415-6.013-23.086-9.122c-1.063-0.431-2.019-1.15-2.986-1.792c-9.039-5.985-9.234-11.968-0.307-18.06
	c11.195-7.64,24.014-11.627,37.104-13.743c20.95-3.387,42.033-6.682,63.183-7.906c23.057-1.336,46.289-1.086,69.377-0.033
	c26.225,1.194,52.354,4.381,77.13,13.892c6.561,2.519,12.885,6.187,18.547,10.371c5.67,4.19,5.343,8.623-0.158,13.212
	c-9.162,7.641-20.432,11.004-31.581,14.149c-25.058,7.07-50.78,10.105-76.736,11.132
	C529.979,340.847,520.812,340.543,511.655,340.543z"/>
<path fill-rule="evenodd" clip-rule="evenodd" d="M604.932,789.901c-0.112,1.711-0.273,4.098-0.426,6.484
	c-0.395,6.142-0.825,12.281-1.167,18.427c-0.528,9.482-6.733,14.85-14.106,19.198c-12.913,7.618-27.159,11.367-41.846,13.386
	c-20.688,2.844-41.473,3.288-62.254,1.046c-16.075-1.734-31.69-5.32-46.205-12.773c-2.065-1.061-4.131-2.154-6.07-3.425
	c-6.672-4.372-11.508-9.692-11.662-18.478c-0.139-7.94-1.299-15.863-2.008-23.788C481.403,814.94,542.964,815.02,604.932,789.901z"
	/>
</svg>
