<?xml version="1.0" encoding="utf-8"?>
<!-- Generator: Adobe Illustrator 16.0.0, SVG Export Plug-In . SVG Version: 6.00 Build 0)  -->
<!DOCTYPE svg PUBLIC "-//W3C//DTD SVG 1.1//EN" "http://www.w3.org/Graphics/SVG/1.1/DTD/svg11.dtd">
<svg version="1.1" xmlns="http://www.w3.org/2000/svg" xmlns:xlink="http://www.w3.org/1999/xlink" x="0px" y="0px" width="1024px"
	 height="1024px" viewBox="0 0 1024 1024" enable-background="new 0 0 1024 1024" xml:space="preserve">
<g id="Layer_1" display="none">
	<path display="inline" fill-rule="evenodd" clip-rule="evenodd" d="M700.29,337.519c55.732,87.883,111.593,175.685,167.452,263.487
		c21.24,33.386,42.795,66.574,63.718,100.158c22.815,36.622,4.173,81.982-38.931,91.049c-2.899,0.609-5.971,0.545-8.962,0.549
		c-29.665,0.037-59.33,0.022-88.995,0.022c0-0.006,0-0.012,0-0.018c-30.499,0-60.997,0.055-91.495-0.06l-361.859,0.069
		c-65.663,0.011-131.326-0.041-196.989,0.089c-24.093,0.048-42.862-9.763-54.159-30.93c-11.075-20.751-9.03-42.013,3.421-61.657
		c31.511-49.713,63.545-99.094,95.246-148.687c46.741-73.122,93.461-146.259,139.793-219.64l63.959-90.916
		c16.837-26.534,33.911-52.919,50.735-79.462c16.295-25.708,39.892-38.659,69.947-38.838c26.772-0.159,49.159,10.511,64.305,32.92
		c18.891,27.952,36.699,56.638,54.828,85.1L700.29,337.519z"/>
</g>
<g id="Layer_2">
	<g>
		<path fill-rule="evenodd" clip-rule="evenodd" d="M806.736,787.395c-28.579,0-57.161,0.14-85.738-0.117
			c-5.744-0.052-9.998,1.744-13.984,5.651c-13.361,13.098-27.586,25.388-40.212,39.148c-19.596,21.359-43.395,34.937-71.142,42.024
			c-33.254,8.494-67.035,12.77-101.31,9.385c-19.838-1.959-39.692-4.749-59.206-8.78c-30.541-6.309-53.744-24.008-71.083-49.69
			c-7.308-10.825-14.883-21.471-22.065-32.377c-2.908-4.418-6.351-6.294-11.761-6.276c-65.674,0.197-131.354-0.14-197.024,0.415
			c-22.715,0.192-42.388-15.605-46.068-38.429c-2.049-12.708,1.208-24.508,8.022-35.392
			c46.684-74.564,93.328-149.152,140.011-223.717c39.04-62.353,78.043-124.729,117.284-186.955
			c3.982-6.314,4.636-12.294,4.126-19.617c-3.567-51.285,12.476-95.504,49.432-131.627c21.228-20.75,46.271-34.834,75.656-40.025
			c82.604-14.591,158.472,29.96,182.857,110.174c6.511,21.415,7.619,43.366,5.3,65.5c-0.63,6.017,1.265,10.862,4.325,15.742
			c30.715,48.965,61.259,98.037,92.032,146.965c47.56,75.62,95.293,151.133,142.873,226.74c8.03,12.762,15.993,25.586,23.408,38.708
			c16.514,29.223,4.269,64.569-32.36,71.22c-1.989,0.361-4.06,0.378-6.092,0.38c-29.094,0.023-58.188,0.016-87.283,0.016
			C806.736,786.772,806.736,787.084,806.736,787.395z M518.242,437.619c-43.377,0.515-86.677,1.56-129.764,6.855
			c-13.109,1.611-26.128,3.879-38.154,9.733c-14.178,6.902-12.812,8.325-11.062,21.038c4.062,29.486,9.346,58.804,14.14,88.188
			c4.688,28.72,9.431,57.432,14.063,86.16c4.255,26.392,8.375,52.804,12.59,79.201c3.974,24.891,7.941,49.782,12.011,74.657
			c3.038,18.566,10.989,32.564,30.663,38.878c34.917,11.206,70.336,16.858,107.002,14.743c25.661-1.48,50.594-6.153,75.019-14.32
			c16.941-5.664,25.508-17.155,28.265-34.224c3.64-22.543,7.701-45.018,11.521-67.532c4.331-25.522,8.661-51.046,12.873-76.589
			c4.928-29.883,9.64-59.802,14.606-89.678c5.578-33.548,11.427-67.051,16.855-100.623c0.46-2.841-0.649-6.508-2.251-9.01
			c-6.038-9.426-14.937-15.71-25.819-17.45c-19.044-3.043-38.219-5.852-57.444-7.056
			C575.033,438.817,546.617,438.537,518.242,437.619z M514.357,398.354c9.096-0.978,18.234-1.657,27.277-2.989
			c29.118-4.289,52.721-18.339,71.831-40.584c27.658-32.196,35.774-69.62,29.74-110.671c-5.573-37.911-25.231-67.345-57.032-88.128
			c-29.279-19.136-61.882-23.851-96.055-18.02c-32.592,5.562-59.632,21.123-79.789,47.397
			c-25.094,32.71-32.465,69.709-24.593,109.998c7.627,39.044,29.492,68.152,63.332,87.874
			C468.91,394.794,491.517,397.475,514.357,398.354z"/>
		<path fill-rule="evenodd" clip-rule="evenodd" d="M663.801,496.841c-2.75,15.912-5.327,30.54-7.802,45.186
			c-4.313,25.527-8.614,51.057-12.828,76.601c-4.074,24.708-8.052,49.432-12.027,74.156c-0.94,5.849-1.578,11.747-2.575,17.585
			c-2.485,14.553-10.452,25.534-22.57,33.597c-15.919,10.59-33.736,16.153-52.453,18.983c-21.768,3.29-43.702,3.73-65.592,1.935
			c-21.548-1.769-42.367-6.605-61.551-17.246c-17.187-9.533-26.09-23.784-28.488-43.417c-3.054-25.011-7.699-49.827-11.678-74.725
			c-3.847-24.06-7.692-48.119-11.588-72.171c-2.839-17.537-5.771-35.061-8.628-52.595c-0.351-2.148-0.497-4.33-0.888-7.856
			C464.806,517.382,563.927,518.104,663.801,496.841z M503.282,554.162c0.097-0.681,0.194-1.362,0.292-2.042
			c-1.888-1.256-3.617-3.058-5.693-3.663c-5.484-1.601-11.102-3.686-16.696-3.773c-14.727-0.232-29.519-0.129-44.189,1.039
			c-11.174,0.888-22.569,1.84-32.563,8.38c-8.39,5.489-10.771,10.265-0.961,18.58c5.224,4.429,12.201,7.358,18.864,9.419
			c23.924,7.402,48.655,9.958,73.579,11.631c36.219,2.428,71.869-0.408,106.975-9.557c8.825-2.301,17.729-4.876,24.273-11.944
			c2.554-2.759,4.826-5.732,3.198-10.13c-0.872-0.089-1.726-0.365-2.502-0.222c-2.486,0.462-4.976,0.963-7.408,1.651
			c-30.865,8.736-62.377,12.416-94.407,12.686c-23.315,0.196-46.556-0.452-69.581-4.269c-8.292-1.374-16.405-3.834-24.6-5.8
			c0.654-1.544,1.038-1.885,1.48-2.007c20.381-5.569,41.109-8.541,62.266-8.536C498.166,555.606,500.724,554.667,503.282,554.162z
			 M460.43,717.741c-0.049-0.678-0.078-1.358-0.147-2.034c-3-29.004-6.021-58.007-8.999-87.015
			c-0.824-8.031-3.801-11.718-11.623-14.088c-6.291-1.905-9.593,0.198-9.784,6.769c-0.147,5.073,0.119,10.192,0.642,15.245
			c1.695,16.343,3.496,32.675,5.453,48.987c1.127,9.404,2.285,18.831,4.097,28.117c1.224,6.265,7.598,10.405,13.971,10.483
			C458.542,724.26,460.684,722.261,460.43,717.741z"/>
		<path fill-rule="evenodd" clip-rule="evenodd" d="M620.221,758.926c-1.792,11.513-3.232,21.891-5.074,32.198
			c-1.243,6.961-2.631,13.957-4.806,20.662c-0.931,2.865-3.563,5.843-6.224,7.371c-14.461,8.294-30.565,11.614-46.789,14.209
			c-20.188,3.227-40.574,4.233-60.947,3.008c-24.784-1.489-48.843-6.763-71.981-16.007c-4.151-1.659-6.946-4.338-7.867-8.558
			c-2.518-11.535-4.878-23.105-7.129-34.695c-1.157-5.956-1.943-11.983-2.997-18.604c32.564,21.547,68.598,28.231,106.307,27.748
			C550.205,785.779,586.647,780.505,620.221,758.926z"/>
		<path fill-rule="evenodd" clip-rule="evenodd" d="M663.768,470.068c-5.166,8.822-12.971,10.918-20.876,12.048
			c-21.104,3.018-42.208,6.462-63.437,8.101c-25.387,1.96-50.909,3.071-76.367,2.962c-21.522-0.092-43.145-1.524-64.523-4.06
			c-21.594-2.561-42.946-7.179-64.387-10.984c-2.3-0.409-4.759-1.014-6.66-2.265c-1.701-1.121-3.687-3.181-3.834-4.967
			c-0.218-2.648,1.216-4.877,4.768-5.318c16.963-2.114,33.833-5.555,50.85-6.553c27.3-1.6,54.692-2.217,82.044-2.197
			c29.578,0.022,59.181,0.693,88.72,2.149c19.956,0.983,39.85,3.586,59.707,5.989C654.441,465.538,658.853,468.217,663.768,470.068z
			"/>
		<path fill-rule="evenodd" clip-rule="evenodd" d="M521.21,203.09c0-10.522,0.069-21.045-0.025-31.567
			c-0.058-6.485,4.748-11.791,12.622-11.799c19.497-0.021,35.76,7.418,48.255,22.657c2.588,3.156,2.079,5.636-0.802,8.282
			c-16.752,15.389-33.434,30.853-50.15,46.279c-0.87,0.802-1.744,1.765-2.8,2.16c-1.492,0.559-3.49,1.332-4.648,0.758
			c-1.084-0.537-1.882-2.704-1.901-4.167c-0.154-10.866-0.085-21.736-0.085-32.604C521.521,203.091,521.365,203.091,521.21,203.09z"
			/>
		<path fill-rule="evenodd" clip-rule="evenodd" d="M505.618,200.459c0,10.866,0.208,21.739-0.159,32.592
			c-0.083,2.446-1.607,5.833-3.52,6.896c-1.369,0.761-5.052-1.058-6.745-2.708c-16.168-15.765-32.158-31.714-48.138-47.67
			c-3.854-3.849-3.785-6.078,0.371-10.356c8-8.234,18.212-12.864,28.832-16.362c6.502-2.142,13.397-3.447,20.217-4.165
			c6.47-0.682,8.679,1.626,8.805,8.158c0.217,11.202,0.06,22.41,0.06,33.615C505.434,200.459,505.526,200.459,505.618,200.459z"/>
		<path fill-rule="evenodd" clip-rule="evenodd" d="M451.166,275.971c9.866-0.002,19.738-0.169,29.595,0.13
			c2.141,0.066,5.511,1.377,6.026,2.893c0.684,2.013-0.187,5.344-1.615,7.126c-3.278,4.091-7.238,7.649-11.028,11.313
			c-12.47,12.058-24.987,24.067-37.487,36.093c-5.114,4.92-6.676,5.123-11.138-0.139c-10.271-12.112-16.961-26.088-19.664-41.732
			c-1.642-9.508,4.411-15.495,15.203-15.652C431.091,275.858,441.129,275.973,451.166,275.971z"/>
		<path fill-rule="evenodd" clip-rule="evenodd" d="M574.761,275.177c10.695,0,21.413,0.432,32.078-0.132
			c8.966-0.475,14.863,1.194,14.505,13.365c-0.524,17.851-7.433,33.906-20.567,46.681c-2.889,2.812-5.682,2.813-8.753-0.315
			c-15.708-16.008-31.635-31.805-47.277-47.877c-2.015-2.07-2.823-5.314-4.19-8.015c3.074-0.971,6.115-2.634,9.228-2.781
			c8.309-0.393,16.649-0.133,24.977-0.133C574.761,275.706,574.761,275.441,574.761,275.177z"/>
		<path fill-rule="evenodd" clip-rule="evenodd" d="M521.674,333.248c0-10.024-0.059-20.051,0.052-30.074
			c0.021-1.964,0.338-4.089,1.155-5.842c1.381-2.961,3.543-4.033,6.34-1.275c17.771,17.521,35.584,34.999,53.25,52.623
			c0.781,0.781,0.939,3.481,0.248,4.224c-3.547,3.806-6.965,8.127-11.353,10.676c-12.183,7.078-25.539,10.601-39.737,10.394
			c-7.528-0.11-10.033-2.709-10.021-10.14c0.017-10.195,0.004-20.39,0.004-30.584C521.633,333.248,521.654,333.248,521.674,333.248z
			"/>
		<path fill-rule="evenodd" clip-rule="evenodd" d="M449.154,259.651c-11.025,0-22.059,0.263-33.071-0.101
			c-6.383-0.211-8.445-3.062-8.842-9.386c-1.182-18.847,7.286-33.987,18.442-48.034c3.006-3.785,6.581-3.786,10.035-0.415
			c16.527,16.128,33.03,32.281,49.41,48.558c1.399,1.39,3.046,4.474,2.436,5.514c-1.073,1.829-3.768,3.708-5.844,3.778
			c-10.845,0.367-21.708,0.172-32.564,0.172C449.155,259.708,449.154,259.68,449.154,259.651z"/>
		<path fill-rule="evenodd" clip-rule="evenodd" d="M578.488,260.187c-9.351,0-18.702,0.013-28.053-0.015
			c-1.352-0.004-2.831,0.102-4.025-0.392c-1.919-0.793-4.662-1.701-5.168-3.199c-0.492-1.454,0.933-4.172,2.306-5.547
			c15.731-15.752,31.632-31.336,47.447-47.006c6.472-6.413,8.319-6.5,14.147,0.443c10.602,12.627,15.716,27.496,16.987,43.737
			c0.542,6.927-2.92,11.094-10.016,11.366c-11.192,0.431-22.415,0.115-33.624,0.115C578.49,259.854,578.488,260.02,578.488,260.187z
			"/>
		<path fill-rule="evenodd" clip-rule="evenodd" d="M505.342,333.008c-0.001,10.372,0.008,20.744-0.003,31.116
			c-0.009,7.688-2.167,9.833-10.007,9.914c-16.448,0.17-31.384-4.327-44.475-14.48c-7.351-5.701-7.693-9.593-1.131-16.187
			c14.511-14.583,29.003-29.189,43.76-43.52c2.429-2.359,6.486-5.112,9.23-4.613c4.604,0.84,2.458,5.933,2.541,9.207
			C505.497,313.96,505.342,323.486,505.342,333.008z"/>
	</g>
</g>
</svg>
