<?xml version="1.0" encoding="utf-8"?>
<!-- Generator: Adobe Illustrator 16.0.0, SVG Export Plug-In . SVG Version: 6.00 Build 0)  -->
<!DOCTYPE svg PUBLIC "-//W3C//DTD SVG 1.1//EN" "http://www.w3.org/Graphics/SVG/1.1/DTD/svg11.dtd">
<svg version="1.1" id="Layer_1" xmlns="http://www.w3.org/2000/svg" xmlns:xlink="http://www.w3.org/1999/xlink" x="0px" y="0px"
	 width="1024px" height="1024px" viewBox="0 0 1024 1024" enable-background="new 0 0 1024 1024" xml:space="preserve">
<path fill-rule="evenodd" clip-rule="evenodd" d="M507.212,125.321c92.771,0.872,172.82,24.861,242.961,77.654
	c71.38,53.727,118.779,124.121,141.135,210.88c9.327,36.198,13.478,73.145,12.466,110.479
	c-2.358,87.031-29.471,165.41-84.51,233.291c-58.524,72.18-133.506,118.129-224.416,137.715
	c-33.364,7.188-67.276,9.321-101.238,7.284c-81.954-4.916-156.62-30.863-221.325-81.918
	c-71.005-56.024-118.316-127.803-138.842-216.54c-9.085-39.279-11.963-79.026-9.096-119.114
	c5.603-78.327,31.458-149.322,80.143-211.168c52.301-66.44,119.391-111.361,201.071-134.098
	C440.592,130.036,476.362,125.843,507.212,125.321z M630.049,585.24c-0.025,0-0.05,0-0.074,0c0-46.663,0.043-93.326-0.05-139.989
	c-0.014-6.399-0.214-12.869-1.157-19.181c-3.752-25.114-16.428-44.924-35.777-61.193c-7.844-6.593-13.998-15.185-21.05-22.746
	c-0.98-1.05-2.704-1.982-4.09-1.992c-35.906-0.232-71.814-0.356-107.722-0.383c-1.414-0.001-3.625,0.744-4.12,1.783
	c-5.263,11.038-14.451,18.457-23.511,25.985c-22.033,18.31-34.214,41.857-34.347,70.362c-0.46,98.355-0.24,196.712-0.217,295.07
	c0.002,9.725,3.771,18.139,10.064,25.442c9.809,11.388,22.709,14.943,37.187,14.918c44.234-0.076,88.47,0.037,132.705-0.034
	c5.872-0.01,11.936,0.156,17.583-1.161c21.841-5.092,34.557-21.68,34.568-44.29C630.065,680.301,630.049,632.771,630.049,585.24z
	 M582.797,314.588c-0.535-17.064-0.997-33.846-1.628-50.623c-0.2-5.316-4.291-10.035-9.51-10.7
	c-5.126-0.654-10.341-0.893-15.516-0.864c-32.764,0.175-65.529,0.366-98.289,0.819c-7.284,0.101-11.745,4.534-11.884,11.794
	c-0.313,16.413-0.098,32.836-0.098,49.573C491.194,314.588,536.878,314.588,582.797,314.588z"/>
</svg>
