<?xml version="1.0" encoding="utf-8"?>
<!-- Generator: Adobe Illustrator 16.0.0, SVG Export Plug-In . SVG Version: 6.00 Build 0)  -->
<!DOCTYPE svg PUBLIC "-//W3C//DTD SVG 1.1//EN" "http://www.w3.org/Graphics/SVG/1.1/DTD/svg11.dtd">
<svg version="1.1" id="Layer_1" xmlns="http://www.w3.org/2000/svg" xmlns:xlink="http://www.w3.org/1999/xlink" x="0px" y="0px"
	 width="1024px" height="1024px" viewBox="0 0 1024 1024" enable-background="new 0 0 1024 1024" xml:space="preserve">
<g id="Layer_1_1_" display="none">
	<path display="inline" d="M700.29,337.519c55.731,87.883,111.593,175.685,167.452,263.487
		c21.24,33.386,42.795,66.574,63.718,100.158c22.815,36.622,4.173,81.981-38.931,91.049c-2.899,0.609-5.972,0.545-8.962,0.549
		c-29.665,0.037-59.33,0.022-88.995,0.022c0-0.006,0-0.012,0-0.019c-30.499,0-60.997,0.056-91.495-0.06l-361.859,0.069
		c-65.663,0.011-131.326-0.041-196.989,0.089c-24.093,0.048-42.862-9.764-54.159-30.931c-11.075-20.751-9.03-42.013,3.421-61.656
		c31.511-49.714,63.545-99.095,95.246-148.688c46.741-73.122,93.461-146.259,139.793-219.64l63.959-90.916
		c16.837-26.534,33.911-52.919,50.734-79.462c16.295-25.708,39.893-38.659,69.947-38.838c26.772-0.159,49.159,10.511,64.305,32.92
		c18.892,27.952,36.699,56.638,54.828,85.1L700.29,337.519z"/>
</g>
<g>
	<path fill-rule="evenodd" clip-rule="evenodd" d="M294.351,405.719c48.65-76.074,97.103-151.845,145.561-227.613
		c9.6-15.011,19.615-29.772,28.751-45.06c20.125-33.679,68.146-30.017,87.321,0.538c29.313,46.71,58.933,93.228,88.504,139.777
		c23.145,36.433,46.436,72.773,69.571,109.212c1.727,2.719,3.323,4.043,6.856,3.535c22.463-3.23,44.362-0.16,64.685,9.462
		c36.811,17.43,60.126,46.485,68.337,86.513c6.554,31.952,0.321,62.6-12.8,92.038c-1.13,2.532-1.422,4.365,0.26,6.943
		c29.104,44.631,57.527,89.718,87.265,133.922c20.32,30.206,4.407,66.329-29.128,75.312c-7.363,1.972-15.208,2.915-22.842,2.979
		c-40.059,0.332-80.12,0.191-120.181,0.356c-2.976,0.012-6.18,0.614-8.883,1.825c-48.837,21.884-97.566,44.006-146.427,65.838
		c-17.474,7.809-34.902,15.924-52.939,22.216c-24.454,8.529-49.283,7.854-73.148-2.87c-62.204-27.955-124.253-56.252-186.447-84.23
		c-3.904-1.757-8.516-2.71-12.804-2.73c-44.187-0.199-88.375-0.165-132.563-0.114c-14.304,0.017-27.337-3.553-38.897-12.295
		c-20.635-15.604-25.391-41.283-11.316-62.953c22.391-34.476,44.899-68.877,67.312-103.34
		c16.062-24.697,32.355-49.254,47.837-74.312c3.52-5.698,4.649-13.1,5.957-19.895c3.807-19.788,5.433-39.659,2.384-59.831
		c-2.086-13.798-9.237-24.793-17.101-35.623c-6.472-8.915-12.37-18.13-14.438-29.204c-2.025-10.845,4.352-18.905,15.41-19.413
		c16.129-0.742,32.261-1.431,48.397-2.016c15.691-0.569,27.715,6.351,36.926,18.642
		C288.637,397.154,291.227,401.188,294.351,405.719z M509.756,735.551c0-0.008,0-0.016,0-0.025c40.57,0,81.138,0.044,121.708-0.097
		c2.754-0.01,5.821-0.865,8.202-2.255c11.542-6.733,21.737-15.289,29.416-26.194c31.152-44.239,37.891-93.347,27.342-145.385
		c-5.24-25.847-17.561-48.681-32.534-70.215c-11.855-17.049-25.086-32.682-42.44-44.398c-1.732-1.169-3.999-2.253-5.995-2.214
		c-18.729,0.363-37.45,1.289-56.177,1.453c-31.452,0.274-62.911,0.425-94.36,0.022c-21.808-0.279-43.601-1.621-65.406-2.356
		c-2.45-0.083-5.542-0.103-7.28,1.228c-5.573,4.264-11.05,8.801-15.844,13.907c-14.52,15.468-25.916,33.199-36.283,51.628
		c-14.446,25.677-23.832,52.975-25.586,82.514c-1.811,30.485,4.214,59.642,16.715,87.413c10.235,22.736,26.145,40.471,48.177,52.43
		c2.314,1.257,5.058,2.43,7.607,2.439C427.93,735.597,468.844,735.551,509.756,735.551z M215.081,402.289
		c1.909,2.538,3.308,4.452,4.762,6.323c8.084,10.406,16.415,20.583,20.377,33.578c7.369,24.164,5.183,48.415,1.481,72.771
		c-2.909,19.132-6.075,38.179-3.79,57.761c3.071,26.327,13.08,49.41,30.201,69.463c6.38,7.473,18.549,14.529,24.509,15.276
		c-1.619-15.568-4.313-31.338-4.682-47.161c-0.759-32.561,5.188-63.967,19.819-93.413c0.608-1.224,0.816-3.464,0.11-4.403
		c-15.144-20.137-23.489-42.979-27.706-67.608c-2.366-13.819-7.055-26.702-16.503-37.546c-3.957-4.541-7.949-7.435-14.493-6.72
		c-7.833,0.855-15.783,0.619-23.68,0.93C222.268,401.668,219.056,401.997,215.081,402.289z M508.531,375.025
		c0-0.086,0-0.173,0-0.261c32.648,0,65.295,0.026,97.941-0.019c7.127-0.01,8.436-1.949,5.698-8.364
		c-7.597-17.802-21.769-28.546-38.925-36.064c-16.877-7.396-34.793-9.791-52.943-10.909c-23.606-1.455-46.986-0.253-69.461,7.909
		c-20.13,7.31-36.087,19.478-44.031,40.225c-2.618,6.837-2.017,7.501,5.338,7.494C444.276,375.01,476.403,375.025,508.531,375.025z
		 M677.782,471.271c1.295-1.657,2.477-3.062,3.547-4.549c17.678-24.557,41.85-32.467,70.905-27.41
		c42.139,7.336,57.726,49.241,51.894,81.753c-4.188,23.351-14.907,43.591-29.806,61.7c-12.771,15.524-25.763,30.886-41.899,43.196
		c-2.082,1.589-4.533,3.829-5.044,6.156c-2.73,12.417-4.899,24.959-7.262,37.461c1.174-0.739,2.899-1.497,4.21-2.704
		c10.328-9.509,20.832-18.848,30.792-28.73c17.566-17.43,34.002-35.824,48.147-56.262c19.505-28.183,29.192-58.98,23.827-93.085
		c-9.254-58.813-73.04-91.953-126.775-66.606c-15.342,7.236-27.511,18.226-38.061,30.918
		C667.563,459.315,672.557,465.156,677.782,471.271z M513.226,783.233c41.085,0,82.169,0.012,123.254-0.011
		c6.002-0.003,9.838-4.509,9.017-10.412c-1.306-9.391-4.664-12.274-14.33-12.275c-79.085-0.009-158.17-0.016-237.255-0.022
		c-1.032,0-2.066-0.04-3.094,0.027c-7.354,0.482-11.958,5.87-11.609,13.56c0.274,6.013,4.283,9.129,11.792,9.129
		C431.74,783.232,472.481,783.23,513.226,783.233z M508.909,420.683c0.004-0.591,0.009-1.182,0.013-1.772
		c39.372,0,78.746-0.248,118.111,0.195c8.502,0.096,11.994-6.962,9.767-13.85c-2.057-6.369-6.549-8.925-14.519-8.727
		c-27.324,0.678-54.653,1.853-81.976,1.737c-47.615-0.203-95.225-1.224-142.838-1.907c-9.461-0.136-15.691,6.026-14.908,14.828
		c0.389,4.385,2.538,6.751,7.254,6.85C429.514,418.864,469.211,419.788,508.909,420.683z M511.734,297.469
		c5.169-1.944,10.793-3.145,15.42-5.976c12.644-7.74,13.736-24.152,2.758-34.074c-10.452-9.446-29.533-8.235-38.261,2.853
		c-2.413,3.066-4.364,7.175-4.795,11.001C485.217,285.823,495.671,296.208,511.734,297.469z"/>
	<path fill-rule="evenodd" clip-rule="evenodd" d="M301.079,284.193c-0.056-14.041-5.562-24.905-14.116-34.583
		c-9.027-10.212-16.759-21.12-19.092-35.082c-3.581-21.424,2.249-39.996,16.69-55.895c4.483-4.936,9.572-9.37,14.686-13.673
		c5.944-5.001,12.66-5.027,16.582-0.551c4.529,5.169,3.86,14.097-1.934,18.77c-7.574,6.108-14.294,12.888-18.695,21.615
		c-5.709,11.322-6.986,23.033-0.338,34.32c4.763,8.086,10.37,15.698,15.904,23.3c21.035,28.894,18.617,63.81-6.432,89.175
		c-4.213,4.267-8.671,8.326-13.278,12.166c-6.182,5.151-12.493,5.017-16.325,0.039c-4.182-5.432-2.991-13.96,2.076-18.61
		c5.535-5.079,11.045-10.275,15.886-15.995C298.899,301.854,300.742,292.774,301.079,284.193z"/>
	<path fill-rule="evenodd" clip-rule="evenodd" d="M205.014,335.644c2.713-4.083,4.604-7.781,7.287-10.772
		c4.563-5.089,10.225-9.269,14.362-14.648c13.083-17.011,12.379-39.31-1.176-56.013c-4.215-5.194-8.665-10.223-12.558-15.649
		c-17.138-23.889-14.76-57.759,5.551-78.943c4.863-5.072,10.063-9.858,15.417-14.412c6.255-5.322,13.054-5.313,16.836-0.468
		c4.8,6.15,3.471,14.398-3.104,19.467c-9.997,7.709-17.787,16.979-21.165,29.477c-2.233,8.26-2.313,16.471,2.092,23.884
		c4.973,8.368,10.393,16.528,16.258,24.295c21.525,28.505,20.834,67.029-11.071,94.685c-3.11,2.696-6.19,5.434-9.41,7.995
		c-3.745,2.98-8.365,4.576-12.269,1.583C209.154,343.892,207.685,339.783,205.014,335.644z"/>
</g>
</svg>
