<?xml version="1.0" encoding="utf-8"?>
<!-- Generator: Adobe Illustrator 16.0.0, SVG Export Plug-In . SVG Version: 6.00 Build 0)  -->
<!DOCTYPE svg PUBLIC "-//W3C//DTD SVG 1.1//EN" "http://www.w3.org/Graphics/SVG/1.1/DTD/svg11.dtd">
<svg version="1.1" xmlns="http://www.w3.org/2000/svg" xmlns:xlink="http://www.w3.org/1999/xlink" x="0px" y="0px" width="1024px"
	 height="1024px" viewBox="0 0 1024 1024" enable-background="new 0 0 1024 1024" xml:space="preserve">
<g id="Layer_1" display="none">
	<path display="inline" fill-rule="evenodd" clip-rule="evenodd" d="M700.29,337.519c55.732,87.883,111.593,175.685,167.452,263.487
		c21.24,33.386,42.795,66.574,63.718,100.158c22.815,36.622,4.173,81.982-38.931,91.049c-2.899,0.609-5.971,0.545-8.962,0.549
		c-29.665,0.037-59.33,0.022-88.995,0.022c0-0.006,0-0.012,0-0.018c-30.499,0-60.997,0.055-91.495-0.06l-361.859,0.069
		c-65.663,0.011-131.326-0.041-196.989,0.089c-24.093,0.048-42.862-9.763-54.159-30.93c-11.075-20.751-9.03-42.013,3.421-61.657
		c31.511-49.713,63.545-99.094,95.246-148.687c46.741-73.122,93.461-146.259,139.793-219.64l63.959-90.916
		c16.837-26.534,33.911-52.919,50.735-79.462c16.295-25.708,39.892-38.659,69.947-38.838c26.772-0.159,49.159,10.511,64.305,32.92
		c18.891,27.952,36.699,56.638,54.828,85.1L700.29,337.519z"/>
</g>
<g id="Layer_2">
	<g>
		<path fill-rule="evenodd" clip-rule="evenodd" d="M279.575,795.77c-38.89,0-77.273,0.102-115.656-0.061
			c-11.791-0.051-23.942,0.86-35.299-1.587c-30.954-6.671-46.852-43.531-30.789-70.968c13.368-22.835,28.224-44.792,42.091-67.341
			c36.232-58.915,72.305-117.93,108.323-176.975c1.226-2.012,1.849-4.854,1.633-7.207c-1.801-19.757-3.923-39.484-5.833-59.231
			c-1.861-19.233-3.504-38.488-5.396-57.718c-1.857-18.888-4.006-37.746-5.823-56.636c-0.703-7.314-1.783-14.782-1.017-22
			c1.036-9.759,7.634-16.537,15.507-21.918c13.796-9.427,29.48-14.086,45.613-17.14c34.847-6.596,69.988-10.526,105.519-10.462
			c6.333,0.012,12.715-0.271,18.976-1.13c1.985-0.272,4.237-2.512,5.378-4.438c15.491-26.146,32.812-51.456,45.65-78.86
			c15.337-32.739,70.025-34.28,89.567-1.628c27.365,45.724,55.852,90.775,83.647,136.245c2.57,4.205,5.242,5.611,10.12,5.623
			c27.947,0.068,55.896,0.532,83.842,0.911c7.813,0.106,14.71,6.319,15.419,15.089c1.185,14.661,2.748,29.454-0.955,43.979
			c-1.076,4.222-3.649,8.061-6.165,11.835c2.927,29.807,11.817,58.088,26.849,84.589c11.418,20.125,19.053,41.804,22.625,64.792
			c0.253,1.63,0.692,3.373,1.553,4.746c30.83,49.212,61.674,98.417,92.624,147.553c13.114,20.818,26.187,41.672,39.774,62.181
			c21.646,32.674-0.614,75.353-39.796,77.751c-15.038,0.921-30.144,0.783-45.22,1.063c-21.604,0.403-43.211,0.641-64.812,1.146
			c-23.599,0.551-45.333,8.338-67.035,16.854c-47.38,18.591-94.818,37.063-142.609,54.557
			c-27.743,10.154-56.789,15.854-86.197,18.878c-27.832,2.861-55.716,3.144-83.642,0.317c-24.026-2.433-47.647-6.365-70.092-15.608
			c-12.558-5.173-24.207-11.83-33.792-21.761c-8.936-9.257-10.755-21.018-12.208-32.951
			C281.105,811.317,280.473,804.352,279.575,795.77z M260.632,305.55c-0.251,3.439-0.791,6.104-0.581,8.708
			c1.363,16.883,2.918,33.752,4.354,50.63c1.51,17.733,2.925,35.475,4.441,53.208c1.574,18.414,3.223,36.822,4.832,55.233
			c1.178,13.467,2.329,26.937,3.522,40.402c1.209,13.635,2.484,27.265,3.677,40.901c1.193,13.638,2.3,27.282,3.481,40.92
			c1.566,18.071,3.194,36.137,4.75,54.208c1.526,17.733,2.929,35.478,4.507,53.206c1.502,16.871,3.218,33.724,4.736,50.594
			c1.856,20.62,3.639,41.248,5.388,61.878c0.708,8.352,3.442,15.764,10.193,21.039c3.338,2.609,7.052,4.894,10.896,6.679
			c25.279,11.739,52.211,16.992,79.778,18.277c28.414,1.323,56.831,0.338,84.786-5.94c15.167-3.405,30.084-7.48,43.65-15.488
			c7.707-4.55,12.542-10.977,14.036-19.773c0.688-4.041,1.019-8.149,1.394-12.237c1.497-16.35,2.862-32.714,4.441-49.056
			c1.858-19.237,3.961-38.451,5.826-57.687c2.21-22.811,4.184-45.645,6.437-68.451c2.555-25.871,5.394-51.714,7.943-77.585
			c2.903-29.445,5.535-58.918,8.448-88.362c2.56-25.869,5.404-51.709,8.01-77.573c2.468-24.503,4.809-49.02,7.159-73.535
			c0.511-5.338,0.822-10.695,1.324-17.348c-7.637,8.498-16.332,12.677-25.597,15.767c-33.272,11.096-67.895,13.82-102.534,15.204
			c-46.79,1.87-93.523,0.167-140.032-5.92C306.513,320.386,283.371,316.491,260.632,305.55z M657.602,352.69
			c0,5.736-0.022,10.828,0.004,15.92c0.082,15.818-3.722,30.699-10.492,44.939c-7.75,16.298-15.297,32.693-22.956,49.035
			c-10.389,22.167-12.942,45.509-7.323,69.011c2.988,12.501,4.318,24.845,4.566,37.471c0.458,23.32,0.945,46.646,0.927,69.968
			c-0.005,7.813-0.464,15.912-2.52,23.385c-7.115,25.867-9.031,52.111-7.488,78.729c0.75,12.941,9.354,29.901,24.339,32.528
			c4.36,0.765,8.808,1.439,13.218,1.464c25.556,0.141,51.113,0.13,76.67,0.032c4.944-0.018,9.995-0.109,14.809-1.092
			c16.157-3.299,27.313-6.807,30.421-28.409c2.936-20.402,2.351-41.047-1.706-61.306c-3.182-15.884-7.887-31.409-7.667-47.896
			c0.351-26.239-0.045-52.488,0.288-78.729c0.097-7.629,1.169-15.318,2.537-22.845c4.321-23.768,3.464-47.141-6.387-69.381
			c-7.111-16.057-15.396-31.613-23.594-47.163c-6.835-12.964-10.235-26.654-10.78-41.194c-0.27-7.156-0.738-14.306-1.129-21.676
			c-5.536-0.478-10.714-0.925-16.176-1.397c0.312,6.842,0.707,12.952,0.849,19.068c0.513,22.216,5.143,43.291,16.438,62.72
			c5.146,8.854,9.647,18.079,14.487,27.109c10.636,19.843,11.722,41.136,9.404,62.882c-0.739,6.942-2.966,13.793-3.119,20.718
			c-0.65,29.491-1.154,58.997-0.905,88.491c0.095,11.193,1.222,22.648,3.88,33.494c5.493,22.408,9.526,44.804,7.16,67.949
			c-1.409,13.78-3.867,19.534-18.729,19.985c-30.486,0.926-61.02,0.49-91.531,0.306c-8.549-0.052-12.656-4.079-14.238-12.572
			c-3.533-18.975-2.592-38.092,1.853-56.553c5.327-22.126,8.441-44.158,7.517-66.938c-0.939-23.125-0.701-46.297-1.272-69.441
			c-0.129-5.229-0.875-10.604-2.366-15.605c-5.328-17.879-6.365-36.263-0.441-53.563c6.639-19.392,15.311-38.313,25.132-56.332
			c12.305-22.576,13.817-46.362,13.073-71.54C668.731,353.736,663.545,353.249,657.602,352.69z M440.179,262.733
			c16.46,1.115,45.358,2.657,74.172,5.16c22.47,1.952,44.518,6.32,65.117,16.208c4.92,2.362,9.894,0.684,12.283-3.774
			c2.816-5.252-1.134-7.994-4.547-9.822c-6.418-3.437-13.094-6.685-20.031-8.807c-38.614-11.816-78.549-14.322-118.542-15.373
			c-33.397-0.877-66.807-0.289-100.06,3.899c-20.993,2.645-41.997,5.245-62.221,11.7c-7.729,2.468-15.177,6.001-22.453,9.649
			c-4.984,2.5-6.723,9.185-4.28,13.22c2.077,3.431,5.302,3.076,11.428,1.021c14.809-4.967,29.588-10.466,44.818-13.644
			C352.693,264.489,390.198,263.31,440.179,262.733z M727.42,308.267c-26.438,0-52.374,0-78.843,0c0,8.086,0,15.847,0,23.744
			c26.411,0,52.532,0,78.843,0C727.42,323.975,727.42,316.314,727.42,308.267z"/>
		<path fill-rule="evenodd" clip-rule="evenodd" d="M573.064,370.873c-1.121,12.314-2.139,24.22-3.307,36.109
			c-1.537,15.655-3.193,31.297-4.795,46.945c-1.621,15.819-3.299,31.633-4.835,47.459c-1.554,16.007-2.94,32.03-4.443,48.042
			c-1.521,16.174-3.118,32.341-4.636,48.514c-1.567,16.694-3.078,33.394-4.614,50.091c-1.27,13.795-2.582,27.586-3.798,41.387
			c-1.187,13.467-2.219,26.946-3.422,40.411c-1.341,14.991-2.629,29.989-4.285,44.947c-0.686,6.207-4.832,10.363-10.075,13.459
			c-15.651,9.246-32.758,14.146-50.579,16.813c-25.882,3.873-51.916,4.141-77.909,1.936c-20.914-1.774-41.638-4.987-61.226-13.292
			c-11.509-4.88-16.708-13.274-17.382-25.786c-1.065-19.812-3.227-39.563-4.837-59.346c-1.484-18.249-2.762-36.516-4.301-54.76
			c-1.496-17.728-3.267-35.432-4.808-53.156s-2.897-35.466-4.428-53.191c-1.56-18.066-3.307-36.115-4.835-54.185
			c-1.558-18.415-2.921-36.847-4.428-55.268c-0.864-10.573-1.852-21.136-2.764-31.705c-0.16-1.859-0.221-3.726-0.372-6.36
			c4.369,2.532,8.25,4.563,11.851,7.008c1.01,0.686,1.556,2.548,1.702,3.937c1.414,13.439,2.725,26.891,4.009,40.345
			c1.656,17.36,3.233,34.728,4.9,52.086c0.702,7.308,1.119,14.678,2.417,21.884c2.085,11.58,10.974,15.553,18.979,14.824
			c9.102-0.828,15.226-9.447,14.732-19.667c-1.951-40.386-3.972-80.769-5.854-121.159c-0.309-6.638-0.043-13.303-0.043-20.668
			c6.552,0.565,12.791,0.891,18.972,1.675c23.37,2.961,46.732,5.988,70.076,9.149c23.399,3.169,46.849,2.52,70.259,0.741
			c24.323-1.849,47.685-7.953,70.065-17.722C570.243,371.848,571.494,371.454,573.064,370.873z M495.918,449.979
			c-16.236-0.031-27.668,10.563-27.722,25.692c-0.061,17.565,11.408,30.903,26.58,30.911c17.241,0.009,31.334-13.128,31.312-29.189
			C526.067,461.756,513.142,450.013,495.918,449.979z M394.348,612.162c-0.044-13.694-9.41-22.891-23.397-22.975
			c-13.069-0.079-24.237,11.603-24.191,25.304c0.04,12.087,11.635,22.801,24.434,22.575
			C384.467,636.833,394.395,626.157,394.348,612.162z M405.432,503.953c0.092-8.222-6.545-15.084-14.725-15.225
			c-8.015-0.139-16.024,7.502-16.156,15.412c-0.143,8.54,6.072,14.736,14.833,14.791
			C398.462,518.985,405.334,512.572,405.432,503.953z M418.525,451.035c8.722-0.042,14.724-5.574,14.687-13.536
			c-0.038-8.146-7.636-15.634-15.818-15.584c-7.627,0.046-14.549,6.487-14.652,13.631
			C402.605,445.035,408.767,451.082,418.525,451.035z M436.262,567.383c8.445,0.003,14.417-5.596,14.351-13.457
			c-0.067-8.058-6.988-14.493-15.549-14.459c-6.997,0.028-13.085,5.74-13.156,12.342
			C421.817,560.284,428.357,567.38,436.262,567.383z M474.371,592.289c-0.341,7.408,5.333,13.804,12.534,14.129
			c7.611,0.344,14.856-6.099,15.262-13.572c0.394-7.259-6.112-13.716-14.077-13.971C481.52,578.666,474.69,585.343,474.371,592.289z
			 M398.812,692.708c-8.522,0.032-14.734,5.218-14.746,12.312c-0.015,8.777,5.94,15.22,13.918,15.058
			c7.217-0.147,13.539-6.329,13.609-13.31C411.678,698.427,406.453,692.68,398.812,692.708z M458.082,660.539
			c0.069-8.848-4.749-13.95-13.197-13.975c-7.479-0.022-13.66,6.107-13.667,13.558c-0.008,6.863,7.194,13.368,14.811,13.376
			C453.112,673.505,458.021,668.228,458.082,660.539z M474.027,705.228c-7.241-0.049-12.947,5.827-13.037,13.424
			c-0.093,7.83,3.926,12.613,10.738,12.783c7.994,0.199,16.011-6.806,16.023-13.998
			C487.762,710.729,481.636,705.279,474.027,705.228z"/>
		<path fill-rule="evenodd" clip-rule="evenodd" d="M524.983,807.411c0.461,6.702-2.741,10.935-7.901,14.155
			c-12.413,7.749-26.376,10.786-40.473,13.293c-22.833,4.062-45.911,5.237-69.017,4.058c-22.52-1.15-44.887-3.872-65.752-13.347
			c-7.225-3.279-14.075-7.276-16.169-15.913c-0.145-0.594-0.085-1.236-0.15-2.376c32.424,12.626,65.785,17.286,99.893,17.507
			C459.559,825.011,493.276,822.712,524.983,807.411z"/>
		<path fill-rule="evenodd" clip-rule="evenodd" d="M298.885,386.647c-1.098,0-1.292,0.059-1.412-0.009
			c-12.458-7.063-12.453-7.064-12.476-21.589c-0.008-5.314-0.187-10.632-0.045-15.942c0.168-6.254,3.073-10.952,9.284-14.557
			C295.815,352.243,297.34,369.337,298.885,386.647z"/>
		<path fill-rule="evenodd" clip-rule="evenodd" d="M482.513,478.351c0.085-8.521,7.011-15.197,15.528-14.969
			c7.803,0.208,13.442,5.783,13.397,13.247c-0.052,8.701-7.488,16.609-15.587,16.574
			C487.774,493.168,482.423,487.208,482.513,478.351z"/>
		<path fill-rule="evenodd" clip-rule="evenodd" d="M359.105,613.093c0.033-6.933,5.068-11.837,12.095-11.778
			c6.58,0.054,11.614,4.889,11.6,11.139c-0.014,6.641-5.542,12.53-11.727,12.492C363.998,624.903,359.073,620.025,359.105,613.093z"
			/>
	</g>
</g>
</svg>
