<?xml version="1.0" encoding="utf-8"?>
<!-- Generator: Adobe Illustrator 16.0.0, SVG Export Plug-In . SVG Version: 6.00 Build 0)  -->
<!DOCTYPE svg PUBLIC "-//W3C//DTD SVG 1.1//EN" "http://www.w3.org/Graphics/SVG/1.1/DTD/svg11.dtd">
<svg version="1.1" xmlns="http://www.w3.org/2000/svg" xmlns:xlink="http://www.w3.org/1999/xlink" x="0px" y="0px" width="1024px"
	 height="1024px" viewBox="0 0 1024 1024" enable-background="new 0 0 1024 1024" xml:space="preserve">
<g id="Layer_1" display="none">
	<path display="inline" fill-rule="evenodd" clip-rule="evenodd" d="M700.29,337.519c55.732,87.883,111.593,175.685,167.452,263.487
		c21.24,33.386,42.795,66.574,63.718,100.158c22.815,36.622,4.173,81.982-38.931,91.049c-2.899,0.609-5.971,0.545-8.962,0.549
		c-29.665,0.037-59.33,0.022-88.995,0.022c0-0.006,0-0.012,0-0.018c-30.499,0-60.997,0.055-91.495-0.06l-361.859,0.069
		c-65.663,0.011-131.326-0.041-196.989,0.089c-24.093,0.048-42.862-9.763-54.159-30.93c-11.075-20.751-9.03-42.013,3.421-61.657
		c31.511-49.713,63.545-99.094,95.246-148.687c46.741-73.122,93.461-146.259,139.793-219.64l63.959-90.916
		c16.837-26.534,33.911-52.919,50.735-79.462c16.295-25.708,39.892-38.659,69.947-38.838c26.772-0.159,49.159,10.511,64.305,32.92
		c18.891,27.952,36.699,56.638,54.828,85.1L700.29,337.519z"/>
</g>
<g id="Layer_2">
	<g>
		<path fill-rule="evenodd" clip-rule="evenodd" d="M734.865,811.506c11.554,4.279,23.349,7.884,34.418,13.042
			c6.42,2.99,12.389,7.802,17.294,12.992c8.277,8.758,7.483,18.806-1.141,27.231c-10.484,10.243-23.791,15.462-37.313,19.981
			c-24.557,8.208-49.949,12.501-75.57,15.932c-43.273,5.797-86.729,7.667-130.273,6.015c-51.482-1.954-102.494-7.359-150.857-27.05
			c-43.089-17.543-78.654-44.672-105.261-83.082c-1.825-2.635-3.781-3.4-6.87-3.404c-48.116-0.043-96.232-0.071-144.347-0.411
			c-26.163-0.186-48.413-25.876-45.755-51.85c1.035-10.107,4.554-19.019,9.926-27.555c54.187-86.101,108.243-172.286,162.36-258.432
			c68.894-109.67,137.836-219.31,206.683-329.01c8.575-13.664,19.54-23.727,35.928-26.875c16.421-3.154,31.268,0.824,42.698,12.433
			c8.649,8.785,15.516,19.509,22.248,29.967c19.739,30.659,39.014,61.617,58.474,92.455c0.529,0.839,1.097,1.654,1.972,2.972
			c7.036-10.827,14.196-21.022,20.513-31.716c17.69-29.949,41.336-53.983,70.449-72.866c25.494-16.537,50.729-33.477,76.338-49.833
			c4.944-3.158,10.952-5.499,16.722-6.233c4.158-0.529,9.429,1.245,12.979,3.737c7.087,4.976,13.622,10.853,19.86,16.899
			c9.888,9.581,10.189,22.073-0.322,30.931c-12.069,10.171-25.243,19.037-38.016,28.364c-21.471,15.68-43.14,31.093-64.455,46.98
			c-11.545,8.604-20.715,19.54-28.236,31.854c-13.663,22.371-27.328,44.741-41.235,66.959c-1.794,2.866-0.525,4.365,0.735,6.375
			c40.202,64.139,80.383,128.29,120.603,192.418c44.644,71.18,89.332,142.333,133.979,213.512
			c12.413,19.788,12.69,42.063,0.214,58.024c-11.03,14.112-25.556,21.288-43.81,21.228c-44.106-0.146-88.214,0.157-132.321,0.066
			c-4.489-0.009-7.217,1.083-9.478,5.17C741.416,803.395,737.797,807.486,734.865,811.506z M656.791,479.478
			c10.251,11.529,21.834,23.369,32.07,36.278c43.178,54.446,61.703,115.863,49.5,185.035c-8.824,50.023-34.34,89.95-75.904,119.424
			c-33.633,23.848-71.516,35.368-112.235,38.353c-38.377,2.813-76.493,0.864-113.969-8.363
			c-30.341-7.472-58.495-19.958-82.618-40.132c-38.812-32.461-58.193-75.18-63.938-124.67c-2.876-24.771-0.826-49.308,5.189-73.478
			c9.273-37.263,25.455-71.071,51.148-99.906c9.015-10.118,18.622-19.71,27.937-29.519c-4.228-4.587-8.649-9.387-13.181-14.304
			c-15.34,12.872-28.951,27.046-40.897,42.756c-45.333,59.609-63.301,126.261-47.805,199.979
			c14.809,70.451,57,119.507,123.185,147.611c29.817,12.661,61.236,18.71,93.559,20.275c40.138,1.942,79.906,0.115,118.921-10.634
			c82.282-22.67,148.292-93.187,153.549-188.909c1.771-32.27-2.762-63.717-13.475-94.261
			c-16.315-46.51-43.872-85.196-79.981-116.471C663.89,472.455,660.227,476.08,656.791,479.478z M564.365,340.033
			c-11.178-0.906-21.02-1.774-30.873-2.49c-32.128-2.335-63.981,0.048-95.453,6.606c-16.677,3.475-32.851,8.75-46.695,19.33
			c-16.133,12.331-17.5,32.537-2.64,46.402c4.878,4.551,10.734,8.352,16.708,11.381c24.907,12.632,52.016,16.789,79.406,18.822
			c32.928,2.443,65.721,0.517,98.116-6.19c18.455-3.821,36.079-9.854,51.4-21.328c18.423-13.798,19.131-34.35,1.308-47.691
			c-2.747,4.625-5.539,9.18-8.146,13.839c-0.481,0.859-0.608,2.299-0.234,3.194c2.599,6.215,0.278,11.369-4.534,14.676
			c-6.785,4.663-13.947,9.185-21.579,12.134c-23.458,9.065-48.18,11.198-73.104,11.779c-29.997,0.698-59.793-0.712-88.936-8.587
			c-11.409-3.082-22.579-6.984-32.177-14.189c-9.95-7.468-9.714-16.275,0.716-22.893c4.211-2.672,8.781-4.968,13.467-6.667
			c20.046-7.27,40.92-10.303,62.102-11.939c23.327-1.801,46.584-1.395,70.195,0.908
			C556.774,351.881,560.206,346.525,564.365,340.033z M812.936,100.158c-0.929,0.571-1.516,0.904-2.075,1.278
			c-27.011,18.055-54.076,36.029-81.011,54.199c-20.819,14.046-38.944,30.741-52.536,52.24
			c-32.757,51.812-65.896,103.382-98.856,155.066c-7.802,12.232-15.506,24.526-23.256,36.792c0.254,0.578,0.508,1.158,0.762,1.736
			c10.697-2.418,21.414-4.755,32.064-7.371c1.193-0.293,2.179-2.053,2.958-3.319c32.729-53.236,65.518-106.437,98.065-159.785
			c10.29-16.867,20.839-33.518,36.75-45.674c22.652-17.309,45.6-34.236,68.588-51.098c10.448-7.663,21.297-14.778,32.312-22.382
			C821.872,107.744,817.417,103.962,812.936,100.158z M314.71,654.755c0,2.788-0.198,5.592,0.036,8.361
			c0.795,9.395,2.355,18.624,8.128,26.463c2.169,2.946,4.826,6.259,9.017,4.483c4.167-1.766,7.702-4.458,7.946-9.909
			c0.883-19.638,3.737-39.023,9.006-57.957c7.364-26.46,20.909-49.672,37.688-71.275c5.877-7.567,10.926-16.025,14.93-24.729
			c4.245-9.231-2.154-15.325-12.911-13.97c-2.148,0.271-4.433,1.179-6.205,2.432c-5.804,4.105-12.068,7.854-16.968,12.894
			C332.08,565.793,317.928,608.061,314.71,654.755z M377.823,424.822c-1.182,3.472-2.002,6.683-3.34,9.662
			c-4.402,9.811-0.581,17.049,6.979,23.162c2.695,2.179,5.442,4.329,8.354,6.2c15.263,9.811,32.411,14.601,49.929,18.155
			c10.076,2.044,20.292,3.39,30.498,5.059c1.641-10.418,3.112-19.768,4.588-29.147C440.172,453.09,405.595,449.603,377.823,424.822z
			 M651.182,431.219c-7.21,7.399-5.826,15.702-3.03,24.383C657.055,448.371,653.046,439.743,651.182,431.219z"/>
	</g>
</g>
</svg>
